<svg width="110" height="50" viewBox="0 0 110 50" fill="none" xmlns="http://www.w3.org/2000/svg">
<path opacity="0.8" fill-rule="evenodd" clip-rule="evenodd" d="M32.9797 16.7803V27.0118H37.9695V23.0766C37.9695 20.4794 37.9695 19.0627 37.9695 18.9053C38.0475 18.5118 38.1254 18.1183 38.3593 17.8035C38.6712 17.2525 39.2169 17.0164 39.8407 17.0951C40.6983 17.1738 41.2441 17.6461 41.4 18.6692C41.4 18.8266 41.4 20.4007 41.4 22.9192V26.9331H46.3898V22.2109C46.3898 18.197 46.3898 17.4099 46.3119 17.0164C46.1559 15.5998 45.6881 14.4979 44.8305 13.7109C44.1288 13.0025 43.2712 12.609 42.2576 12.4516C41.8678 12.3729 40.7763 12.4516 40.4644 12.5303C39.5288 12.7664 38.8271 13.0812 38.2034 13.7896L37.8136 14.1044V6.54883H32.8237V16.7803H32.9797ZM85.9966 6.70624C85.8407 7.02105 80.7729 19.3775 80.7729 19.3775C80.7729 19.3775 82.0983 19.3775 83.7356 19.3775H86.6983L89.3492 13.0025C90.8305 9.46087 92 6.54883 92 6.54883C92 6.54883 90.6746 6.54883 89.0373 6.54883H86.0746L85.9966 6.70624ZM22.0644 12.5303C20.9729 12.6877 20.1153 13.0025 19.2576 13.5535C17.5424 14.6553 16.4508 16.5442 16.139 18.7479C15.9831 19.7711 16.061 21.0303 16.2949 21.9748C16.9186 24.4146 18.5559 26.3035 20.661 27.0118C21.4407 27.2479 21.7525 27.3266 22.6881 27.3266C23.3898 27.3266 23.6237 27.3266 23.8576 27.2479C24.8712 27.0118 25.5729 26.6183 26.1966 25.9886L26.5085 25.6738V26.9331H31.3424V12.7664H26.5085V14.0257L26.2746 13.7896C25.7288 13.1599 24.9492 12.7664 23.9356 12.5303C23.6237 12.4516 23.4678 12.4516 22.8441 12.4516C22.4542 12.5303 22.1424 12.5303 22.0644 12.5303ZM53.8746 12.5303C52.5491 12.6877 51.1458 13.3173 50.1322 14.1044C48.1831 15.7572 47.1695 18.3544 47.5593 21.0303C47.9492 24.0211 50.0542 26.3035 53.0169 27.0905C53.6407 27.2479 54.2644 27.3266 55.0441 27.3266C56.4475 27.3266 57.461 27.0905 58.5525 26.5396C60.7356 25.4377 62.139 23.4701 62.4508 21.0303C62.5288 20.4007 62.5288 19.3775 62.4508 18.8266C62.2949 17.646 61.8271 16.4655 61.1254 15.5211C60.8136 15.1275 60.1898 14.4192 59.8 14.1044C58.7085 13.2386 57.461 12.6877 56.0576 12.5303C55.5119 12.4516 54.4203 12.4516 53.8746 12.5303ZM69.7797 12.5303C68.4542 12.6877 67.1288 13.2386 66.1153 14.1044C65.7254 14.4192 65.0237 15.1275 64.7898 15.5211C64.0881 16.4655 63.6983 17.646 63.4644 18.8266C63.3864 19.3775 63.3864 20.4794 63.4644 21.0303C63.9322 24.1785 66.1932 26.6183 69.3119 27.2479C69.9356 27.4053 70.2475 27.4053 70.9492 27.4053C72.2746 27.4053 73.4441 27.1692 74.5356 26.5396C77.4203 25.0442 78.9797 21.7386 78.278 18.3544C77.6542 15.2062 75.1593 12.9238 71.9627 12.5303C71.417 12.4516 70.3254 12.4516 69.7797 12.5303ZM0 12.8451C0 12.8451 1.32542 16.072 2.96271 20.0072C4.6 23.9423 5.92542 27.1692 5.92542 27.1692C5.92542 27.1692 5.45763 28.3498 4.8339 29.7664C4.21017 31.1831 3.74237 32.2849 3.74237 32.3636C3.74237 32.4424 4.91187 32.3636 6.39322 32.3636H9.04407L13.0203 22.6831C15.2034 17.3312 16.9966 13.0025 16.9966 12.9238C16.9966 12.9238 16.4508 12.8451 14.3458 12.9238H11.6949L10.0576 17.0164C9.35593 19.2201 8.65424 21.109 8.65424 21.109C8.65424 21.109 7.95254 19.2201 7.01695 17.0164L5.45763 12.9238H2.72881C1.24746 12.8451 0 12.8451 0 12.8451ZM24.4814 17.0951C25.4949 17.3312 26.2746 18.1183 26.5864 19.1414C26.6644 19.5349 26.6644 20.2433 26.5864 20.6368C26.3525 21.6599 25.5729 22.447 24.5593 22.6831C24.1695 22.7618 23.4678 22.7618 23.078 22.6831C22.2203 22.447 21.4407 21.8173 21.1288 21.0303C20.739 20.1646 20.8949 19.0627 21.3627 18.2757C22.0644 17.2525 23.2339 16.859 24.4814 17.0951ZM55.5898 17.1738C56.6814 17.3312 57.539 18.197 57.7729 19.2988C57.8508 19.6923 57.8508 20.322 57.7729 20.7155C57.539 21.7386 56.7593 22.447 55.8237 22.7618C55.5119 22.8405 54.6542 22.8405 54.3424 22.7618C53.5627 22.5257 52.939 21.9748 52.5492 21.2664C52.3153 20.7942 52.3153 20.5581 52.3153 20.0072C52.3153 19.5349 52.3932 19.2988 52.5492 18.9053C52.7831 18.4331 53.0949 17.9609 53.5627 17.646C54.0305 17.1738 54.8102 17.0164 55.5898 17.1738ZM71.4169 17.1738C72.3525 17.3312 73.1322 17.9609 73.4441 18.8266C73.6 19.2201 73.678 19.4562 73.678 19.9285C73.678 20.4794 73.6 20.7155 73.4441 21.1877C73.1322 21.896 72.4305 22.447 71.6508 22.6831C71.339 22.7618 70.4814 22.7618 70.1695 22.6831C69.2339 22.447 68.4542 21.6599 68.2203 20.6368C68.1424 20.2433 68.1424 19.5349 68.2203 19.1414C68.5322 17.8822 69.6237 17.0164 70.8712 17.0164C71.0271 17.0951 71.261 17.0951 71.4169 17.1738ZM82.0203 20.6368C80.539 20.7942 79.4475 21.8961 79.1356 23.3127C79.0576 23.7062 79.0576 24.4146 79.1356 24.8081C79.4475 26.0673 80.383 26.9331 81.6305 27.2479C81.7864 27.2479 82.0983 27.3266 82.3322 27.3266C83.2678 27.3266 84.0475 27.0118 84.6712 26.3822C85.3729 25.6738 85.6068 24.9655 85.6068 24.0211C85.6068 22.8405 85.061 21.8173 84.1254 21.2664C83.5017 20.7155 82.6441 20.5581 82.0203 20.6368ZM40.9322 28.3498C39.9186 28.6646 39.4509 29.8451 39.9966 30.7109C40.1525 30.947 40.4644 31.2618 40.6983 31.3405C40.9322 31.4192 40.9322 31.4192 41.4 31.4192C41.7898 31.4192 41.8678 31.4192 42.1017 31.3405C42.4136 31.1831 42.7254 30.8683 42.8814 30.5535C43.2712 29.7664 42.8814 28.822 42.1017 28.4285C41.8678 28.271 41.7898 28.271 41.478 28.271C41.1661 28.271 41.0881 28.2711 40.9322 28.3498ZM36.722 28.4285C35.3966 28.6646 34.539 29.5303 34.1492 30.947C34.0712 31.1831 34.0712 31.4192 34.0712 31.734V32.2849H32.9797V34.646H34.0712V40.3127H37.0339V34.646H39.061V32.2849H37.0339V32.0488C37.1119 31.4979 37.3458 31.1044 37.8136 31.0257C38.1254 30.947 38.5932 30.947 38.9051 31.1044C39.061 31.1831 39.139 31.1831 39.139 31.1831C39.139 31.1831 39.139 30.6322 39.139 29.9238V28.6646L38.9051 28.5859C38.5932 28.4285 38.2034 28.4285 37.6576 28.4285C37.2678 28.3498 36.9559 28.4285 36.722 28.4285ZM48.5729 32.1275C47.9492 32.2849 47.4814 32.5998 47.1695 32.9933L47.0136 33.2294V32.2849H44.0508V40.3127H47.0136V38.109C47.0136 36.8498 47.0136 35.8266 47.0136 35.6692C47.0915 35.3544 47.2475 35.0396 47.4034 34.8822C47.7932 34.5673 48.4949 34.646 48.8068 35.0396C49.0407 35.3544 49.0407 35.3544 49.0407 37.8729V40.234H52.0034V37.5581C52.0034 34.7248 52.0034 34.4099 51.8475 33.859C51.6915 33.3868 51.5356 32.9933 51.1458 32.6785C50.8339 32.3636 50.522 32.1275 50.0542 32.0488C49.6644 32.0488 48.8847 32.0488 48.5729 32.1275ZM55.9797 32.0488C55.5119 32.1275 54.8102 32.3636 54.4203 32.6785C53.5627 33.3081 53.0169 34.2525 52.783 35.4331C52.7051 35.9053 52.7051 36.7711 52.783 37.2433C52.939 37.9516 53.1729 38.6599 53.5627 39.1322C54.1085 39.8405 54.8102 40.3127 55.6678 40.4701C56.1356 40.5488 56.9153 40.5488 57.3051 40.3914C57.7729 40.234 58.0847 40.0766 58.4746 39.7618L58.7864 39.447V40.234H61.7491V32.2062H58.7864V32.9933L58.5525 32.9146C58.1627 32.5211 57.6169 32.2062 56.9932 32.1275C56.7593 32.0488 56.2136 32.0488 55.9797 32.0488ZM67.2847 32.1275C66.739 32.2062 66.1932 32.5998 65.8814 32.9933L65.7254 33.1507V32.2062H62.7627V40.234H65.7254V37.9516C65.7254 35.5118 65.7254 35.5118 65.8814 35.1183C66.0373 34.8035 66.3492 34.646 66.661 34.646C66.9729 34.646 67.1288 34.7248 67.3627 34.8822C67.6746 35.197 67.6746 35.1183 67.6746 37.7942V40.1553H70.6373V37.2433C70.6373 34.3312 70.6373 34.3312 70.5593 34.0164C70.4814 33.859 70.4034 33.5442 70.3254 33.3081C70.1695 32.9933 70.0915 32.9146 69.8576 32.6785C69.5458 32.3636 69.3119 32.2062 69 32.0488C68.4542 32.0488 67.8305 31.9701 67.2847 32.1275ZM75.0034 32.1275C73.678 32.3636 72.6644 32.9933 72.0407 34.0951C71.8848 34.4099 71.7288 34.8035 71.5729 35.197C71.4949 35.5905 71.4949 35.6692 71.4949 36.2988C71.4949 37.0072 71.4949 37.2433 71.7288 37.7942C72.1966 39.1322 73.2881 40.1553 74.7695 40.4701C75.0034 40.5488 75.2373 40.5488 75.7831 40.5488C76.5627 40.5488 76.8746 40.4701 77.4203 40.234L77.7322 40.0766V37.4007L77.4983 37.5581C77.1085 37.7942 76.8746 37.8729 76.4068 37.8729C75.939 37.8729 75.7051 37.8729 75.3932 37.7155C75.0814 37.5581 74.8475 37.322 74.6915 37.0072C74.6136 36.771 74.6136 36.7711 74.6136 36.3775C74.6136 36.0627 74.6136 35.984 74.6915 35.7479C74.9254 35.1183 75.4712 34.8035 76.2508 34.7248C76.7966 34.7248 77.0305 34.7248 77.8102 35.1183C77.8102 35.1183 77.8102 34.4886 77.8102 33.7803V32.4423L77.5763 32.3636C76.7186 32.0488 75.7831 31.9701 75.0034 32.1275ZM81.7085 32.1275C79.4475 32.5211 78.0441 34.4886 78.2 36.7711C78.278 37.5581 78.5119 38.2664 78.9017 38.8173C79.4474 39.6831 80.3051 40.234 81.3966 40.4701C81.8644 40.5488 83.1119 40.5488 83.6576 40.4701C84.4373 40.3127 85.139 39.9192 85.6847 39.3683C85.9186 39.1322 86.3085 38.5812 86.3085 38.5812C86.3085 38.5812 85.7627 38.3451 85.061 38.109L83.8136 37.6368L83.6576 37.7942C83.4237 38.0303 83.2678 38.109 82.9559 38.1877C82.0983 38.4238 81.2407 37.9516 81.0847 37.1646V37.0072H86.5424V36.2988C86.5424 35.8266 86.5424 35.5118 86.4644 35.3544C86.3085 34.4099 85.9186 33.7803 85.3729 33.1507C84.8271 32.5998 84.2034 32.2849 83.3458 32.1275C83.0339 32.0488 82.0983 32.0488 81.7085 32.1275ZM39.9186 40.3127H42.8814V32.2849H39.9186V40.3127ZM82.878 34.3312C83.1119 34.4099 83.1898 34.4886 83.4237 34.646C83.5797 34.8035 83.7356 34.9609 83.7356 35.197V35.3544H82.4102C80.9288 35.3544 81.0068 35.3544 81.1627 35.0396C81.3966 34.4886 82.0983 34.1738 82.878 34.3312ZM57.6949 34.7248C58.0847 34.8035 58.5525 35.197 58.7085 35.5905C59.0983 36.4562 58.7085 37.4794 57.7729 37.7942C57.461 37.8729 56.9932 37.8729 56.6814 37.7942C56.2136 37.6368 55.7458 37.2433 55.6678 36.7711C55.5898 36.5349 55.5898 36.4562 55.5898 36.2201C55.5898 35.9053 55.5898 35.8266 55.7458 35.5905C56.0576 34.8822 56.8373 34.5674 57.6949 34.7248Z" fill="#EFEFE5"/>
<path d="M99.6312 0.909794L103.627 0.949902C104.741 0.932567 105.438 0.741482 106.147 0.314034C106.528 0.0841084 107.044 0.111667 107.387 0.454654C107.779 0.847446 107.83 1.4777 107.422 1.88583C107.015 2.29396 98.0061 11.3174 98.0061 11.3174C97.998 11.3256 97.998 11.3389 98.0061 11.3471L98.6519 11.9939C98.66 12.002 98.6733 12.002 98.6814 11.9939L108.098 2.56226C108.926 1.73215 110.257 2.86851 109.662 3.84248C109.218 4.57154 109.014 5.29416 109.014 6.49906L109.07 10.3662C109.07 10.3775 109.079 10.3867 109.091 10.3868L109.958 10.3994C109.97 10.3996 109.98 10.3899 109.979 10.378L110 0.0205303C110 0.00927304 109.991 0.000206733 109.979 3.487e-06L99.6193 3.487e-06C99.6075 -0.000210082 99.5978 0.00941442 99.598 0.0212488L99.6105 0.889151C99.6107 0.900519 99.6199 0.90968 99.6312 0.909794Z" fill="#EFEFE5"/>
</svg>
