<svg width="170" height="66" viewBox="0 0 170 66" fill="none" xmlns="http://www.w3.org/2000/svg">
<path opacity="0.8" fill-rule="evenodd" clip-rule="evenodd" d="M45.2609 32.999C45.2609 41.8371 38.0391 49 29.1305 49C20.2218 49 13 41.8371 13 32.999C13 24.1629 20.2218 17 29.1305 17C38.0391 17 45.2609 24.1629 45.2609 32.999ZM25.1823 24.7129L26.1472 33.2108L36.9087 28.1661L25.1823 24.7129ZM31.5529 32.4141L32.411 41.4445L20.6827 38.0244L31.5529 32.4141ZM96.5528 25.6437C96.1639 25.6437 95.8117 25.5796 95.4963 25.4533L95.4126 25.4163L95.3313 25.3794L95.2314 25.3289L95.1084 25.2551C94.9953 25.1832 94.888 25.1015 94.7866 25.0083C94.34 24.5866 94.1166 24.0522 94.1166 23.4089C94.1166 23.2438 94.1313 23.0864 94.1607 22.9367C94.2459 22.5034 94.4546 22.138 94.7866 21.8368C95.2534 21.4151 95.8421 21.2033 96.5528 21.2033C97.2635 21.2033 97.8419 21.4151 98.2886 21.8368C98.7553 22.241 98.989 22.7638 98.989 23.4089C98.989 24.0522 98.7553 24.5866 98.2886 25.0083C97.9467 25.3328 97.5274 25.5329 97.0313 25.6087C96.879 25.6321 96.7193 25.6437 96.5528 25.6437ZM94.6039 42.9506V27.9698H98.5016V42.9506H94.6039ZM74.9216 41.8021C75.8757 42.5677 77.1442 42.9506 78.7277 42.9506H81.3769V39.6587H79.4888C78.7174 39.6587 78.1693 39.5265 77.8446 39.2661C77.54 38.9843 77.3876 38.481 77.3876 37.7542V31.2015H81.468V27.9698H77.3876V23.9511H73.9469L73.4904 27.9698H70.902V31.2015H73.4904V37.7251C73.4904 39.6781 73.9675 41.0364 74.9216 41.8021ZM83.5966 27.9698V42.9506H87.4943V36.1238C87.4943 34.9773 87.677 34.0795 88.0423 33.4363C88.4283 32.7911 88.9558 32.3383 89.6258 32.076C90.2958 31.8156 91.0569 31.6834 91.9097 31.6834H93.0058V27.6064C92.2319 27.6064 91.5173 27.7133 90.862 27.9271C90.4349 28.067 90.0328 28.2516 89.6562 28.4828C89.3158 28.6888 89.0008 28.922 88.7119 29.1805C88.4288 29.4331 88.1702 29.7129 87.9361 30.018L87.8131 30.1832L87.6819 30.3737C87.5952 30.5058 87.5124 30.6399 87.4335 30.7779L87.0682 27.9698H83.5966ZM101.352 21.2033V42.9506H105.249V35.4301L111.37 42.9506H116.242L109.056 34.7946L115.237 27.9698H110.609L105.249 34.0406V21.2033H101.352ZM121.095 42.9991C120.525 42.8417 119.987 42.6241 119.48 42.3462C119.129 42.1538 118.801 41.9381 118.495 41.6991C118.185 41.4562 117.898 41.19 117.633 40.9004C117.285 40.5195 116.977 40.0939 116.709 39.6276C116.039 38.4596 115.704 37.111 115.704 35.5797C115.704 35.2319 115.72 34.8937 115.753 34.5634C115.773 34.3652 115.798 34.1689 115.83 33.9784C115.853 33.8366 115.879 33.6967 115.908 33.5587C116.07 32.8028 116.327 32.0973 116.679 31.4425C117.349 30.2337 118.262 29.2971 119.419 28.6344C120.597 27.9484 121.977 27.6064 123.561 27.6064C125.042 27.6064 126.352 27.929 127.489 28.5722C128.626 29.2174 129.509 30.1035 130.138 31.2306C130.788 32.3383 131.112 33.5762 131.112 34.9462C131.112 35.1677 131.102 35.399 131.082 35.6399C131.082 35.8829 131.072 36.1335 131.052 36.3959H119.572C119.653 37.5638 120.059 38.481 120.79 39.1437C121.08 39.4002 121.393 39.6081 121.728 39.7655C122.261 40.0162 122.852 40.1406 123.5 40.1406C123.707 40.1406 123.906 40.1289 124.095 40.1056C124.25 40.0862 124.398 40.059 124.541 40.024C124.686 39.989 124.824 39.9463 124.957 39.8938C125.064 39.853 125.168 39.8044 125.267 39.7519C125.34 39.7131 125.41 39.6723 125.479 39.6276C125.712 39.474 125.92 39.3011 126.101 39.1106C126.347 38.8522 126.545 38.5626 126.697 38.2381H130.656C130.607 38.3994 130.553 38.5588 130.493 38.7162C130.442 38.8483 130.388 38.9804 130.329 39.1087C130.212 39.3672 130.079 39.6198 129.93 39.8646C129.725 40.2008 129.49 40.5254 129.224 40.8363C129.056 41.0345 128.876 41.223 128.686 41.3998C128.535 41.5397 128.378 41.6719 128.214 41.7982C128.021 41.9459 127.818 42.0858 127.606 42.216C127.348 42.3734 127.075 42.5172 126.788 42.6474C126.186 42.9272 125.531 43.1196 124.823 43.2226C124.595 43.2557 124.361 43.279 124.122 43.2945C123.928 43.3062 123.731 43.312 123.53 43.312C122.663 43.312 121.851 43.2071 121.095 42.9991ZM123.561 30.7487C122.607 30.7487 121.764 31.0188 121.033 31.5629C120.302 32.0876 119.836 32.8921 119.633 33.9804H127.154C127.093 32.9932 126.727 32.2081 126.058 31.6232C125.388 31.0402 124.556 30.7487 123.561 30.7487ZM62.0521 44.1263C60.2056 44.1263 58.5746 43.8678 57.1597 43.3489C55.7447 42.8107 54.6295 42.0528 53.814 41.0772C53.6181 40.8382 53.4447 40.5856 53.2943 40.3213C52.8197 39.4896 52.5729 38.5335 52.5547 37.4589H57.4114C57.4393 38.0263 57.5931 38.5432 57.8728 39.0115C58.0736 39.3477 58.3396 39.6567 58.6706 39.9404C59.4861 40.5973 60.6014 40.9276 62.0163 40.9276C63.2393 40.9276 64.2106 40.6886 64.9301 40.2086C65.2014 40.0201 65.4218 39.8102 65.5908 39.577C65.8699 39.1923 66.0095 38.7453 66.0095 38.2362C66.0095 37.3792 65.6858 36.7107 65.0378 36.2326C64.4143 35.7546 63.5748 35.3659 62.5198 35.0667L59.1384 34.1086C57.1954 33.5509 55.7084 32.8338 54.6775 31.9574C53.67 31.0791 53.1665 29.9131 53.1665 28.4576C53.1425 27.2217 53.4902 26.1665 54.2097 25.2881C54.4237 25.0296 54.6593 24.7887 54.917 24.5652C55.2485 24.2776 55.6159 24.0191 56.0195 23.7898C56.186 23.6946 56.3589 23.6052 56.5381 23.5197C56.76 23.4148 56.9912 23.3157 57.2317 23.2263C58.5026 22.7268 59.9656 22.4781 61.6206 22.4781C63.2991 22.4781 64.7743 22.7268 66.0453 23.2263C67.3403 23.7238 68.3477 24.4214 69.0672 25.3192C69.8107 26.215 70.2065 27.2819 70.2545 28.5178H65.3258C65.315 28.1875 65.2391 27.8746 65.0976 27.5792C64.9242 27.2158 64.6523 26.8816 64.2826 26.5745C64.0445 26.3627 63.7712 26.1878 63.4622 26.0537C63.2707 25.9721 63.0655 25.9041 62.8465 25.8497C62.6839 25.8108 62.514 25.7797 62.3367 25.7564C62.0888 25.7234 61.8258 25.7078 61.5486 25.7078C60.5411 25.6884 59.6899 25.8963 58.9944 26.3355C58.3229 26.7533 57.9869 27.3713 57.9869 28.1894C57.9869 28.887 58.2509 29.4448 58.7784 29.8645C58.9753 30.0122 59.1986 30.1541 59.4484 30.2862L59.7202 30.4222C60.0783 30.5894 60.4838 30.7409 60.9369 30.8809C61.8483 31.1587 62.8916 31.458 64.0666 31.7767C65.314 32.1362 66.4533 32.554 67.4843 33.034C68.5157 33.5121 69.343 34.1495 69.9665 34.9462C70.59 35.7235 70.902 36.7301 70.902 37.9661C70.902 39.064 70.566 40.0803 69.8945 41.017C69.5893 41.4426 69.2171 41.8312 68.7778 42.183C68.5353 42.3773 68.2728 42.56 67.9897 42.731C67.6576 42.9331 67.2972 43.1196 66.9088 43.2887C65.5898 43.8464 63.9706 44.1263 62.0521 44.1263ZM130.68 22.7152H135.401L139.597 28.8482L137.016 32.0021L130.68 22.7152ZM130.777 43.8581L137.81 33.1662L140.527 29.402L145.068 22.7152H149.692L142.659 33.3469L140.163 36.7534L135.401 43.8581H130.777ZM145.132 43.8581H149.853L143.412 34.4468L140.804 37.5346L145.132 43.8581ZM151.887 25.1832V23.0378H151.148V22.6666H153.094V23.0378H152.351V25.1832H151.887ZM153.293 25.1832V22.6666H153.843L154.652 24.262L155.449 22.6666H156V25.1832H155.536V23.4459L154.829 24.8236H154.464L153.757 23.4459V25.1832H153.293Z" fill="#EFEFE5"/>
</svg>
