<svg width="170" height="66" viewBox="0 0 170 66" fill="none" xmlns="http://www.w3.org/2000/svg">
<g opacity="0.8" clip-path="url(#clip0_2694_8027)">
<path d="M40.253 18.127C44.254 18.127 47.5039 21.3799 47.5039 25.3876V40.9088C47.5039 44.9164 44.254 48.1694 40.253 48.1694H24.7513C20.7499 48.1694 17.5 44.9163 17.5 40.9088V25.3876C17.5 21.3799 20.7499 18.127 24.7513 18.127H40.253Z" stroke="#EFEFE5"/>
<mask id="mask0_2694_8027" style="mask-type:luminance" maskUnits="userSpaceOnUse" x="17" y="17" width="32" height="32">
<path d="M48.0039 25.3876C48.0039 21.1044 44.5308 17.627 40.253 17.627H24.7513C20.4731 17.627 17 21.1044 17 25.3876V40.9088C17 45.1919 20.4731 48.6694 24.7513 48.6694H40.253C44.5308 48.6694 48.0039 45.1919 48.0039 40.9088V25.3876Z" fill="#EFEFE5"/>
</mask>
<g mask="url(#mask0_2694_8027)">
<path fill-rule="evenodd" clip-rule="evenodd" d="M17.1084 23.3145C17.1084 23.3145 22.9179 23.9013 24.9359 25.6628C24.9359 25.6628 22.78 23.129 23.4393 20.7422C23.4393 20.7422 24.9501 23.033 27.1875 23.9518C29.331 24.8319 36.3268 26.6323 35.3727 30.7372C35.3727 30.7372 36.388 31.2863 37.0322 32.3406C37.4485 33.022 37.6368 33.9847 37.4618 34.8709C37.2322 36.0334 36.615 37.2363 34.8362 37.8904C34.8362 37.8904 32.307 33.7358 28.8984 36.2577C27.3875 37.3761 26.8954 39.6637 27.8715 41.8176C28.8148 43.899 31.4706 46.2985 38.718 46.8499C41.1804 47.0371 47.1126 47.2869 49.2242 43.8429C49.2242 43.8429 50.3972 47.6787 45.9905 50.8746C45.9905 50.8746 31.6882 53.8889 22.8442 51.1749C17.0942 49.4102 15.392 44.151 15.4808 37.7351C15.4808 37.7351 16.2324 24.6766 17.1084 23.3145Z" fill="#EFEFE5"/>
<mask id="mask1_2694_8027" style="mask-type:luminance" maskUnits="userSpaceOnUse" x="15" y="20" width="35" height="33">
<path d="M17.1084 23.3125C17.1084 23.3125 22.9179 23.8993 24.9359 25.6609C24.9359 25.6609 22.78 23.127 23.4393 20.7402C23.4393 20.7402 24.9501 23.031 27.1875 23.9498C29.331 24.8299 36.3268 26.6304 35.3727 30.7353C35.3727 30.7353 36.388 31.2843 37.0322 32.3386C37.4485 33.02 37.6368 33.9828 37.4618 34.869C37.2322 36.0314 36.615 37.2343 34.8362 37.8884C34.8362 37.8884 32.307 33.7338 28.8984 36.2557C27.3875 37.3741 26.8954 39.6618 27.8715 41.8156C28.8148 43.8971 31.4706 46.2965 38.718 46.848C41.1804 47.0352 47.1126 47.285 49.2242 43.841C49.2242 43.841 50.3972 47.6768 45.9905 50.8727C45.9905 50.8727 31.6882 53.8869 22.8442 51.173C17.0942 49.4083 15.392 44.1491 15.4808 37.7331C15.4808 37.7331 16.2324 24.6746 17.1084 23.3125Z" fill="#EFEFE5"/>
</mask>
<g mask="url(#mask1_2694_8027)">
<path fill-rule="evenodd" clip-rule="evenodd" d="M34.8362 37.8894C34.8362 37.8894 34.8285 36.3033 33.9248 34.854C33.1651 33.6355 31.7447 32.5175 29.4276 32.4845C28.1576 32.4665 25.6258 33.3927 24.6623 35.7657C24.6623 35.7657 24.0387 33.1687 25.675 31.4531C25.675 31.4531 19.9845 32.8692 20.989 39.1907C21.0644 39.6645 21.5023 41.7049 22.839 43.4394C24.6976 45.8514 26.9708 47.468 30.8263 48.2792C33.4839 48.8384 36.903 49.1025 41.8251 48.8384C41.8251 48.8384 49.8844 49.2854 50.0404 41.2523C50.0404 41.2523 28.5122 46.4852 34.8362 37.8894Z" fill="#DBDBD0"/>
</g>
<path fill-rule="evenodd" clip-rule="evenodd" d="M33.4031 30.4333L32.7004 31.3282C32.7004 31.3282 31.9861 29.7937 30.6064 28.4531L33.4031 30.4333Z" fill="#1E1E1E"/>
</g>
<path d="M67.9694 37.351L71.3056 39.1579C70.6081 40.1094 69.7336 40.8736 68.6821 41.4507C67.6307 42.0276 66.4832 42.3162 65.2397 42.3162C63.8445 42.3162 62.5706 41.9568 61.4181 41.2381C60.2757 40.5194 59.3608 39.5577 58.6733 38.3531C57.9959 37.1384 57.6572 35.7971 57.6572 34.3294C57.6572 33.2159 57.8544 32.1783 58.2486 31.2166C58.643 30.2449 59.1838 29.3946 59.8713 28.6658C60.5689 27.9268 61.3777 27.3498 62.2977 26.9348C63.2177 26.5198 64.1984 26.3123 65.2397 26.3123C66.4832 26.3123 67.6307 26.6007 68.6821 27.1778C69.7336 27.7547 70.6081 28.5291 71.3056 29.5009L67.9694 31.2926C67.6156 30.8877 67.196 30.5739 66.7107 30.3512C66.2355 30.1285 65.7452 30.0171 65.2397 30.0171C64.5118 30.0171 63.8546 30.2196 63.2682 30.6245C62.6819 31.0193 62.2168 31.5456 61.8731 32.2036C61.5293 32.8515 61.3574 33.5601 61.3574 34.3294C61.3574 35.0886 61.5293 35.7971 61.8731 36.4551C62.2168 37.1029 62.6819 37.6243 63.2682 38.0191C63.8546 38.4139 64.5118 38.6112 65.2397 38.6112C65.7654 38.6112 66.2658 38.4999 66.741 38.2772C67.2162 38.0444 67.6256 37.7357 67.9694 37.351Z" fill="#EFEFE5"/>
<path d="M84.7483 26.7374H88.4483V41.9213H84.7332L84.5815 40.0385C84.1569 40.7168 83.6008 41.2685 82.9134 41.6936C82.236 42.1086 81.4373 42.3162 80.5173 42.3162C79.3951 42.3162 78.3437 42.1035 77.363 41.6784C76.3824 41.2533 75.5179 40.6661 74.7698 39.917C74.0217 39.168 73.4403 38.3025 73.0258 37.3206C72.6114 36.3387 72.4041 35.286 72.4041 34.1623C72.4041 33.0793 72.6012 32.0619 72.9955 31.1104C73.3898 30.1589 73.9459 29.3237 74.6637 28.605C75.3815 27.8863 76.2105 27.3246 77.1507 26.9197C78.0909 26.5148 79.102 26.3123 80.1837 26.3123C81.1947 26.3123 82.0945 26.535 82.883 26.9804C83.6818 27.4257 84.3591 27.9926 84.9151 28.681L84.7483 26.7374ZM80.6235 38.7479C81.4322 38.7479 82.1349 38.5404 82.7314 38.1254C83.3279 37.7103 83.7778 37.1586 84.0811 36.4703C84.3945 35.7719 84.5209 35.0025 84.4602 34.1623C84.3894 33.3728 84.1569 32.6592 83.7626 32.0214C83.3683 31.3736 82.8628 30.8573 82.2461 30.4727C81.6294 30.088 80.9369 29.8957 80.1685 29.8957C79.3699 29.8957 78.6521 30.1032 78.0151 30.5182C77.3883 30.9333 76.903 31.49 76.5593 32.1884C76.2156 32.8768 76.0791 33.6461 76.1498 34.4964C76.2307 35.2758 76.4835 35.9895 76.9081 36.6373C77.3327 37.2751 77.8685 37.7862 78.5155 38.1709C79.1727 38.5555 79.8753 38.7479 80.6235 38.7479Z" fill="#EFEFE5"/>
<path d="M101.005 30.5026C100.733 30.3205 100.434 30.1737 100.111 30.0623C99.7971 29.951 99.4483 29.8953 99.0641 29.8953C98.3263 29.8953 97.6891 30.0876 97.1533 30.4723C96.6276 30.8569 96.2237 31.3732 95.9402 32.021C95.6573 32.6588 95.5158 33.3673 95.5158 34.1468V41.9209H91.7854V26.737H95.4852V28.5287C95.9912 27.8606 96.5923 27.3292 97.29 26.9344C97.9978 26.5396 98.7962 26.3422 99.6863 26.3422C100.03 26.3422 100.358 26.3524 100.672 26.3726C100.995 26.3928 101.304 26.4485 101.597 26.5396L101.005 30.5026Z" fill="#EFEFE5"/>
<path d="M112.079 26.3113C113.555 26.3113 114.9 26.6707 116.113 27.3894C117.326 28.1081 118.292 29.0748 119.01 30.2896C119.727 31.4941 120.086 32.8303 120.086 34.2981C120.086 35.4015 119.879 36.439 119.465 37.4108C119.05 38.3826 118.474 39.2379 117.735 39.9768C117.008 40.7057 116.158 41.2776 115.188 41.6927C114.227 42.1077 113.191 42.3152 112.079 42.3152C111.128 42.3152 110.285 42.1026 109.547 41.6775C108.819 41.2422 108.207 40.6804 107.711 39.992V41.9204H104.012V19.1445H107.711V28.6345C108.207 27.9461 108.819 27.3894 109.547 26.9643C110.285 26.529 111.128 26.3113 112.079 26.3113ZM112.034 38.7318C112.822 38.7318 113.535 38.5344 114.171 38.1396C114.819 37.7347 115.334 37.1982 115.718 36.5301C116.103 35.8621 116.295 35.118 116.295 34.2981C116.295 33.4883 116.103 32.7493 115.718 32.0812C115.334 31.403 114.819 30.8665 114.171 30.4718C113.525 30.0769 112.812 29.8796 112.034 29.8796C111.265 29.8796 110.578 30.082 109.971 30.4869C109.365 30.8817 108.889 31.4182 108.546 32.0964C108.202 32.7645 108.03 33.4984 108.03 34.2981C108.03 35.118 108.202 35.8671 108.546 36.5453C108.889 37.2134 109.365 37.7448 109.971 38.1396C110.578 38.5344 111.265 38.7318 112.034 38.7318Z" fill="#EFEFE5"/>
<path d="M128.892 42.3162C127.497 42.3162 126.223 41.9568 125.07 41.2381C123.928 40.5194 123.013 39.5577 122.326 38.3531C121.649 37.1384 121.31 35.7971 121.31 34.3294C121.31 33.2159 121.507 32.1783 121.902 31.2166C122.295 30.2449 122.837 29.3946 123.524 28.6658C124.222 27.9268 125.03 27.3498 125.95 26.9348C126.87 26.5198 127.851 26.3123 128.892 26.3123C130.287 26.3123 131.556 26.6716 132.699 27.3903C133.851 28.109 134.766 29.0757 135.444 30.2905C136.131 31.5052 136.475 32.8515 136.475 34.3294C136.475 35.4327 136.277 36.4653 135.883 37.4269C135.489 38.3885 134.943 39.2388 134.246 39.9778C133.558 40.7066 132.754 41.2785 131.834 41.6936C130.924 42.1086 129.944 42.3162 128.892 42.3162ZM128.892 38.6112C129.63 38.6112 130.293 38.4139 130.879 38.0191C131.465 37.6243 131.925 37.1029 132.259 36.4551C132.603 35.8073 132.775 35.0987 132.775 34.3294C132.775 33.5398 132.597 32.8211 132.244 32.1732C131.9 31.5153 131.43 30.994 130.833 30.6093C130.247 30.2146 129.6 30.0171 128.892 30.0171C128.164 30.0171 127.507 30.2146 126.921 30.6093C126.334 31.0041 125.869 31.5305 125.526 32.1884C125.182 32.8464 125.01 33.5601 125.01 34.3294C125.01 35.1291 125.187 35.8528 125.541 36.5007C125.895 37.1486 126.365 37.6648 126.951 38.0495C127.548 38.424 128.195 38.6112 128.892 38.6112Z" fill="#EFEFE5"/>
<path d="M153 34.0713V41.9213H149.299V34.132C149.299 33.3525 149.138 32.644 148.814 32.0062C148.49 31.3584 148.04 30.8421 147.464 30.4575C146.898 30.0728 146.241 29.8805 145.493 29.8805C144.765 29.8805 144.133 30.0728 143.597 30.4575C143.061 30.8421 142.647 31.3584 142.353 32.0062C142.071 32.644 141.929 33.3525 141.929 34.132V41.9213H138.229V26.7374H141.929V28.5291C142.434 27.8509 143.036 27.3144 143.734 26.9197C144.442 26.5148 145.24 26.3123 146.13 26.3123C147.525 26.3123 148.733 26.6666 149.755 27.3751C150.785 28.0736 151.579 29.0099 152.135 30.1841C152.701 31.3584 152.989 32.6541 153 34.0713Z" fill="#EFEFE5"/>
</g>
<defs>
<clipPath id="clip0_2694_8027">
<rect width="136" height="32" fill="white" transform="translate(17 17)"/>
</clipPath>
</defs>
</svg>
