<svg width="170" height="66" viewBox="0 0 170 66" fill="none" xmlns="http://www.w3.org/2000/svg">
<path opacity="0.8" fill-rule="evenodd" clip-rule="evenodd" d="M110.677 14H105.564V41.5582H110.677V14ZM45.9638 50H35V22.4417H45.5208C50.6343 22.4417 53.6147 25.461 53.6147 30.1823C53.6147 33.2421 51.7032 35.2127 50.3791 35.8714C51.9633 36.6464 53.9856 38.3891 53.9856 42.0668C53.9856 47.2138 50.6343 50 45.9638 50ZM45.1163 27.2391H40.1135V33.5917H45.1163C47.2879 33.5917 48.5013 32.3151 48.5013 30.4154C48.5013 28.5207 47.2879 27.2391 45.1163 27.2391ZM45.4485 38.4296H40.1135V45.2026H45.4485C47.7646 45.2026 48.872 43.6524 48.872 41.7983C48.872 39.9391 47.7646 38.4296 45.4485 38.4296ZM69.5811 38.6979V50H64.5059V38.6979L56.6335 22.4417H62.19L67.0821 33.5511L71.9019 22.4417H77.4536L69.5811 38.6979ZM80.9896 50H91.9533C96.6238 50 99.9751 47.2138 99.9751 42.0668C99.9751 38.3891 97.9528 36.6464 96.3686 35.8714C97.6927 35.2127 99.6043 33.2421 99.6043 30.1823C99.6043 25.461 96.6238 22.4417 91.5103 22.4417H80.9896V50ZM86.1031 27.2391H91.1058C93.2775 27.2391 94.4908 28.5207 94.4908 30.4154C94.4908 32.3151 93.2775 33.5917 91.1058 33.5917H86.1031V27.2391ZM86.1031 38.4296H91.4381C93.754 38.4296 94.8568 39.9391 94.8615 41.7983C94.8615 43.6524 93.754 45.2026 91.4381 45.2026H86.1031V38.4296ZM127.158 50V27.2391H134V22.4417H115.202V27.2391H122.044V50H127.158Z" fill="#EFEFE5"/>
</svg>
