<svg width="170" height="66" viewBox="0 0 170 66" fill="none" xmlns="http://www.w3.org/2000/svg">
<path opacity="0.8" fill-rule="evenodd" clip-rule="evenodd" d="M14.1244 22C10.2147 22 7 25.1403 7 29.0764V37.9236C7 41.8042 10.1588 45 14.1182 45H23.0176C26.9211 45 30.1358 41.8597 30.1358 37.9236V29.0764C30.142 25.1958 26.9273 22 23.0238 22H14.1244ZM23.0238 24.7948H14.1244C11.7724 24.7948 9.87336 26.6765 9.87336 29.0209V37.868C9.87336 40.2063 11.7662 42.0942 14.1244 42.0942H23.0238C25.3758 42.0942 27.2749 40.2124 27.2749 37.868V29.0209C27.2749 26.6827 25.3758 24.7948 23.0238 24.7948ZM20.4981 37.5276C20.4981 36.559 21.3049 35.757 22.2792 35.757H22.9681C23.9424 35.757 24.7492 36.559 24.7492 37.5276V38.2124C24.7492 39.1811 23.9424 39.9831 22.9681 39.9831H22.2792C21.3049 39.9831 20.4981 39.1811 20.4981 38.2124V37.5276ZM22.2792 29.4209C21.3049 29.4209 20.4981 30.2229 20.4981 31.1915V31.8763C20.4981 32.8449 21.3049 33.647 22.2792 33.647H22.9681C23.9424 33.647 24.7492 32.8449 24.7492 31.8763V31.1915C24.7492 30.2229 23.9424 29.4209 22.9681 29.4209H22.2792ZM70.3442 30.3351C70.3442 31.4765 70.1146 32.5068 69.6553 33.3582C69.1961 34.2157 68.5072 34.9006 67.5888 35.3571C66.6703 35.8136 65.6339 36.0974 64.3741 36.0974H61.4449V41.4649H57.4234V24.7949H64.312C65.516 24.7949 66.6082 25.0231 67.4708 25.5352C68.3335 25.9918 69.0782 26.6766 69.5374 27.5341C70.0525 28.3917 70.2821 29.3603 70.2821 30.3906L70.3442 30.3351ZM65.1746 32.2168C65.5222 32.0441 65.8076 31.7603 65.9814 31.4148C66.1552 31.0693 66.2669 30.6744 66.2669 30.3289C66.2669 29.9834 66.149 29.5886 65.9814 29.2986L65.9686 29.2828C65.7432 29.0041 65.5157 28.7228 65.1746 28.6138C64.8271 28.4411 64.4299 28.3855 64.0265 28.3855H61.4449V32.4944H64.0265C64.4299 32.5068 64.8333 32.3896 65.1746 32.2168ZM52.08 36.845C52.1421 37.8136 51.8504 38.7822 51.3353 39.5843H51.3229V39.7694C50.8016 40.5652 50.001 41.1945 49.1384 41.5956C48.2199 41.9966 47.1339 42.2248 45.8679 42.2248C44.6018 42.2248 43.28 41.9349 42.076 41.4228C40.9279 40.9663 39.8977 40.2259 39.0351 39.3128L41.5609 36.6846C42.8828 37.8815 44.2605 38.5108 45.7562 38.5108C46.5009 38.5108 47.016 38.3936 47.4193 38.1098C47.6404 38.0029 47.7522 37.8388 47.8654 37.6726L47.8786 37.6532C47.9965 37.4805 48.0524 37.2522 48.0524 37.0239C48.0524 36.734 47.9406 36.4502 47.7669 36.2219C47.5931 35.9936 47.3076 35.7653 46.8484 35.5371C46.2216 35.2533 45.5886 35.025 44.9556 34.8523C43.6958 34.5068 42.5477 33.8836 41.5113 33.0816C40.5928 32.3413 40.1336 31.1999 40.1336 29.713C40.1336 28.8555 40.3073 28.0534 40.7107 27.3131C41.0582 26.5666 41.685 25.999 42.5477 25.5424C43.3482 25.0859 44.4405 24.8576 45.7624 24.8576C46.9105 24.8576 48.0586 25.0859 49.1508 25.4869C50.1314 25.8818 50.9878 26.4555 51.7945 27.1403L49.5542 29.8735C49.095 29.4786 48.5799 29.1331 48.0027 28.9048C47.3697 28.621 46.625 28.4483 45.9361 28.4483C45.359 28.4483 44.8997 28.5655 44.6143 28.7938C44.4503 28.8986 44.3416 29.0583 44.2307 29.2211L44.2307 29.2212L44.2109 29.2503C44.1488 29.4231 44.093 29.6513 44.093 29.8241V29.8241C44.093 29.9969 44.093 30.1079 44.1488 30.2251C44.2047 30.3979 44.2605 30.4534 44.3784 30.5706C44.608 30.7434 44.8997 30.9099 45.1852 31.0272C45.3486 31.0907 45.5873 31.1745 45.8802 31.2774L45.8804 31.2774L45.8811 31.2777C46.0997 31.3544 46.3485 31.4418 46.6188 31.5392L46.7925 31.5947C46.8205 31.5947 46.85 31.6086 46.8794 31.6225C46.9089 31.6364 46.9384 31.6503 46.9663 31.6503C47.9406 31.9402 48.8591 32.3968 49.7776 32.9089C50.4665 33.3037 51.0995 33.8775 51.5029 34.5623C51.8504 35.1916 52.08 35.9319 52.08 36.845ZM103.999 36.3869L105.836 37.8738V37.8615H105.879L107.027 38.7746C105.935 40.1997 104.39 41.23 102.665 41.7421C100.946 42.3159 99.1087 42.2603 97.3834 41.6866C95.6582 41.0573 94.1687 39.9714 93.0765 38.5463C92.0463 37.1211 91.4133 35.3505 91.4133 33.5798C91.4133 31.8092 91.9284 30.0385 92.9648 28.5578C94.0012 27.0771 95.4348 25.9913 97.16 25.362C98.8232 24.7882 100.716 24.7327 102.441 25.1893C104.167 25.7013 105.718 26.7316 106.866 28.1013L103.825 30.5012C103.192 29.7054 102.33 29.1871 101.355 28.9033C100.381 28.6195 99.3445 28.675 98.426 29.0205C97.5076 29.366 96.707 29.9891 96.1298 30.7912C95.5527 31.5871 95.2672 32.6174 95.2672 33.586C95.3231 34.5546 95.6644 35.5232 96.2415 36.3253C96.8745 37.1273 97.6813 37.7566 98.6556 38.0404C99.5741 38.3242 100.611 38.3242 101.585 38.0404C102.565 37.7566 103.366 37.189 103.999 36.3869ZM122.549 34.6723H116.231V37.8743H124.497V41.4711H112.21V24.7949H124.268V28.3917H116.231V31.4209H122.549V34.6723ZM136.618 24.7949H140.639V41.4711H136.618V24.7949ZM162 33.1304C162 34.6173 161.597 36.0979 160.852 37.3565L160.908 37.4121C160.107 38.72 159.015 39.7503 157.693 40.4351C156.315 41.1755 154.764 41.521 153.212 41.521H146.895V24.8509H153.157C154.708 24.8509 156.259 25.1964 157.637 25.9367C158.959 26.6216 160.045 27.6457 160.852 28.9043C161.597 30.1629 162 31.6436 162 33.1304ZM155.682 37.0727C156.371 36.7334 156.942 36.1596 157.346 35.4748V35.4131C157.749 34.7283 157.923 33.8769 157.923 33.0749C157.979 32.279 157.749 31.477 157.346 30.7366C156.948 30.0518 156.371 29.5397 155.682 29.1387C154.938 28.7377 154.137 28.565 153.33 28.565H150.916V37.6465H153.33C154.131 37.6465 154.993 37.4738 155.682 37.0727ZM78.3251 24.7949H81.9431L88.3725 41.4649H84.2393L83.3208 38.7812H76.8915L75.973 41.4649H71.8398L78.3251 24.7949ZM80.1062 29.4775L80.0503 29.6503L78.0954 35.3016H82.1169L80.162 29.6503L80.1062 29.4775Z" fill="#EFEFE5"/>
</svg>
