<svg width="170" height="66" viewBox="0 0 170 66" fill="none" xmlns="http://www.w3.org/2000/svg">
<g opacity="0.8">
<path fill-rule="evenodd" clip-rule="evenodd" d="M139.548 36.6928C139.548 35.6115 139.859 34.6206 140.48 33.7186C141.105 32.8162 141.969 32.1038 143.078 31.5785C144.185 31.0562 145.428 30.793 146.805 30.793C149.382 30.793 151.353 31.5752 152.718 33.1425L151.472 34.1636C151.002 33.6014 150.379 33.1567 149.604 32.8263C148.829 32.4966 147.896 32.332 146.805 32.332C145.724 32.332 144.753 32.5321 143.897 32.9316C143.04 33.3311 142.374 33.8631 141.9 34.5277C141.424 35.193 141.186 35.914 141.186 36.692C141.186 37.4589 141.424 38.1743 141.9 38.8388C142.374 39.503 143.04 40.0351 143.897 40.4346C144.754 40.8341 145.724 41.0342 146.805 41.0342C147.896 41.0342 148.829 40.8703 149.604 40.541C150.38 40.2106 151.002 39.7655 151.472 39.2025L152.718 40.2397C151.342 41.797 149.369 42.5743 146.805 42.5743C145.429 42.5743 144.185 42.3122 143.078 41.7884C141.969 41.2645 141.105 40.5514 140.48 39.6494C139.86 38.7481 139.548 37.7621 139.548 36.6928ZM2 31.0369H4.12854L9.46742 39.8866L15.0199 31.0369H17.1484V42.3825H15.3485V33.662L10.3677 41.5399H8.55012L3.80176 33.7434V42.3829H2V31.0369ZM96.4718 31.0369H98.2739V40.9231H108.102V42.3822H96.4718V31.0369ZM27.9808 31.0369H25.49L19.7417 42.3825H21.6729L22.9996 39.7892H30.4863L31.8145 42.3825H33.7465L27.9808 31.0369ZM29.7343 38.3305H23.7536L26.7352 32.5124L29.7343 38.3305ZM36.2076 31.0369H44.1833C45.722 31.0369 46.8868 31.3509 47.6713 31.9767C48.4584 32.6047 48.8505 33.4742 48.8505 34.5861C48.8505 35.6994 48.4581 36.5742 47.6713 37.2123C46.8865 37.8492 45.722 38.1681 44.1833 38.1681H38.0097V42.3829H36.2079L36.2076 31.0369ZM38.0097 36.7097H44.1833C46.0937 36.7097 47.0487 36.0019 47.0487 34.5861C47.0487 33.8954 46.817 33.3734 46.3525 33.0232C45.8888 32.6715 45.1655 32.4953 44.1829 32.4953H38.0093L38.0097 36.7097ZM53.2618 31.0369H51.46V42.3822H63.0883V40.9231H53.2618V31.0369ZM65.4504 42.3822V31.0369H78.065V32.4949H67.2529V35.9798H76.9824V37.4385H67.2529V40.9227H78.065V42.3818L65.4504 42.3822ZM91.6257 31.4342C91.057 31.1691 90.4039 31.0369 89.659 31.0369H80.6358V42.3822H89.6598C90.405 42.3822 91.0578 42.2504 91.6264 41.9842C92.1954 41.7202 92.6339 41.3446 92.9448 40.8581C93.2561 40.372 93.4101 39.8105 93.4101 39.1724C93.4101 38.6762 93.2927 38.214 93.0599 37.7861C92.8248 37.3594 92.4999 37.0006 92.0838 36.709C92.509 36.4163 92.8377 36.0549 93.0678 35.6225C93.2954 35.1913 93.4097 34.7265 93.4097 34.2291C93.4097 33.5922 93.255 33.0325 92.9441 32.5524C92.6331 32.0708 92.1947 31.6989 91.6257 31.4342ZM82.4372 35.9798V32.4949L89.6586 32.4942C90.3148 32.4942 90.8038 32.6566 91.1265 32.981C91.4476 33.3051 91.6098 33.7221 91.6098 34.2288C91.6098 34.7474 91.4483 35.1696 91.1265 35.4933C90.8031 35.8178 90.3137 35.9798 89.6586 35.9798H82.4372ZM91.1268 40.4362C90.8035 40.7614 90.3144 40.9231 89.659 40.9231L82.4376 40.9223V37.4382H89.659C90.3148 37.4382 90.8042 37.6006 91.1268 37.9239C91.4479 38.248 91.6102 38.665 91.6102 39.1724C91.6102 39.6914 91.4487 40.1133 91.1268 40.4362ZM156.795 31.0369H154.993V42.3822H156.795V38.3783L158.318 37.3571L165.084 42.3822H168L159.825 36.3207L167.606 31.0369H164.74L156.795 36.3368V31.0369Z" fill="#EFEFE5"/>
<path fill-rule="evenodd" clip-rule="evenodd" d="M108.269 30.9372C108.303 30.7571 108.341 30.5784 108.381 30.4012C110.091 22.9515 117.321 18.0505 124.953 19.1552C125.157 19.1848 125.362 19.2186 125.566 19.2568C133.603 20.7576 138.888 28.4202 137.372 36.3718C138.128 29.477 133.657 22.7767 125.488 21.3253C118.663 20.0507 111.476 25.5678 110.174 32.3959C108.657 40.3475 113.042 44.6976 119.413 48C111.39 46.2197 106.752 38.8888 108.269 30.9372ZM130.858 38.126C131.101 38.3217 131.347 38.5199 131.456 38.8368C131.496 38.9574 131.481 38.991 131.351 38.9928C131.288 38.9942 131.226 38.9953 131.162 38.9963H131.162H131.162H131.162H131.162C130.889 39.0007 130.615 39.0051 130.343 39.0406C130.276 39.0494 130.207 39.0565 130.139 39.0637C129.898 39.0889 129.655 39.1144 129.42 39.2113C129.226 39.2897 129.166 39.4274 129.268 39.6331C129.349 39.7982 129.472 39.9349 129.596 40.0743C129.677 40.1647 129.759 40.2563 129.831 40.3575C129.296 40.2656 128.785 40.1473 128.285 39.9778C128.011 39.8852 127.745 39.7727 127.48 39.6601L127.48 39.6601L127.48 39.6601C127.104 39.5011 126.729 39.3421 126.331 39.2396C125.847 39.1153 125.382 39.1631 124.912 39.2699C124.869 39.2807 124.82 39.305 124.847 39.3961C124.963 39.7586 125.067 40.1264 125.154 40.499C125.199 40.6976 125.234 40.9044 125.257 41.1064C125.266 41.1865 125.277 41.2665 125.287 41.3464L125.287 41.3465C125.324 41.6414 125.361 41.9359 125.349 42.2328C125.327 42.7932 125.259 43.3451 125.089 43.8775C125.08 43.6288 124.917 43.385 124.593 43.385C124.475 43.385 124.386 43.4246 124.31 43.4772C124.481 43.1057 124.608 42.7145 124.687 42.3004C124.789 41.7393 124.761 41.1807 124.71 40.627C124.674 40.2399 124.605 39.8538 124.448 39.4868C124.443 39.475 124.44 39.4654 124.437 39.4576L124.437 39.4576C124.433 39.4445 124.431 39.4367 124.425 39.4329C124.417 39.4273 124.403 39.4305 124.367 39.4384L124.364 39.439C123.688 39.5865 123.201 39.9875 122.803 40.527C122.733 40.6222 122.663 40.7178 122.593 40.8134L122.593 40.8136C122.177 41.3816 121.761 41.9499 121.25 42.4401C121.159 42.5269 121.061 42.6061 120.962 42.6857L120.962 42.6857C120.926 42.7142 120.891 42.7427 120.855 42.7716C120.815 42.7716 120.816 42.7478 120.816 42.724C120.816 42.7152 120.816 42.7064 120.814 42.6988C120.816 42.5968 120.828 42.495 120.84 42.3929C120.86 42.2287 120.88 42.0638 120.857 41.8957C120.837 41.7415 120.77 41.678 120.611 41.6717C120.345 41.6632 120.116 41.7706 119.889 41.8772L119.889 41.8772L119.889 41.8772C119.847 41.8972 119.804 41.9172 119.761 41.9364C119.451 42.076 119.149 42.2384 118.848 42.4004L118.732 42.4628L118.721 42.4686L118.708 42.4754L118.708 42.4754C118.644 42.5103 118.628 42.519 118.592 42.4135C118.501 42.1523 118.57 41.9091 118.638 41.67L118.642 41.6575C118.735 41.3243 118.884 41.0119 119.032 40.7002L119.032 40.7002L119.032 40.7002L119.074 40.6106C119.106 40.5459 119.12 40.4712 119.134 40.3994L119.134 40.3974C119.15 40.3022 119.018 40.2361 118.891 40.2787C118.616 40.3679 118.352 40.4799 118.089 40.6113C118.207 39.9408 119.166 39.1989 119.915 38.9111C119.691 38.8779 119.47 38.8548 119.252 38.832L119.252 38.832C118.954 38.8007 118.661 38.77 118.37 38.7151C117.859 38.6169 117.359 38.5075 116.87 38.335C116.385 38.1658 115.927 37.9489 115.52 37.5961L115.586 37.5792C115.899 37.4998 116.189 37.4261 116.422 37.2227C116.744 36.9427 116.715 36.6761 116.571 36.342C116.481 36.131 116.328 35.9537 116.17 35.7902C115.677 35.2835 115.107 34.8758 114.477 34.5484C114.449 34.5339 114.417 34.5265 114.386 34.519L114.386 34.519C114.339 34.5079 114.291 34.4966 114.25 34.4621C114.757 34.327 115.275 34.3098 115.789 34.3184C116.242 34.3247 116.697 34.3725 117.146 34.4662C117.213 34.4805 117.285 34.4851 117.356 34.4896H117.356H117.356L117.356 34.4897L117.357 34.4897L117.357 34.4897C117.381 34.4912 117.405 34.4927 117.428 34.4946C117.696 34.5133 117.793 34.3557 117.688 34.0835C117.613 33.892 117.532 33.7038 117.448 33.5131C117.445 33.5054 117.439 33.4983 117.432 33.4911C117.418 33.4756 117.404 33.4601 117.425 33.4391C117.443 33.4238 117.482 33.4205 117.508 33.4276C118.185 33.6258 118.825 33.8887 119.383 34.3378L119.459 34.3995C119.78 34.6593 120.103 34.921 120.534 35.0057C120.557 35.0105 120.581 35.0096 120.606 35.0087H120.606C120.661 35.0068 120.718 35.0047 120.771 35.0636C120.783 34.6843 120.651 34.3591 120.493 34.0414C120.339 33.7296 120.147 33.4395 119.955 33.1492L119.955 33.1492L119.955 33.1492L119.955 33.1492C119.776 32.8777 119.597 32.606 119.448 32.3164C119.219 31.8669 119.037 31.4043 118.937 30.9096C118.929 30.872 118.926 30.833 118.923 30.7936C118.916 30.71 118.91 30.6252 118.858 30.5508C118.846 30.5307 118.829 30.4754 118.871 30.4523C118.904 30.43 118.926 30.4542 118.946 30.4765C118.951 30.4818 118.955 30.487 118.96 30.4915L118.983 30.5123C119.107 30.627 119.232 30.742 119.402 30.7917C119.676 30.8701 119.972 30.7763 120.129 30.5456C120.377 30.1853 120.525 29.7847 120.636 29.3617C120.72 29.0395 120.775 28.7112 120.83 28.3827L120.83 28.3827L120.83 28.3827L120.83 28.3827C120.843 28.3073 120.855 28.2318 120.868 28.1565C120.912 27.9138 120.929 27.666 120.946 27.4194L120.952 27.3329C120.954 27.2945 120.961 27.2568 120.969 27.219C120.982 27.1517 120.995 27.0844 120.979 27.014L120.976 27.0031C120.967 26.973 120.954 26.9326 121 26.9181C121.041 26.905 121.065 26.9427 121.083 26.9714C121.189 27.1294 121.308 27.2774 121.427 27.4248L121.427 27.4248L121.427 27.4249L121.427 27.4249L121.427 27.425L121.427 27.4251C121.459 27.4646 121.491 27.5042 121.523 27.5438C121.783 27.8761 122.061 28.1927 122.349 28.5022C122.642 28.8181 122.959 29.1097 123.323 29.3449C123.545 29.489 123.776 29.6066 124.058 29.5924C124.299 29.5805 124.441 29.4476 124.55 29.2575C124.628 29.1239 124.685 28.9797 124.73 28.7964C124.843 28.9853 124.907 29.1736 124.968 29.357C124.98 29.3911 124.991 29.425 125.003 29.4588C125.137 29.8373 125.225 30.2264 125.245 30.6304C125.25 30.7314 125.256 30.8326 125.263 30.9339V30.9339C125.279 31.1775 125.295 31.4212 125.285 31.6631C125.273 31.9916 125.284 32.3168 125.299 32.645C125.315 32.9989 125.412 33.3324 125.568 33.6523C125.592 33.7051 125.592 33.705 125.662 33.6579L125.664 33.6564C125.982 33.4373 126.161 33.1203 126.271 32.7678C126.531 31.9472 126.938 31.2188 127.587 30.627C127.61 30.7254 127.624 30.8249 127.639 30.9239L127.639 30.9239C127.663 31.0828 127.687 31.2406 127.743 31.3913C127.833 31.6351 127.912 31.6616 128.137 31.5234C128.338 31.4005 128.519 31.2511 128.7 31.1016L128.7 31.1016C128.837 30.9886 128.973 30.8757 129.119 30.7741C129.594 30.4448 130.098 30.1666 130.635 29.9452C130.665 29.9325 130.691 29.9319 130.724 29.9312C130.747 29.9306 130.774 29.93 130.807 29.9247C130.609 30.2174 130.443 30.4971 130.319 30.7931C130.076 31.3905 129.842 31.9912 129.889 32.6584C129.924 33.1464 130.387 33.4966 130.862 33.3589C130.918 33.3424 130.977 33.3313 131.036 33.3199C131.175 33.2932 131.319 33.2655 131.461 33.1666C131.407 33.3828 131.34 33.5582 131.249 33.7311C130.918 34.3535 130.446 34.8654 129.935 35.3429C129.484 35.7644 129.008 36.1531 128.495 36.4925C128.506 36.5406 128.535 36.5341 128.564 36.5274C128.579 36.5239 128.595 36.5203 128.608 36.5249C128.593 36.5533 128.575 36.5645 128.553 36.5671C128.576 36.5686 128.599 36.5634 128.608 36.5249C129.12 36.4925 129.625 36.4999 130.125 36.6425C130.391 36.7183 130.63 36.8468 130.859 36.9924C130.883 37.0062 130.916 37.0271 130.905 37.0633C130.896 37.097 130.87 37.095 130.845 37.0932C130.839 37.0928 130.834 37.0924 130.829 37.0924C130.58 37.0951 130.339 37.1369 130.097 37.1966C130.003 37.2198 129.91 37.2616 129.886 37.3411C129.865 37.4176 129.949 37.4875 130.017 37.5356C130.1 37.593 130.186 37.6474 130.271 37.7018L130.271 37.7018L130.271 37.7018C130.431 37.8035 130.59 37.9049 130.734 38.0251C130.775 38.059 130.816 38.0924 130.858 38.1259L130.858 38.126ZM120.815 42.725V42.7251C120.814 42.7494 120.814 42.7744 120.855 42.7744C120.855 42.8048 120.834 42.8188 120.81 42.8353C120.805 42.8388 120.799 42.8425 120.794 42.8465C120.795 42.8295 120.789 42.8124 120.783 42.7957C120.77 42.7616 120.757 42.7289 120.814 42.7016C120.815 42.7087 120.815 42.7168 120.815 42.725Z" fill="#EFEFE5"/>
</g>
</svg>
