<svg width="170" height="66" viewBox="0 0 170 66" fill="none" xmlns="http://www.w3.org/2000/svg">
<path opacity="0.8" fill-rule="evenodd" clip-rule="evenodd" d="M30.9109 16.7281C31.3487 16.2637 31.9619 16 32.6039 16H36.7587C37.2833 16 37.5554 16.6188 37.1976 16.9982L28.9808 25.7142H33.5216L38.1388 30.5713H28.9808L38.1388 40.2855H32.6039C31.9619 40.2855 31.3487 40.0218 30.9109 39.5574L21.6217 29.7039C20.7928 28.8246 20.7928 27.4609 21.6217 26.5816L30.9109 16.7281ZM77.0435 32.3065C76.1243 31.2432 75.0214 30.5382 73.7346 30.1915C74.5618 29.8448 75.2512 29.2207 75.8026 28.3193C76.3771 27.4178 76.6644 26.3661 76.6644 25.1642C76.6644 23.9853 76.3771 22.9221 75.8026 21.9744C75.2512 21.0267 74.4239 20.2755 73.321 19.7207C72.241 19.166 70.9426 18.8886 69.426 18.8886H60.9811C60.8203 18.8886 60.6938 18.9348 60.602 19.0273C60.5101 19.1198 60.4641 19.2469 60.4641 19.4087V42.6386C60.4641 42.8005 60.5101 42.9275 60.602 43.0199C60.6938 43.1124 60.8203 43.1586 60.9811 43.1586H69.4604C72.4936 43.1586 74.7456 42.5808 76.2163 41.4252C77.71 40.2463 78.4568 38.4895 78.4568 36.1551C78.4568 34.6527 77.9857 33.3697 77.0435 32.3065ZM68.9434 23.6386C70.7588 23.6386 71.6665 24.3783 71.6665 25.8576C71.6665 26.6666 71.4251 27.2791 70.9426 27.6952C70.46 28.0881 69.7936 28.2846 68.9434 28.2846H65.8067V23.6386H68.9434ZM72.1834 37.6807C71.563 38.166 70.7244 38.4088 69.6673 38.4088H65.8067V32.7226H69.6673C70.7244 32.7226 71.563 32.9537 72.1834 33.4159C72.8038 33.8552 73.114 34.5486 73.114 35.4964C73.114 36.467 72.8038 37.1951 72.1834 37.6807ZM82.9507 24.4707C82.1694 24.4707 81.5144 24.2049 80.986 23.6733C80.4574 23.1186 80.1931 22.4598 80.1931 21.697C80.1931 20.9111 80.4574 20.2524 80.986 19.7207C81.5144 19.166 82.1694 18.8886 82.9507 18.8886C83.732 18.8886 84.3868 19.166 84.9154 19.7207C85.4439 20.2524 85.7082 20.9111 85.7082 21.697C85.7082 22.4598 85.4439 23.1186 84.9154 23.6733C84.3868 24.2049 83.732 24.4707 82.9507 24.4707ZM80.3656 26.3966C80.3656 26.2348 80.4115 26.1077 80.5035 26.0152C80.5953 25.9227 80.7217 25.8765 80.8825 25.8765H85.0187C85.1796 25.8765 85.306 25.9227 85.3979 26.0152C85.4899 26.1077 85.5358 26.2348 85.5358 26.3966V42.6082C85.5358 42.7699 85.4899 42.897 85.3979 42.9895C85.306 43.082 85.1796 43.1282 85.0187 43.1282H80.8825C80.7217 43.1282 80.5953 43.082 80.5035 42.9895C80.4115 42.897 80.3656 42.7699 80.3656 42.6082V26.3966ZM99.0266 26.0295C98.9348 25.937 98.8084 25.8908 98.6475 25.8908H95.8901V21.4728C95.8901 21.311 95.844 21.1839 95.7522 21.0914C95.6602 20.999 95.5338 20.9527 95.373 20.9527H91.2368C91.0759 20.9527 90.9495 20.999 90.8575 21.0914C90.7657 21.1839 90.7197 21.311 90.7197 21.4728V25.8908H87.9622C87.8014 25.8908 87.6749 25.937 87.5831 26.0295C87.4911 26.1219 87.4452 26.2491 87.4452 26.4109V29.566C87.4452 29.7278 87.4911 29.8549 87.5831 29.9474C87.6749 30.0398 87.8014 30.086 87.9622 30.086H90.7197V42.6224C90.7197 42.7843 90.7657 42.9113 90.8575 43.0037C90.9495 43.0962 91.0759 43.1425 91.2368 43.1425H95.373C95.5338 43.1425 95.6602 43.0962 95.7522 43.0037C95.844 42.9113 95.8901 42.7843 95.8901 42.6224V30.086H98.6475C98.8084 30.086 98.9348 30.0398 99.0266 29.9474C99.1186 29.8549 99.1645 29.7278 99.1645 29.566V26.4109C99.1645 26.2491 99.1186 26.1219 99.0266 26.0295ZM148.862 26.0295C148.77 25.937 148.644 25.8908 148.483 25.8908H145.725V21.4728C145.725 21.311 145.68 21.1839 145.588 21.0914C145.496 20.999 145.369 20.9527 145.208 20.9527H141.072C140.911 20.9527 140.785 20.999 140.693 21.0914C140.601 21.1839 140.555 21.311 140.555 21.4728V25.8908H137.798C137.637 25.8908 137.51 25.937 137.418 26.0295C137.326 26.1219 137.281 26.2491 137.281 26.4109V29.566C137.281 29.7278 137.326 29.8549 137.418 29.9474C137.51 30.0398 137.637 30.086 137.798 30.086H140.555V42.6224C140.555 42.7843 140.601 42.9113 140.693 43.0037C140.785 43.0962 140.911 43.1425 141.072 43.1425H145.208C145.369 43.1425 145.496 43.0962 145.588 43.0037C145.68 42.9113 145.725 42.7843 145.725 42.6224V30.086H148.483C148.644 30.086 148.77 30.0398 148.862 29.9474C148.954 29.8549 149 29.7278 149 29.566V26.4109C149 26.2491 148.954 26.1219 148.862 26.0295ZM136.345 35.8884C136.506 35.5418 136.586 34.9869 136.586 34.2241C136.586 32.6986 136.253 31.2887 135.587 29.9943C134.92 28.6999 133.978 27.6713 132.76 26.9085C131.542 26.1457 130.14 25.7643 128.555 25.7643C126.946 25.7643 125.487 26.1573 124.177 26.9432C122.868 27.7059 121.834 28.7576 121.075 30.0983C120.34 31.4389 119.972 32.9182 119.972 34.5362C119.972 36.1543 120.352 37.6336 121.11 38.9742C121.868 40.3148 122.925 41.3781 124.281 42.164C125.66 42.9499 127.211 43.3428 128.934 43.3428C130.152 43.3428 131.29 43.1231 132.347 42.684C133.427 42.2218 134.38 41.5745 135.207 40.7425C135.345 40.6038 135.414 40.4651 135.414 40.3263C135.414 40.1876 135.368 40.072 135.276 39.9797L133.484 38.2461C133.346 38.1074 133.22 38.038 133.105 38.038C132.967 38.038 132.841 38.0843 132.726 38.1767C132.151 38.5466 131.6 38.8124 131.071 38.9742C130.566 39.1129 130.026 39.1823 129.451 39.1823C128.302 39.1823 127.349 38.9511 126.59 38.4888C125.855 38.0033 125.361 37.2984 125.108 36.3737H135.345C135.851 36.3737 136.184 36.2121 136.345 35.8884ZM126.28 30.9304C126.923 30.4219 127.693 30.1676 128.589 30.1676C129.463 30.1676 130.21 30.4219 130.83 30.9304C131.45 31.4158 131.841 32.1323 132.002 33.08H125.039C125.223 32.1323 125.637 31.4158 126.28 30.9304ZM117.718 26.1457C117.879 26.1457 118.006 26.1919 118.098 26.2844C118.189 26.3769 118.236 26.504 118.236 26.6658V42.9962C118.236 44.6834 117.776 46.0471 116.857 47.0873C115.961 48.1506 114.823 48.9019 113.444 49.341C112.089 49.7801 110.687 49.9997 109.239 49.9997C107.791 49.9997 106.401 49.7916 105.068 49.3756C103.759 48.9826 102.644 48.451 101.725 47.7807C101.587 47.6883 101.518 47.5611 101.518 47.3994C101.518 47.2607 101.541 47.1567 101.587 47.0873L102.931 44.6603C103.069 44.4755 103.207 44.383 103.345 44.383C103.46 44.383 103.552 44.4061 103.621 44.4524C104.402 44.9146 105.206 45.2496 106.034 45.4577C106.884 45.6658 107.815 45.7698 108.825 45.7698C109.997 45.7698 111.066 45.5155 112.031 45.0071C112.996 44.5215 113.479 43.7011 113.479 42.5453V40.9504C112.146 42.476 110.491 43.2387 108.515 43.2387C106.976 43.2387 105.586 42.8459 104.345 42.06C103.104 41.2741 102.127 40.2107 101.415 38.8701C100.725 37.5296 100.381 36.0734 100.381 34.5016C100.381 32.9298 100.725 31.4736 101.415 30.1329C102.127 28.7923 103.104 27.7291 104.345 26.9432C105.586 26.1573 106.976 25.7643 108.515 25.7643C110.4 25.7643 112.008 26.5156 113.341 28.018L113.444 26.6658C113.49 26.3191 113.663 26.1457 113.961 26.1457H117.718ZM109.17 38.4888C110.227 38.4888 111.123 38.0843 111.859 37.2752C112.594 36.4662 112.962 35.5302 112.962 34.4669C112.962 33.4035 112.594 32.479 111.859 31.6932C111.123 30.8842 110.227 30.4797 109.17 30.4797C108.09 30.4797 107.182 30.8726 106.447 31.6585C105.712 32.4213 105.344 33.3575 105.344 34.4669C105.344 35.5996 105.7 36.5587 106.413 37.3446C107.148 38.1074 108.067 38.4888 109.17 38.4888ZM41.9877 50C42.6297 50 43.243 49.7363 43.6808 49.2719L52.9699 39.4183C53.7988 38.5391 53.7988 37.1754 52.9699 36.2962L43.6808 26.4426C43.243 25.9782 42.6297 25.7145 41.9877 25.7145H36.4529L45.6109 35.4287H36.4529L41.0701 40.2858H45.6109L37.394 49.0018C37.0363 49.3812 37.3083 50 37.8329 50H41.9877Z" fill="#EFEFE5"/>
</svg>
