<svg width="170" height="66" viewBox="0 0 170 66" fill="none" xmlns="http://www.w3.org/2000/svg">
<path opacity="0.8" fill-rule="evenodd" clip-rule="evenodd" d="M25 27.6327L36.2027 13H54.1707L65.3737 27.6327L61.3757 45.8793L45.1871 54L28.9981 45.8793L25 27.6327ZM50.9273 15.6415H39.4465L45.1871 23.1393L50.9273 15.6415ZM36.8134 16.4389L28.4101 27.4148L38.5376 31.8243L43.5651 25.2578L36.8134 16.4389ZM61.7267 27.1058L54.2107 17.2884L51.5741 29.3204L61.7267 27.1058ZM51.0878 19.6684L46.8085 25.2578L49.1837 28.3597L51.0878 19.6684ZM47.3762 30.2359L45.1871 27.376L42.1196 31.3826L47.3762 30.2359ZM62.3252 29.6741L51.9266 31.9423L59.6249 41.9973L62.3252 29.6741ZM36.8938 33.9715L28.1565 30.1675L30.7489 41.9973L36.8938 33.9715ZM39.6387 34.6226L32.0811 44.4941L44.3046 50.6255L48.2212 32.7503L39.6387 34.6226ZM58.2924 44.4941L50.4841 34.2948L47.0089 50.154L58.2924 44.4941ZM127.349 42.2737H130.999V22.1098H127.349V42.2737ZM87.5143 23.2576C89.6712 23.2576 91.3027 23.7524 92.4088 24.7419C93.5147 25.7314 94.0678 27.057 94.0678 28.7187C94.0678 29.8016 93.819 30.7818 93.3212 31.6593C92.8235 32.5181 92.0768 33.1996 91.0815 33.7037C90.086 34.2078 88.8693 34.4598 87.4314 34.4598H82.6477V42.2733H78.8317V23.2576H87.5143ZM86.9061 31.4912C88.012 31.4912 88.8508 31.2485 89.4222 30.7631C89.9938 30.2777 90.2795 29.6242 90.2795 28.8027C90.2795 27.085 89.1457 26.2262 86.8784 26.2262H82.6477V31.4912H86.9061ZM98.492 41.6866C99.5981 42.3028 100.842 42.6108 102.225 42.6108C103.608 42.6108 104.843 42.3028 105.93 41.6866C107.036 41.0519 107.903 40.1649 108.53 39.0261C109.156 37.8873 109.47 36.5616 109.47 35.0493C109.47 33.537 109.156 32.2114 108.53 31.0725C107.903 29.915 107.036 29.0281 105.93 28.412C104.843 27.7772 103.608 27.4598 102.225 27.4598C100.842 27.4598 99.5981 27.7772 98.492 28.412C97.3859 29.0281 96.5196 29.915 95.8927 31.0725C95.266 32.2114 94.9525 33.537 94.9525 35.0493C94.9525 36.5616 95.266 37.8964 95.8927 39.054C96.5196 40.193 97.3859 41.0704 98.492 41.6866ZM104.769 38.382C104.124 39.2034 103.266 39.6141 102.197 39.6141C101.128 39.6141 100.262 39.2034 99.5981 38.382C98.9528 37.5604 98.6302 36.4495 98.6302 35.0493C98.6302 33.649 98.9528 32.5381 99.5981 31.7167C100.262 30.8765 101.128 30.4564 102.197 30.4564C103.266 30.4564 104.124 30.8765 104.769 31.7167C105.433 32.5381 105.764 33.649 105.764 35.0493C105.764 36.4495 105.433 37.5604 104.769 38.382ZM114.289 41.6866C115.395 42.3028 116.64 42.6108 118.022 42.6108C119.405 42.6108 120.64 42.3028 121.728 41.6866C122.834 41.0519 123.7 40.1649 124.327 39.0261C124.954 37.8873 125.267 36.5616 125.267 35.0493C125.267 33.537 124.954 32.2114 124.327 31.0725C123.7 29.915 122.834 29.0281 121.728 28.412C120.64 27.7772 119.405 27.4598 118.022 27.4598C116.64 27.4598 115.395 27.7772 114.289 28.412C113.183 29.0281 112.317 29.915 111.69 31.0725C111.063 32.2114 110.75 33.537 110.75 35.0493C110.75 36.5616 111.063 37.8964 111.69 39.054C112.317 40.193 113.183 41.0704 114.289 41.6866ZM120.566 38.382C119.921 39.2034 119.064 39.6141 117.995 39.6141C116.925 39.6141 116.059 39.2034 115.395 38.382C114.75 37.5604 114.428 36.4495 114.428 35.0493C114.428 33.649 114.75 32.5381 115.395 31.7167C116.059 30.8765 116.925 30.4564 117.995 30.4564C119.064 30.4564 119.921 30.8765 120.566 31.7167C121.23 32.5381 121.562 33.649 121.562 35.0493C121.562 36.4495 121.23 37.5604 120.566 38.382ZM145 39.2216V42.2741H133.11V39.3616L140.244 30.848H133.386V27.7954H144.917V30.68L137.783 39.2216H145Z" fill="#EFEFE5"/>
</svg>
