<svg width="170" height="66" viewBox="0 0 170 66" fill="none" xmlns="http://www.w3.org/2000/svg">
<path opacity="0.8" fill-rule="evenodd" clip-rule="evenodd" d="M39.3474 17.2537L26.2798 7.21066C26.1403 7.10536 25.9769 7.0368 25.8044 7.01124C25.6319 6.98567 25.4558 7.0039 25.2921 7.06427C25.1284 7.12464 24.9823 7.22523 24.8671 7.35688C24.752 7.48853 24.6714 7.64705 24.6328 7.81801L19.8547 30.1777L39.2414 18.9855C39.3913 18.9012 39.5178 18.7804 39.6092 18.6342C39.7007 18.488 39.7541 18.3211 39.7647 18.1487C39.7752 17.9763 39.7425 17.8041 39.6696 17.6477C39.5967 17.4913 39.486 17.3558 39.3474 17.2537ZM20.8064 33.4896L40.4916 44.8402C40.6491 44.9297 40.8269 44.9765 41.0078 44.976C41.1887 44.9755 41.3663 44.9277 41.5233 44.8373C41.6803 44.747 41.8112 44.6171 41.9032 44.4605C41.9951 44.3039 42.045 44.126 42.048 43.9442L42.0513 23.042C42.0493 22.8599 42 22.6814 41.9083 22.5242C41.8166 22.3671 41.6856 22.2368 41.5284 22.1462C41.3712 22.0557 41.1931 22.0079 41.0119 22.0078C40.8307 22.0077 40.6526 22.0552 40.4953 22.1455L20.8064 33.4896ZM39.3723 49.7297L26.2711 59.7836C26.1334 59.8907 25.9709 59.9608 25.7988 59.9873C25.6267 60.0137 25.4508 59.9957 25.2875 59.9349C25.1243 59.8741 24.9791 59.7725 24.8658 59.6397C24.7524 59.5068 24.6745 59.3472 24.6395 59.1758L19.8535 36.8145L39.2668 47.9979C39.4138 48.0846 39.5374 48.2064 39.6267 48.3525C39.7159 48.4985 39.768 48.6644 39.7785 48.8355C39.7889 49.0066 39.7573 49.1777 39.6864 49.3336C39.6156 49.4895 39.5077 49.6255 39.3723 49.7297ZM15.7597 33.4897L20.9158 9.39837C20.9606 9.1897 20.9402 8.97222 20.8575 8.77562C20.7748 8.57901 20.6337 8.41285 20.4536 8.29983C20.2735 8.18682 20.0631 8.13244 19.8511 8.14413C19.639 8.15582 19.4358 8.233 19.269 8.36514L6.07725 18.4951C5.74302 18.752 5.4723 19.0831 5.28618 19.4625C5.10005 19.8419 5.00354 20.2593 5.00415 20.6823L5 46.3391C4.99925 46.7622 5.09563 47.1796 5.28163 47.5591C5.46764 47.9385 5.73825 48.2697 6.07239 48.5268L19.2609 58.6458C19.4289 58.7724 19.631 58.8451 19.8407 58.8542C20.0505 58.8632 20.2581 58.8083 20.4362 58.6966C20.6144 58.5849 20.7548 58.4217 20.839 58.2283C20.9232 58.0349 20.9472 57.8205 20.908 57.6131L15.7597 33.4897ZM121.126 27.1359C120.301 26.6764 119.37 26.4446 118.428 26.464C117.826 26.4595 117.226 26.5529 116.654 26.7407C116.124 26.9139 115.63 27.1845 115.198 27.5386C114.784 27.8806 114.445 28.3071 114.207 28.7902C113.959 29.3006 113.834 29.8624 113.843 30.4303C113.834 30.9053 113.924 31.377 114.107 31.8152C114.283 32.2212 114.529 32.5925 114.834 32.912C115.154 33.2471 115.518 33.5378 115.914 33.7766C116.342 34.037 116.783 34.2739 117.237 34.4861L118.845 35.24C119.168 35.3878 119.458 35.5318 119.715 35.6719C119.954 35.8002 120.179 35.9524 120.388 36.1262C120.573 36.2814 120.723 36.4741 120.829 36.6919C120.935 36.9244 120.988 37.1782 120.983 37.4342C120.995 37.7213 120.938 38.0072 120.817 38.2675C120.696 38.5278 120.515 38.7549 120.288 38.9296C119.76 39.312 119.119 39.5033 118.47 39.4722C118.047 39.4774 117.627 39.4139 117.224 39.284C116.86 39.1638 116.515 38.992 116.2 38.7739C115.89 38.5592 115.606 38.3101 115.352 38.0315C115.097 37.7548 114.865 37.4583 114.657 37.1449L113.004 38.4076C113.541 39.3621 114.316 40.1602 115.252 40.7241C116.232 41.3039 117.354 41.5993 118.491 41.5775C119.146 41.5835 119.798 41.4825 120.42 41.2786C120.985 41.096 121.512 40.8108 121.974 40.4369C122.414 40.0768 122.768 39.6226 123.01 39.1075C123.266 38.5565 123.395 37.9541 123.386 37.3458C123.393 36.8837 123.31 36.4246 123.143 35.9941C122.979 35.592 122.748 35.2209 122.46 34.8966C122.137 34.54 121.766 34.2305 121.358 33.9772C120.884 33.6785 120.391 33.4118 119.881 33.179L118.25 32.4251C117.995 32.2975 117.758 32.178 117.537 32.0665L117.435 32.0152C117.205 31.9029 116.99 31.7612 116.796 31.5937C116.624 31.4447 116.482 31.2642 116.377 31.0619C116.269 30.8379 116.216 30.5909 116.223 30.3419C116.206 30.0795 116.257 29.8172 116.374 29.5817C116.49 29.3461 116.666 29.1459 116.884 29.0013C117.345 28.7075 117.882 28.5573 118.427 28.5693C119.032 28.5622 119.627 28.7234 120.147 29.0351C120.684 29.3677 121.143 29.8139 121.491 30.3428L123.122 29.0797C122.639 28.266 121.95 27.5953 121.126 27.1359ZM136.346 37.5024L139.146 30.4556L141.593 30.4562L136.808 41.5799H136.014L132.599 34.3108L129.226 41.5787H128.432L123.629 30.4531L126.097 30.4534L128.939 37.5675L132.225 30.2109H133.018L136.346 37.5024ZM148.778 30.5036C148.196 30.3055 147.585 30.208 146.971 30.2152C146.094 30.2073 145.227 30.4005 144.436 30.7799C143.627 31.1826 142.935 31.7897 142.429 32.5416L143.752 33.9157C144.14 33.4447 144.602 33.0405 145.119 32.719C145.621 32.4302 146.193 32.2847 146.771 32.2982C147.084 32.2607 147.402 32.2952 147.7 32.3989C147.997 32.5026 148.268 32.6729 148.491 32.897C148.714 33.121 148.883 33.393 148.986 33.6924C149.089 33.9919 149.123 34.3109 149.086 34.6255L149.085 35.3347L146.022 35.3344C144.987 35.279 143.964 35.5711 143.112 36.1649C142.762 36.4271 142.481 36.7708 142.293 37.1665C142.105 37.5621 142.015 37.9978 142.032 38.4361C142.025 38.8788 142.115 39.3177 142.296 39.7215C142.473 40.1065 142.733 40.4472 143.057 40.7188C143.407 41.0105 143.811 41.229 144.247 41.3616C144.75 41.5152 145.274 41.5901 145.801 41.5836C146.489 41.5955 147.172 41.4635 147.807 41.196C148.368 40.9569 148.866 40.589 149.261 40.1218V41.3405L151.422 41.3408L151.423 34.7592C151.436 34.0831 151.324 33.4105 151.092 32.7758C150.894 32.2414 150.582 31.7571 150.177 31.357C149.778 30.9742 149.3 30.683 148.778 30.5036ZM147.366 39.6005C147.02 39.7274 146.654 39.7912 146.285 39.7887C145.811 39.8039 145.343 39.6765 144.941 39.4228C144.763 39.3083 144.619 39.1486 144.522 38.9599C144.425 38.7711 144.38 38.5601 144.39 38.348C144.379 38.1527 144.419 37.9578 144.506 37.7828C144.593 37.6078 144.724 37.4588 144.886 37.3507C145.318 37.1036 145.812 36.9882 146.308 37.0186L149.085 37.0189V37.2183C149.088 37.5739 149.013 37.9258 148.865 38.2488C148.722 38.5616 148.515 38.8408 148.258 39.0687C147.996 39.3007 147.694 39.4811 147.366 39.6005ZM159.689 30.2153C160.42 30.2087 161.145 30.356 161.816 30.6479C162.454 30.9253 163.028 31.3328 163.502 31.8446C163.979 32.367 164.353 32.9765 164.604 33.6401C164.874 34.3584 165.008 35.1213 165 35.8893C165.007 36.6608 164.873 37.4272 164.603 38.1496C164.353 38.8193 163.975 39.4331 163.489 39.9556C163.002 40.4771 162.413 40.8911 161.758 41.1713C161.104 41.4516 160.398 41.592 159.687 41.5837C158.98 41.5919 158.279 41.4561 157.626 41.1846C157.022 40.9338 156.489 40.538 156.072 40.0319L156.071 45.3282L153.758 45.3279L153.76 30.4581L155.898 30.4584L155.897 32.0319C156.299 31.4517 156.847 30.9892 157.485 30.6913C158.174 30.3678 158.928 30.205 159.689 30.2153ZM159.314 32.3426C158.912 32.3436 158.512 32.4147 158.134 32.5529C157.745 32.6932 157.389 32.9119 157.087 33.1957C156.764 33.5046 156.509 33.8781 156.338 34.2922C156.135 34.7987 156.037 35.3417 156.051 35.8877C156.037 36.4327 156.131 36.975 156.326 37.4835C156.493 37.9007 156.744 38.2783 157.065 38.5918C157.364 38.8815 157.72 39.1043 158.111 39.2455C158.496 39.3853 158.903 39.4567 159.313 39.4564C159.755 39.4589 160.193 39.3723 160.602 39.2018C161 39.0364 161.36 38.7913 161.66 38.4814C161.968 38.1602 162.208 37.7796 162.366 37.3625C162.703 36.4245 162.703 35.3975 162.367 34.4593C162.21 34.0443 161.974 33.6641 161.672 33.3402C161.376 33.0283 161.02 32.7796 160.625 32.609C160.211 32.4294 159.765 32.3387 159.314 32.3426ZM56.9656 41.3234L59.3017 41.3237L59.3042 26.6977L56.968 26.6973L56.9656 41.3234ZM69.0003 41.3252L62.2788 33.5457L68.3415 26.6992L65.4761 26.6986L59.3689 33.5454L66.1127 41.3246L69.0003 41.3252ZM74.1362 42.5685C73.7956 43.46 73.2293 44.2467 72.4934 44.8506C71.8084 45.3375 70.9841 45.5864 70.1456 45.5595C69.8435 45.5586 69.5418 45.54 69.2419 45.504C68.9446 45.4688 68.6501 45.4133 68.3604 45.3377V43.3655C68.625 43.3946 68.8602 43.4167 69.0661 43.4318C69.2715 43.4464 69.4697 43.4538 69.6607 43.4539C70.1239 43.4628 70.5821 43.3564 70.9944 43.1441C71.4659 42.8389 71.826 42.3879 72.0203 41.859L72.4607 40.8397L68.1426 30.4453L70.6329 30.4459L73.7179 38.3799L76.9374 30.4469L79.4056 30.4472L74.1362 42.5685ZM84.4861 30.6247C83.888 30.8856 83.3565 31.2795 82.9316 31.7768L82.9328 24.7073L80.6189 24.707L80.6165 41.3276L82.7539 41.3279V39.7768C83.1567 40.3578 83.7092 40.8175 84.3523 41.1065C85.0479 41.4228 85.8041 41.5818 86.5675 41.5723C87.2952 41.5801 88.0163 41.433 88.6834 41.1406C89.3175 40.8615 89.8878 40.4543 90.3588 39.9443C90.8367 39.4221 91.2109 38.8129 91.4612 38.1494C91.7314 37.431 91.8659 36.6682 91.8578 35.9002C91.8654 35.1287 91.7311 34.3624 91.4618 33.6399C91.2125 32.97 90.8343 32.3561 90.349 31.8332C89.8621 31.3117 89.2727 30.8975 88.6183 30.6171C87.9638 30.3366 87.2585 30.1959 86.5471 30.2039C85.8382 30.1955 85.1356 30.339 84.4861 30.6247ZM84.9704 32.5415C85.3559 32.4021 85.7624 32.331 86.1721 32.3312C86.6144 32.3288 87.0529 32.4155 87.4614 32.5864C87.859 32.7519 88.2189 32.997 88.5193 33.3068C88.8273 33.6283 89.0673 34.0091 89.225 34.4263C89.5616 35.3644 89.5614 36.3912 89.2244 37.3292C89.0678 37.7442 88.8318 38.1243 88.5298 38.448C88.2329 38.7599 87.8767 39.0086 87.4823 39.1792C87.0682 39.3583 86.6216 39.4488 86.1708 39.445C85.7694 39.4442 85.3709 39.3767 84.9914 39.2453C84.6018 39.1122 84.2451 38.8968 83.9451 38.6136C83.6199 38.3017 83.3645 37.9239 83.1956 37.5053C82.9935 36.9946 82.8961 36.4481 82.9094 35.8986C82.8959 35.3537 82.9895 34.8115 83.1851 34.3032C83.3515 33.886 83.6032 33.5086 83.9235 33.1952C84.2229 32.9057 84.5796 32.683 84.9704 32.5415ZM99.0006 30.2073C99.6871 30.201 100.368 30.329 101.006 30.5844C101.599 30.8176 102.138 31.1711 102.589 31.623C103.04 32.0748 103.394 32.6153 103.628 33.2107C103.882 33.8406 104.009 34.5146 104.003 35.1941C104.003 35.4758 103.985 35.7572 103.947 36.0363C103.922 36.2457 103.881 36.4529 103.826 36.6565L95.7589 36.6553C95.8782 37.4827 96.3033 38.2346 96.9495 38.7609C97.618 39.2759 98.4432 39.5422 99.285 39.5147C99.8757 39.5233 100.462 39.4064 101.004 39.1715C101.529 38.9361 102.013 38.6183 102.438 38.23L103.561 39.8258C102.996 40.367 102.339 40.8022 101.622 41.1106C100.868 41.4275 100.058 41.5858 99.2412 41.5758C98.442 41.5828 97.6488 41.436 96.9044 41.1435C96.2178 40.8782 95.5921 40.475 95.0655 39.9586C94.5389 39.4422 94.1225 38.8234 93.8416 38.1398C93.5447 37.4317 93.3946 36.6702 93.4006 35.9018C93.3948 35.1343 93.5412 34.3734 93.8311 33.6635C94.1048 32.9882 94.5093 32.3744 95.0211 31.8577C95.5314 31.3461 96.1337 30.9363 96.7959 30.6502C97.4923 30.3506 98.2431 30.1998 99.0006 30.2073ZM98.9334 32.1796C98.1924 32.1607 97.4705 32.417 96.9057 32.8996C96.3331 33.4038 95.9451 34.0864 95.8039 34.8384L101.689 34.8393C101.697 34.4684 101.626 34.1001 101.479 33.7596C101.333 33.4191 101.115 33.1145 100.84 32.8667C100.31 32.4108 99.6312 32.1663 98.9334 32.1796ZM112.016 30.3753C111.852 30.3515 111.686 30.3403 111.52 30.3419C110.906 30.3379 110.3 30.4742 109.746 30.7404C109.19 31.0104 108.709 31.4138 108.345 31.915L108.346 30.4523L106.208 30.452L106.207 41.3328L108.52 41.3332L108.521 35.5271C108.512 35.0744 108.598 34.625 108.775 34.2085C108.932 33.8483 109.165 33.5269 109.459 33.2668C109.755 33.0104 110.1 32.8181 110.473 32.7021C110.868 32.5753 111.281 32.5117 111.696 32.5135L112.401 32.5138L112.402 30.4529C112.284 30.4232 112.156 30.3974 112.016 30.3753Z" fill="#EFEFE5"/>
</svg>
