<svg width="170" height="66" viewBox="0 0 170 66" fill="none" xmlns="http://www.w3.org/2000/svg">
<path opacity="0.8" fill-rule="evenodd" clip-rule="evenodd" d="M62.7955 4C61.0339 4 59.6058 5.44233 59.6058 7.22153V41.3897C59.6058 43.1689 61.0339 44.6112 62.7955 44.6112H80.3643C82.1259 44.6112 83.5539 43.1689 83.5539 41.3897V29.1321C83.5539 28.7042 83.2105 28.3573 82.7868 28.3573H76.5898H76.5594C76.1358 28.3573 75.7924 28.7042 75.7924 29.1321V35.9534C75.7924 36.3982 75.4354 36.7588 74.995 36.7588H68.0468C67.6064 36.7588 67.2494 36.3982 67.2494 35.9534V12.8144C67.2494 12.3696 67.6064 12.009 68.0468 12.009H74.995C75.4354 12.009 75.7924 12.3696 75.7924 12.8144V19.0112C75.7924 19.4391 76.1353 19.786 76.5589 19.786H76.5898H82.7868C83.2105 19.786 83.5539 19.4391 83.5539 19.0112V7.22153C83.5539 5.44233 82.1259 4 80.3643 4H62.7955ZM106.19 4C107.952 4 109.38 5.44233 109.38 7.22153V41.3897C109.38 43.1689 107.952 44.6112 106.19 44.6112H88.6213C86.8597 44.6112 85.4316 43.1689 85.4316 41.3897V29.1321C85.4316 28.7042 85.7751 28.3573 86.1987 28.3573H92.3958C92.8362 28.3573 93.1932 28.7179 93.1932 29.1627V35.9534C93.1932 36.3982 93.5502 36.7588 93.9906 36.7588H100.939C101.379 36.7588 101.736 36.3982 101.736 35.9534V12.8144C101.736 12.3696 101.379 12.009 100.939 12.009H93.9906C93.5502 12.009 93.1932 12.3696 93.1932 12.8144V19.0112C93.1932 19.4391 92.8503 19.786 92.4266 19.786H92.3958H86.1987C85.7751 19.786 85.4316 19.4391 85.4316 19.0112V7.22153C85.4316 5.44233 86.8597 4 88.6213 4H106.19ZM109.262 52.7648H113.796V54.1184H112.219V61.9788H110.84V54.1184H109.262V52.7648ZM89.5566 54.3898C89.5566 53.5002 90.2707 52.779 91.1515 52.779H92.2608C93.1416 52.779 93.8556 53.5002 93.8556 54.3898V55.9384H92.5259V54.7757C92.5259 54.3669 92.1977 54.0354 91.7929 54.0354C91.3881 54.0354 91.0599 54.3669 91.0599 54.7757V59.982C91.0599 60.3909 91.3881 60.7223 91.7929 60.7223C92.1977 60.7223 92.5259 60.3909 92.5259 59.982V58.4835H93.8556V60.368C93.8556 61.2576 93.1416 61.9788 92.2608 61.9788H91.1515C90.2707 61.9788 89.5566 61.2576 89.5566 60.368V54.3898ZM63.0897 61.9788H62.2715L60.8926 52.7863H62.2715L63.2492 60.6673L64.207 52.7934H65.586L64.207 61.9858H63.0889L63.0897 61.9788ZM45 52.7932H46.3789V56.4858H47.9706V52.7932H49.3496V61.9929H47.9706V57.8394H46.3789V61.9929H45V52.7932ZM72.9756 61.9929H73.0212H74.2141H74.4001V52.7932H73.0212V57.566L71.7371 52.8005H71.185V52.7932H69.8061V61.9929H71.185V55.3122L72.9756 61.9929ZM66.8354 52.7932H68.2143V61.9929H66.8354V52.7932ZM101.042 52.7932H102.421H103.566C104.667 52.7932 105.56 53.6946 105.56 54.8066V56.2396C105.56 57.3516 104.667 58.2531 103.566 58.2531H102.421V61.9929H101.042V58.2531V52.7932ZM103.17 56.916H102.421V54.1066H103.17C103.611 54.1066 103.968 54.4672 103.968 54.912V56.1106C103.968 56.5554 103.611 56.916 103.17 56.916ZM106.678 52.7932H108.057V61.9929H106.678V52.7932ZM53.9964 52.7932H52.8782L52.8791 52.8002H52.0611L50.6822 61.9927H52.0611L52.2726 60.2878H53.7899L53.9964 61.9856H55.3753L53.9964 52.7932ZM53.6252 58.9342L53.0387 54.1125L52.4405 58.9342H53.6252ZM97.1499 52.7932H98.268L99.647 61.9856H98.268L98.0615 60.2878H96.5442L96.3327 61.9927H94.9538L96.3327 52.8002H97.1507L97.1499 52.7932ZM97.3104 54.1125L97.8969 58.9342H96.7122L97.3104 54.1125ZM117.419 52.7932H116.301L116.302 52.8002H115.484L114.105 61.9927H115.484L115.695 60.2878H117.213L117.419 61.9856H118.798L117.419 52.7932ZM117.048 58.9342L116.462 54.1125L115.863 58.9342H117.048ZM56.7918 52.7932H58.1708V60.6393H60.5439V61.9929H58.1708H57.4814H56.7918V52.7932ZM121.627 52.8002H120.248V62H120.937H121.627H124V60.6464H121.627V52.8002ZM77.5867 52.8002C76.7059 52.8002 75.9919 53.5214 75.9919 54.411V60.3892C75.9919 61.2788 76.7059 62 77.5867 62H78.696C79.5768 62 80.2908 61.2788 80.2908 60.3892V56.8633H78.8603V56.8637H78.0878V58.2487H78.8603V60.0241C78.8603 60.433 78.5321 60.7644 78.1273 60.7644C77.7225 60.7644 77.3943 60.433 77.3943 60.0241V54.8178C77.3943 54.409 77.7225 54.0775 78.1273 54.0775C78.5321 54.0775 78.8603 54.409 78.8603 54.8178V55.7968H80.2908V54.411C80.2908 53.5214 79.5768 52.8002 78.696 52.8002H77.5867ZM83.6049 52.8002C82.4033 52.8002 81.4293 53.784 81.4293 54.9975C81.4293 55.2274 81.4723 55.4561 81.5713 55.6631C82.3181 57.2243 83.6008 58.4282 84.164 58.9569C84.3524 59.1336 84.443 59.3867 84.443 59.6463V59.932C84.443 60.3722 84.0897 60.729 83.6539 60.729C83.2182 60.729 82.8649 60.3722 82.8649 59.9321V59.2439H81.4293V59.8027C81.4293 61.0162 82.4033 62 83.6049 62C84.8064 62 85.7804 61.0162 85.7804 59.8027C85.7804 59.3378 85.6881 58.8734 85.4554 58.4722C84.7003 57.1706 83.6414 56.1766 83.1439 55.7097C82.9555 55.5329 82.8649 55.2799 82.8649 55.0202V54.7345C82.8649 54.2944 83.2182 53.9375 83.6539 53.9375C84.0897 53.9375 84.443 54.2943 84.443 54.7345V55.4226H85.7804V54.9975C85.7804 53.784 84.8064 52.8002 83.6049 52.8002Z" fill="#EFEFE5"/>
</svg>
