<svg width="170" height="66" viewBox="0 0 170 66" fill="none" xmlns="http://www.w3.org/2000/svg">
<path opacity="0.8" fill-rule="evenodd" clip-rule="evenodd" d="M45.2623 27.898C45.8003 27.6061 46.5099 27.3524 47.1545 27.5898H47.1527C48.857 28.2188 48.866 31.8259 48.8678 32.9986C48.8823 39.0653 45.2154 43.5479 44.9608 43.8506C44.43 44.4814 39.5065 50.1475 31.9361 49.9971C23.0767 49.8213 15.2175 41.7697 15.0045 32.9986C14.8293 25.799 19.8774 20.9884 20.5184 20.3975C24.4543 16.7633 29.1413 15.9875 31.9379 16.0002L31.9395 16.0002C33.0966 16.0056 36.7209 16.0227 37.3471 17.7475C37.5782 18.3837 37.3417 19.0852 37.0402 19.6471C36.7604 19.9752 36.3379 20.5497 36.0634 21.369C36.0634 21.369 35.7981 22.2137 35.7981 23.1363C35.7981 26.4298 38.4575 29.0997 41.738 29.0997C42.6371 29.0997 43.4983 28.8332 43.4983 28.8332C44.3162 28.5722 44.9066 28.1771 45.2623 27.898ZM39.6419 37.7476C40.0481 38.2098 40.6404 38.5034 41.303 38.5034L41.3047 38.5016C42.5288 38.5016 43.52 37.5065 43.52 36.2776C43.52 35.0486 42.5288 34.0535 41.3047 34.0535C40.0807 34.0535 39.0894 35.0504 39.0894 36.2776C39.0894 36.3302 39.093 36.3827 39.0966 36.4335L33.3209 38.3621C32.6565 36.709 31.046 35.5416 29.1611 35.5416C28.7387 35.5416 28.3306 35.6014 27.9442 35.7102L25.7903 30.9015C26.7382 30.3124 27.3719 29.261 27.3719 28.0593C27.3719 26.2123 25.8806 24.7151 24.0408 24.7151C22.2011 24.7151 20.7097 26.2123 20.7097 28.0593C20.7097 29.9064 22.2011 31.4035 24.0408 31.4035C24.1817 31.4035 24.3171 31.3927 24.4525 31.3764L26.6606 36.3066C25.4636 37.115 24.6764 38.4871 24.6764 40.0441C24.6764 42.5309 26.6841 44.5466 29.1611 44.5466C31.6382 44.5466 33.6459 42.5309 33.6459 40.0441C33.6459 39.9462 33.6405 39.8484 33.6351 39.7523L39.6419 37.7476ZM63.1347 28.8986C58.9099 28.8986 55.7756 32.1287 55.7756 36.2867V36.2885C55.7756 40.4448 58.9099 43.6767 63.1347 43.6767C65.8791 43.6767 68.2568 42.2157 69.4322 40.0243L67.3613 38.8153C66.5777 40.2762 65.0377 41.2605 63.1347 41.2605C60.3362 41.2605 58.2094 39.1253 58.2094 36.2867C58.2094 33.4482 60.3362 31.2858 63.1347 31.2858C65.0106 31.2858 66.5759 32.2701 67.2765 33.7582L69.3185 32.5782C68.2568 30.3596 65.9043 28.8986 63.1347 28.8986ZM70.8585 36.2867C70.8585 32.1287 74.1317 28.8986 78.2176 28.8986C82.3033 28.8986 85.6056 32.1287 85.6056 36.2867C85.6056 40.4448 82.3033 43.6749 78.2176 43.6749C74.1317 43.6749 70.8585 40.443 70.8585 36.2867ZM83.1717 36.2867C83.1717 33.45 81.016 31.2858 78.2176 31.2858C75.4191 31.2858 73.2922 33.4482 73.2922 36.2867C73.2922 39.1253 75.4462 41.2876 78.2176 41.2876C80.9889 41.2876 83.1717 39.1253 83.1717 36.2867ZM95.0644 28.8986C90.9786 28.8986 87.7053 32.1287 87.7053 36.2867C87.7053 40.443 90.9786 43.6749 95.0644 43.6749C99.1501 43.6749 102.452 40.4448 102.452 36.2867C102.452 32.1287 99.1501 28.8986 95.0644 28.8986ZM95.0644 31.2858C97.8629 31.2858 100.019 33.45 100.019 36.2867C100.019 39.1253 97.8358 41.2876 95.0644 41.2876C92.293 41.2876 90.139 39.1253 90.139 36.2867C90.139 33.4482 92.2659 31.2858 95.0644 31.2858ZM114.15 43.3094L107.769 36.6518V43.3094H105.334V23.6446H107.769V35.4718L113.814 29.2619H116.948L110.261 36.0609L117.173 43.3094H114.15ZM120.67 23.4181C119.746 23.4181 119.019 24.1776 119.019 25.0766C119.019 25.9756 119.774 26.7061 120.67 26.7061C121.565 26.7061 122.292 25.9756 122.292 25.0766C122.292 24.1776 121.592 23.4181 120.67 23.4181ZM121.874 29.2619H119.439V43.3094H121.874V29.2619ZM132.369 41.373C134.3 41.373 135.7 40.474 136.399 39.3229L138.47 40.503C137.239 42.4134 135.111 43.6768 132.313 43.6768C127.807 43.6768 124.813 40.503 124.813 36.2887C124.813 32.0744 127.78 28.9006 132.145 28.9006C136.511 28.9006 139.112 32.3843 139.112 36.3177C139.112 36.682 139.084 37.0482 139.028 37.4125H127.303C127.78 39.9411 129.765 41.373 132.367 41.373H132.369ZM127.305 35.2773H136.651C136.233 32.4967 134.245 31.2044 132.147 31.2044C129.516 31.2044 127.696 32.8339 127.305 35.2773ZM147.284 43.6776C150.811 43.6776 154 41.4862 154 37.4967V37.4985C154 34.2395 151.735 32.2457 148.907 31.711L153.16 25.9523V23.6486H141.407V26.0919H150.111L145.578 32.2439L146.612 33.8444H147.284C149.636 33.8444 151.398 35.1639 151.398 37.4967C151.398 39.8295 149.635 41.1219 147.284 41.1219C145.157 41.1219 143.617 40.2229 143.03 38.3958L140.848 39.6882C141.855 42.3291 144.403 43.6776 147.284 43.6776Z" fill="#EFEFE5"/>
</svg>
