<svg width="170" height="66" viewBox="0 0 170 66" fill="none" xmlns="http://www.w3.org/2000/svg">
<path opacity="0.8" fill-rule="evenodd" clip-rule="evenodd" d="M11 21C11 19.8954 11.8954 19 13 19H36.1317C37.2363 19 38.1317 19.8954 38.1317 21V44.1317C38.1317 45.2363 37.2363 46.1317 36.1317 46.1317H13C11.8954 46.1317 11 45.2363 11 44.1317V21ZM18.3642 23.2621H23.2092L24.3105 25.9753H29.4107L26.3099 30.8202L31.1549 42.8357H26.3099L18.3642 23.2621ZM12.5503 23.4559H17.3952L25.3409 42.8357H20.3022L12.5503 23.4559ZM31.9301 23.6497H36.5812L30.3797 37.0217L28.0541 32.1768L31.9301 23.6497ZM43.6826 39.9307H47.5351C48.469 39.9307 49.2587 39.6011 49.9043 38.9419C50.5635 38.2826 50.8931 37.4929 50.8931 36.5727V35.6044C50.8931 35.2885 50.8176 34.9246 50.6665 34.5125C50.3506 33.7571 49.8425 33.194 49.142 32.8232L49.1008 32.8026L43.456 30.0832C43.3186 30.0008 43.2362 29.8978 43.2087 29.7742V28.8677C43.2087 28.7441 43.2568 28.6342 43.353 28.5381C43.4491 28.4419 43.559 28.3939 43.6826 28.3939H47.5351C47.6724 28.3939 47.7823 28.4419 47.8647 28.5381C47.9608 28.6342 48.0089 28.7441 48.0089 28.8677V29.5063H50.8931V28.8677C50.8931 27.9475 50.5635 27.1578 49.9043 26.4985C49.2587 25.8393 48.469 25.5096 47.5351 25.5096H43.6826C42.7624 25.5096 41.9727 25.8393 41.3134 26.4985C40.6542 27.1578 40.3245 27.9475 40.3245 28.8677V29.836C40.3245 30.1519 40.4001 30.5158 40.5511 30.9278C40.867 31.6832 41.3752 32.2463 42.0757 32.6172L42.1169 32.6378L47.7617 35.3572C47.9128 35.4396 47.9952 35.5426 48.0089 35.6662V36.5727C48.0089 36.71 47.9608 36.8268 47.8647 36.9229C47.7823 37.0053 47.6724 37.0465 47.5351 37.0465H43.6826C43.559 37.0465 43.4491 36.9984 43.353 36.9023C43.2568 36.8062 43.2087 36.6963 43.2087 36.5727V35.934H40.3245V36.5727C40.3245 37.4929 40.6542 38.2826 41.3134 38.9419C41.9727 39.6011 42.7624 39.9307 43.6826 39.9307ZM62.8066 25.5096H59.9224V31.2781H55.1223V25.5096H52.238V39.9307H55.1223V34.1623H59.9224V39.9307H62.8066V25.5096ZM71.3621 39.9307H67.5096C66.5894 39.9307 65.7997 39.6011 65.1404 38.9419C64.4812 38.2826 64.1515 37.4929 64.1515 36.5727V28.8677C64.1515 27.9475 64.4812 27.1578 65.1404 26.4985C65.7997 25.8393 66.5894 25.5096 67.5096 25.5096H71.3621C72.296 25.5096 73.0858 25.8393 73.7313 26.4985C74.3905 27.1578 74.7201 27.9475 74.7201 28.8677V36.5727C74.7201 37.4929 74.3905 38.2826 73.7313 38.9419C73.0858 39.6011 72.296 39.9307 71.3621 39.9307ZM71.3621 28.3939H67.5096C67.386 28.3939 67.2761 28.4419 67.18 28.5381C67.0838 28.6342 67.0358 28.7441 67.0358 28.8677V36.5727C67.0358 36.6963 67.0838 36.8062 67.18 36.9023C67.2761 36.9984 67.386 37.0465 67.5096 37.0465H71.3621C71.4994 37.0465 71.6093 36.9984 71.6917 36.9023C71.7879 36.8062 71.8359 36.6963 71.8359 36.5727V28.8677C71.8359 28.7441 71.7879 28.6342 71.6917 28.5381C71.6093 28.4419 71.4994 28.3939 71.3621 28.3939ZM79.4231 39.9307H83.2756C84.2095 39.9307 84.9993 39.6011 85.6448 38.9419C86.304 38.2826 86.6337 37.4929 86.6337 36.5727V35.1306H83.7494V36.5727C83.7494 36.71 83.7014 36.8268 83.6052 36.9229C83.5228 37.0053 83.4129 37.0465 83.2756 37.0465H79.4231C79.2995 37.0465 79.1896 36.9984 79.0935 36.9023C78.9973 36.8062 78.9493 36.6963 78.9493 36.5727V28.8677C78.9493 28.7441 78.9973 28.6342 79.0935 28.5381C79.1896 28.4419 79.2995 28.3939 79.4231 28.3939H83.2756C83.4129 28.3939 83.5228 28.4419 83.6052 28.5381C83.7014 28.6342 83.7494 28.7441 83.7494 28.8677V30.3098H86.6337V28.8677C86.6337 27.9475 86.304 27.1578 85.6448 26.4985C84.9993 25.8393 84.2095 25.5096 83.2756 25.5096H79.4231C78.5029 25.5096 77.7132 25.8393 77.0539 26.4985C76.3947 27.1578 76.065 27.9475 76.065 28.8677V36.5727C76.065 37.4929 76.3947 38.2826 77.0539 38.9419C77.7132 39.6011 78.5029 39.9307 79.4231 39.9307ZM98.5472 25.5096V29.836C98.5472 30.2343 98.4098 30.5708 98.1351 30.8454L96.2604 32.7202L98.1351 34.5949C98.4098 34.8696 98.5472 35.2061 98.5472 35.6044V39.9307H95.6629V36.2018L93.6234 34.1623H90.8628V39.9307H87.9786V25.5096H90.8628V31.2781H93.6234L95.6629 29.2385V25.5096H98.5472ZM102.776 39.9307L106.134 35.5632L109.513 39.9307H112.397V25.5096H109.513V35.1924L107.576 32.6996V31.2781H104.692V32.6996L102.776 35.1924V25.5096H99.8921V39.9307H102.776ZM121.277 26.3131L124.161 32.0815C124.257 32.2601 124.306 32.473 124.306 32.7202V39.9307H121.421V36.0782H116.621V39.9307H113.737V32.7202C113.737 32.473 113.785 32.2601 113.881 32.0815L116.765 26.3131C117.026 25.7774 117.459 25.5096 118.063 25.5096H119.979C120.57 25.5096 121.002 25.7774 121.277 26.3131ZM116.621 33.0704V33.194H121.421V33.0704L119.093 28.3939H118.949L116.621 33.0704ZM129.454 39.9307H131.37C131.96 39.9307 132.393 39.6629 132.668 39.1273L135.552 33.3588C135.648 33.1803 135.696 32.9674 135.696 32.7202V25.5096H132.812V32.37L130.484 37.0465H130.34L128.012 32.37V25.5096H125.127V32.7202C125.127 32.9674 125.175 33.1803 125.272 33.3588L128.156 39.1273C128.417 39.6629 128.849 39.9307 129.454 39.9307ZM147.609 25.5096V28.3939H139.925V31.2781H145.694V34.1623H139.925V37.0465H147.609V39.9307H137.041V25.5096H147.609ZM151.789 39.9307H155.642C156.576 39.9307 157.366 39.6011 158.011 38.9419C158.67 38.2826 159 37.4929 159 36.5727V35.6044C159 35.2885 158.924 34.9246 158.773 34.5125C158.457 33.7571 157.949 33.194 157.249 32.8232L157.208 32.8026L151.563 30.0832C151.425 30.0008 151.343 29.8978 151.316 29.7742V28.8677C151.316 28.7441 151.364 28.6342 151.46 28.5381C151.556 28.4419 151.666 28.3939 151.789 28.3939H155.642C155.779 28.3939 155.889 28.4419 155.971 28.5381C156.068 28.6342 156.116 28.7441 156.116 28.8677V29.5063H159V28.8677C159 27.9475 158.67 27.1578 158.011 26.4985C157.366 25.8393 156.576 25.5096 155.642 25.5096H151.789C150.869 25.5096 150.079 25.8393 149.42 26.4985C148.761 27.1578 148.431 27.9475 148.431 28.8677V29.836C148.431 30.1519 148.507 30.5158 148.658 30.9278C148.974 31.6832 149.482 32.2463 150.182 32.6172L150.224 32.6378L155.868 35.3572C156.02 35.4396 156.102 35.5426 156.116 35.6662V36.5727C156.116 36.71 156.068 36.8268 155.971 36.9229C155.889 37.0053 155.779 37.0465 155.642 37.0465H151.789C151.666 37.0465 151.556 36.9984 151.46 36.9023C151.364 36.8062 151.316 36.6963 151.316 36.5727V35.934H148.431V36.5727C148.431 37.4929 148.761 38.2826 149.42 38.9419C150.079 39.6011 150.869 39.9307 151.789 39.9307Z" fill="#EFEFE5"/>
</svg>
