<svg width="170" height="66" viewBox="0 0 170 66" fill="none" xmlns="http://www.w3.org/2000/svg">
<g opacity="0.8">
<path fill-rule="evenodd" clip-rule="evenodd" d="M113.015 25.9694C111.557 25.8057 110.086 25.7892 108.624 25.9204C108.617 25.921 108.61 25.9215 108.602 25.9218C108.503 25.9259 108.404 25.93 108.306 25.9341C107.212 25.9797 106.189 26.0223 105.204 26.0223C105.143 26.0223 105.097 26.0241 105.063 26.0267C105.06 26.0607 105.059 26.1059 105.059 26.1656V26.1783L105.058 26.1783C104.991 28.6151 104.786 31.0392 104.582 33.4408C104.483 34.6135 104.384 35.7808 104.302 36.9416C104.276 37.3264 104.248 37.7081 104.219 38.0874C104.135 39.2125 104.052 40.3178 104.052 41.4288C104.052 41.4396 104.051 41.4504 104.051 41.4611C104.027 41.7967 104.117 42.1307 104.305 42.4096C104.494 42.6886 104.772 42.8967 105.093 43.0004C105.099 43.0022 105.105 43.0042 105.11 43.0062C105.329 43.0862 105.554 43.1463 105.784 43.1858C107.275 43.4298 108.793 43.4789 110.297 43.3318C110.309 43.3307 110.32 43.33 110.332 43.3298C111.843 43.2965 113.305 42.7911 114.512 41.885C115.718 40.9788 116.609 39.7178 117.057 38.2801L117.061 38.2682L117.061 38.2682C117.932 35.7261 118.151 33.0075 117.698 30.3596C117.697 30.3535 117.696 30.3474 117.696 30.3413C117.563 29.3198 117.132 28.3598 116.456 27.581C115.544 26.6517 114.327 26.08 113.027 25.9707L113.015 25.9696L113.015 25.9694ZM113.111 25.0575C111.597 24.8879 110.07 24.8707 108.553 25.0061C108.459 25.0101 108.365 25.014 108.272 25.0178C107.173 25.0636 106.169 25.1054 105.204 25.1054C105.069 25.1054 104.929 25.1115 104.8 25.1391C104.666 25.1678 104.515 25.2259 104.388 25.352C104.261 25.4782 104.203 25.6294 104.174 25.7632C104.146 25.8896 104.14 26.0267 104.14 26.1591C104.072 28.5686 103.871 30.9448 103.669 33.3288C103.569 34.5083 103.469 35.6897 103.385 36.8779L103.385 36.8798C103.36 37.2478 103.333 37.619 103.305 37.9923C103.22 39.1212 103.134 40.27 103.133 41.4133C103.099 41.9479 103.243 42.4788 103.544 42.923C103.846 43.3693 104.289 43.7024 104.802 43.87C105.071 43.9679 105.348 44.0414 105.63 44.0898L105.633 44.0904C107.199 44.3466 108.791 44.3989 110.37 44.2461C112.067 44.2051 113.708 43.6357 115.064 42.6176C116.423 41.5972 117.427 40.1776 117.933 38.5587C118.85 35.8764 119.081 33.0084 118.606 30.2146C118.448 29.0127 117.939 27.8839 117.141 26.9692C117.135 26.9627 117.129 26.9564 117.123 26.9503C116.058 25.859 114.633 25.1871 113.111 25.0575ZM109.155 28.9189C109.971 28.8173 110.797 28.8184 111.613 28.9222C111.619 28.923 111.625 28.9239 111.631 28.9249C112.139 29.0104 112.613 29.2366 112.998 29.5778C113.382 29.9179 113.663 30.3587 113.808 30.8501C114.046 31.6083 114.155 32.4008 114.131 33.1948C114.17 34.4498 114.03 35.7039 113.715 36.9198C113.479 38.0257 112.817 38.9955 111.872 39.6216C110.937 40.2414 109.798 40.4756 108.694 40.2763H108.484C108.414 40.2763 108.32 40.2737 108.227 40.2521C108.124 40.2283 107.998 40.176 107.894 40.0589C107.796 39.948 107.759 39.8233 107.742 39.7328C107.726 39.6439 107.723 39.5507 107.723 39.4686C107.723 39.4567 107.724 39.4449 107.724 39.433C107.975 36.2218 108.227 32.9683 108.377 29.7671C108.378 29.5911 108.405 29.3493 108.575 29.1591C108.752 28.9624 108.986 28.923 109.155 28.9189ZM109.294 29.8257C109.146 32.9897 108.899 36.2016 108.652 39.3594H108.736C108.765 39.3594 108.794 39.3621 108.823 39.3676C109.704 39.5361 110.617 39.353 111.364 38.8578C112.111 38.3626 112.633 37.595 112.818 36.7202C112.82 36.7134 112.821 36.7066 112.823 36.6999C113.119 35.5608 113.25 34.3855 113.212 33.2096C113.211 33.1997 113.211 33.1898 113.212 33.18C113.234 32.4826 113.139 31.7863 112.93 31.1204L112.927 31.1124L112.928 31.1124C112.831 30.7847 112.644 30.4905 112.388 30.2635C112.134 30.0385 111.822 29.8886 111.487 29.8306C110.759 29.7388 110.023 29.7371 109.294 29.8257Z" fill="#EFEFE5"/>
<path fill-rule="evenodd" clip-rule="evenodd" d="M50.4249 25.8672C48.5454 25.7962 46.6633 25.8497 44.7909 26.0274C44.7765 26.0288 44.7619 26.0295 44.7474 26.0295C44.6422 26.0295 44.5667 26.0309 44.511 26.0342C44.5077 26.0896 44.5061 26.1647 44.5061 26.2694V26.2844C44.4429 28.2106 44.279 30.1522 44.1165 32.08C44.0202 33.2216 43.9244 34.3584 43.8501 35.4842C43.8109 36.1967 43.7507 36.8892 43.6912 37.5733C43.5949 38.6814 43.5005 39.7673 43.5005 40.8796C43.5005 40.9003 43.4991 40.921 43.4963 40.9416C43.4617 41.1944 43.4787 41.4517 43.5463 41.6978C43.6139 41.944 43.7308 42.174 43.8898 42.3741C44.0489 42.5742 44.2469 42.7403 44.4721 42.8623C44.6972 42.9843 44.9448 43.0597 45.1999 43.084C45.2183 43.0858 45.2366 43.0886 45.2547 43.0926C47.6662 43.6205 50.1762 43.4858 52.5169 42.703L52.5328 42.698C53.2778 42.4785 53.9498 42.0636 54.4787 41.4968C55.0076 40.9299 55.3738 40.2319 55.5393 39.4758C55.688 38.8009 55.7197 38.1051 55.6328 37.4196C55.6315 37.4095 55.6306 37.3994 55.63 37.3893C55.5951 36.8036 55.3905 36.2406 55.0409 35.7684C54.6914 35.2962 54.2118 34.9351 53.6603 34.729C53.6453 34.7234 53.6306 34.717 53.6163 34.7098C53.6166 34.71 53.6166 34.7099 53.6163 34.7098C53.6152 34.7093 53.6098 34.7071 53.594 34.7015C53.5923 34.7009 53.5899 34.7001 53.587 34.6991C53.5692 34.6929 53.5308 34.6797 53.4968 34.6652C53.3964 34.6227 53.2502 34.5377 53.1584 34.3547C53.0986 34.2356 53.0937 34.0965 53.145 33.9735C53.1963 33.8505 53.2986 33.7558 53.4254 33.7141C53.8604 33.5709 54.2589 33.3353 54.5935 33.0235C54.9257 32.7139 55.1868 32.3365 55.3592 31.9172C55.5811 31.2958 55.6896 30.6398 55.6794 29.9802C55.6793 29.9689 55.6795 29.9575 55.6802 29.9462C55.7236 29.2107 55.5264 28.481 55.118 27.8668C54.7097 27.2525 54.1123 26.7867 53.4154 26.5396C53.4089 26.5373 53.4024 26.5348 53.3959 26.5322C52.4496 26.1475 51.4454 25.9228 50.4249 25.8672ZM44.7255 25.1126C46.6325 24.9325 48.5494 24.8786 50.4635 24.9511L50.4709 24.9514C51.5913 25.0119 52.6938 25.2579 53.7332 25.6792C54.613 25.9936 55.3675 26.5831 55.8839 27.3599C56.3991 28.135 56.6497 29.0549 56.5986 29.983C56.6083 30.7503 56.4805 31.5132 56.2211 32.2357C56.2189 32.2418 56.2166 32.2479 56.2141 32.2538C55.9916 32.7998 55.6526 33.2911 55.2208 33.6935C55.0305 33.871 54.8241 34.0293 54.6047 34.1666C55.0618 34.4354 55.4622 34.7942 55.7801 35.2236C56.2323 35.8344 56.4983 36.562 56.5464 37.3194C56.6441 38.104 56.6072 38.8994 56.4371 39.6717C56.2364 40.5884 55.7924 41.4345 55.1513 42.1215C54.5122 42.8066 53.7007 43.3084 52.8012 43.575C50.3135 44.4054 47.647 44.5501 45.0839 43.9939C44.7158 43.9551 44.3588 43.8444 44.0334 43.668C43.6996 43.4871 43.4058 43.2408 43.1698 42.9439C42.9338 42.647 42.7604 42.3056 42.66 41.9402C42.5625 41.5852 42.5358 41.2147 42.5815 40.8496C42.5832 39.7182 42.6831 38.5604 42.7809 37.426C42.8393 36.7493 42.8969 36.081 42.9326 35.4315L42.9328 35.4265C43.0096 34.2629 43.107 33.1105 43.2039 31.963C43.3647 30.0587 43.5243 28.1679 43.5871 26.2619C43.5872 26.1043 43.5898 25.9484 43.6105 25.8148C43.6319 25.677 43.6814 25.4965 43.8293 25.35C43.977 25.2038 44.1579 25.1556 44.295 25.135C44.424 25.1156 44.574 25.1128 44.7255 25.1126ZM50.9758 28.7081C51.4321 28.8487 51.8282 29.1389 52.0992 29.5324C52.3744 29.932 52.5036 30.4133 52.4657 30.896C52.4818 31.3756 52.3356 31.8469 52.0502 32.234C51.7585 32.6296 51.3392 32.913 50.8627 33.0368C50.0418 33.253 49.1794 33.2568 48.357 33.0483C48.1887 33.032 48.016 32.9567 47.8969 32.7902C47.7828 32.6307 47.7674 32.4522 47.7674 32.3419C47.7674 32.3346 47.7675 32.3273 47.7679 32.3201C47.818 31.2683 47.8681 30.2675 47.9193 29.266C47.9216 29.0989 47.9668 28.8861 48.1483 28.7305C48.2993 28.601 48.4741 28.5748 48.5875 28.5704C48.9403 28.5133 49.2965 28.4798 49.6538 28.4702C50.1087 28.4109 50.5707 28.4941 50.9758 28.7081ZM50.5739 29.5337C50.3255 29.3946 50.0379 29.3412 49.7559 29.3817C49.7355 29.3846 49.7149 29.3862 49.6944 29.3864C49.693 29.3864 49.6917 29.3864 49.6904 29.3864H49.688V28.9279L49.6991 29.3863C49.6975 29.3863 49.6959 29.3863 49.6944 29.3864C49.4048 29.3935 49.116 29.4184 48.8296 29.4608C48.8322 29.4081 48.8349 29.3555 48.8376 29.3028C48.838 29.295 48.8382 29.2872 48.8382 29.2794C48.8373 29.2846 48.8349 29.2925 48.8318 29.3025C48.8224 29.3324 48.8001 29.3806 48.7473 29.4259C48.7316 29.4394 48.716 29.4499 48.7016 29.4581C48.6767 29.4723 48.655 29.4796 48.6413 29.4831C48.6367 29.4842 48.6329 29.485 48.6298 29.4856C48.6551 29.4856 48.6804 29.4844 48.7053 29.4803C48.7467 29.4734 48.7881 29.4669 48.8296 29.4608C48.7839 30.3557 48.7391 31.2518 48.6943 32.1861C48.6448 32.175 48.5955 32.163 48.5463 32.15C48.508 32.1399 48.4686 32.1348 48.4289 32.1348C48.4415 32.1348 48.4776 32.1369 48.5237 32.1579C48.5299 32.1607 48.5359 32.1637 48.5419 32.1669C48.5834 32.1892 48.6189 32.2211 48.645 32.2575C48.6708 32.2936 48.6811 32.3248 48.6849 32.3419H48.2269L48.6859 32.3636C48.6861 32.359 48.6863 32.3545 48.6865 32.3499C48.6891 32.2953 48.6917 32.2405 48.6943 32.1861C49.332 32.329 49.9956 32.317 50.6289 32.15L50.6307 32.1495C50.9034 32.0788 51.1433 31.9167 51.31 31.6906C51.4767 31.4646 51.5601 31.1882 51.5464 30.9081C51.5453 30.8864 51.5458 30.8645 51.5479 30.8428C51.5742 30.5633 51.5013 30.2833 51.3418 30.0517C51.1823 29.8201 50.9462 29.6515 50.6746 29.5753C50.6395 29.5655 50.6057 29.5515 50.5739 29.5337ZM48.1367 35.6582C48.9129 35.4948 49.7148 35.495 50.4909 35.6588L50.4974 35.6601C50.9014 35.7515 51.2713 35.9549 51.5643 36.2469C51.8546 36.5363 52.0578 36.9009 52.1507 37.2995C52.3337 37.963 52.3126 38.6662 52.0899 39.3177C52.0878 39.3235 52.0857 39.3294 52.0835 39.3351C51.8701 39.8853 51.4762 40.3473 50.966 40.6458C50.4647 40.9392 49.8801 41.0579 49.3042 40.9838L49.1434 40.982C48.6397 41.0015 48.1385 40.9004 47.6817 40.6872C47.6532 40.6739 47.6261 40.6577 47.6008 40.6388C47.4218 40.5048 47.3067 40.3342 47.2501 40.1428C47.1968 39.9628 47.2027 39.7894 47.2188 39.6534C47.2317 39.5448 47.2555 39.4313 47.2739 39.3432C47.2778 39.3246 47.2815 39.3072 47.2848 39.2911C47.3066 39.1839 47.3165 39.1172 47.3165 39.0673C47.3165 38.4734 47.3647 37.842 47.4106 37.2407C47.4316 36.9661 47.4521 36.6977 47.4673 36.4421C47.4682 36.3203 47.483 36.1199 47.6216 35.9433C47.7668 35.7584 47.9742 35.6908 48.1367 35.6582ZM48.3818 36.5441C48.365 36.8177 48.3443 37.0887 48.3237 37.3571C48.2792 37.9384 48.2355 38.5078 48.2355 39.0673C48.2355 39.2182 48.2076 39.3648 48.1853 39.4739C48.1799 39.5004 48.1748 39.5249 48.1701 39.5479C48.1524 39.6328 48.1391 39.6965 48.1315 39.761C48.1223 39.8382 48.1281 39.8718 48.1315 39.8833C48.1315 39.8833 48.1315 39.8829 48.1315 39.8833C48.4417 40.0171 48.7787 40.0798 49.1171 40.0653C49.1254 40.065 49.1337 40.0649 49.1421 40.065L49.343 40.0673C49.3626 40.0675 49.3823 40.069 49.4017 40.0717C49.7823 40.1252 50.1698 40.0488 50.5011 39.8549C50.8298 39.6626 51.0839 39.3659 51.2231 39.0127C51.3843 38.5353 51.3981 38.0206 51.2625 37.5351C51.2605 37.528 51.2587 37.5209 51.2571 37.5137C51.2038 37.2797 51.0852 37.0655 50.9148 36.8957C50.7452 36.7267 50.5312 36.6086 50.2974 36.5551C49.666 36.4224 49.0143 36.4187 48.3818 36.5441Z" fill="#EFEFE5"/>
<path fill-rule="evenodd" clip-rule="evenodd" d="M142.278 30.0317C141.186 29.7657 140.036 29.8753 139.015 30.3427C137.994 30.8098 137.161 31.6067 136.652 32.6042C135.665 34.595 135.377 36.8585 135.834 39.032C135.838 39.0498 135.84 39.0678 135.842 39.0859C135.924 40.0159 136.359 40.8799 137.058 41.5018C137.757 42.1238 138.668 42.4569 139.605 42.4333C139.626 42.4328 139.647 42.4337 139.667 42.4359C140.326 42.5081 140.992 42.3965 141.592 42.1137C142.18 41.8358 142.681 41.4033 143.041 40.8632C143.043 40.8581 143.046 40.8523 143.05 40.8405L143.051 40.8386C143.061 40.8138 143.085 40.7534 143.125 40.6926C143.173 40.6215 143.245 40.5446 143.352 40.4907C143.455 40.4389 143.558 40.4242 143.647 40.4242C143.889 40.4242 144.09 40.6127 144.105 40.8546C144.16 41.7503 144.053 42.6486 143.79 43.5066C143.667 44.0988 143.362 44.6384 142.917 45.0501C142.473 45.4613 141.912 45.7243 141.311 45.8029C140.687 45.9479 140.034 45.9045 139.434 45.6778C138.827 45.4479 138.303 45.0404 137.932 44.5085C137.92 44.491 137.909 44.4727 137.899 44.4537C137.843 44.344 137.751 44.257 137.637 44.2079C137.524 44.1588 137.397 44.1508 137.278 44.1851C137.245 44.1946 137.212 44.2005 137.178 44.2025C136.869 44.2208 136.572 44.3263 136.322 44.5065C136.076 44.6834 135.885 44.9251 135.769 45.2043C135.683 45.4867 135.684 45.7885 135.771 46.0708C135.861 46.3583 136.036 46.6119 136.274 46.7973C136.292 46.8111 136.309 46.8262 136.324 46.8424C136.647 47.18 137.049 47.4321 137.494 47.5757L137.507 47.5799L137.507 47.5801C139.756 48.3803 142.225 48.3124 144.427 47.3896C145.034 47.1308 145.575 46.7392 146.009 46.2437C146.443 45.7479 146.759 45.1609 146.934 44.5264L146.937 44.5168L146.937 44.5169C147.113 43.9301 147.242 43.3307 147.325 42.724L147.326 42.7142L147.326 42.7142C147.728 40.1759 147.927 37.6329 148.077 35.0767C148.078 35.0681 148.078 35.0596 148.079 35.0512C148.211 33.911 148.244 32.7616 148.177 31.6158C148.177 31.5999 148.176 31.584 148.177 31.5681C148.186 31.3845 148.157 31.2011 148.093 31.0289C148.028 30.8566 147.93 30.6991 147.803 30.5657C147.676 30.4323 147.523 30.3258 147.354 30.2527C147.184 30.1796 147.002 30.1413 146.817 30.1402C146.804 30.1401 146.791 30.1395 146.779 30.1383C146.526 30.1155 146.27 30.1152 145.989 30.1152L145.98 30.1152C145.709 30.1152 145.415 30.1152 145.117 30.0883L145.1 30.0865C145.087 30.0848 145.076 30.0838 145.066 30.0832C145.065 30.0925 145.064 30.103 145.064 30.115C145.099 30.5022 145.079 30.8924 145.005 31.2743C144.983 31.3893 144.919 31.4873 144.831 31.5538C144.762 31.6545 144.654 31.7243 144.531 31.7455C144.384 31.7711 144.233 31.7236 144.128 31.6182C144.126 31.6169 144.125 31.6154 144.123 31.6138C144.102 31.5923 144.055 31.5463 144.016 31.4941C143.989 31.4577 143.938 31.3849 143.911 31.2834C143.765 30.9713 143.548 30.697 143.277 30.4823C142.993 30.2572 142.658 30.1043 142.302 30.0367C142.294 30.0352 142.286 30.0336 142.278 30.0317ZM144.148 30.0346C144.054 29.9385 143.954 29.8482 143.849 29.7644C143.451 29.4493 142.983 29.2346 142.485 29.1382C141.195 28.8267 139.838 28.9573 138.632 29.5092C137.422 30.0628 136.435 31.0077 135.832 32.1905L135.832 32.1905L135.83 32.195C134.754 34.3627 134.437 36.8265 134.929 39.1941C135.038 40.3463 135.58 41.4152 136.447 42.1862C137.313 42.9565 138.438 43.3721 139.598 43.3506C140.416 43.4346 141.241 43.2935 141.985 42.9425C142.413 42.7402 142.805 42.4727 143.146 42.1514C143.098 42.5256 143.018 42.8957 142.905 43.2576C142.9 43.2729 142.896 43.2885 142.893 43.3043C142.812 43.7162 142.601 44.092 142.292 44.3778C141.984 44.6637 141.592 44.8451 141.173 44.896C141.156 44.8982 141.138 44.9013 141.121 44.9055C140.669 45.0145 140.195 44.9848 139.76 44.8204C139.334 44.6593 138.966 44.3761 138.702 44.007C138.548 43.7217 138.302 43.4961 138.003 43.3668C137.71 43.2398 137.383 43.2133 137.074 43.2906C136.609 43.3272 136.163 43.4903 135.784 43.7627C135.392 44.0446 135.089 44.4319 134.91 44.8794C134.905 44.8898 134.902 44.9003 134.898 44.9109C134.75 45.3764 134.748 45.8758 134.893 46.3422C135.035 46.7977 135.31 47.2004 135.682 47.4989C136.104 47.9333 136.627 48.2585 137.204 48.446C139.669 49.3209 142.373 49.2455 144.785 48.2344L144.787 48.2334C145.521 47.9205 146.175 47.4467 146.701 46.847C147.225 46.2486 147.607 45.5403 147.819 44.7746C148.007 44.1455 148.146 43.5028 148.235 42.8524C148.642 40.2751 148.843 37.7026 148.994 35.1431C149.129 33.9624 149.163 32.7723 149.096 31.5858C149.107 31.2871 149.059 30.9891 148.954 30.7088C148.846 30.4206 148.681 30.1572 148.469 29.9342C148.257 29.7112 148.002 29.5333 147.719 29.4112C147.442 29.2917 147.144 29.2279 146.843 29.2235C146.552 29.1982 146.264 29.1983 145.999 29.1983L145.989 29.1983C145.712 29.1983 145.458 29.198 145.207 29.1758C144.932 29.1426 144.63 29.1833 144.404 29.4088C144.221 29.5929 144.161 29.83 144.148 30.0346ZM142.608 32.2857C143.036 32.2876 143.453 32.4246 143.799 32.6774C144.149 32.9333 144.408 33.2944 144.537 33.7077C144.725 34.2674 144.818 34.8545 144.812 35.4448C144.866 36.414 144.678 37.3816 144.265 38.2606L144.261 38.2685L144.261 38.2685C143.964 38.8693 143.466 39.3474 142.852 39.6202C142.242 39.8915 141.556 39.9425 140.912 39.7647C140.541 39.6767 140.205 39.4799 139.947 39.1994C139.69 38.9199 139.522 38.5704 139.466 38.1955C139.16 36.7122 139.351 35.17 140.007 33.8042C140.233 33.313 140.606 32.9036 141.075 32.6321C141.538 32.3633 142.073 32.2426 142.608 32.2857ZM142.548 33.2008C142.195 33.1695 141.842 33.2478 141.536 33.425C141.231 33.6021 140.988 33.8693 140.841 34.1896L140.837 34.1974L140.837 34.1974C140.265 35.3869 140.1 36.7309 140.368 38.0228C140.37 38.0322 140.372 38.0417 140.373 38.0512C140.401 38.2483 140.489 38.4324 140.624 38.5793C140.759 38.7261 140.936 38.8289 141.13 38.8739C141.137 38.8755 141.144 38.8773 141.151 38.8792C141.591 39.0024 142.061 38.9683 142.478 38.7826C142.894 38.5976 143.233 38.2737 143.435 37.8669C143.784 37.1223 143.942 36.3026 143.893 35.482C143.893 35.4708 143.892 35.4597 143.893 35.4485C143.9 34.9547 143.822 34.4633 143.664 33.9952L143.66 33.9839L143.661 33.9839C143.59 33.7566 143.449 33.5578 143.256 33.4171C143.063 33.2763 142.83 33.2011 142.591 33.2026C142.577 33.2027 142.562 33.2021 142.548 33.2008Z" fill="#EFEFE5"/>
<path fill-rule="evenodd" clip-rule="evenodd" d="M97.7363 29.1768C97.454 29.1781 97.1223 29.2114 96.8743 29.4424C96.6242 29.6752 96.5669 30.0101 96.5412 30.2912L96.4906 30.5879C96.4906 30.5879 96.0782 35.8497 95.785 37.2351C95.4919 38.6204 92.7091 40.1208 92.7091 37.5596C92.7091 34.9984 93.1203 31.8741 93.1203 31.8741C93.1663 31.549 93.1414 31.2176 93.0473 30.9027C92.9495 30.5757 92.7796 30.2747 92.5499 30.0219C92.3202 29.769 92.0367 29.5706 91.7201 29.4412C91.415 29.3165 91.0866 29.259 90.7574 29.2723C90.334 29.2324 89.9086 29.216 89.4833 29.2233C89.0993 29.2236 88.693 29.2666 88.4014 29.5445C88.1117 29.8208 88.0463 30.2245 88.0209 30.6046C87.9722 31.353 87.91 32.1027 87.8472 32.8563L87.8428 32.9081C87.7819 33.6392 87.7206 34.3746 87.6714 35.1105C87.5103 36.4295 87.476 37.7607 87.5691 39.0861C87.573 39.8046 87.7604 40.5103 88.1137 41.1366C88.4697 41.7677 88.9821 42.2971 89.602 42.6743C89.6094 42.6788 89.6169 42.6831 89.6245 42.6872C90.3906 43.0961 91.2426 43.319 92.1114 43.338C92.9802 43.357 93.8412 43.1714 94.6245 42.7964C94.6297 42.7939 94.6349 42.7913 94.64 42.7886C95.0013 42.5984 95.3369 42.3664 95.6401 42.0983C95.5998 42.4256 95.5361 42.7502 95.4492 43.0695C95.4443 43.0877 95.4405 43.1061 95.4378 43.1247C95.3963 43.4141 95.2952 43.6919 95.1411 43.9407C94.9869 44.1896 94.7828 44.4041 94.5416 44.5708C94.3004 44.7376 94.0273 44.853 93.7392 44.9098C93.4512 44.9666 93.1545 44.9636 92.8677 44.901C92.828 44.8923 92.7873 44.8889 92.7467 44.8909C92.4314 44.9066 92.1174 44.8408 91.8351 44.7001C91.5543 44.5601 91.3143 44.3506 91.1382 44.0918C91.0282 43.9212 90.9261 43.7668 90.8244 43.6458C90.7176 43.5186 90.5861 43.3967 90.4051 43.3233C90.2258 43.2506 90.0479 43.246 89.888 43.2592C89.7393 43.2714 89.5661 43.3033 89.3797 43.3382C89.1301 43.363 88.8846 43.4193 88.6492 43.5059C88.2676 43.6115 87.9216 43.8181 87.6478 44.104C87.3687 44.3956 87.1756 44.7583 87.0899 45.1522C87.0042 45.5461 87.0293 45.956 87.1623 46.3367C87.2939 46.7136 87.5264 47.0474 87.8344 47.3022C88.4043 47.8155 89.0753 48.2047 89.8047 48.445C91.5378 49.0153 93.3803 49.177 95.1866 48.9174C96.6899 48.8062 98.0976 48.1395 99.1336 47.0474C100.17 45.9547 100.759 44.5153 100.786 43.012C100.836 42.3564 100.893 41.7011 100.95 41.0447C101.061 39.7707 101.172 38.4926 101.238 37.2009C101.269 36.8115 101.303 36.4224 101.337 36.033C101.463 34.5894 101.589 33.1421 101.589 31.6616C101.618 31.1205 101.449 30.5873 101.114 30.1603C101.043 30.0731 100.97 29.9929 100.895 29.9193C100.584 29.6231 100.192 29.4203 99.7653 29.3382C99.5859 29.2954 99.4049 29.2603 99.2229 29.2327C98.8172 29.1865 98.3316 29.1711 97.7363 29.1768ZM99.5614 30.2323C98.982 30.0933 98.3843 30.0461 97.7902 30.0923L97.789 30.0924C97.7775 30.0933 97.766 30.0937 97.7545 30.0937C97.6319 30.0937 97.5597 30.1023 97.5177 30.1124C97.512 30.1138 97.5073 30.1151 97.5035 30.1163C97.5016 30.1208 97.4994 30.1268 97.4969 30.1343C97.4906 30.1536 97.4842 30.1786 97.478 30.2111C97.4701 30.2525 97.4627 30.3059 97.4564 30.3751L97.4562 30.377C97.4065 30.8985 97.3692 31.4083 97.3315 31.9238L97.3313 31.926C97.2941 32.4344 97.2565 32.9483 97.2066 33.4751C97.1712 34.747 96.9793 36.0098 96.6353 37.2351L96.6332 37.2425C96.3776 38.0978 95.8693 38.8564 95.175 39.4196C94.8767 39.6756 94.5113 39.8416 94.1218 39.8982C93.7297 39.9552 93.3294 39.8989 92.9683 39.736C92.6073 39.5731 92.3006 39.3104 92.0847 38.9789C91.8702 38.6496 91.7543 38.2662 91.7505 37.8737C91.7154 36.9232 91.7832 35.9718 91.953 35.0359C91.9765 34.7923 92.0022 34.5489 92.0279 34.3057C92.1147 33.4844 92.2013 32.6645 92.2013 31.8398C92.2013 31.8158 92.2032 31.7919 92.207 31.7683C92.2389 31.5666 92.2251 31.3604 92.1666 31.1648C92.1081 30.9691 92.0064 30.789 91.8689 30.6375C91.7313 30.4861 91.5615 30.3672 91.3718 30.2897C91.1821 30.2122 90.9773 30.178 90.7726 30.1896C90.749 30.1909 90.7254 30.1904 90.7019 30.1881C90.301 30.1492 89.8982 30.1331 89.4954 30.1402L89.4874 30.1403C89.1169 30.1403 89.0462 30.1981 89.0363 30.2075C89.0235 30.2197 88.9628 30.2925 88.9379 30.6652C88.8885 31.4229 88.8257 32.1799 88.763 32.9323L88.7589 32.981C88.6975 33.7185 88.6363 34.4515 88.5875 35.1841C88.5869 35.1925 88.5861 35.2009 88.5851 35.2094C88.4292 36.4791 88.3963 37.7608 88.4869 39.0368C88.4877 39.0474 88.488 39.0579 88.4881 39.0685C88.489 39.6354 88.6358 40.1927 88.9146 40.6869C89.1913 41.1775 89.5888 41.5897 90.0696 41.8848C90.7053 42.2218 91.4115 42.4056 92.1315 42.4213C92.853 42.4371 93.568 42.2836 94.219 41.9735C94.8411 41.6444 95.3694 41.1636 95.7545 40.5759C95.8631 40.4103 96.0659 40.3328 96.2575 40.3838C96.4492 40.4348 96.5864 40.6028 96.5979 40.8003C96.6463 41.6363 96.5603 42.4745 96.3433 43.2833C96.2813 43.6874 96.1383 44.075 95.9227 44.4229C95.7021 44.7791 95.4101 45.086 95.065 45.3245C94.72 45.563 94.3293 45.7281 93.9175 45.8093C93.5255 45.8866 93.1224 45.8865 92.7308 45.8091C92.2785 45.8214 91.8296 45.7224 91.4243 45.5203C91.0006 45.3091 90.6388 44.9924 90.3738 44.6009L90.3681 44.5924C90.2526 44.4132 90.1795 44.3056 90.12 44.2347C90.085 44.193 90.0656 44.1776 90.0588 44.1729C90.0508 44.1713 90.0243 44.168 89.9634 44.173C89.8669 44.1809 89.7384 44.2039 89.529 44.2432C89.5149 44.2458 89.5006 44.2478 89.4862 44.2491C89.3035 44.2659 89.1239 44.3071 88.9522 44.3717C88.9378 44.3771 88.9231 44.3818 88.9083 44.3858C88.6809 44.4462 88.4747 44.5679 88.3124 44.7374C88.15 44.9069 88.0378 45.1178 87.988 45.3467C87.9383 45.5756 87.9528 45.8137 88.0301 46.0349C88.1073 46.2561 88.2444 46.4519 88.4262 46.6006C88.4321 46.6054 88.4378 46.6103 88.4434 46.6154C88.9199 47.0463 89.4817 47.373 90.0927 47.5743C91.6958 48.1018 93.4002 48.2501 95.0708 48.0076C95.0819 48.006 95.0931 48.0048 95.1043 48.004C96.3848 47.9129 97.5844 47.3466 98.4661 46.4171C99.3479 45.4876 99.8477 44.2625 99.8669 42.9837C99.8671 42.9743 99.8675 42.9648 99.8682 42.9554C99.9206 42.2762 99.9787 41.6073 100.036 40.9423C100.146 39.6771 100.255 38.4264 100.321 37.1473L100.321 37.1341C100.352 36.7552 100.384 36.3807 100.417 36.0091L100.423 35.9322C100.549 34.4903 100.67 33.0902 100.67 31.6489C100.67 31.64 100.671 31.6311 100.671 31.6222C100.69 31.2993 100.59 30.9805 100.39 30.7255C100.19 30.4706 99.9036 30.2969 99.5842 30.2372C99.5765 30.2357 99.5689 30.2341 99.5614 30.2323Z" fill="#EFEFE5"/>
<path fill-rule="evenodd" clip-rule="evenodd" d="M75.7852 25.2624C75.209 25.198 74.6283 25.182 74.0494 25.2145C74.0408 25.215 74.0322 25.2152 74.0236 25.2152C73.9669 25.2152 73.9194 25.2158 73.8789 25.2171C73.8783 25.2438 73.8781 25.274 73.8781 25.3085V25.3228L73.8779 25.3228C73.815 27.3346 73.6524 29.3427 73.4905 31.3423C73.3936 32.5402 73.2968 33.7352 73.2219 34.926L73.2212 34.9374L73.2211 34.9374C73.089 36.436 73.0559 37.9417 73.1219 39.4446C73.1665 40.3541 73.5225 41.2209 74.1307 41.9007C74.7392 42.5808 75.5633 43.0325 76.4656 43.1805C76.474 43.1818 76.4823 43.1834 76.4906 43.1853C77.4646 43.4007 78.4684 43.4493 79.4589 43.3291C79.4701 43.3277 79.4814 43.3268 79.4927 43.3262C80.5642 43.2757 81.6 42.9266 82.4822 42.3185C83.3644 41.7104 84.0576 40.8679 84.4829 39.8868L84.4849 39.8822L84.4849 39.8822C85.4785 37.6573 85.6664 35.1577 85.0165 32.8101C85.0136 32.7994 85.011 32.7886 85.0088 32.7777C84.8535 32.0004 84.4453 31.2958 83.8473 30.7731C83.2493 30.2503 82.4949 29.9386 81.701 29.8864C81.6802 29.885 81.6596 29.8823 81.6392 29.8781C80.9326 29.734 80.1986 29.8101 79.537 30.0961C78.8754 30.3821 78.3183 30.8641 77.9413 31.4765C77.9219 31.508 77.8988 31.5371 77.8724 31.563C77.8207 31.614 77.7749 31.6706 77.7361 31.7319C77.6268 31.9044 77.4163 31.984 77.2199 31.9272C77.0234 31.8704 76.8882 31.6909 76.8882 31.4868V31.0317C76.8882 31.0207 76.8886 31.0097 76.8894 30.9988C76.9161 30.6291 76.9458 30.2666 76.9752 29.9083C77.0593 28.882 77.1405 27.8907 77.1405 26.8647C77.1405 26.8519 77.141 26.8392 77.1421 26.8264C77.1581 26.6361 77.1361 26.4445 77.0773 26.2627C77.0185 26.0809 76.9241 25.9125 76.7996 25.7672C76.6751 25.6219 76.5229 25.5026 76.3517 25.4162C76.1806 25.3298 75.9939 25.2781 75.8026 25.264C75.7968 25.2636 75.791 25.2631 75.7852 25.2624ZM73.7465 25.2291C73.7465 25.2291 73.7472 25.2289 73.7487 25.2285ZM75.8792 24.3503C75.2589 24.2814 74.6339 24.264 74.0107 24.2983C73.8771 24.2985 73.7432 24.3014 73.626 24.3192C73.505 24.3375 73.3406 24.3797 73.2018 24.5072C73.0576 24.6397 73.0051 24.8044 72.9827 24.9306C72.9618 25.048 72.9592 25.1795 72.9591 25.3012C72.8965 27.2941 72.7377 29.253 72.5775 31.2294C72.4801 32.4302 72.3822 33.6375 72.3051 34.8628C72.1699 36.4 72.1361 37.9444 72.2038 39.4859L72.2039 39.4881C72.2586 40.6078 72.6967 41.6748 73.4452 42.5113C74.1908 43.3447 75.1994 43.8991 76.304 44.0832C77.3704 44.3176 78.4688 44.371 79.5531 44.2413C80.7902 44.1798 81.9856 43.7752 83.0046 43.0729C84.0275 42.3678 84.8316 41.3909 85.3254 40.2531C86.4025 37.8396 86.6079 35.1289 85.9067 32.5818C85.7094 31.613 85.1987 30.7354 84.4529 30.0834C83.7107 29.4346 82.7766 29.0451 81.7926 28.9736C80.9108 28.8002 79.9967 28.8981 79.1717 29.2547C78.692 29.4621 78.2558 29.7512 77.8812 30.1063C77.8838 30.0752 77.8863 30.0441 77.8889 30.013C77.9734 28.982 78.0585 27.9433 78.0595 26.883C78.0825 26.5783 78.0459 26.2721 77.9519 25.9812C77.8558 25.684 77.7016 25.4087 77.4981 25.1713C77.2946 24.9338 77.046 24.739 76.7665 24.598C76.4898 24.4583 76.1883 24.3742 75.8792 24.3503ZM79.4412 32.3336C79.9397 32.276 80.4422 32.4084 80.8475 32.7052C81.2571 33.0052 81.5358 33.45 81.6266 33.9482C82.1257 35.8148 81.9152 37.7995 81.0354 39.521C80.8414 39.9311 80.5374 40.2799 80.1572 40.5288C79.7811 40.775 79.3449 40.9141 78.8957 40.9313C78.4101 40.9898 77.9191 40.8751 77.5098 40.6069C77.0958 40.3357 76.7931 39.9256 76.6564 39.4509C76.4128 38.6773 76.3038 37.8677 76.3343 37.0575C76.3063 36.0094 76.5255 34.9695 76.9743 34.0215C77.1588 33.5171 77.4973 33.0829 77.9423 32.7801C78.3837 32.4798 78.9076 32.324 79.4412 32.3336ZM80.3037 33.4444C80.08 33.2806 79.8012 33.2098 79.526 33.2471C79.5005 33.2506 79.4747 33.2519 79.449 33.251C79.0971 33.2395 78.7507 33.3399 78.4601 33.5377C78.1694 33.7354 77.9495 34.0202 77.8323 34.3507C77.8269 34.3658 77.8208 34.3805 77.8139 34.395C77.4188 35.2221 77.2267 36.131 77.2534 37.0466C77.2537 37.0571 77.2537 37.0676 77.2532 37.0782C77.2248 37.7901 77.3201 38.5017 77.5348 39.1814L77.5389 39.1941L77.5387 39.1941C77.6141 39.4594 77.7828 39.6889 78.0142 39.8405C78.2456 39.9921 78.5242 40.0556 78.7988 40.0193C78.8144 40.0173 78.8301 40.016 78.8458 40.0156C79.1333 40.0073 79.4127 39.9195 79.653 39.7622C79.8933 39.6049 80.0849 39.3842 80.2066 39.1248L80.2136 39.1105C80.9957 37.5838 81.1811 35.8221 80.7339 34.1669C80.7301 34.1529 80.727 34.1387 80.7246 34.1244C80.6782 33.852 80.5273 33.6081 80.3037 33.4444Z" fill="#EFEFE5"/>
<path fill-rule="evenodd" clip-rule="evenodd" d="M66.8541 30.2741C65.7445 29.9804 64.589 29.8996 63.4491 30.036C63.4386 30.0372 63.428 30.0381 63.4175 30.0386C62.447 30.0873 61.501 30.3584 60.653 30.8309C60.2665 31.0619 59.9337 31.3722 59.6767 31.7412C59.4186 32.1119 59.2429 32.5333 59.1616 32.9771C59.158 32.9964 59.1532 33.0155 59.1472 33.0342C59.0836 33.2327 59.067 33.4431 59.0985 33.6491C59.13 33.855 59.209 34.051 59.3291 34.2216C59.4493 34.3922 59.6075 34.5328 59.7913 34.6324C59.9729 34.7309 60.1748 34.7866 60.3813 34.7955C60.5272 34.7961 60.6691 34.8102 60.787 34.8219L60.7954 34.8227C60.9254 34.8357 61.0284 34.8455 61.1273 34.8455C61.1375 34.8455 61.1476 34.8459 61.1578 34.8465C61.3499 34.8593 61.4622 34.8626 61.5375 34.8564C61.5457 34.8557 61.5528 34.855 61.5587 34.8543C61.5629 34.8457 61.568 34.8345 61.5738 34.8202C61.6059 34.7418 61.6398 34.6257 61.6913 34.433C61.6993 34.4029 61.7103 34.3737 61.7243 34.3459C61.7249 34.3444 61.7285 34.3338 61.7396 34.2894C61.7402 34.287 61.7409 34.2844 61.7415 34.2817C61.7505 34.2454 61.766 34.1827 61.7943 34.1123C61.854 33.8226 61.9728 33.548 62.1433 33.3056C62.325 33.0474 62.5611 32.8319 62.8351 32.6743C63.109 32.5166 63.4142 32.4205 63.7292 32.3928C64.0286 32.3664 64.3301 32.4023 64.6145 32.4979C64.9369 32.5525 65.2348 32.7055 65.4669 32.9364C65.7094 33.1778 65.8667 33.4913 65.915 33.8297C65.9862 34.274 66.0047 34.7251 65.9702 35.1737C65.9668 35.3898 65.9073 35.64 65.6921 35.8192C65.4904 35.9872 65.2412 36.0138 65.058 36.0139C63.5297 36.015 62.0145 36.294 60.5867 36.837C60.5743 36.8417 60.5618 36.8459 60.549 36.8495C59.7755 37.0696 59.0906 37.5252 58.5901 38.1525C58.0895 38.7798 57.7985 39.5473 57.7575 40.3476C57.7569 40.3597 57.7558 40.3718 57.7542 40.3838C57.6815 40.9364 57.7923 41.4975 58.0695 41.9816C58.3467 42.4655 58.7752 42.8459 59.2896 43.0646C60.0943 43.4052 60.9812 43.5048 61.8417 43.3512C62.7023 43.1975 63.4993 42.7974 64.1352 42.1997L64.1465 42.1894C64.4015 41.9652 64.6346 41.7174 64.8427 41.4495C64.9505 41.3107 65.1282 41.2455 65.3003 41.2816C65.4725 41.3176 65.6089 41.4486 65.6517 41.6188C65.6975 41.8013 65.7575 41.9799 65.8311 42.1531C65.8377 42.1687 65.8435 42.1847 65.8484 42.201C65.9396 42.5061 66.1102 42.7817 66.343 42.9998C66.5758 43.2179 66.8624 43.3708 67.1738 43.4428L67.1859 43.4456L67.1858 43.4457C67.688 43.5761 68.2153 43.5762 68.7175 43.4459C69.2414 43.3081 69.7045 43.001 70.0343 42.5728C70.3642 42.1444 70.5419 41.619 70.5397 41.0791L70.5397 41.0773C70.5397 40.9836 70.5364 40.9252 70.5302 40.8849C70.5291 40.8778 70.528 40.872 70.527 40.8673C70.5095 40.8588 70.4758 40.8455 70.4161 40.8311C70.2118 40.8047 70.0143 40.7394 69.8346 40.6386C69.6463 40.533 69.4813 40.3907 69.3494 40.22C69.2176 40.0493 69.1216 39.8539 69.0673 39.6453C69.016 39.4484 69.0029 39.2438 69.0284 39.0422C69.0308 38.6147 69.0808 38.1505 69.1266 37.7252C69.1475 37.5309 69.1675 37.3447 69.1818 37.1738C69.1823 37.1669 69.1831 37.16 69.1839 37.1532C69.3405 35.9398 69.4235 34.718 69.4325 33.4947C69.4323 32.7491 69.1791 32.0254 68.7138 31.4414C68.2482 30.8569 67.5976 30.4466 66.868 30.2776L66.8541 30.2744L66.8541 30.2741ZM70.5431 40.8769C70.5429 40.8769 70.5415 40.876 70.5392 40.874C70.5421 40.8758 70.5432 40.8768 70.5431 40.8769ZM67.083 29.3861C65.8681 29.0654 64.6034 28.9764 63.3554 29.1237C62.2471 29.1817 61.1669 29.4931 60.1986 30.0339L60.1985 30.0337L60.1877 30.0402C59.6864 30.3384 59.2549 30.74 58.922 31.218C58.5945 31.6882 58.37 32.2217 58.2628 32.7838C58.1635 33.1086 58.1386 33.4517 58.19 33.7876C58.243 34.1335 58.3756 34.4625 58.5773 34.7488C58.779 35.0352 59.0444 35.2711 59.3526 35.4381C59.6609 35.6052 60.0038 35.699 60.3544 35.7121C60.3602 35.7123 60.3659 35.7124 60.3716 35.7124C60.4711 35.7124 60.5746 35.7223 60.7044 35.7352L60.7136 35.7361C60.7721 35.7419 60.8366 35.7483 60.9045 35.7533C60.6939 35.8214 60.4849 35.8948 60.2776 35.9733C59.3279 36.2478 58.4869 36.8097 57.8711 37.5814C57.2548 38.3537 56.8948 39.2977 56.8407 40.2828C56.7467 41.0282 56.8978 41.784 57.2717 42.4366C57.6485 43.0946 58.231 43.6114 58.9301 43.9085L58.9307 43.9088C59.8997 44.3188 60.9674 44.4387 62.0036 44.2538C63.0372 44.0692 63.9948 43.5893 64.7598 42.8724C64.8497 42.7931 64.9373 42.7113 65.0225 42.6271C65.1686 43.0222 65.405 43.3788 65.7138 43.6682C66.0634 43.9957 66.4933 44.2255 66.9602 44.3346C67.6126 44.503 68.2973 44.5025 68.9495 44.3331L68.9507 44.3328C69.6716 44.1435 70.3091 43.721 70.7631 43.1314C71.2168 42.5421 71.4615 41.8193 71.4587 41.0764C71.4587 41.0767 71.4587 41.077 71.4587 41.0773H70.9992L71.4587 41.0754C71.4587 41.0757 71.4587 41.0761 71.4587 41.0764C71.4587 40.8876 71.4543 40.6131 71.3089 40.3771C71.1444 40.1101 70.8725 39.9932 70.5962 39.9315C70.5798 39.9278 70.5632 39.9251 70.5464 39.9232C70.4544 39.9131 70.3655 39.8845 70.2849 39.8393C70.2043 39.7941 70.1337 39.7332 70.0773 39.6602C70.021 39.5873 69.98 39.5038 69.9568 39.4147C69.9336 39.3256 69.9287 39.2328 69.9423 39.1419C69.9457 39.1194 69.9473 39.0968 69.9473 39.0741C69.9473 38.6866 69.9895 38.2973 70.0338 37.8891C70.0559 37.6849 70.0786 37.4759 70.0967 37.26C70.2573 36.0128 70.3423 34.7571 70.3515 33.4997L70.3515 33.4965C70.3518 32.543 70.0281 31.6175 69.4332 30.8708C68.8399 30.126 68.0117 29.6029 67.083 29.3861ZM62.3148 35.3799C63.2141 35.193 64.132 35.0978 65.0543 35.0969C65.0828 34.721 65.0669 34.343 65.0069 33.9706L65.0054 33.9611L65.0055 33.961C64.9857 33.8189 64.9198 33.6871 64.8178 33.5856C64.7158 33.484 64.5832 33.4184 64.4403 33.3988C64.4083 33.3944 64.3769 33.3867 64.3466 33.3758C64.175 33.3139 63.9919 33.2901 63.8101 33.3061C63.6283 33.3221 63.4523 33.3776 63.2943 33.4685C63.1363 33.5594 63.0002 33.6837 62.8955 33.8324C62.7908 33.9812 62.7201 34.151 62.6881 34.3298C62.6804 34.3732 62.6664 34.4152 62.6466 34.4547C62.6476 34.4527 62.6454 34.4549 62.6314 34.5109C62.6308 34.5133 62.6302 34.5159 62.6295 34.5187C62.6198 34.5579 62.6024 34.6282 62.5695 34.7057C62.5238 34.8757 62.4786 35.0347 62.4248 35.1664C62.3965 35.2358 62.3614 35.309 62.3148 35.3799ZM65.7132 38.1079C65.6336 38.925 65.2624 39.6866 64.6673 40.2541L64.6628 40.2583L64.6628 40.2583C64.2009 40.687 63.5952 40.9277 62.9649 40.9338C62.6861 40.9616 62.4049 40.91 62.154 40.7847C61.8974 40.6566 61.6837 40.4569 61.5388 40.21C61.3766 39.9508 61.2965 39.6488 61.3093 39.3434C61.3217 39.0457 61.4217 38.7585 61.5965 38.5174C61.8592 38.065 62.2858 37.7299 62.7884 37.5811C63.4045 37.3343 64.0572 37.1906 64.7203 37.1559C64.8539 37.1439 64.9863 37.1347 65.0997 37.1415C65.2053 37.1479 65.3996 37.172 65.5541 37.3245C65.7153 37.4836 65.7335 37.6824 65.7359 37.784C65.7383 37.8847 65.7252 38.0015 65.7141 38.0998L65.7132 38.1079ZM64.793 38.07C64.7248 38.648 64.457 39.1852 64.0347 39.589C63.7369 39.8643 63.3456 40.0173 62.9391 40.017C62.9209 40.017 62.9026 40.0181 62.8844 40.0203C62.7749 40.0333 62.664 40.014 62.5654 39.9648C62.4668 39.9156 62.385 39.8386 62.3301 39.7436C62.3269 39.7381 62.3237 39.7327 62.3203 39.7274C62.2548 39.6241 62.2224 39.5035 62.2275 39.3816C62.2326 39.2596 62.2749 39.142 62.3488 39.0445C62.3615 39.0278 62.373 39.0102 62.3833 38.9918C62.5298 38.7305 62.7746 38.5377 63.064 38.456C63.0802 38.4514 63.0962 38.446 63.1118 38.4396C63.6419 38.2248 64.2046 38.1002 64.7762 38.0712C64.7818 38.0709 64.7874 38.0705 64.793 38.07Z" fill="#EFEFE5"/>
<path fill-rule="evenodd" clip-rule="evenodd" d="M129.502 29.9797C128.279 29.7398 127.022 29.7398 125.8 29.9797C125.792 29.9813 125.783 29.9827 125.775 29.9839C124.708 30.1328 123.703 30.5724 122.87 31.2541C122.037 31.9358 121.41 32.8332 121.056 33.8474L121.051 33.8616C120.592 35.0514 120.38 36.3216 120.427 37.5954C120.428 37.606 120.428 37.6166 120.428 37.6272C120.408 38.2327 120.456 38.8385 120.571 39.4333C120.573 39.4425 120.575 39.4517 120.576 39.4609C120.697 40.3908 121.118 41.2564 121.776 41.9278C122.433 42.5992 123.291 43.04 124.221 43.1841L124.237 43.1868C125.153 43.361 126.09 43.3931 127.016 43.2821C127.025 43.281 127.033 43.2803 127.042 43.2797C128.173 43.2077 129.263 42.8248 130.189 42.1735C131.116 41.5223 131.844 40.6282 132.291 39.5903L132.294 39.5839L132.294 39.5839C133.1 37.7926 133.368 35.8071 133.065 33.8674C133.063 33.8535 133.062 33.8395 133.061 33.8255C133.002 32.8783 132.618 31.98 131.974 31.2807C131.33 30.5814 130.465 30.1233 129.523 29.9833C129.516 29.9823 129.509 29.9811 129.502 29.9797ZM129.669 29.078C128.337 28.8179 126.967 28.8178 125.635 29.0776C124.405 29.2516 123.247 29.7593 122.287 30.5453C121.326 31.3325 120.6 32.3683 120.191 33.5391C119.691 34.8378 119.459 36.2236 119.509 37.6136C119.488 38.2774 119.541 38.9413 119.666 39.5935C119.816 40.7151 120.325 41.7586 121.118 42.5685C121.913 43.3799 122.949 43.9132 124.073 44.089C125.075 44.2787 126.1 44.3142 127.113 44.194C128.409 44.1091 129.657 43.6694 130.719 42.9232C131.783 42.1752 132.619 41.1483 133.134 39.9562C134.009 38.0103 134.301 35.8544 133.977 33.7471C133.9 32.598 133.432 31.5091 132.651 30.6604C131.867 29.809 130.815 29.2508 129.669 29.078ZM127.457 32.3347C127.906 32.3485 128.341 32.5002 128.7 32.7694C129.067 33.0435 129.338 33.4256 129.474 33.8616C129.476 33.8679 129.478 33.8744 129.48 33.8808C129.638 34.4784 129.712 35.0954 129.697 35.7135C129.68 36.8769 129.43 38.0252 128.96 39.0905C128.758 39.6241 128.399 40.0851 127.931 40.4136C127.46 40.744 126.901 40.925 126.325 40.933C125.897 40.9452 125.476 40.8312 125.113 40.605C124.749 40.3782 124.46 40.0487 124.284 39.6583L124.282 39.6532L124.282 39.6532C123.974 38.9478 123.824 38.1842 123.841 37.4152C123.802 36.332 123.983 35.2521 124.373 34.2402C124.597 33.6193 125.026 33.0927 125.59 32.7468C126.148 32.4041 126.806 32.2591 127.457 32.3347ZM127.367 33.2474C126.915 33.1913 126.458 33.2902 126.071 33.5279C125.684 33.7655 125.389 34.1276 125.236 34.5542L125.233 34.5646L125.233 34.5646C124.885 35.4666 124.724 36.4296 124.76 37.3953C124.76 37.4047 124.76 37.4142 124.76 37.4236C124.744 38.0629 124.868 38.6978 125.123 39.2844C125.225 39.5081 125.391 39.697 125.6 39.8273C125.81 39.9581 126.054 40.0239 126.301 40.0164L126.309 40.0161L126.309 40.0162C126.701 40.0113 127.082 39.8883 127.403 39.6636C127.723 39.4388 127.967 39.1228 128.104 38.7572C128.107 38.7487 128.11 38.7403 128.114 38.732C128.538 37.7754 128.763 36.7437 128.778 35.6983L128.778 35.6937C128.791 35.1651 128.729 34.6374 128.594 34.1261C128.514 33.8776 128.359 33.6598 128.149 33.503C127.937 33.3443 127.68 33.256 127.415 33.2508C127.399 33.2505 127.383 33.2494 127.367 33.2474Z" fill="#EFEFE5"/>
<path fill-rule="evenodd" clip-rule="evenodd" d="M160.392 30.1196C159.657 29.901 158.89 29.8055 158.124 29.8368L158.109 29.8374L158.109 29.8372L157.856 29.8395C157.85 29.8395 157.843 29.8395 157.837 29.8393C156.768 29.8056 155.708 30.0508 154.762 30.5506C153.818 31.0498 153.02 31.7857 152.449 32.6857C151.176 34.7634 150.747 37.2465 151.249 39.6286L151.251 39.6382L151.251 39.6383C151.398 40.4184 151.756 41.1439 152.286 41.7363C152.816 42.3288 153.499 42.7658 154.26 43.0002L154.275 43.0051C155.668 43.4865 157.169 43.5689 158.607 43.2427C158.62 43.2398 158.632 43.2375 158.645 43.2357C159.517 43.1133 160.327 42.7173 160.958 42.1051L160.961 42.1025L160.961 42.1025C161.136 41.9357 161.263 41.7253 161.328 41.4933C161.394 41.2613 161.396 41.016 161.335 40.7828C161.274 40.5496 161.151 40.337 160.979 40.1669C160.808 39.9968 160.593 39.8755 160.359 39.8155C160.352 39.8138 160.345 39.8119 160.338 39.8098C160.004 39.7078 159.917 39.7181 159.885 39.7281C159.859 39.7359 159.786 39.7687 159.59 40.0365C159.243 40.5469 158.722 40.9142 158.124 41.0702C157.712 41.1827 157.28 41.2003 156.861 41.1216C156.44 41.0427 156.044 40.8691 155.701 40.6139C155.358 40.3588 155.078 40.029 154.882 39.6496C154.693 39.2814 154.587 38.8761 154.574 38.4628C154.548 38.303 154.539 38.0455 154.739 37.8464C154.93 37.6558 155.19 37.6558 155.284 37.6558H155.284C155.411 37.6558 155.53 37.6454 155.671 37.6327L155.677 37.6321C155.809 37.6202 155.961 37.6065 156.128 37.6058C157.6 37.5268 159.043 37.1664 160.379 36.5442L160.388 36.5398L160.388 36.54C160.988 36.2768 161.505 35.8559 161.883 35.3225C162.261 34.789 162.486 34.1632 162.534 33.512C162.535 33.4976 162.537 33.4832 162.539 33.4689C162.662 32.7464 162.512 32.004 162.117 31.3856C161.722 30.7673 161.11 30.317 160.401 30.1222L160.392 30.1197L160.392 30.1196ZM160.65 29.2395C159.821 28.9937 158.958 28.8859 158.094 28.9203L157.857 28.9225C156.631 28.8856 155.416 29.1674 154.332 29.7403C153.245 30.3148 152.328 31.162 151.67 32.1982L151.67 32.1982L151.666 32.2043C150.271 34.4807 149.8 37.2017 150.349 39.8124C150.527 40.755 150.96 41.6313 151.601 42.3471C152.241 43.0621 153.064 43.5899 153.982 43.8741C155.529 44.4073 157.195 44.4997 158.792 44.141C159.85 43.9884 160.832 43.5065 161.598 42.7638C161.89 42.4841 162.103 42.1317 162.213 41.7428C162.323 41.3533 162.327 40.9414 162.224 40.55C162.121 40.1585 161.915 39.8016 161.627 39.5163C161.342 39.2336 160.986 39.0314 160.597 38.93C160.279 38.8331 159.942 38.7505 159.613 38.8523C159.273 38.9574 159.045 39.225 158.842 39.503C158.84 39.506 158.838 39.509 158.836 39.512C158.835 39.5137 158.834 39.5154 158.832 39.5171C158.61 39.8465 158.275 40.0836 157.889 40.1836L157.889 40.1836L157.883 40.1853C157.605 40.2616 157.314 40.2736 157.031 40.2205C156.748 40.1673 156.481 40.0505 156.25 39.8789C156.019 39.7073 155.831 39.4854 155.7 39.2303C155.593 39.0226 155.526 38.7973 155.501 38.5659C155.589 38.5607 155.671 38.5533 155.746 38.5465L155.754 38.5459C155.894 38.5332 156.013 38.5227 156.141 38.5227C156.149 38.5227 156.157 38.5225 156.165 38.5221C157.757 38.4382 159.318 38.0495 160.763 37.3772C161.513 37.047 162.16 36.5198 162.633 35.8518C163.103 35.1882 163.385 34.4106 163.449 33.601C163.603 32.661 163.405 31.6968 162.892 30.8928C162.375 30.0841 161.576 29.4951 160.65 29.2395ZM157.337 32.3342C157.668 32.3178 157.996 32.4004 158.279 32.5715C158.565 32.7442 158.791 32.9988 158.929 33.3021C159.091 33.6392 159.145 34.0175 159.086 34.3865C159.025 34.7574 158.853 35.101 158.591 35.3709C158.586 35.3758 158.581 35.3806 158.576 35.3853C157.955 35.9706 157.154 36.3313 156.304 36.4103C156.144 36.4359 155.999 36.4492 155.87 36.461L155.86 36.4619C155.72 36.4747 155.598 36.4861 155.466 36.5084C155.441 36.5127 155.415 36.5149 155.39 36.5149C155.387 36.5149 155.384 36.5149 155.381 36.5149C155.338 36.5149 155.271 36.515 155.209 36.5084C155.146 36.5017 155.021 36.4829 154.902 36.398C154.76 36.2974 154.694 36.1534 154.673 36.0208C154.656 35.9133 154.669 35.8101 154.684 35.7293C154.796 34.9402 155.05 34.1777 155.434 33.4784C155.618 33.1319 155.894 32.8423 156.231 32.6406C156.566 32.4408 156.948 32.335 157.337 32.3342ZM157.803 33.3558C157.675 33.2784 157.526 33.2416 157.376 33.2503C157.367 33.2509 157.357 33.2511 157.347 33.2511C157.121 33.2501 156.898 33.311 156.703 33.4272C156.509 33.5435 156.35 33.7105 156.244 33.9102L156.241 33.9162L156.241 33.9162C155.958 34.4313 155.757 34.9862 155.644 35.5612C155.689 35.5567 155.733 35.5527 155.775 35.5489L155.776 35.5488C155.916 35.536 156.038 35.5247 156.171 35.5029C156.182 35.501 156.194 35.4995 156.205 35.4985C156.853 35.4413 157.463 35.1692 157.937 34.726C158.065 34.5918 158.149 34.4225 158.178 34.2401C158.208 34.0545 158.181 33.8642 158.099 33.6947L158.094 33.6837L158.094 33.6836C158.032 33.5476 157.931 33.4333 157.803 33.3558Z" fill="#EFEFE5"/>
<path fill-rule="evenodd" clip-rule="evenodd" d="M77.5496 31.2361C77.4729 31.3116 77.4052 31.3956 77.3476 31.4864V31.2491C77.4407 31.1977 77.536 31.1499 77.6334 31.1059C77.6047 31.1487 77.5767 31.1921 77.5496 31.2361ZM82.3364 42.953C81.9758 43.3896 81.5549 43.7768 81.0841 44.1021C80.1318 44.7602 79.0132 45.1387 77.8557 45.1945C76.8136 45.321 75.7574 45.2698 74.7325 45.0431C73.7266 44.8782 72.8078 44.3746 72.1293 43.6163C71.4509 42.858 71.0538 41.8909 71.0042 40.8761C70.9373 39.3527 70.9709 37.8266 71.1047 36.3076C71.1807 35.0986 71.2781 33.8968 71.3753 32.6966L71.3754 32.6966C71.5365 30.7075 71.6973 28.7231 71.7599 26.7188C71.7599 26.2171 71.8102 26.1671 72.365 26.1671C72.7052 26.1483 73.046 26.1454 73.3862 26.1583C73.3102 27.8738 73.1722 29.5779 73.0339 31.2853C72.9366 32.4857 72.8392 33.6878 72.7632 34.8968C72.6294 36.4158 72.5958 37.942 72.6627 39.4654C72.7123 40.4801 73.1094 41.4473 73.7878 42.2056C74.4663 42.9639 75.3851 43.4675 76.391 43.6324C77.4159 43.8591 78.4721 43.9102 79.5142 43.7837C80.5106 43.7368 81.4784 43.4507 82.3364 42.953ZM79.0674 40.4565C79.3656 40.4168 79.652 40.3107 79.905 40.1451C80.2164 39.9412 80.4648 39.6551 80.6226 39.3187C81.4566 37.6907 81.6543 35.8121 81.1774 34.0471C81.111 33.6573 80.8952 33.3084 80.5754 33.0743C80.2557 32.8402 79.8571 32.7391 79.464 32.7924C79.0147 32.7776 78.5723 32.9058 78.201 33.1584C77.8375 33.4058 77.5606 33.7598 77.4085 34.1709C77.538 34.1509 77.6697 34.1429 77.802 34.1472C78.1951 34.0939 78.5937 34.195 78.9134 34.4292C79.2332 34.6633 79.449 35.0122 79.5154 35.402C79.9713 37.0891 79.8108 38.8799 79.0674 40.4565ZM53.7251 34.2618C53.6605 34.2392 53.6032 34.2173 53.5693 34.1497V34.1404C53.6799 34.1041 53.7885 34.0626 53.8947 34.0161C53.8414 34.1002 53.7849 34.1822 53.7251 34.2618ZM53.5715 42.7656C53.2835 42.9197 52.9791 43.0447 52.6629 43.1379C50.2434 43.947 47.6488 44.0862 45.1562 43.5406C44.8395 43.5104 44.5322 43.4168 44.2527 43.2653C43.9732 43.1139 43.7273 42.9077 43.5298 42.6592C43.3322 42.4107 43.1871 42.125 43.1031 41.8192C43.0191 41.5134 42.998 41.1939 43.0409 40.8798C43.0409 39.7533 43.1385 38.6267 43.236 37.5002L43.236 37.5002C43.295 36.8191 43.3539 36.138 43.3913 35.4568C43.4669 34.3117 43.5635 33.1667 43.6601 32.0216C43.8041 30.3153 43.9481 28.6091 44.0223 26.9028C43.7258 26.9241 43.4294 26.9485 43.1333 26.976C42.4827 26.976 42.4325 27.0214 42.4325 27.6744C42.3698 29.5862 42.2087 31.498 42.0477 33.4098C41.9508 34.5604 41.8539 35.711 41.7784 36.8616C41.741 37.5428 41.682 38.2239 41.623 38.905C41.5255 40.0316 41.428 41.1581 41.428 42.2846C41.3852 42.5986 41.4065 42.918 41.4905 43.2237C41.5746 43.5293 41.7198 43.8149 41.9173 44.0632C42.1148 44.3116 42.3607 44.5177 42.6401 44.6691C42.9195 44.8205 43.2267 44.914 43.5432 44.9442C46.0358 45.4897 48.6302 45.3509 51.0499 44.5427C51.8738 44.2996 52.6171 43.8405 53.202 43.2134C53.3346 43.0712 53.4579 42.9217 53.5715 42.7656ZM47.8584 37.4038C48.1516 37.4155 48.444 37.4516 48.7326 37.5123C49.0529 37.5851 49.3458 37.7469 49.5775 37.9789C49.8093 38.2108 49.9703 38.5035 50.042 38.8229C50.1961 39.3748 50.1869 39.9588 50.0162 40.5047C50.2674 40.4604 50.5104 40.3718 50.7335 40.2412C51.1543 39.995 51.479 39.6141 51.6549 39.1606C51.8489 38.5931 51.8664 37.9805 51.7051 37.403C51.6326 37.0846 51.4712 36.7931 51.2395 36.5622C51.0078 36.3313 50.7153 36.1704 50.3958 36.0982C49.6815 35.9474 48.9435 35.9474 48.2292 36.0982C47.9769 36.1482 47.9267 36.2483 47.9267 36.4474C47.9104 36.724 47.8888 37.0059 47.8671 37.2898L47.8584 37.4038ZM48.6298 29.0189C48.9797 28.9608 49.3333 28.9273 49.688 28.9188L49.6903 28.9328C50.072 28.8764 50.4616 28.9472 50.7988 29.1341C51.1721 29.239 51.497 29.4704 51.7173 29.7886C51.9376 30.1067 52.0394 30.4916 52.0053 30.8766C52.0242 31.262 51.9094 31.6422 51.6801 31.9532C51.4508 32.2642 51.121 32.487 50.7462 32.5841C50.6011 32.6224 50.4546 32.6533 50.3072 32.677C50.3373 32.5361 50.3493 32.3911 50.3421 32.2453C50.3796 31.8577 50.279 31.4693 50.058 31.1482C49.837 30.8271 49.5096 30.5937 49.1333 30.4889C48.8749 30.3849 48.6032 30.3193 48.3268 30.2937C48.344 29.9514 48.3613 29.6109 48.3787 29.2703C48.3787 29.069 48.4791 29.0189 48.6298 29.0189ZM104.573 26.9343C104.248 26.9352 103.922 26.93 103.596 26.9187C103.091 26.9187 102.991 27.0188 102.991 27.5205C102.924 29.9446 102.72 32.3457 102.517 34.7395L102.517 34.7397C102.418 35.916 102.318 37.0905 102.235 38.2651C102.21 38.6416 102.182 39.0182 102.154 39.3947C102.069 40.5243 101.984 41.654 101.984 42.7836C101.953 43.2216 102.07 43.6573 102.316 44.0212C102.563 44.3851 102.924 44.6563 103.344 44.7915C103.589 44.8813 103.842 44.9487 104.099 44.9929C105.631 45.2435 107.189 45.294 108.734 45.143C110.341 45.1077 111.896 44.5701 113.18 43.6062C113.578 43.3071 113.944 42.9717 114.273 42.6056C113.099 43.3464 111.74 43.7572 110.342 43.7879C108.797 43.9389 107.239 43.8884 105.708 43.6378C105.45 43.5936 105.197 43.5262 104.952 43.4364C104.533 43.3012 104.171 43.03 103.925 42.6661C103.678 42.3022 103.561 41.8665 103.592 41.4286C103.592 40.2989 103.677 39.1693 103.762 38.0396C103.79 37.6631 103.818 37.2866 103.843 36.91C103.927 35.7355 104.026 34.5611 104.126 33.385L104.126 33.3846C104.307 31.2441 104.489 29.0977 104.573 26.9343ZM113.365 30.9831C113.59 31.6981 113.692 32.4458 113.667 33.1946L113.671 33.1993C113.71 34.4173 113.574 35.6347 113.268 36.8146C113.058 37.8078 112.465 38.6792 111.617 39.2409C111.443 39.3562 111.261 39.4566 111.073 39.5417C111.354 39.1279 111.554 38.66 111.659 38.1615C111.967 36.9832 112.102 35.7666 112.059 34.5497C112.084 33.8009 111.981 33.0532 111.757 32.3382C111.636 31.9278 111.402 31.5596 111.081 31.2755C110.76 30.9915 110.366 30.8031 109.943 30.7319C109.56 30.6832 109.175 30.6582 108.79 30.6569C108.805 30.3637 108.819 30.0708 108.833 29.7784C108.833 29.4769 108.932 29.3768 109.183 29.3768C109.969 29.2768 110.765 29.2768 111.551 29.3768C111.974 29.448 112.369 29.6364 112.689 29.9204C113.01 30.2045 113.244 30.5727 113.365 30.9831ZM144.554 31.186C144.562 31.1453 144.569 31.1044 144.576 31.0635C144.509 31.0632 144.443 31.0632 144.377 31.0632L144.316 31.0631C144.328 31.0891 144.341 31.1153 144.352 31.1417C144.352 31.1918 144.402 31.2418 144.453 31.2919C144.503 31.1918 144.554 31.1918 144.554 31.1918V31.186ZM144.607 47.8098C144.744 47.7515 144.877 47.6871 145.008 47.6169C144.924 47.7322 144.834 47.844 144.74 47.9519C144.26 48.4997 143.662 48.9325 142.991 49.2182C140.683 50.1858 138.095 50.2572 135.737 49.4184C135.219 49.2512 134.752 48.958 134.376 48.5652C134.064 48.3221 133.834 47.9898 133.717 47.6129C133.6 47.2359 133.602 46.8323 133.721 46.4561C133.868 46.0895 134.117 45.7721 134.438 45.541C134.695 45.3562 134.99 45.2327 135.3 45.1787C135.218 45.5165 135.229 45.871 135.332 46.2046C135.45 46.5815 135.68 46.9138 135.992 47.1568C136.367 47.5496 136.835 47.8429 137.352 48.01C139.711 48.8488 142.299 48.7774 144.607 47.8098ZM138.309 44.2446C138.327 44.2705 138.346 44.2961 138.365 44.3214C138.988 44.3335 139.607 44.2018 140.173 43.9345C140.841 43.6192 141.409 43.1275 141.816 42.5131L141.788 42.5261C141.112 42.8453 140.361 42.9711 139.617 42.8897C138.563 42.9163 137.539 42.5416 136.753 41.8421C135.966 41.1425 135.477 40.1707 135.384 39.1242C134.906 36.8493 135.208 34.4801 136.242 32.3965C136.393 32.0989 136.571 31.8176 136.773 31.5556C135.856 32.0791 135.108 32.8596 134.626 33.8049C133.593 35.8885 133.291 38.2578 133.77 40.5326C133.862 41.5789 134.352 42.5508 135.138 43.2504C135.485 43.5591 135.878 43.8045 136.3 43.9801C136.562 43.842 136.852 43.7606 137.15 43.7429C137.372 43.6788 137.609 43.6938 137.82 43.7854C138.032 43.877 138.205 44.0394 138.309 44.2446ZM142.605 44.712C142.313 44.9821 141.962 45.1763 141.581 45.2801C141.646 45.1263 141.696 44.9654 141.729 44.7997C141.97 44.0226 142.074 43.21 142.037 42.3979C142.605 42.0799 143.089 41.6288 143.446 41.082C143.452 41.0691 143.458 41.056 143.463 41.0432L143.473 41.0198C143.503 40.9439 143.528 40.8807 143.647 40.8807C143.699 41.7289 143.596 42.5795 143.344 43.3914C143.244 43.8982 142.985 44.3604 142.605 44.712ZM144.352 35.4589C144.36 34.9131 144.275 34.37 144.1 33.8526C144.001 33.5311 143.8 33.2501 143.528 33.0511C143.255 32.8521 142.926 32.7459 142.589 32.748C142.142 32.7083 141.693 32.8077 141.306 33.0324C140.918 33.2571 140.609 33.5961 140.423 34.0028C140.395 34.0606 140.368 34.1188 140.342 34.1774C140.533 34.1425 140.729 34.1332 140.925 34.1506C141.263 34.1484 141.592 34.2547 141.864 34.4537C142.137 34.6526 142.337 34.9337 142.437 35.2552C142.611 35.7725 142.697 36.3157 142.689 36.8615C142.739 37.7147 142.586 38.5669 142.242 39.3484C142.386 39.3141 142.528 39.2663 142.665 39.2053C143.181 38.9761 143.599 38.5743 143.849 38.0697C144.232 37.2548 144.405 36.3574 144.352 35.4589ZM94.193 44.7655C94.0479 44.8298 93.8958 44.878 93.7392 44.9089C93.4511 44.9657 93.1544 44.9627 92.8676 44.9001C92.8279 44.8914 92.7872 44.888 92.7466 44.89C92.4313 44.9057 92.1173 44.8399 91.835 44.6992C91.6109 44.5875 91.4129 44.4315 91.2525 44.2415C91.7749 44.1707 92.2847 44.0187 92.7629 43.7898C93.1005 43.6121 93.4134 43.3942 93.6951 43.1419C93.9688 43.067 94.237 42.971 94.4972 42.8544C94.4879 43.4424 94.3962 44.0272 94.224 44.5918C94.2157 44.6501 94.2053 44.708 94.193 44.7655ZM88.1845 43.6929L88.1785 43.6897C87.6257 43.3533 87.1687 42.8812 86.8514 42.3185C86.534 41.7558 86.3668 41.1214 86.3658 40.476C86.2731 39.1706 86.3067 37.8593 86.4662 36.5604C86.5153 35.824 86.5767 35.0877 86.6381 34.3513L86.6382 34.3506C86.7023 33.581 86.7665 32.8114 86.8166 32.0418C86.8668 31.2887 87.0689 31.0885 87.8246 31.0885C87.8789 31.0876 87.9333 31.087 87.9876 31.0869C87.9992 30.9258 88.0104 30.7647 88.0208 30.6038C88.0462 30.2237 88.1116 29.8199 88.4013 29.5437C88.6929 29.2657 89.0992 29.2228 89.4832 29.2225C89.9085 29.2152 90.3339 29.2315 90.7573 29.2714C91.0865 29.2581 91.4149 29.3156 91.7201 29.4403C92.0366 29.5697 92.3202 29.7681 92.5498 30.021C92.7795 30.2739 92.9494 30.5748 93.0472 30.9018C93.1413 31.2167 93.1662 31.5481 93.1202 31.8732C93.1202 31.8732 92.709 34.9975 92.709 37.5587C92.709 39.0183 93.6128 39.1588 94.4445 38.7533C94.4735 38.6744 94.5001 38.5944 94.5242 38.5135C94.8595 37.3195 95.0458 36.0888 95.079 34.8493C95.1292 34.322 95.1669 33.8073 95.2046 33.2925C95.2422 32.7778 95.2799 32.263 95.3301 31.7357C95.3803 31.184 95.5322 31.0373 96.0858 31.0373C96.209 31.0277 96.3323 31.0219 96.4556 31.0197C96.478 30.7475 96.4905 30.587 96.4905 30.587L96.5412 30.2904C96.5668 30.0092 96.6242 29.6743 96.8742 29.4415C97.1222 29.2106 97.4539 29.1772 97.7363 29.1759C98.3316 29.1702 98.8171 29.1856 99.2228 29.2319C99.4048 29.2594 99.5858 29.2946 99.7653 29.3373C100.192 29.4194 100.583 29.6222 100.895 29.9184C100.97 29.992 101.043 30.0722 101.114 30.1595C101.449 30.5864 101.618 31.1196 101.589 31.6607C101.589 33.1412 101.463 34.5885 101.337 36.032L101.337 36.0321C101.303 36.4215 101.269 36.8106 101.238 37.2C101.172 38.4917 101.061 39.7698 100.95 41.0438L100.95 41.0439L100.95 41.044L100.95 41.0441L100.95 41.0442L100.95 41.0443C100.893 41.7006 100.836 42.3557 100.786 43.0111C100.759 44.5144 100.17 45.9538 99.1335 47.0465C98.424 47.7945 97.54 48.343 96.5703 48.6501C95.6889 49.3558 94.608 49.7823 93.4683 49.8634C91.7272 50.1162 89.9509 49.9615 88.2801 49.4117C87.6082 49.1904 86.9903 48.8311 86.4662 48.3572C86.219 48.155 86.0327 47.8888 85.9275 47.5879C85.8224 47.2869 85.8026 46.9629 85.8704 46.6515C85.9381 46.3401 86.0907 46.0533 86.3115 45.8228C86.5161 45.609 86.772 45.4513 87.0545 45.3641C87.0627 45.2928 87.0745 45.2218 87.0899 45.1513C87.1756 44.7574 87.3686 44.3947 87.6478 44.1031C87.8051 43.9388 87.9863 43.8007 88.1845 43.6929ZM97.7901 30.0914C98.3842 30.0452 98.9819 30.0924 99.5613 30.2314L99.5698 30.2334L99.5841 30.2363C99.9036 30.296 100.19 30.4697 100.39 30.7247C100.59 30.9796 100.69 31.2984 100.671 31.6213L100.671 31.6346L100.67 31.648C100.67 33.0893 100.549 34.4894 100.423 35.9312L100.423 35.9313L100.417 36.0082L100.416 36.0099L100.416 36.012L100.416 36.0125L100.416 36.0131L100.416 36.0137C100.384 36.3835 100.352 36.7562 100.321 37.1332L100.321 37.1465C100.255 38.4255 100.146 39.6762 100.036 40.9415C99.9787 41.6064 99.9206 42.2754 99.8682 42.9546C99.8674 42.964 99.867 42.9734 99.8669 42.9828C99.8476 44.2616 99.3478 45.4867 98.4661 46.4162C97.5843 47.3458 96.3848 47.912 95.1042 48.0031C95.093 48.0039 95.0819 48.0051 95.0707 48.0067C93.4001 48.2493 91.6957 48.1009 90.0926 47.5734C89.4816 47.3721 88.9198 47.0454 88.4434 46.6145C88.4377 46.6094 88.432 46.6045 88.4261 46.5997C88.2443 46.451 88.1073 46.2552 88.03 46.034C87.9527 45.8128 87.9382 45.5747 87.988 45.3458C88.0378 45.1169 88.15 44.9061 88.3123 44.7365C88.4746 44.567 88.6808 44.4453 88.9082 44.3849C88.9231 44.381 88.9377 44.3763 88.9522 44.3708C89.1238 44.3063 89.3034 44.265 89.4862 44.2483C89.5005 44.2469 89.5148 44.2449 89.529 44.2423C89.7383 44.203 89.8668 44.1801 89.9633 44.1721C90.0243 44.1671 90.0507 44.1705 90.0587 44.172C90.0655 44.1767 90.0849 44.1922 90.1199 44.2338C90.1795 44.3047 90.2525 44.4124 90.368 44.5915L90.3738 44.6C90.6387 44.9915 91.0006 45.3082 91.4242 45.5194C91.8296 45.7215 92.2784 45.8205 92.7307 45.8082C93.1223 45.8856 93.5254 45.8857 93.9174 45.8084C94.3293 45.7272 94.7199 45.5622 95.065 45.3236C95.41 45.0851 95.702 44.7782 95.9227 44.422C96.1383 44.0741 96.2813 43.6865 96.3432 43.2824C96.5603 42.4736 96.6462 41.6354 96.5978 40.7995C96.5863 40.6019 96.4491 40.4339 96.2575 40.3829C96.0658 40.3319 95.863 40.4094 95.7544 40.575C95.3694 41.1627 94.8411 41.6435 94.2189 41.9726C93.568 42.2827 92.8529 42.4362 92.1314 42.4204C91.4114 42.4047 90.7052 42.2209 90.0695 41.8839C89.5887 41.5888 89.1912 41.1766 88.9145 40.686C88.6357 40.1918 88.4889 39.6345 88.488 39.0676C88.488 39.057 88.4876 39.0465 88.4868 39.0359C88.3963 37.7599 88.4291 36.4782 88.585 35.2085C88.5861 35.2001 88.5869 35.1916 88.5874 35.1832C88.6363 34.4509 88.6974 33.718 88.7588 32.9807L88.7589 32.9801L88.7629 32.9315C88.8257 32.179 88.8885 31.422 88.9378 30.6643C88.9627 30.2916 89.0234 30.2188 89.0362 30.2066C89.0461 30.1972 89.1168 30.1395 89.4873 30.1395L89.4954 30.1393C89.8981 30.1323 90.3009 30.1483 90.7018 30.1873C90.7253 30.1896 90.7489 30.19 90.7725 30.1887C90.9772 30.1771 91.182 30.2113 91.3717 30.2888C91.5614 30.3664 91.7313 30.4852 91.8688 30.6367C92.0063 30.7881 92.108 30.9682 92.1665 31.1639C92.225 31.3595 92.2388 31.5657 92.2069 31.7674C92.2031 31.791 92.2013 31.815 92.2013 31.8389C92.2013 32.6637 92.1146 33.4836 92.0278 34.3048C92.0021 34.548 91.9764 34.7914 91.9529 35.035C91.7832 35.9709 91.7153 36.9223 91.7505 37.8728C91.7542 38.2653 91.8701 38.6488 92.0846 38.9781C92.3005 39.3095 92.6072 39.5722 92.9683 39.7351C93.3293 39.898 93.7296 39.9543 94.1217 39.8973C94.5113 39.8407 94.8766 39.6747 95.1749 39.4188C95.8693 38.8555 96.3775 38.0969 96.6332 37.2416L96.6353 37.2342C96.9793 36.0089 97.1711 34.7461 97.2065 33.4743C97.2565 32.9474 97.2941 32.4335 97.3313 31.9252L97.3314 31.9229C97.3691 31.4074 97.4065 30.8976 97.4561 30.3761L97.4563 30.3742C97.4626 30.3051 97.4701 30.2516 97.4779 30.2102C97.4841 30.1777 97.4905 30.1527 97.4968 30.1334C97.4993 30.1259 97.5015 30.12 97.5034 30.1154C97.5072 30.1142 97.5119 30.1129 97.5176 30.1116C97.5597 30.1014 97.6318 30.0928 97.7544 30.0928L97.7638 30.0927L97.7759 30.0923L97.7889 30.0915L97.7901 30.0914ZM65.2062 41.7293C64.9803 42.0202 64.7272 42.2891 64.4505 42.5324C64.192 42.7754 63.9094 42.9887 63.6081 43.1697C63.6422 43.3497 63.7058 43.5232 63.7965 43.6831C63.9106 44.0672 64.125 44.4143 64.4179 44.6887C64.7107 44.9632 65.0715 45.1552 65.4632 45.2451C66.0415 45.3953 66.6487 45.3953 67.2269 45.2451C67.8474 45.0805 68.3957 44.7158 68.7861 44.2079C68.8788 44.0874 68.9613 43.9605 69.0332 43.8285C68.9677 43.8508 68.9013 43.8708 68.834 43.8885C68.2557 44.0386 67.6485 44.0386 67.0703 43.8885C66.68 43.7982 66.3205 43.6066 66.0286 43.333C65.7367 43.0595 65.5226 42.7138 65.4082 42.3311C65.3253 42.136 65.2578 41.9348 65.2062 41.7293ZM62.8387 43.8891C63.0603 43.6943 63.2666 43.4831 63.456 43.2574C62.981 43.5203 62.4633 43.705 61.9229 43.8015C60.9745 43.9708 59.9972 43.8611 59.1104 43.4857C58.5035 43.2278 57.9979 42.7792 57.6708 42.2081C57.3437 41.6371 57.2131 40.9751 57.2988 40.3232C57.3411 39.4974 57.6213 38.7028 58.1036 38.0336C57.5281 38.3131 57.0191 38.7183 56.6167 39.2226C56.0564 39.9248 55.7306 40.784 55.6848 41.6799C55.5992 42.3321 55.7302 42.9943 56.0577 43.5653C56.3852 44.1364 56.8913 44.5849 57.4987 44.8424C58.3855 45.2177 59.3628 45.3274 60.3111 45.1581C61.2595 44.9888 62.1378 44.5479 62.8387 43.8891ZM59.7291 36.6714C59.9282 36.5755 60.1352 36.4945 60.3485 36.4296C60.4092 36.313 60.4578 36.145 60.5214 35.9066C60.5465 35.8565 60.5591 35.8062 60.5717 35.7559C60.5842 35.7055 60.5968 35.6552 60.6219 35.6051C60.6421 35.4917 60.6738 35.381 60.7161 35.2746C60.6015 35.2633 60.4866 35.253 60.3718 35.253C60.0919 35.2425 59.8183 35.1677 59.5722 35.0343C59.3261 34.9009 59.1144 34.7127 58.9534 34.4842C58.7925 34.2558 58.6867 33.9933 58.6445 33.7174C58.6022 33.4414 58.6246 33.1595 58.7098 32.8936C58.7959 32.4241 58.9741 31.9765 59.2339 31.5763C59.09 31.6439 58.9483 31.7165 58.8091 31.7943C58.3641 32.0591 57.981 32.4156 57.6855 32.84C57.3899 33.2644 57.1889 33.7468 57.0957 34.2549C57.0114 34.5205 56.9897 34.802 57.0324 35.0773C57.075 35.3526 57.1809 35.6144 57.3418 35.8423C57.5026 36.0702 57.7141 36.258 57.9597 36.3911C58.2053 36.5242 58.4784 36.599 58.7578 36.6096C58.884 36.6096 59.0103 36.6222 59.1365 36.6347C59.2623 36.6472 59.388 36.6597 59.5135 36.6597C59.5927 36.6649 59.6643 36.6691 59.7291 36.6714ZM65.0578 35.5544C64.6678 35.5547 64.2787 35.5725 63.8915 35.6075C63.8806 35.4891 63.8656 35.3711 63.8467 35.2536C63.8131 35.0124 63.7014 34.7888 63.5285 34.6167C63.3556 34.4446 63.131 34.3335 62.889 34.3003C62.6826 34.2259 62.4642 34.1918 62.2454 34.1996C62.2928 33.9729 62.386 33.7579 62.5196 33.568C62.6628 33.3646 62.8489 33.1947 63.0649 33.0704C63.2808 32.9461 63.5215 32.8704 63.7699 32.8485C64.0183 32.8266 64.2685 32.8591 64.503 32.9436C64.7451 32.9768 64.9697 33.0879 65.1426 33.26C65.3154 33.4321 65.4272 33.6557 65.4608 33.8969C65.5277 34.3121 65.5445 34.7337 65.511 35.1529C65.511 35.4532 65.3604 35.5544 65.0578 35.5544ZM64.753 37.6123C64.1301 37.644 63.5169 37.7797 62.9391 38.0139C62.5327 38.1286 62.1886 38.3995 61.9825 38.767C61.8838 38.8972 61.817 39.0478 61.7866 39.2067C62.2252 39.0723 62.6794 38.9923 63.1389 38.969C63.6447 38.969 63.6949 38.969 63.6423 39.416C63.608 39.7721 63.5098 40.1161 63.3551 40.4327C63.7249 40.3572 64.0699 40.1817 64.35 39.9216C64.8664 39.4292 65.1881 38.7683 65.2564 38.0593C65.3066 37.6077 65.3066 37.5576 64.753 37.6077V37.6123ZM120.622 33.6955C120.141 34.9432 119.919 36.2753 119.968 37.6111C119.947 38.2506 119.999 38.8905 120.12 39.5189C120.255 40.5473 120.72 41.5045 121.447 42.2468C122.174 42.9891 123.123 43.4765 124.151 43.6358C125.113 43.8188 126.098 43.8526 127.071 43.7359C128.086 43.6713 129.07 43.3738 129.947 42.8701C129.606 43.2571 129.218 43.6046 128.792 43.9042C127.796 44.6041 126.625 45.0156 125.409 45.0931C124.436 45.2096 123.451 45.1759 122.489 44.993C121.461 44.8335 120.512 44.346 119.786 43.6037C119.059 42.8614 118.594 41.9043 118.459 40.876C118.358 40.2451 118.307 39.6072 118.305 38.9683C118.256 37.6324 118.479 36.3003 118.96 35.0527C119.342 33.9587 120.019 32.9908 120.917 32.2555C121.198 32.025 121.498 31.8202 121.812 31.6426C121.291 32.2432 120.886 32.9392 120.622 33.6955ZM129.037 33.997C129.185 34.5534 129.253 35.1279 129.239 35.7034H129.236C129.222 36.8102 128.983 37.9028 128.536 38.9159C128.367 39.3684 128.064 39.7593 127.668 40.0372C127.426 40.2074 127.155 40.3304 126.87 40.4016C126.889 40.3593 126.907 40.3165 126.923 40.2731C127.371 39.2601 127.61 38.1676 127.626 37.0605C127.64 36.4847 127.572 35.9098 127.424 35.353C127.316 35.0091 127.102 34.7078 126.813 34.4916C126.524 34.2754 126.173 34.1553 125.812 34.1483C125.498 34.1093 125.183 34.1312 124.881 34.2102C125.083 33.7673 125.413 33.3926 125.831 33.136C126.308 32.8438 126.87 32.7221 127.425 32.7911C127.787 32.7982 128.137 32.9184 128.426 33.1349C128.715 33.3513 128.929 33.6529 129.037 33.997ZM150.389 33.849C150.948 32.9684 151.707 32.2339 152.604 31.7041C152.406 31.937 152.223 32.1842 152.059 32.4441C150.724 34.6222 150.273 37.2258 150.799 39.7235C150.962 40.5858 151.357 41.3876 151.943 42.0423C152.529 42.6971 153.284 43.18 154.125 43.4389C155.599 43.9484 157.187 44.0355 158.709 43.6903C159.156 43.6277 159.587 43.5004 159.992 43.3149C159.898 43.5109 159.768 43.6891 159.609 43.8405C158.908 44.5202 158.008 44.9597 157.04 45.0952C155.518 45.4404 153.93 45.3533 152.455 44.8438C151.614 44.585 150.86 44.1021 150.274 43.4473C149.688 42.7926 149.292 41.9908 149.13 41.1284C148.604 38.6307 149.054 36.027 150.389 33.849ZM158.91 38.3652C157.758 38.9015 156.53 39.2506 155.271 39.4012C155.121 39.0944 155.039 38.7583 155.032 38.4164C154.982 38.165 155.083 38.1149 155.285 38.1149C155.435 38.1149 155.573 38.1024 155.712 38.0899C155.85 38.0774 155.989 38.0649 156.141 38.0649C157.676 37.984 159.181 37.6089 160.573 36.9603C160.595 36.9509 160.616 36.9414 160.637 36.9317C160.623 36.9521 160.609 36.9724 160.595 36.9926C160.168 37.5941 159.586 38.0686 158.91 38.3652ZM157.348 32.7956C157.038 32.7942 156.733 32.8776 156.466 33.0369C156.2 33.1961 155.982 33.4251 155.837 33.6988C155.756 33.8461 155.681 33.9964 155.613 34.1493C155.637 34.1484 155.662 34.148 155.686 34.1481C155.928 34.1381 156.167 34.1995 156.374 34.3245C156.581 34.4496 156.747 34.6328 156.849 34.8511C156.972 35.1051 157.014 35.3905 156.969 35.6688C156.96 35.7213 156.949 35.7731 156.934 35.8239C157.426 35.6735 157.881 35.4116 158.259 35.0549C158.456 34.8523 158.586 34.5945 158.631 34.3162C158.676 34.038 158.634 33.7526 158.512 33.4986C158.412 33.2794 158.248 33.0953 158.041 32.9707C157.834 32.8461 157.594 32.7867 157.353 32.8002L157.348 32.7956Z" fill="#EFEFE5"/>
<path fill-rule="evenodd" clip-rule="evenodd" d="M11.8067 36.7785C11.1809 37.543 10.8422 38.501 10.8489 39.4875C10.3977 39.3037 9.98812 39.0312 9.64473 38.6863C8.86615 37.9556 8.36656 36.9779 8.23146 35.9207C8.18123 35.7193 8.13101 35.5692 7.92895 35.5191C7.84183 35.4978 7.75007 35.5059 7.66806 35.5421C7.58605 35.5783 7.51842 35.6407 7.47576 35.7193C7.47576 35.7693 7.42555 35.8194 7.37532 35.8694C6.98088 36.4857 6.71225 37.1734 6.58483 37.8933C6.4574 38.6131 6.47368 39.3509 6.63272 40.0644C6.79176 40.778 7.09045 41.4533 7.51169 42.0517C7.93293 42.6501 8.46845 43.1598 9.0876 43.5517C9.18668 43.6203 9.26941 43.7097 9.32996 43.8137C9.39051 43.9177 9.42739 44.0337 9.438 44.1534C9.50807 44.8875 9.71316 45.6025 10.043 46.2625C10.2405 46.6963 10.5595 47.0641 10.9617 47.3216C11.3639 47.5791 11.8321 47.7153 12.3101 47.714H13.874C14.1232 47.7039 14.3689 47.7741 14.5748 47.9142C15.0327 48.2193 15.5653 48.3946 16.1154 48.4213C16.6656 48.4479 17.2127 48.3249 17.6981 48.0655C18.0951 47.834 18.5474 47.7133 19.0074 47.7163H20.0656C20.1842 47.7163 20.3028 47.7121 20.4207 47.7078C21.004 47.6868 21.5696 47.6664 22.0302 48.168C22.056 48.168 22.0816 48.1806 22.107 48.1932C22.1321 48.2056 22.157 48.218 22.182 48.218C23.0088 48.4983 23.9129 48.4444 24.7002 48.0679C25.2486 47.8036 25.8557 47.6834 26.4639 47.7187H27.2721C27.7521 47.7263 28.2236 47.5921 28.6271 47.3329C29.0306 47.0738 29.348 46.7013 29.5392 46.2625C29.9019 45.5421 30.1242 44.7597 30.1945 43.9567C30.2806 43.3579 30.1936 42.7471 29.9437 42.1958C29.6938 41.6445 29.2913 41.1757 28.7835 40.8443C28.6351 40.7325 28.6512 40.6486 28.6697 40.5519C28.6762 40.5177 28.6831 40.4819 28.6831 40.4427C28.8013 39.8028 28.7816 39.1452 28.6253 38.5135C28.469 37.8817 28.1798 37.2904 27.7767 36.7785C27.7197 36.7096 27.6792 36.6287 27.6583 36.5419C27.6373 36.4551 27.6365 36.3647 27.6559 36.2775C27.6752 36.1903 27.7143 36.1087 27.77 36.0388C27.8258 35.9689 27.8968 35.9126 27.9776 35.8741C29.0477 35.3451 29.9625 34.5495 30.6333 33.5645C31.3041 32.5795 31.7082 31.4385 31.8063 30.2521C31.9272 28.7735 31.7387 27.286 31.2527 25.8838C31.186 25.7253 31.1685 25.5506 31.2024 25.3821C31.7063 23.5168 31.809 21.5665 31.5038 19.6589C31.3787 18.6737 31.0714 17.7202 30.5974 16.8467C30.4334 16.5378 30.1715 16.2916 29.8526 16.1464C29.5336 16.0011 29.1754 15.965 28.8337 16.0436C28.3968 16.1412 27.9738 16.2929 27.5746 16.4952C26.6659 16.9585 25.8181 17.532 25.0506 18.2027C24.9722 18.2788 24.8724 18.3292 24.7644 18.3471C24.6565 18.365 24.5456 18.3496 24.4468 18.3028C22.9786 17.6618 21.3945 17.3266 19.7916 17.318C18.1888 17.3094 16.6011 17.6275 15.1261 18.2528C15.0166 18.3224 14.8857 18.3505 14.7571 18.3322C14.6286 18.3138 14.5108 18.2501 14.4253 18.1527C13.6206 17.4473 12.7222 16.8558 11.7553 16.3951C10.043 15.5919 9.08526 15.9993 8.47674 17.7453C7.70605 20.1036 7.63669 22.6338 8.27701 25.0306C8.33688 25.3816 8.31975 25.7413 8.22679 26.0851C7.73386 27.6593 7.61392 29.3259 7.87639 30.954C8.07246 32.006 8.51137 32.9982 9.15842 33.8521C9.80547 34.706 10.6429 35.3982 11.6046 35.8741C11.6829 35.9152 11.7513 35.9727 11.805 36.0428C11.8587 36.1128 11.8965 36.1937 11.9157 36.2797C11.935 36.3658 11.9352 36.4549 11.9163 36.5411C11.8975 36.6272 11.8601 36.7082 11.8067 36.7785ZM8.53177 30.504C8.34191 29.1393 8.46165 27.7495 8.88217 26.4371C9.6048 23.9458 11.1269 21.7592 13.2154 20.2121C13.5168 19.9607 13.5658 19.7605 13.317 19.4591C12.9372 18.9408 12.5162 18.4539 12.0579 18.0029C12.2345 17.826 12.3713 17.9214 12.5057 18.015L12.5057 18.015C12.5243 18.0279 12.5428 18.0409 12.5614 18.053C13.1396 18.3975 13.6799 18.8017 14.1732 19.2589C14.3091 19.3597 14.4697 19.4222 14.6382 19.44C14.8066 19.4578 14.9768 19.4303 15.1309 19.3601C17.3163 18.4024 19.7496 18.158 22.0829 18.6617C22.8783 18.8362 23.6545 19.0885 24.4002 19.4148C24.5135 19.4709 24.6412 19.4913 24.7664 19.4732C24.8916 19.4551 25.0083 19.3994 25.101 19.3136C25.6033 18.8681 26.1421 18.4651 26.7116 18.1089L26.7137 18.1073C26.9151 17.9577 27.1166 17.8079 27.3669 17.9587C26.9371 18.3861 26.533 18.8386 26.1568 19.3136C25.8064 19.8164 25.8064 19.9165 26.3087 20.268C27.6725 21.3028 28.7967 22.6181 29.6051 24.1244C30.4135 25.6308 30.887 27.2929 30.9935 28.9978C31.0539 29.4827 31.0374 29.9741 30.9444 30.4539C30.7547 30.7754 30.4802 31.039 30.1507 31.2161C29.8213 31.3932 29.4495 31.477 29.0757 31.4584C27.9757 31.5281 26.8918 31.1677 26.054 30.4539C25.2454 29.7914 24.472 29.0874 23.7367 28.3448C23.2686 27.8857 22.763 27.466 22.2254 27.09C21.4909 26.5593 20.6049 26.2777 19.6977 26.2868C18.7906 26.2958 17.9103 26.5949 17.1866 27.1401C16.4567 27.6889 15.7706 28.2933 15.1344 28.9477C14.6529 29.4421 14.1461 29.9115 13.6161 30.3538C12.7496 31.0972 11.6357 31.4911 10.4928 31.4584C10.1132 31.4649 9.73746 31.3818 9.39623 31.2159C9.055 31.05 8.75798 30.8061 8.52943 30.504H8.53177ZM29.8928 23.0728C30.1384 23.4643 30.3354 23.8558 30.5324 24.2472L30.5458 24.274C30.596 24.163 30.6298 24.0454 30.6463 23.9249C30.7736 23.0607 30.824 22.1871 30.797 21.3141C30.7931 20.06 30.5554 18.8175 30.0962 17.6499C29.8439 17.0493 29.8439 17.0493 29.2891 17.3985L29.2389 17.4485L29.2537 17.5098C29.2327 17.4887 29.2102 17.4688 29.1864 17.4504C28.4712 17.8873 27.8259 18.4287 27.2721 19.0567C26.7687 19.6096 26.7687 19.6596 27.3223 20.1112C28.3095 20.9782 29.1748 21.974 29.8928 23.0728ZM10.244 17.5005C11.1067 17.9999 11.8613 18.6653 12.4633 19.4582C12.5637 19.6095 12.614 19.7096 12.4633 19.8598C11.3381 20.7702 10.3675 21.8553 9.58886 23.0735C9.38827 23.4745 9.18544 23.8749 8.9347 24.3258C8.77067 23.9819 8.70096 23.6007 8.73264 23.2212C8.53873 21.5874 8.67575 19.9313 9.1356 18.3512C9.16101 18.2499 9.19927 18.1483 9.23754 18.0467C9.2749 17.9475 9.31228 17.8483 9.33766 17.7494C9.46073 17.4071 9.52349 17.2326 9.63262 17.1962C9.74616 17.1584 9.90991 17.2701 10.244 17.498L10.244 17.5005ZM18.8418 27.2042C18.4312 27.3465 18.07 27.6029 17.8008 27.9431H17.7973C17.693 28.3178 17.7211 28.7168 17.877 29.0733C18.0329 29.4297 18.3071 29.7219 18.6535 29.9009C18.6857 29.933 18.7201 29.9605 18.7524 29.9864C18.8725 30.0824 18.9636 30.1553 18.8053 30.3525C18.7046 30.464 18.5798 30.5512 18.4403 30.6078C18.3009 30.6644 18.1504 30.6888 18.0002 30.6791C17.85 30.6695 17.7039 30.6261 17.5729 30.5522C17.4418 30.4783 17.3293 30.3758 17.2437 30.2524C17.0799 30.054 16.944 29.8343 16.8396 29.5994C16.8263 29.5485 16.8012 29.5014 16.7663 29.462C16.7314 29.4226 16.6877 29.3919 16.6387 29.3724C16.5897 29.3529 16.5368 29.3452 16.4842 29.3498C16.4317 29.3545 16.381 29.3714 16.3362 29.3992C16.2911 29.4199 16.2509 29.45 16.2183 29.4874C16.1857 29.5248 16.1615 29.5687 16.1473 29.6162C16.133 29.6636 16.1291 29.7135 16.1356 29.7626C16.1422 29.8117 16.1592 29.8588 16.1855 29.9009C16.387 30.4101 16.7374 30.8472 17.1912 31.1556C17.2723 31.2155 17.3408 31.2907 17.3927 31.377C17.4446 31.4633 17.4789 31.5589 17.4937 31.6585C17.586 32.3448 17.9053 32.9809 18.4012 33.4661C18.5659 33.6349 18.7636 33.7681 18.9821 33.8575C19.2007 33.9469 19.4353 33.9905 19.6715 33.9857C19.9076 33.9809 20.1403 33.9277 20.355 33.8295C20.5696 33.7314 20.7618 33.5902 20.9194 33.4149C21.4228 32.9563 21.7448 32.3332 21.8269 31.6585C21.8464 31.5743 21.8833 31.4952 21.9352 31.426C21.987 31.3569 22.0528 31.2993 22.1283 31.2569C22.6375 30.9616 23.0289 30.5003 23.2367 29.9509C23.263 29.9089 23.28 29.8617 23.2866 29.8127C23.2932 29.7636 23.2892 29.7136 23.2749 29.6662C23.2607 29.6188 23.2365 29.5749 23.2039 29.5375C23.1713 29.5001 23.1312 29.47 23.086 29.4492C23.0451 29.4188 22.9976 29.3982 22.9473 29.3893C22.897 29.3805 22.8453 29.3834 22.7964 29.398C22.7475 29.4126 22.7026 29.4384 22.6655 29.4734C22.6284 29.5084 22.6 29.5515 22.5826 29.5994C22.4595 29.8237 22.325 30.0416 22.1797 30.2524C21.7253 30.8053 21.3726 30.853 20.7185 30.5038C20.4183 30.1523 20.4183 30.1523 20.7687 29.9509C21.016 29.8247 21.2282 29.6396 21.3863 29.4119C21.5444 29.1843 21.6436 28.9212 21.6751 28.6461C21.7039 28.4946 21.7021 28.3389 21.6696 28.1881C21.6371 28.0373 21.5747 27.8945 21.4859 27.7681C21.3972 27.6418 21.284 27.5344 21.153 27.4523C21.022 27.3702 20.8759 27.315 20.7232 27.2901C20.5361 27.1936 20.3288 27.1421 20.1182 27.1399C19.6953 27.0396 19.2524 27.0619 18.8418 27.2042ZM20.6234 32.5605C20.5489 32.7391 20.4236 32.8921 20.2622 32.9994C20.1008 33.1067 19.9111 33.164 19.7171 33.164C19.5231 33.164 19.3334 33.1067 19.172 32.9994C19.0106 32.8921 18.8847 32.7396 18.8102 32.5611C18.6093 32.4109 18.5592 32.2594 18.8605 32.2117C19.4484 32.0113 20.0865 32.0113 20.6744 32.2117C20.9307 32.2965 20.7888 32.418 20.6784 32.5126L20.6625 32.5261C20.6482 32.5381 20.6346 32.5496 20.6234 32.5605ZM9.7402 32.4613C9.44456 32.0279 9.10694 31.6244 8.73222 31.2566H8.73106C8.91561 32.1513 9.33244 32.9821 9.93993 33.6661C11.1618 34.9505 12.7406 35.8421 14.4741 36.2268C17.1738 36.903 19.9787 37.0563 22.7365 36.6784C24.5633 36.495 26.331 35.9307 27.9247 35.0221C28.6199 34.6216 29.2277 34.0866 29.7124 33.4485C30.197 32.8104 30.5486 32.0822 30.7466 31.3067C30.5644 31.3067 30.5057 31.4297 30.4591 31.5273C30.454 31.5379 30.449 31.5483 30.4441 31.5581C30.2398 31.8963 30.0053 32.2153 29.7433 32.5114C28.4382 33.792 26.7969 34.6795 25.0083 35.0721C22.6181 35.6419 20.1496 35.8114 17.7036 35.5738C15.7687 35.4817 13.8693 35.0219 12.1077 34.2189C11.2248 33.7702 10.4244 33.176 9.7402 32.4613ZM9.73762 41.9042C9.62495 42.1606 9.54127 42.4287 9.48812 42.7036C9.43673 42.905 9.38651 42.9551 9.23583 42.8037C8.44893 42.2438 7.84968 41.4605 7.5163 40.556C7.18293 39.6515 7.13091 38.6679 7.36704 37.7335H7.37171C7.41607 37.4551 7.50106 37.1849 7.62397 36.931C7.92889 37.7864 8.42864 38.5597 9.08396 39.1903C9.52939 39.6418 10.0607 40.0003 10.6467 40.2448C11.0497 40.445 11.0497 40.6464 10.697 40.8966C10.3195 41.1558 9.95682 41.503 9.73762 41.9042ZM18.4048 45.3554V45.3638L18.4036 45.3545L18.4048 45.3554ZM18.4048 45.3554V43.0544C18.4048 42.7053 18.2541 42.5016 17.9014 42.5528C17.7701 42.4332 17.6815 42.2743 17.6491 42.1C17.3315 41.1406 16.8545 40.2412 16.2382 39.4392C16.0963 39.1808 15.8632 38.9842 15.5841 38.8874C15.5668 38.8789 15.5496 38.8719 15.5329 38.8651C15.4513 38.8316 15.382 38.8032 15.382 38.636C15.6992 38.6759 16.0163 38.731 16.3334 38.7862C16.8222 38.8712 17.311 38.9563 17.7998 38.9852C18.0815 38.9852 18.0138 39.1164 17.922 39.2942L17.9014 39.3344C17.7459 39.689 17.706 40.0833 17.7873 40.4617C17.8686 40.8401 18.067 41.1835 18.3546 41.4435C18.637 41.7138 18.9926 41.8959 19.3776 41.9672C19.7626 42.0386 20.1601 41.9961 20.5212 41.8451C20.9736 41.6404 21.3325 41.2741 21.5271 40.8185C21.7217 40.363 21.7379 39.8513 21.5724 39.3845C21.4217 38.9829 21.5724 38.9829 21.8749 38.9829C22.3914 38.9402 22.9081 38.8608 23.4585 38.7763L23.4618 38.7758C23.5547 38.7615 23.6486 38.7471 23.7437 38.7326C23.7799 38.8408 23.7379 38.897 23.6928 38.9574C23.6753 38.9808 23.6573 39.0049 23.6433 39.0329C22.816 39.9727 22.213 41.0869 21.8796 42.2921C21.8646 42.322 21.854 42.3519 21.844 42.3806C21.8204 42.4477 21.7993 42.5076 21.7289 42.5435C21.2757 42.4923 21.1741 42.5935 21.1741 43.0451C21.1741 43.7982 21.1741 44.5513 21.1239 45.3044C21.0914 45.3323 21.0582 45.3591 21.0243 45.3849C21.025 45.6034 21.0372 45.8105 21.0494 46.0176L21.0494 46.0176C21.0619 46.2309 21.0745 46.4442 21.0745 46.67C21.0745 46.9214 21.0243 46.9715 20.8222 46.9715H18.603C18.401 46.9715 18.3005 46.9214 18.3507 46.7212C18.3925 46.2705 18.4093 45.8178 18.401 45.3652H18.4045L18.428 45.3781L18.4479 45.3888C18.4334 45.3779 18.419 45.3667 18.4048 45.3554ZM15.2816 46.3176C16.0703 46.1318 16.9006 46.2569 17.5989 46.6668C17.5989 47.1184 17.4483 47.47 16.9951 47.5701C16.5429 47.6201 16.036 47.6226 15.5838 47.5725C15.3242 47.5299 15.077 47.4315 14.8594 47.2842C14.6418 47.1369 14.4589 46.9441 14.3235 46.7193C13.5867 45.809 13.05 44.76 12.6628 43.6559C12.0836 42.4753 11.7253 41.1992 11.6058 39.8905C11.5453 39.2022 11.6661 38.5101 11.9562 37.8826C12.2085 37.3809 12.2085 37.3809 12.657 37.6824C12.7084 37.7077 12.7466 37.733 12.7849 37.7583C12.8223 37.7831 12.8596 37.8078 12.9093 37.8326L12.9151 37.8337C12.5084 39.2811 12.6153 40.8241 13.2176 42.2021C13.6462 43.5338 14.2565 44.8004 15.0315 45.9664C15.0576 45.9949 15.0772 46.0287 15.0889 46.0656C15.1006 46.1024 15.1041 46.1413 15.0992 46.1796C15.0943 46.2179 15.0811 46.2547 15.0606 46.2874C15.04 46.3201 15.0126 46.348 14.9801 46.3691L14.9788 46.3733C15.0813 46.3762 15.1834 46.3582 15.2789 46.3201L15.2816 46.3153V46.3176ZM21.8819 46.6691C22.2179 46.4646 22.5912 46.3285 22.9803 46.2685C23.3695 46.2086 23.7666 46.226 24.1489 46.3199L24.2495 46.32C25.3558 44.6126 26.152 42.725 26.6122 40.745C26.8814 39.788 26.8463 38.7713 26.5117 37.835C26.5373 37.809 26.5758 37.7832 26.6141 37.7576C26.6511 37.7329 26.6879 37.7083 26.7126 37.6837C27.3176 37.3822 27.3176 37.3822 27.5699 37.9852C27.9307 38.9864 27.9658 40.0754 27.6704 41.0976C27.2011 42.9292 26.4388 44.6735 25.4126 46.2633C25.3617 46.3395 25.3107 46.4032 25.2595 46.467L25.2595 46.467C25.2099 46.5289 25.1601 46.591 25.1101 46.6649C25.1238 46.6738 25.1181 46.6712 25.1114 46.6682C25.104 46.6649 25.0954 46.6611 25.1101 46.6714C24.8279 47.0667 24.3721 47.4126 23.9103 47.5659C23.4484 47.7193 22.9496 47.7224 22.4858 47.5748C22.0326 47.4747 21.8819 47.2254 21.8819 46.6714V46.6691ZM19.3621 41.2477C19.2022 41.1958 19.0553 41.1106 18.9311 40.9976C18.807 40.8846 18.7084 40.7466 18.6421 40.5926C18.5757 40.4387 18.5431 40.2724 18.5463 40.1049C18.5496 39.9373 18.5887 39.7725 18.661 39.6212C18.7332 39.4699 18.8371 39.3358 18.9656 39.2277C19.094 39.1196 19.2441 39.04 19.4059 38.9944C19.5677 38.9487 19.7373 38.9379 19.9036 38.9628C20.052 38.985 20.1907 39.0132 20.32 39.0884C20.5772 39.2333 20.7711 39.4683 20.864 39.7478C20.9569 40.0273 20.9423 40.3312 20.8228 40.6005C20.7034 40.8698 20.4877 41.0851 20.2177 41.2047C19.9479 41.3243 19.6426 41.3396 19.3621 41.2477ZM21.6297 38.2862C20.9744 38.4363 20.9289 38.3863 20.9289 37.7845C20.9289 37.483 21.0807 37.4353 21.3318 37.4353C22.644 37.3861 23.9458 37.1837 25.2107 36.8324C25.6544 36.7216 26.0918 36.5876 26.5212 36.4308C26.6719 36.3807 26.8237 36.3307 26.7735 36.5809C26.7478 36.6086 26.7214 36.6357 26.6945 36.662C26.7191 36.6508 26.7439 36.6396 26.7688 36.6286C26.8119 36.8433 26.6693 36.9107 26.5025 36.9894C26.4749 37.0025 26.4466 37.0158 26.4184 37.0302C25.1654 37.6335 23.82 38.0237 22.4379 38.1849C22.1729 38.2428 21.9031 38.2763 21.632 38.285H21.6296L21.6221 38.2832L21.625 38.2862H21.6297ZM12.6616 36.7281C12.6114 36.4266 12.7119 36.3789 12.9642 36.4766C14.5834 37.061 16.2815 37.3996 18.0017 37.4811C18.5051 37.4811 18.5554 37.5312 18.5051 38.1341C18.47 38.4496 18.313 38.422 18.1522 38.3938C18.1378 38.3913 18.1148 38.3866 18.0866 38.3809C17.9791 38.3591 17.798 38.3224 17.7494 38.3343L17.7505 38.3324C16.0832 38.2258 14.4549 37.7831 12.9641 37.0307C12.9332 37.0103 12.9024 36.9919 12.8728 36.9744C12.7572 36.9056 12.6616 36.8476 12.6616 36.7281ZM19.6099 38.1973C19.6601 38.191 19.7127 38.1845 19.7652 38.1845C19.8066 38.1708 19.8593 38.1757 19.914 38.1808C20.059 38.1943 20.2184 38.2092 20.2184 37.883C20.2184 37.5048 20.0404 37.5159 19.8336 37.5289C19.7947 37.5314 19.7549 37.5339 19.715 37.5339C19.6882 37.5339 19.6619 37.5333 19.6364 37.5327C19.4222 37.5278 19.2618 37.5242 19.2618 37.883C19.2618 38.2405 19.4192 38.221 19.6099 38.1973ZM11.9749 46.9485C12.2336 47.0076 12.5015 47.0149 12.763 46.9699L13.2185 46.971C13.4708 46.971 13.4708 46.921 13.3704 46.7196C12.4073 45.189 11.6605 43.5334 11.1512 41.7995C11.1009 41.4992 10.9993 41.5993 10.8487 41.7495C10.5894 41.9987 10.3988 42.3101 10.295 42.6539C10.0158 43.5288 10.0695 44.4755 10.4457 45.3135C10.4867 45.5748 10.5796 45.8254 10.7187 46.0506C10.8579 46.2758 11.0406 46.4712 11.2563 46.6253C11.4719 46.7795 11.7162 46.8893 11.9749 46.9485ZM28.2788 41.7995C27.7308 43.6232 26.9342 45.3633 25.9113 46.971H25.9043C26.391 46.9961 26.8787 46.9961 27.3654 46.971C27.6716 46.9307 27.9623 46.8125 28.2094 46.6278C28.4565 46.4431 28.6517 46.1981 28.7764 45.9165C29.0819 45.3218 29.2699 44.6741 29.33 44.0087C29.3816 43.6041 29.3458 43.1932 29.2249 42.8035C29.104 42.4139 28.9009 42.0545 28.6292 41.7495C28.4809 41.5993 28.3792 41.4992 28.2788 41.7995ZM16.3898 23.2235C16.3853 23.3698 16.3487 23.5133 16.2827 23.6441C16.2168 23.7748 16.1229 23.8897 16.0078 23.9806C15.8927 24.0714 15.7591 24.1362 15.6163 24.1703C15.4734 24.2044 15.3249 24.207 15.1809 24.178C15.1534 24.1813 15.1255 24.1784 15.0992 24.1695C15.0729 24.1607 15.049 24.1461 15.0291 24.1268C14.2734 24.0267 13.8704 23.6751 13.9218 23.1234C13.9893 22.7941 14.1746 22.5005 14.4432 22.2973C14.7118 22.094 15.0454 21.9951 15.3818 22.0188C15.6703 22.0583 15.9336 22.2037 16.12 22.4266C16.3065 22.6494 16.4027 22.9336 16.3898 23.2235ZM23.3928 22.4395C23.1967 22.6535 23.0887 22.9333 23.0904 23.2231L23.0915 23.2184C23.0872 23.3875 23.1266 23.5547 23.206 23.7042C23.2854 23.8536 23.402 23.9802 23.5447 24.0716C23.813 24.1847 24.1051 24.2301 24.3952 24.2039C24.6853 24.1777 24.9644 24.0807 25.2079 23.9215C25.3242 23.8475 25.4181 23.7434 25.4798 23.6205C25.5415 23.4975 25.5687 23.3602 25.5583 23.2231C25.5045 22.8927 25.3317 22.5931 25.0722 22.3806C24.8127 22.168 24.4843 22.057 24.1486 22.0684C23.8588 22.093 23.589 22.2255 23.3928 22.4395ZM12.5976 25.4888C12.3054 25.7988 12.1473 26.2108 12.1574 26.6359C12.1188 26.9005 12.1797 27.1699 12.3285 27.3923C12.4773 27.6148 12.7034 27.7745 12.9633 27.8407C13.6276 27.9851 14.3215 27.8967 14.9279 27.5904C15.1522 27.5035 15.3371 27.3384 15.4484 27.1258C15.5597 26.9132 15.5897 26.6676 15.5329 26.4346C15.4781 26.0053 15.2586 25.614 14.9203 25.3427C14.5821 25.0714 14.1515 24.9412 13.719 24.9796C13.2926 24.996 12.8898 25.1789 12.5976 25.4888ZM14.5756 26.0335C14.5756 25.682 14.3747 25.5819 14.0722 25.5318C14.0016 25.5227 13.9298 25.5289 13.8619 25.5502C13.7939 25.5714 13.7315 25.6072 13.6788 25.6549C13.6261 25.7026 13.5845 25.7612 13.5568 25.8266C13.5291 25.892 13.5161 25.9626 13.5185 26.0335C13.5195 26.1796 13.578 26.3196 13.6816 26.423C13.7852 26.5265 13.9255 26.5852 14.0722 26.5864C14.1422 26.5847 14.2111 26.5688 14.2748 26.5398C14.3385 26.5107 14.3956 26.4691 14.4427 26.4174C14.4898 26.3657 14.5258 26.305 14.5487 26.239C14.5715 26.173 14.5807 26.1031 14.5756 26.0335ZM25.8604 27.8918C25.517 27.8689 25.1781 27.8012 24.8524 27.6904C24.6754 27.6488 24.51 27.5678 24.3687 27.4537C24.2275 27.3395 24.1138 27.195 24.0364 27.031C23.9589 26.867 23.9196 26.6876 23.9213 26.5064C23.9231 26.3251 23.9659 26.1466 24.0465 25.984C24.1903 25.6121 24.461 25.3025 24.8111 25.1097C25.1612 24.9168 25.5683 24.853 25.9608 24.9295C26.3546 25.0058 26.7081 25.2198 26.9576 25.5328C27.2071 25.8459 27.3362 26.2375 27.3215 26.637C27.3215 27.4902 26.8181 27.8918 25.8604 27.8918ZM25.961 26.1352C25.9501 26.2601 25.8921 26.3761 25.7986 26.4599C25.7052 26.5437 25.5833 26.5891 25.4576 26.5869C25.311 26.586 25.1706 26.5276 25.0667 26.4243C24.9629 26.3211 24.904 26.1813 24.9028 26.0351C24.9012 25.8965 24.9523 25.7623 25.0459 25.6597C25.1396 25.5572 25.2687 25.4937 25.4074 25.4823C25.4879 25.4858 25.5668 25.5059 25.6391 25.5414C25.7114 25.5768 25.7756 25.6267 25.8276 25.6881C25.8796 25.7494 25.9183 25.8208 25.9412 25.8977C25.9642 25.9747 25.9709 26.0556 25.961 26.1352Z" fill="#EFEFE5"/>
</g>
</svg>
