<svg width="170" height="66" viewBox="0 0 170 66" fill="none" xmlns="http://www.w3.org/2000/svg">
<path opacity="0.8" fill-rule="evenodd" clip-rule="evenodd" d="M49.1314 14.3165L51.5481 18.7426L51.5503 18.7416C51.7796 19.1628 51.4924 19.6899 51.0326 19.6899C51.0326 19.6899 35.3104 19.6501 29.8529 19.6899C29.068 19.6962 28.119 20.0692 29.6972 23.0032C31.5521 26.4528 37.2021 36.748 37.2021 36.748C37.2562 36.8468 37.2842 36.9578 37.2832 37.0704C37.2823 37.1829 37.2526 37.2934 37.1969 37.3914L34.8201 41.5461C34.7699 41.6392 34.6952 41.7168 34.6039 41.7705C34.5127 41.8242 34.4084 41.8521 34.3024 41.851C34.1964 41.8499 34.0927 41.82 34.0026 41.7644C33.9124 41.7088 33.8393 41.6297 33.7911 41.5357C33.7911 41.5357 27.8317 30.3917 25.5002 26.3511C25.2056 25.8419 25.6653 24.9271 26.1904 23.8845C26.6817 22.9079 27.2299 21.8181 27.2678 20.8436C27.3088 19.7754 26.776 18.7899 26.0759 17.4949L26.0746 17.4925L26.0632 17.4714C25.6736 16.7493 25.2319 15.931 24.8089 14.9483C24.6185 14.5051 24.8668 14 25.3266 14H48.6137C48.7206 14.0015 48.8251 14.0317 48.9162 14.0874C49.0073 14.1431 49.0816 14.2222 49.1314 14.3165ZM19.08 30.749L21.5041 26.3186L21.502 26.3176C21.5509 26.2228 21.625 26.1432 21.7164 26.0876C21.8077 26.0321 21.9126 26.0027 22.0197 26.0027C22.1267 26.0027 22.2316 26.0321 22.323 26.0876C22.4143 26.1432 22.4885 26.2228 22.5373 26.3176C22.5373 26.3176 30.3495 40.7257 33.1061 45.7009C33.5017 46.4155 34.2835 47.0977 35.8996 44.1836C37.8008 40.7581 43.4193 30.4294 43.4193 30.4294C43.4698 30.333 43.546 30.2524 43.6396 30.1964C43.7331 30.1403 43.8404 30.1111 43.9495 30.1119L48.539 30.2031C48.9946 30.2125 49.2724 30.7354 49.044 31.1524C49.044 31.1524 42.8837 42.1874 40.7373 46.3464C40.4659 46.8714 39.4863 46.9091 38.37 46.951L38.367 46.9511C37.3219 46.9909 36.1566 47.0353 35.3398 47.4886C34.4465 47.9845 33.9064 48.9613 33.1967 50.2445L33.1892 50.258C32.7894 50.9832 32.336 51.8047 31.7352 52.6933C31.4669 53.0883 30.9292 53.1156 30.6988 52.6943L19.08 31.3819C19.0275 31.2846 19 31.1759 19 31.0654C19 30.955 19.0275 30.8463 19.08 30.749ZM42.9837 50.0265H47.8162C47.9232 50.0248 48.0277 49.9945 48.1188 49.9386C48.21 49.8827 48.2842 49.8034 48.3338 49.709L59.98 28.385C60.2094 27.9627 59.9201 27.4839 59.4624 27.4357C58.4413 27.3315 57.5461 27.3267 56.7571 27.3226L56.7436 27.3225C55.3317 27.3162 54.2595 27.311 53.4052 26.7388C52.6268 26.2178 52.0088 25.1735 51.454 24.2357L51.4513 24.2313C50.86 23.2296 50.3413 22.3514 49.7774 22.3661C45.3016 22.4824 33.1966 22.3661 33.1966 22.3661C32.7421 22.3661 32.4517 22.8827 32.6726 23.3029L34.8874 27.5551C34.9362 27.6522 35.0109 27.7341 35.1034 27.7918C35.1958 27.8494 35.3023 27.8807 35.4114 27.882C35.4114 27.882 46.6693 27.8569 50.4202 27.882C53.6135 27.9041 53.4452 28.9603 53.0559 29.6802C50.3613 34.6984 42.466 49.0761 42.466 49.0761C42.2367 49.4983 42.5239 50.0244 42.9837 50.0244V50.0265ZM70.2806 27.9422C70.9381 28.6799 71.7199 29.0561 72.6037 29.0561L72.6016 29.0551H76.8733L75.9411 31.1225H71.5147C69.907 31.1225 68.5266 30.4875 67.4145 29.2342C66.3571 28.0481 65.8205 26.6188 65.8205 24.9873C65.8205 23.3547 66.3571 21.9296 67.4145 20.7487C68.5319 19.4965 69.9102 18.8604 71.5137 18.8604H76.8586V20.9268H72.6037C71.7209 20.9268 70.9381 21.2999 70.2806 22.0323C69.563 22.836 69.1989 23.8241 69.1989 24.9873C69.1989 26.1504 69.563 27.1438 70.2806 27.9422ZM68.1131 24.9873C68.1131 26.1504 68.4761 27.1438 69.1937 27.9422V27.9443C69.8376 28.6674 70.5994 29.0404 71.4621 29.0551C70.7993 28.9251 70.2006 28.5657 69.6798 27.9821C68.9538 27.171 68.5855 26.1577 68.5855 24.9873C68.5855 23.8158 68.9538 22.8088 69.6798 21.9935C70.2006 21.4141 70.7972 21.0578 71.46 20.9289C70.6004 20.9436 69.8376 21.3145 69.1937 22.0323C68.4782 22.836 68.1131 23.8241 68.1131 24.9873ZM84.1752 18.6089C86.2669 18.6089 87.8956 19.245 89.0119 20.4972C90.0662 21.6771 90.5986 23.1881 90.5986 24.9873C90.5986 26.7854 90.0662 28.2985 89.0119 29.4847C87.8956 30.7369 86.2669 31.3729 84.1752 31.3729C82.0825 31.3729 80.4548 30.7369 79.3374 29.4847C78.2895 28.3111 77.7561 26.8064 77.7508 25.0135H77.7434V24.9873C77.7434 23.1902 78.28 21.6792 79.3374 20.4972C80.4548 19.245 82.0825 18.6089 84.1752 18.6089ZM80.0329 24.9873C80.0329 26.3107 80.3969 27.39 81.1145 28.1948H81.1124C81.5154 28.6464 82.0583 28.9639 82.7306 29.1389C82.2866 28.9534 81.8741 28.6485 81.5027 28.2325C80.7768 27.4235 80.4085 26.3243 80.4085 24.9873C80.4085 23.6492 80.7768 22.5562 81.5027 21.742C81.8741 21.3292 82.2855 21.0285 82.7295 20.8451C82.0593 21.0201 81.5154 21.3334 81.1124 21.7808C80.3969 22.5835 80.0329 23.6628 80.0329 24.9873ZM84.3309 29.3055C85.6208 29.2783 86.5941 28.9052 87.2275 28.1948C87.944 27.3942 88.3101 26.3107 88.3101 24.9862C88.3101 23.6628 87.945 22.5835 87.2285 21.7798C86.6004 21.0746 85.6251 20.7036 84.3309 20.6764C83.4871 20.7057 82.739 21.0767 82.1046 21.7808C81.3891 22.5835 81.0251 23.6596 81.0251 24.9862C81.0251 26.3149 81.3881 27.3942 82.1046 28.1927C82.738 28.9031 83.4871 29.2783 84.3309 29.3055ZM102.082 25.5164C101.464 26.2059 100.709 26.6146 99.8332 26.7299L103.213 31.1225H100.43L100.422 31.1141L97.0703 26.7602H95.1449L95.1407 29.6366L94.4105 31.2063V20.9268H94.0328V31.1246H91.7412V18.8615H99.3587C100.43 18.8615 101.345 19.2806 102.082 20.1053C102.758 20.8639 103.102 21.7808 103.102 22.8151C103.102 23.8493 102.758 24.7578 102.082 25.5164ZM95.1449 26.602L95.9992 24.6928H99.3587C99.708 24.6928 100.026 24.5346 100.304 24.2244C100.639 23.8472 100.811 23.3809 100.811 22.8151C100.811 22.2503 100.64 21.7735 100.304 21.3963C100.026 21.085 99.708 20.9268 99.3587 20.9268H95.1449V26.602ZM112.486 27.455V18.8594L114.74 18.8604V31.1225H112.501L112.494 31.1141L107.706 24.9265L107.704 29.6052L106.965 31.1728V23.8084L106.59 23.2321V31.1225H104.336V18.8594H106.062L106.069 18.8699L112.486 27.455ZM119.566 27.7672L118.821 29.3327L118.82 29.3338V20.9279H118.399V31.1235H116.108V18.8604H125.77V20.9268H119.569V23.9572H125.788L125.775 23.9949L125.023 26.0247H119.57L119.566 27.7672ZM118.521 31.1217L119.455 29.0554L126.152 29.0543L126.139 29.092L125.389 31.1217H118.521ZM129.581 20.9261H129.204V31.1238H126.912V18.8607H134.529C135.6 18.8607 136.516 19.2799 137.252 20.1045C137.928 20.8632 138.272 21.7801 138.272 22.8143C138.272 23.8485 137.928 24.757 137.252 25.5157C136.635 26.2052 135.879 26.6138 135.003 26.7281L138.384 31.1217H135.6L135.593 31.1134L132.24 26.7595H130.315L130.311 29.6359L129.581 31.2056V20.9261ZM130.315 26.6013L131.169 24.6921H134.529C134.878 24.6921 135.197 24.5338 135.474 24.2237C135.809 23.8464 135.981 23.3801 135.981 22.8143C135.981 22.2495 135.809 21.7727 135.474 21.3955C135.197 21.0843 134.878 20.9261 134.529 20.9261H130.315V26.6013ZM148.963 20.9261H148.464L148.478 20.8915L149.228 18.8586H149.728L149.715 18.8964L148.963 20.9261ZM148.011 24.9687C147.337 24.6302 146.524 24.3378 145.597 24.0989C144.671 23.8611 143.979 23.6463 143.54 23.465C142.819 23.1684 142.454 22.742 142.454 22.195C142.454 21.8135 142.554 21.5055 142.752 21.2781C142.951 21.0444 143.221 20.9281 143.555 20.9281H148.095L148.845 18.8984L148.859 18.8607H142.684C141.763 18.8607 140.974 19.1541 140.337 19.7356C139.649 20.3633 139.299 21.1911 139.299 22.1981C139.306 23.5121 139.874 24.4793 140.991 25.0713C141.659 25.4339 142.561 25.7514 143.667 26.0176C144.768 26.2827 145.564 26.5383 146.029 26.7762C146.577 27.0487 146.852 27.4867 146.841 28.0787C146.835 28.4193 146.723 28.6728 146.507 28.8353C146.324 28.982 146.068 29.0564 145.748 29.0564H139.742L138.991 31.0871L138.978 31.1238H145.75C145.895 31.1238 146.036 31.1175 146.175 31.1028V31.1238H146.623C147.508 31.1238 148.277 30.8765 148.908 30.384C149.617 29.8234 149.985 29.0585 150 28.1059C150.02 26.6976 149.352 25.6435 148.018 24.9718L148.011 24.9687ZM148.03 30.3819C148.738 29.8213 149.106 29.0564 149.121 28.1038C149.141 26.6955 148.474 25.6414 147.14 24.9697C146.465 24.6291 145.653 24.3378 144.724 24.0979C143.798 23.8611 143.105 23.6463 142.667 23.465C141.945 23.1684 141.579 22.742 141.579 22.195C141.579 21.8135 141.68 21.5055 141.879 21.2781C142.078 21.0444 142.347 20.9281 142.682 20.9281H142.736C142.554 20.9862 142.392 21.0945 142.269 21.2404C142.063 21.4782 141.957 21.7989 141.957 22.195C141.957 22.7681 142.334 23.2124 143.075 23.5163C143.516 23.6997 144.211 23.9145 145.139 24.1524C146.063 24.3902 146.873 24.6815 147.545 25.0189C148.86 25.6801 149.517 26.7186 149.498 28.1018C149.483 29.0354 149.122 29.7888 148.428 30.3358C147.875 30.7619 147.205 31.012 146.507 31.0536C147.063 30.9564 147.585 30.7251 148.03 30.3798V30.3819ZM72.2523 35.8119C70.1596 35.8119 68.5319 36.4469 67.4145 37.7002C66.3571 38.8811 65.8205 40.3932 65.8205 42.1892V42.2164H65.8279C65.8331 44.0083 66.3666 45.513 67.4145 46.6866C68.5319 47.9398 70.1606 48.5748 72.2523 48.5748C74.345 48.5748 75.9727 47.9398 77.089 46.6866C78.1432 45.5015 78.6767 43.9884 78.6767 42.1892C78.6767 40.3911 78.1432 38.879 77.089 37.7002C75.9727 36.4469 74.345 35.8119 72.2523 35.8119ZM69.1905 38.9838C69.5946 38.5353 70.1375 38.223 70.8077 38.048C70.3367 38.2511 69.9177 38.5573 69.5819 38.944C68.8559 39.7592 68.4877 40.8511 68.4877 42.1892C68.4877 43.5273 68.8559 44.6255 69.5819 45.4344C69.9533 45.8515 70.3658 46.1553 70.8098 46.3408C70.1364 46.1658 69.5946 45.8483 69.1916 45.3977C68.474 44.5919 68.11 43.5126 68.11 42.1892C68.11 40.8657 68.4751 39.7864 69.1905 38.9838ZM75.3056 45.3967C74.6712 46.1071 73.6979 46.4802 72.408 46.5074C71.5642 46.4802 70.815 46.105 70.1817 45.3946C69.4651 44.5961 69.1022 43.5168 69.1022 42.1892C69.1022 40.8615 69.4662 39.7864 70.1817 38.9838C70.815 38.2796 71.5642 37.9087 72.408 37.8793C73.7021 37.9066 74.6775 38.2775 75.3056 38.9817C76.0221 39.7864 76.3872 40.8657 76.3872 42.1892C76.3872 43.5126 76.0221 44.5961 75.3056 45.3967ZM79.8204 48.3255H82.1119V38.1298H82.5338V48.2049L83.2788 46.6394L83.283 43.2276H86.9308L87.8651 41.1581H83.283V38.1298H88.207V36.0603H79.8214V48.3234L79.8204 48.3255ZM101.314 42.1745C100.64 41.835 99.8269 41.5427 98.9 41.3037C97.9741 41.0659 97.2818 40.8511 96.843 40.6698C96.1223 40.3743 95.7562 39.9468 95.7562 39.4008C95.7562 39.0194 95.8561 38.7103 96.055 38.4839C96.2538 38.2503 96.5232 38.134 96.8578 38.134H101.398L102.148 36.1032L102.162 36.0655H95.9855C95.066 36.0655 94.2769 36.3589 93.6393 36.9415C92.9522 37.5681 92.6018 38.3959 92.6018 39.4029C92.6081 40.718 93.1763 41.6852 94.2937 42.2772C94.9628 42.6398 95.8635 42.9562 96.9693 43.2234C98.0709 43.4875 98.8663 43.7442 99.3314 43.9821C99.8785 44.2545 100.154 44.6925 100.144 45.2846C100.137 45.6241 100.026 45.8787 99.8111 46.0411C99.627 46.1868 99.3703 46.2612 99.0504 46.2612H93.0448L92.2936 48.2919L92.2809 48.3296H99.0525C99.1977 48.3296 99.3387 48.3234 99.4776 48.3087V48.3296H99.9258C100.81 48.3296 101.58 48.0813 102.211 47.5899C102.919 47.0292 103.287 46.2643 103.302 45.3118C103.323 43.9024 102.656 42.8483 101.322 42.1766L101.314 42.1745ZM101.333 47.5878C102.041 47.0271 102.409 46.2622 102.424 45.3097C102.445 43.9003 101.777 42.8462 100.442 42.1745C99.768 41.835 98.9557 41.5427 98.0267 41.3037C97.1008 41.0659 96.4085 40.8511 95.9698 40.6698C95.248 40.3743 94.8829 39.9468 94.8829 39.4008C94.8829 39.0194 94.9828 38.7103 95.1817 38.4839C95.3806 38.2503 95.6499 38.134 95.9845 38.134H96.0381C95.8562 38.192 95.6946 38.3003 95.572 38.4462C95.3658 38.683 95.2596 39.0047 95.2596 39.3998C95.2596 39.974 95.6373 40.4173 96.378 40.7222C96.8188 40.9056 97.5143 41.1204 98.4402 41.3582C99.3661 41.595 100.175 41.8874 100.848 42.2248C102.163 42.885 102.819 43.9223 102.8 45.3076C102.786 46.2402 102.426 46.9936 101.73 47.5417C101.177 47.9672 100.509 48.217 99.8111 48.2584C100.366 48.1611 100.888 47.9302 101.333 47.5857V47.5878ZM102.267 38.1319H101.767L101.783 38.0952L102.533 36.0624H103.033L103.018 36.099L102.267 38.1319ZM113.838 37.3093C114.515 38.068 114.859 38.9807 114.859 40.0191L114.861 40.0212C114.861 41.0554 114.517 41.9629 113.84 42.7215C113.103 43.5472 112.189 43.9664 111.119 43.9664H107.365L107.361 46.8427L106.623 48.4093V38.1329H106.239V48.3286H103.947V36.0645H111.116C112.187 36.0645 113.103 36.4836 113.838 37.3093ZM111.116 41.8968C111.466 41.8968 111.784 41.7386 112.06 41.4274C112.397 41.0523 112.57 40.5839 112.57 40.0191C112.57 39.4543 112.398 38.9765 112.061 38.5992C111.785 38.2891 111.467 38.1298 111.118 38.1298H107.363V43.806L108.212 41.8968H111.116ZM129.442 42.1923C129.442 43.3555 129.806 44.3499 130.523 45.1473H130.521C131.179 45.886 131.962 46.2612 132.844 46.2612H137.116L136.183 48.3286H131.756C130.15 48.3286 128.768 47.6926 127.657 46.4404C126.6 45.2542 126.063 43.8249 126.063 42.1923C126.063 40.5608 126.6 39.1347 127.657 37.9527C128.775 36.7005 130.153 36.0645 131.756 36.0645H137.101V38.1319H132.845C131.963 38.1319 131.181 38.506 130.523 39.2374C129.806 40.0411 129.442 41.0292 129.442 42.1923ZM129.923 45.1871C129.196 44.3774 128.829 43.3707 128.828 42.1934C128.829 41.0223 129.196 40.0167 129.923 39.2017C130.443 38.6223 131.04 38.266 131.703 38.1361C130.842 38.1507 130.08 38.5217 129.435 39.2395C128.72 40.0432 128.356 41.0324 128.356 42.1955C128.356 43.3576 128.719 44.352 129.435 45.1504C130.08 45.8735 130.842 46.2465 131.705 46.2612C131.041 46.1312 130.443 45.7708 129.923 45.1871ZM141.443 44.9702L140.697 46.5347V38.1319H140.276V48.3255H137.984V36.0624H147.645V38.1319H141.446V41.1602H147.664L147.651 41.1979L146.9 43.2308H141.446L141.443 44.9702ZM140.398 48.3273H147.264L148.015 46.2965L148.03 46.2588H141.333L140.398 48.3273ZM123.675 48.3199H126.096L120.644 36.0317H119.122L113.67 48.3199L117.534 48.3576L117.994 47.293H121.451L120.509 45.1585L118.914 45.1858L120.59 41.3569L123.673 48.3199H123.675ZM118.109 45.1973L117.476 45.2067L119.888 39.7746L120.202 40.4819L118.108 45.1962L118.109 45.1973Z" fill="#EFEFE5"/>
</svg>
