<svg width="170" height="66" viewBox="0 0 170 66" fill="none" xmlns="http://www.w3.org/2000/svg">
<g opacity="0.8">
<path d="M45.4062 41.7444L43.7808 42.448L46.6857 32.6022H49.8031L44.8133 48.3594H41.7652L43.5931 42.6264L45.006 43.766H41.617L38.2378 32.5973H41.3799L43.7858 41.7444H45.4111H45.4062Z" fill="#EFEFE5"/>
<path d="M57.3619 44.2601L57.4706 41.406L57.3866 41.1433V37.4914L57.3767 36.9661C57.3767 36.2031 57.1692 35.6481 56.7493 35.2914C56.3392 34.9346 55.6624 34.7562 54.7237 34.7562C53.9234 34.7562 53.1725 34.8653 52.471 35.0783C51.7744 35.2864 51.1321 35.5242 50.5393 35.8017L50.8011 33.3738C51.147 33.1904 51.5422 33.0219 51.9868 32.8633C52.4364 32.6949 52.9403 32.5611 53.4936 32.457C54.0469 32.353 54.6447 32.3034 55.282 32.3034C56.2305 32.3034 57.0309 32.4174 57.6879 32.6502C58.345 32.8733 58.8637 33.1953 59.2541 33.6116C59.6492 34.0327 59.9357 34.5333 60.1087 35.1229C60.2816 35.7027 60.3705 36.3419 60.3705 37.0504V44.2552H57.3717L57.3619 44.2601ZM53.5578 44.5326C52.4018 44.5326 51.5224 44.2452 50.9147 43.6655C50.3121 43.0858 50.0156 42.2632 50.0156 41.1929V40.8609C50.0156 39.7262 50.3614 38.8888 51.0581 38.3537C51.7546 37.8086 52.8563 37.4319 54.3681 37.2239L57.6632 36.7729L57.841 38.7351L54.8077 39.1761C54.1457 39.2654 53.6714 39.4239 53.3849 39.6518C53.1083 39.8798 52.9699 40.2167 52.9699 40.6627V40.7816C52.9699 41.2177 53.1033 41.5595 53.3751 41.8023C53.6517 42.0402 54.0815 42.1591 54.6694 42.1591C55.193 42.1591 55.6377 42.0749 56.0082 41.9114C56.3787 41.7429 56.6851 41.5249 56.9222 41.2573C57.1692 40.9798 57.3421 40.6726 57.4458 40.3307L57.8707 41.842H57.347C57.2186 42.3425 57.016 42.7983 56.7295 43.2096C56.4528 43.616 56.0626 43.938 55.5537 44.1857C55.0498 44.4236 54.3829 44.5425 53.5627 44.5425L53.5578 44.5326Z" fill="#EFEFE5"/>
<path d="M68.2009 41.7444L66.5755 42.448L69.4804 32.6022H72.5977L67.6081 48.3594H64.5598L66.3877 42.6264L67.8006 43.766H64.4117L61.0324 32.5973H64.1745L66.5804 41.7444H68.2058H68.2009Z" fill="#EFEFE5"/>
<path d="M85.5909 44.2606V37.2541C85.5909 36.7635 85.5217 36.3374 85.3883 35.9806C85.2599 35.6238 85.0474 35.3464 84.7461 35.1482C84.4448 34.95 84.0347 34.8508 83.511 34.8508C83.0515 34.8508 82.6514 34.9351 82.3006 35.0986C81.9598 35.2671 81.6781 35.49 81.4607 35.7775C81.2484 36.055 81.0853 36.3721 80.9766 36.7288L80.5024 35.0639H81.0704C81.1989 34.5486 81.4064 34.0829 81.6979 33.6716C81.9993 33.2603 82.3994 32.9332 82.9083 32.6954C83.4221 32.4476 84.0643 32.3287 84.8301 32.3287C85.7243 32.3287 86.4455 32.4972 86.9988 32.8391C87.5522 33.1711 87.9573 33.6716 88.2191 34.3356C88.4859 34.9996 88.6242 35.8271 88.6242 36.8081V44.2507H85.5909V44.2606ZM78.0125 44.2606V32.5963H81.0457L80.9272 35.4406L81.0457 35.6883V44.2606H78.0125Z" fill="#EFEFE5"/>
<path d="M96.2767 44.547C94.2858 44.547 92.8037 44.0861 91.8305 43.1694C90.8572 42.2478 90.3731 40.9198 90.3731 39.1756V37.6544C90.3731 35.9251 90.8275 34.5972 91.7365 33.6705C92.6456 32.744 93.9647 32.2782 95.6987 32.2782C96.8695 32.2782 97.8428 32.4862 98.6283 32.8975C99.4139 33.3088 99.9968 33.8984 100.382 34.6566C100.777 35.4098 100.975 36.3115 100.975 37.3671V37.7833C100.975 38.0707 100.96 38.363 100.926 38.6653C100.901 38.9576 100.866 39.2351 100.817 39.4978H98.0652C98.0899 39.0617 98.0997 38.6504 98.0997 38.259C98.1096 37.8626 98.1096 37.5058 98.1096 37.1886C98.1096 36.6435 98.0207 36.1778 97.8478 35.7963C97.6748 35.4098 97.4081 35.1124 97.0524 34.9143C96.6967 34.7161 96.2422 34.6169 95.6889 34.6169C94.8737 34.6169 94.2759 34.8448 93.8856 35.2958C93.5002 35.7467 93.3027 36.3908 93.3027 37.2233V38.3035L93.3125 38.6504V39.5671C93.3125 39.9337 93.3668 40.2708 93.4806 40.578C93.5991 40.8852 93.7918 41.1577 94.0635 41.3856C94.3302 41.6086 94.6859 41.782 95.1305 41.9109C95.5802 42.0397 96.1433 42.0992 96.8152 42.0992C97.5415 42.0992 98.2331 42.0199 98.8902 41.8613C99.5522 41.6928 100.184 41.4748 100.777 41.1973L100.515 43.6006C99.9869 43.8929 99.3595 44.1258 98.6432 44.2893C97.9317 44.4627 97.1413 44.5519 96.2718 44.5519L96.2767 44.547ZM91.9836 39.4927V37.4711H100.199V39.4927H91.9836Z" fill="#EFEFE5"/>
<path d="M107.329 44.5133C106.34 44.5133 105.55 44.3647 104.957 44.0724C104.374 43.7701 103.949 43.3191 103.688 42.7146C103.425 42.1101 103.297 41.3718 103.297 40.4898V33.6864H106.31V40.0389C106.31 40.6731 106.454 41.1389 106.735 41.4411C107.027 41.7335 107.535 41.8821 108.267 41.8821C108.692 41.8821 109.107 41.8376 109.502 41.7534C109.897 41.6592 110.263 41.5353 110.593 41.3866L110.332 43.9336C109.937 44.1169 109.482 44.2606 108.969 44.3597C108.465 44.4638 107.917 44.5133 107.334 44.5133H107.329ZM101.612 35.0937V32.6904H110.48L110.218 35.0937H101.612ZM103.331 32.9183L103.322 29.8264L106.345 29.5192L106.226 32.9183H103.331Z" fill="#EFEFE5"/>
<path d="M113.504 44.2616L110.989 32.5973H114.096L115.806 42.1011H116.018L117.747 32.8945H121.66L123.404 42.1011H123.607L125.336 32.5973H128.408L125.893 44.2616H121.482L120.059 36.5415L119.798 35.1045H119.62L119.357 36.5415L117.925 44.2616H113.504Z" fill="#EFEFE5"/>
<path d="M134.603 44.5828C132.8 44.5828 131.432 44.1171 130.503 43.1904C129.579 42.2639 129.115 40.9409 129.115 39.2313V37.6507C129.115 35.9312 129.579 34.6082 130.503 33.6766C131.437 32.7401 132.805 32.2744 134.603 32.2744C136.402 32.2744 137.756 32.7401 138.685 33.6766C139.608 34.6033 140.073 35.9263 140.073 37.6507V39.2313C140.073 40.9458 139.608 42.2639 138.685 43.1904C137.766 44.1171 136.407 44.5828 134.603 44.5828ZM134.603 42.1449C135.394 42.1449 135.997 41.9071 136.407 41.4314C136.826 40.9557 137.034 40.2719 137.034 39.385V37.4921C137.034 36.5903 136.826 35.8966 136.407 35.4208C135.997 34.9353 135.394 34.6974 134.603 34.6974C133.813 34.6974 133.196 34.9402 132.776 35.4208C132.366 35.8966 132.158 36.5853 132.158 37.4921V39.385C132.158 40.2719 132.366 40.9557 132.776 41.4314C133.196 41.9071 133.803 42.1449 134.603 42.1449Z" fill="#EFEFE5"/>
<path d="M144.885 37.4822L144.114 35.4506H144.85C145.062 34.5092 145.452 33.7659 146.011 33.2257C146.574 32.6857 147.35 32.4181 148.347 32.4181C148.555 32.4181 148.738 32.433 148.906 32.4676C149.074 32.4924 149.222 32.5221 149.355 32.5617L149.523 35.6042C149.35 35.5497 149.148 35.5101 148.921 35.4853C148.694 35.4556 148.452 35.4357 148.2 35.4357C147.395 35.4357 146.707 35.6142 146.135 35.9708C145.571 36.3276 145.156 36.8331 144.89 37.4822H144.885ZM141.93 44.2608V32.5964H144.825L144.697 36.1741L144.969 36.2831V44.2608H141.93Z" fill="#EFEFE5"/>
<path d="M158.244 44.2601L154.424 39.1216H153.392V37.1346H154.435L158.109 32.5908H161.617L156.9 38.3338V37.7144L161.795 44.2552H158.238L158.244 44.2601ZM150.773 28.5425H153.796V44.265H150.773V28.5425Z" fill="#EFEFE5"/>
<path d="M166.112 22.8269V20.1618H167.458C167.566 20.1618 167.683 20.1931 167.811 20.2557C167.938 20.3159 168.046 20.4098 168.135 20.5374C168.226 20.6626 168.272 20.8215 168.272 21.0141C168.272 21.2091 168.225 21.3752 168.131 21.5124C168.038 21.6472 167.924 21.7495 167.789 21.8194C167.657 21.8892 167.533 21.9241 167.415 21.9241H166.443V21.4907H167.234C167.315 21.4907 167.399 21.451 167.49 21.3716C167.584 21.2921 167.631 21.173 167.631 21.0141C167.631 20.8504 167.584 20.7396 167.49 20.6818C167.399 20.6241 167.319 20.5952 167.249 20.5952H166.695V22.8269H166.112ZM167.717 21.5702L168.38 22.8269H167.739L167.091 21.5702H167.717ZM167.12 24.4158C166.721 24.4158 166.348 24.3412 166 24.1919C165.652 24.0426 165.346 23.8356 165.082 23.5708C164.818 23.306 164.612 22.999 164.463 22.6499C164.313 22.3008 164.239 21.9265 164.239 21.5268C164.239 21.1272 164.313 20.7529 164.463 20.4038C164.612 20.0547 164.818 19.7477 165.082 19.4829C165.346 19.2181 165.652 19.0111 166 18.8618C166.348 18.7125 166.721 18.6379 167.12 18.6379C167.518 18.6379 167.892 18.7125 168.239 18.8618C168.588 19.0111 168.894 19.2181 169.157 19.4829C169.422 19.7477 169.628 20.0547 169.777 20.4038C169.926 20.7529 170 21.1272 170 21.5268C170 21.9265 169.926 22.3008 169.777 22.6499C169.628 22.999 169.422 23.306 169.157 23.5708C168.894 23.8356 168.588 24.0426 168.239 24.1919C167.892 24.3412 167.518 24.4158 167.12 24.4158ZM167.12 23.7225C167.523 23.7225 167.89 23.6237 168.221 23.4263C168.553 23.2289 168.817 22.9641 169.013 22.6319C169.21 22.2996 169.309 21.9313 169.309 21.5268C169.309 21.1224 169.21 20.7541 169.013 20.4218C168.817 20.0896 168.553 19.8248 168.221 19.6274C167.89 19.43 167.523 19.3313 167.12 19.3313C166.716 19.3313 166.349 19.43 166.018 19.6274C165.687 19.8248 165.423 20.0896 165.226 20.4218C165.029 20.7541 164.93 21.1224 164.93 21.5268C164.93 21.9313 165.029 22.2996 165.226 22.6319C165.423 22.9641 165.687 23.2289 166.018 23.4263C166.349 23.6237 166.716 23.7225 167.12 23.7225Z" fill="#EFEFE5"/>
<path fill-rule="evenodd" clip-rule="evenodd" d="M38.3821 17.5L29.7358 33.0913H21.322L30.1523 17.5H38.3821ZM21.2559 33.2082L25.4635 40.7954L21.191 48.5H12.5954L21.2559 33.2082ZM4 17.5002L12.6468 33.0926H21.0606L12.2298 17.5002H4Z" fill="#EFEFE5"/>
</g>
</svg>
