<svg width="170" height="66" viewBox="0 0 170 66" fill="none" xmlns="http://www.w3.org/2000/svg">
<path opacity="0.8" fill-rule="evenodd" clip-rule="evenodd" d="M32.2298 21.0113C31.4898 19.2513 29.7417 16.8772 25.6343 16.1237C24.7394 15.9588 23.8219 15.9588 22.927 16.1237C18.8247 16.8772 17.0766 19.2513 16.3366 21.0113C15.9744 21.8873 15.7911 22.8271 15.7977 23.7751V29.1608H20.4053V24.4074C20.399 23.7938 20.5396 23.1877 20.8153 22.6397C22.0658 20.2139 24.2832 20.423 24.2832 20.423C24.2832 20.423 26.5006 20.2139 27.7512 22.6397C28.0269 23.1877 28.1674 23.7938 28.1611 24.4074V29.1608H32.7687V23.7751C32.7753 22.8271 32.592 21.8873 32.2298 21.0113ZM104.252 29.6637C103.878 29.6637 103.556 29.5394 103.288 29.2908C103.024 29.0383 102.892 28.7365 102.892 28.3853C102.892 28.0381 103.024 27.7401 103.288 27.4916C103.556 27.239 103.878 27.1128 104.252 27.1128C104.627 27.1128 104.946 27.239 105.211 27.4916C105.479 27.7401 105.613 28.0381 105.613 28.3853C105.613 28.7365 105.479 29.0383 105.211 29.2908C104.946 29.5394 104.627 29.6637 104.252 29.6637ZM44.3521 27.8049V29.9179H48.0611V39.9264H50.5929V29.9179H54.3016V27.8049H44.3521ZM58.7157 40.1037C57.7813 40.1037 56.9766 39.9142 56.3024 39.5355C55.632 39.1527 55.1155 38.6121 54.7525 37.9137C54.3899 37.2114 54.2084 36.3808 54.2084 35.422C54.2084 34.4868 54.3899 33.6661 54.7525 32.9598C55.1155 32.2535 55.6261 31.7031 56.2846 31.3085C56.9472 30.9139 57.7239 30.7166 58.6153 30.7166C59.2147 30.7166 59.7729 30.8133 60.2894 31.0066C60.8097 31.196 61.2633 31.4821 61.6497 31.8648C62.0403 32.2476 62.3439 32.729 62.5607 33.309C62.7779 33.8851 62.8863 34.5598 62.8863 35.3332V36.0257L56.6986 36.0316C56.6986 36.4814 56.7815 36.8701 56.9472 37.1976C57.1169 37.5251 57.3554 37.7776 57.6631 37.9552C57.9705 38.1327 58.3352 38.2215 58.7573 38.2215C59.0374 38.2215 59.2938 38.182 59.5263 38.1031C59.7589 38.0242 59.9582 37.9059 60.1236 37.748C60.2894 37.5902 60.4156 37.3968 60.5023 37.168L62.8331 37.3219C62.7146 37.8822 62.4722 38.3715 62.1054 38.7897C61.7424 39.204 61.2734 39.5276 60.6975 39.7604C60.1257 39.9892 59.4651 40.1037 58.7157 40.1037ZM56.6986 34.546L60.5142 34.4632C60.5142 34.1001 60.4352 33.7785 60.2775 33.4984C60.1198 33.2183 59.9008 32.9993 59.6211 32.8414C59.3448 32.6796 59.0234 32.5988 58.6566 32.5988C58.274 32.5988 57.9352 32.6876 57.6393 32.8651C57.3473 33.0387 57.1186 33.2735 56.9532 33.5694C56.7874 33.8614 56.7028 34.1869 56.6986 34.546ZM67.1215 40.0977C66.5417 40.0977 66.0252 39.9971 65.5716 39.7959C65.1181 39.5907 64.7593 39.2889 64.4952 38.8903C64.2347 38.4878 64.1046 37.9867 64.1046 37.387C64.1046 36.8819 64.1973 36.4577 64.3826 36.1145C64.568 35.7712 64.8205 35.495 65.1397 35.2858C65.4594 35.0767 65.822 34.9189 66.2284 34.8123C66.6386 34.7058 67.0684 34.6308 67.5177 34.5874C68.0465 34.5322 68.4721 34.4809 68.7956 34.4335C69.119 34.3823 69.3537 34.3073 69.4995 34.2086C69.6453 34.11 69.7184 33.964 69.7184 33.7707V33.7351C69.7184 33.3603 69.6002 33.0703 69.3635 32.8651C69.1309 32.6599 68.7994 32.5573 68.3696 32.5573C67.916 32.5573 67.5555 32.6579 67.2873 32.8592C67.0191 33.0565 66.8414 33.3051 66.7547 33.6049L64.4243 33.4155C64.5425 32.8631 64.775 32.3857 65.1223 31.9832C65.4692 31.5768 65.9168 31.2651 66.4651 31.0481C67.017 30.8271 67.6559 30.7166 68.3815 30.7166C68.8865 30.7166 69.3694 30.7758 69.8307 30.8942C70.2961 31.0125 70.7081 31.196 71.0672 31.4446C71.4299 31.6932 71.7159 32.0128 71.9247 32.4035C72.1338 32.7901 72.2384 33.2538 72.2384 33.7943V39.9261H69.8485V38.6654H69.7775C69.6317 38.9495 69.4366 39.2001 69.1918 39.4171C68.9473 39.6301 68.6536 39.7979 68.3105 39.9202C67.9675 40.0385 67.5712 40.0977 67.1215 40.0977ZM67.8433 38.3576C68.214 38.3576 68.5413 38.2846 68.8253 38.1386C69.1092 37.9887 69.332 37.7875 69.4936 37.535C69.6551 37.2824 69.7363 36.9963 69.7363 36.6767V35.712C69.6572 35.7633 69.5488 35.8106 69.4107 35.854C69.2767 35.8935 69.125 35.931 68.9554 35.9665C68.7858 35.9981 68.6162 36.0277 68.4465 36.0553C68.2769 36.0789 68.1231 36.1006 67.9853 36.1204C67.6894 36.1638 67.431 36.2328 67.2103 36.3275C66.9893 36.4222 66.818 36.5505 66.6956 36.7122C66.5735 36.8701 66.5123 37.0673 66.5123 37.3041C66.5123 37.6474 66.6365 37.9098 66.8848 38.0913C67.1373 38.2688 67.4569 38.3576 67.8433 38.3576ZM76.9084 33.5931C76.7783 33.8417 76.7133 34.1337 76.7133 34.4691V39.9261H74.1933V30.835H76.5951V32.4389H76.7014C76.891 31.9063 77.2064 31.4861 77.6481 31.1783C78.0897 30.8705 78.6181 30.7166 79.2333 30.7166C79.8564 30.7166 80.3869 30.8725 80.8244 31.1842C81.2623 31.492 81.5543 31.9102 81.7001 32.4389H81.7949C81.9802 31.9181 82.3152 31.5018 82.8003 31.1901C83.2891 30.8745 83.8672 30.7166 84.5334 30.7166C85.3814 30.7166 86.0696 30.9869 86.598 31.5275C87.1303 32.0641 87.3964 32.8256 87.3964 33.8121V39.9261H84.8824V34.3093C84.8824 33.8042 84.7485 33.4254 84.4802 33.1729C84.212 32.9203 83.877 32.7941 83.4745 32.7941C83.0171 32.7941 82.6604 32.9401 82.404 33.2321C82.1477 33.5201 82.0194 33.9009 82.0194 34.3744V39.9261H79.5763V34.256C79.5763 33.8101 79.4483 33.455 79.192 33.1906C78.9395 32.9263 78.6063 32.7941 78.1922 32.7941C77.9121 32.7941 77.66 32.8651 77.4351 33.0071C77.2141 33.1453 77.0389 33.3406 76.9084 33.5931ZM93.2896 27.8049V39.9264H95.8512V34.9192H100.779V32.8062H95.8512V29.9179H101.311V27.8049H93.2896ZM102.987 30.8356V39.9267H105.507V30.8356H102.987ZM110.264 33.67C110.122 33.9462 110.049 34.2797 110.045 34.6703V39.9261H107.525V30.835H109.926V32.4389H110.033C110.234 31.9102 110.571 31.492 111.044 31.1842C111.518 30.8725 112.091 30.7166 112.766 30.7166C113.397 30.7166 113.947 30.8547 114.416 31.1309C114.885 31.4071 115.25 31.8017 115.511 32.3147C115.771 32.8237 115.901 33.4313 115.901 34.1376V39.9261H113.381V34.5874C113.385 34.0311 113.243 33.597 112.955 33.2853C112.667 32.9697 112.271 32.8118 111.766 32.8118C111.427 32.8118 111.127 32.8848 110.867 33.0308C110.611 33.1768 110.41 33.3899 110.264 33.67ZM120.478 40.0977C119.898 40.0977 119.382 39.9971 118.928 39.7959C118.475 39.5907 118.116 39.2889 117.852 38.8903C117.591 38.4878 117.461 37.9867 117.461 37.387C117.461 36.8819 117.554 36.4577 117.739 36.1145C117.924 35.7712 118.177 35.495 118.497 35.2858C118.816 35.0767 119.179 34.9189 119.585 34.8123C119.995 34.7058 120.425 34.6308 120.874 34.5874C121.403 34.5322 121.829 34.4809 122.152 34.4335C122.476 34.3823 122.71 34.3073 122.856 34.2086C123.002 34.11 123.075 33.964 123.075 33.7707V33.7351C123.075 33.3603 122.957 33.0703 122.72 32.8651C122.487 32.6599 122.156 32.5573 121.726 32.5573C121.273 32.5573 120.912 32.6579 120.644 32.8592C120.376 33.0565 120.198 33.3051 120.111 33.6049L117.781 33.4155C117.899 32.8631 118.132 32.3857 118.479 31.9832C118.826 31.5768 119.273 31.2651 119.822 31.0481C120.373 30.8271 121.012 30.7166 121.738 30.7166C122.243 30.7166 122.726 30.7758 123.187 30.8942C123.653 31.0125 124.065 31.196 124.424 31.4446C124.786 31.6932 125.072 32.0128 125.281 32.4035C125.49 32.7901 125.595 33.2538 125.595 33.7943V39.9261H123.205V38.6654H123.134C122.988 38.9495 122.793 39.2001 122.548 39.4171C122.304 39.6301 122.01 39.7979 121.667 39.9202C121.324 40.0385 120.928 40.0977 120.478 40.0977ZM121.2 38.3576C121.57 38.3576 121.898 38.2846 122.182 38.1386C122.466 37.9887 122.688 37.7875 122.85 37.535C123.012 37.2824 123.093 36.9963 123.093 36.6767V35.712C123.014 35.7633 122.905 35.8106 122.767 35.854C122.633 35.8935 122.481 35.931 122.312 35.9665C122.142 35.9981 121.973 36.0277 121.803 36.0553C121.633 36.0789 121.48 36.1006 121.342 36.1204C121.046 36.1638 120.788 36.2328 120.567 36.3275C120.346 36.4222 120.174 36.5505 120.052 36.7122C119.93 36.8701 119.869 37.0673 119.869 37.3041C119.869 37.6474 119.993 37.9098 120.242 38.0913C120.494 38.2688 120.813 38.3576 121.2 38.3576ZM130.289 33.67C130.147 33.9462 130.074 34.2797 130.07 34.6703V39.9261H127.55V30.835H129.952V32.4389H130.058C130.259 31.9102 130.596 31.492 131.07 31.1842C131.543 30.8725 132.117 30.7166 132.791 30.7166C133.422 30.7166 133.972 30.8547 134.441 31.1309C134.911 31.4071 135.276 31.8017 135.536 32.3147C135.796 32.8237 135.926 33.4313 135.926 34.1376V39.9261H133.406V34.5874C133.41 34.0311 133.268 33.597 132.98 33.2853C132.692 32.9697 132.296 32.8118 131.791 32.8118C131.452 32.8118 131.152 32.8848 130.892 33.0308C130.636 33.1768 130.435 33.3899 130.289 33.67ZM142.017 40.1037C141.087 40.1037 140.286 39.9064 139.616 39.5118C138.949 39.1133 138.437 38.5608 138.078 37.8545C137.723 37.1483 137.545 36.3354 137.545 35.416C137.545 34.4849 137.725 33.6681 138.083 32.9657C138.446 32.2594 138.961 31.709 139.627 31.3144C140.294 30.9159 141.087 30.7166 142.005 30.7166C142.798 30.7166 143.492 30.8606 144.088 31.1487C144.683 31.4367 145.154 31.8412 145.501 32.362C145.848 32.8829 146.04 33.4944 146.075 34.1968H143.697C143.63 33.7431 143.453 33.378 143.165 33.1019C142.881 32.8217 142.508 32.6816 142.047 32.6816C141.656 32.6816 141.315 32.7881 141.023 33.0012C140.736 33.2104 140.511 33.5161 140.349 33.9186C140.188 34.3211 140.106 34.8084 140.106 35.3805C140.106 35.9606 140.186 36.4538 140.343 36.8602C140.505 37.2666 140.732 37.5764 141.023 37.7894C141.315 38.0025 141.656 38.1091 142.047 38.1091C142.335 38.1091 142.593 38.0499 142.822 37.9315C143.055 37.8131 143.246 37.6415 143.395 37.4166C143.549 37.1877 143.65 36.9135 143.697 36.5939H146.075C146.036 37.2883 145.847 37.8999 145.507 38.4286C145.172 38.9534 144.709 39.3638 144.117 39.6598C143.526 39.9557 142.826 40.1037 142.017 40.1037ZM151.829 40.1037C150.895 40.1037 150.09 39.9142 149.416 39.5355C148.746 39.1527 148.229 38.6121 147.866 37.9137C147.504 37.2114 147.322 36.3808 147.322 35.422C147.322 34.4868 147.504 33.6661 147.866 32.9598C148.229 32.2535 148.74 31.7031 149.398 31.3085C150.061 30.9139 150.838 30.7166 151.729 30.7166C152.328 30.7166 152.886 30.8133 153.403 31.0066C153.923 31.196 154.377 31.4821 154.763 31.8648C155.154 32.2476 155.458 32.729 155.674 33.309C155.891 33.8851 156 34.5598 156 35.3332V36.0257H149.812V36.0316C149.812 36.4814 149.895 36.8701 150.061 37.1976C150.23 37.5251 150.469 37.7776 150.776 37.9552C151.084 38.1327 151.449 38.2215 151.871 38.2215C152.151 38.2215 152.407 38.182 152.64 38.1031C152.873 38.0242 153.072 37.9059 153.237 37.748C153.403 37.5902 153.529 37.3968 153.616 37.168L155.947 37.3219C155.828 37.8822 155.586 38.3715 155.219 38.7897C154.856 39.204 154.387 39.5276 153.811 39.7604C153.239 39.9892 152.579 40.1037 151.829 40.1037ZM149.815 34.4632H153.628C153.628 34.1001 153.549 33.7785 153.391 33.4984C153.233 33.2183 153.015 32.9993 152.734 32.8414C152.459 32.6796 152.137 32.5988 151.77 32.5988C151.388 32.5988 151.049 32.6876 150.753 32.8651C150.461 33.0387 150.232 33.2735 150.067 33.5694C149.914 33.8388 149.83 34.1367 149.815 34.4632ZM13 31.225V40.0249C12.9979 40.8623 13.1028 41.6966 13.312 42.5074C14.0855 45.3977 16.5608 51.1935 24.2831 50.995C32.0054 51.1935 34.4935 45.3977 35.2542 42.5074C35.4634 41.6966 35.5683 40.8623 35.5662 40.0249V31.225H13ZM28.4085 39.2249H25.5723V44.6106H22.9939V39.2249H20.1577V36.9024H28.4085V39.2249Z" fill="#EFEFE5"/>
</svg>
