<svg width="170" height="66" viewBox="0 0 170 66" fill="none" xmlns="http://www.w3.org/2000/svg">
<path opacity="0.8" fill-rule="evenodd" clip-rule="evenodd" d="M64.6483 23.8592V37.4544L70.3451 37.4542V29.06C72.0945 29.2207 75.4065 29.7826 77.5979 31.7777C79.1107 33.1613 79.8453 35.0144 79.8453 37.448H85.386C85.3798 33.6125 84.0662 30.4683 81.4764 28.0964C77.8404 24.7733 72.7102 24.0383 70.3447 23.8777L69.0622 23.8592H64.6483ZM13.2056 31.0366C15.422 35.1133 19.5496 37.3555 24.8165 37.3555H33.4144V32.1917H24.8168C17.6386 32.1977 17.0907 26.1262 17.0596 24.965V12.012H11.5251V25.0019C11.5311 25.3169 11.6246 28.1336 13.2056 31.0366ZM54.2202 24.9961V37.3308L59.9172 37.3305V24.9958C59.9172 21.4626 58.4478 18.473 55.9825 16.2309C51.5436 12.1975 44.9008 12.037 43.8612 12.043H38.1647V37.3308H43.8612V17.2995H43.8627C44.0124 17.2995 49.0585 17.2977 52.0162 19.9929C53.3858 21.2344 54.108 22.8773 54.2263 24.9961H54.2202ZM89.3169 37.306H97.0546L108.479 37.3057V32.8649H95.9029C97.3098 29.7642 100.628 26.2064 108.479 26.2064V21.0426C98.667 21.0426 93.9542 25.4652 91.7254 29.1774C89.3532 33.1305 89.3169 37.1392 89.3169 37.306ZM119.988 25.4281C116.171 27.2748 112.76 30.8636 112.76 37.306L118.295 37.306C118.295 33.6185 119.876 31.5492 121.731 30.3819L119.988 25.4281ZM140.221 29.437C140.221 33.7791 143.994 37.3 148.651 37.3L159.664 37.2997V32.7535H150.792C148.121 32.7535 145.955 30.7337 145.955 28.2444V12.012H140.221V29.437ZM121.514 12.012L130.379 37.2811H136.592L127.87 12.012H121.514ZM88.9601 16.4471H94.6566L108.533 16.447V12H88.9601V16.4471ZM14.7452 53C14.2054 53 13.706 52.9128 13.2471 52.7384C12.795 52.5573 12.4002 52.3058 12.0628 51.9838C11.7322 51.6551 11.4724 51.2728 11.2834 50.8368C11.0945 50.4008 11 49.9212 11 49.398C11 48.8748 11.0945 48.3952 11.2834 47.9592C11.4724 47.5232 11.7355 47.1442 12.073 46.8223C12.4104 46.4936 12.8051 46.2421 13.2572 46.0677C13.7161 45.8866 14.2155 45.796 14.7553 45.796C15.3019 45.796 15.8047 45.8899 16.2635 46.0777C16.7292 46.2588 17.1239 46.5305 17.4478 46.8927L16.7899 47.5266C16.52 47.2449 16.2163 47.0369 15.8789 46.9028C15.5415 46.7619 15.1805 46.6915 14.7958 46.6915C14.3977 46.6915 14.0265 46.7586 13.6824 46.8927C13.345 47.0269 13.0514 47.2147 12.8017 47.4562C12.5521 47.6976 12.3564 47.9861 12.2147 48.3214C12.0797 48.6501 12.0122 49.009 12.0122 49.398C12.0122 49.787 12.0797 50.1493 12.2147 50.4846C12.3564 50.8133 12.5521 51.0984 12.8017 51.3399C13.0514 51.5813 13.345 51.7692 13.6824 51.9033C14.0265 52.0375 14.3977 52.1045 14.7958 52.1045C15.1805 52.1045 15.5415 52.0375 15.8789 51.9033C16.2163 51.7624 16.52 51.5478 16.7899 51.2594L17.4478 51.8932C17.1239 52.2555 16.7292 52.5305 16.2635 52.7183C15.8047 52.9061 15.2986 53 14.7452 53ZM38.4722 45.8765H39.4743L42.6931 52.9195H41.6303L40.8519 51.1588H37.0844L36.306 52.9195H35.2634L38.4722 45.8765ZM38.9682 46.8979L40.496 50.3538H37.4403L38.9682 46.8979ZM64.1261 45.8765H61.3627V52.9195H62.3749V50.7865H64.1261C64.7469 50.7865 65.2766 50.6892 65.7152 50.4947C66.1539 50.2935 66.4913 50.0118 66.7275 49.6495C66.9636 49.2806 67.0817 48.8413 67.0817 48.3315C67.0817 47.8217 66.9636 47.3824 66.7275 47.0135C66.4913 46.6445 66.1539 46.3628 65.7152 46.1683C65.2766 45.9738 64.7469 45.8765 64.1261 45.8765ZM62.3749 49.9111H64.0957C64.7435 49.9111 65.2328 49.7736 65.5634 49.4986C65.9008 49.2236 66.0695 48.8346 66.0695 48.3315C66.0695 47.8284 65.9008 47.4394 65.5634 47.1644C65.2328 46.8894 64.7435 46.7519 64.0957 46.7519H62.3749V49.9111ZM86.1814 45.8765H87.1936V52.9195H86.1814V45.8765ZM108.335 46.7519V52.9195H109.337V46.7519H111.766V45.8765H105.905V46.7519H108.335ZM132.261 45.8765H133.263L136.482 52.9195H135.419L134.641 51.1588H130.873L130.095 52.9195H129.052L132.261 45.8765ZM132.757 46.8979L134.285 50.3538H131.229L132.757 46.8979ZM156.164 45.8765H155.151V52.9195H160V52.0442H156.164V45.8765ZM27.9427 12.0117V25.6069H33.6392V12.0117H27.9427ZM73.3772 16.5596H71.9515V16.5593H64.6488V12.1676H75.0021C82.7218 12.1676 85.3553 18.5236 85.3553 23.8417V23.879H79.6588C79.6588 21.1488 78.4137 16.5596 73.3772 16.5596Z" fill="#EFEFE5"/>
</svg>
