<svg width="170" height="66" viewBox="0 0 170 66" fill="none" xmlns="http://www.w3.org/2000/svg">
<path opacity="0.8" fill-rule="evenodd" clip-rule="evenodd" d="M21.896 27.9865C24.6239 23.5001 28.9748 21 33.4937 21C40.881 21 45.1756 28.2854 45.0183 33.2714C44.7765 40.9323 38.7067 45 33.4937 45H30.6125C29.9223 45 29.5317 44.2131 29.9517 43.6686L31.7671 41.3145C31.9493 41.0782 32.2451 40.9616 32.544 40.9805C36.702 41.2429 40.5858 37.5502 40.5858 33.2714C40.5858 28.8275 37.3478 25.4749 33.4937 25.4749C29.5331 25.4749 28.1141 26.8944 26.305 28.704L26.305 28.704L26.305 28.704C25.8952 29.114 25.4654 29.5439 24.9815 29.9819C24.6154 30.3133 24.1112 30.4428 23.6242 30.3547L23.0031 30.2425C21.9373 30.0498 21.3356 28.9082 21.896 27.9865ZM17.6556 27.4562L27.4731 37.609L31.4849 33.5393C32.9861 32.0164 35.4055 31.8766 37.074 33.2165L37.3 33.3979C37.4941 33.5538 37.5076 33.8434 37.3287 34.0165L28.6628 42.4022C28.0052 43.0386 26.9537 43.026 26.3116 42.3742L17.1888 33.1127C15.7161 31.6177 15.5975 29.2652 16.9123 27.6313L17.0304 27.4845C17.1875 27.2893 17.4814 27.2761 17.6556 27.4562ZM112.359 27.514C113.231 27.514 114.006 27.7066 114.684 28.0918C115.362 28.4633 115.888 29.0205 116.261 29.7634C116.649 30.4926 116.843 31.3731 116.843 32.405V39.112H113.937V32.7971C113.937 31.889 113.708 31.1943 113.252 30.7127C112.795 30.2175 112.172 29.9698 111.383 29.9698C110.581 29.9698 109.944 30.2175 109.474 30.7127C109.017 31.1943 108.789 31.889 108.789 32.7971V39.112H105.883V23.8406H108.789V29.1031C109.162 28.6078 109.66 28.2225 110.283 27.9474C110.906 27.6585 111.598 27.514 112.359 27.514ZM91.0288 28.0918C90.3922 29.2062 90.0739 30.472 90.0739 31.889C90.0739 33.3061 90.3922 34.5718 91.0288 35.6862C91.6792 36.8006 92.5579 37.6743 93.665 38.3071C94.7859 38.9262 96.0383 39.2358 97.4222 39.2358C99.0551 39.2358 100.474 38.8299 101.677 38.0182C102.895 37.1927 103.746 36.0439 104.231 34.5718H100.889C100.557 35.2597 100.086 35.7825 99.4772 36.1402C98.8821 36.4842 98.1902 36.6562 97.4014 36.6562C96.5573 36.6562 95.8031 36.4636 95.1388 36.0783C94.4884 35.6794 93.9764 35.1222 93.6028 34.4067C93.243 33.6776 93.0631 32.8383 93.0631 31.889C93.0631 30.926 93.243 30.0867 93.6028 29.3713C93.9764 28.6559 94.4884 28.1056 95.1388 27.7204C95.8031 27.3214 96.5573 27.1219 97.4014 27.1219C98.1902 27.1219 98.8821 27.2939 99.4772 27.6378C100.086 27.9818 100.557 28.4977 100.889 29.1856H104.231C103.746 27.7273 102.895 26.5854 101.677 25.7599C100.46 24.9344 99.0413 24.5217 97.4222 24.5217C96.0383 24.5217 94.7859 24.8381 93.665 25.471C92.5579 26.0901 91.6792 26.9637 91.0288 28.0918ZM63.4414 25.5948C62.2928 25.0032 60.9574 24.7074 59.4351 24.7074H54.3703V39.112H59.4351C60.9574 39.112 62.2928 38.8162 63.4414 38.2246C64.6038 37.633 65.4964 36.8006 66.1191 35.7275C66.7557 34.6406 67.074 33.3749 67.074 31.9303C67.074 30.4857 66.7557 29.22 66.1191 28.1331C65.4964 27.0325 64.6038 26.1864 63.4414 25.5948ZM62.8602 35.418C62.0298 36.2434 60.8536 36.6562 59.3314 36.6562H57.2763V27.1425H59.3314C60.8536 27.1425 62.0298 27.569 62.8602 28.422C63.6905 29.2613 64.1056 30.4307 64.1056 31.9303C64.1056 33.4299 63.6905 34.5925 62.8602 35.418ZM79.0262 34.2623C79.0815 33.9321 79.1092 33.5606 79.1092 33.1479C79.1092 32.0335 78.867 31.0498 78.3827 30.1968C77.9122 29.3301 77.241 28.6628 76.3692 28.195C75.5112 27.7273 74.5356 27.4934 73.4424 27.4934C72.3076 27.4934 71.3043 27.7341 70.4325 28.2157C69.5607 28.6972 68.8826 29.3851 68.3982 30.2794C67.9139 31.1736 67.6717 32.2124 67.6717 33.3955C67.6717 34.565 67.9139 35.5968 68.3982 36.4911C68.8964 37.3853 69.5814 38.0801 70.4532 38.5754C71.3389 39.0569 72.3353 39.2977 73.4424 39.2977C74.8124 39.2977 75.9679 38.9469 76.9089 38.2452C77.8499 37.5298 78.4865 36.6218 78.8186 35.5211H75.6842C75.2275 36.4429 74.4595 36.9038 73.3801 36.9038C72.6328 36.9038 72.0031 36.6699 71.4911 36.2022C70.9791 35.7344 70.6885 35.0878 70.6193 34.2623H79.0262ZM75.2898 30.5476C75.8156 30.9879 76.0855 31.5795 76.0993 32.3224H70.6401C70.7508 31.552 71.0483 30.9535 71.5326 30.527C72.0308 30.0867 72.6397 29.8666 73.3593 29.8666C74.1204 29.8666 74.7639 30.0936 75.2898 30.5476ZM86.7519 39.112L84.3855 35.5624L82.289 39.112H79.1754L82.9325 33.3749L79.1338 27.6791H82.4136L84.7592 31.208L86.8765 27.6791H89.9901L86.2122 33.3749L90.0316 39.112H86.7519ZM129.383 34.2623C129.438 33.9321 129.466 33.5606 129.466 33.1479C129.466 32.0335 129.224 31.0498 128.739 30.1968C128.269 29.3301 127.598 28.6628 126.726 28.195C125.868 27.7273 124.892 27.4934 123.799 27.4934C122.664 27.4934 121.661 27.7341 120.789 28.2157C119.917 28.6972 119.239 29.3851 118.755 30.2794C118.271 31.1736 118.029 32.2124 118.029 33.3955C118.029 34.565 118.271 35.5968 118.755 36.4911C119.253 37.3853 119.938 38.0801 120.81 38.5754C121.696 39.0569 122.692 39.2977 123.799 39.2977C125.169 39.2977 126.325 38.9469 127.266 38.2452C128.207 37.5298 128.843 36.6218 129.175 35.5211H126.041C125.584 36.4429 124.816 36.9038 123.737 36.9038C122.99 36.9038 122.36 36.6699 121.848 36.2022C121.336 35.7344 121.045 35.0878 120.976 34.2623H129.383ZM125.647 30.5476C126.172 30.9879 126.442 31.5795 126.456 32.3224H120.997C121.108 31.552 121.405 30.9535 121.889 30.527C122.388 30.0867 122.997 29.8666 123.716 29.8666C124.477 29.8666 125.121 30.0936 125.647 30.5476ZM130.01 33.3955C130.01 32.2124 130.252 31.1805 130.736 30.3C131.22 29.4057 131.892 28.7178 132.75 28.2363C133.608 27.741 134.59 27.4934 135.697 27.4934C137.123 27.4934 138.299 27.8511 139.226 28.5665C140.167 29.2682 140.797 30.2587 141.115 31.5382H137.981C137.814 31.0429 137.531 30.6577 137.129 30.3825C136.742 30.0936 136.258 29.9492 135.676 29.9492C134.846 29.9492 134.189 30.2518 133.704 30.8572C133.22 31.4488 132.978 32.2949 132.978 33.3955C132.978 34.4824 133.22 35.3285 133.704 35.9339C134.189 36.5255 134.846 36.8213 135.676 36.8213C136.853 36.8213 137.621 36.2985 137.981 35.2529H141.115C140.797 36.4911 140.167 37.4748 139.226 38.2039C138.285 38.9331 137.109 39.2977 135.697 39.2977C134.59 39.2977 133.608 39.0569 132.75 38.5754C131.892 38.0801 131.22 37.3922 130.736 36.5117C130.252 35.6174 130.01 34.5787 130.01 33.3955ZM145.32 34.2416L149.222 39.112H153L147.894 33.4162L152.958 27.6791H149.181L145.32 32.5288V23.8406H142.414V39.112H145.32V34.2416Z" fill="#EFEFE5"/>
</svg>
