<svg width="170" height="66" viewBox="0 0 170 66" fill="none" xmlns="http://www.w3.org/2000/svg">
<path opacity="0.8" fill-rule="evenodd" clip-rule="evenodd" d="M35.2262 42.6861L25.9957 33.5031L35.2305 24.3131L41.0568 30.1085C42.0986 31.0416 43.6925 31.0001 44.6838 30.014C45.6751 29.028 45.7168 27.4425 44.7788 26.4063L37.0843 18.7583C36.0518 17.7472 34.3948 17.7472 33.3623 18.7583L22.2709 29.7924V23.2323C22.2709 21.7845 21.091 20.6108 19.6354 20.6108C18.1799 20.6108 17 21.7845 17 23.2323V43.7654C17 45.2132 18.1799 46.3869 19.6354 46.3869C21.091 46.3869 22.2709 45.2132 22.2709 43.7654V37.2054L33.3638 48.2423C34.3965 49.2526 36.053 49.2526 37.0857 48.2423L44.7745 40.5929C45.7125 39.5566 45.6708 37.9712 44.6795 36.9851C43.6882 35.9991 42.0943 35.9576 41.0525 36.8907L35.2262 42.6861ZM32.792 32.4979C33.2008 31.5173 34.1633 30.8782 35.2305 30.8788V30.8774C35.9302 30.8778 36.6011 31.1546 37.0956 31.6471C37.5901 32.1395 37.8677 32.8071 37.8674 33.5031C37.8674 34.5647 37.2244 35.5217 36.2384 35.9278C35.2523 36.3339 34.1174 36.1091 33.363 35.3583C32.6085 34.6075 32.3832 33.4785 32.792 32.4979ZM123.255 33.504C123.255 32.7123 123.255 31.9676 123.229 31.2799C123.212 30.631 123.147 29.9843 123.036 29.3447C122.932 28.7607 122.748 28.1935 122.49 27.6588C122.218 27.1075 121.854 26.6059 121.414 26.1751C120.79 25.5387 120.047 25.0295 119.227 24.6757C118.339 24.3182 117.389 24.141 116.432 24.1545C115.472 24.1422 114.518 24.3193 113.626 24.6757C112.802 25.0246 112.054 25.5317 111.426 26.1679C110.987 26.5985 110.624 27.1002 110.354 27.6517C110.098 28.1865 109.918 28.7538 109.817 29.3376C109.709 29.9774 109.646 30.6241 109.631 31.2727C109.614 31.9605 109.605 32.7052 109.61 33.4969C109.61 33.6043 109.611 33.7106 109.611 33.8161L109.612 34.0715V34.0728V34.0732V34.0736V34.0739V34.0743C109.613 34.651 109.615 35.1987 109.631 35.7197C109.646 36.3683 109.709 37.015 109.817 37.6548C109.918 38.2386 110.098 38.8059 110.354 39.3407C110.625 39.8916 110.988 40.3931 111.426 40.8245C112.053 41.4612 112.801 41.9676 113.626 42.3139C114.517 42.6726 115.471 42.8508 116.432 42.8379C117.39 42.852 118.34 42.6737 119.227 42.3139C120.047 41.9648 120.79 41.4588 121.414 40.8245C121.853 40.3929 122.217 39.8914 122.49 39.3407C122.748 38.806 122.932 38.2388 123.036 37.6548C123.146 37.017 123.209 36.3722 123.226 35.7254C123.248 35.0334 123.258 34.2929 123.252 33.5026L123.255 33.504ZM119.647 33.504C119.647 34.3812 119.635 35.1117 119.604 35.6926C119.588 36.1698 119.54 36.6455 119.461 37.1166C119.408 37.4304 119.311 37.7356 119.175 38.0236C119.064 38.2558 118.92 38.4703 118.746 38.6601C118.477 38.9661 118.143 39.2092 117.769 39.3721C117.348 39.5513 116.895 39.6424 116.437 39.6398C115.976 39.6418 115.52 39.5507 115.097 39.3721C114.713 39.2123 114.371 38.969 114.095 38.6601C113.919 38.4711 113.775 38.2564 113.665 38.0236C113.533 37.7353 113.441 37.43 113.393 37.1166C113.317 36.6452 113.269 36.1697 113.25 35.6926C113.224 35.1117 113.211 34.3821 113.211 33.504C113.211 32.6269 113.224 31.895 113.25 31.314C113.269 30.837 113.317 30.3615 113.393 29.8901C113.441 29.5767 113.533 29.2714 113.665 28.9831C113.775 28.7504 113.92 28.5358 114.095 28.3466C114.371 28.0381 114.714 27.7949 115.097 27.6346C115.52 27.4539 115.976 27.3628 116.437 27.3669C116.895 27.3622 117.349 27.4534 117.769 27.6346C118.143 27.7979 118.476 28.041 118.746 28.3466C118.919 28.5366 119.064 28.7511 119.175 28.9831C119.311 29.2711 119.408 29.5762 119.461 29.8901C119.54 30.3612 119.587 30.8368 119.604 31.314C119.636 31.8936 119.647 32.6255 119.647 33.504ZM152 24.6287C151.998 24.4556 151.858 24.3156 151.684 24.314H148.707C148.533 24.3148 148.392 24.4552 148.391 24.6287V35.5645L141.133 24.4023C141.085 24.3268 141.042 24.314 140.934 24.314H138.174C138.001 24.3163 137.86 24.4559 137.858 24.6287V42.3738C137.86 42.5464 138.001 42.6855 138.174 42.687H141.149C141.323 42.6862 141.463 42.5465 141.464 42.3738V31.4095L148.723 42.5973C148.773 42.6728 148.813 42.6856 148.922 42.6856H151.681C151.855 42.6848 151.996 42.5453 151.997 42.3723L152 24.6287ZM131.734 24.314C131.908 24.3148 132.049 24.4552 132.05 24.6287V42.3723C132.049 42.5458 131.908 42.6862 131.734 42.687H128.761C128.586 42.6862 128.445 42.5458 128.444 42.3723V24.6287C128.445 24.4552 128.586 24.3148 128.761 24.314H131.734ZM96.4568 33.5029C96.4568 32.62 96.4669 31.8853 96.4926 31.3001C96.5101 30.8229 96.558 30.3473 96.6358 29.8761C96.9106 28.2956 98.1274 27.3629 99.6806 27.3629C100.694 27.3714 101.613 27.7445 102.2 28.5932C102.466 28.9894 102.66 29.4289 102.773 29.8918C102.781 29.9405 102.826 29.9746 102.876 29.9701H106.376C106.426 29.9701 106.445 29.9359 106.436 29.8875C106.054 27.7331 104.899 25.798 102.857 24.8397C101.854 24.3776 100.759 24.1464 99.6534 24.1633C97.6827 24.1633 96.0226 24.8345 94.6732 26.1767C93.9027 26.9236 93.3768 27.8844 93.1643 28.9335C92.9582 29.9663 92.8542 31.489 92.8522 33.5015C92.8504 35.514 92.9544 37.0361 93.1643 38.068C93.3751 39.1184 93.8994 40.0811 94.6689 40.8304C96.0174 42.1718 97.6775 42.8425 99.6491 42.8425C100.754 42.8591 101.849 42.6284 102.853 42.1675C104.894 41.2092 106.049 39.2741 106.432 37.1197C106.44 37.0698 106.422 37.0371 106.372 37.0371H102.87C102.82 37.0319 102.775 37.0663 102.767 37.1154C102.654 37.5777 102.46 38.0168 102.194 38.4126C101.607 39.267 100.688 39.6358 99.6749 39.6429C98.1217 39.6429 96.9049 38.7116 96.6301 37.1311C96.5523 36.6599 96.5045 36.1843 96.4869 35.7071C96.4669 35.1191 96.4568 34.3829 96.4568 33.5029ZM59.1727 24.314C59.3471 24.3148 59.4883 24.4552 59.4891 24.6287V32.0958L65.961 24.3752C65.9898 24.3369 66.0361 24.3155 66.0842 24.3183H70.0337C70.2198 24.3183 70.2699 24.4536 70.1511 24.596L64.2632 31.6216L70.6808 42.4435C70.7638 42.5845 70.7337 42.6872 70.5677 42.6872H66.9545C66.8826 42.6899 66.8147 42.654 66.777 42.593L61.8755 34.3271L59.4891 37.165V42.3738C59.4875 42.5467 59.3466 42.6863 59.1727 42.6872H56.1995C56.0256 42.6863 55.8847 42.5467 55.8831 42.3738V24.6287C55.8839 24.4552 56.0251 24.3148 56.1995 24.314H59.1727ZM81.1511 39.6427C79.4776 39.6427 77.9602 38.102 77.9602 36.2622V24.6287C77.9594 24.4552 77.8182 24.3148 77.6438 24.314H74.6705C74.4961 24.3148 74.355 24.4552 74.3542 24.6287V36.2167C74.3542 40.2678 77.4005 42.8422 81.1511 42.8422C84.9017 42.8422 87.948 40.2678 87.948 36.2167V24.6287C87.9464 24.4556 87.8057 24.3156 87.6316 24.314H84.6569C84.483 24.3156 84.3427 24.4558 84.3419 24.6287V36.2622C84.3419 38.1005 82.8231 39.6427 81.1511 39.6427Z" fill="#EFEFE5"/>
</svg>
