<svg width="170" height="66" viewBox="0 0 170 66" fill="none" xmlns="http://www.w3.org/2000/svg">
<path opacity="0.8" fill-rule="evenodd" clip-rule="evenodd" d="M50.5431 14.7925L24.714 33.3326C23.1739 30.8278 22.3627 27.9326 22.3739 24.9806C22.3739 16.1521 29.4889 9.0001 38.284 9.0001C40.6216 8.99184 42.9322 9.50666 45.0512 10.5079C47.1702 11.5091 49.0453 12.9721 50.5431 14.7925ZM64.383 21.1726H68.9402L69.0526 23.2198H69.1177C69.6337 22.453 70.3613 21.8577 71.2094 21.5086C72.235 21.0427 73.3487 20.8104 74.4723 20.8282C76.8196 20.8282 78.7149 21.6166 80.1582 23.1958C81.6016 24.775 82.3244 26.8918 82.3256 29.5474V30.0778C82.3256 32.7298 81.6181 34.8442 80.2008 36.421C78.7835 37.9979 76.9237 38.7935 74.619 38.8079C73.518 38.8258 72.4238 38.6303 71.3951 38.2319C70.5466 37.9287 69.8028 37.3827 69.2537 36.6598V45.2975H64.383V21.1726ZM70.7338 34.3342C71.4933 34.8334 72.383 35.0902 73.2881 35.071C74.6557 35.071 75.6743 34.6534 76.3404 33.817C77.0089 32.9806 77.3425 31.825 77.3425 30.3502V29.2894C77.3425 27.8158 77.0112 26.6578 76.3487 25.8154C75.6862 24.9754 74.6557 24.553 73.2537 24.553C72.4228 24.5271 71.6017 24.7416 70.8864 25.1715C70.1712 25.6014 69.5914 26.2288 69.2147 26.9806V32.5846C69.5365 33.3082 70.0665 33.9166 70.7338 34.3342ZM85.5992 21.1726H90.2215L90.3185 23.3182H90.4167C90.7991 22.5634 91.3698 21.9233 92.0719 21.4618C92.7747 20.977 93.6059 20.7197 94.4558 20.7238C94.6983 20.725 94.9396 20.7526 95.1751 20.8066C95.3525 20.839 95.5288 20.8882 95.698 20.9518V25.147C95.484 25.1037 95.2686 25.0685 95.052 25.0414C94.7994 25.0136 94.5454 25.0004 94.2913 25.0018C93.4679 24.9927 92.6613 25.2389 91.9796 25.7074C91.323 26.1394 90.8024 26.7526 90.4794 27.4762V38.4575H85.6004L85.5992 21.1726ZM96.9911 29.5474C96.9911 26.8258 97.863 24.6658 99.6057 23.0662C101.348 21.4654 103.615 20.665 106.404 20.6626C109.203 20.6626 111.468 21.4642 113.202 23.0662C114.934 24.667 115.801 26.8282 115.803 29.5462V30.0778C115.803 32.7982 114.936 34.9582 113.201 36.5578C111.467 38.1587 109.202 38.9603 106.404 38.9615C103.615 38.9615 101.348 38.1611 99.6057 36.559C97.863 34.957 96.9911 32.797 96.9911 30.0778V29.5474ZM101.959 30.343C101.959 31.9162 102.347 33.121 103.123 33.9574C103.898 34.7938 104.985 35.2114 106.386 35.209C107.78 35.209 108.866 34.7914 109.643 33.9574C110.42 33.1234 110.806 31.9174 110.799 30.343V29.2606C110.799 27.6886 110.41 26.4838 109.632 25.6462C108.855 24.8086 107.776 24.3934 106.395 24.4018C105.002 24.4018 103.916 24.8206 103.141 25.657C102.365 26.4934 101.974 27.697 101.97 29.2714L101.959 30.343ZM119.066 21.1726H123.686L123.783 23.3362H123.864C124.459 22.5138 125.258 21.8659 126.18 21.4582C127.132 21.0336 128.163 20.8185 129.203 20.827C130.361 20.8002 131.507 21.0741 132.531 21.6226C133.469 22.1376 134.206 22.9606 134.623 23.9566H134.672C135.304 22.9312 136.22 22.117 137.305 21.6154C138.401 21.0902 139.599 20.8185 140.811 20.8198C142.666 20.8198 144.161 21.3934 145.295 22.5406C146.43 23.6878 146.998 25.6006 147 28.2766V38.4575H142.129V27.9898C142.119 26.8318 141.865 25.9798 141.371 25.4338C140.875 24.8878 140.138 24.6142 139.156 24.6142C138.373 24.5859 137.601 24.8158 136.957 25.2694C136.312 25.7422 135.796 26.3734 135.457 27.1054V38.4575H130.586V28.0378C130.575 26.857 130.32 25.9918 129.819 25.4422C129.318 24.8902 128.568 24.6142 127.563 24.6142C126.793 24.5964 126.036 24.8229 125.398 25.2622C124.755 25.7317 124.247 26.3678 123.929 27.1042V38.4575H119.066V21.1726ZM48.5176 20.011C50.0561 22.517 50.8671 25.4121 50.8577 28.3642C50.8577 33.6179 48.423 38.0471 44.4312 41.2103C39.0624 45.4511 22.0319 57 22.0319 57L22 39.0275L22.685 38.5319L35.6327 29.251L48.5176 20.011Z" fill="#EFEFE5"/>
</svg>
