<svg width="170" height="66" viewBox="0 0 170 66" fill="none" xmlns="http://www.w3.org/2000/svg">
<g opacity="0.9">
<path fill-rule="evenodd" clip-rule="evenodd" d="M65.8318 6.43014C65.662 6.92063 65.666 7.31053 65.8457 7.70669L65.99 8.02614L84.3415 8.09091L84.4414 8.36196C84.5388 8.62794 84.5018 8.69777 83.3911 10.3548C83.298 10.4931 83.0165 10.9176 82.765 11.298C82.5131 11.6785 82.2323 12.103 82.1404 12.2413C82.0488 12.3797 81.7677 12.8041 81.5161 13.1846C81.2646 13.565 80.9834 13.9895 80.8916 14.1278C80.3003 15.0177 79.7192 15.8981 79.5342 16.1842C79.2303 16.6546 79.1091 16.835 78.7577 17.335C78.5878 17.5771 78.3347 17.9732 78.1963 18.2153C78.0576 18.4574 77.7767 18.8819 77.5717 19.1586C77.367 19.4353 77.1059 19.8315 76.9925 20.039C76.7258 20.5251 75.3771 22.5896 70.1314 30.5406C64.891 38.4851 65.215 37.8247 66.2554 38.4429C66.9851 38.8766 66.7585 39.1734 72.9226 29.7232C73.7799 28.4089 74.6033 27.1355 74.7534 26.8934C74.9032 26.6513 75.1184 26.3117 75.2328 26.1388C75.4933 25.742 76.3001 24.5221 76.5211 24.1894C76.6127 24.051 76.8938 23.6266 77.1454 23.2461C77.3969 22.8657 77.6781 22.4412 77.7696 22.3029C77.8615 22.1645 78.1426 21.74 78.3942 21.3596C78.6458 20.9791 78.9266 20.5547 79.0185 20.4163C79.1103 20.278 79.3912 19.8535 79.643 19.473C79.8946 19.0926 80.1754 18.6681 80.2673 18.5298C80.3592 18.3914 80.64 17.9669 80.8916 17.5865C81.1434 17.206 81.4243 16.7816 81.5161 16.6432C81.608 16.5049 81.8713 16.1087 82.1013 15.7628C82.3309 15.417 82.7863 14.7095 83.1127 14.1907C83.4392 13.6719 83.8113 13.106 83.9386 12.933C84.0668 12.7601 84.4127 12.2231 84.7081 11.7395C85.0028 11.2559 85.8626 9.92589 86.6182 8.7839C87.6919 7.16084 87.9829 6.63011 87.9518 6.35404L87.9111 6L65.9625 6.05219L65.8318 6.43014ZM97.247 6.28111C94.8289 6.59236 92.4249 7.35831 90.9507 8.28713C90.6279 8.49025 90.2226 8.7273 90.049 8.81407C88.8865 9.39389 86.5799 11.4854 85.5564 12.8865C84.6526 14.1247 84.5431 14.2838 84.3264 14.6768C83.7176 15.7811 83.154 16.6935 82.1013 18.2782C81.8713 18.6241 81.608 19.0203 81.5161 19.1586C81.2951 19.4913 80.4883 20.7112 80.2278 21.108C80.1138 21.281 79.8989 21.6206 79.7497 21.8627C79.1177 22.8883 75.8117 27.992 74.8206 29.4717C74.6353 29.7484 74.4455 30.0597 74.3986 30.1634C74.3212 30.3344 74.0915 30.6968 73.3902 31.7512C73.2586 31.9499 72.9626 32.3957 72.7339 32.7416C72.5048 33.0874 72.2419 33.4836 72.1503 33.6221C71.2992 34.9025 70.9363 35.4651 70.4986 36.1826C70.2183 36.6418 69.8395 37.2379 69.6557 37.5071C68.7204 38.8791 68.4793 38.8415 78.2398 38.8415H86.6743L86.8648 38.4705C87.1114 37.9893 87.1049 37.6456 86.8417 37.1957L86.628 36.8312L72.7564 36.7663L72.7154 36.4707C72.6923 36.3086 72.7789 36.0537 72.9087 35.9047C73.1516 35.625 73.5218 35.0615 74.144 34.027C74.3425 33.6963 75.3478 32.1355 76.3781 30.5583C78.3199 27.5858 79.0209 26.4935 79.4806 25.7282C79.7109 25.3433 80.2587 24.5038 80.8943 23.5605C80.9871 23.4222 81.2039 23.0971 81.3762 22.8374C82.0331 21.8457 82.219 22.0947 82.4558 24.2837C82.8054 27.5097 83.6571 29.5478 85.8595 32.4274C86.9903 33.9056 89.5619 36.0193 91.0688 36.7079C91.2303 36.7821 91.5602 36.9504 91.8003 37.0814C92.0408 37.2128 92.3432 37.323 92.4724 37.3261C92.6015 37.3298 92.8827 37.4391 93.0966 37.5701C93.3109 37.7008 93.7853 37.8713 94.1513 37.948C94.5172 38.0253 94.9275 38.1479 95.0635 38.2215C96.0962 38.7779 102.029 38.9132 103.232 38.4075L103.638 38.2358L103.512 37.6272C103.314 36.6744 103.423 36.7085 100.813 36.7877C98.4795 36.8588 95.5863 36.6197 95.237 36.3279C95.1615 36.2652 94.8276 36.1519 94.4947 36.0764C93.896 35.9414 92.7782 35.4791 92.1752 35.1161C92.0035 35.013 91.6693 34.842 91.4329 34.7352C90.1621 34.1629 88.392 32.5481 86.6604 30.3816C86.2103 29.8188 85.2426 27.909 84.8604 26.8305C83.573 23.1971 84.134 18.5279 86.2433 15.3258C86.5867 14.8045 86.9465 14.2247 87.042 14.0385C87.2535 13.626 89.3877 11.5534 90.3169 10.8579C91.846 9.71272 94.8131 8.50093 96.6394 8.27453C97.1721 8.20852 97.9887 8.10286 98.4545 8.03999C99.2283 7.93558 100.848 8.00916 102.42 8.21982C103.37 8.34749 104.115 6.81246 103.242 6.52508C101.798 6.05095 99.7003 5.96541 97.247 6.28111ZM87.6564 6.55402C87.7557 6.67414 87.4416 7.23694 86.4119 8.78641C85.6545 9.92527 84.9846 10.971 84.922 11.1094C84.8604 11.2477 84.7044 11.5024 84.5749 11.6753C84.3545 11.9715 83.8063 12.7909 83.0323 13.9832C82.6626 14.5517 82.2409 15.2554 81.9144 15.8471C81.8001 16.0552 81.6154 16.3187 81.5047 16.4338C81.2002 16.7501 80.5663 17.755 80.5639 17.9254C80.5626 18.0078 80.4572 18.1493 80.3305 18.2399C80.1162 18.3914 79.9769 18.6027 79.4168 19.6202C79.3027 19.8277 79.1177 20.0918 79.0074 20.2069C78.7025 20.5232 78.069 21.5281 78.0662 21.6985C78.065 21.7809 77.9595 21.9224 77.8328 22.0129C77.6186 22.1645 77.4795 22.3758 76.9194 23.3933C76.805 23.6008 76.6204 23.8649 76.5097 23.98C76.2051 24.2963 75.5713 25.3012 75.5688 25.4716C75.5676 25.554 75.4618 25.6955 75.3351 25.786C75.2078 25.876 75.0074 26.1199 74.8894 26.3275C74.4898 27.0311 74.1313 27.6053 73.7555 28.1448C73.5496 28.441 73.2684 28.8655 73.1313 29.0881C72.9938 29.3113 72.7126 29.7358 72.5067 30.0314C72.3008 30.3276 72.0196 30.7527 71.8824 30.9765C71.7449 31.1997 71.5245 31.5469 71.3929 31.7474C71.2609 31.9486 70.2627 33.4724 69.1742 35.1338C67.0514 38.3749 66.8979 38.5497 66.3821 38.3128C65.7378 38.0172 65.6539 37.431 66.1697 36.8247C66.4271 36.5223 67.1993 35.3325 67.1993 35.2394C67.1993 35.1916 67.2844 35.0627 67.3886 34.9534C67.6346 34.6935 68.4482 33.465 68.4482 33.3529C68.4482 33.3051 68.533 33.1762 68.6375 33.067C68.8835 32.8071 69.697 31.5782 69.697 31.4664C69.697 31.4186 69.7818 31.2898 69.886 31.1802C70.132 30.9206 70.9459 29.6918 70.9459 29.5799C70.9459 29.532 71.0306 29.4031 71.1348 29.2937C71.3808 29.034 72.1944 27.8052 72.1944 27.6933C72.1944 27.6455 72.2795 27.5166 72.3837 27.4072C72.6297 27.1475 73.4432 25.9187 73.4432 25.8068C73.4432 25.759 73.5308 25.6301 73.6374 25.5206C73.8779 25.2741 74.6921 23.9825 74.6921 23.8479C74.6921 23.7938 74.7802 23.6505 74.8875 23.5291C75.1628 23.2191 75.6567 22.4865 75.8423 22.1142C75.9277 21.9412 76.0621 21.7589 76.1407 21.7086C76.2187 21.6583 76.3531 21.4457 76.4391 21.237C76.5254 21.0275 76.6389 20.8565 76.6913 20.8565C76.7446 20.8565 76.9074 20.6163 77.0535 20.322C77.2002 20.0283 77.543 19.4762 77.8165 19.0957C78.0893 18.7153 78.3128 18.3405 78.3134 18.2619C78.3134 18.1839 78.4016 18.0468 78.5083 17.9575C78.7589 17.7481 79.5623 16.5319 79.5623 16.3627C79.5623 16.2917 79.6504 16.1603 79.7571 16.071C80.0074 15.8616 80.8111 14.6454 80.8111 14.4762C80.8111 14.4052 80.8993 14.2737 81.0059 14.1844C81.2563 13.975 82.0599 12.7588 82.0599 12.5897C82.0599 12.5186 82.1481 12.3872 82.2548 12.2979C82.5051 12.0885 83.3088 10.8723 83.3088 10.7031C83.3088 10.6321 83.3966 10.5006 83.5036 10.4114C84.1618 9.86113 84.9658 8.08147 84.648 7.87836C84.5638 7.82427 80.3253 7.77963 75.2285 7.77838L65.9619 7.77649L65.8818 7.34698C65.8383 7.11117 65.8395 6.79988 65.8845 6.65526L65.9675 6.39303H76.7458C85.3407 6.39303 87.5507 6.42573 87.6564 6.55402ZM102.391 6.51061C103.493 6.6389 103.419 6.56721 103.263 7.3602C103.112 8.12739 103.017 8.1821 102.141 8.0123C100.888 7.76957 98.7844 7.73687 97.7236 7.94377C97.1789 8.05005 96.3962 8.17455 95.984 8.22047C95.5718 8.26636 94.9987 8.41163 94.7108 8.54306C94.4229 8.6751 94.0825 8.78265 93.9546 8.78265C93.708 8.78265 90.8027 10.217 90.6841 10.3975C90.6458 10.4566 90.2768 10.7352 89.865 11.0176C89.0492 11.576 86.8053 13.809 86.8053 14.0618C86.8053 14.148 86.5617 14.5693 86.2639 14.9988C84.5552 17.4601 83.6177 21.1917 84.0487 23.814C84.1285 24.2969 84.2435 25.022 84.3045 25.4244C84.4932 26.6626 85.8986 29.8528 86.5112 30.4319C86.673 30.5853 86.8053 30.7716 86.8053 30.8458C86.8059 31.4022 90.5635 34.6659 91.4572 34.8854C91.6462 34.932 91.8003 35.0233 91.8003 35.0885C91.8003 35.154 92.0115 35.2915 92.2689 35.3949C92.5266 35.498 92.9339 35.6858 93.174 35.8131C93.4145 35.9401 93.8341 36.0839 94.1063 36.1329C94.3785 36.182 94.7614 36.3052 94.9568 36.4064C95.1523 36.5086 95.9128 36.6738 96.6471 36.7744C97.3814 36.875 98.3602 37.019 98.8229 37.0951C99.4555 37.1997 99.9364 37.1951 100.759 37.0796C102.639 36.8147 103.068 36.8374 103.166 37.2065C103.442 38.2522 103.454 38.1932 102.947 38.3215C101.46 38.6999 96.4705 38.5459 95.2971 38.0861C94.9879 37.9647 94.4429 37.826 94.0859 37.7769C93.7286 37.7278 93.3726 37.6102 93.2946 37.5158C93.2172 37.4217 92.8352 37.2513 92.4456 37.1373C92.0565 37.024 91.6705 36.875 91.5876 36.8067C91.505 36.738 91.238 36.5738 90.9945 36.4412C90.751 36.3086 90.3601 36.096 90.1258 35.9684C89.0751 35.3955 86.8016 33.4283 86.1184 32.5022C85.9813 32.3159 85.7282 31.9821 85.5564 31.7608C85.0176 31.0659 84.6825 30.5552 84.6825 30.4294C84.6825 30.3627 84.545 30.1438 84.377 29.9426C84.0662 29.571 83.9176 29.2315 83.4256 27.7738C83.2736 27.3242 83.0763 26.7865 82.9872 26.579C82.7785 26.0948 82.7043 25.5596 82.5738 23.6064C82.515 22.7323 82.4277 21.9526 82.379 21.874C82.2616 21.6822 81.3531 22.406 81.2415 22.7795C81.1958 22.9323 81.0503 23.1706 80.9187 23.309C80.5802 23.6643 79.9421 24.6635 79.9396 24.8427C79.9384 24.9251 79.8326 25.0666 79.7059 25.1572C79.5786 25.2471 79.3782 25.4911 79.2602 25.6986C78.9509 26.2426 78.5379 26.9249 78.2616 27.3456C78.1306 27.5468 77.2258 28.9277 76.2514 30.4149C75.2766 31.902 74.3844 33.2886 74.2688 33.4963C74.1532 33.7037 73.8924 34.1282 73.6886 34.4396C73.4858 34.751 73.2385 35.1754 73.1405 35.3828C73.0419 35.5905 72.8446 35.8594 72.7009 35.9808C72.503 36.1481 72.4598 36.2854 72.5218 36.5468C72.6846 37.2342 72.347 37.2022 79.7953 37.2367L86.743 37.2693L86.784 37.6304C86.8065 37.8291 86.7911 38.1259 86.7504 38.2907L86.6755 38.59H78.1926C70.3657 38.59 69.7001 38.5736 69.5913 38.378C69.4646 38.1492 69.644 37.5919 69.8968 37.4298C69.9748 37.3795 70.1092 37.1668 70.1952 36.9582C70.2815 36.7486 70.395 36.5775 70.4474 36.5775C70.5004 36.5775 70.6635 36.3375 70.8096 36.0432C70.9563 35.7495 71.2992 35.1975 71.5726 34.8168C71.8454 34.4365 72.0689 34.0617 72.0695 33.9832C72.0695 33.9049 72.1577 33.768 72.2644 33.6786C72.4879 33.492 73.3184 32.2613 73.3184 32.1166C73.3184 32.0638 73.487 31.8266 73.6929 31.5903C73.8992 31.3544 74.0678 31.0864 74.0678 30.9961C74.0678 30.9054 74.18 30.7288 74.3175 30.6036C74.4547 30.4785 74.5672 30.3099 74.5672 30.2295C74.5672 30.1485 74.734 29.8603 74.9381 29.5886C75.1422 29.317 75.3108 29.0428 75.3126 28.9793C75.3145 28.9158 75.4014 28.7743 75.5056 28.6649C75.7516 28.4052 76.5652 27.1764 76.5652 27.0645C76.5652 27.0167 76.6503 26.8878 76.7545 26.7783C77.0162 26.5023 77.814 25.2867 77.814 25.1635C77.814 25.1081 77.9265 24.966 78.0637 24.8472C78.2012 24.7289 78.3134 24.5541 78.3134 24.4592C78.3134 24.3648 78.4821 24.073 78.6883 23.8121C78.8942 23.5511 79.0629 23.2599 79.0629 23.1656C79.0629 23.0719 79.1177 22.9946 79.1852 22.9946C79.2528 22.9946 79.4349 22.7632 79.5909 22.4808C79.7472 22.1978 79.9689 21.796 80.0839 21.5866C80.1992 21.3778 80.3983 21.0854 80.5272 20.9376C80.8885 20.5213 81.4357 19.6636 81.4357 19.5133C81.4357 19.4391 81.5235 19.3045 81.6302 19.2152C81.8784 19.0083 82.6842 17.7903 82.6842 17.6236C82.6842 17.5538 82.8112 17.3551 82.9654 17.1809C83.1201 17.0073 83.3587 16.6753 83.4959 16.4432C83.6334 16.2112 83.8702 15.8213 84.0225 15.5773C84.1747 15.3334 84.3908 14.9378 84.5037 14.6976C84.7275 14.2215 84.9152 13.9593 85.8999 12.7507C86.2609 12.308 86.5556 11.9156 86.5556 11.8791C86.5556 11.7558 87.6694 10.7572 88.6784 9.97619C88.9876 9.73725 89.3529 9.45425 89.4901 9.34735C89.733 9.15805 90.1566 8.91346 91.0512 8.4456C91.2917 8.31983 91.5445 8.15505 91.6132 8.08023C91.682 8.00475 91.9908 7.87209 92.3001 7.78466C92.6089 7.69726 92.9462 7.55264 93.0492 7.46269C93.1524 7.37278 93.5739 7.23067 93.9857 7.14638C94.3979 7.06211 94.8899 6.91308 95.0792 6.81562C95.7867 6.44963 100.267 6.26285 102.391 6.51061Z" fill="#EFEFE5"/>
<path d="M26 59.8618V58.813L30.7256 53.0515H26.1487V51.7953H32.5563V52.8441L27.8307 58.6056H32.5563V59.8618H26ZM34.32 59.8618V51.7953H40.2584V53.063H35.7274V55.1603H39.7435V56.4276H35.7274V58.5942H40.3157V59.8618H34.32ZM41.9853 59.8618V51.7953H45.1433C46.0739 51.7953 46.8138 52.0412 47.363 52.5327C47.9122 53.0245 48.1868 53.6852 48.1868 54.5148C48.1868 55.3829 47.8817 56.0591 47.2715 56.5431C46.6689 57.0272 45.9061 57.269 44.9831 57.269H43.3926V59.8618H41.9853ZM43.3926 55.9899H45.0289C45.5552 55.9899 45.9747 55.8554 46.2875 55.5866C46.6002 55.3177 46.7566 54.9644 46.7566 54.5263C46.7566 54.0655 46.6002 53.7122 46.2875 53.4663C45.9823 53.2126 45.5628 53.086 45.0289 53.086H43.3926V55.9899ZM49.6281 59.8618V51.7953H51.0357V55.1488H54.8571V51.7953H56.2647V59.8618H54.8571V56.4624H51.0357V59.8618H49.6281ZM60.6786 59.8618V56.6813L57.4975 51.7953H59.1567L61.3994 55.3677L63.6649 51.7953H65.2782L62.0973 56.6468V59.8618H60.6786ZM66.5119 59.8618V51.7953H70.0818C71.0125 51.7953 71.7409 52.0297 72.2672 52.4982C72.7934 52.9593 73.0566 53.5815 73.0566 54.3651C73.0566 55.0029 72.8849 55.5288 72.5418 55.9439C72.1984 56.351 71.7332 56.6391 71.1459 56.808L73.3085 59.8618H71.6494L69.6585 57.0501H67.9192V59.8618H66.5119ZM67.9192 55.794H69.9788C70.4822 55.794 70.8827 55.671 71.1802 55.4251C71.4776 55.1795 71.6265 54.8451 71.6265 54.4226C71.6265 53.9926 71.4813 53.6622 71.1916 53.4315C70.9018 53.2012 70.4936 53.086 69.9674 53.086H67.9192V55.794ZM78.0643 59.9885C77.0042 59.9885 76.1687 59.6852 75.5586 59.0782C74.956 58.4712 74.6545 57.5916 74.6545 56.4394V51.7953H76.0621V56.3817C76.0621 57.1191 76.2412 57.6876 76.5997 58.0871C76.9582 58.4867 77.4539 58.6864 78.0872 58.6864C78.7204 58.6864 79.2124 58.4945 79.5632 58.1101C79.9217 57.7261 80.1011 57.1691 80.1011 56.4394V51.7953H81.5084V56.3702C81.5084 57.5457 81.2032 58.4445 80.5932 59.0667C79.9828 59.6811 79.1399 59.9885 78.0643 59.9885ZM86.2436 59.977C84.9695 59.977 83.856 59.5467 82.9025 58.6864L83.749 57.6724C84.5502 58.3715 85.3931 58.7211 86.2778 58.7211C86.7125 58.7211 87.0559 58.6289 87.3075 58.4445C87.567 58.2523 87.6965 57.999 87.6965 57.6838C87.6965 57.3842 87.5744 57.1461 87.3306 56.9694C87.0864 56.785 86.6058 56.6083 85.8888 56.4394C84.9581 56.2165 84.2792 55.9362 83.852 55.5981C83.4327 55.2525 83.2228 54.7262 83.2228 54.0193C83.2228 53.3278 83.4783 52.7671 83.9895 52.3368C84.5006 51.899 85.1566 51.6801 85.9575 51.6801C87.0559 51.6801 88.0245 52.0182 88.8637 52.6942L88.1087 53.7659C87.3685 53.2127 86.6441 52.936 85.9347 52.936C85.5302 52.936 85.2099 53.0282 84.9735 53.2126C84.7444 53.3971 84.6301 53.6315 84.6301 53.9156C84.6301 54.2307 84.7562 54.4766 85.0077 54.6533C85.267 54.8222 85.7744 54.9988 86.5297 55.1833C87.4144 55.3984 88.0628 55.6865 88.4746 56.0476C88.8942 56.4087 89.1041 56.9157 89.1041 57.5686C89.1041 58.3138 88.8409 58.9015 88.3146 59.3318C87.7881 59.7619 87.0978 59.977 86.2436 59.977ZM97.908 60C96.7485 60 95.7799 59.6007 95.0018 58.8016C94.2237 57.9949 93.8347 57.0039 93.8347 55.8284C93.8347 54.6607 94.2237 53.6737 95.0018 52.8671C95.7799 52.0605 96.7676 51.6572 97.9653 51.6572C98.6595 51.6572 99.2468 51.7646 99.7274 51.9797C100.215 52.1949 100.673 52.506 101.1 52.913L100.197 53.9618C99.4796 53.2934 98.732 52.9593 97.9539 52.9593C97.1909 52.9593 96.558 53.2356 96.0546 53.7889C95.5586 54.3422 95.3107 55.0218 95.3107 55.8284C95.3107 56.6276 95.5626 57.3075 96.066 57.8683C96.5694 58.4215 97.1986 58.6979 97.9539 58.6979C98.4114 58.6979 98.8158 58.6134 99.1667 58.4445C99.5175 58.2678 99.88 58.0027 100.254 57.6494L101.158 58.5712C100.707 59.0475 100.231 59.4048 99.7274 59.6429C99.224 59.8811 98.6176 60 97.908 60ZM101.95 59.8618L105.474 51.7376H106.779L110.303 59.8618H108.815L108.003 57.9142H104.216L103.392 59.8618H101.95ZM104.731 56.6583H107.488L106.104 53.4315L104.731 56.6583ZM111.676 59.8618V51.7953H114.834C115.765 51.7953 116.505 52.0412 117.054 52.5327C117.603 53.0245 117.878 53.6852 117.878 54.5148C117.878 55.3829 117.573 56.0591 116.963 56.5431C116.36 57.0272 115.597 57.269 114.674 57.269H113.084V59.8618H111.676ZM113.084 55.9899H114.72C115.246 55.9899 115.666 55.8554 115.979 55.5866C116.291 55.3177 116.448 54.9644 116.448 54.5263C116.448 54.0655 116.291 53.7122 115.979 53.4663C115.673 53.2126 115.254 53.086 114.72 53.086H113.084V55.9899ZM119.399 59.8618V51.7953H120.807V59.8618H119.399ZM124.919 59.8618V53.109H122.379V51.7953H128.878V53.109H126.338V59.8618H124.919ZM128.656 59.8618L132.18 51.7376H133.484L137.009 59.8618H135.521L134.708 57.9142H130.921L130.098 59.8618H128.656ZM131.436 56.6583H134.194L132.809 53.4315L131.436 56.6583ZM138.382 59.8618V51.7953H139.789V58.5712H144V59.8618H138.382Z" fill="#EFEFE5"/>
<path fill-rule="evenodd" clip-rule="evenodd" d="M65.8845 6.65526C65.8395 6.79988 65.8383 7.11117 65.8818 7.34698L65.9619 7.77649L75.2285 7.77838C80.3253 7.77963 84.5638 7.82427 84.648 7.87836C84.9658 8.08147 84.1618 9.86113 83.5036 10.4114C83.3966 10.5006 83.3088 10.6321 83.3088 10.7031C83.3088 10.8723 82.5051 12.0885 82.2548 12.2979C82.1481 12.3872 82.0599 12.5186 82.0599 12.5897C82.0599 12.7588 81.2563 13.975 81.0059 14.1844C80.8993 14.2737 80.8111 14.4052 80.8111 14.4762C80.8111 14.6454 80.0074 15.8616 79.7571 16.071C79.6504 16.1603 79.5623 16.2917 79.5623 16.3627C79.5623 16.5319 78.7589 17.7481 78.5083 17.9575C78.4016 18.0468 78.3134 18.1839 78.3134 18.2619C78.3128 18.3405 78.0893 18.7153 77.8165 19.0957C77.543 19.4762 77.2002 20.0283 77.0535 20.322C76.9074 20.6163 76.7446 20.8565 76.6913 20.8565C76.6389 20.8565 76.5254 21.0275 76.4391 21.237C76.3531 21.4457 76.2187 21.6583 76.1407 21.7086C76.0621 21.7589 75.9277 21.9412 75.8423 22.1142C75.6567 22.4865 75.1628 23.2191 74.8875 23.5291C74.7802 23.6505 74.6921 23.7938 74.6921 23.8479C74.6921 23.9825 73.8779 25.2741 73.6374 25.5206C73.5308 25.6301 73.4432 25.759 73.4432 25.8068C73.4432 25.9187 72.6297 27.1475 72.3837 27.4072C72.2795 27.5166 72.1944 27.6455 72.1944 27.6933C72.1944 27.8052 71.3808 29.034 71.1348 29.2937C71.0306 29.4031 70.9459 29.532 70.9459 29.5799C70.9459 29.6918 70.132 30.9206 69.886 31.1802C69.7818 31.2898 69.697 31.4186 69.697 31.4664C69.697 31.5782 68.8835 32.8071 68.6375 33.067C68.533 33.1762 68.4482 33.3051 68.4482 33.3529C68.4482 33.465 67.6346 34.6935 67.3886 34.9534C67.2844 35.0627 67.1993 35.1916 67.1993 35.2394C67.1993 35.3325 66.4271 36.5223 66.1697 36.8247C65.6539 37.431 65.7378 38.0172 66.3821 38.3128C66.8979 38.5497 67.0514 38.3749 69.1742 35.1338C70.2627 33.4724 71.2609 31.9486 71.3929 31.7474C71.5245 31.5469 71.7449 31.1997 71.8824 30.9765C72.0196 30.7527 72.3008 30.3276 72.5067 30.0314C72.7126 29.7358 72.9938 29.3113 73.1313 29.0881C73.2684 28.8655 73.5496 28.441 73.7555 28.1448C74.1313 27.6053 74.4898 27.0311 74.8894 26.3275C75.0074 26.1199 75.2078 25.876 75.3351 25.786C75.4618 25.6955 75.5676 25.554 75.5688 25.4716C75.5713 25.3012 76.2051 24.2963 76.5097 23.98C76.6204 23.8649 76.805 23.6008 76.9194 23.3933C77.4795 22.3758 77.6186 22.1645 77.8328 22.0129C77.9595 21.9224 78.065 21.7809 78.0662 21.6985C78.069 21.5281 78.7025 20.5232 79.0074 20.2069C79.1177 20.0918 79.3027 19.8277 79.4168 19.6202C79.9769 18.6027 80.1162 18.3914 80.3305 18.2399C80.4572 18.1493 80.5626 18.0078 80.5639 17.9254C80.5663 17.755 81.2002 16.7501 81.5047 16.4338C81.6154 16.3187 81.8001 16.0552 81.9144 15.8471C82.2409 15.2554 82.6626 14.5517 83.0323 13.9832C83.8063 12.7909 84.3545 11.9715 84.5749 11.6753C84.7044 11.5024 84.8604 11.2477 84.922 11.1094C84.9846 10.971 85.6545 9.92527 86.4119 8.78641C87.4416 7.23694 87.7557 6.67414 87.6564 6.55402C87.5507 6.42573 85.3407 6.39303 76.7458 6.39303H65.9675L65.8845 6.65526ZM96.3285 6.53222C95.8303 6.59006 95.2679 6.71751 95.0792 6.81562C94.8899 6.91308 94.3979 7.06211 93.9857 7.14638C93.5739 7.23067 93.1524 7.37278 93.0492 7.46269C92.9462 7.55264 92.6089 7.69726 92.3001 7.78466C91.9908 7.87209 91.682 8.00475 91.6132 8.08023C91.5445 8.15505 91.2917 8.31983 91.0512 8.4456C90.1566 8.91346 89.733 9.15805 89.4901 9.34735C89.3529 9.45425 88.9876 9.73725 88.6784 9.97619C87.6694 10.7572 86.5556 11.7558 86.5556 11.8791C86.5556 11.9156 86.2609 12.308 85.8999 12.7507C84.9152 13.9593 84.7275 14.2215 84.5037 14.6976C84.3908 14.9378 84.1747 15.3334 84.0225 15.5773C83.8702 15.8213 83.6334 16.2112 83.4959 16.4432C83.3587 16.6753 83.1201 17.0073 82.9654 17.1809C82.8112 17.3551 82.6842 17.5538 82.6842 17.6236C82.6842 17.7903 81.8784 19.0083 81.6302 19.2152C81.5235 19.3045 81.4357 19.4391 81.4357 19.5133C81.4357 19.6636 80.8885 20.5213 80.5272 20.9376C80.3983 21.0854 80.1992 21.3778 80.0839 21.5866C79.9689 21.796 79.7472 22.1978 79.5909 22.4808C79.4349 22.7632 79.2528 22.9946 79.1852 22.9946C79.1177 22.9946 79.0629 23.0719 79.0629 23.1656C79.0629 23.2599 78.8942 23.5511 78.6883 23.8121C78.4821 24.073 78.3134 24.3648 78.3134 24.4592C78.3134 24.5541 78.2012 24.7289 78.0637 24.8472C77.9265 24.966 77.814 25.1081 77.814 25.1635C77.814 25.2867 77.0162 26.5023 76.7545 26.7783C76.6503 26.8878 76.5652 27.0167 76.5652 27.0645C76.5652 27.1764 75.7516 28.4052 75.5056 28.6649C75.4014 28.7743 75.3145 28.9158 75.3126 28.9793C75.3108 29.0428 75.1422 29.317 74.9381 29.5886C74.734 29.8603 74.5672 30.1485 74.5672 30.2295C74.5672 30.3099 74.4547 30.4785 74.3175 30.6036C74.18 30.7288 74.0678 30.9054 74.0678 30.9961C74.0678 31.0864 73.8992 31.3544 73.6929 31.5903C73.487 31.8266 73.3184 32.0638 73.3184 32.1166C73.3184 32.2613 72.4879 33.492 72.2644 33.6786C72.1577 33.768 72.0695 33.9049 72.0695 33.9832C72.0689 34.0617 71.8454 34.4365 71.5726 34.8168C71.2992 35.1975 70.9563 35.7495 70.8096 36.0432C70.6635 36.3375 70.5004 36.5775 70.4474 36.5775C70.395 36.5775 70.2815 36.7486 70.1952 36.9582C70.1092 37.1668 69.9748 37.3795 69.8968 37.4298C69.644 37.5919 69.4646 38.1492 69.5913 38.378C69.7001 38.5736 70.3657 38.59 78.1926 38.59H86.6755L86.7504 38.2907C86.7911 38.1259 86.8065 37.8291 86.784 37.6304L86.743 37.2693L79.7953 37.2367C72.347 37.2022 72.6846 37.2342 72.5218 36.5468C72.4598 36.2854 72.503 36.1481 72.7009 35.9808C72.8446 35.8594 73.0419 35.5905 73.1405 35.3828C73.2385 35.1754 73.4858 34.751 73.6886 34.4396C73.8924 34.1282 74.1532 33.7037 74.2688 33.4963C74.3844 33.2886 75.2766 31.902 76.2514 30.4149C77.2258 28.9277 78.1306 27.5468 78.2616 27.3456C78.5379 26.9249 78.9509 26.2426 79.2602 25.6986C79.3782 25.4911 79.5786 25.2471 79.7059 25.1572C79.8326 25.0666 79.9384 24.9251 79.9396 24.8427C79.9421 24.6635 80.5802 23.6643 80.9187 23.309C81.0503 23.1706 81.1958 22.9323 81.2415 22.7795C81.3531 22.406 82.2616 21.6822 82.379 21.874C82.4277 21.9526 82.515 22.7323 82.5738 23.6064C82.7043 25.5596 82.7785 26.0948 82.9872 26.579C83.0763 26.7865 83.2736 27.3242 83.4256 27.7738C83.9176 29.2315 84.0662 29.571 84.377 29.9426C84.545 30.1438 84.6825 30.3627 84.6825 30.4294C84.6825 30.5552 85.0176 31.0659 85.5564 31.7608C85.7282 31.9821 85.9813 32.3159 86.1184 32.5022C86.8016 33.4283 89.0751 35.3955 90.1258 35.9684C90.3601 36.096 90.751 36.3086 90.9945 36.4412C91.238 36.5738 91.505 36.738 91.5876 36.8067C91.6705 36.875 92.0565 37.024 92.4456 37.1373C92.8352 37.2513 93.2172 37.4217 93.2946 37.5158C93.3726 37.6102 93.7286 37.7278 94.0859 37.7769C94.4429 37.826 94.9879 37.9647 95.2971 38.0861C96.4705 38.5459 101.46 38.6999 102.947 38.3215C103.454 38.1932 103.442 38.2522 103.166 37.2065C103.068 36.8374 102.639 36.8147 100.759 37.0796C99.9364 37.1951 99.4555 37.1997 98.8229 37.0951C98.3602 37.019 97.3814 36.875 96.6471 36.7744C95.9128 36.6738 95.1523 36.5086 94.9568 36.4064C94.7614 36.3052 94.3785 36.182 94.1063 36.1329C93.8341 36.0839 93.4145 35.9401 93.174 35.8131C92.9339 35.6858 92.5266 35.498 92.2689 35.3949C92.0115 35.2915 91.8003 35.154 91.8003 35.0885C91.8003 35.0233 91.6462 34.932 91.4572 34.8854C91.1086 34.8 90.5214 34.4373 89.6157 33.7499C88.9717 33.2612 86.8059 31.0225 86.8053 30.8458C86.8053 30.7716 86.673 30.5853 86.5112 30.4319C85.8986 29.8528 84.4932 26.6626 84.3045 25.4244C84.2435 25.022 84.1285 24.2969 84.0487 23.814C83.6177 21.1917 84.5552 17.4601 86.2639 14.9988C86.5617 14.5693 86.8053 14.148 86.8053 14.0618C86.8053 13.809 89.0492 11.576 89.865 11.0176C90.2768 10.7352 90.6458 10.4566 90.6841 10.3975C90.8027 10.217 93.708 8.78265 93.9546 8.78265C94.0825 8.78265 94.4229 8.6751 94.7108 8.54306C94.9987 8.41163 95.5718 8.26636 95.984 8.22047C96.3962 8.17455 97.1789 8.05005 97.7236 7.94377C98.7844 7.73687 100.888 7.76957 102.141 8.0123C102.505 8.08274 102.878 8.11187 102.969 8.07666C103.119 8.01882 103.453 6.77054 103.348 6.6624C103.112 6.42029 98.0804 6.32659 96.3285 6.53222Z" fill="#EFEFE5"/>
</g>
</svg>
