<svg width="170" height="66" viewBox="0 0 170 66" fill="none" xmlns="http://www.w3.org/2000/svg">
<g opacity="0.8">
<path fill-rule="evenodd" clip-rule="evenodd" d="M18.3411 31.6113C17.8863 31.1609 17.8863 30.4308 18.3411 29.9805L27.0698 21.3378C27.5246 20.8874 28.262 20.8874 28.7168 21.3378C29.1716 21.7881 29.1716 22.5182 28.7168 22.9686L19.9881 31.6113C19.5333 32.0616 18.7959 32.0616 18.3411 31.6113Z" fill="#EFEFE5"/>
<path fill-rule="evenodd" clip-rule="evenodd" d="M41.904 31.6113C42.3588 31.1609 42.3588 30.4308 41.904 29.9805L33.1753 21.3378C32.7205 20.8874 31.9831 20.8874 31.5283 21.3378C31.0735 21.7881 31.0735 22.5182 31.5283 22.9686L40.257 31.6113C40.7117 32.0616 41.4492 32.0616 41.904 31.6113Z" fill="#EFEFE5"/>
<path fill-rule="evenodd" clip-rule="evenodd" d="M42.0748 34.3887C42.5296 34.8391 42.5296 35.5692 42.0748 36.0195L33.3461 44.6623C32.8914 45.1126 32.1539 45.1126 31.6991 44.6623C31.2443 44.212 31.2443 43.4818 31.6991 43.0315L40.4278 34.3887C40.8826 33.9384 41.62 33.9384 42.0748 34.3887Z" fill="#EFEFE5"/>
<path fill-rule="evenodd" clip-rule="evenodd" d="M18.512 34.3887C18.0571 34.8391 18.0571 35.5692 18.512 36.0195L27.2407 44.6623C27.6955 45.1126 28.4328 45.1126 28.8877 44.6623C29.3425 44.212 29.3425 43.4818 28.8877 43.0315L20.159 34.3887C19.7042 33.9384 18.9668 33.9384 18.512 34.3887Z" fill="#EFEFE5"/>
<path fill-rule="evenodd" clip-rule="evenodd" d="M147.855 29.1759V22.881H152V38.0237H147.897V35.5941L147.302 36.4193C147.047 36.7723 145.479 38.2997 141.866 38.2997H141.588C139.082 38.2997 137.353 37.6461 136.255 36.6473C135.158 35.6508 134.648 34.2745 134.648 32.7449V32.3415C134.648 30.8802 135.104 29.5528 136.144 28.5883C137.188 27.6217 138.866 26.9778 141.395 26.9778H141.738C145.241 26.9778 146.818 28.2726 147.309 28.7011L147.855 29.1759ZM143.046 29.3208C141.497 29.3208 140.442 29.6933 139.776 30.317C139.107 30.9434 138.881 31.7736 138.881 32.575V32.66C138.881 33.4327 139.181 34.2597 139.873 34.8915C140.566 35.5242 141.623 35.9354 143.089 35.9354H143.196C146.122 35.9354 147.855 34.3785 147.855 32.66V32.575C147.855 30.828 146.069 29.3208 143.153 29.3208H143.046Z" fill="#EFEFE5"/>
<path fill-rule="evenodd" clip-rule="evenodd" d="M79.9481 32.3628C79.9481 30.9629 80.3663 29.6249 81.4966 28.6311C82.6334 27.6317 84.5411 26.9353 87.6162 26.9353H88.9239C92.2604 26.9353 94.1633 27.7662 95.2367 28.8708C96.3116 29.977 96.6133 31.418 96.6133 32.7661V33.2265H83.9119L83.9933 33.6172C84.15 34.3685 84.5602 35.0057 85.2977 35.4457C86.0223 35.878 87.038 36.1053 88.388 36.1053H88.4094C90.0335 36.1053 91.0227 35.8015 91.6254 35.4266C92.0498 35.1626 92.2737 34.8687 92.3871 34.6406H96.5347C96.4709 35.3034 96.1789 36.1281 95.2967 36.8297C94.2619 37.6531 92.3708 38.3421 88.9668 38.3421H87.7448C84.7147 38.3421 82.7719 37.6414 81.5903 36.6254C80.4149 35.6148 79.9481 34.2537 79.9481 32.8298V32.3628ZM88.2379 28.9387C87.0101 28.9387 86.0796 29.1222 85.3982 29.4906C84.7032 29.8662 84.2912 30.4213 84.086 31.1024L83.9602 31.5203H92.5435L92.4353 31.1126C92.2522 30.4224 91.8356 29.865 91.1323 29.4897C90.4431 29.1221 89.4973 28.9387 88.2594 28.9387H88.2379Z" fill="#EFEFE5"/>
<path fill-rule="evenodd" clip-rule="evenodd" d="M102.744 28.8078C103.22 28.395 104.991 26.9778 108.381 26.9778H108.766C111.331 26.9778 112.977 27.6124 113.983 28.5741C114.988 29.5344 115.405 30.8704 115.405 32.384V32.7873C115.405 34.221 114.975 35.5876 113.939 36.5966C112.903 37.605 111.217 38.2997 108.616 38.2997H108.273C104.935 38.2997 103.094 36.8729 102.772 36.5181L102.2 35.8887V42.0144H98.0758V27.2537H102.2V29.2794L102.744 28.8078ZM106.794 29.2784C105.252 29.2784 104.105 29.6632 103.338 30.2764C102.567 30.8923 102.2 31.7228 102.2 32.5538V32.6387C102.2 34.3 103.764 35.9354 106.794 35.9354H106.901C108.5 35.9354 109.579 35.5226 110.258 34.8765C110.939 34.23 111.174 33.3934 111.174 32.6387V32.5538C111.174 31.7599 110.94 30.9248 110.255 30.2917C109.573 29.6616 108.494 29.2784 106.901 29.2784H106.794Z" fill="#EFEFE5"/>
<path fill-rule="evenodd" clip-rule="evenodd" d="M116.367 32.3415C116.367 30.945 116.873 29.6117 117.923 28.6266C118.972 27.6421 120.595 26.9778 122.877 26.9778H123.198C126.467 26.9778 127.994 28.2307 128.454 28.6869L129.015 29.2416V27.2537H133.16V38.0237H129.058V35.5136L128.456 36.4066C128.178 36.8199 126.654 38.2997 123.391 38.2997H123.091C120.72 38.2997 119.045 37.6336 117.965 36.6263C116.886 35.6194 116.367 34.24 116.367 32.7449V32.3415ZM124.485 29.3208C123.051 29.3208 122.066 29.7215 121.441 30.3587C120.819 30.9926 120.598 31.8156 120.598 32.575V32.66C120.598 33.395 120.873 34.2179 121.516 34.858C122.164 35.5025 123.159 35.9354 124.549 35.9354H124.656C127.349 35.9354 129.015 34.2951 129.015 32.66V32.575C129.015 30.8862 127.271 29.3208 124.592 29.3208H124.485Z" fill="#EFEFE5"/>
<path d="M60.5222 38.0237L56.0137 27.2537H60.2647L63.1353 35.203L65.9592 27.2537H70.5132L73.4305 35.203L76.2077 27.2537H79.9543L75.749 38.0237H71.143L68.0849 29.8573L65.0267 38.0237H60.5222Z" fill="#EFEFE5"/>
</g>
</svg>
