<svg width="170" height="66" viewBox="0 0 170 66" fill="none" xmlns="http://www.w3.org/2000/svg">
<path opacity="0.8" fill-rule="evenodd" clip-rule="evenodd" d="M21.7992 51C31.6295 51 39.5984 43.165 39.5984 33.5C39.5984 23.835 31.6295 16 21.7992 16C11.969 16 4 23.835 4 33.5C4 43.165 11.969 51 21.7992 51ZM21.7992 49.75C30.9273 49.75 38.3271 42.4746 38.3271 33.5C38.3271 24.5254 30.9273 17.25 21.7992 17.25C12.6711 17.25 5.27137 24.5254 5.27137 33.5C5.27137 42.4746 12.6711 49.75 21.7992 49.75ZM99.3793 39.517C100.067 39.8118 100.841 39.9593 101.703 39.9593C102.603 39.9593 103.384 39.7873 104.046 39.4433C104.709 39.0993 105.208 38.6509 105.546 38.0981C105.883 37.5452 106.052 36.9555 106.052 36.329C106.052 35.5182 105.864 34.8794 105.489 34.4125C105.115 33.9334 104.665 33.5833 104.14 33.3621C103.615 33.1287 102.922 32.8953 102.06 32.6619C101.347 32.4653 100.791 32.2933 100.391 32.1459C100.004 31.9862 99.6729 31.7589 99.3981 31.4641C99.1357 31.1692 99.0045 30.7884 99.0045 30.3216C99.0045 29.6705 99.2294 29.1668 99.6792 28.8105C100.129 28.4419 100.71 28.2577 101.422 28.2577C102.184 28.2577 102.797 28.4481 103.259 28.8289C103.721 29.1975 103.984 29.6275 104.046 30.1189H105.921C105.821 29.1238 105.377 28.3252 104.59 27.7233C103.815 27.1213 102.815 26.8203 101.591 26.8203C100.741 26.8203 99.9853 26.9677 99.3231 27.2626C98.6733 27.5574 98.1673 27.9751 97.8049 28.5157C97.4426 29.0562 97.2614 29.6766 97.2614 30.3769C97.2614 31.1754 97.4426 31.8142 97.8049 32.2933C98.1798 32.7602 98.6234 33.1042 99.1357 33.3253C99.6605 33.5464 100.354 33.7676 101.216 33.9887C101.916 34.173 102.472 34.345 102.884 34.5047C103.297 34.6644 103.64 34.8978 103.915 35.2049C104.19 35.512 104.327 35.9113 104.327 36.4027C104.327 37.0293 104.09 37.5452 103.615 37.9506C103.153 38.3438 102.516 38.5403 101.703 38.5403C100.854 38.5403 100.204 38.3376 99.7542 37.9322C99.3168 37.5145 99.0669 37.0047 99.0045 36.4027H97.1864C97.1989 37.103 97.3988 37.7234 97.7862 38.2639C98.1735 38.7922 98.7046 39.2099 99.3793 39.517ZM50.5907 28.3498V32.6435H55.9871V34.0255H50.5907V38.4482H55.9137V39.8303H48.8851V26.9677H55.9137V28.3498H50.5907ZM69.2871 39.8303H67.5816L60.7217 29.6029V39.8303H59.0161V26.9677H60.7217L67.5816 37.1767V26.9677H69.2871V39.8303ZM81.7039 39.8303V26.9862H79.9983V39.8303H81.7039ZM95.4035 39.8303H93.6979L86.838 29.6029V39.8303H85.1325V26.9677H86.838L93.6979 37.1767V26.9677H95.4035V39.8303ZM115.853 26.9862V28.3498H112.291V39.8303H110.586V28.3498H107.006V26.9862H115.853ZM116.906 39.8303L117.955 36.974H123.653L124.703 39.8303H126.502L121.797 27.0599H119.829L115.106 39.8303H116.906ZM120.804 29.1238L123.166 35.6103H118.443L120.804 29.1238ZM134.054 39.8303L130.942 34.5784H128.881V39.8303H127.175V26.9862H130.121C131.108 26.9862 131.939 27.152 132.614 27.4837C133.301 27.8154 133.813 28.2638 134.15 28.8289C134.488 29.3941 134.657 30.039 134.657 30.7638C134.657 31.6484 134.394 32.4285 133.869 33.1042L133.868 33.1054L133.867 33.1072C133.623 33.4293 133.504 33.5855 133.384 33.74C133.271 33.8842 133.156 34.0269 132.935 34.3015L132.932 34.306L132.929 34.3092L132.817 34.4494L136.097 39.8303H134.054ZM128.881 33.2332H130.121C131.045 33.2332 131.739 33.012 132.201 32.5698C132.664 32.1152 132.895 31.5132 132.895 30.7638C132.895 30.0022 132.664 29.4125 132.201 28.9948C131.751 28.5771 131.058 28.3682 130.121 28.3682H128.881V33.2332ZM145.233 28.3498V26.9862H136.387V28.3498H139.967V39.8303H141.672V28.3498H145.233ZM148.924 28.3498V32.6435H153.685V34.0255H148.924V38.4482H154.247V39.8303H147.219V26.9677H154.247V28.3498H148.924ZM159.846 34.5784L162.957 39.8303H165L161.72 34.4494C162.244 33.7243 162.335 33.6258 162.432 33.5213C162.498 33.4505 162.566 33.377 162.773 33.1042C163.298 32.4285 163.56 31.6484 163.56 30.7638C163.56 30.039 163.391 29.3941 163.054 28.8289C162.717 28.2638 162.204 27.8154 161.517 27.4837C160.842 27.152 160.011 26.9862 159.024 26.9862H156.078V39.8303H157.784V34.5784H159.846ZM159.024 33.2332H157.784V28.3682H159.024C159.961 28.3682 160.655 28.5771 161.105 28.9948C161.567 29.4125 161.798 30.0022 161.798 30.7638C161.798 31.5132 161.567 32.1152 161.105 32.5698C160.642 33.012 159.949 33.2332 159.024 33.2332ZM76.7523 26.9862V36.4764C76.7523 37.533 76.4473 38.6827 75.7851 39.3216C75.1228 39.9481 74.222 40.1438 73.1349 40.1438C72.0353 40.1438 71.1544 39.6399 70.4922 39.001L71.6917 37.8769C72.0166 38.2701 72.4976 38.4666 73.1349 38.4666C73.7721 38.4666 74.247 38.2823 74.5593 37.9138C74.8717 37.5329 75.0279 37.0538 75.0279 36.4764V26.9862H76.7523ZM36.42 33.5C36.42 41.4391 29.8741 47.875 21.7992 47.875C13.7244 47.875 7.17843 41.4391 7.17843 33.5C7.17843 25.5609 13.7244 19.125 21.7992 19.125C29.8741 19.125 36.42 25.5609 36.42 33.5ZM21.7992 44.75C28.1187 44.75 33.2416 39.7132 33.2416 33.5C33.2153 32.5877 33.1654 32.0983 32.9857 31.506C32.9587 31.4168 32.8448 31.3901 32.7779 31.4559L24.0315 40.0552C23.5115 40.5665 22.66 40.5387 22.1757 39.9945L21.604 39.3521C21.1736 38.8685 21.1863 38.1428 21.6333 37.674L25.6133 33.5L26.5386 33.8639C26.892 34.0028 27.2895 33.8074 27.3885 33.4461L29.1569 26.988C29.2805 26.5366 28.8748 26.1164 28.4099 26.2144L21.3972 27.6919C20.9709 27.7817 20.761 28.257 20.9853 28.6245L21.4814 29.4375L17.0479 33.54C16.5197 34.0288 15.6833 33.9847 15.2113 33.4433L14.9332 33.1244C14.5025 32.6303 14.5294 31.894 14.9949 31.4315L23.8575 22.6281C23.9288 22.5572 23.8911 22.4371 23.7912 22.4199C23.1443 22.3082 22.4787 22.25 21.7992 22.25C15.4798 22.25 10.3569 27.2868 10.3569 33.5C10.3569 39.7132 15.4798 44.75 21.7992 44.75Z" fill="#EFEFE5"/>
</svg>
