<svg width="170" height="66" viewBox="0 0 170 66" fill="none" xmlns="http://www.w3.org/2000/svg">
<path opacity="0.8" fill-rule="evenodd" clip-rule="evenodd" d="M59.998 23.0001C59.998 27.8776 56.7828 31.0001 52.1661 31.0001C47.5495 31.0001 44.3343 27.8776 44.3343 23.0001C44.3343 18.1225 47.5495 15 52.1661 15C56.7828 15 59.998 18.1225 59.998 23.0001ZM47.6938 23.0001C47.6938 26.3062 49.4662 28.449 52.1661 28.449C54.8661 28.449 56.6385 26.3062 56.6385 23.0001C56.6385 19.6939 54.8661 17.551 52.1661 17.551C49.4662 17.551 47.6938 19.6939 47.6938 23.0001ZM68.0418 31.0005C72.6585 31.0005 74.5547 28.5719 74.5547 24.5311V15.2453H71.2983V24.8168C71.2983 27.2454 70.1853 28.4495 68.0418 28.4495C65.8984 28.4495 64.7649 27.2658 64.7649 24.8577V24.8168V15.2453H61.5085V24.5311V24.5719C61.5085 28.5924 63.4252 31.0005 68.0418 31.0005ZM83.6488 15.2453L88.8013 30.225V15.2453H92.0371V30.7556H85.751L80.578 15.776V30.7556H77.3422V15.2453H83.6488ZM94.9205 30.7556V15.2453H100.691C105.452 15.2453 108.668 17.776 108.668 23.0005C108.668 28.225 105.452 30.7556 100.691 30.7556H94.9205ZM98.1769 17.9392V28.0617H100.774C103.639 28.0617 105.308 26.2862 105.308 23.0005C105.308 19.7352 103.639 17.9392 100.774 17.9392H98.1769ZM42.5547 15.2453H32V30.7556H35.2793V24.5651H42.431V21.4585H35.2793V18.3519H42.5547V15.2453ZM114.228 24.5765H121.606V21.4495H114.228V18.3406H121.75V15.2453H110.971V30.7556H121.936V27.6717H114.228V24.5765ZM134.125 24.0413L138 30.7556H134.29L130.889 24.5719H128.025V30.7556H124.768V15.2453H130.993C134.764 15.2453 137.114 17.1637 137.114 20.1229C137.114 22.1229 136.042 23.2658 134.125 24.0413ZM132.275 18.3519H128.004V21.4585H132.275C133.141 21.4585 133.843 20.7631 133.843 19.9052C133.843 19.0474 133.141 18.3519 132.275 18.3519ZM98.6187 49.7682C102.699 49.7682 105.42 47.9519 105.42 44.8906C105.42 42.4212 103.895 41.1356 100.948 40.5029L98.7218 40.0132C96.5577 39.5232 95.7126 39.156 95.7126 38.0539C95.7126 36.9722 96.9904 36.3191 98.5568 36.3191C100.103 36.3191 101.216 36.8702 101.628 38.156H105.028C104.575 35.564 102.411 33.7681 98.5568 33.7681C95.1356 33.7681 92.4974 35.6457 92.4974 38.3397C92.4974 40.7886 94.2286 42.0948 96.8462 42.6459L99.072 43.1356C101.195 43.605 102.184 43.9927 102.184 45.2172C102.184 46.4214 100.927 47.2172 98.7423 47.2172C97.0317 47.2172 95.6713 46.4008 95.4447 44.7478H92.044C92.4563 47.911 95.0531 49.7682 98.6187 49.7682ZM35.2564 40.2308H41.5745V34.0175H44.8309V49.5278H41.5745V43.3327H35.2564V49.5278H32V34.0175H35.2564V40.2308ZM77.3422 49.5278V34.0175H83.1129C87.8738 34.0175 91.089 36.5481 91.089 41.7727C91.089 46.9972 87.8738 49.5278 83.1129 49.5278H77.3422ZM80.5986 37.1196V46.4485H83.1954C86.0602 46.4485 87.7297 45.0583 87.7297 41.7727C87.7297 38.5074 86.0602 37.1196 83.1954 37.1196H80.5986ZM50.6223 43.3486H58.0008V40.2216H50.6223V37.1128H58.1452V34.0175H47.366V49.5278H58.3307V46.4439H50.6223V43.3486ZM64.1093 46.4445L63.1226 49.5165H63.1339L63.1302 49.5278H59.7089L64.9027 34.0175H70.8795L76.0733 49.5278H72.652L72.6374 49.4821L72.6378 49.4825L72.4791 48.9882L71.6647 46.4445H64.1093ZM65.1071 43.3379L67.8859 34.6863V34.6867L67.8911 34.6706L69.9198 41.0046L70.6678 43.3379H65.1071ZM107.253 49.4055H108.245L107.028 52H108.918L110.341 49.7391V46.5702H107.253V49.4055Z" fill="#EFEFE5"/>
</svg>
