<svg width="170" height="66" viewBox="0 0 170 66" fill="none" xmlns="http://www.w3.org/2000/svg">
<path opacity="0.8" fill-rule="evenodd" clip-rule="evenodd" d="M129.832 19.4255H116.011C111.58 13.1203 104.253 9 95.9632 9C87.6737 9 80.3462 13.1203 75.9153 19.4255H39.1684C36.8663 19.4255 35 21.2926 35 23.5957V43.4043C35 45.7074 36.8663 47.5745 39.1684 47.5745H75.9153C80.3462 53.8797 87.6737 58 95.9632 58C104.253 58 111.58 53.8797 116.011 47.5745H129.832C132.134 47.5745 134 45.7074 134 43.4043V23.5957C134 21.2926 132.134 19.4255 129.832 19.4255ZM84.7227 18.0266H94.3364V14.6294C94.3364 13.8359 94.9794 13.1926 95.7726 13.1926C96.5658 13.1926 97.2088 13.8359 97.2088 14.6294V18.0266H99.0203V15.7107C99.0203 14.9171 99.6633 14.2739 100.456 14.2739C101.25 14.2739 101.893 14.9171 101.893 15.7107V18.0266H102.673C105.442 18.0266 107.686 20.272 107.686 23.0418C107.686 26.2603 106.398 29.3447 104.109 31.6061L95.6891 39.9242C95.5565 40.0552 95.6492 40.2811 95.8355 40.2811H102.163C105.16 40.2811 107.539 42.8042 107.365 45.7974L107.146 49.554H97.2134V53.236C97.2134 54.0295 96.5704 54.6728 95.7772 54.6728C94.984 54.6728 94.341 54.0295 94.341 53.236V49.554H92.6043V51.8635C92.6043 52.6571 91.9613 53.3004 91.1681 53.3004C90.3749 53.3004 89.7319 52.6571 89.7319 51.8635V49.554H89.7248C86.8471 49.554 84.5143 47.2201 84.5143 44.3412V42.4034C84.5143 41.0427 85.046 39.736 85.996 38.7623L96.7589 27.7305C96.8877 27.5984 96.7942 27.3763 96.6097 27.3763H89.7248C86.8471 27.3763 84.5143 25.0425 84.5143 22.1636V18.2351C84.5143 18.12 84.6076 18.0266 84.7227 18.0266ZM42.7823 43.3106V37.2157H45.1915C47.0353 37.2157 48.4776 36.6395 49.5183 35.4871C50.559 34.3347 50.9404 32.7772 50.9404 30.7884C50.9404 30.3786 50.9541 29.9702 50.9676 29.5682L50.9677 29.5677V29.5673V29.5668V29.5664L50.9677 29.5663C51.0197 28.0177 51.0685 26.565 50.319 25.5055C49.1209 23.8118 47.0353 23.0134 45.2653 23.0134H39.1684V43.3106H42.7823ZM45.2653 33.8003H42.7823V26.4288H45.3021C45.9495 26.4381 46.4781 26.5964 46.8632 27.2004C47.1925 27.9779 47.1925 28.9231 47.1925 29.9361L47.1926 30.0139L47.1934 30.235C47.1977 31.2127 47.2038 32.5718 46.8632 33.0335C46.4862 33.5447 45.9536 33.8003 45.2653 33.8003ZM124.349 43.0703V38.5003H126.156C127.538 38.5003 128.62 38.0683 129.4 37.2042C130.18 36.3402 130.466 35.1724 130.466 33.6811C130.466 33.3735 130.477 33.0668 130.487 32.7649C130.526 31.6037 130.562 30.5145 130 29.72C129.102 28.4501 127.538 27.8515 126.211 27.8515H121.64V43.0703H124.349ZM126.211 35.9395H124.349V30.4123H126.239C126.724 30.4193 127.121 30.538 127.409 30.9909C127.656 31.5739 127.656 32.2826 127.656 33.0421C127.656 33.1128 127.657 33.1879 127.657 33.2663V33.2665V33.2665C127.66 33.9996 127.665 35.0184 127.409 35.3646C127.127 35.7479 126.727 35.9395 126.211 35.9395ZM78.5227 34.6872L80.8108 27.8514H84.1541L80.0795 37.5511V43.0699H76.966V37.5511L72.8809 27.8514H76.2242L78.5227 34.6872ZM61.1795 40.5208H55.7885V27.8527H52.7168V43.0712H61.1795V40.5208ZM66.2363 39.9564H70.4258L71.2407 43.0712H74.5214L69.7363 27.8527H66.9258L62.1721 43.0712H65.4213L66.2363 39.9564ZM66.9049 37.3956L68.3258 31.9709L69.7467 37.3956H66.9049ZM111.686 39.9552H115.875L116.69 43.07H119.971L115.186 27.8515H112.375L107.622 43.07H110.871L111.686 39.9552ZM113.775 31.9697L115.196 37.3944H112.355L113.775 31.9697Z" fill="#EFEFE5"/>
</svg>
