<svg width="170" height="66" viewBox="0 0 170 66" fill="none" xmlns="http://www.w3.org/2000/svg">
<path opacity="0.8" fill-rule="evenodd" clip-rule="evenodd" d="M19.6035 25.5728L21.5895 28.81L23.4457 25.8162C24.8736 23.4034 28.4821 23.4278 29.9619 25.7187L36.7116 36.7105C38.1914 39.2695 36.1924 41.9748 33.5184 41.9748H33.2834L33.3192 41.9751H32.8005C33.013 41.9901 33.2347 41.9985 33.4666 42H29.858H23.8351H19.2921C19.1416 42 18.9944 41.9915 18.8508 41.9751H9.73853C6.75305 41.9506 5.11753 39.0016 6.49345 36.7351L13.1394 25.9383C14.6191 23.3305 18.1238 23.5011 19.6035 25.5728ZM33.3192 41.9751H33.4665C33.4354 41.9753 33.4045 41.9754 33.3738 41.9753L33.3192 41.9751ZM161.884 41.122C160.923 41.122 160.17 40.927 159.6 40.5858C159.002 40.2203 158.69 39.684 158.69 38.9529V28.3267H160.197C160.742 28.3267 161.209 28.7411 161.209 29.2772V38.636C161.209 38.6605 161.209 39.0991 161.598 39.4647C161.831 39.684 162.117 39.8059 162.506 39.8059H162.792C162.897 39.8059 163 39.9034 163 40.0009V41.1464L161.884 41.122ZM125.642 39.9515C126.603 40.7315 127.875 41.1214 129.433 41.1214C130.991 41.1214 132.263 40.7315 133.171 39.9515C133.664 39.5616 134.002 39.1229 134.21 38.6354C134.417 38.1481 134.521 37.4412 134.521 36.4907C134.521 35.5646 134.417 34.8578 134.21 34.346C134.028 33.9073 133.691 33.4686 133.197 33.0787C132.236 32.2988 130.964 31.9088 129.407 31.9088C127.849 31.9088 126.577 32.2988 125.617 33.0787C125.123 33.4686 124.786 33.883 124.604 34.346C124.397 34.8334 124.292 35.5646 124.292 36.4907C124.292 37.4412 124.397 38.1481 124.604 38.6354C124.812 39.1229 125.15 39.5616 125.642 39.9515ZM126.863 36.5151C126.863 34.346 127.719 33.2493 129.433 33.2493C131.12 33.2493 132.003 34.346 132.003 36.5395C132.003 38.7086 131.146 39.8053 129.433 39.8053C127.719 39.8053 126.863 38.7086 126.863 36.5151ZM140.18 41.122C138.83 41.122 137.585 40.7808 136.521 40.1227C136.416 40.0252 136.208 39.9034 135.949 39.7572C135.897 39.7328 135.846 39.6597 135.846 39.5866V28.3267H137.377C137.922 28.3267 138.39 28.7654 138.39 29.2772V32.5675L138.857 32.3237C139.402 32.0557 140.129 31.9338 141.063 31.9338C142.699 31.9338 143.945 32.3968 144.776 33.2986C145.502 34.1029 145.866 35.1752 145.866 36.4913C145.866 37.8075 145.451 38.8798 144.62 39.6597C143.659 40.6346 142.154 41.122 140.18 41.122ZM140.44 33.2499C139.869 33.2499 139.22 33.4448 138.493 33.8592L138.39 33.9079V39.1966L138.493 39.2697C139.065 39.6109 139.74 39.7815 140.44 39.7815C141.374 39.7815 142.102 39.416 142.595 38.6848C143.01 38.0999 143.244 37.3444 143.244 36.4913C143.244 34.3466 142.283 33.2499 140.44 33.2499ZM147.216 36.4907C147.216 39.3423 149.007 41.097 151.863 41.097C152.953 41.097 153.94 40.8046 154.562 40.2684L154.718 40.1465V40.9264H156.951V32.2744C156.951 32.1769 156.873 32.0794 156.743 32.0794H154.745V32.7862L154.589 32.6887C153.836 32.1769 152.901 31.9088 151.811 31.9088C148.981 31.9088 147.216 33.6636 147.216 36.4907ZM149.526 36.4907C149.526 34.7603 150.59 33.4686 152.382 33.4686C153.368 33.4686 154.173 33.7123 154.718 34.2972L154.745 34.3216V38.7573L154.718 38.7817C153.94 39.5129 152.953 39.5616 152.382 39.5616C150.59 39.5616 149.526 38.2211 149.526 36.4907ZM59.6247 41.0004V28.3026H70.8656V29.1069C70.8656 29.7406 70.3204 30.2524 69.6455 30.2524H62.4284V33.6644H69.6455V35.6142H62.4284V39.0262H69.6455C70.3204 39.0262 70.8656 39.538 70.8656 40.1717V40.976L59.6247 41.0004ZM84.3652 28.3026H87.0133L81.6653 34.688L87.0392 41.0247H84.3912C83.898 41.0247 83.4566 40.8054 83.145 40.4642L79.926 36.6866L76.7328 40.4398C76.4213 40.8054 75.9799 41.0004 75.4867 41.0004H72.8387L78.2125 34.6637L72.8387 28.327H75.4867C75.9799 28.327 76.4213 28.522 76.7328 28.8875L79.926 32.6408L83.1191 28.8632C83.4306 28.4976 83.8719 28.3026 84.3652 28.3026ZM50.8242 39.6601L54.5106 33.6159V40.9763H57.3144V28.2785H55.575C55.0298 28.2785 54.5106 28.5466 54.251 29.0096L49.8377 36.5649L45.4244 29.0096C45.1647 28.5466 44.6455 28.2785 44.1003 28.2785H42.361V40.9763H45.1647V33.6159L48.8511 39.6601H50.8242ZM87.2469 34.6636C87.2729 38.3194 90.44 41.1953 94.3341 41.1466C96.7485 41.1466 98.6177 40.3666 100.019 38.8312L99.1369 38.1244C98.5657 37.6858 97.7609 37.6613 97.1898 38.0757C96.411 38.6119 95.4504 38.9044 94.3081 38.9044C91.6082 38.9044 89.9208 37.2714 89.9208 34.6149C89.9208 31.9827 91.5563 30.4229 94.3081 30.4229C95.4244 30.4229 96.411 30.691 97.1898 31.2516C97.7869 31.6659 98.5917 31.6415 99.1369 31.2028L100.019 30.496C98.6177 28.9362 96.6706 28.132 94.2044 28.132C92.1015 28.132 90.3362 28.7413 89.1161 29.8624C87.8959 31.0078 87.2469 32.6651 87.2469 34.6636ZM111.598 41.1461C107.237 41.1461 104.537 38.6602 104.537 34.6631C104.537 30.6662 107.237 28.1802 111.546 28.1802C113.623 28.1802 115.362 28.7408 116.712 29.8863L116.064 30.5687C115.778 30.8611 115.362 31.0317 114.947 31.0317C114.714 31.0317 114.479 30.983 114.272 30.8855C113.467 30.4955 112.532 30.3006 111.546 30.3006C108.742 30.3006 107.003 31.9822 107.003 34.6876C107.003 37.4171 108.82 39.0988 111.728 39.0988C113.129 39.0988 114.22 38.8551 115.025 38.319L115.076 38.2946V35.6867H111.987V34.8337C111.987 34.2001 112.532 33.6883 113.207 33.6883H117.023C117.128 33.6883 117.231 33.7857 117.231 33.8833V39.5132C115.908 40.5855 114.012 41.1461 111.598 41.1461ZM119.958 40.5858C120.528 40.927 121.281 41.122 122.242 41.122L123.358 41.1464V40.0009C123.358 39.9034 123.255 39.8059 123.15 39.8059H122.864C122.475 39.8059 122.19 39.684 121.956 39.4647C121.567 39.0991 121.567 38.6605 121.567 38.636V29.2772C121.567 28.7411 121.1 28.3267 120.555 28.3267H119.048V38.9529C119.048 39.684 119.361 40.2203 119.958 40.5858Z" fill="#EFEFE5"/>
</svg>
