<svg width="170" height="66" viewBox="0 0 170 66" fill="none" xmlns="http://www.w3.org/2000/svg">
<path opacity="0.8" fill-rule="evenodd" clip-rule="evenodd" d="M33.463 9.10651C29.204 9.63096 24.5167 11.8241 20.5194 15.2092C19.7104 15.8767 18.0211 17.5216 18.0211 17.6169C18.0211 17.6646 18.8301 18.5228 19.8294 19.524L21.6377 21.3596L20.8763 22.2178C18.0687 25.3883 16.1652 28.6065 15.0231 32.0154C14.3093 34.1609 14 35.925 14 37.9036C14 39.6915 14.2379 41.1456 14.7852 42.5521L14.9993 43.1242L20.3053 48.4403C24.7308 52.8742 25.7302 53.8278 26.2774 54.1854C27.4195 54.9482 28.7519 55.4727 30.2271 55.7826C31.2027 55.9971 33.463 56.0686 34.5337 55.9256C38.769 55.4011 43.147 53.3987 46.9777 50.2043C47.9771 49.37 49.6664 47.7728 49.6664 47.6774C49.6664 47.6297 48.8336 46.7716 47.8343 45.7465L46.0022 43.8871L46.5732 43.2911C47.977 41.8131 49.6902 39.4531 50.6895 37.5937C52.1171 34.9953 53.0451 32.1823 53.3544 29.6077C53.4733 28.4873 53.402 26.1035 53.2116 25.1976C52.8785 23.6719 52.355 22.4323 51.5699 21.2404C51.1654 20.6206 50.3564 19.7862 45.8832 15.2807L40.6487 10.0362L40.1014 9.82167C39.3638 9.51177 37.841 9.15419 36.9131 9.05884C35.9851 8.96348 34.5337 8.98732 33.463 9.10651ZM37.96 10.513C38.3407 10.6084 38.9593 10.7514 39.2924 10.8706C39.9111 11.0851 39.9349 11.0851 40.9104 12.0625C41.767 12.9207 41.8859 13.0399 41.6718 13.0161C40.5297 12.8015 38.6976 12.7538 37.27 12.9445C32.7017 13.5167 27.9906 15.829 23.6601 19.6432C23.2319 20.0246 22.8512 20.3584 22.7798 20.406C22.7084 20.4537 22.3277 20.1438 21.2094 19.0234L19.7342 17.5454L20.686 16.711C24.6595 13.2306 29.0375 11.0374 33.3203 10.4176C34.4624 10.2508 37.0083 10.3223 37.96 10.513ZM44.1939 18.0937C46.2877 18.4036 48.1198 19.3094 49.476 20.6683C50.8085 22.0032 51.665 23.7196 52.0695 25.8651C52.2361 26.8186 52.2361 28.9641 52.0695 30.0845C51.5223 33.5411 49.9281 37.0931 47.4536 40.3351C46.8826 41.098 45.5263 42.6951 45.3122 42.862C45.1932 42.9574 45.0505 42.8382 43.8132 41.5986C43.0518 40.8357 42.4332 40.1921 42.4332 40.1683C42.4332 40.1444 42.6473 39.8822 42.909 39.5961C47.2157 34.8284 49.2381 28.8687 47.8105 25.1738C47.2395 23.7434 46.0498 22.6707 44.5032 22.1939C43.718 21.9555 42.338 21.8363 41.3149 21.9555C39.7445 22.0986 37.8172 22.7184 35.9614 23.6242C34.1055 24.5301 32.4161 25.6744 30.7744 27.1524L30.0368 27.796L28.633 26.3895L27.2292 24.983L27.824 24.4348C31.4644 21.0258 36.2945 18.5943 40.4345 18.046C41.2673 17.9745 43.4087 17.9745 44.1939 18.0937ZM24.5167 26.318C23.9933 26.914 23.327 27.7483 22.9939 28.1774C19.0442 33.4458 17.2359 39.167 17.9735 44.1016L18.0211 44.4115L17.0456 43.458C16.1176 42.5521 16.07 42.4806 15.8797 41.9085C14.0238 36.5686 16.3555 29.2025 21.8518 23.0283L22.4943 22.3131L23.9695 23.7911L25.4447 25.2691L24.5167 26.318ZM43.0994 23.2667L43.2897 23.3143L43.2422 24.3156C43.1946 25.5075 43.028 26.4849 42.7901 27.3192C42.0287 29.8223 40.6249 32.3253 38.5786 34.6854L37.7935 35.5912L36.2945 34.0894L34.7955 32.5876L35.4855 31.8247C36.9607 30.2037 38.3169 28.3205 39.1497 26.7233C39.6018 25.8651 40.1966 24.4109 40.3631 23.7434C40.4583 23.3382 40.4583 23.3382 40.8152 23.2905C41.0056 23.2667 41.2197 23.2428 41.2911 23.219C41.4814 23.219 42.9328 23.219 43.0994 23.2667ZM38.8404 24.3156C38.5073 25.2453 37.7697 26.6756 37.0559 27.7483C36.2707 28.9403 35.7234 29.6554 34.6289 30.895L33.8675 31.777L32.3685 30.2752L30.8696 28.7734L31.3692 28.3204C32.9158 26.9378 34.7241 25.6982 36.3896 24.84C37.2938 24.3871 38.769 23.7911 38.9831 23.7673C39.0069 23.7673 38.9593 24.0057 38.8404 24.3156ZM61.6345 25.2214C61.5631 25.2929 61.5393 27.2715 61.5393 34.5185C61.5393 43.3388 61.5393 43.7202 61.6821 43.8394C61.801 43.9586 62.1817 43.9586 65.3939 43.9586C67.3449 43.9586 69.4625 43.9109 70.0812 43.8871C72.5795 43.7202 74.5068 42.9097 75.9819 41.4317C77.1478 40.2636 77.8854 38.6426 78.2661 36.4971C78.4327 35.4482 78.4327 33.2551 78.2661 32.23C77.6475 28.7734 75.6726 26.5326 72.5081 25.6267C70.9615 25.1976 70.8426 25.1738 66.1315 25.1499C62.6338 25.1499 61.7059 25.1499 61.6345 25.2214ZM148.266 25.5313C148.195 25.6028 148.171 26.1988 148.171 27.7245V29.8223H147.267C146.672 29.8223 146.339 29.8461 146.268 29.9176C146.149 30.0368 146.149 32.5161 146.268 32.6591C146.339 32.7306 146.672 32.7544 147.267 32.7544H148.171L148.195 36.9977C148.219 41.1456 148.219 41.2648 148.385 41.7416C148.837 43.0527 149.765 43.7679 151.264 43.9586C152.288 44.0778 153.739 44.0301 154.738 43.8394L154.952 43.7917L154.929 42.0515L154.905 40.3113L153.953 40.2636C152.93 40.2159 152.763 40.1683 152.644 39.9537C152.597 39.8584 152.573 38.428 152.573 36.3064V32.8021L153.787 32.7783L155 32.7544V31.3003V29.8461L153.787 29.8223L152.573 29.7984V27.7483C152.573 26.4849 152.549 25.6505 152.502 25.5552C152.43 25.4121 152.311 25.4121 150.408 25.4121C148.909 25.4598 148.338 25.4837 148.266 25.5313ZM70.3905 29.5601C71.8419 29.9415 72.7936 30.9665 73.1743 32.4684C73.4598 33.6126 73.4598 35.5197 73.1505 36.7116C72.8412 37.8797 72.1274 38.8095 71.1757 39.2624C70.3429 39.6676 69.8432 39.7392 68.1301 39.7868L66.5835 39.8345V34.59V29.3455L68.2491 29.3932C69.4625 29.417 70.0574 29.4647 70.3905 29.5601ZM84.9283 29.6554C82.5489 30.0845 80.7168 31.6579 79.9079 33.9464C78.8372 36.95 79.3606 40.3828 81.1689 42.3137C82.1207 43.315 83.0248 43.8394 84.4048 44.197C87.0459 44.8645 89.8773 44.1731 91.757 42.4091C92.2091 42.0038 93.375 40.5258 93.375 40.3828C93.375 40.2159 93.0419 40.0014 91.6856 39.3101C90.8529 38.881 90.1628 38.5234 90.139 38.5234C90.1153 38.5234 89.9725 38.7379 89.8297 39.0002C89.4966 39.6438 88.8066 40.359 88.307 40.6212C86.808 41.3602 85.0472 40.9311 84.2859 39.6438C84.0717 39.2624 83.8576 38.5949 83.8576 38.2373V37.9751H88.6163C92.2091 37.9751 93.375 37.9513 93.4463 37.8797C93.5653 37.7605 93.5653 36.807 93.4226 35.8535C93.0419 33.3027 91.9711 31.4672 90.258 30.4421C89.687 30.1084 88.5925 29.7269 87.8787 29.6077C87.1649 29.4885 85.6421 29.5124 84.9283 29.6554ZM100.561 29.5601C99.8944 29.6554 99.3471 29.7746 98.9188 29.9176C96.5157 30.6805 94.9215 32.6591 94.4219 35.472C94.2315 36.5448 94.3029 38.2612 94.5646 39.2862C94.9215 40.6689 95.445 41.5747 96.3967 42.4806C97.2295 43.2673 98.205 43.8156 99.5137 44.1731C99.8944 44.2923 100.275 44.3162 101.251 44.3162C102.369 44.3162 102.535 44.2923 103.154 44.1016C104.391 43.7202 105.343 43.1481 106.2 42.2422C106.771 41.6463 107.413 40.7642 107.413 40.5735C107.413 40.502 107.294 40.3828 107.175 40.2874C106.676 39.9775 104.368 38.8333 104.249 38.8333C104.177 38.8333 104.058 39.0002 103.939 39.2385C103.654 39.8583 103.273 40.2636 102.678 40.5497C102.226 40.7642 102.083 40.8119 101.584 40.7881C100.917 40.7881 100.489 40.6212 99.942 40.1444C98.5143 38.881 98.4192 35.3767 99.7754 33.7795C100.632 32.7783 102.226 32.7783 103.249 33.7557C103.416 33.9225 103.654 34.2324 103.773 34.447C103.892 34.6615 104.034 34.8522 104.106 34.8522C104.272 34.8999 107.199 33.2074 107.247 33.0405C107.27 32.8975 106.961 32.4207 106.509 31.8486C105.771 30.9427 104.32 30.0607 103.059 29.7746C102.416 29.6077 101.036 29.5124 100.561 29.5601ZM138.725 29.7269C137.94 29.87 137.226 30.156 136.655 30.5851L136.203 30.9189L136.179 30.4421L136.156 29.9653L134.323 29.9415C132.706 29.9176 132.468 29.9415 132.349 30.0607C132.206 30.1799 132.206 30.5374 132.206 39.3577C132.206 46.3901 132.23 48.5356 132.301 48.6071C132.444 48.7502 136.441 48.7502 136.56 48.6071C136.631 48.5356 136.655 47.8205 136.655 45.8895V43.2673L137.393 43.6487C138.392 44.1493 139.011 44.2685 140.177 44.2208C141.533 44.1493 142.342 43.8871 143.222 43.2196C144.459 42.2899 145.268 40.8596 145.721 38.881C145.958 37.8321 145.958 35.9965 145.721 34.8761C145.411 33.3981 144.912 32.3969 144.007 31.4433C142.675 29.9653 140.724 29.3694 138.725 29.7269ZM31.4168 31.1334C32.7017 32.4207 32.773 32.5161 32.6779 32.6591C32.6065 32.7306 32.2972 33.0882 31.9641 33.4696C30.6316 34.9953 29.3944 36.8547 28.5616 38.5711C27.9668 39.7868 27.6099 40.7881 27.253 42.1469C26.8009 43.9348 26.8009 45.9134 27.3005 47.296C28.2285 49.9183 30.6792 51.1579 34.1055 50.7526C37.4128 50.3473 41.2197 48.4403 44.4794 45.5558L45.1694 44.936L46.5732 46.3425L47.977 47.7489L47.3822 48.2972C44.3366 51.134 40.268 53.4464 36.7465 54.3046C35.3189 54.6621 34.3196 54.7813 32.9634 54.7813C31.1551 54.7813 29.8226 54.5429 28.4188 53.9231C26.6105 53.1365 24.945 51.587 24.0884 49.8706C23.0177 47.7489 22.7084 45.1267 23.1843 42.2899C23.8505 38.3327 26.0633 34.0894 29.323 30.4421C29.6561 30.0607 29.9654 29.7508 29.9892 29.7508C30.013 29.7508 30.6554 30.3706 31.4168 31.1334ZM116.074 29.8461C115.146 29.9892 113.98 30.4183 113.219 30.9189L112.981 31.0857V30.5851C112.981 30.2991 112.933 30.0607 112.886 29.9892C112.814 29.9176 112.267 29.8938 110.863 29.8938C109.102 29.8938 108.912 29.8938 108.817 30.0368C108.698 30.156 108.698 30.752 108.698 36.95C108.698 43.4103 108.698 43.7202 108.841 43.8394C108.96 43.9586 109.221 43.9586 110.935 43.9586C112.457 43.9586 112.909 43.9348 112.981 43.8632C113.028 43.7917 113.076 42.3852 113.076 39.5008C113.1 35.4959 113.1 35.2098 113.242 34.9476C113.528 34.3755 114.028 34.1371 115.479 33.8987C116.026 33.8033 116.574 33.708 116.693 33.6841L116.907 33.6365V31.777C116.907 29.9176 116.883 29.7031 116.645 29.7508C116.55 29.7746 116.312 29.7984 116.074 29.8461ZM118.025 30.013C117.977 30.0845 117.954 30.2037 117.977 30.3229C118.001 30.4183 118.644 32.5161 119.405 34.9476C122.451 44.7691 122.284 44.197 122.07 44.5784C121.88 44.9598 121.546 45.0313 120.357 45.0313C119.619 45.0313 119.238 45.0552 119.191 45.1267C119.119 45.1982 119.096 45.675 119.096 46.8431C119.096 48.0112 119.119 48.4879 119.191 48.5595C119.31 48.6786 122.332 48.6786 123.117 48.5833C124.425 48.3926 125.496 47.4629 126.115 45.9849C126.258 45.675 127.471 41.98 128.827 37.7844C130.897 31.4433 131.302 30.1322 131.207 30.0368C131.135 29.9415 130.778 29.9176 128.899 29.9176H126.686L126.614 30.2514C126.567 30.4421 126.115 32.4207 125.591 34.6854C125.068 36.95 124.64 38.8333 124.592 38.8571C124.568 38.881 124.069 36.8785 123.521 34.4231L122.498 29.9176H120.285C118.453 29.9176 118.096 29.9176 118.025 30.013ZM87.6407 32.9928C88.3545 33.3266 88.8304 33.9702 88.9732 34.7569L89.0208 35.0429H86.4749H83.929L83.9765 34.8046C84.0717 34.3755 84.4762 33.6841 84.8093 33.3981C85.3804 32.8975 85.88 32.7306 86.6652 32.7783C87.0459 32.8021 87.3314 32.8736 87.6407 32.9928ZM140.153 33.112C140.819 33.4696 141.319 34.2086 141.557 35.2098C141.723 35.9488 141.723 37.7129 141.533 38.4519C141.366 39.0955 141.033 39.763 140.676 40.2159C140.105 40.9073 138.987 41.098 138.083 40.645C137.036 40.1206 136.536 38.9525 136.536 36.9977C136.536 35.186 137.012 33.8987 137.892 33.255C138.583 32.7783 139.415 32.7306 140.153 33.112ZM36.0803 36.9739C34.1293 38.8095 31.6309 40.4543 29.5609 41.2887C29.1326 41.4555 28.7519 41.5986 28.7281 41.5986C28.7044 41.5986 28.7995 41.3363 28.9185 41.0026C29.8226 38.4995 31.393 35.9488 33.2727 33.9225L33.7248 33.4458L35.2238 34.9238L36.7227 36.4018L36.0803 36.9739ZM39.0783 38.8333L40.5297 40.2874L40.0776 40.7165C37.6983 42.9574 34.0341 44.9837 31.4406 45.5319C30.7982 45.675 29.3706 45.818 28.6806 45.818H28.2285V44.7214C28.2285 44.1255 28.2523 43.4818 28.2761 43.3388L28.3237 43.0527L29.2516 42.7428C31.6072 41.98 34.6051 40.0967 36.8179 37.9989C37.1748 37.6652 37.5079 37.3791 37.5555 37.3791C37.6031 37.3791 38.2931 38.0228 39.0783 38.8333Z" fill="#EFEFE5"/>
</svg>
