<svg width="170" height="66" viewBox="0 0 170 66" fill="none" xmlns="http://www.w3.org/2000/svg">
<g opacity="0.8">
<path d="M30.1125 34.9078C30.1125 36.9982 28.4171 38.6926 26.3259 38.6926C24.2346 38.6926 22.5392 36.9982 22.5392 34.9078C22.5392 32.8175 24.2346 31.123 26.3259 31.123C28.4171 31.123 30.1125 32.8175 30.1125 34.9078Z" fill="#EFEFE5"/>
<path fill-rule="evenodd" clip-rule="evenodd" d="M44.0336 33C44.0336 41.8366 36.8626 49 28.0168 49C19.171 49 12 41.8366 12 33C12 24.1634 19.171 17 28.0168 17C36.8626 17 44.0336 24.1634 44.0336 33ZM33.1709 22.9712C31.4818 22.9712 30.1125 23.3544 30.1125 26.0281V29.2074C29.028 28.4862 27.7261 28.0661 26.3259 28.0661C22.5454 28.0661 19.4808 31.1292 19.4808 34.9078C19.4808 38.6865 22.5454 41.7496 26.3259 41.7496H35.2099C35.2099 40.0613 34.6344 38.6926 32.1514 38.6926H32.0291C32.7505 37.6087 33.1709 36.3074 33.1709 34.9078V22.9712Z" fill="#EFEFE5"/>
<path fill-rule="evenodd" clip-rule="evenodd" d="M112.491 24.7212C112.236 24.7212 112.029 24.9278 112.029 25.1827V40.5673C112.029 40.8222 112.236 41.0289 112.491 41.0289H113.877C114.132 41.0289 114.339 40.8222 114.339 40.5673V39.9577C115.353 40.7716 116.634 41.2596 118.035 41.2596C121.386 41.2596 124.041 38.4702 124.041 35.1058C124.041 31.7414 121.386 28.9519 118.035 28.9519C116.634 28.9519 115.353 29.4399 114.339 30.2538V25.1827C114.339 24.9278 114.132 24.7212 113.877 24.7212H112.491ZM118.035 38.9519C116.027 38.9519 114.339 37.2642 114.339 35.1058C114.339 32.9473 116.027 31.2596 118.035 31.2596C120.043 31.2596 121.731 32.9473 121.731 35.1058C121.731 37.2642 120.043 38.9519 118.035 38.9519Z" fill="#EFEFE5"/>
<path d="M139.442 25.9519L141.144 25.3852C141.443 25.2855 141.752 25.508 141.752 25.823V29.1827H145.602C145.857 29.1827 146.064 29.3894 146.064 29.6442V31.0289C146.064 31.2838 145.857 31.4904 145.602 31.4904H141.752V37.5599C141.752 38.3712 142.41 39.0289 143.223 39.0289C143.905 39.0289 144.573 38.8356 145.15 38.4717C145.314 38.3681 145.532 38.417 145.635 38.5811L146.681 40.2351L146.383 40.4228C145.437 41.0197 144.341 41.3366 143.223 41.3366C141.134 41.3366 139.442 39.6457 139.442 37.5599V25.9519Z" fill="#EFEFE5"/>
<path d="M98.553 36.6442V29.7212C98.553 29.4663 98.76 29.2596 99.015 29.2596H100.401C100.656 29.2596 100.863 29.4663 100.863 29.7212V36.4904C100.863 37.875 101.932 39.0289 103.25 39.0289H103.404C105.637 39.0289 107.023 37.2563 107.023 35.2596V29.7212C107.023 29.4663 107.23 29.2596 107.485 29.2596H108.872C109.127 29.2596 109.334 29.4663 109.334 29.7212V40.5673C109.334 40.8222 109.127 41.0289 108.872 41.0289H107.485C107.23 41.0289 107.023 40.8222 107.023 40.5673V39.7978C106.022 40.5697 104.767 41.2596 103.404 41.2596H103.25C100.656 41.2596 98.553 39.2357 98.553 36.6442Z" fill="#EFEFE5"/>
<path fill-rule="evenodd" clip-rule="evenodd" d="M134.668 39.9577V40.5673C134.668 40.8222 134.875 41.0289 135.13 41.0289H136.516C136.771 41.0289 136.978 40.8222 136.978 40.5673V29.7212C136.978 29.4663 136.771 29.2596 136.516 29.2596H135.13C134.875 29.2596 134.668 29.4663 134.668 29.7212V30.2538C133.653 29.4399 132.373 28.9519 130.972 28.9519C127.62 28.9519 124.965 31.7414 124.965 35.1058C124.965 38.4702 127.62 41.2596 130.972 41.2596C132.373 41.2596 133.653 40.7716 134.668 39.9577ZM134.668 35.1058C134.668 32.9473 132.979 31.2596 130.972 31.2596C128.964 31.2596 127.275 32.9473 127.275 35.1058C127.275 37.2642 128.964 38.9519 130.972 38.9519C132.979 38.9519 134.668 37.2642 134.668 35.1058Z" fill="#EFEFE5"/>
<path fill-rule="evenodd" clip-rule="evenodd" d="M57.3557 25.2596C57.3557 25.0047 57.5626 24.7981 57.8177 24.7981H63.9781C68.1033 24.7981 71.4474 28.1387 71.4474 32.2596V33.4904C71.4474 37.6113 68.1033 40.9519 63.9781 40.9519H57.8177C57.5626 40.9519 57.3557 40.7453 57.3557 40.4904V25.2596ZM59.6658 27.1058V38.6442H63.9781C66.8274 38.6442 69.1373 36.3367 69.1373 33.4904V32.2596C69.1373 29.4132 66.8274 27.1058 63.9781 27.1058H59.6658Z" fill="#EFEFE5"/>
<path d="M87.8494 35.1058C87.8494 32.9473 89.538 31.2596 91.5456 31.2596C93.1442 31.2596 94.5352 32.3233 95.041 33.8527L96.7961 33.273C97.0382 33.193 97.1712 32.9311 97.0733 32.6957C96.1646 30.5113 94.0461 28.9519 91.5456 28.9519C88.1944 28.9519 85.5393 31.7414 85.5393 35.1058C85.5393 38.4702 88.1944 41.2596 91.5456 41.2596C94.011 41.2596 96.1049 39.7435 97.0345 37.6076C97.1361 37.3738 97.0074 37.1098 96.7665 37.0259L95.0213 36.4183C94.4983 37.9161 93.1233 38.9519 91.5456 38.9519C89.538 38.9519 87.8494 37.2642 87.8494 35.1058Z" fill="#EFEFE5"/>
<path fill-rule="evenodd" clip-rule="evenodd" d="M75.2294 36.1058H84.3073C84.3073 36.1058 84.4613 35.4904 84.4613 34.9519C84.4613 31.6415 82.1647 28.9519 78.763 28.9519C75.4592 28.9519 72.7565 31.54 72.7565 34.9519C72.7565 38.27 75.368 41.2596 78.763 41.2596C79.5817 41.2596 80.4528 41.2228 81.3885 40.898C82.2978 40.5822 83.1849 40.025 84.1533 39.1195C84.1533 39.1195 83.4189 38.2288 82.9662 37.6986C82.8005 37.5047 82.5128 37.4964 82.3206 37.6642C81.6448 38.2546 81.1033 38.5538 80.6296 38.7182C80.0721 38.9118 79.5189 38.9519 78.763 38.9519C77.1564 38.9519 75.7044 37.7503 75.2294 36.1058ZM78.763 31.2596C77.104 31.2596 75.7149 32.2902 75.2405 33.7981H82.0082C81.6004 32.2401 80.3554 31.2596 78.763 31.2596Z" fill="#EFEFE5"/>
<path fill-rule="evenodd" clip-rule="evenodd" d="M148.768 36.1058H157.846C157.846 36.1058 158 35.4904 158 34.9519C158 31.6415 155.703 28.9519 152.302 28.9519C148.998 28.9519 146.295 31.54 146.295 34.9519C146.295 38.27 148.907 41.2596 152.302 41.2596C153.12 41.2596 153.991 41.2228 154.927 40.898C155.836 40.5822 156.724 40.025 157.692 39.1195C157.692 39.1195 156.958 38.2288 156.505 37.6986C156.339 37.5047 156.051 37.4964 155.859 37.6642C155.183 38.2546 154.642 38.5538 154.168 38.7182C153.611 38.9118 153.058 38.9519 152.302 38.9519C150.695 38.9519 149.243 37.7503 148.768 36.1058ZM152.302 31.2596C150.643 31.2596 149.254 32.2902 148.779 33.7981H155.547C155.139 32.2401 153.894 31.2596 152.302 31.2596Z" fill="#EFEFE5"/>
</g>
</svg>
