<svg width="170" height="66" viewBox="0 0 170 66" fill="none" xmlns="http://www.w3.org/2000/svg">
<path opacity="0.8" fill-rule="evenodd" clip-rule="evenodd" d="M24.6697 16.4755L13.8424 19.7377L13.8412 19.7352C13.7491 19.7632 13.6524 19.7729 13.5565 19.764C13.4607 19.755 13.3675 19.7274 13.2825 19.6829C13.1975 19.6383 13.1222 19.5776 13.061 19.5043C12.9998 19.4309 12.9539 19.3464 12.9259 19.2555C12.8979 19.1647 12.8884 19.0692 12.8979 18.9747C12.9075 18.8802 12.9358 18.7885 12.9814 18.7048C13.0269 18.6212 13.0888 18.5472 13.1634 18.4872C13.238 18.4271 13.3239 18.3822 13.4162 18.355L24.4571 15.0314C24.5956 14.9895 24.7437 14.9895 24.8821 15.0314L36.1636 18.4278C36.3484 18.484 36.5032 18.6101 36.5939 18.7785C36.6846 18.947 36.7041 19.144 36.6479 19.3265C36.5917 19.509 36.4645 19.6621 36.2941 19.7524C36.1237 19.8426 35.9239 19.8626 35.7386 19.808L24.6697 16.4755ZM34.7888 33.13L39.8014 22.8538C39.8587 23.528 39.8837 24.2046 39.8763 24.8815C39.8751 27.2594 39.5842 29.6284 39.0099 31.9379C38.2333 35.0754 36.8806 38.0462 35.0189 40.7031C33.0716 43.465 30.3384 46.1859 26.475 48.4655L34.7749 33.1576L34.7888 33.13ZM24.3448 50.9224C24.3313 50.9159 24.318 50.9089 24.305 50.9015L23.4273 50.4357C18.6869 47.9201 15.393 44.7508 13.122 41.5274C11.1574 38.7263 9.72973 35.5939 8.90959 32.2854C8.3071 29.8626 8.00212 27.3773 8.0012 24.8828C7.98926 23.7281 8.06624 22.5742 8.23148 21.4311L8.41322 20.3474C8.41684 20.2889 8.42773 20.2308 8.44573 20.1747C8.47478 20.084 8.52177 20 8.58398 19.9274C8.6462 19.8548 8.7224 19.7952 8.80818 19.7518C8.89395 19.7085 8.9876 19.6824 9.08368 19.675C9.17977 19.6676 9.27638 19.6791 9.36792 19.7088C9.45948 19.7385 9.54414 19.7858 9.617 19.848C9.68988 19.9102 9.7495 19.9861 9.79243 20.0712L16.304 32.5977H33.1878C33.2641 32.5977 33.3391 32.6095 33.4104 32.632L33.486 32.4926L39.5347 20.0812C39.6203 19.9114 39.7703 19.7817 39.9522 19.7204C40.0011 19.7039 40.0513 19.6927 40.1019 19.6868C40.1901 19.675 40.2797 19.6792 40.3664 19.6993C40.4599 19.721 40.5483 19.7607 40.6263 19.8162C40.7042 19.8717 40.7703 19.9418 40.8206 20.0226C40.8709 20.1033 40.9046 20.1931 40.9196 20.2868L41.1117 21.4323C41.2769 22.5755 41.3539 23.7293 41.342 24.884C41.3411 27.3786 41.0361 29.8639 40.4336 32.2867C39.6142 35.5946 38.1873 38.7265 36.2237 41.5274C33.9489 44.7508 30.6538 47.9189 25.9184 50.4357L25.0189 50.9138C24.9128 50.9704 24.7941 51 24.6735 51C24.5592 51 24.4466 50.9734 24.3448 50.9224ZM32.6506 34.0343H17.0507L24.689 48.7283L32.6506 34.0343ZM9.54377 22.7455L22.927 48.5046C19.0287 46.217 16.2763 43.4808 14.3167 40.7031C12.4549 38.0462 11.1023 35.0754 10.3256 31.9379C9.75148 29.6289 9.46059 27.2602 9.45921 24.8828C9.45144 24.1692 9.47968 23.4558 9.54377 22.7455ZM52.8437 27.8362H64.0731V26.3432H52.8437C52.5474 26.3418 52.2538 26.3983 51.9798 26.5096C51.7058 26.6208 51.4569 26.7844 51.2474 26.991C51.0378 27.1976 50.872 27.4431 50.7591 27.7133C50.6464 27.9835 50.5891 28.273 50.5904 28.5652V37.4533C50.5891 37.7454 50.6464 38.035 50.7591 38.3052C50.872 38.5754 51.0378 38.8209 51.2474 39.0275C51.4569 39.2341 51.7058 39.3976 51.9798 39.5089C52.2538 39.6201 52.5474 39.6766 52.8437 39.6753H64.0731V38.1697H52.8437C52.6497 38.1684 52.464 38.0919 52.3269 37.9565C52.1898 37.8213 52.1121 37.6382 52.1108 37.447V28.5589C52.1119 28.3675 52.1894 28.1843 52.3266 28.049C52.4638 27.9137 52.6496 27.8372 52.8437 27.8362ZM85.1591 27.8412V26.3356H72.8164V39.6728H85.1578V38.1672H74.3432V33.7595H83.0368V32.2414H74.3444V27.8412H85.1591ZM107.429 28.5763V32.4833C107.43 32.7755 107.373 33.0649 107.26 33.335C107.147 33.6051 106.981 33.8506 106.771 34.0571C106.562 34.2637 106.313 34.4273 106.039 34.5386C105.765 34.6498 105.471 34.7065 105.176 34.7054H103.111L107.354 39.6676H105.344L101.12 34.7054H96.1574C95.912 34.693 95.6674 34.6684 95.4246 34.6314V39.6676H93.8978V26.3542H105.164C105.46 26.3531 105.753 26.4098 106.027 26.521C106.302 26.6323 106.55 26.7959 106.76 27.0025C106.969 27.2091 107.136 27.4545 107.248 27.7246C107.361 27.9947 107.419 28.2841 107.418 28.5763H107.429ZM96.1625 33.1872H105.176C105.27 33.1884 105.363 33.171 105.45 33.136C105.537 33.1011 105.617 33.0493 105.683 32.9837C105.75 32.9181 105.802 32.84 105.837 32.7541C105.873 32.6682 105.89 32.5761 105.889 32.4833V28.5763C105.89 28.4822 105.873 28.3887 105.838 28.3012C105.803 28.2138 105.75 28.1342 105.683 28.0669C105.618 27.998 105.54 27.9434 105.452 27.9067C105.365 27.8699 105.27 27.8518 105.175 27.8536H96.1613C95.9672 27.8545 95.7814 27.9311 95.6441 28.0664C95.5069 28.2017 95.4294 28.385 95.4284 28.5763V32.4833C95.4264 32.5773 95.4446 32.6706 95.482 32.7571C95.5192 32.8436 95.5747 32.9214 95.6447 32.9852C95.713 33.0511 95.794 33.103 95.8829 33.1376C95.9718 33.1724 96.0669 33.1892 96.1625 33.1872ZM129.018 26.3356H115.504V27.8412H121.512V39.674H123.039V27.8412H129.018V26.3356ZM137.209 26.3356V39.6678H138.737V26.3356H137.209ZM160.982 26.3356H159.028L153.999 32.2414H149.643V26.3356H148.103V39.6678H149.64V33.7608H153.996L159.028 39.6678H161L155.33 33.0017L160.982 26.3356Z" fill="#EFEFE5"/>
</svg>
