<svg width="170" height="66" viewBox="0 0 170 66" fill="none" xmlns="http://www.w3.org/2000/svg">
<path opacity="0.8" fill-rule="evenodd" clip-rule="evenodd" d="M7 21H33.6296V46L22.0736 35.1512H15.6366V41.7513H14.2121V35.1512V33.8457H15.6366H20.683L15.6081 29.0813H26.2825V27.7758H14.7744V28.2987L7 21ZM126.117 27.3688H124.792V34.4484C124.792 37.3518 127.101 39.7419 130.826 39.7419C134.76 39.7419 136.814 36.6526 136.814 34.4484V27.3688H135.626V34.4484C135.626 36.7982 133.538 38.5584 130.826 38.5584C127.782 38.6629 126.033 36.1427 126.117 34.4484V27.3688ZM113.238 30.792C113.238 28.8549 111.801 27.4551 109.619 27.4546V27.4497H101.816H100.914V28.4757V39.5074H101.816V28.4757H109.619V28.4703C111.072 28.471 112.223 29.5409 112.223 30.9261C112.223 32.0511 111.677 32.8738 110.066 33.0285H106.622V34.1572L111.337 39.4745H113.238L108.086 34.1572H110.255C111.917 33.9581 113.238 32.7782 113.238 30.792ZM45.5032 27.4497H44.4364V28.5161V32.798V33.8505V39.5074H45.5032V33.8505H53.6314V32.798H45.5032V28.5161H55.9301V27.4497H45.5032ZM88.0576 27.4497H89.0527V39.5074H88.0576V27.4497ZM149.507 27.4497H149.497H148.512V39.5074H149.507V29.6181L154.625 37.5436L154.616 37.5582L154.635 37.5582L155.763 37.5582L161.005 29.4406V39.4265H162V27.3688H161.005L155.285 36.491L149.507 27.4653V27.4497ZM69.0847 27.4472L61.6769 39.8166L63.0888 39.8459L69.0959 29.7404L75.103 39.8459L76.5149 39.8166L69.0847 27.4472Z" fill="#EFEFE5"/>
</svg>
