<svg width="170" height="66" viewBox="0 0 170 66" fill="none" xmlns="http://www.w3.org/2000/svg">
<path opacity="0.8" fill-rule="evenodd" clip-rule="evenodd" d="M45.0438 33C45.0438 41.8366 37.8706 49 29.0219 49C20.1733 49 13 41.8366 13 33C13 24.1634 20.1733 17 29.0219 17C37.8706 17 45.0438 24.1634 45.0438 33ZM22.3925 26.7526L30.6907 40.8792C30.8106 41.0833 30.7437 41.3458 30.5407 41.4678C29.2913 42.2188 27.6679 41.7947 26.9466 40.5291L20.9763 30.0523C20.3048 28.8738 20.6512 27.378 21.7727 26.6137C21.9806 26.4721 22.2652 26.5358 22.3925 26.7526ZM24.0038 26.887H35.2707C36.7311 26.887 37.6529 28.4552 36.9411 29.7287L31.4001 39.6415L29.7607 36.8241L33.9545 29.5141H25.3382L24.0038 26.887ZM59.0989 28.459V40.0153H62.3994V28.459H66.9631V25.7733H54.5352V28.459H59.0989ZM68.6841 39.4456C69.5942 39.9339 70.6332 40.1781 71.8013 40.1781C72.9558 40.1781 73.9881 39.9339 74.8981 39.4456C75.8081 38.9573 76.5212 38.2927 77.0373 37.4518C77.5534 36.5972 77.8115 35.6274 77.8115 34.5423C77.8115 33.4301 77.5534 32.4535 77.0373 31.6125C76.5212 30.7716 75.8081 30.1137 74.8981 29.639C73.9881 29.1507 72.9558 28.9066 71.8013 28.9066C70.6332 28.9066 69.5942 29.1507 68.6841 29.639C67.7877 30.1137 67.0746 30.7784 66.5449 31.6329C66.0288 32.4738 65.7707 33.4437 65.7707 34.5423C65.7707 35.6274 66.0288 36.5972 66.5449 37.4518C67.0746 38.2927 67.7877 38.9573 68.6841 39.4456ZM73.2274 37.2076C72.8064 37.4518 72.331 37.5738 71.8013 37.5738C71.2716 37.5738 70.7962 37.4518 70.3751 37.2076C69.9541 36.9635 69.6145 36.6176 69.3565 36.17C69.112 35.7088 68.9897 35.1663 68.9897 34.5423C68.9897 33.9048 69.112 33.3623 69.3565 32.9147C69.6145 32.4671 69.9541 32.1212 70.3751 31.877C70.7962 31.6329 71.2716 31.5108 71.8013 31.5108C72.331 31.5108 72.8064 31.6329 73.2274 31.877C73.6485 32.1212 73.9813 32.4671 74.2258 32.9147C74.4702 33.3623 74.5925 33.9048 74.5925 34.5423C74.5925 35.1663 74.4702 35.7088 74.2258 36.17C73.9813 36.6176 73.6485 36.9635 73.2274 37.2076ZM96.08 40.1781C95.1429 40.1781 94.2396 40.0696 93.3704 39.8525C92.5147 39.622 91.8356 39.3371 91.333 38.998L92.3924 36.7193C92.895 37.0313 93.4858 37.289 94.1649 37.4924C94.8576 37.6823 95.5368 37.7773 96.2023 37.7773C96.9357 37.7773 97.4519 37.6891 97.7507 37.5128C98.0631 37.3365 98.2193 37.0923 98.2193 36.7803C98.2193 36.5226 98.097 36.3327 97.8526 36.2107C97.6217 36.075 97.3093 35.9733 96.9154 35.9055C96.5215 35.8377 96.0868 35.7698 95.6115 35.702C95.1497 35.6342 94.6811 35.546 94.2057 35.4375C93.7303 35.3155 93.2957 35.1391 92.9018 34.9085C92.5079 34.678 92.1887 34.366 91.9442 33.9726C91.7133 33.5793 91.5979 33.0707 91.5979 32.4467C91.5979 31.755 91.7948 31.1446 92.1887 30.6156C92.5962 30.0866 93.1802 29.6729 93.9408 29.3745C94.7014 29.0626 95.6115 28.9066 96.6709 28.9066C97.4179 28.9066 98.1785 28.988 98.9527 29.1507C99.7269 29.3135 100.372 29.5508 100.888 29.8628L99.8288 32.1212C99.2991 31.8092 98.7626 31.599 98.2193 31.4905C97.6896 31.3684 97.1734 31.3074 96.6709 31.3074C95.9646 31.3074 95.4485 31.4023 95.1225 31.5922C94.7965 31.7821 94.6335 32.0262 94.6335 32.3246C94.6335 32.5959 94.749 32.7994 94.9799 32.935C95.2244 33.0707 95.5435 33.1792 95.9374 33.2605C96.3313 33.3419 96.7592 33.4165 97.221 33.4843C97.6964 33.5386 98.1717 33.6268 98.6471 33.7488C99.1225 33.8709 99.5503 34.0472 99.9307 34.2778C100.325 34.4949 100.644 34.8 100.888 35.1934C101.133 35.5732 101.255 36.075 101.255 36.699C101.255 37.3772 101.051 37.9807 100.644 38.5097C100.236 39.0252 99.6454 39.4321 98.8712 39.7305C98.1106 40.0289 97.1802 40.1781 96.08 40.1781ZM88.1057 29.4356C87.4266 29.0829 86.6524 28.9066 85.7831 28.9066C84.8459 28.9066 84.0106 29.1032 83.2772 29.4966C82.8446 29.7286 82.4711 30.0195 82.1566 30.3695V29.0693H79.121V40.0153H82.2993V34.6034C82.2993 33.9252 82.4079 33.3691 82.6252 32.935C82.8561 32.501 83.1685 32.1822 83.5624 31.9788C83.9699 31.7617 84.4249 31.6532 84.9274 31.6532C85.6337 31.6532 86.177 31.8635 86.5573 32.284C86.9512 32.7044 87.1482 33.3555 87.1482 34.2371V40.0153H90.3264V33.7488C90.3264 32.6366 90.1295 31.7278 89.7356 31.0225C89.3417 30.3036 88.7984 29.7747 88.1057 29.4356ZM106.883 40.1781C105.593 40.1781 104.588 39.8525 103.868 39.2015C103.148 38.5369 102.788 37.5535 102.788 36.2514V31.755H101.097V29.3135H102.788V26.6482H105.966V29.3135H108.696V31.755H105.966V36.2107C105.966 36.6718 106.089 37.0313 106.333 37.289C106.578 37.5331 106.91 37.6552 107.331 37.6552C107.834 37.6552 108.262 37.5196 108.615 37.2483L109.471 39.4863C109.145 39.7169 108.751 39.8932 108.289 40.0153C107.841 40.1238 107.372 40.1781 106.883 40.1781ZM116.328 31.9991C116.749 32.3789 116.959 32.9079 116.959 33.5861H114.433C113.319 33.5861 112.416 33.7285 111.723 34.0133C111.031 34.2846 110.521 34.6644 110.195 35.1527C109.883 35.641 109.727 36.2107 109.727 36.8617C109.727 37.4857 109.89 38.0486 110.216 38.5504C110.542 39.0523 111.01 39.4524 111.621 39.7508C112.233 40.0357 112.966 40.1781 113.822 40.1781C114.786 40.1781 115.574 39.995 116.185 39.6287C116.598 39.3815 116.924 39.057 117.163 38.6551V40.0153H120.138V33.7692C120.138 32.1008 119.676 30.8733 118.752 30.0866C117.829 29.2999 116.531 28.9066 114.861 28.9066C113.992 28.9066 113.136 29.0219 112.294 29.2524C111.452 29.483 110.732 29.8086 110.134 30.229L111.275 32.4467C111.669 32.1348 112.144 31.8906 112.701 31.7143C113.272 31.5244 113.849 31.4294 114.433 31.4294C115.289 31.4294 115.92 31.6193 116.328 31.9991ZM114.779 35.4375C114.032 35.4375 113.516 35.5596 113.231 35.8038C112.959 36.0479 112.823 36.3531 112.823 36.7193C112.823 37.1262 112.98 37.4518 113.292 37.6959C113.618 37.9265 114.059 38.0418 114.616 38.0418C115.146 38.0418 115.621 37.9197 116.042 37.6756C116.464 37.4178 116.769 37.0014 116.959 36.5131V35.4375H114.779ZM122.199 29.0693H125.235V30.5066C125.534 30.0988 125.915 29.7689 126.376 29.5169C127.096 29.11 127.972 28.9066 129.004 28.9066V31.8363C128.868 31.8228 128.746 31.816 128.637 31.816C128.528 31.8024 128.413 31.7957 128.291 31.7957C127.422 31.7957 126.715 32.0466 126.172 32.5484C125.642 33.0367 125.377 33.8031 125.377 34.8475V40.0153H122.199V29.0693ZM153.231 29.0693H150.195V40.0153H153.374V34.8475C153.374 33.8031 153.638 33.0367 154.168 32.5484C154.711 32.0466 155.418 31.7957 156.287 31.7957C156.409 31.7957 156.525 31.8024 156.633 31.816C156.742 31.816 156.864 31.8228 157 31.8363V28.9066C155.968 28.9066 155.092 29.11 154.372 29.5169C153.911 29.7689 153.53 30.0988 153.231 30.5066V29.0693ZM143.597 40.1781C142.347 40.1781 141.247 39.9339 140.297 39.4456C139.359 38.9573 138.633 38.2927 138.117 37.4518C137.6 36.5972 137.342 35.6274 137.342 34.5423C137.342 33.4437 137.594 32.4738 138.096 31.6329C138.612 30.7784 139.312 30.1137 140.195 29.639C141.078 29.1507 142.076 28.9066 143.19 28.9066C144.263 28.9066 145.227 29.1372 146.083 29.5983C146.952 30.0459 147.638 30.697 148.14 31.5515C148.643 32.3925 148.894 33.403 148.894 34.583C148.894 34.7051 148.887 34.8475 148.874 35.0103C148.86 35.1595 148.847 35.3019 148.833 35.4375H140.54C140.604 35.7289 140.706 36.0002 140.847 36.2514C141.118 36.699 141.492 37.0448 141.967 37.289C142.456 37.5196 143.027 37.6349 143.679 37.6349C144.263 37.6349 144.772 37.5467 145.207 37.3704C145.655 37.194 146.062 36.9296 146.429 36.5769L148.12 38.408C147.617 38.9777 146.986 39.4185 146.225 39.7305C145.465 40.0289 144.589 40.1781 143.597 40.1781ZM144.636 31.6736C145.044 31.9042 145.363 32.2297 145.594 32.6502C145.747 32.9293 145.849 33.2412 145.901 33.5861H140.503C140.556 33.247 140.657 32.9418 140.806 32.6705C141.037 32.2365 141.356 31.9042 141.763 31.6736C142.185 31.4294 142.667 31.3074 143.21 31.3074C143.753 31.3074 144.229 31.4294 144.636 31.6736ZM131.924 39.2015C132.644 39.8525 133.649 40.1781 134.939 40.1781C135.428 40.1781 135.897 40.1238 136.345 40.0153C136.807 39.8932 137.2 39.7169 137.526 39.4863L136.671 37.2483C136.318 37.5196 135.89 37.6552 135.387 37.6552C134.966 37.6552 134.633 37.5331 134.389 37.289C134.144 37.0313 134.022 36.6718 134.022 36.2107V31.755H136.752V29.3135H134.022V26.6482H130.844V29.3135H129.153V31.755H130.844V36.2514C130.844 37.5535 131.204 38.5369 131.924 39.2015Z" fill="#EFEFE5"/>
</svg>
