<svg width="170" height="66" viewBox="0 0 170 66" fill="none" xmlns="http://www.w3.org/2000/svg">
<path opacity="0.8" fill-rule="evenodd" clip-rule="evenodd" d="M42.2033 30.9116L43.7507 29.1402V25.5153L42.6951 23.9845L21.6942 12L18.6049 12.0765C18.6049 12.0765 15.919 12.6397 16.0019 14.6517L16.0793 19.6434L20.716 22.3005C20.716 22.3005 21.8545 22.8637 21.7716 21.6554C21.6887 20.5291 21.8545 18.8397 21.8545 18.8397L36.4999 27.2102L21.9429 35.5042V31.4802L23.8164 32.3659C23.8164 32.3659 24.4686 32.6885 24.7117 32.5245C24.9549 32.3605 29.1053 30.0314 29.1053 30.0314C29.1053 30.0314 29.5917 29.6268 29.5917 29.3042C29.5917 28.9816 29.2656 28.6591 29.2656 28.6591L16.9746 21.6554C16.9746 21.6554 16.5656 21.4148 16.2395 21.5734C15.9135 21.7319 16.1621 45.8867 16.1621 45.8867L42.2806 30.9116H42.2033ZM41.1422 43.8739C41.3025 43.7919 42.1978 43.2288 42.8499 42.5836C43.502 41.8565 43.7452 41.4574 43.7452 41.4574V38.1551C42.6896 36.1431 40.8161 34.6942 38.9426 34.2896L34.1456 37.0288C34.1456 37.0288 33.2503 37.674 33.9024 38.1551C34.5545 38.5597 36.4225 39.6859 36.4225 39.6859L21.943 47.9799L21.7827 45.0822C21.7827 45.0822 21.5395 44.1145 20.7271 44.6011C19.8318 45.0822 16.0903 47.1762 16.0903 47.1762V52.6491C16.0903 53.2942 17.798 54.9016 19.6715 54.9836C21.4027 55.0629 21.9148 54.8407 22.4613 54.6035L22.5177 54.579L41.2306 43.7919L41.1422 43.8739ZM72.9586 23.2687C72.9586 27.2106 78.0044 24.7175 75.8877 22.1424C74.9924 21.0926 72.9586 21.4972 72.9586 23.2687ZM59.3688 43.8753H54.4888V35.0181C54.9845 35.0181 55.5429 35 56.1385 34.9807H56.1385H56.1385H56.1385H56.1385H56.1386H56.1386H56.1386C60.2374 34.8476 66.0916 34.6576 65.3098 39.9278C64.8235 43.1481 62.4637 43.8753 59.3688 43.8753ZM59.7004 32.443H54.4888V24.6356C54.7157 24.6356 54.9584 24.6346 55.2132 24.6337H55.2132C57.3358 24.6254 60.2957 24.6139 61.8944 25.1167C64.1714 25.7619 64.5803 26.8061 64.5803 28.8181C64.5803 31.4753 62.3808 32.443 59.7004 32.443ZM51.4769 46.2918H60.9991C70.3556 46.2918 70.9248 34.2964 63.0329 33.6513C63.2368 33.5266 63.535 33.4291 63.8835 33.3152C65.3386 32.8395 67.6697 32.0773 67.6697 27.8559C67.6697 21.8314 60.0249 22.0238 54.0201 22.1749C53.1257 22.1974 52.2678 22.219 51.4769 22.219V46.2918ZM99.7337 45.8711L99.7339 45.8711C102.333 45.8153 105.748 45.7421 105.748 48.0629V48.8666C105.748 52.0048 99.5634 52.732 96.5515 51.9228C94.7608 51.4417 93.7826 50.2334 94.4348 48.1394C94.9266 46.532 96.557 45.8869 98.6681 45.8869C98.9976 45.8869 99.3571 45.8792 99.7337 45.8711ZM95.822 34.4004C95.8317 31.3821 96.6546 30.026 100.055 30.026C104.858 30.026 104.123 35.8214 102.658 36.9477C100.789 38.3931 95.8458 38.2388 95.822 34.4004ZM95.822 34.4004L95.8219 34.4546V34.3726L95.822 34.4004ZM92.9758 33.4923C92.9758 35.9855 93.7882 38.5661 95.9877 39.1292C95.6996 39.4959 95.427 39.7853 95.1805 40.0468C94.4534 40.8186 93.954 41.3486 93.954 42.9126C93.954 43.6776 94.3168 44.0225 94.7825 44.4652C94.856 44.535 94.932 44.6073 95.0095 44.684L95.3356 44.9246C89.8864 46.2149 90.1296 53.2131 96.2309 54.2629C99.16 54.744 103.31 54.5034 105.504 53.2186C107.212 52.1743 108.516 50.966 108.516 48.3909C108.516 43.489 103.98 43.453 100.482 43.4252C98.6389 43.4106 97.0844 43.3982 96.6344 42.6775C95.9822 41.7098 96.9604 40.3429 97.8557 39.9384C97.9276 39.903 97.9881 39.8728 98.0393 39.8473C98.2466 39.7439 98.3019 39.7163 98.3488 39.7265C98.3658 39.7302 98.3818 39.7389 98.4035 39.7508C98.5082 39.8079 98.7472 39.9384 99.8895 39.9384C103.228 39.9384 106.56 37.9264 106.56 34.7061C106.56 32.5301 106.56 32.3715 105.582 30.5181C105.934 30.4858 106.374 30.4164 106.832 30.3441C107.541 30.2323 108.294 30.1135 108.837 30.1135V28.3366H103.388C103.043 28.3366 102.597 28.2725 102.077 28.1978C100.268 27.9376 97.5703 27.5498 95.1698 29.3043C93.9646 30.1783 92.9962 31.6006 92.9708 33.4923H92.9702V33.5689C92.9702 33.5433 92.9704 33.5178 92.9708 33.4923H92.9758ZM123.897 34.8603C123.897 32.2032 122.189 30.2732 119.42 30.2732V30.1912C116.574 30.1912 114.623 32.6843 114.54 35.4234H123.897V34.8603ZM120.885 46.6917C114.297 46.6917 111.528 43.1488 111.528 36.8723C111.528 27.1349 121.94 25.3635 125.604 30.9129C126.583 32.4437 127.964 37.8346 126.5 37.8346H114.54C114.54 41.2189 116.408 44.0345 119.42 44.0345C123.259 44.0345 124.162 43.6871 124.901 43.403C125.29 43.2535 125.633 43.1215 126.334 43.0668V45.4834C125.935 45.5906 125.585 45.7303 125.225 45.8735C124.778 46.0519 124.316 46.2357 123.731 46.3691C122.919 46.5331 122.023 46.6917 120.885 46.6917ZM79.4689 29.4635V30.4312H82.0719V41.8634C82.0719 48.0634 90.3728 47.0137 90.3728 45.6469V44.0395C90.1079 44.0395 89.7739 44.0773 89.4023 44.1194L89.4022 44.1194C87.6036 44.3231 84.9236 44.6267 84.9236 41.2238V30.3492H90.2126V28.1732H84.9236V23.9851H83.133C83.133 24.3897 82.3206 27.1234 82.1548 27.446C81.8787 27.9923 81.2386 28.217 80.6525 28.4227C80.0302 28.6412 79.4689 28.8382 79.4689 29.376V29.4635ZM143.096 30.4301V29.5444C143.096 28.9941 143.601 28.8275 144.194 28.6321C144.815 28.4275 145.531 28.1914 145.865 27.4504C146.324 26.3735 146.43 25.636 146.502 25.1324C146.634 24.2069 146.654 24.0716 148.551 24.0716V28.2541H153.84V30.4301H148.551V40.8947C148.551 44.7218 151.267 44.4044 153.066 44.1942C153.423 44.1525 153.744 44.1149 154 44.1149V45.7223C154 47.0892 145.699 48.1389 145.699 41.6984V30.4301H143.096ZM134.149 31.4804C134.149 30.7759 134.106 30.2632 134.065 29.7662L134.065 29.766C134.026 29.2988 133.988 28.8456 133.988 28.2601H131.546V46.2915H134.392V37.2758C134.392 33.6509 136.426 30.4361 139.681 30.4361C140.208 30.4361 140.492 30.4757 140.777 30.5153C141.063 30.5549 141.349 30.5947 141.88 30.5947C141.88 30.0415 141.939 29.702 141.999 29.3566L141.999 29.3564C142.061 28.9986 142.124 28.6343 142.124 28.0196C141.687 28.0038 141.287 27.9528 140.902 27.9038C139.278 27.697 137.935 27.5258 135.37 30.1956C135.151 30.4119 134.997 30.6128 134.85 30.8051C134.67 31.0406 134.499 31.2632 134.232 31.4859H134.149V31.4804ZM75.9706 46.2921H73.1189V28.2607H75.9706V46.2921Z" fill="#EFEFE5"/>
</svg>
