<svg width="68" height="34" viewBox="0 0 68 34" fill="none" xmlns="http://www.w3.org/2000/svg">
<path opacity="0.8" fill-rule="evenodd" clip-rule="evenodd" d="M13.359 0C5.53211 0 0 5.59557 0 13.0882V33.5938C0 33.9492 0.0471261 34 0.409787 34H3.36537H6.32096C6.67953 34 6.73075 33.9533 6.73075 33.5938V26.1764H13.0926C21.3315 26.1764 26.8206 20.6336 26.8206 13.1918C26.8206 5.59557 21.1245 0 13.359 0ZM13.359 6.16022C17.6044 6.16022 20.0898 9.18244 20.0898 13.1389C20.0898 17.0914 17.6044 20.0181 13.0989 20.0181H6.73075V13.0882C6.73075 9.18854 9.05628 6.16022 13.359 6.16022ZM54.5386 0C46.7117 0 41.1795 5.59557 41.1795 13.0882V33.5938C41.1795 33.9492 41.2266 34 41.5893 34H44.5449H47.5005C47.859 34 47.9103 33.9533 47.9103 33.5938V26.1764H54.2722C62.5109 26.1764 68 20.6336 68 13.1918C68 5.59557 62.3041 0 54.5386 0ZM54.5386 6.16022C58.7839 6.16022 61.2693 9.18244 61.2693 13.1389C61.2693 17.0914 58.7839 20.0181 54.2783 20.0181H47.9103V13.0882C47.9103 9.18852 50.2358 6.16022 54.5386 6.16022ZM29.9117 8.28077C29.9117 8.07959 30.0759 7.91649 30.2785 7.91649H36.3064C36.509 7.91649 36.6732 8.07959 36.6732 8.28077V25.8317C36.6732 26.0329 36.509 26.196 36.3064 26.196H30.2785C30.0759 26.196 29.9117 26.0329 29.9117 25.8317V8.28077ZM33.2925 0C31.4292 0 29.9117 1.50041 29.9117 3.35126C29.9117 5.2021 31.4292 6.70251 33.2925 6.70251C35.1557 6.70251 36.6732 5.2021 36.6732 3.35126C36.6732 1.50041 35.1557 0 33.2925 0Z" fill="#EFEFE5"/>
</svg>
