<svg width="170" height="36" viewBox="0 0 170 36" fill="none" xmlns="http://www.w3.org/2000/svg">
<path opacity="0.8" d="M48.9167 27.209C52.4382 27.209 54.6512 24.9935 55.2554 22.9794L52.3881 21.8215C51.9606 23.3319 50.7028 24.3644 48.9925 24.3644C46.8546 24.3644 45.195 22.753 45.195 20.286C45.195 17.8191 46.8546 16.2076 48.9675 16.2076C50.6778 16.2076 51.8848 17.2401 52.3123 18.7756L55.1796 17.6428C54.5761 15.5785 52.3624 13.3631 48.9167 13.3631C44.9183 13.3631 42.0003 16.3839 42.0003 20.3111C42.0003 24.2383 44.9684 27.209 48.9167 27.209ZM60.1641 15.1257V13.6404H57.1467V26.9066H60.3407V19.3546C60.3407 17.5676 61.7994 16.3337 64.1132 16.3337V13.338C62.4529 13.338 61.0693 14.0681 60.1641 15.1257ZM75.0942 13.6404L71.346 24.3393L67.9261 13.6404H64.6306L69.309 26.9066H70.315L68.5046 31.4127H71.6485L73.3581 26.9066L78.414 13.6404H75.0942ZM87.408 13.338C85.5218 13.338 83.9881 14.0932 82.9563 15.3772V13.6404H79.989V31.4127H83.183V25.4972C84.189 26.5791 85.5976 27.2082 87.3329 27.2082C91.1304 27.2082 93.8976 24.2383 93.8976 20.286C93.8976 16.3087 91.2062 13.338 87.408 13.338ZM86.9054 24.3895C84.6166 24.3895 83.0571 22.7028 83.0571 20.286C83.0571 17.8692 84.6166 16.1826 86.9054 16.1826C89.0933 16.1826 90.7028 17.9194 90.7028 20.286C90.7028 22.6269 89.0933 24.3895 86.9054 24.3895ZM101.791 26.9066H103.878V24.1122H102.42C100.986 24.1122 100.206 23.2818 100.206 21.7463V16.3846H103.778V13.6404H100.307V10.1918H97.188V12.2812C97.188 13.1868 96.7604 13.6404 95.8802 13.6404H94.6732V16.3839H96.987V22.0988C96.987 25.0193 98.6216 26.9066 101.791 26.9066ZM111.823 27.209C115.948 27.209 118.891 24.2383 118.891 20.286C118.891 16.3087 115.948 13.3387 111.823 13.3387C107.673 13.3387 104.756 16.3087 104.756 20.286C104.756 24.2383 107.673 27.209 111.823 27.209ZM111.848 24.3644C109.534 24.3644 107.95 22.6527 107.95 20.286C107.95 17.8943 109.534 16.2076 111.848 16.2076C114.137 16.2076 115.671 17.8943 115.671 20.261C115.671 22.6527 114.112 24.3644 111.848 24.3644ZM136.873 13.338C134.635 13.338 133.126 14.2695 132.396 15.5033C131.642 14.1183 130.308 13.338 128.196 13.338C126.41 13.338 125.027 14.0932 124.197 15.1006V13.6404H121.179V26.8815H124.373V18.8508C124.398 17.5927 125.404 16.2076 127.215 16.1826C129.001 16.1826 129.982 17.5174 129.982 19.2543V26.8815H133.176V18.8508C133.201 17.6177 134.182 16.2076 136.018 16.1826C137.804 16.1826 138.759 17.5418 138.759 19.2543V26.8815H141.954V18.6753C141.954 15.6796 140.168 13.338 136.873 13.338ZM153.686 13.6404V21.6703C153.686 23.1306 152.529 24.3393 150.743 24.3644C148.958 24.3644 147.826 23.1807 147.826 21.469V13.6404H144.632V21.8717C144.632 24.9434 146.442 27.209 149.813 27.209C151.523 27.209 152.957 26.4788 153.887 25.4463V26.9066H156.88V13.6404H153.686ZM164.517 27.209C167.837 27.209 170 25.6477 170 23.0052C170 18.1465 162.731 19.5308 162.731 17.114C162.731 16.3087 163.36 15.805 164.542 15.805C165.649 15.805 166.428 16.2836 166.781 17.2903L169.572 16.2076C169.019 14.3956 167.158 13.3387 164.592 13.3387C161.474 13.3387 159.461 14.8484 159.461 17.2652C159.461 21.8215 166.73 20.6135 166.73 23.2316C166.73 24.1631 165.926 24.6919 164.643 24.6919C163.033 24.6919 162.002 23.9617 161.625 22.7279L158.833 23.8106C159.562 26.0511 161.65 27.209 164.517 27.209ZM29.8285 8.52727L16.3917 0.762834C16.0921 0.590616 15.7527 0.5 15.4073 0.5C15.062 0.5 14.7226 0.590616 14.423 0.762834L0.986164 8.52727C0.686558 8.70027 0.437686 8.94927 0.264574 9.24924C0.0914616 9.5492 0.000211633 9.88955 0 10.2361V25.7642C0 26.4656 0.377539 27.119 0.986164 27.473L14.423 35.2374C14.7229 35.4105 15.0631 35.501 15.4092 35.5C15.7558 35.5 16.0958 35.4078 16.3953 35.2374L29.8322 27.473C30.1317 27.3001 30.3805 27.0512 30.5536 26.7514C30.7267 26.4515 30.818 26.1113 30.8184 25.7649V10.2361C30.8184 9.53544 30.4408 8.88127 29.8322 8.52727H29.8285ZM15.7117 17.0373C15.6191 17.0908 15.5142 17.1189 15.4073 17.1189C15.3005 17.1189 15.1956 17.0908 15.103 17.0373L2.04004 9.48971L15.103 1.94505C15.1961 1.89313 15.3008 1.86588 15.4073 1.86588C15.5139 1.86588 15.6186 1.89313 15.7117 1.94505L28.7747 9.49119L15.7117 17.0373ZM14.423 18.2144C14.5187 18.269 14.6203 18.3169 14.7292 18.3545V33.8347L1.66618 26.2923C1.57364 26.2388 1.49669 26.162 1.44297 26.0695C1.38926 25.977 1.36066 25.872 1.36002 25.7649V10.6682L14.423 18.2144Z" fill="#EFEFE5"/>
</svg>
