<svg width="170" height="66" viewBox="0 0 170 66" fill="none" xmlns="http://www.w3.org/2000/svg">
<g opacity="0.8">
<path d="M54.3016 43.0002H49.0461L55.8723 22.7688H62.3823L69.2084 43.0002H63.953L59.2014 27.8662H59.0433L54.3016 43.0002ZM53.6002 35.038H64.5852V38.7524H53.6002V35.038Z" fill="#EFEFE5"/>
<path d="M76.2765 22.7688V43.0002H71.3866V22.7688H76.2765Z" fill="#EFEFE5"/>
<path d="M79.3463 43.0002V22.7688H87.7036C89.2184 22.7688 90.5256 23.0421 91.6254 23.5887C92.7318 24.1287 93.5847 24.9059 94.184 25.9201C94.7833 26.9277 95.083 28.123 95.083 29.506C95.083 30.9088 94.7767 32.1008 94.1642 33.0821C93.5518 34.0568 92.6825 34.8009 91.5563 35.3146C90.4301 35.8217 89.0965 36.0753 87.5555 36.0753H82.2704V32.2226H86.6466C87.3842 32.2226 88 32.1271 88.4939 31.9361C88.9944 31.7386 89.3731 31.4422 89.63 31.0471C89.8868 30.6453 90.0152 30.1316 90.0152 29.506C90.0152 28.8804 89.8868 28.3634 89.63 27.9551C89.3731 27.5402 88.9944 27.2306 88.4939 27.0265C87.9934 26.8157 87.3776 26.7104 86.6466 26.7104H84.2362V43.0002H79.3463ZM90.7364 33.7538L95.7745 43.0002H90.44L85.5007 33.7538H90.7364Z" fill="#EFEFE5"/>
<path d="M114.983 22.7688V43.0002H110.834L102.783 31.3237H102.655V43.0002H97.765V22.7688H101.973L109.935 34.4256H110.103V22.7688H114.983Z" fill="#EFEFE5"/>
<path d="M118.058 43.0002V22.7688H131.868V26.74H122.948V30.889H130.989V34.8701H122.948V43.0002H118.058Z" fill="#EFEFE5"/>
<path d="M133.669 26.74V22.7688H150.769V26.74H144.634V43.0002H139.813V26.74H133.669Z" fill="#EFEFE5"/>
<path d="M164.092 28.8343C164.027 28.1098 163.734 27.5467 163.213 27.145C162.7 26.7367 161.965 26.5325 161.01 26.5325C160.378 26.5325 159.851 26.6149 159.43 26.7795C159.008 26.9442 158.692 27.1714 158.481 27.4611C158.271 27.7443 158.162 28.0703 158.155 28.4391C158.142 28.7421 158.202 29.0088 158.333 29.2393C158.472 29.4698 158.669 29.6739 158.926 29.8518C159.189 30.023 159.506 30.1745 159.874 30.3062C160.243 30.4379 160.658 30.5531 161.119 30.6519L162.858 31.0471C163.859 31.2644 164.741 31.5542 165.505 31.9164C166.276 32.2786 166.921 32.71 167.441 33.2105C167.968 33.711 168.367 34.2873 168.637 34.9392C168.907 35.5912 169.045 36.3222 169.052 37.1323C169.045 38.4099 168.722 39.5065 168.083 40.4219C167.445 41.3373 166.526 42.0387 165.327 42.526C164.135 43.0134 162.696 43.257 161.01 43.257C159.318 43.257 157.843 43.0035 156.585 42.4964C155.327 41.9893 154.349 41.2188 153.651 40.1848C152.953 39.1508 152.594 37.8436 152.574 36.263H157.256C157.296 36.915 157.471 37.4583 157.78 37.8929C158.09 38.3276 158.514 38.6569 159.054 38.8808C159.601 39.1047 160.233 39.2167 160.951 39.2167C161.61 39.2167 162.169 39.1278 162.63 38.95C163.098 38.7721 163.457 38.5252 163.707 38.2091C163.957 37.8929 164.086 37.5307 164.092 37.1224C164.086 36.7404 163.967 36.4144 163.737 36.1444C163.506 35.8678 163.151 35.6307 162.67 35.4332C162.196 35.229 161.59 35.0413 160.852 34.8701L158.738 34.3762C156.986 33.9744 155.607 33.3257 154.599 32.4301C153.592 31.5278 153.091 30.3095 153.098 28.775C153.091 27.5237 153.427 26.4272 154.105 25.4854C154.784 24.5436 155.722 23.8093 156.921 23.2825C158.119 22.7556 159.486 22.4922 161.02 22.4922C162.588 22.4922 163.948 22.7589 165.1 23.2924C166.259 23.8192 167.158 24.5601 167.797 25.515C168.436 26.47 168.762 27.5764 168.775 28.8343H164.092Z" fill="#EFEFE5"/>
</g>
<g opacity="0.8" clip-path="url(#clip0_4_9582)">
<mask id="mask0_4_9582" style="mask-type:luminance" maskUnits="userSpaceOnUse" x="1" y="13" width="40" height="40">
<path d="M1 33C1 27.4728 1 24.7092 1.76615 22.4842C3.17545 18.3912 6.39125 15.1755 10.4842 13.7661C12.7092 13 15.4728 13 21 13C26.5272 13 29.2908 13 31.5158 13.7661C35.6087 15.1755 38.8245 18.3912 40.2339 22.4842C41 24.7092 41 27.4728 41 33C41 38.5272 41 41.2908 40.2339 43.5158C38.8245 47.6087 35.6087 50.8245 31.5158 52.2339C29.2908 53 26.5272 53 21 53C15.4728 53 12.7092 53 10.4842 52.2339C6.39125 50.8245 3.17545 47.6087 1.76615 43.5158C1 41.2908 1 38.5272 1 33Z" fill="white"/>
</mask>
<g mask="url(#mask0_4_9582)">
<path fill-rule="evenodd" clip-rule="evenodd" d="M1.76615 22.4842C1 24.7092 1 27.4728 1 33C1 38.5272 1 41.2908 1.76615 43.5158C3.17545 47.6087 6.39125 50.8245 10.4842 52.2339C12.7092 53 15.4728 53 21 53C26.5272 53 29.2908 53 31.5158 52.2339C35.6087 50.8245 38.8245 47.6087 40.2339 43.5158C41 41.2908 41 38.5272 41 33C41 27.4728 41 24.7092 40.2339 22.4842C38.8245 18.3912 35.6087 15.1755 31.5158 13.7661C29.2908 13 26.5272 13 21 13C15.4728 13 12.7092 13 10.4842 13.7661C6.39125 15.1755 3.17545 18.3912 1.76615 22.4842ZM26.7648 22.7796C24.1679 18.2818 17.676 18.2818 15.0792 22.7796L7.42521 34.3708C4.82843 38.8684 8.07442 44.4906 13.268 44.4906H28.576C33.7696 44.4906 37.0156 38.8684 34.4187 34.3708L26.7648 22.7796Z" fill="#EFEFE5"/>
<path fill-rule="evenodd" clip-rule="evenodd" d="M20.0764 35.6096C20.0764 38.3296 18.2641 40.5347 16.0285 40.5347C13.7928 40.5347 11.9805 38.3296 11.9805 35.6096C11.9805 32.8896 13.7928 30.6846 16.0285 30.6846C18.2641 30.6846 20.0764 32.8896 20.0764 35.6096ZM17.4093 34.22C17.4093 35.2261 16.5938 36.0416 15.5877 36.0416C14.5817 36.0416 13.7662 35.2261 13.7662 34.22C13.7662 33.214 14.5817 32.3984 15.5877 32.3984C16.5938 32.3984 17.4093 33.214 17.4093 34.22Z" fill="#EFEFE5"/>
<path fill-rule="evenodd" clip-rule="evenodd" d="M29.5615 35.6096C29.5615 38.3296 27.7492 40.5347 25.5136 40.5347C23.2779 40.5347 21.4656 38.3296 21.4656 35.6096C21.4656 32.8896 23.2779 30.6846 25.5136 30.6846C27.7492 30.6846 29.5615 32.8896 29.5615 35.6096ZM26.728 34.22C26.728 35.2261 25.9125 36.0416 24.9064 36.0416C23.9004 36.0416 23.0848 35.2261 23.0848 34.22C23.0848 33.214 23.9004 32.3984 24.9064 32.3984C25.9125 32.3984 26.728 33.214 26.728 34.22Z" fill="#EFEFE5"/>
</g>
</g>
<defs>
<clipPath id="clip0_4_9582">
<rect width="40" height="40" fill="white" transform="translate(1 13)"/>
</clipPath>
</defs>
</svg>
