<svg width="170" height="66" viewBox="0 0 170 66" fill="none" xmlns="http://www.w3.org/2000/svg">
<g opacity="0.8" clip-path="url(#clip0_272_21343)">
<path fill-rule="evenodd" clip-rule="evenodd" d="M55.2535 43.2V45H41V43.2H55.2535ZM55.2535 21V41.4H41V21H55.2535ZM53.3944 22.8H42.8592V39.6H53.3944V22.8Z" fill="#EFEFE5"/>
<path fill-rule="evenodd" clip-rule="evenodd" d="M119.366 28.3597V21L119.29 21.0237C118.956 21.1252 118.547 21.2105 118.063 21.2798C117.541 21.3545 117.04 21.4104 116.56 21.4477C115.997 21.5037 115.41 21.5503 114.797 21.5877H112.934V21.8115H114.797V40.9523H112.934V41.1761H119.366V39.5531L119.417 39.6533C119.487 39.7861 119.565 39.916 119.652 40.0428C119.705 40.1221 119.773 40.2119 119.854 40.3121L119.938 40.4159C119.968 40.4516 120 40.4886 120.033 40.5267L120.136 40.6444C120.219 40.7564 120.318 40.8497 120.434 40.9243C120.549 40.9989 120.657 41.0642 120.756 41.1202C120.872 41.1948 120.988 41.2414 121.104 41.2601C121.518 41.3534 121.932 41.4 122.346 41.4C122.859 41.4 123.389 41.3254 123.935 41.1761C124.482 41.0269 125.011 40.7843 125.525 40.4486C126.104 40.0568 126.58 39.6091 126.952 39.1054C127.325 38.6017 127.614 38.056 127.821 37.4683C128.028 36.8807 128.173 36.2743 128.256 35.6494C128.339 35.0244 128.38 34.4041 128.38 33.7885C128.38 33.1915 128.339 32.5805 128.256 31.9556C128.173 31.3306 128.028 30.7289 127.821 30.1506C127.614 29.5723 127.325 29.0313 126.952 28.5276C126.58 28.0238 126.104 27.5761 125.525 27.1844C125.044 26.8672 124.564 26.6387 124.084 26.4988C123.604 26.3588 123.132 26.2889 122.669 26.2889C122.089 26.2889 121.592 26.3775 121.179 26.5547C120.765 26.732 120.417 26.9792 120.136 27.2963C119.954 27.5015 119.801 27.6927 119.676 27.8699C119.552 28.0472 119.449 28.2104 119.366 28.3597ZM112.152 28.8913V21.5667H96.7065V28.8352H96.9537L96.955 28.6674C96.9667 27.8875 97.061 27.1483 97.2379 26.4498C97.4274 25.7014 97.7857 24.8782 98.3129 23.9802L98.3691 23.8843C98.6326 23.4431 98.9104 23.0915 99.2026 22.8296C99.5156 22.5489 99.8204 22.3338 100.117 22.1841C100.414 22.0344 100.702 21.9362 100.982 21.8895C101.262 21.8427 101.517 21.8193 101.748 21.8193V40.9867H99.2767V41.2112H109.656V40.9867H107.185V21.8193L107.284 21.8207C107.484 21.8265 107.69 21.8494 107.902 21.8895C108.149 21.9362 108.404 22.0391 108.668 22.1982C108.932 22.3572 109.203 22.5817 109.483 22.8717C109.763 23.1617 110.051 23.5499 110.348 24.0363C110.876 24.9343 111.271 25.7575 111.534 26.5059C111.798 27.2543 111.93 28.0494 111.93 28.8913H112.152ZM95.9245 21.5667V28.1055H95.7003L95.6991 27.8366C95.6979 27.705 95.6957 27.5775 95.6926 27.4541L95.6852 27.2131L95.6754 26.983C95.6588 26.6462 95.6131 26.3188 95.5384 26.0008C95.4637 25.6827 95.3516 25.3506 95.2022 25.0045C95.0527 24.6584 94.8452 24.2702 94.5795 23.8399C94.2806 23.3534 93.9734 22.9699 93.658 22.6893C93.3425 22.4086 93.0062 22.2028 92.6493 22.0719C92.2923 21.9409 91.9104 21.8614 91.5035 21.8333C91.1548 21.8093 90.7909 21.7955 90.4117 21.7921L90.2208 21.7912H88.2283V30.9961H89.2993C89.5982 30.9961 89.8805 30.9867 90.1461 30.968C90.4118 30.9493 90.6608 30.8978 90.8934 30.8137C91.1258 30.7295 91.3417 30.6032 91.5409 30.4348C91.7401 30.2664 91.9311 30.0325 92.1138 29.7332C92.3961 29.2655 92.6202 28.7978 92.7862 28.33C92.9412 27.8935 93.0239 27.4162 93.0342 26.8982L93.0353 26.7865H93.2345V35.4301H93.0353C93.0353 34.8875 92.9564 34.3824 92.7987 33.9146C92.641 33.4469 92.4127 32.9699 92.1138 32.4834C91.7817 31.9409 91.379 31.5947 90.9058 31.4451C90.4641 31.3054 89.9682 31.2309 89.4181 31.2215L89.2993 31.2206H88.2283V40.9586L90.8685 40.9867V41.2112H80.2831V40.9867H82.4998V21.7912H80.2831V21.5667H95.9245ZM65.5174 21.8193C65.0876 21.6696 64.6909 21.5854 64.3273 21.5667H58.9718V21.7912L59.0443 21.8181C59.2875 21.9125 59.5443 22.0532 59.8148 22.2402C60.0792 22.4086 60.3809 22.6331 60.7198 22.9138C61.0586 23.1944 61.4181 23.5405 61.7983 23.9521L62.8149 25.1308V39.6396L62.8136 39.7051C62.8009 40.051 62.6855 40.3472 62.4678 40.5938C62.2363 40.8557 61.9553 40.9867 61.6248 40.9867H60.3354V41.2112H65.4925V40.9867H64.1785L64.1239 40.9855C63.8173 40.9717 63.5586 40.8412 63.3479 40.5938C63.1248 40.3318 63.0132 40.0138 63.0132 39.6396V25.3272L63.3931 25.8778L63.7702 26.4208L64.1446 26.9565L64.5163 27.4846C64.6397 27.6594 64.7628 27.833 64.8853 28.0053L65.2516 28.5186L65.6152 29.0244L65.976 29.5227C66.036 29.6051 66.0958 29.6873 66.1555 29.7691L66.5123 30.2563L66.8663 30.736C66.9251 30.8153 66.9838 30.8943 67.0424 30.973L67.3924 31.4416L67.7397 31.9027C67.855 32.0551 67.9699 32.2063 68.0843 32.3563L68.4262 32.8024C68.5397 32.9499 68.6527 33.0961 68.7653 33.2411C69.5257 34.2327 70.3025 35.2056 71.096 36.1597C71.8894 37.1139 72.6456 37.9605 73.3646 38.6995L73.5767 38.9171L73.7821 39.1266L73.9816 39.328L74.1758 39.5212C74.5595 39.8995 74.9164 40.2289 75.2735 40.5096C75.8685 40.9773 76.3561 41.2112 76.7363 41.2112H76.9594V23.1383L76.9606 23.0728C76.9729 22.7269 77.0841 22.4306 77.2941 22.1841C77.5173 21.9222 77.7942 21.7912 78.1248 21.7912H79.6189V21.5667H74.2569V21.7912H75.571L75.6256 21.7924C75.9322 21.8062 76.1909 21.9368 76.4016 22.1841C76.6247 22.446 76.7363 22.7641 76.7363 23.1383V34.4479L76.7146 34.4026C76.7071 34.3871 76.6993 34.3714 76.6912 34.3553L76.6396 34.2551L76.5813 34.147L76.5165 34.0312L76.4451 33.9076L76.367 33.7762L76.2825 33.6371L76.1912 33.4901L76.0934 33.3355L75.975 33.1514C75.9523 33.1165 75.9294 33.0814 75.9061 33.0459L75.7626 32.8296L75.6117 32.6063C75.5859 32.5685 75.5598 32.5304 75.5333 32.4921L75.3712 32.2583L75.2015 32.0176L75.0242 31.7699L74.7388 31.3762C74.6716 31.283 74.6046 31.1889 74.5373 31.0939L74.0212 30.3629C73.808 30.0634 73.5842 29.7553 73.3398 29.4385C72.7695 28.6995 72.1869 27.9699 71.5919 27.2496C70.9968 26.5293 70.4059 25.8464 69.8191 25.2009C69.7799 25.1579 69.7411 25.1152 69.7023 25.0729L69.4725 24.8232L69.2475 24.582C69.2104 24.5425 69.1735 24.5034 69.1367 24.4646L68.919 24.2361L68.7061 24.016C68.671 23.9801 68.6362 23.9445 68.6015 23.9092L68.3959 23.7019C68.3281 23.6342 68.2612 23.568 68.1951 23.5031C67.6992 23.0167 67.2199 22.6472 66.7571 22.3946C66.2942 22.142 65.881 21.9503 65.5174 21.8193ZM120.613 27.1565C120.732 27.0818 120.867 27.0445 121.019 27.0445C121.307 27.0445 121.582 27.1612 121.845 27.3948C122.107 27.6283 122.323 27.8852 122.492 28.1655C122.797 28.6886 122.974 29.464 123.025 30.4916C123.076 31.5193 123.101 32.6404 123.101 33.8548C123.101 34.2835 123.098 34.6975 123.09 35.0971L123.082 35.4918C123.074 35.8166 123.062 36.1314 123.049 36.4361L123.032 36.7969C123.026 36.9155 123.02 37.0325 123.012 37.1479C122.953 38.1288 122.771 38.8808 122.466 39.404C122.441 39.446 122.413 39.4913 122.381 39.5399L122.314 39.6416C122.303 39.6592 122.291 39.6773 122.279 39.6956L122.2 39.8104C122.09 39.9692 121.959 40.128 121.806 40.2868C121.654 40.4456 121.485 40.5764 121.299 40.6792C121.112 40.7819 120.918 40.8334 120.714 40.8334C120.562 40.8334 120.448 40.796 120.372 40.7212L119.978 40.3289C119.842 40.1794 119.728 39.9925 119.635 39.7684C119.542 39.5441 119.471 39.3199 119.42 39.0957C119.267 38.5165 119.191 37.8999 119.191 37.246V30.9961L119.192 30.773C119.197 30.4771 119.209 30.1871 119.229 29.9031C119.254 29.5481 119.318 29.2118 119.42 28.8942C119.504 28.6326 119.597 28.385 119.699 28.1515C119.8 27.9179 119.944 27.7171 120.131 27.5489L120.228 27.4601C120.244 27.4462 120.259 27.4325 120.275 27.4193L120.362 27.3446C120.46 27.2628 120.544 27.2002 120.613 27.1565Z" fill="#EFEFE5"/>
</g>
<defs>
<clipPath id="clip0_272_21343">
<rect width="88" height="24" fill="white" transform="translate(41 21)"/>
</clipPath>
</defs>
</svg>
