<svg width="170" height="66" viewBox="0 0 170 66" fill="none" xmlns="http://www.w3.org/2000/svg">
<g opacity="0.8" clip-path="url(#clip0_272_21372)">
<path d="M60.3331 39.4286C66.5402 39.4286 71.6188 34.6071 71.6188 28.7143C71.6188 26.25 70.8288 24.1071 69.3616 22.2857C70.7159 21.3214 71.6188 19.7143 71.6188 18H60.3331C54.1259 18 49.0474 22.8214 49.0474 28.7143C49.0474 34.6071 54.1259 39.4286 60.3331 39.4286ZM60.3331 22.9286C63.7188 22.9286 66.4274 25.5 66.4274 28.7143C66.4274 31.9286 63.7188 34.5 60.3331 34.5C56.9474 34.5 54.2388 31.9286 54.2388 28.7143C54.2388 25.5 56.9474 22.9286 60.3331 22.9286Z" fill="#EFEFE5"/>
<path d="M74.7786 42.3214C74.1015 40.7143 72.7472 39.5357 70.9415 39C68.0072 41.6786 64.1701 43.0714 60.4458 43.0714C56.6086 43.0714 52.8843 41.6786 49.9501 39C48.1443 39.5357 46.7901 40.7143 46.1129 42.3214C49.9501 46.0714 55.1415 48 60.3329 48C65.5243 48 70.7158 46.0714 74.7786 42.3214Z" fill="#EFEFE5"/>
<path d="M109.877 21.5361C108.41 21.5361 107.394 22.5004 107.394 23.8933C107.394 25.2861 108.41 26.2504 109.877 26.2504C111.344 26.2504 112.36 25.2861 112.36 23.8933C112.36 22.5004 111.344 21.5361 109.877 21.5361Z" fill="#EFEFE5"/>
<path d="M83.6945 43.3931C85.0657 43.3931 86.1774 42.3377 86.1774 41.0359C86.1774 39.7341 85.0657 38.6787 83.6945 38.6787C82.3233 38.6787 81.2117 39.7341 81.2117 41.0359C81.2117 42.3377 82.3233 43.3931 83.6945 43.3931Z" fill="#EFEFE5"/>
<path d="M97.9145 27.75C96.5602 27.75 95.3188 28.1786 94.1902 28.9286C94.1902 25.9286 94.1902 22.6071 94.1902 22.6071C92.836 21.9643 91.256 21.9643 89.7888 22.6071V43.1786C91.1431 43.8214 92.836 43.8214 94.1902 43.1786V42.3214C95.206 43.0714 96.5602 43.5 97.9145 43.5C100.172 43.5 102.203 42.4286 103.332 40.5C104.122 39.2143 104.46 37.6071 104.46 35.6786C104.46 33.75 104.009 32.1429 103.332 30.8571C102.203 28.9286 100.285 27.75 97.9145 27.75ZM97.1245 39.8571C95.0931 39.8571 94.1902 37.9286 94.1902 35.5714C94.1902 33.2143 95.0931 31.2857 97.1245 31.2857C99.156 31.2857 100.059 33.4286 100.059 35.5714C100.059 37.7143 99.156 39.8571 97.1245 39.8571Z" fill="#EFEFE5"/>
<path d="M107.62 28.1784V43.0712C108.974 43.7141 110.667 43.7141 112.022 43.0712V28.1784C110.667 27.5356 109.087 27.5356 107.62 28.1784Z" fill="#EFEFE5"/>
<path d="M124.549 39.7503H122.856C122.179 39.7503 121.614 39.2146 121.614 38.5717V31.3931C122.856 31.3931 124.436 31.3931 124.436 31.3931C125 30.3217 125 29.1431 124.436 28.0717H121.614V24.2146C120.26 23.5717 118.68 23.5717 117.213 24.2146V27.9646H114.73C114.166 29.036 114.166 30.2146 114.73 31.286C114.73 31.286 116.31 31.286 117.213 31.286V39.8574C117.213 42.3217 118.906 43.286 122.179 43.286C123.646 43.286 124.549 43.1788 124.549 43.1788C125.113 42.2146 125.113 40.8217 124.549 39.7503Z" fill="#EFEFE5"/>
</g>
<defs>
<clipPath id="clip0_272_21372">
<rect width="79" height="30" fill="white" transform="translate(46 18)"/>
</clipPath>
</defs>
</svg>
