<svg width="170" height="66" viewBox="0 0 170 66" fill="none" xmlns="http://www.w3.org/2000/svg">
<g opacity="0.8">
<path d="M76.2461 43.1157V26.5547H79.9469V43.1157H76.2461ZM71.0367 29.5766V26.3167H85.1562V29.5766H71.0367Z" fill="#EFEFE5"/>
<path d="M88.9386 43.3537C87.8857 43.3537 86.9428 43.0919 86.11 42.5684C85.2928 42.045 84.6407 41.3311 84.1535 40.4269C83.6821 39.5227 83.4464 38.4916 83.4464 37.3336C83.4464 36.1756 83.6821 35.1445 84.1535 34.2403C84.6407 33.3361 85.2928 32.6223 86.11 32.0988C86.9428 31.5753 87.8857 31.3136 88.9386 31.3136C89.7086 31.3136 90.4 31.4643 91.0129 31.7657C91.6415 32.0671 92.1522 32.4875 92.5451 33.0268C92.9379 33.5503 93.1579 34.1531 93.2051 34.8352V39.8321C93.1579 40.5142 92.9379 41.1249 92.5451 41.6642C92.1679 42.1877 91.665 42.6002 91.0365 42.9016C90.4079 43.203 89.7086 43.3537 88.9386 43.3537ZM89.6693 40.07C90.4393 40.07 91.06 39.8162 91.5315 39.3086C92.0029 38.7851 92.2386 38.1268 92.2386 37.3336C92.2386 36.7943 92.1286 36.3184 91.9086 35.9059C91.7043 35.4935 91.4058 35.1762 91.0129 34.9542C90.6357 34.7162 90.1957 34.5972 89.6929 34.5972C89.19 34.5972 88.7421 34.7162 88.3493 34.9542C87.9721 35.1762 87.6657 35.4935 87.43 35.9059C87.21 36.3184 87.1 36.7943 87.1 37.3336C87.1 37.8571 87.21 38.3251 87.43 38.7375C87.65 39.1499 87.9564 39.4751 88.3493 39.7131C88.7421 39.951 89.1822 40.07 89.6693 40.07ZM92.0972 43.1157V39.9986L92.6393 37.1909L92.0972 34.3831V31.5515H95.633V43.1157H92.0972Z" fill="#EFEFE5"/>
<path d="M102.344 43.4013C101.669 43.4013 101.001 43.314 100.341 43.1395C99.6966 42.965 99.0916 42.7191 98.5258 42.4019C97.9758 42.0688 97.5044 41.688 97.1115 41.2597L99.1623 39.1658C99.5394 39.5782 99.9873 39.9034 100.506 40.1414C101.024 40.3635 101.59 40.4745 102.203 40.4745C102.627 40.4745 102.949 40.4111 103.169 40.2842C103.405 40.1573 103.523 39.9828 103.523 39.7607C103.523 39.4751 103.382 39.261 103.099 39.1182C102.832 38.9596 102.486 38.8248 102.062 38.7137C101.637 38.5868 101.189 38.452 100.718 38.3092C100.247 38.1664 99.7987 37.9681 99.3744 37.7143C98.9501 37.4605 98.6044 37.1115 98.3373 36.6674C98.0701 36.2073 97.9365 35.6283 97.9365 34.9304C97.9365 34.1848 98.1251 33.5423 98.5023 33.003C98.8794 32.4478 99.4137 32.0116 100.105 31.6943C100.797 31.377 101.606 31.2184 102.533 31.2184C103.507 31.2184 104.403 31.3929 105.22 31.7419C106.053 32.075 106.729 32.5747 107.247 33.2409L105.197 35.3349C104.835 34.9066 104.427 34.6052 103.971 34.4307C103.531 34.2562 103.099 34.1689 102.674 34.1689C102.266 34.1689 101.959 34.2324 101.755 34.3593C101.551 34.4703 101.449 34.6369 101.449 34.859C101.449 35.0969 101.582 35.2873 101.849 35.4301C102.117 35.5728 102.462 35.6997 102.887 35.8108C103.311 35.9218 103.759 36.0566 104.23 36.2153C104.702 36.3739 105.15 36.5881 105.574 36.8577C105.998 37.1274 106.344 37.4923 106.611 37.9523C106.878 38.3964 107.012 38.9834 107.012 39.7131C107.012 40.8394 106.587 41.7356 105.739 42.4019C104.906 43.0681 103.774 43.4013 102.344 43.4013Z" fill="#EFEFE5"/>
<path d="M116.299 43.1157L112.292 37.1195L116.276 31.5515H120.306L115.498 37.8095L115.616 36.3105L120.542 43.1157H116.299ZM108.968 43.1157V25.8408H112.575V43.1157H108.968Z" fill="#EFEFE5"/>
<path d="M130.11 43.4013C128.853 43.4013 127.69 43.1792 126.621 42.735C125.568 42.2908 124.641 41.6722 123.84 40.879C123.038 40.0859 122.418 39.1658 121.978 38.1188C121.538 37.056 121.318 35.9139 121.318 34.6924C121.318 33.4551 121.538 32.313 121.978 31.266C122.418 30.219 123.03 29.3069 123.816 28.5296C124.602 27.7365 125.521 27.1257 126.574 26.6974C127.643 26.2533 128.805 26.0312 130.063 26.0312C131.304 26.0312 132.451 26.2533 133.504 26.6974C134.573 27.1257 135.5 27.7365 136.286 28.5296C137.087 29.3069 137.708 30.227 138.148 31.2898C138.588 32.3368 138.808 33.4789 138.808 34.7162C138.808 35.9377 138.588 37.0798 138.148 38.1426C137.708 39.1896 137.095 40.1097 136.309 40.9028C135.523 41.6801 134.596 42.2908 133.528 42.735C132.475 43.1792 131.336 43.4013 130.11 43.4013ZM130.063 39.9986C131.053 39.9986 131.917 39.7765 132.656 39.3324C133.41 38.8882 133.991 38.2695 134.4 37.4764C134.808 36.6674 135.013 35.7394 135.013 34.6924C135.013 33.8993 134.895 33.1854 134.659 32.5509C134.423 31.9005 134.086 31.3453 133.646 30.8853C133.206 30.4094 132.679 30.0525 132.066 29.8145C131.469 29.5607 130.801 29.4338 130.063 29.4338C129.073 29.4338 128.2 29.6559 127.446 30.1001C126.708 30.5284 126.134 31.1391 125.725 31.9322C125.317 32.7095 125.113 33.6296 125.113 34.6924C125.113 35.4856 125.23 36.2073 125.466 36.8577C125.702 37.5081 126.032 38.0713 126.456 38.5471C126.896 39.0072 127.423 39.3641 128.035 39.6179C128.648 39.8717 129.324 39.9986 130.063 39.9986Z" fill="#EFEFE5"/>
<path d="M148.394 43.1157V36.5246C148.394 35.9218 148.205 35.438 147.828 35.0731C147.466 34.6924 147.003 34.5021 146.437 34.5021C146.044 34.5021 145.699 34.5893 145.4 34.7638C145.101 34.9224 144.866 35.1604 144.693 35.4776C144.52 35.779 144.434 36.128 144.434 36.5246L143.043 35.8346C143.043 34.9304 143.239 34.1372 143.632 33.4551C144.025 32.773 144.567 32.2495 145.259 31.8847C145.966 31.5039 146.759 31.3136 147.639 31.3136C148.488 31.3136 149.234 31.5198 149.879 31.9322C150.539 32.3288 151.057 32.8602 151.434 33.5265C151.811 34.1927 152 34.9224 152 35.7156V43.1157H148.394ZM140.827 43.1157V31.5515H144.434V43.1157H140.827Z" fill="#EFEFE5"/>
<path d="M45.0783 14.1716L37.2925 27.7862H42.0942L45.3612 33.501L42.0942 39.2157L33.916 53.5147C35.3307 53.8299 36.7987 53.9996 38.3067 53.9996C49.5224 53.9996 58.6161 44.8227 58.6161 33.4983C58.6161 24.5746 52.9655 16.9845 45.0783 14.1689V14.1716Z" fill="#EFEFE5"/>
<path d="M39.3023 39.2134H34.5219L31.2549 33.4987L34.5219 27.7839H34.4978L42.6787 13.4823C41.2694 13.1697 39.8094 13 38.3067 13C27.091 13 18 22.177 18 33.5014C18 42.4197 23.6425 50.0043 31.5191 52.8226L39.3023 39.2134Z" fill="#EFEFE5"/>
</g>
</svg>
