<svg width="196" height="50" viewBox="0 0 196 50" fill="none" xmlns="http://www.w3.org/2000/svg">
<g opacity="0.8" clip-path="url(#clip0_311_23774)">
<path d="M45.9443 34.1422H39.5967V19.6307H45.243C46.232 19.6307 47.0772 19.7566 47.7965 19.9904C48.5158 20.2241 49.0372 20.5478 49.4149 20.9434C50.0622 21.6986 50.3859 22.5438 50.3859 23.4789C50.3859 24.6117 50.0262 25.4569 49.289 26.0143C49.0372 26.2121 48.8574 26.338 48.7675 26.374C48.6776 26.4279 48.4978 26.4998 48.246 26.6077C49.1451 26.8055 49.8644 27.2012 50.4039 27.8305C50.9433 28.4419 51.1951 29.2151 51.1951 30.1322C51.1951 31.1392 50.8534 32.0383 50.1521 32.8115C49.3429 33.6927 47.9403 34.1422 45.9443 34.1422ZM44.3619 25.4929C45.261 25.4929 45.9263 25.4029 46.3579 25.2051C46.7895 25.0073 47.0053 24.5938 47.0053 23.9464C47.0053 23.2991 46.8075 22.8855 46.3939 22.6697C45.9983 22.4539 45.315 22.364 44.3619 22.364H42.7975V25.4929H44.3619ZM42.8334 31.391H45.0632C45.9983 31.391 46.6816 31.2831 47.1491 31.0493C47.6167 30.8155 47.8504 30.366 47.8504 29.7007C47.8504 29.0353 47.5987 28.5858 47.1132 28.37C46.6276 28.1542 45.8364 28.0463 44.7575 28.0463H42.8514V31.391H42.8334Z" fill="#EFEFE5"/>
<path d="M53.4249 19.6307H56.6616V31.2651H62.8474V34.1602H53.4249V19.6307Z" fill="#EFEFE5"/>
<path d="M76.5677 32.1282C75.0932 33.5668 73.295 34.2861 71.1371 34.2861C68.9973 34.2861 67.1811 33.5668 65.7066 32.1282C64.232 30.6897 63.5128 28.9094 63.5128 26.7876C63.5128 24.6477 64.25 22.8675 65.7066 21.4469C67.1811 20.0083 68.9793 19.2891 71.1371 19.2891C73.277 19.2891 75.0932 20.0083 76.5677 21.4469C78.0422 22.8855 78.7615 24.6657 78.7615 26.7876C78.7615 28.9094 78.0422 30.6897 76.5677 32.1282ZM75.4708 26.7876C75.4708 25.4929 75.0572 24.396 74.23 23.4789C73.4029 22.5618 72.3779 22.1122 71.1731 22.1122C69.9683 22.1122 68.9433 22.5618 68.1162 23.4789C67.289 24.396 66.8754 25.4929 66.8754 26.7876C66.8754 28.0823 67.289 29.1792 68.1162 30.0963C68.9433 30.9954 69.9683 31.4629 71.1731 31.4629C72.3779 31.4629 73.4029 31.0133 74.23 30.0963C75.0572 29.1972 75.4708 28.0823 75.4708 26.7876Z" fill="#EFEFE5"/>
<path d="M87.6986 31.2651C89.299 31.2651 90.5937 30.6357 91.6007 29.377L93.6866 31.5168C92.0322 33.369 90.0902 34.304 87.8604 34.304C85.6306 34.304 83.7785 33.6027 82.3399 32.1822C80.9014 30.7616 80.1641 28.9814 80.1641 26.8415C80.1641 24.6837 80.9014 22.8855 82.3759 21.4469C83.8504 20.0083 85.6486 19.2891 87.7885 19.2891C90.1621 19.2891 92.1581 20.1882 93.7765 22.0043L91.7625 24.2881C90.7375 23.0113 89.4608 22.382 87.9323 22.382C86.7096 22.382 85.6666 22.7776 84.8035 23.5688C83.9403 24.36 83.5088 25.4389 83.5088 26.7876C83.5088 28.1362 83.9224 29.2151 84.7315 30.0423C85.5407 30.8695 86.5297 31.2651 87.6986 31.2651Z" fill="#EFEFE5"/>
<path d="M95.7545 19.6127H98.9913V25.5828L104.476 19.6127H108.486L102.714 26.0323C103.217 26.7336 104.134 28.0103 105.483 29.8985C106.831 31.7866 107.838 33.1892 108.504 34.1242H104.728L100.466 28.388L99.0093 30.0063V34.1242H95.7725V19.6127H95.7545Z" fill="#EFEFE5"/>
<path d="M120.516 20.4759C121.667 21.1412 122.584 22.0223 123.267 23.1372C123.95 24.2521 124.292 25.4929 124.292 26.8415C124.292 28.1902 123.95 29.4309 123.267 30.5638C122.584 31.6967 121.667 32.5958 120.516 33.2611C119.365 33.9264 118.088 34.2501 116.704 34.2501C115.319 34.2501 114.042 33.9264 112.891 33.2611C111.741 32.5958 110.823 31.6967 110.14 30.5638C109.457 29.4309 109.115 28.1902 109.115 26.8415C109.115 25.4929 109.457 24.2701 110.14 23.1372C110.823 22.0223 111.741 21.1232 112.891 20.4759C114.042 19.8105 115.319 19.4869 116.704 19.4869C118.088 19.4869 119.347 19.8285 120.516 20.4759ZM113.647 21.5908C112.712 22.1302 111.956 22.8675 111.399 23.7846C110.841 24.7196 110.572 25.7266 110.572 26.8415C110.572 27.9564 110.841 28.9814 111.399 29.9164C111.956 30.8515 112.694 31.6067 113.647 32.1462C114.582 32.6857 115.607 32.9734 116.722 32.9734C117.818 32.9734 118.825 32.7036 119.761 32.1462C120.696 31.6067 121.433 30.8515 121.99 29.9164C122.548 28.9814 122.817 27.9564 122.817 26.8415C122.817 25.7266 122.548 24.7196 121.99 23.7846C121.433 22.8495 120.696 22.1302 119.761 21.5908C118.825 21.0513 117.818 20.7816 116.722 20.7816C115.607 20.7816 114.582 21.0513 113.647 21.5908Z" fill="#EFEFE5"/>
<path d="M138.911 19.6127V34.1242H137.383L128.392 21.8245V34.1242H126.953V19.6127H128.464L137.473 31.9124V19.6127H138.911Z" fill="#EFEFE5"/>
<path d="M152.991 20.4759C154.142 21.1412 155.059 22.0223 155.743 23.1372C156.426 24.2521 156.768 25.4929 156.768 26.8415C156.768 28.1902 156.426 29.4309 155.743 30.5638C155.059 31.6967 154.142 32.5958 152.991 33.2611C151.84 33.9264 150.564 34.2501 149.179 34.2501C147.794 34.2501 146.518 33.9264 145.367 33.2611C144.216 32.5958 143.299 31.6967 142.616 30.5638C141.932 29.4309 141.591 28.1902 141.591 26.8415C141.591 25.4929 141.932 24.2701 142.616 23.1372C143.299 22.0223 144.216 21.1232 145.367 20.4759C146.518 19.8105 147.794 19.4869 149.179 19.4869C150.564 19.4869 151.84 19.8285 152.991 20.4759ZM146.14 21.5908C145.205 22.1302 144.45 22.8675 143.892 23.7846C143.335 24.7196 143.065 25.7266 143.065 26.8415C143.065 27.9564 143.335 28.9814 143.892 29.9164C144.45 30.8515 145.187 31.6067 146.14 32.1462C147.075 32.6857 148.1 32.9734 149.215 32.9734C150.312 32.9734 151.319 32.7036 152.254 32.1462C153.189 31.6067 153.926 30.8515 154.484 29.9164C155.041 28.9814 155.311 27.9564 155.311 26.8415C155.311 25.7266 155.041 24.7196 154.484 23.7846C153.926 22.8495 153.189 22.1302 152.254 21.5908C151.319 21.0513 150.312 20.7816 149.215 20.7816C148.1 20.7816 147.075 21.0513 146.14 21.5908Z" fill="#EFEFE5"/>
<path d="M161.227 19.5948L166.927 30.4919L172.556 19.5948H174.336V34.1422H173.005L172.987 21.5908L167.287 32.5778H166.496L160.777 21.5908V34.1422H159.429V19.5948H161.227Z" fill="#EFEFE5"/>
<path d="M178.436 19.6127H179.874V34.1242H178.436V19.6127Z" fill="#EFEFE5"/>
<path d="M0.0541992 33.9619H17.1191V11.1787H2.98527C1.36689 11.1787 0.0541992 12.4914 0.0541992 14.1098V33.9619Z" fill="#EFEFE5"/>
<path d="M2.98527 39.6448H7.60665L8.79346 31.0674L0.0541992 33.9445V36.7137C0.0541992 38.3321 1.36689 39.6448 2.98527 39.6448Z" fill="#5F5F5C"/>
<path d="M8.43382 28.2979H0.0541992V33.9802H5.73652L8.43382 28.2979Z" fill="#5F5F5C"/>
<path d="M11.4011 31.8398L5.71875 33.9797V39.644L13.0374 39.662L11.4011 31.8398Z" fill="#5F5F5C"/>
<path d="M11.4007 31.1395L12.4796 26.8418L5.73633 28.2983V33.9807H12.5875L13.9361 30.8698L11.4007 31.1395Z" fill="#636360"/>
<path d="M11.8859 33.9797H11.4004V39.6261V39.6621H18.4493L17.1187 39.6261L17.9099 39.2125L18.791 32.5771L11.8859 33.9797Z" fill="#636360"/>
<path d="M11.8859 28.2983H11.4004V31.1395V33.9807H11.8859H17.1187L18.8989 26.8418L11.8859 28.2983Z" fill="#676764"/>
<path d="M11.4007 22.5977H5.73633V28.298H14.5655L11.4007 22.5977Z" fill="#696966"/>
<path d="M11.9039 22.5966H11.4004V28.2969H11.8859H17.1187L19.3484 27.9912L20.823 24.7005L19.4743 19.4678L11.9039 22.5966Z" fill="#71716D"/>
<path d="M17.1191 33.9804V39.2132V39.6807H19.4029C19.6007 39.6987 19.7805 39.6987 19.9783 39.6987C20.1761 39.6987 20.3559 39.6987 20.5537 39.6807C21.3449 39.6268 22.1181 39.4649 22.8374 39.2132L25.211 31.6787L17.1191 33.9804Z" fill="#696966"/>
<path d="M22.8193 39.2127C25.2649 38.3496 27.189 36.4075 28.0521 33.98L22.8193 32.002V39.2127Z" fill="#71716D"/>
<path d="M17.1191 28.298V33.9803H22.8194L25.1931 26.0322L17.1191 28.298Z" fill="#71716D"/>
<path d="M22.8193 33.9804H28.0521C28.3578 33.0993 28.5376 32.1462 28.5376 31.1392C28.5376 30.1502 28.3758 29.1972 28.0521 28.2981L22.8193 26.6797V33.9804Z" fill="#868681"/>
<path d="M20.4636 21.3747C20.2658 21.3567 20.122 21.6085 19.9242 21.6085H19.4566C19.2588 21.6085 19.1509 21.9142 18.9711 21.9322C18.5755 21.9501 17.8742 21.8243 18.2698 21.8063L17.083 22.5436V23.0111V27.7404V28.2439H22.7833V27.7404L26.1819 24.072L24.1679 20.1699L20.4636 21.3747Z" fill="#868681"/>
<path d="M11.8859 16.8965H11.4004V19.7197V22.5968H11.9039H19.7261L17.1187 16.8965H11.8859Z" fill="#868681"/>
<path d="M26.3438 25.4394C27.0811 24.6122 27.6565 23.6592 28.0341 22.5982L22.8193 20.2246V23.0658V27.795V28.2985H28.0521C27.6745 27.2376 27.0811 26.2666 26.3438 25.4394Z" fill="#90908C"/>
<path d="M24.9773 22.5978L22.8194 14.416L17.1191 16.8975V22.5978H24.9773Z" fill="#90908C"/>
<path d="M22.8193 22.5968H28.0341C28.3578 21.6977 28.5376 20.7267 28.5376 19.7197C28.5376 18.7307 28.3758 17.7777 28.0521 16.8786L22.8193 15.2422V22.5968Z" fill="#9F9F99"/>
<path d="M20.5356 11.1791C20.3378 11.1611 20.158 11.1611 19.9602 11.1611C19.7624 11.1611 19.5826 11.1611 19.3848 11.1791H17.1011V11.6466V16.8794H25.175L22.8014 11.6466C22.1001 11.3949 21.3268 11.2331 20.5356 11.1791Z" fill="#9F9F99"/>
<path d="M28.0521 16.8978C27.189 14.4522 25.2649 12.5282 22.8193 11.665V16.8978H28.0521Z" fill="#A6A6A0"/>
</g>
<path d="M185.631 0.909794L189.627 0.949902C190.741 0.932567 191.438 0.741482 192.147 0.314034C192.528 0.0841084 193.044 0.111667 193.387 0.454654C193.779 0.847446 193.83 1.4777 193.422 1.88583C193.015 2.29396 184.006 11.3174 184.006 11.3174C183.998 11.3256 183.998 11.3389 184.006 11.3471L184.652 11.9939C184.66 12.002 184.673 12.002 184.681 11.9939L194.098 2.56226C194.926 1.73215 196.257 2.86851 195.662 3.84248C195.218 4.57154 195.014 5.29416 195.014 6.49906L195.07 10.3662C195.07 10.3775 195.079 10.3867 195.091 10.3868L195.958 10.3994C195.97 10.3996 195.98 10.3899 195.979 10.378L196 0.0205303C196 0.00927304 195.991 0.000206733 195.979 3.487e-06L185.619 3.487e-06C185.607 -0.000210082 185.598 0.00941442 185.598 0.0212488L185.611 0.889151C185.611 0.900519 185.62 0.90968 185.631 0.909794Z" fill="#EFEFE5"/>
<defs>
<clipPath id="clip0_311_23774">
<rect width="180" height="28.7712" fill="white" transform="translate(0 11)"/>
</clipPath>
</defs>
</svg>
