<svg width="117" height="50" viewBox="0 0 117 50" fill="none" xmlns="http://www.w3.org/2000/svg">
<path d="M106.631 0.909794L110.627 0.949902C111.741 0.932567 112.438 0.741482 113.147 0.314034C113.528 0.0841084 114.044 0.111667 114.387 0.454654C114.779 0.847446 114.83 1.4777 114.422 1.88583C114.015 2.29396 105.006 11.3174 105.006 11.3174C104.998 11.3256 104.998 11.3389 105.006 11.3471L105.652 11.9939C105.66 12.002 105.673 12.002 105.681 11.9939L115.098 2.56226C115.926 1.73215 117.257 2.86851 116.662 3.84248C116.218 4.57154 116.014 5.29416 116.014 6.49906L116.07 10.3662C116.07 10.3775 116.079 10.3867 116.091 10.3868L116.958 10.3994C116.97 10.3996 116.98 10.3899 116.979 10.378L117 0.0205303C117 0.00927304 116.991 0.000206733 116.979 3.487e-06L106.619 3.487e-06C106.607 -0.000210082 106.598 0.00941442 106.598 0.0212488L106.611 0.889151C106.611 0.900519 106.62 0.90968 106.631 0.909794Z" fill="#EFEFE5"/>
<g opacity="0.8">
<g opacity="0.8">
<path fill-rule="evenodd" clip-rule="evenodd" d="M31.9785 23.3715H34.1802L35.1355 21.2H40.3036L41.2789 23.3519H43.4305L39.1404 13.1133H36.2669L31.9785 23.3715ZM35.9346 19.3008H39.4351L37.7662 14.8438L35.9346 19.3008Z" fill="#EFEFE5"/>
<path d="M46.7922 23.375H44.5358L44.5347 13.0898H46.9715L50.8112 21.1955L54.5819 13.0898H57.0717V23.375H54.795V17.5761L52.0361 23.375H49.557L46.7922 17.5949V23.375Z" fill="#EFEFE5"/>
<path d="M57.6528 26.7471H55.2676L59.1813 33.1475V37.0498H61.2812V33.1475L65.2688 26.7471H62.8167L60.2404 31.1987L57.6528 26.7471Z" fill="#EFEFE5"/>
<path d="M88.0781 26.7627H77.7275V28.8535H81.8574V37.126H83.9482V28.8535H88.0781V26.7627Z" fill="#EFEFE5"/>
<path fill-rule="evenodd" clip-rule="evenodd" d="M92.1979 26.7627C90.8724 26.7627 89.7979 27.8372 89.7979 29.1627V34.726C89.7979 36.0515 90.8724 37.126 92.1979 37.126H98.6C99.9255 37.126 101 36.0515 101 34.726V29.1627C101 27.8372 99.9255 26.7627 98.6 26.7627H92.1979ZM92.535 28.8623C92.1484 28.8623 91.835 29.1757 91.835 29.5623V34.3264C91.835 34.713 92.1484 35.0264 92.535 35.0264H98.1984C98.585 35.0264 98.8984 34.713 98.8984 34.3264V29.5623C98.8984 29.1757 98.585 28.8623 98.1984 28.8623H92.535Z" fill="#EFEFE5"/>
<path fill-rule="evenodd" clip-rule="evenodd" d="M66.1958 26.7627H73.8096C74.3242 26.7627 74.7974 26.9395 75.1719 27.2354C75.6821 27.6387 76.0098 28.2627 76.0098 28.9629V31.8496C76.0098 33.0645 75.0249 34.0498 73.8096 34.0498H68.4038V37.0498H66.1958V26.7627ZM68.4062 28.8623H73.3672C73.6982 28.8623 73.9668 29.1309 73.9668 29.4619V31.4307C73.9668 31.6562 73.8418 31.8535 73.6572 31.9551C73.5713 32.0029 73.4727 32.0303 73.3672 32.0303H68.4062V28.8623Z" fill="#EFEFE5"/>
<path fill-rule="evenodd" clip-rule="evenodd" d="M66.8764 13.0967H58.8481V23.3838L66.8764 23.3839C68.0917 23.3839 69.0766 22.3986 69.0766 21.1837V19.5518C69.0766 19.0606 68.9153 18.6069 68.6429 18.2406C68.9154 17.8742 69.0766 17.4203 69.0766 16.9289V15.2969C69.0766 14.5967 68.7489 13.9727 68.2387 13.5693C67.8642 13.2734 67.391 13.0967 66.8764 13.0967ZM61.0586 19.129H66.5802C66.8406 19.1944 67.0336 19.4301 67.0336 19.7107V20.6531C67.0336 20.8786 66.9086 21.0759 66.724 21.1775C66.6381 21.2253 66.5395 21.2527 66.434 21.2527H61.0586V19.129ZM66.434 14.9752H61.0586V17.1095H66.434C66.5395 17.1095 66.6381 17.0822 66.724 17.0343C66.9086 16.9328 67.0336 16.7355 67.0336 16.5099V15.5748C67.0336 15.2438 66.765 14.9752 66.434 14.9752Z" fill="#EFEFE5"/>
<path fill-rule="evenodd" clip-rule="evenodd" d="M52.0952 26.7559H44.1602V37.043H46.3682V34.043H49.6701L51.6139 37.0502H54.0219L52.0117 34.043H52.0952C53.3106 34.043 54.2954 33.0576 54.2954 31.8428V28.9561C54.2954 28.2559 53.9678 27.6318 53.4575 27.2285C53.083 26.9326 52.6099 26.7559 52.0952 26.7559ZM51.6529 28.8555H46.3706V32.0234H51.6529C51.7583 32.0234 51.857 31.9961 51.9429 31.9482C52.1275 31.8467 52.2525 31.6494 52.2525 31.4238V29.4551C52.2525 29.124 51.9839 28.8555 51.6529 28.8555Z" fill="#EFEFE5"/>
<path d="M31.9785 29.1627C31.9785 27.8372 33.053 26.7627 34.3785 26.7627H40.1276C41.4531 26.7627 42.5276 27.8372 42.5276 29.1627V29.999H40.4261V29.5623C40.4261 29.1757 40.1127 28.8623 39.7261 28.8623H34.7156C34.329 28.8623 34.0156 29.1757 34.0156 29.5623V34.3264C34.0156 34.713 34.329 35.0264 34.7156 35.0264H39.7261C40.1127 35.0264 40.4261 34.713 40.4261 34.3264V33.8857H42.5276V34.726C42.5276 36.0515 41.4531 37.126 40.1276 37.126H34.3785C33.053 37.126 31.9785 36.0515 31.9785 34.726V29.1627Z" fill="#EFEFE5"/>
</g>
<path d="M0 13.0898H23.9966V37.0869H15.998V29.126H7.99805V37.0869H0V29.0869H8V21.0869H0V13.0898Z" fill="#D9D9D9"/>
</g>
</svg>
