<svg width="123" height="50" viewBox="0 0 123 50" fill="none" xmlns="http://www.w3.org/2000/svg">
<g opacity="0.8">
<path d="M17.0679 19.1934H16.5519L15.7117 17.9993C14.2927 15.9981 13.2276 15.3531 10.3565 15.3531H9.96951C8.55046 15.3531 7.58131 15.5152 6.8073 15.674V24.7736L8.9706 24.7107C12.3577 24.6148 12.9696 24.0987 13.2607 22.1935L13.3897 21.3236H13.9718C13.9718 22.0016 13.909 24.0326 13.909 25.2267C13.909 26.4539 13.9718 28.4517 13.9718 29.1298H13.3897L13.2938 28.5179C12.9696 26.5167 12.4536 25.9048 8.9706 25.8089L6.8073 25.7427V31.0649C6.8073 35.097 7.16123 35.5799 9.22858 35.9372L10.3896 36.129V36.6119C9.77763 36.6119 6.19537 36.549 5.00128 36.549C3.80719 36.549 0.678084 36.6152 0 36.6152V36.1323L1.12794 35.9405C2.70903 35.6825 3.00011 34.8754 3.00011 31.0681V20.0303C3.00011 16.2231 2.70903 15.416 1.12794 15.158L0 14.9661V14.4832C0.678084 14.4832 4.93513 14.5494 6.12922 14.5494C7.32331 14.5494 12.8075 14.5163 13.4525 14.5163H16.0987L17.0679 19.1934Z" fill="#EFEFE5"/>
<path d="M25.6481 36.6152C24.8741 36.6152 23.0978 36.5821 21.7119 36.5821C20.2929 36.5821 18.3876 36.6152 17.6467 36.6152V36.1323L18.2586 36.0364C19.5817 35.8412 19.8398 35.3583 19.8398 32.2622V25.5476C19.8398 23.8706 19.5817 23.3843 18.4207 22.8683L17.6137 22.5144V22.1273L23.0019 20.9664L23.422 21.2243V32.2589C23.422 35.3549 23.68 35.8082 25.0361 36.0331L25.6481 36.129V36.6152ZM21.3249 18.3202C20.0349 18.3202 19.0657 17.4172 19.0657 16.19C19.0657 14.9959 20.0349 14.0598 21.3249 14.0598C22.648 14.0598 23.6172 14.9959 23.6172 16.19C23.6139 17.4172 22.648 18.3202 21.3249 18.3202Z" fill="#EFEFE5"/>
<path d="M44.231 36.6152C43.5198 36.6152 41.6807 36.5821 40.2948 36.5821C38.9387 36.5821 37.0995 36.6152 36.3255 36.6152V36.1323L36.8416 36.0364C38.2274 35.7784 38.4855 35.3583 38.4855 32.5203V26.4208C38.4855 24.0657 37.4534 22.9047 35.6474 22.9047C34.3905 22.9047 33.3254 23.3876 32.3893 24.0987V32.5203C32.3893 35.3583 32.6143 35.7784 34.0333 36.0364L34.5493 36.1323V36.6152C33.7753 36.6152 31.9693 36.5821 30.58 36.5821C29.1908 36.5821 27.355 36.6152 26.6107 36.6152V36.1323L27.2226 36.0364C28.5126 35.8412 28.7707 35.3583 28.7707 32.2622V25.5145C28.7707 23.8375 28.4796 23.3843 27.3516 22.8352L26.5776 22.4482V22.0943L31.966 20.9002L32.386 21.1912V23.3545C34.0961 21.9025 35.6772 20.9333 37.6784 20.9333C40.5495 20.9333 42.0975 22.4813 42.0975 25.7394V32.2557C42.0975 35.4178 42.3555 35.8048 43.6786 36.0298L44.2277 36.1257V36.6152H44.231Z" fill="#EFEFE5"/>
<path d="M52.8111 36.7442C50.939 36.7442 49.2951 36.291 48.1638 35.8082L46.8738 37.0023H46.4867V17.6123C46.4867 15.9353 46.1957 15.4524 45.1009 14.9331L44.2938 14.5461V14.1921L49.6787 12.998L50.0988 13.2891V23.1296C51.4848 21.8066 52.7119 20.9366 54.8421 20.9366C58.5832 20.9366 61.1003 23.9367 61.1003 28.0349C61.1003 33.5159 57.5842 36.7442 52.8111 36.7442ZM52.7119 22.9345C51.6138 22.9345 50.939 23.1924 50.0988 23.8044V31.4816C50.0988 34.4817 51.4848 35.9008 53.552 35.9008C56.0693 35.9008 57.6503 33.8996 57.6503 30.1255C57.6503 25.8056 55.6491 22.9345 52.7119 22.9345Z" fill="#EFEFE5"/>
<path d="M71.0037 36.9361C66.5185 36.9361 63.1975 34.0981 63.1975 28.7726C63.1975 24.2873 66.4225 20.8374 71.0368 20.8374C75.489 20.8374 78.843 23.6754 78.843 29.0009C78.843 33.4861 75.5849 36.9361 71.0037 36.9361ZM70.5837 21.6445C68.3906 21.6445 67.1303 23.3215 67.1303 27.8696C67.1303 32.8709 68.7446 36.129 71.4205 36.129C73.6466 36.129 74.8738 34.452 74.8738 29.9039C74.877 24.9026 73.296 21.6445 70.5837 21.6445Z" fill="#EFEFE5"/>
<path d="M88.2637 36.6152C87.5228 36.6152 85.7462 36.5821 84.3603 36.5821C82.9413 36.5821 81.036 36.6152 80.295 36.6152V36.1323L80.907 36.0364C82.197 35.8412 82.455 35.3583 82.455 32.2622V17.6123C82.455 15.9353 82.1639 15.4524 81.0691 14.9331L80.2619 14.5461V14.1921L85.6502 12.998L86.0704 13.2891V32.2589C86.0704 35.3549 86.328 35.8412 87.6516 36.0331L88.2637 36.129V36.6152Z" fill="#EFEFE5"/>
<path d="M106.555 36.6152C105.232 36.6152 102.427 36.6152 101.071 36.6814L100.78 34.6505C99.3937 35.9735 98.1998 36.8435 96.0696 36.8435C92.3287 36.8435 89.7784 33.8434 89.7784 29.7451C89.7784 24.2609 93.2944 21.0325 98.1004 21.0325C99.1327 21.0325 100.069 21.1284 100.78 21.2905V17.7413C100.78 16.0643 100.426 15.5152 99.232 14.9331L98.4574 14.5461V14.1921L103.975 12.998L104.395 13.2891V32.2589C104.395 35.4211 104.653 35.8082 106.009 36.0331L106.558 36.129V36.6152H106.555ZM100.78 26.2918C100.78 23.2917 99.424 21.8396 97.3595 21.8396C94.8428 21.8396 93.2616 23.8706 93.2616 27.648C93.2616 31.9712 95.2621 34.8423 98.1964 34.8423C99.2615 34.8423 99.9696 34.5843 100.776 33.9723V26.2918H100.78Z" fill="#EFEFE5"/>
</g>
<path d="M112.631 0.909794L116.627 0.949902C117.741 0.932567 118.438 0.741482 119.147 0.314034C119.528 0.0841084 120.044 0.111667 120.387 0.454654C120.779 0.847446 120.83 1.4777 120.422 1.88583C120.015 2.29396 111.006 11.3174 111.006 11.3174C110.998 11.3256 110.998 11.3389 111.006 11.3471L111.652 11.9939C111.66 12.002 111.673 12.002 111.681 11.9939L121.098 2.56226C121.926 1.73215 123.257 2.86851 122.662 3.84248C122.218 4.57154 122.014 5.29416 122.014 6.49906L122.07 10.3662C122.07 10.3775 122.079 10.3867 122.091 10.3868L122.958 10.3994C122.97 10.3996 122.98 10.3899 122.979 10.378L123 0.0205303C123 0.00927304 122.991 0.000206733 122.979 3.487e-06L112.619 3.487e-06C112.607 -0.000210082 112.598 0.00941442 112.598 0.0212488L112.611 0.889151C112.611 0.900519 112.62 0.90968 112.631 0.909794Z" fill="#EFEFE5"/>
</svg>
