<svg width="162" height="50" viewBox="0 0 162 50" fill="none" xmlns="http://www.w3.org/2000/svg">
<g clip-path="url(#clip0_311_23849)">
<g opacity="0.8" clip-path="url(#clip1_311_23849)">
<path d="M42.3979 30.5709C41.4396 30.0647 40.6637 29.3284 40.116 28.362C39.5683 27.4417 39.2944 26.3832 39.2944 25.1868C39.2944 23.9904 39.5683 22.932 40.116 22.0117C40.6637 21.0914 41.4396 20.3551 42.3979 19.8029C43.3564 19.2967 44.4517 19.0205 45.684 19.0205C46.6881 19.0205 47.6465 19.2046 48.4681 19.5728C49.2895 19.9409 49.9741 20.4471 50.5675 21.1373L48.8331 22.7479C48.0573 21.8276 47.0532 21.3675 45.8666 21.3675C45.1363 21.3675 44.4973 21.5515 43.9041 21.8736C43.3108 22.1957 42.9 22.6559 42.5806 23.2081C42.261 23.8064 42.0785 24.4506 42.0785 25.1868C42.0785 25.9231 42.261 26.5674 42.5806 27.1656C42.9 27.7638 43.3564 28.1779 43.9041 28.5001C44.4973 28.8222 45.1363 29.0063 45.8666 29.0063C47.0532 29.0063 48.0573 28.5461 48.8331 27.5798L50.5675 29.1903C50.0198 29.8806 49.2895 30.3867 48.4681 30.7549C47.6465 31.123 46.6881 31.3072 45.684 31.3072C44.4973 31.3531 43.4021 31.077 42.3979 30.5709Z" fill="#EFEFE5"/>
<path d="M55.5881 22.1961C56.1357 21.9661 56.729 21.874 57.4136 21.874V24.3129C57.1398 24.3129 56.9117 24.2669 56.8203 24.2669C56.0445 24.2669 55.4968 24.497 55.0404 24.9111C54.6296 25.3253 54.4015 25.9696 54.4015 26.8438V31.1695H51.7544V22.0121H54.2646V23.2085C54.6296 22.7484 55.0404 22.4262 55.5881 22.1961Z" fill="#EFEFE5"/>
<path d="M67.8645 22.0117L63.757 31.7214C63.3463 32.7798 62.8442 33.516 62.2053 33.9302C61.612 34.3443 60.8361 34.5745 59.9689 34.5745C59.5126 34.5745 59.0105 34.4824 58.5541 34.3443C58.0977 34.2063 57.7326 33.9762 57.4131 33.7461L58.3716 31.8594C58.5541 32.0435 58.828 32.1815 59.0561 32.2736C59.3299 32.3656 59.6038 32.4116 59.832 32.4116C60.1972 32.4116 60.471 32.3196 60.6991 32.1355C60.9274 31.9514 61.1099 31.6753 61.2924 31.2612L61.4751 31.2152L57.5501 22.0117H60.2428L62.7986 28.224L65.3544 22.0117H67.8645Z" fill="#EFEFE5"/>
<path d="M76.2173 22.4262C76.9019 22.8403 77.4495 23.3465 77.8603 24.0828C78.271 24.7731 78.4536 25.6014 78.4536 26.5677C78.4536 27.5341 78.271 28.3164 77.8603 29.0527C77.4495 29.743 76.9475 30.2951 76.2173 30.7093C75.5327 31.0774 74.7568 31.3075 73.9353 31.3075C72.7943 31.3075 71.8815 30.9394 71.1969 30.2031V34.4367H68.5498V22.0121H71.06V23.0704C71.6989 22.2882 72.6574 21.874 73.8896 21.874C74.7568 21.874 75.487 22.0581 76.2173 22.4262ZM75.1219 28.4085C75.5327 27.9483 75.7608 27.35 75.7608 26.5677C75.7608 25.7855 75.5327 25.1873 75.1219 24.7271C74.7112 24.2669 74.1179 24.0369 73.4789 24.0369C72.7943 24.0369 72.2466 24.2669 71.8358 24.7271C71.4251 25.1873 71.1969 25.7855 71.1969 26.5677C71.1969 27.35 71.4251 27.9483 71.8358 28.4085C72.2466 28.8686 72.84 29.0987 73.4789 29.0987C74.1179 29.0987 74.6656 28.8686 75.1219 28.4085Z" fill="#EFEFE5"/>
<path d="M85.6189 30.7093C85.345 30.8934 85.0256 31.0315 84.6604 31.1235C84.2953 31.2155 83.8845 31.2616 83.4738 31.2616C82.3785 31.2616 81.557 30.9855 80.9637 30.4332C80.3703 29.881 80.0964 29.0527 80.0964 27.9943V24.2209H78.6816V22.1961H80.0964V19.9873H82.7435V22.1961H84.9799V24.2209H82.7435V27.9483C82.7435 28.3164 82.8349 28.6385 83.0174 28.8226C83.2 29.0527 83.4738 29.1447 83.8389 29.1447C84.2497 29.1447 84.6148 29.0527 84.8887 28.8226L85.6189 30.7093Z" fill="#EFEFE5"/>
<path d="M88.1285 30.6633C87.3533 30.2492 86.7595 29.697 86.349 29.0067C85.9382 28.2704 85.71 27.4881 85.71 26.5677C85.71 25.6474 85.9382 24.8651 86.349 24.1288C86.7595 23.3926 87.3533 22.8403 88.1285 22.4723C88.9046 22.0581 89.7266 21.874 90.6851 21.874C91.6435 21.874 92.5104 22.0581 93.2407 22.4723C94.0159 22.8864 94.5639 23.4386 95.0202 24.1288C95.4316 24.8651 95.6598 25.6474 95.6598 26.5677C95.6598 27.4881 95.4316 28.2704 95.0202 29.0067C94.6097 29.743 94.0159 30.2951 93.2407 30.6633C92.5104 31.0774 91.6435 31.2615 90.6851 31.2615C89.7266 31.2615 88.8588 31.0774 88.1285 30.6633ZM92.328 28.4085C92.7385 27.9483 92.9667 27.35 92.9667 26.5677C92.9667 25.7855 92.7385 25.1873 92.328 24.7271C91.9166 24.2669 91.3237 24.0369 90.6851 24.0369C89.9997 24.0369 89.4526 24.2669 88.9963 24.7271C88.5399 25.1873 88.3567 25.7855 88.3567 26.5677C88.3567 27.35 88.5849 27.9483 88.9963 28.4085C89.4526 28.8686 89.9997 29.0987 90.6851 29.0987C91.3696 29.0987 91.9166 28.8686 92.328 28.4085Z" fill="#EFEFE5"/>
<path d="M111.177 19.251V31.1694H108.94L103.053 23.9447V31.1694H100.36V19.251H102.596L108.484 26.4757V19.251H111.177Z" fill="#EFEFE5"/>
<path d="M122.221 27.3033H115.375C115.513 27.8555 115.787 28.3157 116.243 28.6378C116.699 28.96 117.292 29.144 117.977 29.144C118.433 29.144 118.89 29.0519 119.255 28.9139C119.62 28.7758 119.94 28.5457 120.259 28.2237L121.674 29.7422C120.806 30.7086 119.575 31.2148 117.931 31.2148C116.928 31.2148 116.015 31.0307 115.239 30.6165C114.463 30.2024 113.824 29.6502 113.413 28.96C113.002 28.2237 112.774 27.4414 112.774 26.521C112.774 25.6467 113.002 24.8184 113.413 24.0821C113.824 23.3458 114.417 22.7936 115.147 22.3795C115.878 21.9653 116.699 21.7812 117.612 21.7812C118.479 21.7812 119.301 21.9653 120.031 22.3795C120.762 22.7476 121.309 23.2998 121.719 24.036C122.131 24.7723 122.313 25.6007 122.313 26.521C122.267 26.6591 122.267 26.8892 122.221 27.3033ZM116.06 24.3582C115.649 24.6803 115.421 25.1405 115.33 25.7388H119.803C119.711 25.1405 119.483 24.6803 119.073 24.3582C118.661 24.036 118.16 23.852 117.566 23.852C116.973 23.852 116.471 24.036 116.06 24.3582Z" fill="#EFEFE5"/>
<path d="M138.013 22.0117L134.727 31.1691H132.216L130.163 25.509L128.064 31.1691H125.553L122.221 22.0117H124.686L126.831 28.178L129.067 22.0117H131.304L133.449 28.178L135.64 22.0117H138.013Z" fill="#EFEFE5"/>
<path d="M139.519 30.9854C138.789 30.8013 138.241 30.5712 137.785 30.2951L138.652 28.4085C139.063 28.6846 139.565 28.8686 140.113 29.0527C140.706 29.2368 141.253 29.2827 141.801 29.2827C142.896 29.2827 143.49 29.0067 143.49 28.4545C143.49 28.1784 143.353 27.9943 143.033 27.9023C142.714 27.8102 142.258 27.6722 141.618 27.6261C140.889 27.5341 140.249 27.3961 139.793 27.212C139.291 27.0739 138.88 26.7978 138.515 26.4297C138.15 26.0615 137.968 25.5094 137.968 24.8191C137.968 24.2209 138.15 23.7147 138.47 23.3006C138.789 22.8864 139.291 22.5183 139.93 22.2422C140.569 22.0121 141.299 21.874 142.166 21.874C142.805 21.874 143.444 21.9661 144.083 22.1041C144.722 22.2422 145.224 22.4262 145.68 22.7023L144.813 24.589C144.037 24.1288 143.125 23.8988 142.212 23.8988C141.664 23.8988 141.208 23.9908 140.934 24.1288C140.661 24.2669 140.523 24.497 140.523 24.7271C140.523 25.0032 140.661 25.1873 140.979 25.3253C141.299 25.4173 141.756 25.5553 142.44 25.6474C143.17 25.7855 143.809 25.9235 144.265 26.0615C144.722 26.1996 145.133 26.4758 145.498 26.8438C145.863 27.212 146 27.7182 146 28.4085C146 28.9607 145.818 29.4669 145.498 29.927C145.178 30.3872 144.677 30.7093 144.037 30.9394C143.399 31.1695 142.622 31.3075 141.756 31.3075C140.979 31.2615 140.249 31.1695 139.519 30.9854Z" fill="#EFEFE5"/>
<path d="M0.954814 16.363C0.65988 16.5333 0.414992 16.7782 0.24481 17.0732C0.0746188 17.3682 -0.0148683 17.7028 -0.014648 18.0434V29.8482L5.58237 26.6167V21.2749C5.58215 20.9344 5.67164 20.5998 5.84183 20.3047C6.01201 20.0098 6.2569 19.7648 6.55183 19.5945L11.1761 16.922V10.459L0.954814 16.363Z" fill="#EFEFE5"/>
<path d="M16.7738 10.459V16.9221L14.9447 15.8654C14.65 15.6952 14.3156 15.6056 13.9753 15.6056C13.6349 15.6056 13.3006 15.6952 13.0058 15.8654L11.1768 16.9221V10.459L13.0058 9.40234C13.3006 9.23216 13.6349 9.14258 13.9753 9.14258C14.3156 9.14258 14.65 9.23216 14.9447 9.40234L16.7738 10.459Z" fill="#EFEFE5"/>
<path d="M27.9674 16.922V16.9253L22.3704 20.1536L16.7734 16.922V10.459L27.9674 16.922Z" fill="#EFEFE5"/>
<path opacity="0.3" d="M13.975 25.004V31.4671L8.37793 28.2356V21.7725L13.975 25.004Z" fill="#EFEFE5"/>
<path opacity="0.6" d="M19.572 21.7729L13.975 25.0045L8.37793 21.7729L13.975 18.5381L19.572 21.7729Z" fill="#EFEFE5"/>
<path d="M22.3703 29.8516L14.9378 34.1399C14.643 34.31 14.3087 34.3996 13.9683 34.3996C13.628 34.3996 13.2937 34.31 12.9989 34.1399L8.37777 31.4673L2.78076 34.6989L13.0053 40.6029C13.3001 40.7731 13.6344 40.8627 13.9748 40.8627C14.3151 40.8627 14.6495 40.7731 14.9442 40.6029L27.9673 33.0831L22.3703 29.8516Z" fill="#EFEFE5"/>
<path d="M19.5717 21.7725V28.2356L13.9746 31.4671V25.004L19.5717 21.7725Z" fill="#EFEFE5"/>
<path d="M8.37799 31.4645L5.57944 33.0803L2.78093 34.696L0.951884 33.6393C0.657425 33.4693 0.412846 33.2249 0.242682 32.9305C0.0725256 32.6361 -0.0172257 32.3021 -0.0175781 31.9622V29.8488L2.78093 28.2329L5.57944 26.6172V28.7274C5.57922 29.068 5.6687 29.4026 5.8389 29.6976C6.00908 29.9926 6.25397 30.2375 6.5489 30.4078L8.37799 31.4645Z" fill="#EFEFE5"/>
</g>
<path d="M151.631 0.909794L155.627 0.949902C156.741 0.932567 157.438 0.741482 158.147 0.314034C158.528 0.0841084 159.044 0.111667 159.387 0.454654C159.779 0.847446 159.83 1.4777 159.422 1.88583C159.015 2.29396 150.006 11.3174 150.006 11.3174C149.998 11.3256 149.998 11.3389 150.006 11.3471L150.652 11.9939C150.66 12.002 150.673 12.002 150.681 11.9939L160.098 2.56226C160.926 1.73215 162.257 2.86851 161.662 3.84248C161.218 4.57154 161.014 5.29416 161.014 6.49906L161.07 10.3662C161.07 10.3775 161.079 10.3867 161.091 10.3868L161.958 10.3994C161.97 10.3996 161.98 10.3899 161.979 10.378L162 0.0205303C162 0.00927304 161.991 0.000206733 161.979 3.487e-06L151.619 3.487e-06C151.607 -0.000210082 151.598 0.00941442 151.598 0.0212488L151.611 0.889151C151.611 0.900519 151.62 0.90968 151.631 0.909794Z" fill="#EFEFE5"/>
</g>
<defs>
<clipPath id="clip0_311_23849">
<rect width="162" height="50" fill="white"/>
</clipPath>
<clipPath id="clip1_311_23849">
<rect width="148" height="31.7143" fill="white" transform="translate(-2 9.14258)"/>
</clipPath>
</defs>
</svg>
