<svg width="150" height="50" viewBox="0 0 150 50" fill="none" xmlns="http://www.w3.org/2000/svg">
<g opacity="0.8">
<path d="M2.86572 29.5304C5.61097 35.2435 10.2111 38.842 14.4526 41.0926C14.465 41.1049 14.8236 41.2904 14.8236 41.2904C14.8236 41.2904 15.1822 41.1049 15.1946 41.0926C22.3792 37.3086 30.5779 29.6169 29.0692 14.4439L25.9035 13.0713C25.31 17.7704 22.4163 21.7275 18.385 24.5964C17.8409 24.9797 17.2721 25.3507 16.6785 25.6969L17.2473 29.9756C17.3215 30.5444 16.7774 31.0267 16.2086 31.0267H13.3273C12.7585 31.0267 12.202 30.5444 12.2886 29.9756L12.5854 27.6755C9.8154 28.739 6.8352 29.3696 3.87973 29.518C3.53349 29.518 3.1996 29.5304 2.86572 29.5304Z" fill="#EFEFE5"/>
<path d="M0.578032 14.4434C0.0339297 19.9957 0.775888 24.5463 2.30927 28.2809C2.81627 28.2932 3.31091 28.2809 3.81792 28.2561C6.87231 28.1077 9.95144 27.4029 12.7832 26.2405L13.0182 24.4351C12.1278 23.8415 11.5343 22.8275 11.5343 21.6774C11.5343 19.8596 13.0182 18.3757 14.836 18.3757C16.6538 18.3757 18.1377 19.8596 18.1377 21.6774C18.1377 22.4565 17.8657 23.1861 17.3958 23.7549C17.4823 23.6931 17.5689 23.6313 17.6554 23.5694C21.3652 20.9355 24.0363 17.3246 24.6422 13.0955C21.1674 14.0105 18.0017 12.811 16.0479 10.2266H14.8978H14.7865H13.6365C11.5343 13.0089 8.03471 14.1837 4.26309 12.8605L0.578032 14.4434Z" fill="#EFEFE5" fill-opacity="0.6"/>
<path d="M27.3751 8.58203C27.5853 8.58203 27.7832 8.6686 27.9192 8.80462C28.0552 8.94065 28.1418 9.1385 28.1418 9.34872C28.1418 9.55894 28.0552 9.7568 27.9192 9.89282C27.7832 10.0288 27.5853 10.1154 27.3751 10.1154C27.1649 10.1154 26.967 10.0288 26.831 9.89282C26.695 9.7568 26.6084 9.55894 26.6084 9.34872C26.6084 9.1385 26.695 8.94065 26.831 8.80462C26.967 8.68096 27.1649 8.58203 27.3751 8.58203ZM27.0907 9.84336V8.84172H27.4493C27.5235 8.84172 27.5729 8.85408 27.6224 8.86645C27.6595 8.87882 27.6842 8.91591 27.709 8.95301C27.7337 9.00247 27.7461 9.05194 27.7461 9.1014C27.7461 9.1756 27.7213 9.23743 27.6842 9.28689C27.6471 9.33636 27.5853 9.36109 27.5111 9.37345C27.5482 9.38582 27.5729 9.41055 27.5853 9.42292C27.6224 9.46002 27.6471 9.50948 27.6719 9.54658L27.8203 9.83099C27.8326 9.81863 27.845 9.81863 27.8574 9.80626C27.981 9.6826 28.0552 9.52185 28.0552 9.33636C28.0552 9.15087 27.981 8.99011 27.8574 8.86645C27.7337 8.74279 27.5729 8.66859 27.3875 8.66859C27.202 8.66859 27.0412 8.74279 26.9175 8.86645C26.7939 8.99011 26.7197 9.15087 26.7197 9.33636C26.7197 9.52185 26.7939 9.6826 26.9175 9.80626C27.0412 9.92992 27.202 10.0041 27.3875 10.0041C27.5111 10.0041 27.6224 9.96702 27.7213 9.91756L27.5729 9.62077C27.5358 9.53421 27.4987 9.48475 27.474 9.46002C27.4493 9.43528 27.4369 9.41055 27.4122 9.39819C27.3875 9.38582 27.3627 9.38582 27.3256 9.38582H27.202V9.83099H27.0907V9.84336ZM27.1896 9.28689H27.4245C27.474 9.28689 27.5111 9.27453 27.5358 9.27453C27.5606 9.26216 27.5853 9.23743 27.5977 9.2127C27.61 9.18796 27.6224 9.15086 27.6224 9.12613C27.6224 9.07667 27.61 9.03957 27.5729 9.01484C27.5482 8.97774 27.4987 8.96538 27.4493 8.96538H27.1896V9.28689Z" fill="#EFEFE5" fill-opacity="0.6"/>
<path d="M46.3194 22.0747C46.171 20.1209 44.5635 17.388 40.594 17.388C37.181 17.388 34.4976 19.7499 34.4976 24.3872C34.4976 28.9626 37.0326 31.3492 40.5569 31.3492C43.8833 31.3492 45.7629 29.3336 46.3194 26.4523H43.5494C43.2156 28.0846 42.1521 28.9502 40.6187 28.9502C38.2692 28.9502 37.3294 26.8109 37.3294 24.4243C37.3294 20.6774 39.2832 19.787 40.6187 19.787C42.9064 19.787 43.3269 21.2833 43.5494 22.0747H46.3194ZM88.7965 26.0813C88.7965 22.5323 86.4099 20.9123 83.7759 20.9123C81.142 20.9123 78.7553 22.5323 78.7553 26.0813C78.7553 29.6303 81.142 31.2503 83.7759 31.2503C86.4222 31.2503 88.7965 29.618 88.7965 26.0813ZM86.1378 26.0813C86.1378 27.3303 85.7668 29.0739 83.7759 29.0739C81.785 29.0739 81.414 27.3426 81.414 26.0813C81.414 24.82 81.785 23.0888 83.7759 23.0888C85.7792 23.0888 86.1378 24.82 86.1378 26.0813ZM76.9499 18.501H74.3654V21.1597H73.0423V23.0022H74.3654V28.9626C74.3654 30.2363 74.7735 31.0895 76.9994 31.0895H77.3333C77.7413 31.0895 78.1494 31.0772 78.5575 31.0524V29.0986C78.372 29.111 78.1865 29.1357 78.0257 29.1357C76.9746 29.1357 76.9499 28.9131 76.9499 28.3443V23.0022H78.5575V21.1597H76.9499V18.501ZM47.0737 30.9906H49.6582V25.8711C49.6582 24.7829 50.0292 23.5216 52.0449 23.5216C52.2798 23.5216 52.5642 23.5216 52.7868 23.5587V20.9371C52.6261 20.9247 52.4529 20.9 52.2922 20.9C50.7217 20.9 50.1281 21.8645 49.5964 22.8538H49.5593V21.1597H47.0861V30.9906H47.0737Z" fill="#EFEFE5"/>
<path d="M62.9145 21.1727H60.1816L58.1659 28.4067H58.1288L56.0266 21.1727H53.1453L56.7686 31.3993C56.5213 32.7472 56.0142 32.8832 55.0744 32.8832C54.8518 32.8832 54.6911 32.8585 54.5798 32.8461V34.9112C54.9508 34.9236 55.396 34.9483 55.7422 34.9483C57.9928 34.9483 58.3267 34.4661 59.5509 30.8305L62.9145 21.1727Z" fill="#EFEFE5"/>
<path d="M65.9071 26.3034C65.9071 24.7329 66.3276 23.1501 68.1083 23.1501C69.7529 23.1501 70.3094 24.6093 70.3094 26.155C70.3094 27.3174 69.8519 29.1229 68.1825 29.1229C66.5254 29.1229 65.9071 27.7502 65.9071 26.3034ZM65.9071 21.1715H63.4339V34.8359H66.0061V29.7412H66.0432C66.3523 30.2729 67.0077 31.2498 68.8131 31.2498C71.7315 31.2498 72.9434 28.6653 72.9434 25.9695C72.9434 22.5689 71.0266 20.9119 68.8626 20.9119C67.1314 20.9119 66.4018 21.8146 65.9195 22.5936H65.8824V21.1715H65.9071Z" fill="#EFEFE5"/>
<path d="M89.9956 30.9912H95.7334C100.111 30.9912 101.236 26.8981 101.236 24.0416C101.236 21.5313 100.309 17.7226 95.8447 17.7226H89.9956V30.9912ZM128.837 21.1727H126.104L124.089 28.4068H124.051L121.949 21.1727H119.068L122.691 31.3993C122.456 32.7472 121.937 32.8832 120.997 32.8832C120.774 32.8832 120.614 32.8585 120.49 32.8461V34.9113C120.861 34.9236 121.306 34.9484 121.652 34.9484C123.903 34.9484 124.237 34.4661 125.461 30.8305L128.837 21.1727ZM118.202 17.7349H115.618V30.9912H118.202V17.7349ZM111.475 21.1727V30.9912H114.06V21.1727H111.475ZM114.06 17.5989H111.475V19.9979H114.06V17.5989ZM110.09 23.7448C110.09 21.3211 107.555 20.9006 106.17 20.9006C104.155 20.9006 102.077 21.3211 101.78 24.3384H104.278C104.353 23.7695 104.575 22.9657 105.861 22.9657C106.529 22.9657 107.555 23.0276 107.555 24.1034C107.555 24.6599 107.061 24.8206 106.653 24.8825L104.328 25.2287C102.683 25.4637 101.471 26.4529 101.471 28.3697C101.471 30.3977 102.98 31.2386 104.464 31.2386C106.22 31.2386 107.048 30.4224 107.642 29.8165C107.704 30.3729 107.741 30.5213 107.889 30.9789H110.672V30.6079C110.362 30.4966 110.103 30.2369 110.103 29.0745V23.7448H110.09ZM107.555 27.4669C107.555 28.6664 106.393 29.4084 105.243 29.4084C104.748 29.4084 104.043 29.1364 104.043 28.2213C104.043 27.1454 104.835 26.9105 105.799 26.7497C106.863 26.5766 107.296 26.4158 107.555 26.218V27.4669ZM92.7038 20.0226H95.3625C96.5496 20.0226 98.4045 20.3441 98.4045 24.2518C98.4045 26.4282 97.6501 28.7035 95.3995 28.7035H92.7038V20.0226Z" fill="#EFEFE5" fill-opacity="0.6"/>
<path d="M130.445 16.5102V17.5861C130.445 17.6108 130.433 17.6355 130.42 17.6602C130.408 17.685 130.383 17.685 130.358 17.685H130.185C130.161 17.685 130.136 17.6726 130.111 17.6602C130.086 17.6479 130.086 17.6231 130.086 17.5861V14.8284C130.086 14.8037 130.099 14.779 130.111 14.7542C130.123 14.7295 130.148 14.7295 130.185 14.7295H131.175C131.447 14.7295 131.682 14.8037 131.855 14.9521C132.003 15.1005 132.102 15.3107 132.102 15.5828V15.6446C132.102 15.8424 132.052 16.0156 131.929 16.164C131.83 16.2876 131.682 16.3865 131.496 16.4484L132.065 17.5366C132.077 17.5489 132.077 17.5613 132.09 17.5737C132.09 17.586 132.09 17.5984 132.09 17.6108C132.09 17.6355 132.077 17.6479 132.065 17.6602C132.052 17.6726 132.028 17.685 132.015 17.685H131.78C131.756 17.685 131.731 17.6726 131.719 17.6602C131.706 17.6479 131.694 17.6355 131.682 17.6108L131.113 16.5102H130.445ZM130.989 13.7402C131.682 13.7402 132.312 14.0247 132.77 14.4822C133.227 14.9397 133.512 15.5704 133.512 16.2629C133.512 16.9554 133.227 17.586 132.77 18.0436C132.312 18.5011 131.682 18.7855 130.989 18.7855C130.297 18.7855 129.666 18.5011 129.208 18.0436C128.751 17.586 128.466 16.9554 128.466 16.2629C128.466 15.5704 128.751 14.9397 129.208 14.4822C129.653 14.0247 130.297 13.7402 130.989 13.7402ZM132.522 14.7171C132.127 14.3214 131.583 14.0741 130.977 14.0741C130.371 14.0741 129.827 14.3214 129.431 14.7171C129.035 15.1129 128.788 15.657 128.788 16.2629C128.788 16.8688 129.035 17.4129 129.431 17.8086C129.827 18.2043 130.371 18.4517 130.977 18.4517C131.583 18.4517 132.127 18.2043 132.522 17.8086C132.918 17.4129 133.165 16.8688 133.165 16.2629C133.165 15.657 132.918 15.1129 132.522 14.7171ZM130.445 16.164H131.15C131.311 16.164 131.459 16.1145 131.57 16.0279C131.657 15.9414 131.719 15.8301 131.719 15.6693V15.5951C131.719 15.422 131.657 15.2983 131.57 15.2118C131.459 15.1129 131.311 15.0758 131.15 15.0758H130.445V16.164Z" fill="#EFEFE5" fill-opacity="0.6"/>
</g>
<path d="M139.631 0.909794L143.627 0.949902C144.741 0.932567 145.438 0.741482 146.147 0.314034C146.528 0.0841084 147.044 0.111667 147.387 0.454654C147.779 0.847446 147.83 1.4777 147.422 1.88583C147.015 2.29396 138.006 11.3174 138.006 11.3174C137.998 11.3256 137.998 11.3389 138.006 11.3471L138.652 11.9939C138.66 12.002 138.673 12.002 138.681 11.9939L148.098 2.56226C148.926 1.73215 150.257 2.86851 149.662 3.84248C149.218 4.57154 149.014 5.29416 149.014 6.49906L149.07 10.3662C149.07 10.3775 149.079 10.3867 149.091 10.3868L149.958 10.3994C149.97 10.3996 149.98 10.3899 149.979 10.378L150 0.0205303C150 0.00927304 149.991 0.000206733 149.979 3.487e-06L139.619 3.487e-06C139.607 -0.000210082 139.598 0.00941442 139.598 0.0212488L139.611 0.889151C139.611 0.900519 139.62 0.90968 139.631 0.909794Z" fill="#EFEFE5"/>
</svg>
