<svg width="87" height="53" viewBox="0 0 87 53" fill="none" xmlns="http://www.w3.org/2000/svg">
<g opacity="0.8">
<path fill-rule="evenodd" clip-rule="evenodd" d="M34.7899 0.970703C35.2547 0.970703 35.7196 0.970703 36.1845 0.970703C38.5842 2.35959 40.986 3.74934 43.3899 5.13997C43.6015 5.40619 43.7855 5.69572 43.9419 6.00856C44.118 5.70897 44.3019 5.41944 44.4939 5.13997C46.925 3.76465 49.3462 2.37489 51.7574 0.970703C52.2029 0.970703 52.6484 0.970703 53.0939 0.970703C53.2985 1.01743 53.5116 1.05603 53.7331 1.08652C50.3904 3.05641 47.0299 5.00593 43.6514 6.93507C43.6433 6.82319 43.6724 6.71701 43.7385 6.61658C40.5672 4.75802 37.3906 2.91467 34.2088 1.08652C34.4112 1.05698 34.6049 1.01837 34.7899 0.970703Z" fill="#EFEFE5"/>
<path fill-rule="evenodd" clip-rule="evenodd" d="M36.1845 0.970703C36.2813 0.970703 36.3781 0.970703 36.475 0.970703C39.0704 1.26496 41.2108 2.40379 42.896 4.38718C43.075 4.63234 43.2397 4.88326 43.3899 5.13997C40.986 3.74934 38.5842 2.35959 36.1845 0.970703Z" fill="#EFEFE5"/>
<path fill-rule="evenodd" clip-rule="evenodd" d="M51.4088 0.970703C51.525 0.970703 51.6412 0.970703 51.7574 0.970703C49.3462 2.37489 46.925 3.76465 44.4939 5.13997C46.1512 2.70168 48.4562 1.31193 51.4088 0.970703Z" fill="#EFEFE5"/>
<path fill-rule="evenodd" clip-rule="evenodd" d="M34.2088 1.08652C37.3906 2.91467 40.5672 4.75802 43.7385 6.61658C43.6724 6.71701 43.6433 6.82319 43.6514 6.93507C47.0299 5.00593 50.3904 3.05641 53.7331 1.08652C55.3564 1.32237 56.7897 1.95935 58.0331 2.99743C56.96 3.69658 55.8559 4.35286 54.7209 4.96625C52.121 3.96528 49.8451 4.44784 47.8932 6.41391C47.0866 7.36688 46.6121 8.4671 46.4696 9.71458C45.3766 10.3655 44.2726 11.0025 43.1574 11.6255C43.1172 11.5951 43.0882 11.5565 43.0703 11.5097C43.023 11.2019 42.9843 10.8931 42.9541 10.5832C42.4517 10.2702 41.9384 9.98072 41.4142 9.71458C41.0714 7.22593 39.7155 5.55627 37.3466 4.70567C35.9385 4.29746 34.5633 4.38432 33.2209 4.96625C33.1751 4.94987 33.1363 4.92092 33.1047 4.87939C33.5808 4.3253 33.6776 3.71729 33.3953 3.05534C33.0984 2.40411 32.5851 2.05667 31.8554 2.01302C31.6284 2.0332 31.4057 2.07181 31.1872 2.12883C31.4677 1.92135 31.7776 1.75729 32.1169 1.63663C32.7916 1.3642 33.4889 1.18083 34.2088 1.08652Z" fill="#EFEFE5"/>
<path fill-rule="evenodd" clip-rule="evenodd" d="M33.3953 3.05534C31.9839 3.2432 30.57 3.41692 29.1534 3.57649C29.7501 2.98201 30.428 2.49946 31.1872 2.12883C31.4057 2.07181 31.6284 2.0332 31.8554 2.01302C32.5851 2.05667 33.0984 2.40411 33.3953 3.05534Z" fill="#EFEFE5"/>
<path fill-rule="evenodd" clip-rule="evenodd" d="M58.0331 2.99743C58.3754 3.18384 58.666 3.43476 58.9047 3.75021C57.9013 4.42452 56.8553 5.04219 55.7669 5.60322C55.4161 5.39007 55.0675 5.17774 54.7209 4.96625C55.8559 4.35286 56.96 3.69658 58.0331 2.99743Z" fill="#EFEFE5"/>
<path fill-rule="evenodd" clip-rule="evenodd" d="M33.3953 3.05534C33.6776 3.71729 33.5808 4.3253 33.1047 4.87939C33.1363 4.92092 33.1751 4.94987 33.2209 4.96625C31.6854 5.70539 30.6395 6.88284 30.0831 8.49854C28.8845 8.65269 27.6836 8.78779 26.4804 8.90389C26.5193 8.47544 26.5969 8.05081 26.7128 7.62995C26.7119 7.51321 26.6538 7.4553 26.5385 7.45623C27.1277 6.24301 27.8347 5.10419 28.6595 4.03975C28.8165 3.87347 28.9811 3.71905 29.1534 3.57649C30.57 3.41692 31.9839 3.2432 33.3953 3.05534Z" fill="#EFEFE5"/>
<path fill-rule="evenodd" clip-rule="evenodd" d="M58.9047 3.75021C59.254 4.08868 59.5736 4.45542 59.8635 4.85044C60.39 5.7125 60.9031 6.58109 61.4034 7.45623C60.3952 8.01763 59.3882 8.57735 58.3818 9.13551C58.0904 8.67018 57.7999 8.20693 57.5101 7.74576C57.081 6.91028 56.4999 6.19611 55.7669 5.60322C56.8553 5.04219 57.9013 4.42452 58.9047 3.75021Z" fill="#EFEFE5"/>
<path fill-rule="evenodd" clip-rule="evenodd" d="M26.5385 7.45623C26.6538 7.4553 26.7119 7.51321 26.7128 7.62995C26.5969 8.05081 26.5193 8.47544 26.4804 8.90389C27.6836 8.78779 28.8845 8.65269 30.0831 8.49854C29.9541 8.98195 29.8572 9.46448 29.7926 9.9462C28.6505 10.086 27.5076 10.2212 26.3642 10.3515C26.3856 9.82987 26.3953 9.30871 26.3932 8.78807C26.2413 8.66902 26.0767 8.57249 25.8993 8.49854C26.084 8.12968 26.2971 7.78224 26.5385 7.45623Z" fill="#EFEFE5"/>
<path fill-rule="evenodd" clip-rule="evenodd" d="M61.4034 7.45623C61.598 7.80523 61.7915 8.15267 61.9845 8.49854C61.0146 9.0834 60.0367 9.66246 59.05 10.2357C58.7974 9.88662 58.5747 9.5199 58.3818 9.13551C59.3882 8.57735 60.3952 8.01763 61.4034 7.45623Z" fill="#EFEFE5"/>
<path fill-rule="evenodd" clip-rule="evenodd" d="M25.8993 8.49854C26.0767 8.57249 26.2413 8.66902 26.3932 8.78807C26.3953 9.30871 26.3856 9.82987 26.3642 10.3515C27.5076 10.2212 28.6505 10.086 29.7926 9.9462C29.7956 10.5948 29.8828 11.2317 30.0541 11.8571C30.2694 12.4598 30.5309 13.0389 30.8385 13.5943C29.6141 13.7348 28.3938 13.8892 27.1777 14.0576C27.0847 13.93 27.0073 13.7949 26.9453 13.6522C26.8753 13.3077 26.759 12.9796 26.5966 12.6678C25.8202 12.2232 25.0455 11.7792 24.2723 11.336C24.7993 10.3823 25.3416 9.43651 25.8993 8.49854Z" fill="#EFEFE5"/>
<path fill-rule="evenodd" clip-rule="evenodd" d="M57.5101 7.74576C57.7999 8.20693 58.0904 8.67018 58.3818 9.13551C58.5747 9.5199 58.7974 9.88662 59.05 10.2357C60.0367 9.66246 61.0146 9.0834 61.9845 8.49854C62.5708 9.41561 63.1129 10.3614 63.6115 11.336C62.6039 11.9432 61.587 12.5415 60.5608 13.1311C59.5602 12.9413 58.5628 12.7483 57.5682 12.552C58.2698 10.9433 58.2504 9.34126 57.5101 7.74576Z" fill="#EFEFE5"/>
<path fill-rule="evenodd" clip-rule="evenodd" d="M41.4142 9.71458C41.9384 9.98072 42.4517 10.2702 42.9541 10.5832C42.9843 10.8931 43.023 11.2019 43.0703 11.5097C43.0882 11.5565 43.1172 11.5951 43.1574 11.6255C44.2726 11.0025 45.3766 10.3655 46.4696 9.71458C46.4523 10.1442 46.4717 10.5689 46.5277 10.9885C45.4611 11.5635 44.4055 12.1619 43.3608 12.7836C43.2699 12.4944 43.1828 12.2048 43.0993 11.915C42.5455 11.5716 41.9838 11.2435 41.4142 10.9306C41.4773 10.5245 41.4774 10.1191 41.4142 9.71458Z" fill="#EFEFE5"/>
<path fill-rule="evenodd" clip-rule="evenodd" d="M41.4142 10.9306C41.9838 11.2435 42.5455 11.5716 43.0993 11.915C43.1828 12.2048 43.2699 12.4944 43.3608 12.7836C44.4055 12.1619 45.4611 11.5635 46.5277 10.9885C46.5837 11.5518 46.729 12.0923 46.9635 12.6099C47.4143 13.3959 47.8501 14.1873 48.2709 14.9841C47.2715 15.5494 46.2836 16.1285 45.3074 16.7213C44.8443 15.9784 44.3892 15.2256 43.9419 14.4629C43.5192 15.2096 43.0834 15.9431 42.6345 16.6634C41.6273 16.1036 40.62 15.5438 39.6128 14.9841C40.1155 14.1371 40.59 13.2685 41.0365 12.3783C41.2081 11.9064 41.334 11.4239 41.4142 10.9306Z" fill="#EFEFE5"/>
<path fill-rule="evenodd" clip-rule="evenodd" d="M24.2723 11.336C25.0455 11.7792 25.8202 12.2232 26.5966 12.6678C26.759 12.9796 26.8753 13.3077 26.9453 13.6522C26.8115 13.9386 26.6565 14.2089 26.4804 14.4629C25.4538 13.9129 24.4466 13.3338 23.4588 12.7257C23.7088 12.2461 23.98 11.7829 24.2723 11.336Z" fill="#EFEFE5"/>
<path fill-rule="evenodd" clip-rule="evenodd" d="M63.6115 11.336C63.916 11.8069 64.2065 12.2894 64.4831 12.7836C63.4598 13.3416 62.4522 13.9207 61.4615 14.5208C61.279 14.235 61.0948 13.9455 60.9095 13.6522C60.7276 14.1686 60.4858 14.6512 60.1831 15.0999C58.9756 14.8746 57.7746 14.643 56.5804 14.405C56.9089 13.7889 57.2382 13.1712 57.5682 12.552C58.5628 12.7483 59.5602 12.9413 60.5608 13.1311C61.587 12.5415 62.6039 11.9432 63.6115 11.336Z" fill="#EFEFE5"/>
<path fill-rule="evenodd" clip-rule="evenodd" d="M23.4588 12.7257C24.4466 13.3338 25.4538 13.9129 26.4804 14.4629C25.8503 15.6035 25.1917 16.7231 24.5047 17.8215C23.5285 17.2287 22.5407 16.6496 21.5412 16.0843C22.1512 14.9455 22.7904 13.8259 23.4588 12.7257Z" fill="#EFEFE5"/>
<path fill-rule="evenodd" clip-rule="evenodd" d="M64.4831 12.7836C65.1368 13.8743 65.776 14.9746 66.4007 16.0843C65.3937 16.6634 64.3861 17.2424 63.3791 17.8215C62.7172 16.7365 62.078 15.6363 61.4615 14.5208C62.4522 13.9207 63.4598 13.3416 64.4831 12.7836Z" fill="#EFEFE5"/>
<path fill-rule="evenodd" clip-rule="evenodd" d="M30.8385 13.5943C31.2083 14.1569 31.5569 14.736 31.8845 15.3315C30.6308 15.5094 29.3719 15.6638 28.1074 15.7948C27.7374 15.2504 27.4275 14.6714 27.1777 14.0576C28.3938 13.8892 29.6141 13.7348 30.8385 13.5943Z" fill="#EFEFE5"/>
<path fill-rule="evenodd" clip-rule="evenodd" d="M56.5804 14.405C57.7746 14.643 58.9756 14.8746 60.1831 15.0999C59.5579 16.2116 58.9185 17.3118 58.2655 18.4005C58.2243 18.3482 58.1662 18.3289 58.0912 18.3426C58.0912 18.2268 58.0912 18.111 58.0912 17.9952C57.975 17.9952 57.8588 17.9952 57.7426 17.9952C57.7426 17.8794 57.7426 17.7636 57.7426 17.6478C57.6264 17.6478 57.5101 17.6478 57.3939 17.6478C57.4088 17.515 57.3894 17.3896 57.3358 17.2714C57.1042 17.2425 56.8718 17.2328 56.6385 17.2424C56.6385 17.1266 56.6385 17.0108 56.6385 16.895C56.3867 16.895 56.1349 16.895 55.8831 16.895C55.8831 17.0108 55.8831 17.1266 55.8831 17.2424C55.7669 17.2424 55.6507 17.2424 55.5345 17.2424C55.5345 17.1266 55.5345 17.0108 55.5345 16.895C55.3921 16.9067 55.2565 16.8874 55.1277 16.8371C55.5835 16.0052 56.0678 15.1945 56.5804 14.405Z" fill="#EFEFE5"/>
<path fill-rule="evenodd" clip-rule="evenodd" d="M39.6128 14.9841C40.62 15.5438 41.6273 16.1036 42.6345 16.6634C42.4652 17.059 42.2522 17.4258 41.9953 17.7636C41.0075 17.1554 40.0003 16.5764 38.9736 16.0264C39.1875 15.6769 39.4006 15.3294 39.6128 14.9841Z" fill="#EFEFE5"/>
<path fill-rule="evenodd" clip-rule="evenodd" d="M48.2709 14.9841C48.5278 15.3219 48.7409 15.6887 48.9101 16.0843C47.9039 16.6424 46.8967 17.2022 45.8885 17.7636C45.6656 17.4352 45.4719 17.0878 45.3074 16.7213C46.2836 16.1285 47.2715 15.5494 48.2709 14.9841Z" fill="#EFEFE5"/>
<path fill-rule="evenodd" clip-rule="evenodd" d="M31.8845 15.3315C32.6802 16.7222 33.4744 18.112 34.2669 19.5008C33.0074 19.6311 31.7484 19.7662 30.4899 19.9061C29.6819 18.5472 28.8878 17.1767 28.1074 15.7948C29.3719 15.6638 30.6308 15.5094 31.8845 15.3315Z" fill="#EFEFE5"/>
<path fill-rule="evenodd" clip-rule="evenodd" d="M38.9736 16.0264C40.0003 16.5764 41.0075 17.1554 41.9953 17.7636C41.7533 18.2463 41.4821 18.7095 41.1818 19.1533C41.0372 19.044 40.8629 19.0054 40.6588 19.0375C40.6588 18.8059 40.6588 18.5743 40.6588 18.3426C40.2908 18.3426 39.9227 18.3426 39.5547 18.3426C39.6322 17.9952 39.4966 17.8601 39.148 17.9373C39.148 18.0531 39.148 18.1689 39.148 18.2847C39.0318 18.2847 38.9155 18.2847 38.7993 18.2847C38.8438 17.9717 38.7082 17.8559 38.3926 17.9373C38.3926 17.8215 38.3926 17.7057 38.3926 17.5899C38.2957 17.5899 38.1989 17.5899 38.102 17.5899C38.3771 17.0609 38.6677 16.5398 38.9736 16.0264Z" fill="#EFEFE5"/>
<path fill-rule="evenodd" clip-rule="evenodd" d="M21.5412 16.0843C22.5407 16.6496 23.5285 17.2287 24.5047 17.8215C24.2832 18.3016 24.0314 18.7649 23.7493 19.2112C22.7227 18.6612 21.7155 18.0822 20.7277 17.474C20.9697 16.9913 21.2409 16.5281 21.5412 16.0843Z" fill="#EFEFE5"/>
<path fill-rule="evenodd" clip-rule="evenodd" d="M48.9101 16.0843C49.4816 16.9913 50.0239 17.9178 50.5372 18.8638C49.5494 19.4719 48.5422 20.051 47.5155 20.601C46.9585 19.6646 46.4161 18.7188 45.8885 17.7636C46.8967 17.2022 47.9039 16.6424 48.9101 16.0843Z" fill="#EFEFE5"/>
<path fill-rule="evenodd" clip-rule="evenodd" d="M66.4007 16.0843C66.6872 16.5591 66.9585 17.0416 67.2142 17.5319C66.2072 18.0917 65.1996 18.6515 64.1926 19.2112C63.8922 18.7674 63.6214 18.3042 63.3791 17.8215C64.3861 17.2424 65.3937 16.6634 66.4007 16.0843Z" fill="#EFEFE5"/>
<path fill-rule="evenodd" clip-rule="evenodd" d="M55.1277 16.8371C55.2565 16.8874 55.3921 16.9067 55.5345 16.895C55.5345 17.0108 55.5345 17.1266 55.5345 17.2424C55.6507 17.2424 55.7669 17.2424 55.8831 17.2424C55.8831 17.1266 55.8831 17.0108 55.8831 16.895C56.1349 16.895 56.3867 16.895 56.6385 16.895C56.6385 17.0108 56.6385 17.1266 56.6385 17.2424C56.8718 17.2328 57.1042 17.2425 57.3358 17.2714C57.3894 17.3896 57.4088 17.515 57.3939 17.6478C57.5101 17.6478 57.6264 17.6478 57.7426 17.6478C57.7426 17.7636 57.7426 17.8794 57.7426 17.9952C57.8588 17.9952 57.975 17.9952 58.0912 17.9952C58.0912 18.111 58.0912 18.2268 58.0912 18.3426C58.1662 18.3289 58.2243 18.3482 58.2655 18.4005C58.0663 18.7788 57.8532 19.1456 57.6264 19.5008C57.6314 19.4431 57.6119 19.3949 57.5682 19.356C57.136 19.2872 56.7099 19.2004 56.2899 19.0954C56.2899 18.9796 56.2899 18.8638 56.2899 18.748C56.0376 18.7341 55.7857 18.7148 55.5345 18.6901C55.5345 18.5935 55.5345 18.4971 55.5345 18.4005C55.1098 18.3572 54.6836 18.3379 54.2561 18.3426C54.5466 17.8408 54.8372 17.3389 55.1277 16.8371Z" fill="#EFEFE5"/>
<path fill-rule="evenodd" clip-rule="evenodd" d="M20.7277 17.474C21.7155 18.0822 22.7227 18.6612 23.7493 19.2112C23.2797 20.0507 22.7955 20.8807 22.2966 21.7012C21.2744 21.1453 20.2672 20.5662 19.275 19.964C19.7365 19.1188 20.2207 18.2887 20.7277 17.474Z" fill="#EFEFE5"/>
<path fill-rule="evenodd" clip-rule="evenodd" d="M67.2142 17.5319C67.7122 18.3504 68.1962 19.1804 68.6669 20.0219C67.6401 20.5719 66.6331 21.151 65.6453 21.7591C65.1316 20.9291 64.6476 20.0798 64.1926 19.2112C65.1996 18.6515 66.2072 18.0917 67.2142 17.5319Z" fill="#EFEFE5"/>
<path fill-rule="evenodd" clip-rule="evenodd" d="M38.102 17.5899C38.1989 17.5899 38.2957 17.5899 38.3926 17.5899C38.3926 17.7057 38.3926 17.8215 38.3926 17.9373C38.7082 17.8559 38.8438 17.9717 38.7993 18.2847C38.9155 18.2847 39.0318 18.2847 39.148 18.2847C39.148 18.1689 39.148 18.0531 39.148 17.9373C39.4966 17.8601 39.6322 17.9952 39.5547 18.3426C39.9227 18.3426 40.2908 18.3426 40.6588 18.3426C40.6588 18.5743 40.6588 18.8059 40.6588 19.0375C40.8629 19.0054 41.0372 19.044 41.1818 19.1533C40.9932 19.5874 40.7608 19.9927 40.4845 20.3694C40.5824 20.1935 40.5243 20.1163 40.3101 20.1377C40.324 20.0238 40.3047 19.9176 40.252 19.8193C39.8839 19.8672 39.5159 19.8575 39.148 19.7903C39.148 19.6745 39.148 19.5587 39.148 19.4429C38.8324 19.5243 38.6968 19.4085 38.7412 19.0954C38.3737 19.065 38.0057 19.0361 37.6372 19.0086C37.5184 18.9797 37.4409 18.9122 37.4047 18.8059C37.5933 18.3718 37.8257 17.9665 38.102 17.5899Z" fill="#EFEFE5"/>
<path fill-rule="evenodd" clip-rule="evenodd" d="M54.2561 18.3426C54.6836 18.3379 55.1098 18.3572 55.5345 18.4005C55.5345 18.4971 55.5345 18.5935 55.5345 18.6901C55.7857 18.7148 56.0376 18.7341 56.2899 18.748C56.2899 18.8638 56.2899 18.9796 56.2899 19.0954C56.7099 19.2004 57.136 19.2872 57.5682 19.356C57.6119 19.3949 57.6314 19.4431 57.6264 19.5008C57.4271 19.879 57.214 20.2458 56.9872 20.601C56.8709 20.601 56.7547 20.601 56.6385 20.601C56.6385 20.3501 56.6385 20.0991 56.6385 19.8482C56.5029 19.8482 56.3673 19.8482 56.2318 19.8482C56.2318 19.7324 56.2318 19.6166 56.2318 19.5008C55.7669 19.4815 55.302 19.4621 54.8372 19.4429C54.8372 19.3271 54.8372 19.2112 54.8372 19.0954C54.7016 19.0954 54.566 19.0954 54.4304 19.0954C54.467 18.7626 54.3313 18.6661 54.0237 18.8059C54.0759 18.6383 54.1534 18.4838 54.2561 18.3426Z" fill="#EFEFE5"/>
<path fill-rule="evenodd" clip-rule="evenodd" d="M56.9872 20.601C56.8857 20.8226 56.7695 21.0349 56.6385 21.238C56.6039 21.1549 56.6039 21.0583 56.6385 20.9484C56.5223 20.9484 56.4061 20.9484 56.2899 20.9484C56.3716 20.6339 56.2554 20.4988 55.9412 20.5431C55.9857 20.23 55.85 20.1142 55.5345 20.1956C55.5345 20.0798 55.5345 19.964 55.5345 19.8482C55.3012 19.8578 55.0688 19.8482 54.8372 19.8193C54.7845 19.7209 54.7652 19.6147 54.7791 19.5008C54.3966 19.5207 54.0285 19.4821 53.675 19.385C53.7629 19.1706 53.8791 18.9776 54.0237 18.8059C54.3313 18.6661 54.467 18.7626 54.4304 19.0954C54.566 19.0954 54.7016 19.0954 54.8372 19.0954C54.8372 19.2112 54.8372 19.3271 54.8372 19.4429C55.302 19.4621 55.7669 19.4815 56.2318 19.5008C56.2318 19.6166 56.2318 19.7324 56.2318 19.8482C56.3673 19.8482 56.5029 19.8482 56.6385 19.8482C56.6385 20.0991 56.6385 20.3501 56.6385 20.601C56.7547 20.601 56.8709 20.601 56.9872 20.601Z" fill="#EFEFE5"/>
<path fill-rule="evenodd" clip-rule="evenodd" d="M37.4047 18.8059C37.4409 18.9122 37.5184 18.9797 37.6372 19.0086C38.0057 19.0361 38.3737 19.065 38.7412 19.0954C38.6968 19.4085 38.8324 19.5243 39.148 19.4429C39.148 19.5587 39.148 19.6745 39.148 19.7903C39.5159 19.8575 39.8839 19.8672 40.252 19.8193C40.3047 19.9176 40.324 20.0238 40.3101 20.1377C40.5243 20.1163 40.5824 20.1935 40.4845 20.3694C40.32 20.7359 40.1263 21.0834 39.9034 21.4117C39.9034 21.2572 39.9034 21.1029 39.9034 20.9484C39.7872 20.9484 39.6709 20.9484 39.5547 20.9484C39.5547 20.8133 39.5547 20.6782 39.5547 20.5431C39.4192 20.5431 39.2835 20.5431 39.148 20.5431C39.148 20.4273 39.148 20.3115 39.148 20.1956C38.8324 20.2771 38.6968 20.1613 38.7412 19.8482C38.3664 19.8039 37.9984 19.7846 37.6372 19.7903C37.6372 19.6745 37.6372 19.5587 37.6372 19.4429C37.4313 19.461 37.2377 19.4416 37.0561 19.385C37.1439 19.1706 37.2602 18.9776 37.4047 18.8059Z" fill="#EFEFE5"/>
<path fill-rule="evenodd" clip-rule="evenodd" d="M50.5372 18.8638C50.8415 19.3347 51.132 19.8172 51.4088 20.3115C50.3821 20.8615 49.3749 21.4405 48.3872 22.0487C48.0828 21.5778 47.7923 21.0952 47.5155 20.601C48.5422 20.051 49.5494 19.4719 50.5372 18.8638Z" fill="#EFEFE5"/>
<path fill-rule="evenodd" clip-rule="evenodd" d="M37.0561 19.385C37.2377 19.4416 37.4313 19.461 37.6372 19.4429C37.6372 19.5587 37.6372 19.6745 37.6372 19.7903C37.9984 19.7846 38.3664 19.8039 38.7412 19.8482C38.6968 20.1613 38.8324 20.2771 39.148 20.1956C39.148 20.3115 39.148 20.4273 39.148 20.5431C39.2835 20.5431 39.4192 20.5431 39.5547 20.5431C39.5547 20.6782 39.5547 20.8133 39.5547 20.9484C39.6709 20.9484 39.7872 20.9484 39.9034 20.9484C39.9034 21.1029 39.9034 21.2572 39.9034 21.4117C39.8348 21.5877 39.7379 21.7421 39.6128 21.8749C39.6151 21.8122 39.6345 21.7543 39.6709 21.7012C39.5864 21.6016 39.538 21.4858 39.5257 21.3538C39.2563 21.2292 39.0046 21.0747 38.7703 20.8905C38.7415 20.7763 38.7318 20.6605 38.7412 20.5431C38.6444 20.5431 38.5475 20.5431 38.4507 20.5431C38.4313 20.7747 38.4119 20.7747 38.3926 20.5431C38.2748 20.5525 38.1586 20.5428 38.0439 20.5141C37.6699 20.2753 37.2825 20.0533 36.8818 19.8482C36.8421 19.8692 36.8033 19.8885 36.7655 19.9061C36.8396 19.7173 36.9364 19.5436 37.0561 19.385Z" fill="#EFEFE5"/>
<path fill-rule="evenodd" clip-rule="evenodd" d="M53.675 19.385C54.0285 19.4821 54.3966 19.5207 54.7791 19.5008C54.7652 19.6147 54.7845 19.7209 54.8372 19.8193C55.0688 19.8482 55.3012 19.8578 55.5345 19.8482C55.5345 19.964 55.5345 20.0798 55.5345 20.1956C55.85 20.1142 55.9857 20.23 55.9412 20.5431C56.2554 20.4988 56.3716 20.6339 56.2899 20.9484C56.4061 20.9484 56.5223 20.9484 56.6385 20.9484C56.6039 21.0583 56.6039 21.1549 56.6385 21.238C56.5214 21.4331 56.4052 21.6261 56.2899 21.817C56.2454 21.6667 56.226 21.5123 56.2318 21.3538C55.9176 21.3981 55.8014 21.2629 55.8831 20.9484C55.7669 20.9484 55.6507 20.9484 55.5345 20.9484C55.5345 20.8326 55.5345 20.7168 55.5345 20.601C55.2189 20.6824 55.0833 20.5666 55.1277 20.2536C54.8964 20.2234 54.6639 20.2041 54.4304 20.1956C54.4304 20.0798 54.4304 19.964 54.4304 19.8482C54.0765 19.8315 53.7278 19.8508 53.3845 19.9061C53.4585 19.7173 53.5553 19.5436 53.675 19.385Z" fill="#EFEFE5"/>
<path fill-rule="evenodd" clip-rule="evenodd" d="M34.2669 19.5008C34.6147 20.0777 34.9633 20.6568 35.3128 21.238C34.0512 21.3782 32.7922 21.5326 31.5358 21.7012C31.1734 21.1144 30.8247 20.516 30.4899 19.9061C31.7484 19.7662 33.0074 19.6311 34.2669 19.5008Z" fill="#EFEFE5"/>
<path fill-rule="evenodd" clip-rule="evenodd" d="M39.6128 21.8749C39.6035 21.9707 39.5648 22.0478 39.4966 22.1066C39.4142 22.0019 39.298 21.9632 39.148 21.9907C39.1313 21.7921 39.0248 21.657 38.8284 21.5854C38.7997 21.4908 38.79 21.3943 38.7993 21.2959C38.6638 21.2959 38.5281 21.2959 38.3926 21.2959C38.3926 21.1801 38.3926 21.0642 38.3926 20.9484C38.1018 20.9259 37.8113 20.897 37.5209 20.8616C37.3632 20.8109 37.2857 20.7048 37.2885 20.5431C36.9732 20.5268 36.6633 20.546 36.3588 20.601C36.4652 20.3499 36.6008 20.1183 36.7655 19.9061C36.8033 19.8885 36.8421 19.8692 36.8818 19.8482C37.2825 20.0533 37.6699 20.2753 38.0439 20.5141C38.1586 20.5428 38.2748 20.5525 38.3926 20.5431C38.4119 20.7747 38.4313 20.7747 38.4507 20.5431C38.5475 20.5431 38.6444 20.5431 38.7412 20.5431C38.7318 20.6605 38.7415 20.7763 38.7703 20.8905C39.0046 21.0747 39.2563 21.2292 39.5257 21.3538C39.538 21.4858 39.5864 21.6016 39.6709 21.7012C39.6345 21.7543 39.6151 21.8122 39.6128 21.8749Z" fill="#EFEFE5"/>
<path fill-rule="evenodd" clip-rule="evenodd" d="M56.2899 21.817C56.0858 22.2243 55.8534 22.6104 55.5926 22.9752C55.5876 22.9175 55.607 22.8692 55.6507 22.8304C55.5383 22.4707 55.4995 22.0943 55.5345 21.7012C55.4182 21.7012 55.302 21.7012 55.1858 21.7012C55.2633 21.3538 55.1277 21.2187 54.7791 21.2959C54.7791 21.1993 54.7791 21.1029 54.7791 21.0063C54.098 20.9342 53.4201 20.9342 52.7453 21.0063C52.9356 20.6243 53.1487 20.2576 53.3845 19.9061C53.7278 19.8508 54.0765 19.8315 54.4304 19.8482C54.4304 19.964 54.4304 20.0798 54.4304 20.1956C54.6639 20.2041 54.8964 20.2234 55.1277 20.2536C55.0833 20.5666 55.2189 20.6824 55.5345 20.601C55.5345 20.7168 55.5345 20.8326 55.5345 20.9484C55.6507 20.9484 55.7669 20.9484 55.8831 20.9484C55.8014 21.2629 55.9176 21.3981 56.2318 21.3538C56.226 21.5123 56.2454 21.6667 56.2899 21.817Z" fill="#EFEFE5"/>
<path fill-rule="evenodd" clip-rule="evenodd" d="M19.275 19.964C20.2672 20.5662 21.2744 21.1453 22.2966 21.7012C21.9476 22.3779 21.7151 23.0921 21.5993 23.8438C20.534 23.2261 19.4687 22.6084 18.4034 21.9907C18.6161 21.2779 18.9066 20.6023 19.275 19.964Z" fill="#EFEFE5"/>
<path fill-rule="evenodd" clip-rule="evenodd" d="M68.6669 20.0219C69.0289 20.659 69.2997 21.3346 69.4804 22.0487C68.4228 22.6624 67.3577 23.2608 66.2845 23.8438C66.188 23.1122 65.9753 22.4173 65.6453 21.7591C66.6331 21.151 67.6401 20.5719 68.6669 20.0219Z" fill="#EFEFE5"/>
<path fill-rule="evenodd" clip-rule="evenodd" d="M51.4088 20.3115C51.6856 20.8057 51.9761 21.2882 52.2804 21.7591C52.3362 22.0247 52.4524 22.2563 52.6291 22.454C52.692 22.599 52.7695 22.7341 52.8615 22.8593C52.9971 23.1296 53.1327 23.3998 53.2682 23.67C52.2726 24.2145 51.2847 24.7742 50.3047 25.3493C50.2793 25.2911 50.2406 25.2911 50.1885 25.3493C50.1737 25.2036 50.1252 25.0685 50.0432 24.944C49.4751 23.9851 48.9231 23.02 48.3872 22.0487C49.3749 21.4405 50.3821 20.8615 51.4088 20.3115Z" fill="#EFEFE5"/>
<path fill-rule="evenodd" clip-rule="evenodd" d="M39.4966 22.1066C39.2925 22.5139 39.0601 22.8999 38.7993 23.2647C38.8089 23.1091 38.7992 22.9547 38.7703 22.8014C38.6715 22.749 38.565 22.7297 38.4507 22.7435C38.4313 22.5119 38.4119 22.2803 38.3926 22.0487C38.2764 22.0487 38.1601 22.0487 38.0439 22.0487C38.0439 21.9136 38.0439 21.7784 38.0439 21.6433C37.9084 21.6433 37.7727 21.6433 37.6372 21.6433C37.6372 21.5275 37.6372 21.4117 37.6372 21.2959C37.0754 21.2959 36.5138 21.2959 35.952 21.2959C36.0585 21.0448 36.194 20.8132 36.3588 20.601C36.6633 20.546 36.9732 20.5268 37.2885 20.5431C37.2857 20.7048 37.3632 20.8109 37.5209 20.8616C37.8113 20.897 38.1018 20.9259 38.3926 20.9484C38.3926 21.0642 38.3926 21.1801 38.3926 21.2959C38.5281 21.2959 38.6638 21.2959 38.7993 21.2959C38.79 21.3943 38.7997 21.4908 38.8284 21.5854C39.0248 21.657 39.1313 21.7921 39.148 21.9907C39.298 21.9632 39.4142 22.0019 39.4966 22.1066Z" fill="#EFEFE5"/>
<path fill-rule="evenodd" clip-rule="evenodd" d="M55.5926 22.9752C55.4668 23.2647 55.3118 23.5349 55.1277 23.7858C55.1277 23.5735 55.1277 23.3612 55.1277 23.1489C55.0308 23.1489 54.934 23.1489 54.8372 23.1489C54.8124 22.8985 54.7929 22.6475 54.7791 22.3961C54.6628 22.3961 54.5466 22.3961 54.4304 22.3961C54.4304 22.2803 54.4304 22.1645 54.4304 22.0487C54.3142 22.0487 54.198 22.0487 54.0818 22.0487C54.0818 21.9328 54.0818 21.817 54.0818 21.7012C53.5007 21.7012 52.9196 21.7012 52.3385 21.7012C52.445 21.4501 52.5805 21.2185 52.7453 21.0063C53.4201 20.9342 54.098 20.9342 54.7791 21.0063C54.7791 21.1029 54.7791 21.1993 54.7791 21.2959C55.1277 21.2187 55.2633 21.3538 55.1858 21.7012C55.302 21.7012 55.4182 21.7012 55.5345 21.7012C55.4995 22.0943 55.5383 22.4707 55.6507 22.8304C55.607 22.8692 55.5876 22.9175 55.5926 22.9752Z" fill="#EFEFE5"/>
<path fill-rule="evenodd" clip-rule="evenodd" d="M35.3128 21.238C35.408 21.4475 35.5242 21.6405 35.6615 21.817C35.6558 21.9359 35.6945 22.0324 35.7777 22.1066C35.9115 22.393 36.0664 22.6632 36.2426 22.9173C36.496 23.3815 36.7478 23.8447 36.998 24.307C35.7632 24.4801 34.5235 24.6345 33.2791 24.7703C32.6826 23.755 32.1015 22.7321 31.5358 21.7012C32.7922 21.5326 34.0512 21.3782 35.3128 21.238Z" fill="#EFEFE5"/>
<path fill-rule="evenodd" clip-rule="evenodd" d="M35.952 21.2959C36.5138 21.2959 37.0754 21.2959 37.6372 21.2959C37.6372 21.4117 37.6372 21.5275 37.6372 21.6433C37.7727 21.6433 37.9084 21.6433 38.0439 21.6433C38.0439 21.7784 38.0439 21.9136 38.0439 22.0487C38.1601 22.0487 38.2764 22.0487 38.3926 22.0487C38.4119 22.2803 38.4313 22.5119 38.4507 22.7435C38.565 22.7297 38.6715 22.749 38.7703 22.8014C38.7992 22.9547 38.8089 23.1091 38.7993 23.2647C38.5915 23.7373 38.3396 24.1812 38.0439 24.5965C38.0558 23.9966 38.0364 23.3982 37.9858 22.8014C37.6717 22.8457 37.5555 22.7106 37.6372 22.3961C37.4047 22.3961 37.1723 22.3961 36.9399 22.3961C36.9399 22.2803 36.9399 22.1645 36.9399 22.0487C36.5416 22.0299 36.1542 22.0492 35.7777 22.1066C35.6945 22.0324 35.6558 21.9359 35.6615 21.817C35.7355 21.6283 35.8323 21.4545 35.952 21.2959Z" fill="#EFEFE5"/>
<path fill-rule="evenodd" clip-rule="evenodd" d="M52.3385 21.7012C52.9196 21.7012 53.5007 21.7012 54.0818 21.7012C54.0818 21.817 54.0818 21.9328 54.0818 22.0487C54.198 22.0487 54.3142 22.0487 54.4304 22.0487C54.4304 22.1645 54.4304 22.2803 54.4304 22.3961C54.5466 22.3961 54.6628 22.3961 54.7791 22.3961C54.7929 22.6475 54.8124 22.8985 54.8372 23.1489C54.934 23.1489 55.0308 23.1489 55.1277 23.1489C55.1277 23.3612 55.1277 23.5735 55.1277 23.7858C54.9391 24.2199 54.7067 24.6253 54.4304 25.0019C54.4304 24.4035 54.4304 23.8051 54.4304 23.2068C54.3142 23.2068 54.198 23.2068 54.0818 23.2068C54.0818 23.0717 54.0818 22.9365 54.0818 22.8014C53.9655 22.8014 53.8493 22.8014 53.7331 22.8014C53.7331 22.6856 53.7331 22.5698 53.7331 22.454C53.3651 22.454 52.9971 22.454 52.6291 22.454C52.4524 22.2563 52.3362 22.0247 52.2804 21.7591C52.2804 21.7205 52.2998 21.7012 52.3385 21.7012Z" fill="#EFEFE5"/>
<path fill-rule="evenodd" clip-rule="evenodd" d="M18.4034 21.9907C19.4687 22.6084 20.534 23.2261 21.5993 23.8438C21.5077 25.1246 21.7789 26.3213 22.4128 27.434C20.9811 26.624 19.5478 25.8133 18.1128 25.0019C18.0568 23.9824 18.1536 22.9787 18.4034 21.9907Z" fill="#EFEFE5"/>
<path fill-rule="evenodd" clip-rule="evenodd" d="M69.4804 22.0487C69.7529 23.0345 69.85 24.0382 69.771 25.0598C68.3392 25.8698 66.9056 26.6805 65.4709 27.4919C66.1171 26.3629 66.3885 25.1469 66.2845 23.8438C67.3577 23.2608 68.4228 22.6624 69.4804 22.0487Z" fill="#EFEFE5"/>
<path fill-rule="evenodd" clip-rule="evenodd" d="M38.0439 24.5965C37.9277 24.8282 37.8115 25.0598 37.6953 25.2914C37.6376 25.3014 37.5989 25.282 37.5791 25.2335C37.6367 24.8003 37.656 24.3563 37.6372 23.9017C37.5209 23.9017 37.4047 23.9017 37.2885 23.9017C37.2885 23.7666 37.2885 23.6314 37.2885 23.4963C37.1723 23.4963 37.0561 23.4963 36.9399 23.4963C36.9399 23.3805 36.9399 23.2647 36.9399 23.1489C36.8043 23.1489 36.6687 23.1489 36.5331 23.1489C36.5331 23.0331 36.5331 22.9172 36.5331 22.8014C36.4006 22.7769 36.3037 22.8156 36.2426 22.9173C36.0664 22.6632 35.9115 22.393 35.7777 22.1066C36.1542 22.0492 36.5416 22.0299 36.9399 22.0487C36.9399 22.1645 36.9399 22.2803 36.9399 22.3961C37.1723 22.3961 37.4047 22.3961 37.6372 22.3961C37.5555 22.7106 37.6717 22.8457 37.9858 22.8014C38.0364 23.3982 38.0558 23.9966 38.0439 24.5965Z" fill="#EFEFE5"/>
<path fill-rule="evenodd" clip-rule="evenodd" d="M52.6291 22.454C52.9971 22.454 53.3651 22.454 53.7331 22.454C53.7331 22.5698 53.7331 22.6856 53.7331 22.8014C53.8493 22.8014 53.9655 22.8014 54.0818 22.8014C54.0818 22.9365 54.0818 23.0717 54.0818 23.2068C53.9726 23.1581 53.8564 23.1387 53.7331 23.1489C53.749 23.0359 53.7103 22.949 53.6169 22.8883C53.3579 22.8045 53.1061 22.7948 52.8615 22.8593C52.7695 22.7341 52.692 22.599 52.6291 22.454Z" fill="#EFEFE5"/>
<path fill-rule="evenodd" clip-rule="evenodd" d="M37.5791 25.2335C37.4064 24.908 37.2127 24.5991 36.998 24.307C36.7478 23.8447 36.496 23.3815 36.2426 22.9173C36.3037 22.8156 36.4006 22.7769 36.5331 22.8014C36.5331 22.9172 36.5331 23.0331 36.5331 23.1489C36.6687 23.1489 36.8043 23.1489 36.9399 23.1489C36.9399 23.2647 36.9399 23.3805 36.9399 23.4963C37.0561 23.4963 37.1723 23.4963 37.2885 23.4963C37.2885 23.6314 37.2885 23.7666 37.2885 23.9017C37.4047 23.9017 37.5209 23.9017 37.6372 23.9017C37.656 24.3563 37.6367 24.8003 37.5791 25.2335Z" fill="#EFEFE5"/>
<path fill-rule="evenodd" clip-rule="evenodd" d="M54.0818 23.2068C54.1008 23.777 54.0814 24.3368 54.0237 24.8861C53.7864 24.471 53.5346 24.0657 53.2682 23.67C53.1327 23.3998 52.9971 23.1296 52.8615 22.8593C53.1061 22.7948 53.3579 22.8045 53.6169 22.8883C53.7103 22.949 53.749 23.0359 53.7331 23.1489C53.8564 23.1387 53.9726 23.1581 54.0818 23.2068Z" fill="#EFEFE5"/>
<path fill-rule="evenodd" clip-rule="evenodd" d="M54.0818 23.2068C54.198 23.2068 54.3142 23.2068 54.4304 23.2068C54.4304 23.8051 54.4304 24.4035 54.4304 25.0019C54.3917 25.0984 54.3529 25.1949 54.3142 25.2914C54.2111 25.241 54.1337 25.1638 54.0818 25.0598C54.0784 24.9956 54.0591 24.9377 54.0237 24.8861C54.0814 24.3368 54.1008 23.777 54.0818 23.2068Z" fill="#EFEFE5"/>
<path fill-rule="evenodd" clip-rule="evenodd" d="M53.2682 23.67C53.5346 24.0657 53.7864 24.471 54.0237 24.8861C54.0591 24.9377 54.0784 24.9956 54.0818 25.0598C53.1018 25.6349 52.1139 26.1946 51.1182 26.7391C50.8471 26.2758 50.5759 25.8126 50.3047 25.3493C51.2847 24.7742 52.2726 24.2145 53.2682 23.67Z" fill="#EFEFE5"/>
<path fill-rule="evenodd" clip-rule="evenodd" d="M36.998 24.307C37.2127 24.5991 37.4064 24.908 37.5791 25.2335C37.5989 25.282 37.6376 25.3014 37.6953 25.2914C37.9168 25.7716 38.1686 26.2348 38.4507 26.6812C37.2004 26.8152 35.9608 26.9696 34.7318 27.1444C34.3797 26.5785 34.0407 25.9994 33.7149 25.4072C33.6737 25.3562 33.6253 25.3176 33.5696 25.2914C33.4882 25.1099 33.3913 24.9362 33.2791 24.7703C34.5235 24.6345 35.7632 24.4801 36.998 24.307Z" fill="#EFEFE5"/>
<path fill-rule="evenodd" clip-rule="evenodd" d="M18.1128 25.0019C19.5478 25.8133 20.9811 26.624 22.4128 27.434C23.573 29.1997 25.2193 30.1455 27.352 30.2714C27.7792 30.5474 28.215 30.8177 28.6595 31.0821C28.6884 31.2741 28.6981 31.4671 28.6885 31.6611C28.8241 31.6611 28.9597 31.6611 29.0953 31.6611C29.0372 31.9507 29.1534 32.0665 29.4439 32.0086C29.4312 32.0766 29.4505 32.1345 29.502 32.1823C29.993 32.4791 30.4965 32.7494 31.0128 32.993C29.0623 33.8085 27.0672 33.9436 25.0277 33.3983C23.6237 32.5732 22.2097 31.7625 20.7858 30.9662C19.1563 29.3195 18.2653 27.3314 18.1128 25.0019Z" fill="#EFEFE5"/>
<path fill-rule="evenodd" clip-rule="evenodd" d="M54.0818 25.0598C54.1337 25.1638 54.2111 25.241 54.3142 25.2914C54.7249 26.052 55.151 26.8048 55.5926 27.5498C54.5659 28.0998 53.5587 28.6788 52.5709 29.287C52.4749 29.1346 52.3781 28.9802 52.2804 28.8237C52.2904 28.7663 52.271 28.7277 52.2223 28.7079C52.0965 28.4184 51.9416 28.1481 51.7574 27.8972C51.546 27.5121 51.333 27.1261 51.1182 26.7391C52.1139 26.1946 53.1018 25.6349 54.0818 25.0598Z" fill="#EFEFE5"/>
<path fill-rule="evenodd" clip-rule="evenodd" d="M69.771 25.0598C69.6228 27.4391 68.693 29.4465 66.9818 31.0821C65.6552 31.7912 64.357 32.544 63.0885 33.3404C61.2291 33.893 59.3696 33.8641 57.5101 33.2536C57.1231 33.1184 56.7551 32.9543 56.4061 32.7614C57.8007 31.9314 59.1953 31.1013 60.5899 30.2714C62.6899 30.1432 64.3169 29.2167 65.4709 27.4919C66.9056 26.6805 68.3392 25.8698 69.771 25.0598Z" fill="#EFEFE5"/>
<path fill-rule="evenodd" clip-rule="evenodd" d="M33.5696 25.2914C33.6253 25.3176 33.6737 25.3562 33.7149 25.4072C34.0407 25.9994 34.3797 26.5785 34.7318 27.1444C34.8294 27.339 34.9262 27.532 35.0223 27.7235C35.0223 27.8007 35.0223 27.8779 35.0223 27.9551C34.9061 27.9551 34.7899 27.9551 34.6737 27.9551C34.6528 28.0863 34.6916 28.1925 34.7899 28.2736C34.5 28.3025 34.2094 28.3122 33.9182 28.3026C33.9182 28.1867 33.9182 28.0709 33.9182 27.9551C33.7827 27.9551 33.6471 27.9551 33.5115 27.9551C33.5115 27.82 33.5115 27.6849 33.5115 27.5498C33.4146 27.5498 33.3178 27.5498 33.2209 27.5498C33.2123 27.4889 33.2219 27.4309 33.25 27.376C33.4549 27.533 33.5421 27.4655 33.5115 27.1734C33.5343 26.9556 33.4471 26.8109 33.25 26.7391C33.2213 26.6445 33.2117 26.5479 33.2209 26.4495C33.3178 26.4495 33.4146 26.4495 33.5115 26.4495C33.5501 26.1034 33.5695 25.756 33.5696 25.4072C33.5696 25.3686 33.5696 25.33 33.5696 25.2914Z" fill="#EFEFE5"/>
<path fill-rule="evenodd" clip-rule="evenodd" d="M50.3047 25.3493C50.5759 25.8126 50.8471 26.2758 51.1182 26.7391C51.333 27.1261 51.546 27.5121 51.7574 27.8972C51.6273 27.9659 51.482 28.0046 51.3216 28.013C51.0231 27.9665 50.7229 27.9472 50.4209 27.9551C50.4118 27.8756 50.4215 27.7984 50.45 27.7235C50.5288 27.7744 50.616 27.7938 50.7115 27.7814C50.7115 27.7235 50.7115 27.6656 50.7115 27.6077C50.5953 27.6077 50.4791 27.6077 50.3628 27.6077C50.3628 27.4726 50.3628 27.3374 50.3628 27.2023C50.2485 27.1885 50.142 27.2078 50.0432 27.2602C50.0059 26.7266 50.0156 26.1861 50.0723 25.6389C50.0951 25.5355 50.1338 25.4391 50.1885 25.3493C50.2406 25.2911 50.2793 25.2911 50.3047 25.3493Z" fill="#EFEFE5"/>
<path fill-rule="evenodd" clip-rule="evenodd" d="M50.0723 25.6389C50.0156 26.1861 50.0059 26.7266 50.0432 27.2602C50.142 27.2078 50.2485 27.1885 50.3628 27.2023C50.3628 27.3374 50.3628 27.4726 50.3628 27.6077C50.4791 27.6077 50.5953 27.6077 50.7115 27.6077C50.7115 27.6656 50.7115 27.7235 50.7115 27.7814C50.616 27.7938 50.5288 27.7744 50.45 27.7235C50.4215 27.7984 50.4118 27.8756 50.4209 27.9551C50.7229 27.9472 51.0231 27.9665 51.3216 28.013C51.482 28.0046 51.6273 27.9659 51.7574 27.8972C51.9416 28.1481 52.0965 28.4184 52.2223 28.7079C51.6219 28.7079 51.0214 28.7079 50.4209 28.7079C50.4209 28.5921 50.4209 28.4763 50.4209 28.3605C50.2854 28.3605 50.1498 28.3605 50.0142 28.3605C50.0142 28.2254 50.0142 28.0902 50.0142 27.9551C49.8786 27.9551 49.743 27.9551 49.6074 27.9551C49.5902 27.708 49.6095 27.4667 49.6655 27.2313C49.5509 27.2026 49.4347 27.1929 49.3169 27.2023C49.3218 27.0386 49.3605 26.8842 49.4331 26.7391C49.6023 26.3435 49.8154 25.9767 50.0723 25.6389Z" fill="#EFEFE5"/>
<path fill-rule="evenodd" clip-rule="evenodd" d="M33.5696 25.4072C33.5695 25.756 33.5501 26.1034 33.5115 26.4495C33.4146 26.4495 33.3178 26.4495 33.2209 26.4495C33.2117 26.5479 33.2213 26.6445 33.25 26.7391C33.4471 26.8109 33.5343 26.9556 33.5115 27.1734C33.5421 27.4655 33.4549 27.533 33.25 27.376C33.2219 27.4309 33.2123 27.4889 33.2209 27.5498C33.3178 27.5498 33.4146 27.5498 33.5115 27.5498C33.5115 27.6849 33.5115 27.82 33.5115 27.9551C33.6471 27.9551 33.7827 27.9551 33.9182 27.9551C33.9182 28.0709 33.9182 28.1867 33.9182 28.3026C34.2094 28.3122 34.5 28.3025 34.7899 28.2736C34.6916 28.1925 34.6528 28.0863 34.6737 27.9551C34.7899 27.9551 34.9061 27.9551 35.0223 27.9551C35.0223 27.8779 35.0223 27.8007 35.0223 27.7235C35.1863 27.934 35.3219 28.1657 35.4291 28.4184C35.4291 28.5149 35.4291 28.6114 35.4291 28.7079C35.3128 28.7079 35.1966 28.7079 35.0804 28.7079C34.693 28.7079 34.3056 28.7079 33.9182 28.7079C33.9182 28.5921 33.9182 28.4763 33.9182 28.3605C33.6858 28.3412 33.4534 28.3218 33.2209 28.3026C33.2667 28.0244 33.1505 27.8603 32.8723 27.8103C32.8237 27.7518 32.8043 27.6842 32.8142 27.6077C32.8414 27.3974 32.8026 27.2044 32.698 27.0286C32.7535 26.9374 32.7923 26.8409 32.8142 26.7391C33.0432 26.28 33.295 25.836 33.5696 25.4072Z" fill="#EFEFE5"/>
<path fill-rule="evenodd" clip-rule="evenodd" d="M38.4507 26.6812C39.0183 27.8837 39.8705 28.8294 41.0074 29.5186C39.4778 29.6971 37.9476 29.8708 36.4169 30.0397C36.1305 29.6422 35.8593 29.2369 35.6034 28.8237C35.5914 28.665 35.5332 28.5299 35.4291 28.4184C35.3219 28.1657 35.1863 27.934 35.0223 27.7235C34.9262 27.532 34.8294 27.339 34.7318 27.1444C35.9608 26.9696 37.2004 26.8152 38.4507 26.6812Z" fill="#EFEFE5"/>
<path fill-rule="evenodd" clip-rule="evenodd" d="M49.4331 26.7391C49.3605 26.8842 49.3218 27.0386 49.3169 27.2023C49.4347 27.1929 49.5509 27.2026 49.6655 27.2313C49.6095 27.4667 49.5902 27.708 49.6074 27.9551C49.743 27.9551 49.8786 27.9551 50.0142 27.9551C50.0142 28.0902 50.0142 28.2254 50.0142 28.3605C50.1498 28.3605 50.2854 28.3605 50.4209 28.3605C50.4209 28.4763 50.4209 28.5921 50.4209 28.7079C51.0214 28.7079 51.6219 28.7079 52.2223 28.7079C52.271 28.7277 52.2904 28.7663 52.2804 28.8237C52.2355 28.8929 52.1774 28.9508 52.1061 28.9974C51.905 29.0896 51.6919 29.1282 51.4669 29.1132C51.4669 29.2098 51.4669 29.3062 51.4669 29.4028C51.3507 29.4028 51.2345 29.4028 51.1182 29.4028C51.1182 29.3062 51.1182 29.2098 51.1182 29.1132C50.7488 29.1146 50.3808 29.0953 50.0142 29.0553C50.0142 28.9588 50.0142 28.8623 50.0142 28.7658C49.898 28.7658 49.7818 28.7658 49.6655 28.7658C49.563 28.7102 49.4468 28.6908 49.3169 28.7079C49.3943 28.3605 49.2588 28.2254 48.9101 28.3026C48.9101 28.0709 48.9101 27.8393 48.9101 27.6077C49.0618 27.3027 49.2361 27.0131 49.4331 26.7391Z" fill="#EFEFE5"/>
<path fill-rule="evenodd" clip-rule="evenodd" d="M32.8142 26.7391C32.7923 26.8409 32.7535 26.9374 32.698 27.0286C32.8026 27.2044 32.8414 27.3974 32.8142 27.6077C32.698 27.6077 32.5818 27.6077 32.4655 27.6077C32.4655 27.7235 32.4655 27.8393 32.4655 27.9551C32.5818 27.9551 32.698 27.9551 32.8142 27.9551C32.8142 28.0902 32.8142 28.2254 32.8142 28.3605C32.9304 28.3605 33.0466 28.3605 33.1628 28.3605C33.1628 28.4763 33.1628 28.5921 33.1628 28.7079C33.2984 28.7079 33.434 28.7079 33.5696 28.7079C33.5696 28.8237 33.5696 28.9395 33.5696 29.0553C34.0732 29.0553 34.5768 29.0553 35.0804 29.0553C35.0804 28.9395 35.0804 28.8237 35.0804 28.7079C35.1966 28.7079 35.3128 28.7079 35.4291 28.7079C35.4291 28.6114 35.4291 28.5149 35.4291 28.4184C35.5332 28.5299 35.5914 28.665 35.6034 28.8237C35.5019 29.0453 35.3857 29.2576 35.2547 29.4607C34.5574 29.4607 33.8601 29.4607 33.1628 29.4607C33.1628 29.3449 33.1628 29.2291 33.1628 29.1132C32.9304 29.094 32.698 29.0746 32.4655 29.0553C32.4462 28.8237 32.4268 28.5921 32.4074 28.3605C32.0933 28.4048 31.9771 28.2696 32.0588 27.9551C32.2962 27.5396 32.548 27.1342 32.8142 26.7391Z" fill="#EFEFE5"/>
<path fill-rule="evenodd" clip-rule="evenodd" d="M55.5926 27.5498C55.9959 28.1834 56.4996 28.7238 57.1034 29.1711C56.0459 29.7849 54.9806 30.3832 53.9074 30.9662C53.3646 30.4826 52.9192 29.9228 52.5709 29.287C53.5587 28.6788 54.5659 28.0998 55.5926 27.5498Z" fill="#EFEFE5"/>
<path fill-rule="evenodd" clip-rule="evenodd" d="M48.9101 27.6077C48.9101 27.8393 48.9101 28.0709 48.9101 28.3026C49.2588 28.2254 49.3943 28.3605 49.3169 28.7079C49.4468 28.6908 49.563 28.7102 49.6655 28.7658C49.6655 28.8816 49.6655 28.9974 49.6655 29.1132C49.7818 29.1132 49.898 29.1132 50.0142 29.1132C50.0142 29.2098 50.0142 29.3062 50.0142 29.4028C50.6133 29.4514 51.2137 29.4706 51.8155 29.4607C51.6893 29.7127 51.5343 29.9443 51.3507 30.1556C50.9052 30.1556 50.4597 30.1556 50.0142 30.1556C50.0142 30.0397 50.0142 29.9239 50.0142 29.8081C49.7818 29.8081 49.5493 29.8081 49.3169 29.8081C49.3169 29.6923 49.3169 29.5765 49.3169 29.4607C49.1813 29.4607 49.0457 29.4607 48.9101 29.4607C48.9101 29.3256 48.9101 29.1904 48.9101 29.0553C48.7939 29.0553 48.6777 29.0553 48.5615 29.0553C48.5615 28.8237 48.5615 28.5921 48.5615 28.3605C48.4865 28.3742 48.4284 28.3549 48.3872 28.3026C48.5622 28.0687 48.7365 27.8371 48.9101 27.6077Z" fill="#EFEFE5"/>
<path fill-rule="evenodd" clip-rule="evenodd" d="M32.8142 27.6077C32.8043 27.6842 32.8237 27.7518 32.8723 27.8103C33.1505 27.8603 33.2667 28.0244 33.2209 28.3026C33.4534 28.3218 33.6858 28.3412 33.9182 28.3605C33.9182 28.4763 33.9182 28.5921 33.9182 28.7079C34.3056 28.7079 34.693 28.7079 35.0804 28.7079C35.0804 28.8237 35.0804 28.9395 35.0804 29.0553C34.5768 29.0553 34.0732 29.0553 33.5696 29.0553C33.5696 28.9395 33.5696 28.8237 33.5696 28.7079C33.434 28.7079 33.2984 28.7079 33.1628 28.7079C33.1628 28.5921 33.1628 28.4763 33.1628 28.3605C33.0466 28.3605 32.9304 28.3605 32.8142 28.3605C32.8142 28.2254 32.8142 28.0902 32.8142 27.9551C32.698 27.9551 32.5818 27.9551 32.4655 27.9551C32.4655 27.8393 32.4655 27.7235 32.4655 27.6077C32.5818 27.6077 32.698 27.6077 32.8142 27.6077Z" fill="#EFEFE5"/>
<path fill-rule="evenodd" clip-rule="evenodd" d="M32.0588 27.9551C31.9771 28.2696 32.0933 28.4048 32.4074 28.3605C32.4268 28.5921 32.4462 28.8237 32.4655 29.0553C32.698 29.0746 32.9304 29.094 33.1628 29.1132C33.1628 29.2291 33.1628 29.3449 33.1628 29.4607C33.8601 29.4607 34.5574 29.4607 35.2547 29.4607C35.0056 29.8613 34.715 30.228 34.3831 30.5609C34.1111 30.5511 33.8399 30.5318 33.5696 30.503C33.5696 30.4065 33.5696 30.31 33.5696 30.2135C33.2026 30.1781 32.8346 30.1589 32.4655 30.1556C32.4655 30.0397 32.4655 29.9239 32.4655 29.8081C32.33 29.8081 32.1943 29.8081 32.0588 29.8081C32.0588 29.673 32.0588 29.5379 32.0588 29.4028C31.9426 29.4028 31.8263 29.4028 31.7101 29.4028C31.7101 29.287 31.7101 29.1711 31.7101 29.0553C31.5939 29.0553 31.4777 29.0553 31.3615 29.0553C31.3693 28.9516 31.3499 28.8551 31.3034 28.7658C31.5568 28.494 31.8086 28.2239 32.0588 27.9551Z" fill="#EFEFE5"/>
<path fill-rule="evenodd" clip-rule="evenodd" d="M48.3872 28.3026C48.4284 28.3549 48.4865 28.3742 48.5615 28.3605C48.5615 28.5921 48.5615 28.8237 48.5615 29.0553C48.6777 29.0553 48.7939 29.0553 48.9101 29.0553C48.9101 29.1904 48.9101 29.3256 48.9101 29.4607C49.0457 29.4607 49.1813 29.4607 49.3169 29.4607C49.3169 29.5765 49.3169 29.6923 49.3169 29.8081C49.5493 29.8081 49.7818 29.8081 50.0142 29.8081C50.0142 29.9239 50.0142 30.0397 50.0142 30.1556C50.4597 30.1556 50.9052 30.1556 51.3507 30.1556C51.2751 30.3253 51.1589 30.4605 51.002 30.5609C50.6745 30.4956 50.3453 30.4377 50.0142 30.3872C50.0142 30.3293 50.0142 30.2714 50.0142 30.2135C49.7807 30.205 49.5482 30.1857 49.3169 30.1556C49.3613 29.8425 49.2257 29.7267 48.9101 29.8081C48.924 29.6942 48.9047 29.588 48.852 29.4896C48.642 29.4354 48.429 29.4065 48.2128 29.4028C48.1826 29.1722 48.1632 28.9406 48.1547 28.7079C48.0966 28.7079 48.0385 28.7079 47.9804 28.7079C48.0966 28.5535 48.2322 28.4184 48.3872 28.3026Z" fill="#EFEFE5"/>
<path fill-rule="evenodd" clip-rule="evenodd" d="M47.9804 28.7079C48.0385 28.7079 48.0966 28.7079 48.1547 28.7079C48.1632 28.9406 48.1826 29.1722 48.2128 29.4028C48.429 29.4065 48.642 29.4354 48.852 29.4896C48.9047 29.588 48.924 29.6942 48.9101 29.8081C49.2257 29.7267 49.3613 29.8425 49.3169 30.1556C49.5482 30.1857 49.7807 30.205 50.0142 30.2135C50.0142 30.2714 50.0142 30.3293 50.0142 30.3872C50.3453 30.4377 50.6745 30.4956 51.002 30.5609C50.899 30.7091 50.7828 30.8442 50.6534 30.9662C50.5709 30.9112 50.4741 30.8919 50.3628 30.9083C50.3628 30.7925 50.3628 30.6767 50.3628 30.5609C49.9948 30.5609 49.6268 30.5609 49.2588 30.5609C49.1426 30.5609 49.0263 30.5609 48.9101 30.5609C48.9101 30.4451 48.9101 30.3293 48.9101 30.2135C48.7939 30.2135 48.6777 30.2135 48.5615 30.2135C48.5615 30.0784 48.5615 29.9432 48.5615 29.8081C48.3097 29.8081 48.0579 29.8081 47.8061 29.8081C47.8061 29.4993 47.8061 29.1904 47.8061 28.8816C47.8448 28.8044 47.903 28.7465 47.9804 28.7079Z" fill="#EFEFE5"/>
<path fill-rule="evenodd" clip-rule="evenodd" d="M31.3034 28.7658C31.3499 28.8551 31.3693 28.9516 31.3615 29.0553C31.4777 29.0553 31.5939 29.0553 31.7101 29.0553C31.7101 29.1711 31.7101 29.287 31.7101 29.4028C31.8263 29.4028 31.9426 29.4028 32.0588 29.4028C32.0588 29.5379 32.0588 29.673 32.0588 29.8081C32.1943 29.8081 32.33 29.8081 32.4655 29.8081C32.4655 29.9239 32.4655 30.0397 32.4655 30.1556C32.8346 30.1589 33.2026 30.1781 33.5696 30.2135C33.5696 30.31 33.5696 30.4065 33.5696 30.503C33.8399 30.5318 34.1111 30.5511 34.3831 30.5609C34.2112 30.8288 33.9982 31.0604 33.7439 31.2558C33.6858 31.2558 33.6277 31.2558 33.5696 31.2558C33.5696 31.1592 33.5696 31.0628 33.5696 30.9662C33.1833 30.9292 32.7959 30.9099 32.4074 30.9083C32.4074 30.7925 32.4074 30.6767 32.4074 30.5609C32.175 30.5609 31.9426 30.5609 31.7101 30.5609C31.7198 30.3285 31.7101 30.0968 31.6811 29.866C31.6524 29.9606 31.6427 30.0572 31.652 30.1556C31.5552 30.1556 31.4584 30.1556 31.3615 30.1556C31.3421 29.9239 31.3227 29.6923 31.3034 29.4607C31.1872 29.4607 31.0709 29.4607 30.9547 29.4607C30.9547 29.3256 30.9547 29.1904 30.9547 29.0553C31.0472 28.9318 31.1634 28.8353 31.3034 28.7658Z" fill="#EFEFE5"/>
<path fill-rule="evenodd" clip-rule="evenodd" d="M47.8061 28.8816C47.8061 29.1904 47.8061 29.4993 47.8061 29.8081C48.0579 29.8081 48.3097 29.8081 48.5615 29.8081C48.5615 29.9432 48.5615 30.0784 48.5615 30.2135C48.6777 30.2135 48.7939 30.2135 48.9101 30.2135C48.9101 30.3293 48.9101 30.4451 48.9101 30.5609C49.0263 30.5609 49.1426 30.5609 49.2588 30.5609C49.2588 30.6767 49.2588 30.7925 49.2588 30.9083C49.0523 30.8884 48.8489 30.8498 48.6487 30.7925C48.6196 30.8118 48.5905 30.8312 48.5615 30.8504C48.8065 30.9322 49.0583 30.9708 49.3169 30.9662C49.3169 31.0628 49.3169 31.1592 49.3169 31.2558C49.6187 31.2697 49.9092 31.3083 50.1885 31.3716C50.0407 31.5615 49.8664 31.7256 49.6655 31.8638C49.5738 31.9271 49.477 31.9754 49.375 32.0086C49.3192 31.9064 49.2998 31.7905 49.3169 31.6611C49.1813 31.6611 49.0457 31.6611 48.9101 31.6611C48.9101 31.7769 48.9101 31.8928 48.9101 32.0086C48.7939 32.0086 48.6777 32.0086 48.5615 32.0086C48.578 31.8188 48.5586 31.6355 48.5034 31.4585C48.1579 31.3838 47.8092 31.3355 47.4574 31.3137C47.4574 31.1979 47.4574 31.0821 47.4574 30.9662C47.1088 31.0434 46.9732 30.9083 47.0507 30.5609C46.9345 30.5609 46.8182 30.5609 46.702 30.5609C46.702 30.4258 46.702 30.2907 46.702 30.1556C46.5858 30.1556 46.4696 30.1556 46.3534 30.1556C46.3705 30.0261 46.3511 29.9103 46.2953 29.8081C46.8178 29.5285 47.3215 29.2197 47.8061 28.8816Z" fill="#EFEFE5"/>
<path fill-rule="evenodd" clip-rule="evenodd" d="M30.9547 29.0553C30.9547 29.1904 30.9547 29.3256 30.9547 29.4607C31.0709 29.4607 31.1872 29.4607 31.3034 29.4607C31.3227 29.6923 31.3421 29.9239 31.3615 30.1556C31.4584 30.1556 31.5552 30.1556 31.652 30.1556C31.6427 30.0572 31.6524 29.9606 31.6811 29.866C31.7101 30.0968 31.7198 30.3285 31.7101 30.5609C31.9426 30.5609 32.175 30.5609 32.4074 30.5609C32.4074 30.6767 32.4074 30.7925 32.4074 30.9083C32.7959 30.9099 33.1833 30.9292 33.5696 30.9662C33.5696 31.0628 33.5696 31.1592 33.5696 31.2558C33.6277 31.2558 33.6858 31.2558 33.7439 31.2558C33.5866 31.4126 33.4122 31.5477 33.2209 31.6611C32.9072 31.6016 32.6166 31.4761 32.3493 31.2847C32.2544 31.2561 32.1575 31.2465 32.0588 31.2558C32.0715 31.1877 32.0522 31.1298 32.0007 31.0821C31.665 30.8959 31.3357 30.7125 31.0128 30.5319C30.9741 30.4161 30.9354 30.3003 30.8966 30.1845C30.8017 30.1559 30.7048 30.1463 30.6061 30.1556C30.6173 29.9521 30.5785 29.7591 30.4899 29.5765C30.418 29.5333 30.3405 29.514 30.2574 29.5186C30.4727 29.3434 30.7052 29.189 30.9547 29.0553Z" fill="#EFEFE5"/>
<path fill-rule="evenodd" clip-rule="evenodd" d="M49.6655 28.7658C49.7818 28.7658 49.898 28.7658 50.0142 28.7658C50.0142 28.8623 50.0142 28.9588 50.0142 29.0553C50.3808 29.0953 50.7488 29.1146 51.1182 29.1132C51.1182 29.2098 51.1182 29.3062 51.1182 29.4028C51.2345 29.4028 51.3507 29.4028 51.4669 29.4028C51.4669 29.3062 51.4669 29.2098 51.4669 29.1132C51.6919 29.1282 51.905 29.0896 52.1061 28.9974C52.0548 29.183 51.9579 29.3374 51.8155 29.4607C51.2137 29.4706 50.6133 29.4514 50.0142 29.4028C50.0142 29.3062 50.0142 29.2098 50.0142 29.1132C49.898 29.1132 49.7818 29.1132 49.6655 29.1132C49.6655 28.9974 49.6655 28.8816 49.6655 28.7658Z" fill="#EFEFE5"/>
<path fill-rule="evenodd" clip-rule="evenodd" d="M57.1034 29.1711C58.1507 29.8857 59.3126 30.2525 60.5899 30.2714C59.1953 31.1013 57.8007 31.9314 56.4061 32.7614C55.4393 32.3473 54.6064 31.7489 53.9074 30.9662C54.9806 30.3832 56.0459 29.7849 57.1034 29.1711Z" fill="#EFEFE5"/>
<path fill-rule="evenodd" clip-rule="evenodd" d="M30.2574 29.5186C30.3405 29.514 30.418 29.5333 30.4899 29.5765C30.5785 29.7591 30.6173 29.9521 30.6061 30.1556C30.7048 30.1463 30.8017 30.1559 30.8966 30.1845C30.9354 30.3003 30.9741 30.4161 31.0128 30.5319C31.3357 30.7125 31.665 30.8959 32.0007 31.0821C32.0522 31.1298 32.0715 31.1877 32.0588 31.2558C32.1575 31.2465 32.2544 31.2561 32.3493 31.2847C32.6166 31.4761 32.9072 31.6016 33.2209 31.6611C33.0217 31.879 32.7893 32.0527 32.5237 32.1823C32.5172 32.1466 32.4979 32.1176 32.4655 32.0954C32.2163 32.042 31.9645 32.013 31.7101 32.0086C31.7101 31.8928 31.7101 31.7769 31.7101 31.6611C31.5746 31.6611 31.4389 31.6611 31.3034 31.6611C31.3034 31.7769 31.3034 31.8928 31.3034 32.0086C31.1872 32.0086 31.071 32.0086 30.9547 32.0086C30.9547 31.8928 30.9547 31.7769 30.9547 31.6611C30.8385 31.6611 30.7223 31.6611 30.6061 31.6611C30.6061 31.5453 30.6061 31.4295 30.6061 31.3137C31.0709 31.2944 31.0709 31.2751 30.6061 31.2558C30.5867 30.8697 30.5673 30.8697 30.548 31.2558C30.4318 31.2558 30.3155 31.2558 30.1993 31.2558C30.1993 31.14 30.1993 31.0242 30.1993 30.9083C30.0831 30.9083 29.9669 30.9083 29.8507 30.9083C29.8507 30.6767 29.8507 30.4451 29.8507 30.2135C30.3155 30.1942 30.3155 30.1748 29.8507 30.1556C29.8414 30.0572 29.851 29.9606 29.8797 29.866C29.9766 29.9239 30.0734 29.9818 30.1703 30.0397C30.1987 29.9649 30.2085 29.8876 30.1993 29.8081C30.0493 29.8356 29.9331 29.797 29.8507 29.6923C29.9793 29.6186 30.1148 29.5607 30.2574 29.5186Z" fill="#EFEFE5"/>
<path fill-rule="evenodd" clip-rule="evenodd" d="M41.0074 29.5186C42.7262 30.3944 44.4888 30.4909 46.2953 29.8081C46.3511 29.9103 46.3705 30.0261 46.3534 30.1556C46.4696 30.1556 46.5858 30.1556 46.702 30.1556C46.702 30.2907 46.702 30.4258 46.702 30.5609C46.8182 30.5609 46.9345 30.5609 47.0507 30.5609C46.9732 30.9083 47.1088 31.0434 47.4574 30.9662C47.4574 31.0821 47.4574 31.1979 47.4574 31.3137C47.8092 31.3355 48.1579 31.3838 48.5034 31.4585C48.5586 31.6355 48.578 31.8188 48.5615 32.0086C48.6777 32.0086 48.7939 32.0086 48.9101 32.0086C48.9101 31.8928 48.9101 31.7769 48.9101 31.6611C49.0457 31.6611 49.1813 31.6611 49.3169 31.6611C49.2998 31.7905 49.3192 31.9064 49.375 32.0086C48.1677 32.899 46.8119 33.4395 45.3074 33.6299C45.3698 33.5266 45.4666 33.4591 45.598 33.4273C45.6675 33.3894 45.6675 33.3604 45.598 33.3404C44.7573 33.4523 43.9243 33.5681 43.0993 33.6879C40.3349 33.4208 38.1074 32.2048 36.4169 30.0397C37.9476 29.8708 39.4778 29.6971 41.0074 29.5186Z" fill="#EFEFE5"/>
<path fill-rule="evenodd" clip-rule="evenodd" d="M29.8507 29.6923C29.9331 29.797 30.0493 29.8356 30.1993 29.8081C30.2085 29.8876 30.1987 29.9649 30.1703 30.0397C30.0734 29.9818 29.9766 29.9239 29.8797 29.866C29.851 29.9606 29.8414 30.0572 29.8507 30.1556C30.3155 30.1748 30.3155 30.1942 29.8507 30.2135C29.8507 30.4451 29.8507 30.6767 29.8507 30.9083C29.9669 30.9083 30.0831 30.9083 30.1993 30.9083C30.1993 31.0242 30.1993 31.14 30.1993 31.2558C30.3155 31.2558 30.4318 31.2558 30.548 31.2558C30.5673 30.8697 30.5867 30.8697 30.6061 31.2558C31.0709 31.2751 31.0709 31.2944 30.6061 31.3137C30.6061 31.4295 30.6061 31.5453 30.6061 31.6611C30.7223 31.6611 30.8385 31.6611 30.9547 31.6611C30.9547 31.7769 30.9547 31.8928 30.9547 32.0086C31.071 32.0086 31.1872 32.0086 31.3034 32.0086C31.3034 31.8928 31.3034 31.7769 31.3034 31.6611C31.4389 31.6611 31.5746 31.6611 31.7101 31.6611C31.7101 31.7769 31.7101 31.8928 31.7101 32.0086C31.9645 32.013 32.2163 32.042 32.4655 32.0954C32.4979 32.1176 32.5172 32.1466 32.5237 32.1823C32.0576 32.5112 31.5539 32.7814 31.0128 32.993C30.4965 32.7494 29.993 32.4791 29.502 32.1823C29.4505 32.1345 29.4312 32.0766 29.4439 32.0086C29.1534 32.0665 29.0372 31.9507 29.0953 31.6611C28.9597 31.6611 28.8241 31.6611 28.6885 31.6611C28.6981 31.4671 28.6884 31.2741 28.6595 31.0821C28.215 30.8177 27.7792 30.5474 27.352 30.2714C28.2277 30.251 29.0606 30.058 29.8507 29.6923Z" fill="#EFEFE5"/>
<path fill-rule="evenodd" clip-rule="evenodd" d="M49.2588 30.5609C49.6268 30.5609 49.9948 30.5609 50.3628 30.5609C50.3628 30.6767 50.3628 30.7925 50.3628 30.9083C50.4741 30.8919 50.5709 30.9112 50.6534 30.9662C50.5343 31.1429 50.3793 31.278 50.1885 31.3716C49.9092 31.3083 49.6187 31.2697 49.3169 31.2558C49.3169 31.1592 49.3169 31.0628 49.3169 30.9662C49.0583 30.9708 48.8065 30.9322 48.5615 30.8504C48.5905 30.8312 48.6196 30.8118 48.6487 30.7925C48.8489 30.8498 49.0523 30.8884 49.2588 30.9083C49.2588 30.7925 49.2588 30.6767 49.2588 30.5609Z" fill="#EFEFE5"/>
<path fill-rule="evenodd" clip-rule="evenodd" d="M25.0277 33.3983C23.6237 32.5732 22.2097 31.7625 20.7858 30.9662C21.9597 32.1789 23.3737 32.9896 25.0277 33.3983Z" fill="#EFEFE5"/>
<path fill-rule="evenodd" clip-rule="evenodd" d="M66.9818 31.0821C65.9021 32.1938 64.6046 32.9466 63.0885 33.3404C64.357 32.544 65.6552 31.7912 66.9818 31.0821Z" fill="#EFEFE5"/>
<path fill-rule="evenodd" clip-rule="evenodd" d="M45.3074 33.6299C44.5745 33.7484 43.8385 33.7676 43.0993 33.6879C43.9243 33.5681 44.7573 33.4523 45.598 33.3404C45.6675 33.3604 45.6675 33.3894 45.598 33.4273C45.4666 33.4591 45.3698 33.5266 45.3074 33.6299Z" fill="#EFEFE5"/>
<path fill-rule="evenodd" clip-rule="evenodd" d="M13.6966 43.0108C14.6904 43.0845 15.01 43.5863 14.6554 44.5164C14.1678 44.9549 13.6641 44.9742 13.1446 44.5743C12.7597 43.8426 12.9437 43.3215 13.6966 43.0108Z" fill="#EFEFE5"/>
<path fill-rule="evenodd" clip-rule="evenodd" d="M0.970947 52.3916C0.970947 49.6121 0.970947 46.8326 0.970947 44.0531C1.10254 43.623 1.39308 43.3625 1.84257 43.2714C2.4085 43.1431 2.90242 43.2685 3.32433 43.6478C4.30886 46.0154 5.27733 48.3896 6.22973 50.7703C7.15946 48.454 8.08919 46.1377 9.01892 43.8215C9.29429 43.39 9.6914 43.1969 10.2101 43.2424C10.8366 43.2021 11.253 43.4723 11.4595 44.0531C11.4982 46.8326 11.4982 49.6121 11.4595 52.3916C11.2552 52.8203 10.9163 52.9844 10.4426 52.8838C10.1691 52.8199 9.98508 52.6558 9.89054 52.3916C9.87119 50.2491 9.85178 48.1066 9.83243 45.964C8.94146 48.1258 8.05043 50.2877 7.15946 52.4495C6.53964 53.0672 5.91982 53.0672 5.3 52.4495C4.40901 50.2877 3.51802 48.1258 2.62703 45.964C2.60766 48.1066 2.58829 50.2491 2.56892 52.3916C2.2606 52.9244 1.82479 53.0499 1.26149 52.768C1.14235 52.6542 1.0455 52.5288 0.970947 52.3916Z" fill="#EFEFE5"/>
<path fill-rule="evenodd" clip-rule="evenodd" d="M39.4385 43.3003C40.6396 43.2907 41.8405 43.3003 43.0412 43.3293C44.0775 43.339 44.9007 43.7539 45.5108 44.5743C45.9532 45.4924 45.9338 46.3995 45.4527 47.2959C45.3074 47.5178 45.1234 47.7012 44.9007 47.846C46.3483 48.7046 46.726 49.911 46.0338 51.4651C45.5252 52.2452 44.7988 52.6795 43.8547 52.768C42.365 52.86 40.8735 52.8793 39.3804 52.8259C39.1662 52.7629 39.0016 52.6375 38.8865 52.4495C38.7902 49.5977 38.7709 46.7409 38.8284 43.8794C38.9508 43.5932 39.1541 43.4002 39.4385 43.3003ZM40.4264 44.8638C41.3779 44.8403 42.3271 44.8692 43.2737 44.9507C44.2434 45.2754 44.4855 45.8834 44 46.7747C43.7141 47.0377 43.3751 47.1825 42.9831 47.209C42.1311 47.238 41.2788 47.2476 40.4264 47.238C40.4264 46.4466 40.4264 45.6552 40.4264 44.8638ZM40.4264 48.7435C41.2788 48.7339 42.1311 48.7435 42.9831 48.7725C43.5672 48.7734 44.0804 48.9567 44.523 49.3226C44.9666 50.504 44.5502 51.1506 43.2737 51.2625C42.3247 51.2914 41.3757 51.3011 40.4264 51.2914C40.4264 50.4421 40.4264 49.5928 40.4264 48.7435Z" fill="#EFEFE5"/>
<path fill-rule="evenodd" clip-rule="evenodd" d="M18.9264 52.9707C18.5002 52.9707 18.0741 52.9707 17.648 52.9707C17.0024 52.8689 16.3826 52.6662 15.7885 52.3627C15.3908 51.9213 15.4102 51.4967 15.8466 51.0887C15.9648 51.0305 16.0907 51.0015 16.2243 51.0019C16.678 51.1267 17.1332 51.2522 17.5899 51.3783C17.9966 51.4169 18.4034 51.4169 18.8101 51.3783C19.3017 51.3331 19.5051 51.0725 19.4203 50.5965C19.1961 50.4511 18.954 50.3449 18.6939 50.2781C17.8267 50.1299 17.0132 49.8403 16.2534 49.4095C15.472 48.6112 15.3461 47.7136 15.8757 46.7168C16.1888 46.3084 16.5859 46.0092 17.0669 45.8193C18.1874 45.5352 19.2914 45.5931 20.3791 45.993C20.8506 46.2642 20.9572 46.6406 20.6986 47.1222C20.4581 47.3949 20.1579 47.4818 19.798 47.3827C19.1899 47.2011 18.5701 47.1432 17.9385 47.209C17.5295 47.2571 17.2583 47.4695 17.125 47.846C17.1778 48.0338 17.294 48.1689 17.4736 48.2513C18.3846 48.4832 19.2756 48.7727 20.1466 49.1199C20.9005 49.6287 21.2007 50.3333 21.0473 51.2335C20.8612 51.9789 20.406 52.4905 19.6818 52.768C19.425 52.8463 19.1732 52.9139 18.9264 52.9707Z" fill="#EFEFE5"/>
<path fill-rule="evenodd" clip-rule="evenodd" d="M25.8993 52.9707C25.4345 52.9707 24.9696 52.9707 24.5047 52.9707C22.7748 52.704 21.7966 51.7002 21.5703 49.9596C21.4186 48.8274 21.651 47.7851 22.2676 46.8326C23.2545 45.7444 24.4652 45.3873 25.8993 45.7613C27.3 46.2641 28.0651 47.2581 28.1946 48.7435C28.3312 49.3228 28.1278 49.7185 27.5845 49.9306C26.1318 49.9499 24.6791 49.9692 23.2264 49.9885C23.3959 50.6786 23.822 51.1226 24.5047 51.3204C24.9465 51.4086 25.3919 51.4278 25.8412 51.3783C26.3227 51.283 26.7876 51.1382 27.2358 50.944C27.8175 51.0223 28.0597 51.3504 27.9622 51.9284C27.9161 52.0492 27.8483 52.1554 27.7588 52.2469C27.1799 52.6094 26.5601 52.8506 25.8993 52.9707ZM24.7953 47.0642C25.7521 47.1142 26.3332 47.5968 26.5385 48.5119C25.4345 48.5119 24.3304 48.5119 23.2264 48.5119C23.3993 47.6444 23.9223 47.1618 24.7953 47.0642Z" fill="#EFEFE5"/>
<path fill-rule="evenodd" clip-rule="evenodd" d="M31.9426 52.9707C31.5165 52.9707 31.0903 52.9707 30.6642 52.9707C30.0187 52.8689 29.3988 52.6662 28.8047 52.3627C28.407 51.9213 28.4264 51.4967 28.8628 51.0887C28.981 51.0305 29.1069 51.0015 29.2405 51.0019C29.6942 51.1267 30.1494 51.2522 30.6061 51.3783C31.0128 51.4169 31.4196 51.4169 31.8264 51.3783C32.3179 51.3331 32.5213 51.0725 32.4365 50.5965C32.2123 50.4511 31.9702 50.3449 31.7101 50.2781C30.8429 50.1299 30.0294 49.8403 29.2696 49.4095C28.4882 48.6112 28.3624 47.7136 28.8919 46.7168C29.205 46.3084 29.6021 46.0092 30.0831 45.8193C31.2036 45.5352 32.3077 45.5931 33.3953 45.993C33.8668 46.2642 33.9734 46.6406 33.7149 47.1222C33.4743 47.3949 33.1741 47.4818 32.8142 47.3827C32.2061 47.2011 31.5863 47.1432 30.9547 47.209C30.5457 47.2571 30.2745 47.4695 30.1412 47.846C30.194 48.0338 30.3102 48.1689 30.4899 48.2513C31.4008 48.4832 32.2918 48.7727 33.1628 49.1199C33.9167 49.6287 34.2169 50.3333 34.0635 51.2335C33.8774 51.9789 33.4222 52.4905 32.698 52.768C32.4412 52.8463 32.1894 52.9139 31.9426 52.9707Z" fill="#EFEFE5"/>
<path fill-rule="evenodd" clip-rule="evenodd" d="M50.4791 45.6166C51.3322 45.5499 51.6906 45.9359 51.5541 46.7747C51.4669 46.9388 51.341 47.0642 51.1764 47.1511C50.2962 47.1314 49.5698 47.4499 48.9973 48.1066C48.9209 49.5106 48.8822 50.9196 48.8811 52.3337C48.6445 52.8694 48.2474 53.0335 47.6899 52.8259C47.5023 52.7354 47.3764 52.5907 47.3122 52.3916C47.2734 50.3456 47.2734 48.2996 47.3122 46.2536C47.5886 45.7141 48.0051 45.5693 48.5615 45.8193C48.7537 45.9801 48.8796 46.1828 48.9392 46.4273C49.3688 45.9872 49.8822 45.717 50.4791 45.6166Z" fill="#EFEFE5"/>
<path fill-rule="evenodd" clip-rule="evenodd" d="M55.7088 52.9707C55.3214 52.9707 54.934 52.9707 54.5466 52.9707C53.0175 52.6728 52.0587 51.7656 51.6703 50.2491C51.3447 48.7175 51.7417 47.4146 52.8615 46.3404C54.2581 45.4542 55.6914 45.3963 57.1615 46.1667C58.2218 46.9287 58.7448 47.971 58.7304 49.2936C58.6731 51.3154 57.6659 52.5411 55.7088 52.9707ZM54.7209 47.1801C55.9395 47.0544 56.7046 47.5756 57.0162 48.7435C57.1387 49.4463 57.0224 50.1026 56.6676 50.7123C55.8366 51.5724 54.9166 51.6785 53.9074 51.0308C53.2742 50.3455 53.0708 49.5444 53.2973 48.6277C53.474 47.8437 53.9486 47.3611 54.7209 47.1801Z" fill="#EFEFE5"/>
<path fill-rule="evenodd" clip-rule="evenodd" d="M72.6182 52.9707C72.1923 52.9707 71.7658 52.9707 71.3399 52.9707C70.6943 52.8689 70.0743 52.6662 69.4804 52.3627C69.0829 51.9213 69.1021 51.4967 69.5385 51.0887C69.6565 51.0305 69.7826 51.0015 69.9162 51.0019C70.37 51.1267 70.825 51.2522 71.2818 51.3783C71.6885 51.4169 72.0953 51.4169 72.502 51.3783C72.9936 51.3331 73.197 51.0725 73.1122 50.5965C72.8879 50.4511 72.6461 50.3449 72.3858 50.2781C71.5188 50.1299 70.7053 49.8403 69.9453 49.4095C69.1637 48.6112 69.0382 47.7136 69.5676 46.7168C69.8808 46.3084 70.2777 46.0092 70.7588 45.8193C71.8791 45.5352 72.9832 45.5931 74.071 45.993C74.5428 46.2642 74.6491 46.6406 74.3905 47.1222C74.15 47.3949 73.8496 47.4818 73.4899 47.3827C72.8821 47.2011 72.262 47.1432 71.6304 47.209C71.2213 47.2571 70.95 47.4695 70.8169 47.846C70.8698 48.0338 70.986 48.1689 71.1655 48.2513C72.0767 48.4832 72.9675 48.7727 73.8385 49.1199C74.5922 49.6287 74.8926 50.3333 74.7392 51.2335C74.5533 51.9789 74.0977 52.4905 73.3737 52.768C73.1168 52.8463 72.8652 52.9139 72.6182 52.9707Z" fill="#EFEFE5"/>
<path fill-rule="evenodd" clip-rule="evenodd" d="M79.5331 52.9707C79.0682 52.9707 78.6034 52.9707 78.1385 52.9707C76.4086 52.704 75.4307 51.7002 75.204 49.9596C75.0228 48.6406 75.3615 47.4825 76.2209 46.4852C77.1937 45.6759 78.2977 45.4346 79.5331 45.7613C80.9335 46.2641 81.6988 47.2581 81.8284 48.7435C81.9649 49.3228 81.7616 49.7185 81.2182 49.9306C79.7655 49.9499 78.3128 49.9692 76.8601 49.9885C77.0298 50.6786 77.4557 51.1226 78.1385 51.3204C78.5801 51.4086 79.0258 51.4278 79.475 51.3783C79.9567 51.283 80.4216 51.1382 80.8696 50.944C81.4513 51.0223 81.6936 51.3504 81.5959 51.9284C81.55 52.0492 81.482 52.1554 81.3926 52.2469C80.8138 52.6094 80.1938 52.8506 79.5331 52.9707ZM78.4291 47.0642C79.3861 47.1142 79.9672 47.5968 80.1723 48.5119C79.0682 48.5119 77.9642 48.5119 76.8601 48.5119C77.0333 47.6444 77.5563 47.1618 78.4291 47.0642Z" fill="#EFEFE5"/>
<path fill-rule="evenodd" clip-rule="evenodd" d="M86.9709 46.1377C86.9709 46.3501 86.9709 46.5624 86.9709 46.7747C86.6514 47.1806 86.2248 47.3447 85.6926 47.2669C85.1597 47.3928 84.7239 47.6727 84.3851 48.1066C84.309 49.5106 84.2701 50.9196 84.2689 52.3337C84.0324 52.8694 83.635 53.0335 83.0777 52.8259C82.89 52.7354 82.7639 52.5907 82.7 52.3916C82.6611 50.3456 82.6611 48.2996 82.7 46.2536C82.9307 45.7545 83.3084 45.5905 83.8331 45.7613C84.1033 45.9035 84.2678 46.1255 84.327 46.4273C84.9412 45.7793 85.6868 45.538 86.5642 45.7034C86.753 45.8043 86.8884 45.9491 86.9709 46.1377Z" fill="#EFEFE5"/>
<path fill-rule="evenodd" clip-rule="evenodd" d="M13.7547 45.6745C14.1936 45.6565 14.4937 45.8495 14.6554 46.2536C14.6942 48.2803 14.6942 50.307 14.6554 52.3337C14.374 52.9162 13.9382 53.061 13.348 52.768C13.225 52.6678 13.1378 52.5423 13.0865 52.3916C13.0477 50.3456 13.0477 48.2996 13.0865 46.2536C13.2149 45.9416 13.4376 45.7486 13.7547 45.6745Z" fill="#EFEFE5"/>
<path fill-rule="evenodd" clip-rule="evenodd" d="M59.602 45.6745C60.0256 45.6444 60.326 45.8182 60.5027 46.1956C60.9379 47.602 61.3639 49.0111 61.7811 50.4228C62.2442 49.0419 62.6893 47.6521 63.1176 46.2536C63.4215 45.7217 63.8573 45.5769 64.425 45.8193C64.5703 45.8868 64.6766 45.993 64.7446 46.1377C65.1909 47.5504 65.6458 48.9595 66.1101 50.3649C66.5785 48.8964 67.0532 47.4294 67.5338 45.964C67.9097 45.6329 68.3072 45.604 68.725 45.8772C68.9446 46.1586 69.0126 46.4771 68.9284 46.8326C68.2927 48.7329 67.6343 50.6245 66.9527 52.5075C66.3931 53.0475 65.8318 53.0475 65.2676 52.5075C64.8259 51.2351 64.3901 49.9612 63.9601 48.6856C63.5301 49.9612 63.0943 51.2351 62.6527 52.5075C62.2111 52.9616 61.7172 53.0292 61.1709 52.7101C61.0193 52.5979 60.9129 52.4531 60.8513 52.2758C60.1848 50.3511 59.5358 48.4209 58.9047 46.4852C58.9549 46.0497 59.1871 45.7795 59.602 45.6745Z" fill="#EFEFE5"/>
</g>
</svg>
