<svg width="152" height="32" viewBox="0 0 152 32" fill="none" xmlns="http://www.w3.org/2000/svg">
<g opacity="0.8">
<path fill-rule="evenodd" clip-rule="evenodd" d="M32.1238 24.1368L29.3227 21.3771L18.5406 32L0 13.7331L5.95791 7.8631L8.75901 10.6229L19.5411 0L38.0817 18.2669L32.1238 24.1368ZM11.5601 21.6181L3.55696 13.7331L5.95791 11.3675L8.75901 14.1273L19.5411 3.50445L24.7431 8.6297L22.3421 10.9953L19.5411 8.23547L11.1599 16.4928L13.9611 19.2525L11.5601 21.6181ZM13.3386 23.3703L18.5406 28.4955L29.3227 17.8727L32.1238 20.6325L34.5247 18.2669L26.5216 10.3819L24.1206 12.7475L26.9217 15.5072L18.5406 23.7646L15.7395 21.0048L13.3386 23.3703ZM18.5406 20.2601L14.7169 16.4928L19.5411 11.7399L23.3648 15.5072L18.5406 20.2601Z" fill="#EFEFE5"/>
<path d="M124.779 18.9748C124.829 18.5975 124.855 18.1697 124.855 17.893C124.779 14.1192 122.276 11.7543 118.497 11.7543C114.692 11.7543 112.139 14.396 112.139 18.3711C112.139 22.321 114.692 24.9375 118.778 24.9375C121.996 24.9375 124.165 23.0002 124.626 20.4592H121.868C121.51 21.8932 120.259 22.7234 118.625 22.7234C116.479 22.7234 115.1 21.2894 115.024 19.1006V18.9748H124.779ZM118.523 13.9431C120.437 13.9431 121.765 15.0249 121.996 16.937H115.126C115.331 15.1004 116.812 13.9431 118.523 13.9431Z" fill="#EFEFE5"/>
<path d="M132.944 24.9375C136.085 24.9375 138.435 23.3775 138.435 20.912C138.435 18.0439 136.009 17.4402 133.098 17.0879C131.234 16.8867 129.982 16.7357 129.982 15.5281C129.982 14.4966 131.054 13.8425 132.638 13.8425C134.246 13.8425 135.345 14.6727 135.498 15.8552H138.204C138.026 13.2135 135.779 11.7543 132.587 11.7543C129.497 11.7543 127.3 13.3141 127.3 15.7546C127.3 18.4213 129.625 19.0503 132.587 19.4025C134.553 19.6541 135.728 19.7547 135.728 21.1385C135.728 22.17 134.629 22.8241 132.97 22.8241C131.004 22.8241 129.828 21.8681 129.727 20.5346H127.02C127.122 23.3273 129.497 24.9375 132.944 24.9375Z" fill="#EFEFE5"/>
<path d="M146.51 24.9375C149.651 24.9375 152 23.3775 152 20.912C152 18.0439 149.574 17.4402 146.663 17.0879C144.799 16.8867 143.548 16.7357 143.548 15.5281C143.548 14.4966 144.62 13.8425 146.204 13.8425C147.812 13.8425 148.91 14.6727 149.064 15.8552H151.771C151.592 13.2135 149.345 11.7543 146.153 11.7543C143.063 11.7543 140.867 13.3141 140.867 15.7546C140.867 18.4213 143.19 19.0503 146.153 19.4025C148.119 19.6541 149.293 19.7547 149.293 21.1385C149.293 22.17 148.196 22.8241 146.535 22.8241C144.569 22.8241 143.395 21.8681 143.292 20.5346H140.586C140.688 23.3273 143.063 24.9375 146.51 24.9375Z" fill="#EFEFE5"/>
<path d="M107.026 22.3966V7.1756H100.489V9.5657H104.268V22.3966H100.489V24.7867H110.78V22.3966H107.026Z" fill="#EFEFE5"/>
<path d="M53.1891 22.3966V7.1756H46.6519V9.5657H50.4312V22.3966H46.6519V24.7867H56.9428V22.3966H53.1891Z" fill="#EFEFE5"/>
<path d="M64.9416 24.9376C68.8485 24.9376 71.5298 22.296 71.5298 18.3461C71.5298 14.4213 68.8485 11.7545 64.9416 11.7545C61.0091 11.7545 58.3534 14.4213 58.3534 18.3461C58.3534 22.296 61.0091 24.9376 64.9416 24.9376ZM64.9416 22.623C62.6689 22.623 61.1623 20.8368 61.1623 18.3461C61.1623 15.8554 62.6689 14.069 64.9416 14.069C67.1887 14.069 68.6953 15.8554 68.6953 18.3461C68.6953 20.8368 67.1887 22.623 64.9416 22.623Z" fill="#EFEFE5"/>
<path d="M79.5321 24.9376C82.6729 24.9376 85.0222 23.3777 85.0222 20.9122C85.0222 18.0441 82.5964 17.4404 79.6852 17.0881C77.8212 16.8868 76.57 16.7359 76.57 15.5282C76.57 14.4968 77.6424 13.8426 79.2256 13.8426C80.8344 13.8426 81.9324 14.6729 82.0856 15.8554H84.7924C84.6136 13.2137 82.3665 11.7545 79.1746 11.7545C76.0847 11.7545 73.8887 13.3143 73.8887 15.7546C73.8887 18.4215 76.2124 19.0504 79.1746 19.4027C81.1408 19.6543 82.3155 19.7549 82.3155 21.1386C82.3155 22.1702 81.2174 22.8243 79.5576 22.8243C77.5914 22.8243 76.4167 21.8682 76.3146 20.5348H73.6078C73.71 23.3275 76.0847 24.9376 79.5321 24.9376Z" fill="#EFEFE5"/>
<path d="M93.0978 24.9376C96.2391 24.9376 98.5884 23.3777 98.5884 20.9122C98.5884 18.0441 96.1618 17.4404 93.2507 17.0881C91.3867 16.8868 90.136 16.7359 90.136 15.5282C90.136 14.4968 91.208 13.8426 92.7911 13.8426C94.4 13.8426 95.4978 14.6729 95.6516 15.8554H98.3582C98.1796 13.2137 95.9324 11.7545 92.7404 11.7545C89.6507 11.7545 87.4545 13.3143 87.4545 15.7546C87.4545 18.4215 89.7778 19.0504 92.7404 19.4027C94.7067 19.6543 95.8809 19.7549 95.8809 21.1386C95.8809 22.1702 94.7831 22.8243 93.1236 22.8243C91.1573 22.8243 89.9822 21.8682 89.88 20.5348H87.1736C87.2757 23.3275 89.6507 24.9376 93.0978 24.9376Z" fill="#EFEFE5"/>
</g>
</svg>
