<svg width="138" height="34" viewBox="0 0 138 34" fill="none" xmlns="http://www.w3.org/2000/svg">
<g opacity="0.8">
<path d="M47.853 23.8152V10.9592H50.4303V16.0191H55.4819V10.9592H58.0601V23.8152H55.4819V18.1943H50.4303V23.8152H47.853Z" fill="#EFEFE5"/>
<path d="M78.6689 23.8152V18.4052L73.9915 10.9592H77.0136L80.0184 16.046L82.9624 10.9592H85.9321L81.2375 18.4225V23.8152H78.6689Z" fill="#EFEFE5"/>
<path d="M105.06 23.8152L100.496 10.9592H103.291L106.523 20.4748L109.649 10.9592H112.383L107.811 23.8152H105.06Z" fill="#EFEFE5"/>
<path d="M128.288 23.8152V10.9592H137.755V13.1344H130.866V15.9846H137.276V18.1501H130.866V21.6497H138V23.8152H128.288Z" fill="#EFEFE5"/>
<path d="M9.92408 18.8924H1.92193C1.41221 18.8924 0.923357 18.6931 0.562923 18.3384C0.20249 17.9836 0 17.5025 0 17.0009C0 16.4993 0.20249 16.0182 0.562923 15.6634C0.923357 15.3088 1.41221 15.1094 1.92193 15.1094H9.92408C9.48979 16.3342 9.48979 17.6677 9.92408 18.8924Z" fill="#EFEFE5"/>
<path d="M15.3509 13.2249C16.1099 13.2239 16.852 13.4447 17.4835 13.859C18.1149 14.2733 18.6073 14.8625 18.8983 15.5524C19.1894 16.2421 19.266 17.0013 19.1185 17.734C18.971 18.4666 18.606 19.1397 18.0696 19.6681C17.5334 20.1966 16.8498 20.5566 16.1056 20.7026C15.3612 20.8487 14.5898 20.7742 13.8885 20.4885C13.1872 20.2029 12.5879 19.719 12.1662 19.0981C11.7444 18.4771 11.5193 17.7471 11.5193 17.0001C11.5192 15.9997 11.9227 15.04 12.6412 14.332C13.3596 13.6241 14.3343 13.226 15.3509 13.2249Z" fill="#EFEFE5"/>
<path d="M18.6713 1.89051H12.0308C12.3663 1.31598 12.8499 0.838648 13.4327 0.506717C14.0157 0.174787 14.6773 0 15.3508 0C16.0244 0 16.686 0.174787 17.2688 0.506717C17.8518 0.838648 18.3358 1.31598 18.6713 1.89051Z" fill="#EFEFE5"/>
<path d="M12.0982 32.1095H18.7916C18.4505 32.6848 17.9621 33.1621 17.3751 33.4937C16.788 33.8254 16.1229 34 15.4458 34C14.7688 34 14.1037 33.8254 13.5166 33.4937C12.9296 33.1621 12.4412 32.6848 12.1 32.1095" fill="#EFEFE5"/>
<path d="M28.7784 22.6667C28.7784 23.1672 28.5769 23.6473 28.2179 24.0017C27.8588 24.3563 27.3716 24.5563 26.8631 24.5579H23.0223C22.7721 24.5633 22.534 24.6649 22.359 24.8409C22.1839 25.017 22.086 25.2535 22.086 25.4998C22.086 25.746 22.1839 25.9826 22.359 26.1586C22.534 26.3347 22.7721 26.4362 23.0223 26.4415C23.5311 26.4415 24.0189 26.6405 24.3787 26.9945C24.7384 27.3485 24.9404 27.8286 24.9404 28.3293C24.9404 28.8298 24.7384 29.3101 24.3787 29.664C24.0189 30.018 23.5311 30.2169 23.0223 30.2169H7.67856C7.16985 30.2169 6.68198 30.018 6.32226 29.664C5.96256 29.3101 5.76047 28.8298 5.76047 28.3293C5.76047 27.8286 5.96256 27.3485 6.32226 26.9945C6.68198 26.6405 7.16985 26.4415 7.67856 26.4415H17.2659C17.3932 26.4443 17.52 26.422 17.6384 26.3758C17.757 26.3297 17.865 26.2608 17.9562 26.173C18.0472 26.0854 18.1196 25.9806 18.169 25.865C18.2184 25.7493 18.2439 25.6251 18.2439 25.4998C18.2439 25.3743 18.2184 25.2502 18.169 25.1345C18.1196 25.0189 18.0472 24.9141 17.9562 24.8264C17.865 24.7387 17.757 24.6698 17.6384 24.6236C17.52 24.5775 17.3932 24.5552 17.2659 24.5579H3.83785C3.33323 24.5503 2.8519 24.3476 2.49779 23.9938C2.14368 23.6399 1.94519 23.1631 1.94519 22.6665C1.94519 22.1698 2.14368 21.6931 2.49779 21.3392C2.8519 20.9853 3.33323 20.7826 3.83785 20.7751H11.059C11.5987 21.3699 12.26 21.8458 12.9995 22.1717C13.7392 22.4976 14.5404 22.6661 15.3507 22.6661C16.1611 22.6661 16.9622 22.4976 17.7018 22.1717C18.4414 21.8458 19.1027 21.3699 19.6423 20.7751H26.8635C27.1155 20.7753 27.3651 20.8244 27.5977 20.9197C27.8304 21.0149 28.0418 21.1543 28.2196 21.33C28.3975 21.5057 28.5384 21.7143 28.6343 21.9436C28.7301 22.1729 28.7792 22.4186 28.7784 22.6667Z" fill="#EFEFE5"/>
<path d="M1.92187 11.3332C1.92236 10.8334 2.12448 10.3542 2.48381 10.001C2.84314 9.64781 3.33028 9.44946 3.83815 9.44958H7.67886C7.80504 9.44958 7.92999 9.42513 8.04656 9.3776C8.16315 9.33008 8.26906 9.26043 8.35829 9.17262C8.44751 9.08481 8.51829 8.98057 8.56657 8.86584C8.61486 8.75112 8.63972 8.62815 8.63972 8.50397C8.63972 8.37979 8.61486 8.25683 8.56657 8.1421C8.51829 8.02738 8.44751 7.92313 8.35829 7.83532C8.26906 7.74752 8.16315 7.67786 8.04656 7.63034C7.92999 7.58282 7.80504 7.55836 7.67886 7.55836C7.17015 7.55836 6.68228 7.35948 6.32257 7.00548C5.96285 6.65147 5.76077 6.17134 5.76077 5.6707C5.76077 5.17007 5.96285 4.68993 6.32257 4.33592C6.68228 3.98193 7.17015 3.78304 7.67886 3.78304H23.0226C23.5314 3.78304 24.0193 3.98193 24.379 4.33592C24.7386 4.68993 24.9407 5.17007 24.9407 5.6707C24.9407 6.17134 24.7386 6.65147 24.379 7.00548C24.0193 7.35948 23.5314 7.55836 23.0226 7.55836H13.4344C13.3083 7.55836 13.1834 7.58282 13.0667 7.63034C12.9502 7.67786 12.8442 7.74752 12.7551 7.83532C12.6658 7.92313 12.595 8.02738 12.5468 8.1421C12.4985 8.25683 12.4736 8.37979 12.4736 8.50397C12.4736 8.62815 12.4985 8.75112 12.5468 8.86584C12.595 8.98057 12.6658 9.08481 12.7551 9.17262C12.8442 9.26043 12.9502 9.33008 13.0667 9.3776C13.1834 9.42513 13.3083 9.44958 13.4344 9.44958H26.862C27.3707 9.44958 27.8585 9.64846 28.2183 10.0025C28.578 10.3565 28.7801 10.8366 28.7801 11.3373C28.7801 11.8378 28.578 12.318 28.2183 12.672C27.8585 13.026 27.3707 13.2249 26.862 13.2249H19.6414C19.1016 12.6302 18.4404 12.1544 17.701 11.8288C16.9615 11.503 16.1604 11.3345 15.3503 11.3345C14.5402 11.3345 13.7391 11.503 12.9996 11.8288C12.2602 12.1544 11.599 12.6302 11.0592 13.2249H3.83815C3.58609 13.2247 3.33655 13.1756 3.10378 13.0805C2.87101 12.9853 2.65959 12.8459 2.48161 12.6703C2.30363 12.4946 2.1626 12.2861 2.06654 12.0569C1.9705 11.8275 1.92134 11.5813 1.92187 11.3332Z" fill="#EFEFE5"/>
<path d="M30.7025 16.9999C30.7018 17.5018 30.4989 17.9829 30.1382 18.3375C29.7774 18.6922 29.2884 18.8915 28.7785 18.8916H20.7773C21.2194 17.6682 21.2194 16.3321 20.7773 15.1087H28.7785C29.2883 15.1089 29.7772 15.3082 30.1379 15.6628C30.4986 16.0173 30.7016 16.4982 30.7025 16.9999Z" fill="#EFEFE5"/>
</g>
</svg>
