<svg width="170" height="66" viewBox="0 0 170 66" fill="none" xmlns="http://www.w3.org/2000/svg">
<g opacity="0.8">
<path d="M17.1541 24.1946H0.389866C0.286465 24.1946 0.187302 24.2363 0.114188 24.3105C0.0410747 24.3847 0 24.4854 0 24.5903V41.6042C0 41.7091 0.0410747 41.8098 0.114188 41.884C0.187302 41.9582 0.286465 41.9999 0.389866 41.9999H17.1541C17.2575 41.9999 17.3566 41.9582 17.4297 41.884C17.5028 41.8098 17.5439 41.7091 17.5439 41.6042V24.5903C17.5439 24.4854 17.5028 24.3847 17.4297 24.3105C17.3566 24.2363 17.2575 24.1946 17.1541 24.1946ZM11.696 35.6691C11.696 35.7741 11.6548 35.8747 11.5818 35.9489C11.5087 36.0231 11.4095 36.0648 11.3061 36.0648H6.23782C6.13446 36.0648 6.03529 36.0231 5.96219 35.9489C5.88906 35.8747 5.84795 35.7741 5.84795 35.6691V30.5254C5.84795 30.4204 5.88906 30.3198 5.96219 30.2456C6.03529 30.1714 6.13446 30.1297 6.23782 30.1297H11.3061C11.4095 30.1297 11.5087 30.1714 11.5818 30.2456C11.6548 30.3198 11.696 30.4204 11.696 30.5254V35.6691Z" fill="#EFEFE5"/>
<path d="M52.2529 30.1303H47.1847C46.9693 30.1303 46.7947 30.3074 46.7947 30.5259V35.6696C46.7947 35.8881 46.9693 36.0653 47.1847 36.0653H52.2529C52.4681 36.0653 52.6427 35.8881 52.6427 35.6696V30.5259C52.6427 30.3074 52.4681 30.1303 52.2529 30.1303Z" fill="#EFEFE5"/>
<path d="M46.4021 24.1946H41.3337C41.1182 24.1946 40.9442 24.3718 40.9442 24.5903V29.734C40.9442 29.9526 41.1182 30.1297 41.3337 30.1297H46.4021C46.6173 30.1297 46.7922 29.9526 46.7922 29.734V24.5903C46.7922 24.3718 46.6173 24.1946 46.4021 24.1946Z" fill="#EFEFE5"/>
<path d="M58.0982 24.1946H53.0298C52.8148 24.1946 52.6403 24.3718 52.6403 24.5903V29.734C52.6403 29.9526 52.8148 30.1297 53.0298 30.1297H58.0982C58.3133 30.1297 58.4882 29.9526 58.4882 29.734V24.5903C58.4882 24.3718 58.3133 24.1946 58.0982 24.1946Z" fill="#EFEFE5"/>
<path d="M46.4021 36.0649H41.3337C41.1182 36.0649 40.9442 36.2421 40.9442 36.4606V41.6043C40.9442 41.8228 41.1182 42 41.3337 42H46.4021C46.6173 42 46.7922 41.8228 46.7922 41.6043V36.4606C46.7922 36.2421 46.6173 36.0649 46.4021 36.0649Z" fill="#EFEFE5"/>
<path d="M58.0982 36.0649H53.0298C52.8148 36.0649 52.6403 36.2421 52.6403 36.4606V41.6043C52.6403 41.8228 52.8148 42 53.0298 42H58.0982C58.3133 42 58.4882 41.8228 58.4882 41.6043V36.4606C58.4882 36.2421 58.3133 36.0649 58.0982 36.0649Z" fill="#EFEFE5"/>
<path d="M37.6218 24.1946H32.5534C32.3382 24.1946 32.1636 24.3718 32.1636 24.5903V29.734C32.1636 29.9526 32.3382 30.1297 32.5534 30.1297H37.6218C37.837 30.1297 38.0116 29.9526 38.0116 29.734V24.5903C38.0116 24.3718 37.837 24.1946 37.6218 24.1946Z" fill="#EFEFE5"/>
<path d="M37.6218 36.0649H32.5534C32.3382 36.0649 32.1636 36.2421 32.1636 36.4606V41.6043C32.1636 41.8228 32.3382 42 32.5534 42H37.6218C37.837 42 38.0116 41.8228 38.0116 41.6043V36.4606C38.0116 36.2421 37.837 36.0649 37.6218 36.0649Z" fill="#EFEFE5"/>
<path d="M32.163 30.5209C32.163 30.416 32.1219 30.3154 32.0489 30.2411C31.9756 30.167 31.8766 30.1253 31.7732 30.1253H26.3151V24.5903C26.3151 24.4854 26.274 24.3847 26.2009 24.3105C26.1278 24.2363 26.0286 24.1946 25.9252 24.1946H20.857C20.7536 24.1946 20.6544 24.2363 20.5813 24.3105C20.5082 24.3847 20.4671 24.4854 20.4671 24.5903V41.5953C20.4671 41.7002 20.5082 41.8009 20.5813 41.8751C20.6544 41.9493 20.7536 41.991 20.857 41.991H25.9252C26.0286 41.991 26.1278 41.9493 26.2009 41.8751C26.274 41.8009 26.3151 41.7002 26.3151 41.5953V36.0603H31.7732C31.8766 36.0603 31.9756 36.0187 32.0489 35.9445C32.1219 35.8703 32.163 35.7696 32.163 35.6647V30.5209Z" fill="#EFEFE5"/>
<path d="M71.2157 33.4299L69.162 24H63.3668L67.9146 41.8175H73.1962L75.4705 32.2139L77.7439 41.8175H83.0255L87.5735 24H81.9254L79.8714 33.4299L77.793 24H73.2938L71.2157 33.4299Z" fill="#EFEFE5"/>
<path d="M85.9416 41.8175H91.4188L92.348 38.9885H98.1671L99.0962 41.8175H104.745L98.5583 24H92.1277L85.9416 41.8175ZM96.7002 34.5714H93.8149L95.2577 30.2287L96.7002 34.5714Z" fill="#EFEFE5"/>
<path d="M119.828 41.8175V37.1026H112.59V24H107.04V41.8175H119.828Z" fill="#EFEFE5"/>
<path d="M135.534 41.8175V37.1026H128.296V24H122.746V41.8175H135.534Z" fill="#EFEFE5"/>
<path d="M138.45 41.8175H151.654V37.1026H143.902V35.1422H150.26V30.5513H143.902V28.715H151.654V24H138.45V41.8175Z" fill="#EFEFE5"/>
<path d="M170 24H154.571V28.715H159.51V41.8175H165.06V28.715H170V24Z" fill="#EFEFE5"/>
</g>
</svg>
