<svg width="170" height="66" viewBox="0 0 170 66" fill="none" xmlns="http://www.w3.org/2000/svg">
<g opacity="0.8">
<path fill-rule="evenodd" clip-rule="evenodd" d="M66.8488 43.1101C69.196 43.1101 71.5173 42.0662 72.6387 40.4386L69.6917 38.2258C69.0916 39.1412 67.9702 39.5225 66.8488 39.5225C66.4575 39.5225 66.0924 39.4977 65.7537 39.3699L73.1081 34.2322C72.2999 31.8413 69.7958 29.7046 66.536 29.7046C62.7542 29.7046 59.7028 32.7061 59.7028 36.4201C59.7028 40.0825 62.8845 43.1101 66.8488 43.1101ZM68.3615 33.9263L63.5627 37.2587C63.4842 37.0049 63.4587 36.7253 63.4587 36.4194C63.4587 34.6138 64.8407 33.3164 66.536 33.3164C67.2401 33.3164 67.8399 33.5447 68.3615 33.9263Z" fill="#EFEFE5"/>
<path d="M87.3785 43.1101H83.7847V36.5627C83.7847 34.4582 82.5866 33.3934 81.1088 33.3934C79.5028 33.3934 78.0247 34.4582 78.0247 36.5627V43.1097H74.4056V29.9903H78.0247V30.8996C78.7382 30.0684 80.2423 29.7046 81.4144 29.7046C84.932 29.7046 87.3785 32.7701 87.3785 36.5634V43.1101Z" fill="#EFEFE5"/>
<path d="M51.925 29.7046C50.723 29.7046 49.2855 30.2702 48.7106 30.8869V29.9872H45V34.3206C46.8512 34.7344 48.4892 34.6622 49.3172 34.1299L49.3161 34.1339C49.4745 34.032 49.6404 33.9499 49.8104 33.8866C50.2956 33.5471 50.894 33.3553 51.5592 33.3553C53.2574 33.3553 54.6426 34.6405 54.6426 36.4658C54.6426 38.3166 53.2574 39.6272 51.5592 39.6272C50.4159 39.6272 49.4676 39.0508 48.9587 38.1234C48.9363 38.0828 48.8509 37.9547 48.8298 37.932C48.7761 37.8744 48.7244 37.8134 48.6755 37.75L48.6748 37.7541C48.1157 37.0256 46.7358 36.499 45 36.3117V49.1642H48.7106V42.0434C49.4165 42.8661 50.7489 43.2514 51.8465 43.2514C55.4526 43.2514 58.4054 40.1927 58.4054 36.4397C58.4054 32.7369 55.557 29.7046 51.925 29.7046Z" fill="#EFEFE5"/>
<path d="M93.1853 43.1102H89.8625V33.3867H88.2433V30.0763H89.8625V29.4557C89.8625 28.6526 90.0145 27.8978 90.319 27.1921C90.6236 26.4863 91.0415 25.8715 91.5729 25.3482C92.1046 24.825 92.7231 24.4113 93.4294 24.1071C94.1357 23.8028 94.8899 23.6507 95.6935 23.6507H98.1893V26.9609H95.6935C95.3363 26.9609 95.0055 27.0237 94.7013 27.1495C94.3971 27.2755 94.1329 27.4496 93.9097 27.6727C93.6865 27.8958 93.5093 28.1595 93.3801 28.4637C93.2505 28.7679 93.1853 29.0984 93.1853 29.4557V30.0763H97.2641V33.3867H93.1853V43.1102Z" fill="#EFEFE5"/>
<path fill-rule="evenodd" clip-rule="evenodd" d="M110.353 42.866H111.162V29.7978H110.353L109.055 31.3504C108.743 31.0567 108.411 30.784 108.055 30.5311C107.7 30.2789 107.326 30.0589 106.934 29.8711C106.542 29.6837 106.138 29.537 105.721 29.4311C105.305 29.3252 104.884 29.2722 104.459 29.2722C103.536 29.2722 102.668 29.4413 101.856 29.7795C101.043 30.1179 100.332 30.5926 99.7233 31.2037C99.1145 31.8144 98.6347 32.5461 98.2837 33.3979C97.9323 34.2494 97.7566 35.185 97.7566 36.2036C97.7566 37.295 97.9323 38.2688 98.2837 39.1246C98.6347 39.9809 99.1145 40.704 99.7233 41.2948C100.332 41.8865 101.043 42.336 101.856 42.6457C102.668 42.9553 103.536 43.1101 104.459 43.1101C104.884 43.1101 105.302 43.0571 105.715 42.9512C106.128 42.846 106.53 42.7006 106.922 42.5173C107.314 42.334 107.688 42.118 108.043 41.8699C108.398 41.6217 108.735 41.3548 109.055 41.069L110.353 42.866ZM107.529 34.8778C107.704 35.3059 107.792 35.7476 107.792 36.2042C107.792 36.6609 107.704 37.1032 107.529 37.53C107.354 37.9585 107.114 38.337 106.812 38.6673C106.511 38.9977 106.157 39.2625 105.753 39.4621C105.348 39.6618 104.917 39.7615 104.46 39.7615C104.002 39.7615 103.571 39.6841 103.167 39.529C102.762 39.3745 102.411 39.146 102.113 38.8442C101.815 38.5427 101.58 38.1703 101.408 37.7256C101.237 37.2822 101.151 36.775 101.151 36.2042C101.151 35.6345 101.237 35.1273 101.408 34.6826C101.58 34.2382 101.815 33.8661 102.113 33.5639C102.411 33.2624 102.762 33.0336 103.167 32.8791C103.572 32.7247 104.002 32.6469 104.46 32.6469C104.917 32.6469 105.348 32.7464 105.753 32.946C106.157 33.1463 106.51 33.4108 106.812 33.7411C107.114 34.0711 107.353 34.45 107.529 34.8778Z" fill="#EFEFE5"/>
<path fill-rule="evenodd" clip-rule="evenodd" d="M126.635 39.0036C126.986 38.1539 127.162 37.2143 127.162 36.1848C127.162 35.1799 126.986 34.2543 126.635 33.4086C126.284 32.563 125.806 31.8297 125.202 31.2085C124.597 30.5875 123.888 30.1034 123.076 29.7558C122.262 29.4086 121.39 29.235 120.459 29.235C120.158 29.235 119.847 29.2656 119.528 29.3269C119.209 29.3881 118.901 29.476 118.603 29.5904C118.305 29.7051 118.027 29.8518 117.77 30.0316C117.512 30.2113 117.293 30.4159 117.114 30.6443V24.5156H113.757V36.1848C113.757 37.1976 113.933 38.1273 114.284 38.973C114.635 39.8193 115.115 40.5481 115.723 41.1612C116.332 41.7743 117.042 42.2516 117.855 42.5955C118.668 42.9386 119.536 43.1102 120.459 43.1102C121.391 43.1102 122.262 42.942 123.076 42.6074C123.889 42.2727 124.597 41.8009 125.202 41.1919C125.806 40.5832 126.284 39.854 126.635 39.0036ZM123.529 34.769C123.704 35.2064 123.792 35.6783 123.792 36.1848C123.792 36.6917 123.704 37.1615 123.529 37.5953C123.354 38.0289 123.114 38.4041 122.813 38.7231C122.511 39.0424 122.158 39.2933 121.753 39.4771C121.348 39.661 120.918 39.7532 120.46 39.7532C120.002 39.7532 119.571 39.661 119.167 39.4771C118.763 39.2933 118.409 39.0424 118.107 38.7231C117.805 38.4041 117.568 38.0289 117.397 37.5953C117.225 37.1615 117.139 36.6921 117.139 36.1855C117.139 35.728 117.225 35.2847 117.397 34.8555C117.568 34.4265 117.805 34.0466 118.107 33.7154C118.409 33.3841 118.763 33.1189 119.167 32.9187C119.572 32.7186 120.002 32.6181 120.46 32.6181C120.918 32.6181 121.348 32.708 121.753 32.8881C122.157 33.0675 122.51 33.3167 122.813 33.6354C123.114 33.9537 123.353 34.3322 123.529 34.769Z" fill="#EFEFE5"/>
<path d="M132.166 43.1101H128.892V30.1371H129.684L130.763 31.6756C131.291 31.1911 131.891 30.8177 132.562 30.5549C133.234 30.2928 133.929 30.1613 134.649 30.1613H137.541V33.4563H134.649C134.306 33.4563 133.982 33.5205 133.678 33.6501C133.374 33.7793 133.11 33.9569 132.886 34.183C132.662 34.409 132.486 34.6755 132.358 34.9823C132.23 35.2895 132.166 35.6165 132.166 35.9637V43.1101Z" fill="#EFEFE5"/>
<path fill-rule="evenodd" clip-rule="evenodd" d="M142.992 27.2012C143.105 26.9298 143.162 26.6385 143.162 26.326C143.162 26.0224 143.105 25.7325 142.992 25.457C142.877 25.1818 142.722 24.9436 142.526 24.7424C142.33 24.5411 142.1 24.381 141.837 24.2618C141.574 24.1431 141.293 24.0832 140.994 24.0832C140.696 24.0832 140.415 24.1427 140.151 24.2618C139.888 24.381 139.66 24.5411 139.468 24.7424C139.275 24.9436 139.123 25.1818 139.009 25.457C138.895 25.7325 138.838 26.0221 138.838 26.326C138.838 26.6385 138.894 26.9301 139.009 27.2012C139.122 27.4722 139.275 27.7084 139.468 27.9097C139.66 28.1109 139.888 28.2711 140.151 28.3902C140.414 28.5093 140.696 28.5689 140.994 28.5689C141.293 28.5689 141.573 28.5093 141.837 28.3902C142.099 28.2714 142.329 28.1109 142.526 27.9097C142.722 27.7084 142.877 27.4722 142.992 27.2012ZM139.368 43.1102H142.608V29.9122H139.368V43.1102Z" fill="#EFEFE5"/>
<path d="M157 32.3781L154.566 34.8345C154.445 34.4922 154.278 34.185 154.067 33.9117C153.856 33.6384 153.619 33.4085 153.355 33.2211C153.092 33.033 152.806 32.8904 152.497 32.793C152.189 32.6952 151.873 32.6463 151.548 32.6463C151.094 32.6463 150.666 32.7397 150.264 32.9271C149.862 33.1145 149.513 33.3773 149.217 33.7155C148.921 34.0536 148.689 34.4549 148.518 34.9194C148.348 35.3841 148.262 35.8975 148.262 36.4597C148.262 36.9164 148.348 37.3438 148.518 37.7427C148.689 38.1427 148.921 38.4927 149.217 38.7945C149.513 39.0964 149.862 39.3327 150.264 39.5038C150.666 39.6749 151.094 39.7605 151.548 39.7605C151.873 39.7605 152.185 39.7156 152.485 39.626C152.785 39.5364 153.067 39.4077 153.331 39.2407C153.594 39.0743 153.83 38.8699 154.037 38.6299C154.243 38.3892 154.412 38.122 154.541 37.829L156.975 40.2857C156.667 40.726 156.312 41.1212 155.911 41.4716C155.509 41.822 155.075 42.1194 154.608 42.3638C154.142 42.6086 153.651 42.7943 153.136 42.9203C152.621 43.0469 152.091 43.1101 151.548 43.1101C150.631 43.1101 149.769 42.9369 148.962 42.5906C148.155 42.2443 147.449 41.7697 146.845 41.1667C146.24 40.5641 145.764 39.8586 145.416 39.0519C145.067 38.2449 144.892 37.3812 144.892 36.4601C144.892 35.4578 145.067 34.5204 145.416 33.6486C145.764 32.777 146.24 32.0165 146.845 31.3687C147.449 30.7206 148.155 30.2093 148.962 29.8345C149.77 29.4596 150.631 29.2722 151.548 29.2722C152.091 29.2722 152.625 29.3415 153.148 29.48C153.672 29.6185 154.17 29.8202 154.645 30.085C155.119 30.3499 155.558 30.6737 155.96 31.0567C156.361 31.4404 156.708 31.8804 157 32.3781Z" fill="#EFEFE5"/>
<path d="M20.7943 20.3642C21.7701 19.4091 22.8579 18.5651 24.0373 17.856C26.6847 16.2651 29.79 15.348 33.1081 15.348C36.4261 15.348 39.5317 16.2651 42.1792 17.856C43.3586 18.5651 44.4461 19.4091 45.4222 20.3642C46.2059 21.1313 46.916 21.9712 47.5435 22.8723C47.9556 23.4649 48.331 24.0837 48.6673 24.7264C48.8805 25.1337 49.3161 25.3804 49.7801 25.3804C50.7233 25.3804 51.3476 24.3921 50.913 23.5646C50.7906 23.331 50.6639 23.1005 50.5322 22.8723C50.0238 21.9921 49.45 21.1541 48.816 20.3642C48.091 19.4615 47.29 18.6215 46.4198 17.856C45.3309 16.898 44.1359 16.0557 42.8546 15.348C39.9672 13.753 36.6444 12.8398 33.1081 12.8398C29.5721 12.8398 26.2493 13.753 23.3616 15.348C22.0803 16.0557 20.8855 16.898 19.7964 17.856C18.9261 18.6218 18.1251 19.4615 17.4001 20.3642C16.7665 21.1541 16.1922 21.9921 15.6841 22.8723C15.5527 23.1005 15.4255 23.331 15.3029 23.5646C14.8688 24.3921 15.493 25.3804 16.4362 25.3804C16.9002 25.3804 17.3357 25.1341 17.5488 24.7264C17.8852 24.084 18.2606 23.4649 18.673 22.8723C19.3002 21.9716 20.0102 21.1313 20.7943 20.3642Z" fill="#EFEFE5"/>
<path d="M19.8945 27.9749C20.3832 27.9749 20.8278 27.6932 21.0349 27.2503C21.33 26.6195 21.6728 26.0155 22.0612 25.4444C22.6994 24.5058 23.4574 23.6567 24.3108 22.9138C25.5866 21.8033 27.0775 20.9362 28.7129 20.3833C30.0262 19.9394 31.4308 19.6946 32.892 19.6946C34.3535 19.6946 35.7578 19.9391 37.0714 20.3833C38.7068 20.9362 40.1978 21.8033 41.4732 22.9138C42.3266 23.6567 43.0849 24.5058 43.7228 25.4444C44.1112 26.0155 44.4543 26.6195 44.7491 27.2503C44.9562 27.6932 45.4008 27.9749 45.8894 27.9749C46.8088 27.9749 47.4338 27.0191 47.0443 26.1862C46.9273 25.9353 46.8034 25.6878 46.6731 25.4444C46.192 24.5451 45.6262 23.6976 44.9853 22.9138C44.2158 21.9722 43.3377 21.1234 42.3719 20.3833C40.9189 19.2693 39.2672 18.4036 37.4778 17.8527C36.0271 17.4058 34.4875 17.1641 32.892 17.1641C31.2969 17.1641 29.7572 17.4058 28.3065 17.8527C26.5171 18.4036 24.8651 19.2693 23.4124 20.3833C22.4467 21.1234 21.5685 21.9722 20.7987 22.9138C20.1578 23.6976 19.592 24.5451 19.1109 25.4444C18.9806 25.6878 18.8571 25.9353 18.7393 26.1862C18.3502 27.0191 18.9755 27.9749 19.8945 27.9749Z" fill="#EFEFE5"/>
<path d="M30.7063 47.6306C30.7046 47.622 30.7028 47.6129 30.7011 47.6042C30.5852 47.0022 30.0542 46.5695 29.4426 46.5695H29.4142C28.6116 46.5695 28.0059 47.3006 28.1589 48.0911C28.1606 48.0994 28.162 48.1088 28.1637 48.1168C28.28 48.7226 28.8037 49.1641 29.4191 49.1641H29.4478C30.2539 49.163 30.8579 48.4246 30.7063 47.6306Z" fill="#EFEFE5"/>
<path d="M32.4361 51.5222C32.4344 51.5142 32.4326 51.5045 32.4309 51.4962C32.315 50.894 31.7841 50.4616 31.1726 50.4616H31.1438C30.3417 50.4616 29.7357 51.1928 29.8886 51.9826C29.8904 51.9916 29.8921 52.0006 29.8935 52.0092C30.0101 52.6151 30.5334 53.0561 31.1487 53.0561H31.1778C31.9841 53.0554 32.5877 52.3163 32.4361 51.5222Z" fill="#EFEFE5"/>
<path d="M52.7605 27.3067C52.7587 27.2981 52.7569 27.2894 52.7551 27.2807C52.6392 26.6781 52.1086 26.2453 51.4969 26.2453H51.4681C50.6657 26.2453 50.0598 26.977 50.2128 27.767C50.2146 27.7757 50.2161 27.7843 50.2179 27.793C50.3341 28.399 50.8576 28.8399 51.4728 28.8399H51.5016C52.3077 28.8399 52.9117 28.1013 52.7605 27.3067Z" fill="#EFEFE5"/>
<path d="M20.2976 30.639L20.2955 30.631C20.1333 30.0817 19.6296 29.7046 19.0577 29.7046H19.0511C18.1891 29.7046 17.5679 30.5331 17.8092 31.3622C17.9704 31.9177 18.4782 32.2993 19.0557 32.2993H19.0584C19.9219 32.2993 20.542 31.4681 20.2976 30.639Z" fill="#EFEFE5"/>
<path d="M13.0064 30.4519C13.0057 30.4605 13.005 30.4695 13.0044 30.4785C12.9537 31.0876 13.3493 31.6462 13.9394 31.8109L13.9671 31.8188C14.741 32.035 15.5224 31.4965 15.588 30.6971C15.5886 30.6885 15.5893 30.6795 15.59 30.6708C15.6413 30.0576 15.2551 29.4938 14.6612 29.3281L14.6335 29.3202C13.8555 29.1029 13.0737 29.6491 13.0064 30.4519Z" fill="#EFEFE5"/>
<path d="M20.2739 44.6703C19.3366 43.6701 18.5246 42.5646 17.8492 41.3817C17.3065 40.4316 16.8546 39.4307 16.4981 38.3932C16.2666 37.718 16.0766 37.027 15.9294 36.3248C15.8744 36.0607 15.6618 35.7031 15.4346 35.5561C14.412 34.893 13.2398 35.7741 13.4592 36.8244C13.5132 37.0831 13.5726 37.3395 13.6364 37.5949C13.8841 38.5809 14.2064 39.5431 14.5993 40.4753C15.0485 41.5405 15.5875 42.5656 16.213 43.5375C16.996 44.7534 17.9113 45.8858 18.9465 46.9119C20.792 48.7414 23.0169 50.2267 25.5429 51.2362C26.3694 51.5652 27.2703 50.9546 27.2703 50.0669C27.2703 49.5604 26.9668 49.0981 26.4946 48.9102C24.0764 47.9437 21.9713 46.4813 20.2739 44.6703Z" fill="#EFEFE5"/>
<path d="M25.581 43.956C24.1199 42.9636 22.8877 41.7024 21.9361 40.261C21.299 39.2962 20.7854 38.2545 20.415 37.1579C20.1913 36.4952 20.0207 35.8131 19.9038 35.118C19.841 34.7425 19.6305 34.399 19.2976 34.2119C18.2922 33.6455 17.1696 34.4815 17.342 35.5156C17.3884 35.7945 17.4425 36.0707 17.5036 36.3454C17.7297 37.3609 18.0539 38.3484 18.4698 39.2942C18.9695 40.4301 19.6014 41.505 20.3498 42.4973C21.4762 43.9905 22.8669 45.2945 24.4806 46.3283C24.7594 46.5075 25.0455 46.6769 25.3382 46.8381C26.2056 47.3148 27.2703 46.6938 27.2703 45.708C27.2703 45.2379 27.0115 44.8072 26.5981 44.579C26.2479 44.385 25.908 44.1782 25.581 43.956Z" fill="#EFEFE5"/>
<path d="M31.9518 37.1683C32.4408 37.3736 32.9776 37.4885 33.5404 37.4885C34.1035 37.4885 34.6399 37.3736 35.1293 37.1683C35.9843 36.8083 36.692 36.1668 37.1378 35.3603C37.436 34.8198 37.6127 34.2053 37.6397 33.5524C37.6421 33.4943 37.6487 33.4383 37.6487 33.3795C37.6487 32.7985 37.5255 32.2466 37.3069 31.7445C36.9832 31.002 36.4461 30.3744 35.7737 29.9369C35.13 29.5181 34.3639 29.2722 33.5404 29.2722C32.7169 29.2722 31.9507 29.5181 31.3071 29.9369C30.6347 30.3744 30.0979 31.002 29.7742 31.7445C29.5552 32.2463 29.4325 32.7985 29.4325 33.3798C29.4325 33.4379 29.4387 33.4946 29.4411 33.5521C29.4684 34.2049 29.6448 34.8191 29.9433 35.36C30.3888 36.166 31.0965 36.8083 31.9518 37.1683Z" fill="#EFEFE5"/>
<path d="M38.0953 37.1634C36.9858 38.6159 35.2767 39.5316 33.3379 39.5316C29.8916 39.5316 27.2264 36.7323 27.2264 33.151C27.2264 29.6242 29.8916 26.7704 33.3107 26.7704C35.9059 26.7704 38.1057 28.4418 38.9969 30.806C40.3448 32.1535 42.0404 33.1066 43.6893 33.6827C43.6983 33.5065 43.7027 33.3289 43.7027 33.151C43.7027 27.4168 39.0722 22.7859 33.3107 22.7859C27.5765 22.7859 22.946 27.4168 22.946 33.151C22.946 38.8852 27.5765 43.5427 33.3379 43.5427C38.0855 43.5427 42.0764 40.3498 43.3093 35.9968C41.6207 36.0439 39.7727 36.3997 38.0953 37.1634Z" fill="#EFEFE5"/>
</g>
</svg>
