<svg width="170" height="66" viewBox="0 0 170 66" fill="none" xmlns="http://www.w3.org/2000/svg">
<g opacity="0.8">
<path opacity="0.6" d="M35.6554 15.0381L15 32.0927V51.0093L35.6554 32.0927L56.3108 51.0093V32.0927L35.6554 15.0381Z" fill="#EFEFE5"/>
<path d="M26.567 40.3907L35.6554 15L15 32.0669L26.567 40.3907Z" fill="#EFEFE5"/>
<path d="M35.6553 15L44.7436 40.3907L56.3107 32.0669L35.6553 15Z" fill="#EFEFE5"/>
<path d="M119.485 24.4941H124.171L131.632 41.4994H126.428L125.158 38.4905H118.4L117.142 41.4994H112.037L119.485 24.4941ZM123.74 34.8404L121.791 30.0434L119.818 34.8404H123.74Z" fill="#EFEFE5"/>
<path d="M90.8266 24.6171H95.9565L100.137 31.1529L104.317 24.6171H109.447V41.5114H104.613V31.8188L100.137 38.4285H100.038L95.5866 31.8681V41.5237H90.8266V24.6171Z" fill="#EFEFE5"/>
<path d="M134.197 24.6171H139.08V41.5114H134.197V24.6171Z" fill="#EFEFE5"/>
<path d="M141.657 24.6171H146.516V37.405H155V41.4991H141.657V24.6171Z" fill="#EFEFE5"/>
<path d="M88.2616 33.0644L81.2943 24.6296H69.9246V41.4992H81.3066L88.2616 33.0644ZM75.4615 26.7013L81.2943 33.0767L75.4615 39.4521V26.7013Z" fill="#EFEFE5"/>
</g>
</svg>
