<svg width="170" height="66" viewBox="0 0 170 66" fill="none" xmlns="http://www.w3.org/2000/svg">
<g opacity="0.8">
<path d="M85.2177 41.0161C85.2177 42.0753 85.2177 43.0627 85.2177 44.0526C85.2177 45.894 85.21 47.7353 85.2254 49.5793C85.228 49.887 85.169 50.005 84.8253 49.9998C83.5328 49.9793 82.2377 49.9819 80.9451 49.9973C80.6528 49.9998 80.5399 49.9409 80.5399 49.6177C80.5476 40.8058 80.5476 31.9965 80.5399 23.1846C80.5399 22.8666 80.6451 22.7922 80.9426 22.7948C82.0299 22.8102 83.1173 22.8128 84.2047 22.7948C84.533 22.7897 84.6997 22.8563 84.6432 23.2205C84.6202 23.3821 84.6381 23.5488 84.6381 23.7027C84.751 23.777 84.8074 23.695 84.8689 23.6488C86.4308 22.4896 88.208 22.187 90.1007 22.3152C94.0681 22.5819 96.966 25.5568 97.7585 29.614C98.2868 32.3222 98.097 34.9817 96.8506 37.4873C95.6684 39.8646 93.8501 41.5162 91.1701 42.0061C89.1877 42.3702 87.254 42.1702 85.4613 41.1495C85.4049 41.1161 85.3459 41.0854 85.2177 41.0161ZM93.1064 31.8426C93.0961 30.863 92.8909 29.5294 92.1318 28.342C91.1573 26.8161 89.6929 26.3596 87.9875 26.5673C86.3743 26.7648 85.4793 27.8085 85.0305 29.296C84.5663 30.8373 84.5381 32.4068 84.7664 33.9866C84.9125 34.9894 85.1793 35.9511 85.8666 36.7358C87.631 38.749 91.1675 38.2002 92.3934 35.7203C92.9345 34.6252 93.1064 33.4481 93.1064 31.8426Z" fill="#EFEFE5"/>
<path d="M103.303 23.8154C104.275 23.0666 105.275 22.6178 106.393 22.428C110.666 21.7022 114.369 23.7154 115.864 27.7777C117.27 31.5938 117.067 35.3612 114.718 38.7926C112.887 41.4674 110.225 42.4496 107.035 42.088C105.929 41.9624 104.896 41.629 103.944 41.0417C103.837 41.211 103.883 41.3623 103.883 41.5059C103.88 44.2013 103.875 46.8941 103.888 49.5894C103.89 49.9151 103.803 50.0049 103.478 49.9998C102.198 49.9818 100.918 49.9818 99.6384 49.9998C99.2999 50.0049 99.1998 49.9151 99.1998 49.5689C99.2126 46.2016 99.2075 42.8343 99.2075 39.467C99.2075 34.0789 99.2126 28.6907 99.1998 23.3025C99.1998 22.9101 99.2922 22.7845 99.6974 22.7947C100.757 22.8229 101.816 22.8178 102.875 22.7973C103.219 22.7896 103.354 22.887 103.306 23.2333C103.283 23.3871 103.303 23.5538 103.303 23.8154ZM111.769 31.8349C111.759 30.8654 111.553 29.5319 110.797 28.3445C109.812 26.8006 108.33 26.3518 106.614 26.5723C105.021 26.7775 104.139 27.8239 103.696 29.2908C103.231 30.8321 103.201 32.4016 103.429 33.9814C103.572 34.9842 103.842 35.9459 104.529 36.7332C106.291 38.7464 109.83 38.2001 111.056 35.7228C111.597 34.6277 111.771 33.4505 111.769 31.8349Z" fill="#EFEFE5"/>
<path d="M20.3442 29.2031C20.3648 26.7591 20.6982 24.5022 21.7137 22.3942C23.4294 18.8217 26.2402 16.7136 30.1845 16.1571C32.5285 15.8263 34.8315 15.9904 37.0268 16.9137C40.1197 18.2139 42.0688 20.5759 43.1741 23.6918C43.2511 23.9098 43.1972 24.0022 42.9792 24.0637C41.6174 24.4433 40.2582 24.8254 38.9041 25.2306C38.604 25.3203 38.5604 25.169 38.4886 24.9587C37.9013 23.2379 36.8986 21.8582 35.2008 21.0862C33.0774 20.1194 29.3792 20.1784 27.3994 22.3224C26.3454 23.461 25.7581 24.8151 25.4837 26.3128C25.04 28.7158 25.0733 31.1009 25.9222 33.4193C27.0968 36.625 29.7024 37.897 32.8671 37.656C35.7471 37.4354 37.5654 35.871 38.4938 33.1987C38.5886 32.9243 38.6989 32.8935 38.9682 32.973C40.271 33.3603 41.5764 33.7322 42.8894 34.0809C43.2151 34.1681 43.2536 34.2861 43.1433 34.5836C41.6713 38.5613 38.9579 41.1694 34.7238 41.926C31.3258 42.5338 28.0534 42.144 25.1682 40.041C22.7267 38.2612 21.3957 35.7736 20.7417 32.8807C20.4494 31.6266 20.3648 30.352 20.3442 29.2031Z" fill="#EFEFE5"/>
<path d="M48.5467 24.7202C49.7341 23.4199 51.0857 22.6352 52.7065 22.4018C54.6248 22.1248 56.5226 22.1222 58.2613 23.1763C59.9771 24.2175 60.8131 25.8434 61.2593 27.7207C61.4876 28.685 61.5953 29.6698 61.5979 30.6597C61.603 34.1912 61.5979 37.7251 61.6081 41.2566C61.6081 41.5566 61.5466 41.6566 61.226 41.6515C59.9181 41.6336 58.6127 41.631 57.3048 41.6515C56.956 41.6566 56.9021 41.531 56.9047 41.2258C56.9098 38.1483 56.9098 35.0682 56.897 31.9907C56.8919 30.9982 56.7688 30.0211 56.4225 29.0799C55.8635 27.5643 54.8017 26.7847 53.1912 26.7231C51.5345 26.6616 50.306 27.4027 49.6623 28.8568C49.2828 29.7134 49.1391 30.6213 49.134 31.5445C49.1212 34.7605 49.1212 37.9765 49.134 41.1924C49.1366 41.5515 49.0545 41.6566 48.6826 41.6515C47.3901 41.6259 46.095 41.6361 44.8024 41.6464C44.5306 41.6489 44.4203 41.6002 44.4229 41.2925C44.4306 33.1551 44.4306 25.0202 44.4229 16.8828C44.4229 16.5802 44.528 16.5186 44.8024 16.5238C45.918 16.5366 47.0311 16.5417 48.1467 16.5212C48.4724 16.5161 48.5595 16.6161 48.557 16.9367C48.5442 19.3422 48.5493 21.7478 48.5493 24.1508C48.5467 24.3021 48.5467 24.4509 48.5467 24.7202Z" fill="#EFEFE5"/>
<path d="M75.0749 39.3797C74.5748 39.9209 74.1362 40.3697 73.6413 40.7569C72.5051 41.6443 71.187 42.029 69.7764 42.1238C68.648 42.2008 67.5222 42.1674 66.4348 41.7904C64.3318 41.0621 62.8829 39.1541 62.7726 36.9177C62.6931 35.3123 62.9547 33.7915 64.0446 32.5221C64.9473 31.4706 66.1527 30.9166 67.4427 30.5191C69.3405 29.937 71.3024 29.6754 73.254 29.3651C73.6054 29.3086 73.9593 29.2394 74.3132 29.2061C74.5414 29.1855 74.5696 29.1086 74.5312 28.8932C74.2824 27.4827 73.4669 26.7877 71.8537 26.6441C71.0331 26.5722 70.2381 26.68 69.4661 26.9774C68.6403 27.2929 68.0223 27.8161 67.6991 28.6521C67.6171 28.8624 67.5094 28.9137 67.2965 28.8419C66.086 28.4367 64.8755 28.0315 63.6574 27.6519C63.3522 27.557 63.4394 27.4083 63.506 27.2236C64.4883 24.5667 66.3553 22.9305 69.1635 22.4535C71.2716 22.0945 73.3643 22.215 75.3723 22.9998C77.6035 23.8692 78.7525 25.5849 79.0243 27.911C79.2167 29.5523 79.1141 31.2064 79.1218 32.8555C79.1346 35.6175 79.1141 38.3821 79.1371 41.1442C79.1397 41.5776 79.0115 41.6648 78.6088 41.6545C77.5779 41.6263 76.5444 41.6263 75.5134 41.6545C75.1313 41.6648 75.0492 41.5366 75.0672 41.1878C75.0954 40.6261 75.0749 40.0619 75.0749 39.3797ZM74.5055 33.7864C74.5055 33.6633 74.4901 33.5376 74.5081 33.4171C74.5517 33.1222 74.4568 33.0222 74.1516 33.0837C73.0488 33.3068 71.9409 33.4992 70.8407 33.7351C69.9021 33.9377 68.9737 34.1916 68.1684 34.7558C67.4683 35.2456 67.176 35.9227 67.317 36.7562C67.4555 37.5743 68.0018 38.0436 68.7711 38.2693C69.4738 38.477 70.1893 38.4591 70.8946 38.3154C73.0642 37.8743 74.4414 36.1279 74.5055 33.7864Z" fill="#EFEFE5"/>
<path d="M124.576 35.5653C125.407 33.3418 126.207 31.2004 127.008 29.0564C127.741 27.0919 128.477 25.1275 129.203 23.1604C129.295 22.9117 129.398 22.7886 129.695 22.7937C130.988 22.8117 132.283 22.8142 133.575 22.7937C133.935 22.7886 133.947 22.886 133.832 23.1835C130.713 31.3671 127.603 39.5558 124.489 47.7419C124.24 48.3959 123.984 49.0473 123.751 49.7038C123.674 49.9193 123.569 49.9962 123.335 49.9936C122.125 49.9808 120.914 49.9808 119.704 49.9936C119.399 49.9962 119.37 49.9218 119.468 49.6474C120.386 47.0803 121.286 44.5054 122.204 41.9357C122.317 41.6177 122.314 41.3484 122.189 41.0304C119.837 35.1062 117.496 29.1769 115.152 23.2502C114.975 22.7988 114.975 22.7988 115.48 22.7988C116.772 22.7988 118.067 22.8091 119.36 22.7911C119.67 22.786 119.809 22.8783 119.922 23.1758C121.414 27.1817 122.925 31.185 124.43 35.1858C124.466 35.2909 124.507 35.3909 124.576 35.5653Z" fill="#EFEFE5"/>
<path d="M132.226 41.6178C135.345 36.7117 138.422 31.8647 141.507 27.0099C141.318 26.915 141.166 26.9509 141.018 26.9509C138.679 26.9484 136.337 26.9433 133.998 26.9561C133.66 26.9586 133.606 26.892 133.732 26.574C134.175 25.4378 134.601 24.294 135.011 23.1451C135.104 22.8912 135.229 22.8245 135.488 22.8245C139.851 22.8271 144.213 22.822 148.578 22.8066C148.914 22.8066 149.006 22.8758 148.814 23.1785C147.975 24.5146 147.144 25.8584 146.301 27.1946C144.216 30.4926 142.125 33.7855 140.04 37.0836C139.964 37.2067 139.843 37.3118 139.843 37.5144C142.664 37.5144 145.477 37.5144 148.316 37.5144C148.25 37.9094 148.08 38.2248 147.955 38.5531C147.598 39.4892 147.224 40.4175 146.867 41.351C146.79 41.5536 146.703 41.6511 146.46 41.6511C141.82 41.6408 137.184 41.6408 132.544 41.6408C132.478 41.6408 132.411 41.6306 132.226 41.6178Z" fill="#EFEFE5"/>
</g>
</svg>
