<svg width="170" height="66" viewBox="0 0 170 66" fill="none" xmlns="http://www.w3.org/2000/svg">
<path opacity="0.8" fill-rule="evenodd" clip-rule="evenodd" d="M59.0909 25.1395V16.9766H61.8127V25.1395V27.859V30.5808V33.3024V46.9067H59.0909V33.3024H56.3714V46.9067H53.6496V33.3024H29.163H26.4413H23.7217V36.0221H26.4413H29.163H50.9301V38.7437V46.9067H48.2084V38.7437H34.6042V46.9067H31.8825V38.7437H29.163V46.9067H26.4413V38.7437H23.7217V46.9067H21V33.3024V30.5808V16.9766H23.7217V30.5808H26.4413V16.9766H29.163V30.5808H53.6496H56.3714H59.0909V27.859H31.8825V25.1395V16.9766H34.6042V25.1395H48.2084V16.9766H50.9301V25.1395H53.6496V16.9766H56.3714V25.1395H59.0909ZM80.1971 30.8131V27.859H82.4137V35.9837H80.1971V33.0297H73.5516V35.9837H71.335V27.859H73.5516V30.8131H80.1971ZM120.078 33.0299H113.433V35.9839H111.217V27.8594H113.433V30.8134H120.079V27.8594H122.295V30.8134L120.079 33.0294H122.294V35.9834H120.078V33.0299ZM94.2297 27.8589H84.6281V35.9834H86.8447V33.0294H93.4923V35.9834H95.7089V27.8589H94.2318H94.2297ZM86.8447 30.8129V30.0732H93.4923V30.8129H86.8447ZM109 27.8589V30.0755H100.138V33.7668H109V35.9834H100.138H99.398H97.9211V27.8589H99.398H100.138H109ZM135.587 30.0755V27.8589H126.725H125.985H124.508V35.9834H125.985H126.725H135.587V33.7668H126.725V33.0294H135.587V30.8129H126.725V30.0755H135.587ZM146.663 33.0294V27.8589H148.879V35.9834H146.663L140.018 30.8129V35.9834H137.801V27.8589H140.018L146.663 33.0294Z" fill="#EFEFE5"/>
</svg>
