<svg width="170" height="66" viewBox="0 0 170 66" fill="none" xmlns="http://www.w3.org/2000/svg">
<g opacity="0.8">
<path fill-rule="evenodd" clip-rule="evenodd" d="M22.5141 42.0796C20.8787 43.1128 18.9408 43.7108 16.8634 43.7108C14.708 43.7108 12.7029 43.0671 11.0299 41.9615L6.53989 46.4515C9.39265 48.6632 12.9743 49.9798 16.8634 49.9798C20.6754 49.9798 24.192 48.7149 27.0164 46.582L22.5141 42.0796ZM30.3846 43.1954C32.4839 40.3836 33.7268 36.8951 33.7268 33.1163C33.7268 29.2272 32.4103 25.6456 30.1986 22.7928L25.7086 27.2828C26.8142 28.9559 27.4578 30.9609 27.4578 33.1163C27.4578 35.1601 26.8791 37.0688 25.8766 38.6873L30.3846 43.1954ZM11.2925 24.1032C12.911 23.1007 14.8196 22.5219 16.8634 22.5219C18.8288 22.5219 20.6692 23.0571 22.2469 23.9897L26.7691 19.4675C23.988 17.4455 20.565 16.2529 16.8634 16.2529C13.0846 16.2529 9.59612 17.4958 6.78438 19.5951L11.2925 24.1032ZM7.90012 27.4657L3.39777 22.9633C1.26485 25.7877 0 29.3043 0 33.1163C0 36.8179 1.1926 40.2409 3.21453 43.0221L7.73677 38.4998C6.80419 36.9222 6.269 35.0818 6.269 33.1163C6.269 31.0389 6.86696 29.1011 7.90012 27.4657Z" fill="#EFEFE5"/>
<path d="M50.2441 40.1437C48.7895 40.1437 47.5187 39.8131 46.4314 39.1519C45.3437 38.4907 44.4991 37.5723 43.8964 36.3968C43.2941 35.2066 42.9929 33.8254 42.9929 32.2532C42.9929 30.6663 43.3014 29.2703 43.9187 28.0655C44.5502 26.8459 45.4395 25.8981 46.5856 25.2222C47.7464 24.5316 49.1202 24.1863 50.7072 24.1863C52.5145 24.1863 54.0133 24.6198 55.2033 25.4867C56.3937 26.3536 57.1649 27.5511 57.5176 29.0793H54.366C54.1306 28.3593 53.7045 27.801 53.0876 27.4042C52.4702 26.9928 51.6768 26.7871 50.7072 26.7871C49.1641 26.7871 47.9741 27.2793 47.1364 28.2638C46.2991 29.2336 45.8802 30.5707 45.8802 32.2752C45.8802 33.9797 46.2918 35.3021 47.1145 36.2425C47.9522 37.1682 49.0833 37.6311 50.5087 37.6311C51.9045 37.6311 52.9552 37.2564 53.6606 36.507C54.3806 35.743 54.8141 34.7438 54.961 33.5095H51.0599V31.3936H57.8041V39.8792H55.2033L54.9829 37.8515C54.4833 38.5862 53.8591 39.1519 53.1095 39.5486C52.3602 39.9454 51.4052 40.1437 50.2441 40.1437ZM63.9191 39.8792V26.721H59.4229V24.4508H71.2587V26.721H66.7402V39.8792H63.9191ZM80.2533 39.8792V24.4508H85.9622C87.1964 24.4508 88.2176 24.6565 89.0256 25.0679C89.8337 25.4793 90.4364 26.0451 90.8329 26.765C91.2299 27.485 91.4279 28.2932 91.4279 29.1895C91.4279 30.0418 91.2372 30.8279 90.8549 31.5479C90.4729 32.2532 89.8779 32.8262 89.0699 33.267C88.2614 33.6931 87.2256 33.9062 85.9622 33.9062H83.0749V39.8792H80.2533ZM83.0749 31.614H85.7856C86.7702 31.614 87.4756 31.4009 87.9014 30.9748C88.3426 30.534 88.5629 29.9389 88.5629 29.1895C88.5629 28.4255 88.3426 27.8303 87.9014 27.4042C87.4756 26.9634 86.7702 26.743 85.7856 26.743H83.0749V31.614ZM93.3549 39.8792V28.9471H95.8676L96.1322 30.9968C96.5287 30.2916 97.0652 29.7332 97.741 29.3218C98.4318 28.8956 99.2399 28.6826 100.166 28.6826V31.6581H99.3722C98.7549 31.6581 98.2037 31.7536 97.7191 31.9446C97.2341 32.1356 96.8522 32.4662 96.5729 32.9364C96.3083 33.4066 96.176 34.0605 96.176 34.898V39.8792H93.3549ZM106.925 40.1437C105.867 40.1437 104.912 39.9013 104.06 39.4164C103.223 38.9315 102.554 38.2629 102.054 37.4107C101.569 36.5438 101.327 35.5446 101.327 34.4131C101.327 33.2817 101.577 32.2899 102.076 31.4377C102.576 30.5707 103.244 29.8948 104.082 29.4099C104.934 28.925 105.889 28.6826 106.947 28.6826C107.991 28.6826 108.931 28.925 109.768 29.4099C110.621 29.8948 111.289 30.5707 111.774 31.4377C112.274 32.2899 112.524 33.2817 112.524 34.4131C112.524 35.5446 112.274 36.5438 111.774 37.4107C111.289 38.2629 110.621 38.9315 109.768 39.4164C108.916 39.9013 107.968 40.1437 106.925 40.1437ZM106.925 37.6972C107.66 37.6972 108.299 37.4254 108.843 36.8817C109.386 36.3233 109.658 35.5005 109.658 34.4131C109.658 33.3258 109.386 32.5103 108.843 31.9666C108.299 31.4083 107.667 31.1291 106.947 31.1291C106.198 31.1291 105.551 31.4083 105.008 31.9666C104.479 32.5103 104.214 33.3258 104.214 34.4131C104.214 35.5005 104.479 36.3233 105.008 36.8817C105.551 37.4254 106.191 37.6972 106.925 37.6972ZM119.266 39.8792C118.12 39.8792 117.202 39.6001 116.511 39.0417C115.82 38.4833 115.475 37.4915 115.475 36.0662V31.3054H113.602V28.9471H115.475L115.806 26.0157H118.296V28.9471H121.25V31.3054H118.296V36.0883C118.296 36.6172 118.406 36.9846 118.627 37.1903C118.862 37.3813 119.259 37.4768 119.817 37.4768H121.184V39.8792H119.266ZM128.418 40.1437C127.359 40.1437 126.404 39.9013 125.552 39.4164C124.714 38.9315 124.046 38.2629 123.546 37.4107C123.061 36.5438 122.819 35.5446 122.819 34.4131C122.819 33.2817 123.069 32.2899 123.569 31.4377C124.068 30.5707 124.737 29.8948 125.574 29.4099C126.426 28.925 127.381 28.6826 128.439 28.6826C129.483 28.6826 130.423 28.925 131.261 29.4099C132.113 29.8948 132.781 30.5707 133.266 31.4377C133.766 32.2899 134.016 33.2817 134.016 34.4131C134.016 35.5446 133.766 36.5438 133.266 37.4107C132.781 38.2629 132.113 38.9315 131.261 39.4164C130.408 39.9013 129.461 40.1437 128.418 40.1437ZM128.418 37.6972C129.152 37.6972 129.791 37.4254 130.335 36.8817C130.879 36.3233 131.151 35.5005 131.151 34.4131C131.151 33.3258 130.879 32.5103 130.335 31.9666C129.791 31.4083 129.159 31.1291 128.439 31.1291C127.69 31.1291 127.044 31.4083 126.5 31.9666C125.971 32.5103 125.706 33.3258 125.706 34.4131C125.706 35.5005 125.971 36.3233 126.5 36.8817C127.044 37.4254 127.683 37.6972 128.418 37.6972ZM141.674 40.1437C140.557 40.1437 139.573 39.9013 138.72 39.4164C137.868 38.9315 137.192 38.2556 136.693 37.3886C136.208 36.5217 135.965 35.5299 135.965 34.4131C135.965 33.2964 136.208 32.3046 136.693 31.4377C137.192 30.5707 137.868 29.8948 138.72 29.4099C139.573 28.925 140.557 28.6826 141.674 28.6826C143.069 28.6826 144.245 29.0499 145.2 29.7846C146.155 30.5046 146.765 31.5038 147.029 32.7821H144.054C143.907 32.2532 143.613 31.8418 143.173 31.5479C142.746 31.2393 142.239 31.085 141.652 31.085C140.873 31.085 140.212 31.3789 139.668 31.9666C139.124 32.5544 138.853 33.3699 138.853 34.4131C138.853 35.4564 139.124 36.2719 139.668 36.8597C140.212 37.4474 140.873 37.7413 141.652 37.7413C142.239 37.7413 142.746 37.5943 143.173 37.3005C143.613 37.0066 143.907 36.5878 144.054 36.0441H147.029C146.765 37.2785 146.155 38.2703 145.2 39.0196C144.245 39.769 143.069 40.1437 141.674 40.1437ZM154.559 40.1437C153.501 40.1437 152.546 39.9013 151.694 39.4164C150.856 38.9315 150.188 38.2629 149.688 37.4107C149.203 36.5438 148.961 35.5446 148.961 34.4131C148.961 33.2817 149.21 32.2899 149.71 31.4377C150.209 30.5707 150.878 29.8948 151.716 29.4099C152.568 28.925 153.523 28.6826 154.581 28.6826C155.624 28.6826 156.564 28.925 157.402 29.4099C158.254 29.8948 158.923 30.5707 159.408 31.4377C159.908 32.2899 160.157 33.2817 160.157 34.4131C160.157 35.5446 159.908 36.5438 159.408 37.4107C158.923 38.2629 158.254 38.9315 157.402 39.4164C156.55 39.9013 155.602 40.1437 154.559 40.1437ZM154.559 37.6972C155.294 37.6972 155.933 37.4254 156.476 36.8817C157.02 36.3233 157.292 35.5005 157.292 34.4131C157.292 33.3258 157.02 32.5103 156.476 31.9666C155.933 31.4083 155.301 31.1291 154.581 31.1291C153.831 31.1291 153.185 31.4083 152.641 31.9666C152.113 32.5103 151.848 33.3258 151.848 34.4131C151.848 35.5005 152.113 36.3233 152.641 36.8817C153.185 37.4254 153.824 37.6972 154.559 37.6972ZM162.459 39.8792V24.01H165.281V39.8792H162.459Z" fill="#EFEFE5"/>
</g>
</svg>
