<svg width="160" height="48" viewBox="0 0 160 48" fill="none" xmlns="http://www.w3.org/2000/svg">
<g opacity="0.8">
<path fill-rule="evenodd" clip-rule="evenodd" d="M21.7067 26.9594C21.8 26.9861 21.9067 27.0128 22 27.0261C22 27.0261 21.5867 27.1861 20.72 26.8928C20.72 26.8928 20.08 26.6261 19.5867 26.6794C19.0267 26.7328 18.64 27.4661 18.64 27.4661C18.7467 27.3994 18.8667 27.3594 18.9867 27.3328C19.3733 27.2528 19.24 27.3194 19.24 27.3194C19.24 27.3194 18.5067 27.6261 18.4533 27.9061C18.44 27.9728 18.6533 27.7861 19.1867 27.7994C19.8533 27.8261 20.44 28.2128 20.68 28.2661C21.1733 28.3994 21.8667 28.4261 22.52 27.9194C22.52 27.9194 23.12 27.5461 23.2933 26.8528C23.3467 26.6661 23.3733 26.4661 23.3733 26.2661C23.3733 26.0928 23.36 25.9194 23.32 25.7461C23.3333 25.7461 22.9867 26.5461 21.7067 26.9594Z" fill="#EFEFE5"/>
<path fill-rule="evenodd" clip-rule="evenodd" d="M34.3467 34.5203C35.64 32.8937 36.3467 30.8803 36.3467 28.8003C36.3467 26.7203 35.64 24.707 34.3467 23.0803L42.6534 22.1603C42.6534 22.1603 43.52 24.5337 43.7467 25.8003C43.7734 25.9603 43.8267 26.2937 43.8267 26.2937C43.8267 26.2937 42.5334 29.427 40.56 31.147C37.9067 33.4403 34.3467 34.5203 34.3467 34.5203ZM14.68 34.4003L11.4934 34.987C10.48 32.427 10.12 29.667 10.4134 26.9337C10.72 24.2003 11.68 21.587 13.24 19.307C13.3067 19.2137 13.44 19.0137 13.44 19.0137L16.96 28.9203L14.68 34.4003Z" fill="#EFEFE5"/>
<path fill-rule="evenodd" clip-rule="evenodd" d="M26.2 14.08C26.2133 14.0667 26.2133 14.0667 26.2266 14.0533C26.3066 13.96 28.2933 11.84 25.9333 8.24001C24.2 5.58668 19.76 5.66668 17.96 4.28001C18.0933 5.34668 19.1333 6.30668 19.0266 7.76001C18.9866 8.24001 18.8933 8.72001 18.76 9.17335C18.5466 10 18.3466 10.8 18.64 12.3467C18.8666 13.56 19.4266 14.44 20.28 14.9733C21.2533 15.5733 22.6133 15.7067 24 15.3333C24.9333 15.08 25.7466 14.6133 26.2 14.08Z" fill="#C1C1BA"/>
<path fill-rule="evenodd" clip-rule="evenodd" d="M29.1466 12.5335C29.6533 11.6535 29.7466 10.6401 29.44 9.50678C29 7.92012 28.1733 6.88012 27.5066 6.05345C27.2933 5.78678 27.0933 5.54678 26.9466 5.30678C26.3066 4.37345 26.04 3.24012 26.1733 2.12012C25.36 2.69345 23.8133 3.80012 22.8266 4.96012C24.2666 5.65345 25.3866 6.40012 26.2666 7.74678C27.7733 10.0535 27.7466 11.9068 27.4666 13.0668C27.3866 13.3868 28 13.6668 27.88 13.9068C28.3866 13.5468 28.8266 13.0801 29.1466 12.5335Z" fill="#C1C1BA"/>
<path fill-rule="evenodd" clip-rule="evenodd" d="M47.36 21.0666C47.36 21.0666 46.6933 24.7732 43.1867 25.1999C43.1867 25.1999 30.4667 25.1199 29.5333 36.6799L29.32 39.9332L14.0533 35.4799C14.0533 35.4799 15.4933 30.5732 18.64 26.6266C18.64 26.6266 23.9867 19.0799 39.2133 21.0666C39.2133 21.0666 40.9867 21.4266 43.4933 21.6532C45.5867 21.8666 47.36 21.0666 47.36 21.0666Z" fill="#C1C1BA"/>
<path fill-rule="evenodd" clip-rule="evenodd" d="M38.2667 16.026C38.2667 16.026 35.4534 12.7993 28.8801 12.066C28.8801 12.066 25.9601 12.0526 21.3067 9.1193C18.9201 7.61263 17.9601 4.2793 17.9601 4.2793C16.2534 6.58596 15.4001 9.97263 15.0934 11.5326C15.0267 11.7993 14.9467 12.0526 14.8934 12.3326C13.9867 11.7593 14.0667 11.3726 14.0801 11.3193C14.0401 11.426 12.5067 15.9193 12.7734 19.2126C12.9201 21.066 13.9201 22.7993 13.9201 22.7993C13.4801 23.0793 12.9067 22.626 12.9067 22.626C13.4001 25.466 13.9734 26.786 15.2001 28.4793C15.4667 28.8393 15.2001 28.666 14.0401 30.8393C13.0267 32.7193 12.1467 35.3326 12.1467 35.3326L14.8934 35.4793C14.8934 35.4793 17.1601 28.9326 19.6934 26.4126C22.9867 23.3993 27.3467 21.0926 35.0267 21.5193C35.0267 21.5193 38.4401 21.9326 40.1334 22.0926C40.1334 22.0926 45.7201 22.5326 47.2667 21.066C47.2801 21.066 42.9867 21.1193 38.2667 16.026ZM31.2801 17.746C31.2801 17.746 33.5201 15.9993 36.5334 16.426L38.6934 19.306C38.6934 19.306 35.3867 17.586 31.2801 17.746Z" fill="#EFEFE5"/>
<path fill-rule="evenodd" clip-rule="evenodd" d="M30.3466 35.1068C30.3466 35.1068 31.4266 35.8535 33.1333 35.4535C33.1333 35.4535 30.3733 37.0535 24.56 34.8535C24.56 34.8535 18.56 32.1735 14.3466 32.7868C11.64 33.1735 9.23996 35.3335 7.78663 36.9735C6.02663 38.9601 6.25329 38.0268 10.6533 37.4801C11.7066 37.3468 11.1066 37.6535 11.1066 37.6535C11.1066 37.6535 5.22663 40.1201 4.82663 42.3068C4.73329 42.8535 6.37329 41.3068 10.7333 41.4401C16.0666 41.6135 20.72 44.7068 22.6266 45.2268C26.5333 46.2668 32.1466 46.5068 37.2933 42.4801C37.2933 42.4801 42.04 39.5068 43.5066 34.0001C43.8933 32.4668 44.12 30.9068 44.1733 29.3335C44.2533 27.2801 43.6266 25.1201 43.6266 25.1201C43.6266 25.1201 40.1466 32.8134 30.3466 35.1068Z" fill="#EFEFE5"/>
<path fill-rule="evenodd" clip-rule="evenodd" d="M153.933 31.9333H155.187V34.8666H153.4C152.107 34.8666 151.107 34.5866 150.4 34.0266C149.693 33.4666 149.333 32.5066 149.333 31.1466V26.4533H148.267V23.5866H149.333V20.8399H152.853V23.5866H155.16V26.4533H152.853V31.1466C152.867 31.6799 153.227 31.9333 153.933 31.9333ZM139.64 30.3599C139.707 30.8533 139.933 31.2666 140.32 31.5866C140.707 31.9066 141.12 32.0666 141.56 32.0666C142 32.0666 142.333 32.0266 142.56 31.9333C142.787 31.8399 142.947 31.7599 143.04 31.6666C143.147 31.5733 143.28 31.4399 143.44 31.2266H147.253C146.92 32.3599 146.267 33.2666 145.28 33.9599C144.293 34.6533 143.12 34.9999 141.76 34.9999C140.08 34.9999 138.72 34.4666 137.64 33.4133C136.573 32.3599 136.04 30.9466 136.04 29.1999C136.04 27.4533 136.573 26.0533 137.64 25.0133C138.707 23.9733 140.08 23.4533 141.773 23.4533C143.467 23.4533 144.867 23.9599 145.973 24.9866C147.08 26.0133 147.64 27.4266 147.64 29.2533C147.64 29.6399 147.613 30.0133 147.56 30.3466L139.64 30.3599ZM143.267 26.9199C142.853 26.5866 142.373 26.4266 141.8 26.4266C141.24 26.4266 140.76 26.5866 140.373 26.9199C139.987 27.2533 139.747 27.6799 139.653 28.1999H143.96C143.907 27.6799 143.667 27.2533 143.267 26.9199ZM131.067 19.9199H134.587V34.8799H131.067V19.9199ZM125.253 19.9199H128.773V34.8799H125.253V19.9199ZM119.48 33.2399C118.627 34.4266 117.493 35.0133 116.067 35.0133C114.64 35.0133 113.413 34.4799 112.4 33.3999C111.387 32.3199 110.88 30.9466 110.88 29.2533C110.88 27.5733 111.387 26.1866 112.4 25.0933C113.413 24.0133 114.653 23.4666 116.12 23.4666C117.587 23.4666 118.707 23.9999 119.48 25.0666V23.5866H123V34.8666H119.48V33.2399ZM118.72 27.1866C118.213 26.7066 117.627 26.4666 116.973 26.4666C116.32 26.4666 115.733 26.7066 115.227 27.1999C114.72 27.6799 114.467 28.3733 114.467 29.2666C114.467 30.1599 114.72 30.8399 115.227 31.3199C115.733 31.7999 116.32 32.0399 116.973 32.0399C117.627 32.0399 118.213 31.7999 118.72 31.3066C119.227 30.8266 119.48 30.1333 119.48 29.2399C119.48 28.3466 119.227 27.6533 118.72 27.1866ZM102.76 34.8666L100.227 25.8666L97.72 34.8666H93.68L89.5867 20.6799H93.36L95.8667 30.8933L98.44 20.6799H102.44L104.907 30.7199L107.053 20.6799H110.84L106.8 34.8666H102.76ZM85.92 29.0799L89.6267 34.9066H85.7333L82.1867 29.4533V29.4399L78.4533 23.6133H82.4133L84.2933 26.5466L86.1467 23.6133H89.6267L85.92 29.0799ZM75.72 33.7066L73.8267 30.7999C74.04 30.3866 74.1333 29.8666 74.1333 29.2533C74.1333 28.3333 73.8933 27.6399 73.4133 27.1599C72.9333 26.6799 72.36 26.4399 71.7067 26.4399C71.48 26.4399 71.2533 26.4666 71.04 26.5333L69.3333 23.8933C70.0667 23.6133 70.8667 23.4799 71.7333 23.4799C73.44 23.4799 74.8667 23.9999 76.0133 25.0533C77.16 26.0933 77.7333 27.4933 77.7333 29.2266C77.7333 30.9733 77.16 32.3733 76.0267 33.4399C75.92 33.5333 75.8133 33.6266 75.72 33.7066ZM69.2933 29.2533C69.2933 30.1733 69.5333 30.8666 70.0267 31.3599C70.52 31.8399 71.0933 32.0933 71.7467 32.0933C72.1467 32.0933 72.4933 31.9999 72.8267 31.8266L74.5333 34.4533C73.7067 34.8399 72.7733 35.0399 71.7467 35.0399C70.04 35.0399 68.6133 34.5066 67.4533 33.4399C66.2933 32.3733 65.7067 30.9733 65.7067 29.2266C65.7067 27.4799 66.28 26.0933 67.44 25.0533C67.64 24.8666 67.8667 24.6933 68.08 24.5466L69.88 27.3066C69.4933 27.7733 69.2933 28.4266 69.2933 29.2533ZM58.48 20.6933H64.9467V23.3333H60.1867L58.48 20.6933ZM59.0533 26.3866H63.4667V29.0133H59.0533V34.9066H55.5333V20.6933H56.8133L59.0533 24.1333V26.3866ZM83 33.2399L81.9467 34.8933H78.4667L81.3333 30.6933L83 33.2399Z" fill="#EFEFE5"/>
</g>
</svg>
