<svg width="170" height="66" viewBox="0 0 170 66" fill="none" xmlns="http://www.w3.org/2000/svg">
<g opacity="0.8" clip-path="url(#clip0_1169_10094)">
<path d="M104.806 26.7097C105.729 26.7097 106.484 27.4645 106.484 28.3871H113.194C113.194 23.7742 109.419 20 104.806 20C100.194 20 96.4194 23.7742 96.4194 28.3871V30.0645C96.4194 34.6774 100.194 38.4516 104.806 38.4516C109.419 38.4516 113.194 34.6774 113.194 30.0645H106.484C106.484 30.9871 105.729 31.7419 104.806 31.7419C103.884 31.7419 103.129 30.9871 103.129 30.0645V28.3871C103.129 27.4645 103.884 26.7097 104.806 26.7097ZM36.871 20V38.4516H43.5807V36.7742H51.9678V30.0645H43.5807V26.7097H53.6452V20H36.871ZM30.1613 20H16.7419V38.4516H23.4516V28.3871C23.4516 27.4645 24.2065 26.7097 25.129 26.7097C26.0516 26.7097 26.8065 27.4645 26.8065 28.3871V38.4516H33.5161V23.3548C33.5161 21.5097 32.0065 20 30.1613 20ZM145.065 20C140.452 20 136.677 23.7742 136.677 28.3871V38.4516H143.387V28.3871C143.387 27.4645 144.142 26.7097 145.065 26.7097C145.987 26.7097 146.742 27.4645 146.742 28.3871V38.4516H153.452V28.3871C153.452 23.7742 149.677 20 145.065 20ZM124.936 20C120.323 20 116.548 23.7742 116.548 28.3871V38.4516H123.258V36.7742H126.613V38.4516H133.323V28.3871C133.323 23.7742 129.548 20 124.936 20ZM126.613 30.0645H123.258V28.3871C123.258 27.4645 124.013 26.7097 124.936 26.7097C125.858 26.7097 126.613 27.4645 126.613 28.3871V30.0645ZM57 26.7097H61.6129V38.4516H68.3226V26.7097H72.9355V20H57V26.7097ZM84.6774 26.7097C85.6 26.7097 86.3549 27.4645 86.3549 28.3871H93.0645C93.0645 23.7742 89.2903 20 84.6774 20C80.0645 20 76.2903 23.7742 76.2903 28.3871C76.2903 33 80.0645 36.7742 84.6774 36.7742C85.6 36.7742 86.3549 37.529 86.3549 38.4516C86.3549 38.7871 86.271 39.0387 86.1032 39.2903H92.9807C92.9807 39.0387 93.0645 38.7032 93.0645 38.4516C93.0645 33.8387 89.2903 30.0645 84.6774 30.0645C83.7549 30.0645 83 29.3097 83 28.3871C83 27.4645 83.7549 26.7097 84.6774 26.7097ZM83 38.4516H76.2903C76.2903 38.7032 76.2903 39.0387 76.3742 39.2903H83.2516C83.0839 39.0387 83 38.7871 83 38.4516ZM76.7097 40.9677H92.729C92.8129 40.7161 92.8968 40.3806 92.9807 40.129H76.4581C76.542 40.3806 76.6258 40.7161 76.7097 40.9677ZM77.3807 42.6452H91.8903C92.0581 42.3935 92.2258 42.0581 92.3097 41.8065H76.9613C77.1291 42.0581 77.2968 42.3935 77.3807 42.6452ZM78.7226 44.3226H90.7161C90.9678 44.071 91.2194 43.8194 91.471 43.4839H77.9678C78.2194 43.8194 78.471 44.071 78.7226 44.3226ZM81.071 46H88.3678C88.871 45.7484 89.2903 45.4968 89.7097 45.1613H79.6452C80.0645 45.4968 80.5678 45.7484 81.071 46Z" fill="#EFEFE5"/>
</g>
<defs>
<clipPath id="clip0_1169_10094">
<rect width="136.71" height="26" fill="white" transform="translate(16.7419 20)"/>
</clipPath>
</defs>
</svg>
