<svg width="170" height="66" viewBox="0 0 170 66" fill="none" xmlns="http://www.w3.org/2000/svg">
<g opacity="0.8">
<mask id="mask0_844_9953" style="mask-type:luminance" maskUnits="userSpaceOnUse" x="37" y="15" width="95" height="37">
<path d="M131.554 15.3076H37.684V51.1486H131.554V15.3076Z" fill="white"/>
</mask>
<g mask="url(#mask0_844_9953)">
<path d="M53.2543 26.367C53.3619 21.1038 50.3438 16.5176 48.7718 15.4154C48.7646 15.4083 48.6246 15.3339 48.6353 15.5394C48.6353 15.543 48.6318 15.543 48.6318 15.5465C48.4703 25.4881 43.2951 28.1675 40.4851 31.8109C34.2406 39.9129 39.4515 49.1563 46.2021 50.9071C46.317 50.9355 46.6292 51.0277 47.2214 51.1481C47.53 51.212 47.6198 50.9532 47.3936 50.5669C46.5861 49.1811 45.1505 46.8419 44.8671 43.8363C44.2211 36.8578 53.1286 32.4914 53.2543 26.367Z" fill="#EFEFE5"/>
<path d="M56.6567 29.737C56.6028 29.698 56.5276 29.7015 56.5204 29.7688C56.3768 31.0342 55.0525 33.6569 53.3083 36.1094C47.4369 44.3781 50.3942 48.1278 52.6911 50.7294C53.1145 51.2114 53.3262 51.1051 53.5488 50.7613C53.7569 50.4352 54.0726 50.0205 55.4294 49.3861C55.6411 49.2869 60.766 46.6004 61.3222 40.4831C61.857 34.5642 58.0132 30.8214 56.6567 29.737Z" fill="#EFEFE5"/>
<path d="M87.1435 28.2314V49.9894H82.4169V41.1999H73.3336V49.9894H68.4886V28.2314H73.3336V37.0211H82.4169V28.2314H87.1435Z" fill="#EFEFE5"/>
<path d="M108.996 28.2314V32.5341H106.746H102.21V49.9858H97.3468V32.5341H92.9324H90.6823V28.2314H108.996Z" fill="#EFEFE5"/>
<path fill-rule="evenodd" clip-rule="evenodd" d="M126.208 50.0107L120.653 42.4402L115.14 49.9788L109.75 49.9858L117.922 38.8783L110.209 28.2314H115.596L131.573 50.0107H126.208Z" fill="#EFEFE5"/>
<path d="M122.164 33.1008L124.83 36.7586L131.147 28.2275H125.788L122.164 33.1008Z" fill="#EFEFE5"/>
</g>
</g>
</svg>
