<svg width="170" height="66" viewBox="0 0 170 66" fill="none" xmlns="http://www.w3.org/2000/svg">
<g opacity="0.8" clip-path="url(#clip0_1169_12457)">
<path d="M56.6005 23.7152C54.855 20.032 51.2945 17.482 47.2812 17.1806C45.3148 16.9979 43.2856 17.3306 41.5128 18.2238C40.3223 18.8142 39.2628 19.6338 38.3723 20.6102C36.5354 18.5279 33.9404 17.1642 31.1393 17.0238C25.251 16.6692 20.1753 20.482 18.9385 26.3989C18.1871 29.9431 19.0067 33.6441 20.6335 36.7614C22.2577 39.8365 24.6278 42.5706 27.711 44.177C29.863 45.2243 31.8798 42.5679 30.3061 40.7106C29.8043 40.1488 29.342 39.5515 28.9207 38.9133C28.5292 38.3214 28.1774 37.6996 27.8583 37.0628C26.9719 35.2464 26.3105 33.2009 26.1796 31.1867C26.1019 29.9063 26.2696 28.8031 26.8015 27.689C27.3046 26.6498 28.1201 25.7567 29.1906 25.3367C30.8557 24.7053 32.593 25.0448 33.8585 26.4085C34.6808 27.2553 35.0572 28.4404 35.4772 29.534C35.5085 29.6131 35.5426 29.6895 35.5781 29.7645C36.4141 32.3431 40.246 32.4086 40.9619 29.4754C40.9837 29.3758 41.0056 29.2749 41.0288 29.1726C41.0328 29.1562 41.0369 29.1412 41.041 29.1249C41.0451 29.1085 41.0478 29.0921 41.0519 29.0744C41.1133 28.8127 41.1842 28.5508 41.2756 28.3067C41.5606 27.5199 42.0351 26.7603 42.6051 26.1808C43.4643 25.3066 44.5593 24.7789 45.7579 24.8962C46.4289 24.9343 47.1857 25.1171 47.7312 25.413C50.7913 27.0726 50.4722 31.4336 49.1604 34.3068C48.2385 36.3195 46.763 38.0037 45.1266 39.4587C44.7216 39.8174 44.2593 40.2128 43.8407 40.5469C41.922 42.0374 41.431 44.8589 42.9475 46.8811C44.5743 49.1039 47.8144 49.2116 49.6758 47.2344C50.0413 46.873 50.3945 46.498 50.7422 46.1202C54.2537 42.1983 57.4447 36.3768 57.9411 31.0122C58.1456 28.5044 57.6997 25.9981 56.5992 23.7152H56.6005Z" fill="#EFEFE5"/>
<path d="M81.0594 26.6328C82.4994 26.6328 83.6558 27.0924 84.5272 28.0115C85.3986 28.9306 85.8336 30.1537 85.8336 31.6824V39.1717H82.0644V32.0001C82.0644 31.3825 81.909 30.8943 81.5994 30.537C81.2899 30.1797 80.8412 29.9997 80.2548 29.9997C79.6343 29.9997 79.1529 30.2028 78.8107 30.6092C78.467 31.0156 78.2952 31.5774 78.2952 32.292V39.1717H74.526V32.0001C74.526 31.3825 74.3705 30.8943 74.061 30.537C73.7514 30.1797 73.3028 29.9997 72.7164 29.9997C72.0959 29.9997 71.6145 30.2028 71.2722 30.6092C70.9286 31.0156 70.7568 31.5774 70.7568 32.292V39.1717H66.9875V26.9737H70.7568V28.096C71.444 27.1196 72.5664 26.6328 74.1237 26.6328C75.5815 26.6328 76.6779 27.1701 77.4156 28.2433C78.1861 27.1701 79.4011 26.6328 81.0594 26.6328Z" fill="#EFEFE5"/>
<path d="M99.0506 37.6477C97.7604 38.8913 96.1857 39.5145 94.3269 39.5145C92.4682 39.5145 90.8932 38.8927 89.6032 37.6477C88.3131 36.404 87.6681 34.8794 87.6681 33.0739C87.6681 31.2684 88.3131 29.7438 89.6032 28.5002C90.8932 27.2566 92.4682 26.6348 94.3269 26.6348C96.1857 26.6348 97.7604 27.2566 99.0506 28.5002C100.341 29.7438 100.985 31.2684 100.985 33.0739C100.985 34.8794 100.341 36.404 99.0506 37.6477ZM92.2664 35.1467C92.8187 35.684 93.506 35.9513 94.3269 35.9513C95.1478 35.9513 95.8338 35.6826 96.3874 35.1467C96.9401 34.6094 97.2164 33.9194 97.2164 33.0725C97.2164 32.2257 96.9401 31.5358 96.3874 30.9985C95.8351 30.4612 95.1478 30.1939 94.3269 30.1939C93.506 30.1939 92.8187 30.4625 92.2664 30.9985C91.7141 31.5344 91.4373 32.2271 91.4373 33.0725C91.4373 33.918 91.7141 34.6094 92.2664 35.1467Z" fill="#EFEFE5"/>
<path d="M106.667 39.1735H102.662V26.9088H106.466V29.8652C107.07 27.6029 108.658 26.6006 110.17 26.6006C110.673 26.6006 111.229 26.6265 111.908 26.9347L110.926 30.7911C110.095 30.4829 109.491 30.4829 109.113 30.4829C107.602 30.4829 106.67 31.357 106.67 34.9557V39.1749L106.667 39.1735Z" fill="#EFEFE5"/>
<path d="M121.896 26.9737H125.665V39.1716H121.896V37.7275C121.42 38.9548 119.761 39.5125 118.153 39.5125C116.545 39.5125 115.079 38.8907 113.906 37.6457C112.733 36.402 112.147 34.8774 112.147 33.0719C112.147 31.2665 112.733 29.7419 113.906 28.4983C115.079 27.2546 116.495 26.6041 118.153 26.6327C121.011 26.6818 121.966 28.0455 121.896 28.7273V26.9737ZM116.746 35.2429C117.298 35.7802 118.018 36.0475 118.907 36.0475C119.796 36.0475 120.515 35.7788 121.068 35.2429C121.622 34.707 121.898 33.9829 121.898 33.0719C121.898 32.161 121.621 31.437 121.068 30.901C120.516 30.3651 119.794 30.0965 118.907 30.0965C118.02 30.0965 117.299 30.3651 116.746 30.901C116.193 31.4383 115.916 32.161 115.916 33.0719C115.916 33.9829 116.193 34.707 116.746 35.2429Z" fill="#EFEFE5"/>
<path d="M128.452 39.1713V21.3633H132.221V39.1713H128.452Z" fill="#EFEFE5"/>
<path d="M138.534 25.2553C138.09 25.6863 137.558 25.9017 136.939 25.9017C136.32 25.9017 135.787 25.6863 135.344 25.2553C134.899 24.8244 134.678 24.3076 134.678 23.7062C134.678 23.1049 134.9 22.588 135.344 22.1571C135.787 21.7262 136.318 21.5107 136.939 21.5107C137.559 21.5107 138.09 21.7262 138.534 22.1571C138.978 22.588 139.2 23.1049 139.2 23.7062C139.2 24.3076 138.978 24.8244 138.534 25.2553ZM135.055 39.1729V26.9749H138.824V39.1729H135.055Z" fill="#EFEFE5"/>
<path d="M145.161 30.5361C145.161 30.7803 145.375 30.9793 145.802 31.1335C146.229 31.2875 146.744 31.443 147.347 31.5971C147.95 31.7512 148.552 31.9503 149.156 32.1944C149.759 32.4384 150.275 32.8408 150.702 33.4012C151.129 33.9617 151.342 34.6653 151.342 35.5108C151.342 36.8281 150.839 37.825 149.834 38.4986C148.829 39.1736 147.59 39.5104 146.115 39.5104C143.469 39.5104 141.668 38.5436 140.714 36.6072L143.98 34.8017C144.316 35.7617 145.026 36.2403 146.115 36.2403C147.019 36.2403 147.472 35.9881 147.472 35.4835C147.472 35.2394 147.258 35.0362 146.831 34.8739C146.404 34.7117 145.889 34.5535 145.286 34.3981C144.683 34.2439 144.081 34.0408 143.477 33.7885C142.874 33.5362 142.358 33.1421 141.932 32.6048C141.505 32.0675 141.29 31.4089 141.29 30.6289C141.29 29.3607 141.764 28.3761 142.71 27.6766C143.657 26.977 144.825 26.6279 146.215 26.6279C147.254 26.6279 148.2 26.8515 149.054 27.2988C149.908 27.7461 150.595 28.3925 151.114 29.238L147.899 30.9207C147.497 30.2047 146.935 29.8475 146.215 29.8475C145.495 29.8475 145.159 30.0753 145.159 30.5307L145.161 30.5361Z" fill="#EFEFE5"/>
</g>
<defs>
<clipPath id="clip0_1169_12457">
<rect width="132.685" height="32" fill="white" transform="translate(18.6577 17)"/>
</clipPath>
</defs>
</svg>
