<svg width="96" height="130" viewBox="0 0 96 130" fill="none" xmlns="http://www.w3.org/2000/svg">
<g clip-path="url(#clip0_1391_3027)">
<path d="M41.8262 37.7804L40.9834 35.0348C40.2297 32.581 38.5508 30.5833 36.2527 29.4051C33.9554 28.2278 31.3371 28.0261 28.8793 28.8373C25.1477 30.0705 22.7134 33.5732 22.4983 37.4319C22.4227 37.8438 22.3815 38.2631 22.358 38.685C22.2824 39.0952 22.2412 39.5146 22.2185 39.9357C21.937 41.4657 22.0084 43.0907 22.4966 44.679L25.6972 55.092C25.8283 55.5189 25.9207 55.9225 25.9955 56.3135C25.8039 56.6553 25.5737 56.9755 25.283 57.264L19.0179 63.4823C18.0365 64.4561 16.6803 64.9597 15.2972 64.8663L-3.69456 63.579L-3.99285 63.5582L-8.01606 63.2847C-13.3224 62.9237 -18.0405 66.7198 -18.5345 71.7458C-18.5488 71.8984 -18.5463 72.0493 -18.5539 72.2019C-18.6043 72.4637 -18.6488 72.728 -18.6749 72.9973C-18.69 73.1524 -18.6866 73.3058 -18.6942 73.46C-18.7438 73.7193 -18.7875 73.9812 -18.8144 74.248C-18.8286 74.4005 -18.8261 74.5515 -18.8337 74.704C-18.8841 74.9658 -18.9286 75.2301 -18.9547 75.4995C-19.2311 78.3218 -18.2337 81.0891 -16.2154 83.0918L-16.212 83.0951C-14.5886 84.706 -12.4342 85.6782 -10.1428 85.8324L16.9038 87.6701C20.5119 87.9168 23.4184 90.7992 23.6663 94.3769L25.0998 115.075L25.109 115.324L25.5165 121.213C25.6728 123.486 26.6534 125.624 28.276 127.234C30.2952 129.238 33.0849 130.23 35.9317 129.955C40.6288 129.5 44.252 125.441 44.4646 120.656C44.5352 120.246 44.5856 119.829 44.6041 119.405C44.6755 118.992 44.7259 118.574 44.7453 118.148C44.878 117.376 44.9335 116.579 44.8763 115.765L44.6167 111.855L43.3748 93.9559C43.6033 93.4973 43.8831 93.0629 44.2562 92.6927L50.5213 86.4727C51.7775 85.2263 53.6126 84.771 55.3125 85.2855L66.9889 88.8123C72.0927 90.3548 77.5561 87.6984 79.1677 82.8925C79.4576 82.0279 79.6131 81.1433 79.6475 80.2603C79.7215 79.8434 79.771 79.4257 79.7878 79.0072C79.8618 78.5903 79.9122 78.1717 79.929 77.7532C80.2836 75.7371 79.9811 73.676 79.0182 71.825C77.8502 69.5805 75.873 67.9321 73.4312 67.1617L73.4421 67.1592L65.4587 64.7588C66.6696 63.9125 67.756 62.8745 68.6568 61.6471C70.1936 59.5552 71.0306 57.1173 71.1751 54.646C71.2398 54.2316 71.2902 53.8163 71.3146 53.3986C71.3793 52.9826 71.4305 52.5632 71.4549 52.1438C72.0086 48.5744 71.0978 44.8241 68.7307 41.8584C66.294 38.8051 62.8127 37 58.929 36.7765C55.0991 36.5564 51.3473 37.9747 48.6357 40.6652C46.6628 42.6246 45.3704 45.0976 44.9133 47.824L41.8337 37.8029L41.8262 37.7804ZM69.1139 69.7398C69.3332 69.5622 69.6105 69.4254 69.9483 69.3087C70.1525 69.2378 70.3743 69.1711 70.623 69.1061L70.6255 69.1053C70.7423 69.0744 70.8692 69.0435 70.9969 69.0119C71.0482 68.9994 71.0944 68.9869 71.1473 68.9743C71.2205 68.9568 71.302 68.9327 71.3767 68.9152C71.6221 68.8551 71.8691 68.7951 72.1263 68.72C72.1389 68.7159 72.1515 68.7134 72.1649 68.71C72.1775 68.7059 72.1901 68.7 72.2027 68.6959C72.5086 68.6042 72.8161 68.4908 73.1153 68.3557C73.143 68.3432 73.1741 68.3357 73.2018 68.3232C73.7295 68.4983 74.232 68.7217 74.7042 68.9885C76.0873 69.7706 77.2141 70.9287 77.9611 72.367C78.1796 72.7855 78.3501 73.2183 78.4921 73.6577C78.5451 73.8219 78.593 73.9878 78.6358 74.1538C78.8073 74.8291 78.8938 75.5186 78.8879 76.2115C78.8879 76.2582 78.8904 76.304 78.8896 76.3516C78.8787 76.771 78.8257 77.1887 78.7501 77.6056C78.7493 77.6081 78.7493 77.6114 78.7484 77.6139C78.7073 77.8382 78.656 78.0625 78.5955 78.2859C78.5518 78.446 78.5132 78.6078 78.4602 78.767C78.4434 78.817 78.4199 78.8637 78.4022 78.9129C76.9881 82.8592 72.5674 85.0812 68.2879 84.0648C68.1106 84.0223 67.9316 83.9848 67.7552 83.9314L66.3183 83.4978L66.315 83.4962L64.5025 82.9484L64.305 82.8892L64.3017 82.8875L64.195 82.855L63.9899 82.7933C64 82.7149 64.0261 82.6374 64.0488 82.5599C64.0605 82.5182 64.0639 82.4765 64.0807 82.4348C64.0975 82.3898 64.1219 82.3522 64.142 82.3105C64.4454 81.6644 65.0529 81.3967 66.0343 81.1366C66.0503 81.1324 66.0646 81.1283 66.0805 81.1241C66.1402 81.1083 66.2049 81.0924 66.2679 81.0766C66.3007 81.0691 66.3351 81.0599 66.3687 81.0516C66.4494 81.0315 66.525 81.0115 66.6099 80.9907C66.6544 80.9799 66.7032 80.9682 66.7485 80.9565C66.7637 80.9532 66.778 80.949 66.7931 80.9457C67.262 80.8323 67.7543 80.7022 68.2392 80.5179C68.3862 80.4621 68.5308 80.397 68.6744 80.3295C68.7307 80.3037 68.787 80.2778 68.8425 80.2495C69.0332 80.1519 69.2172 80.0394 69.3945 79.9135C69.4282 79.8901 69.4643 79.8709 69.4979 79.8459C69.6382 79.74 69.7693 79.615 69.897 79.4882C69.9164 79.469 69.9382 79.4524 69.9575 79.4332C70.039 79.349 70.1121 79.2514 70.1861 79.1564C70.2399 79.088 70.2928 79.0205 70.3432 78.9471C70.4684 78.7628 70.5802 78.5569 70.681 78.3335C70.7188 78.2492 70.7667 78.1784 70.8012 78.0875C70.8516 77.9541 70.8726 77.8282 70.9087 77.699C71.4246 75.8063 70.4104 74.3464 69.5685 73.1624C69.545 73.129 69.5298 73.104 69.5063 73.0723C69.3786 72.8923 69.2677 72.7288 69.1609 72.5679C69.071 72.432 68.9929 72.2978 68.9198 72.1735C68.8971 72.1344 68.8795 72.0968 68.8576 72.0585C68.7812 71.9209 68.6996 71.7783 68.6492 71.6483C68.6316 71.6024 68.6324 71.5599 68.6173 71.5149C68.6081 71.4874 68.6055 71.4598 68.5971 71.4315C68.5618 71.3014 68.5156 71.1705 68.5123 71.0421V71.0404C68.5106 70.9988 68.5316 70.9546 68.5333 70.9129C68.5358 70.8753 68.5484 70.8362 68.5526 70.7986C68.5635 70.7128 68.5694 70.6269 68.5971 70.5393C68.6089 70.501 68.6013 70.4651 68.6156 70.4259C68.6333 70.3801 68.6576 70.3426 68.677 70.3C68.6879 70.2759 68.6988 70.2534 68.7114 70.2308C68.8156 70.0341 68.9492 69.8732 69.1139 69.7398ZM27.6987 40.7628C27.1475 42.0735 26.7904 42.8231 25.8686 43.0123C25.4737 43.0924 25.1275 43.0407 24.7443 42.8372L24.052 40.5844C23.8814 40.0316 23.7696 39.4738 23.71 38.9176C23.6856 38.695 23.6772 38.4733 23.6696 38.2523C23.6629 38.0289 23.6663 37.8071 23.6764 37.5853C23.6781 37.5436 23.678 37.5019 23.6806 37.461C23.7075 37.0108 23.7688 36.5681 23.8621 36.1337C23.873 36.0828 23.8848 36.0311 23.8965 35.9811C24.0578 35.2891 24.2982 34.6221 24.6166 33.9976C24.6998 33.8333 24.7889 33.6715 24.8822 33.514C25.8552 31.8781 27.3626 30.5824 29.2507 29.9579C29.4196 29.9021 29.5902 29.8612 29.7608 29.817C31.7606 29.2901 33.8503 29.5043 35.7031 30.454C35.7485 30.4774 35.788 30.5099 35.8334 30.5332C36.5577 30.9218 37.2156 31.3962 37.7803 31.9565C38.7113 32.8803 39.4054 34.0192 39.8129 35.3007C39.8213 35.3274 39.8339 35.3516 39.8423 35.3783L39.9734 35.8068L40.5565 37.7028C40.4851 37.8654 40.4154 38.0263 40.349 38.1856C40.3473 38.1889 40.3456 38.1923 40.3448 38.1964C40.3322 38.2273 40.3204 38.254 40.307 38.284C40.2885 38.329 40.2692 38.3715 40.2507 38.4149C40.1641 38.6192 40.0793 38.8101 39.9969 38.9835C39.9776 39.0244 39.9574 39.0661 39.9381 39.1053C39.8272 39.3304 39.7154 39.528 39.5953 39.6972C39.3171 40.0916 38.9936 40.3392 38.5206 40.4351C37.6005 40.6211 36.9761 40.0716 35.9493 39.0794C34.8335 37.9988 33.4453 36.6548 31.2438 37.1017C29.0423 37.5486 28.2987 39.3304 27.6987 40.7628ZM-3.73825 80.9048C-3.7769 80.9415 -3.83152 80.9807 -3.87437 81.0182C-3.971 81.1024 -4.06175 81.1858 -4.18275 81.2742L-4.21888 81.2717L-9.64282 80.904C-11.646 80.7689 -13.5333 79.9185 -14.9533 78.5094C-14.9533 78.5094 -14.955 78.5077 -14.9567 78.506C-16.2767 77.1962 -17.0977 75.5111 -17.3262 73.7118C-17.3548 73.4901 -17.3649 73.2649 -17.3741 73.0407C-17.3842 72.8189 -17.3825 72.5954 -17.3741 72.372C-17.3733 72.3545 -17.3725 72.337 -17.3716 72.3194C-17.3657 72.1669 -17.3674 72.0151 -17.3523 71.8617C-17.3279 71.6157 -17.2884 71.3748 -17.2414 71.1363C-17.2363 71.113 -17.2346 71.088 -17.2313 71.0646C-17.0918 70.3876 -16.8548 69.7456 -16.5498 69.1411C-16.4683 68.9802 -16.3851 68.8209 -16.2935 68.6667C-15.16 66.7548 -13.2408 65.3274 -10.9889 64.7404C-10.0688 64.5011 -9.09664 64.3936 -8.09756 64.4611L-4.41382 64.7113C-4.37097 64.7421 -4.34156 64.768 -4.30039 64.7971C-3.98528 65.0264 -3.72648 65.2382 -3.50549 65.4425C-3.25761 65.6718 -3.06519 65.9027 -2.9484 66.1504C-2.86605 66.3238 -2.82067 66.5139 -2.80639 66.7181C-2.80555 66.729 -2.80219 66.739 -2.80135 66.7498C-2.79882 66.794 -2.78034 66.829 -2.78202 66.8741C-2.78538 66.9925 -2.80051 67.1042 -2.82487 67.2101L-2.82487 67.2117C-2.84168 67.2818 -2.86773 67.3477 -2.89378 67.4135C-2.92319 67.4877 -2.95932 67.5603 -3.00049 67.6311C-3.03074 67.6828 -3.05847 67.7354 -3.0946 67.7846C-3.14334 67.8513 -3.20047 67.9163 -3.26097 67.9797C-3.29206 68.0122 -3.32399 68.0455 -3.3576 68.0772C-3.36264 68.0822 -3.36937 68.0872 -3.37441 68.0922C-3.41642 68.1322 -3.46096 68.1731 -3.50717 68.2123C-3.60717 68.2982 -3.71724 68.3857 -3.83656 68.4724C-3.99369 68.5866 -4.16595 68.7042 -4.35501 68.8268C-4.46592 68.8985 -4.57852 68.9718 -4.70036 69.0494C-6.01538 69.8823 -7.6539 70.9195 -7.71608 73.1457C-7.71944 73.2424 -7.70264 73.3258 -7.69928 73.4192C-7.69171 73.6518 -7.67071 73.8761 -7.62786 74.0837C-7.57996 74.3197 -7.51358 74.5423 -7.42871 74.7499C-7.39594 74.8308 -7.35644 74.9066 -7.31863 74.9842C-7.2699 75.0826 -7.22621 75.186 -7.16991 75.2785C-7.15142 75.3102 -7.12789 75.3369 -7.10857 75.3661C-7.01278 75.5161 -6.91278 75.6637 -6.80187 75.8004C-6.77582 75.833 -6.74557 75.8596 -6.71868 75.8913C-6.57332 76.0606 -6.41787 76.2198 -6.2557 76.3691C-6.19772 76.4233 -6.1389 76.475 -6.07924 76.5258C-5.96832 76.6226 -5.85657 76.7168 -5.74313 76.806C-5.47341 77.0186 -5.20116 77.217 -4.94067 77.4038C-3.99621 78.0791 -3.39374 78.5486 -3.21308 79.2014C-3.18283 79.3098 -3.16518 79.4257 -3.1593 79.5466C-3.15678 79.5925 -3.14922 79.635 -3.15006 79.6825C-3.15174 79.7375 -3.1677 79.785 -3.17359 79.8376C-3.18115 79.8968 -3.18703 79.956 -3.20048 80.0127V80.0143C-3.23325 80.1552 -3.28619 80.2912 -3.36097 80.4221C-3.36433 80.4271 -3.36517 80.4329 -3.36853 80.4379C-3.3971 80.4863 -3.43239 80.5363 -3.46768 80.5846C-3.54414 80.6939 -3.62817 80.7989 -3.73825 80.9048ZM26.7223 110.951L26.6812 110.896L25.2695 90.5416C24.983 86.3785 21.5984 83.0268 17.4046 82.7408L-1.10065 81.4843L-1.21408 81.4768C-1.18467 81.4209 -1.17207 81.3584 -1.14602 81.3008C-1.06115 81.1183 -0.983845 80.9332 -0.928387 80.7397C-0.839317 80.4262 -0.782183 80.1011 -0.772099 79.7542C-0.709078 77.5255 -2.28374 76.4033 -3.55003 75.497C-3.78782 75.326 -4.00041 75.1701 -4.19367 75.02C-4.36929 74.8841 -4.52894 74.7524 -4.6659 74.6232C-4.75077 74.544 -4.82976 74.4639 -4.89866 74.3839C-4.95832 74.3147 -5.00874 74.2463 -5.05663 74.1754C-5.12217 74.0787 -5.17763 73.9803 -5.22132 73.8769C-5.24149 73.8286 -5.25409 73.776 -5.27006 73.7252C-5.28014 73.6918 -5.29022 73.6585 -5.29779 73.6243C-5.32552 73.4984 -5.344 73.3683 -5.34064 73.2249C-5.34064 73.2249 -5.34148 73.2207 -5.34064 73.2182C-5.33728 73.1149 -5.32299 73.019 -5.30451 72.9256C-5.29526 72.8814 -5.28182 72.8397 -5.26838 72.798C-5.21124 72.6063 -5.11881 72.4312 -4.99109 72.2661C-4.67178 71.8559 -4.14158 71.4998 -3.41979 71.0404C-3.36013 71.0029 -3.29795 70.9612 -3.23745 70.9229C-3.1635 70.8762 -3.09124 70.8295 -3.01646 70.7803C-2.8837 70.6936 -2.75093 70.6019 -2.61733 70.5093C-2.42743 70.3776 -2.24257 70.2375 -2.05939 70.0874C-2.05771 70.0858 -2.05687 70.0849 -2.05519 70.0833C-2.02158 70.0549 -1.98629 70.0299 -1.95267 70.0016C-1.81823 69.8865 -1.69219 69.7631 -1.56783 69.6347C-1.5359 69.6013 -1.50061 69.573 -1.46952 69.5388C-1.40566 69.4688 -1.3502 69.3904 -1.28886 69.3162C-1.23593 69.252 -1.18467 69.1878 -1.13509 69.1202C-1.04771 68.9985 -0.970402 68.8668 -0.894777 68.7334C-0.854445 68.66 -0.811592 68.5908 -0.775461 68.5133C-0.722525 68.4007 -0.680508 68.2806 -0.637653 68.1597C-0.612446 68.0897 -0.58976 68.0172 -0.567913 67.9438C-0.536823 67.8246 -0.505735 67.7053 -0.482208 67.5786C-0.477167 67.5536 -0.477163 67.5252 -0.472961 67.5011C-0.443552 67.3201 -0.410784 67.1409 -0.404902 66.9416C-0.40406 66.9324 -0.407421 66.9241 -0.407421 66.9141C-0.403219 66.7082 -0.441874 66.5164 -0.466242 66.3188C-0.469603 66.2921 -0.469603 66.2654 -0.473804 66.2396C-0.503214 66.0353 -0.547743 65.8344 -0.609922 65.6392C-0.675463 65.4341 -0.742689 65.2274 -0.845201 65.0323C-0.858646 65.0072 -0.862007 64.9772 -0.875452 64.9522L15.2115 66.0436C15.6728 66.0745 16.1299 66.0495 16.5778 65.9769C17.8071 65.7793 18.9566 65.2074 19.854 64.3169L26.119 58.0986C26.1207 58.0969 26.1224 58.0953 26.1224 58.0953C26.2476 57.971 26.3518 57.8343 26.4619 57.7017C26.5476 57.6 26.6391 57.5025 26.7156 57.3949C26.7559 57.3382 26.7862 57.2765 26.824 57.219C26.9744 56.9914 27.1072 56.7546 27.2206 56.5069C27.2996 56.3335 27.3769 56.1601 27.4382 55.9775C27.5088 55.7674 27.5576 55.5456 27.6038 55.323C27.8609 54.074 27.7525 52.6324 27.25 50.9965L26.2568 47.7665L26.2518 47.7465V47.7448L26.0863 47.2054L26.0762 47.172L25.914 46.6442L25.914 46.6426L25.9022 46.6042L25.9006 46.5992L25.7417 46.0831L25.7241 46.0272L25.567 45.5161L25.551 45.4636L25.5493 45.4569L25.5334 45.4061C25.6964 45.4061 25.8619 45.3752 26.0266 45.3552C26.1014 45.346 26.1762 45.3452 26.2518 45.3319C26.2543 45.331 26.2585 45.3319 26.2585 45.3319C26.2879 45.326 26.3165 45.3294 26.3467 45.3227C26.5896 45.2735 26.8064 45.2018 27.0156 45.1226C27.0761 45.0993 27.1358 45.0751 27.1946 45.0501C27.4374 44.9442 27.655 44.8183 27.8559 44.6774C27.9853 44.5856 28.1105 44.4914 28.2239 44.3889C28.3583 44.2671 28.4785 44.1362 28.5936 44.002C29.1432 43.3617 29.4986 42.6004 29.7969 41.8926C29.8288 41.8175 29.8624 41.7408 29.8935 41.6666C29.949 41.5349 30.0019 41.4123 30.054 41.2906C30.0885 41.2097 30.1237 41.133 30.1582 41.0571C30.217 40.927 30.275 40.8045 30.333 40.6903C30.3935 40.5702 30.454 40.4585 30.5178 40.3551C30.7363 39.9932 30.9783 39.7331 31.2926 39.5713C31.3388 39.5472 31.385 39.5213 31.4362 39.5021L31.4388 39.5013C31.5278 39.4663 31.6219 39.4363 31.7245 39.4146C32.2001 39.3179 32.5975 39.4221 33.0126 39.6806L33.0143 39.6822C33.0454 39.7014 33.0773 39.7247 33.1092 39.7464C33.4663 39.9874 33.8403 40.3334 34.294 40.772C34.9234 41.3798 35.6452 42.061 36.5434 42.4704C36.5459 42.4712 36.5493 42.4729 36.5518 42.4737C36.6543 42.5204 36.7526 42.5712 36.8602 42.6096C37.3938 42.8005 37.9979 42.8697 38.6726 42.7855C38.7483 42.7755 38.8214 42.7747 38.8995 42.7605C38.9146 42.7572 38.9289 42.758 38.9449 42.7555C38.9651 42.7522 38.9819 42.7538 39.002 42.7488C39.2474 42.6988 39.4625 42.6204 39.6742 42.5387C39.7272 42.5179 39.791 42.5079 39.8415 42.4862C40.086 42.3803 40.3053 42.2511 40.5078 42.1068C40.6397 42.0143 40.7523 41.9059 40.8683 41.8008C40.8758 41.7933 40.8851 41.7858 40.8935 41.7792L40.8952 41.7775C41.0262 41.6558 41.1514 41.5299 41.2657 41.3948L41.2674 41.3931C41.2909 41.3648 41.3136 41.3356 41.3371 41.3056C41.417 41.2064 41.5043 41.1113 41.5766 41.0063L43.7773 48.1675C43.8235 48.3201 43.9025 48.4502 43.9966 48.5652C44.0378 48.6161 44.0865 48.6578 44.1352 48.7011C44.305 48.8496 44.5108 48.9421 44.7436 48.973C44.7604 48.9746 44.778 48.9771 44.7957 48.978C44.8436 48.9821 44.8906 48.9938 44.9394 48.9921C44.952 48.9913 44.9629 48.9971 44.9755 48.9963C45.0688 48.9905 45.1511 48.9604 45.236 48.9363C45.2931 48.9196 45.352 48.9079 45.404 48.8829C45.4822 48.8471 45.5519 48.7995 45.6183 48.7487C45.8477 48.5744 46.0158 48.3243 46.0695 48.0158C46.1199 47.7223 46.1838 47.4321 46.2552 47.1462C46.2947 46.9902 46.3426 46.8377 46.388 46.6842C46.6434 45.8138 46.993 44.98 47.435 44.1929C47.5182 44.0454 47.5988 43.8969 47.6879 43.7519C48.1887 42.9414 48.7861 42.1852 49.4768 41.4982C50.9784 40.0082 52.8328 38.9535 54.8377 38.3949C56.1326 38.0339 57.4905 37.8754 58.8618 37.9538C60.6936 38.0589 62.4228 38.5558 63.9773 39.3912C65.426 40.17 66.725 41.2422 67.8006 42.5896C68.6803 43.6927 69.3357 44.915 69.7744 46.1957C69.8298 46.3574 69.8785 46.5208 69.9264 46.6834C70.1819 47.5489 70.3382 48.436 70.397 49.3298C70.4096 49.5207 70.4247 49.7125 70.4281 49.9043C70.4373 50.4154 70.4062 50.9248 70.3508 51.4334C70.3289 51.6302 70.3037 51.827 70.2726 52.0229C70.234 52.263 70.1953 52.5032 70.1424 52.7408C70.0995 52.9317 70.0432 53.1193 69.992 53.3086C69.6139 54.681 68.9963 56.0025 68.1182 57.1973C66.199 59.812 63.4034 61.5488 60.2465 62.0865C59.6945 62.1808 59.3012 62.6143 59.2651 63.1655C59.2525 63.3781 59.308 63.5715 59.3945 63.7491C59.4861 63.935 59.6172 64.0934 59.797 64.2085C59.8911 64.2685 59.9886 64.3236 60.102 64.3577L60.4591 64.4653L60.4793 64.477L69.1299 67.0909C69.0979 67.1025 69.0652 67.1167 69.0332 67.1284C68.7576 67.2301 68.4854 67.3502 68.2241 67.4944C68.0031 67.617 67.7896 67.7554 67.588 67.9188C67.5678 67.9355 67.5468 67.9513 67.5258 67.9688C67.3619 68.1064 67.2107 68.2665 67.067 68.4391C66.9384 68.5933 66.8191 68.7617 66.7099 68.9468C66.6981 68.9669 66.6847 68.9852 66.6738 69.006C66.5805 69.1703 66.4956 69.3462 66.42 69.5363C66.4124 69.5572 66.4015 69.5747 66.3931 69.5963C66.3276 69.7698 66.2931 69.9357 66.2528 70.1024C66.1562 70.4985 66.1217 70.8762 66.1444 71.2355C66.1578 71.4423 66.1839 71.6449 66.2284 71.8409C66.2788 72.061 66.3452 72.2736 66.4259 72.4804C66.4628 72.5737 66.504 72.6646 66.5452 72.7555C66.5956 72.8656 66.646 72.9756 66.7032 73.0823C66.7132 73.1007 66.7242 73.1182 66.7334 73.1374C66.8351 73.325 66.9418 73.5059 67.0544 73.6827C67.0678 73.7027 67.0813 73.7244 67.0947 73.7444C67.2384 73.9653 67.3855 74.1796 67.5308 74.3839C67.5628 74.4289 67.5955 74.4764 67.6266 74.5206C68.1812 75.2994 68.5408 75.8697 68.6349 76.4249C68.6576 76.5542 68.6602 76.6884 68.6492 76.8177C68.64 76.9286 68.6282 77.0403 68.5921 77.1545C68.582 77.1895 68.5879 77.222 68.5745 77.2571C68.5408 77.3471 68.4988 77.4255 68.4543 77.503C68.4442 77.5214 68.4366 77.5422 68.4266 77.5589C68.3837 77.6264 68.3341 77.6856 68.2829 77.7448C68.1972 77.8432 68.1039 77.9341 67.9938 78.0116C67.9409 78.0491 67.8795 78.0816 67.8199 78.1158C67.6586 78.2076 67.4737 78.2893 67.2662 78.3618C66.9258 78.481 66.5259 78.5844 66.0545 78.6986L66.0469 78.7011C64.5294 79.0647 62.643 79.5174 61.8548 81.6068C61.7943 81.7703 61.7439 81.9354 61.7053 82.1054L56.0771 80.4045C53.9571 79.7634 51.6657 80.3328 50.1003 81.8878L43.8344 88.1069C42.7152 89.2175 42.0967 90.7183 42.09 92.2791C42.0892 92.4234 42.0867 92.5693 42.0967 92.7144L43.4017 111.5C43.3748 111.533 43.3496 111.555 43.3227 111.587C43.2782 111.639 43.2345 111.684 43.1908 111.731C43.1202 111.806 43.0479 111.879 42.9782 111.939C42.9068 112 42.8353 112.054 42.7631 112.1C42.5059 112.267 42.2387 112.354 41.9304 112.361C40.9968 112.389 40.4784 111.748 39.6289 110.583C38.7163 109.331 37.5803 107.77 35.3385 107.832C33.0966 107.895 32.0522 109.518 31.2094 110.828C30.4388 112.026 29.9574 112.704 29.0205 112.73C28.0844 112.755 27.5651 112.11 26.7223 110.951ZM36.2359 125.027C33.7453 125.267 31.3026 124.399 29.5356 122.646C28.4239 121.543 27.6634 120.156 27.3164 118.651C27.2643 118.428 27.2215 118.202 27.1887 117.974C27.161 117.777 27.1341 117.578 27.1198 117.377L27.1131 117.279L27.1122 117.258L27.1122 117.255L27.0668 116.596L27.0618 116.516L27.061 116.51L27.0198 115.912L27.0164 115.862V115.861L26.9711 115.207L26.9593 115.04L26.9585 115.033L26.924 114.54C27.0921 114.64 27.2794 114.728 27.4769 114.807C27.4803 114.809 27.4853 114.81 27.4895 114.811C27.5492 114.835 27.613 114.855 27.6752 114.877C28.0827 115.014 28.5407 115.102 29.0742 115.088C29.2079 115.084 29.3247 115.058 29.4499 115.044C29.5356 115.034 29.6255 115.028 29.7078 115.013H29.7112C30.0708 114.948 30.396 114.842 30.6909 114.701C30.6951 114.698 30.6993 114.696 30.7052 114.693C30.7094 114.691 30.7136 114.688 30.7187 114.687C31.4018 114.352 31.9295 113.847 32.3681 113.294C32.3866 113.27 32.4068 113.247 32.4252 113.224C32.4454 113.197 32.4689 113.172 32.4883 113.146C32.5437 113.073 32.595 112.998 32.6479 112.924C32.6706 112.892 32.6933 112.861 32.7151 112.829C32.8874 112.582 33.0521 112.335 33.205 112.096C33.2159 112.079 33.2252 112.065 33.2369 112.048C33.2504 112.026 33.263 112.009 33.2764 111.987C33.4714 111.685 33.6504 111.421 33.8226 111.192L33.8251 111.189C34.1058 110.817 34.3763 110.544 34.6864 110.38C34.7326 110.355 34.778 110.332 34.8259 110.313C34.9998 110.242 35.1864 110.199 35.3981 110.192C35.7544 110.182 36.0502 110.27 36.3266 110.446C36.3308 110.449 36.335 110.453 36.3401 110.456C36.3779 110.48 36.414 110.511 36.4501 110.539C36.8501 110.837 37.2215 111.318 37.6895 111.96L37.6962 111.969C37.7265 112.01 37.7601 112.055 37.7912 112.098C37.8038 112.115 37.8164 112.133 37.8299 112.15C38.1063 112.529 38.408 112.923 38.7542 113.29C38.7701 113.308 38.7852 113.326 38.802 113.343C39.2121 113.768 39.6927 114.138 40.27 114.391C40.3439 114.422 40.4112 114.464 40.4885 114.493C40.5254 114.506 40.5675 114.513 40.6061 114.524C41.0178 114.659 41.4716 114.738 41.9909 114.723C42.1203 114.719 42.2396 114.689 42.3648 114.675C42.469 114.663 42.5748 114.655 42.6748 114.636C42.6807 114.635 42.6858 114.635 42.6908 114.633C42.7731 114.617 42.8538 114.598 42.9336 114.578C43.1328 114.523 43.3269 114.458 43.5143 114.373C43.537 114.362 43.5622 114.359 43.5849 114.348L43.5882 114.347V114.35L43.6454 115.179L43.6462 115.183L43.6924 115.847C43.6941 115.867 43.6924 115.886 43.6941 115.906C43.7008 116.014 43.6975 116.123 43.7008 116.231C43.7017 116.243 43.7008 116.256 43.7016 116.268C43.7075 116.514 43.7033 116.759 43.6882 117.001C43.6865 117.021 43.6848 117.041 43.684 117.061C43.6613 117.382 43.6235 117.698 43.5681 118.01C43.5277 118.239 43.4781 118.463 43.421 118.685C43.3698 118.882 43.316 119.079 43.2504 119.273C42.211 122.357 39.5247 124.709 36.2359 125.027Z" fill="#FEF3CD"/>
<path d="M55.2222 47.0844C56.0053 47.8615 57.2758 47.8615 58.0589 47.0844C58.842 46.3074 58.842 45.0467 58.0589 44.2696C57.2758 43.4926 56.0053 43.4926 55.2222 44.2696C54.439 45.0467 54.439 46.3074 55.2222 47.0844Z" fill="#FEF3CD"/>
<path d="M61.2496 53.0653C62.0329 53.8426 63.303 53.8426 64.0863 53.0653C64.8697 52.288 64.8697 51.0277 64.0863 50.2505C63.303 49.4732 62.0329 49.4732 61.2496 50.2505C60.4662 51.0277 60.4662 52.288 61.2496 53.0653Z" fill="#FEF3CD"/>
<path d="M40.2586 56.8256C40.0089 57.0733 40.0881 57.4927 40.4112 57.634L47.8921 60.9066L50.9764 68.0998C51.1157 68.4247 51.5421 68.5068 51.7938 68.2571L53.5468 66.5176L47.8921 60.9066L42.0189 55.0788L40.2586 56.8256Z" fill="#FEF3CD"/>
<path d="M43.7663 53.345C44.016 53.0972 44.4386 53.1758 44.5811 53.4964L47.8792 60.9195L55.1283 63.9799C55.4558 64.1182 55.5385 64.5413 55.2868 64.791L53.5338 66.5304L47.8792 60.9195L42.006 55.0917L43.7663 53.345Z" fill="#FEF3CD"/>
<path d="M39.0853 66.9973C39.203 66.8805 39.3938 66.8805 39.5115 66.9973L41.9266 69.3938C42.0443 69.5106 42.0443 69.6999 41.9266 69.8167L39.5115 72.2132C39.3938 72.33 39.203 72.33 39.0853 72.2132L36.6701 69.8167C36.5525 69.6999 36.5525 69.5106 36.6701 69.3938L39.0853 66.9973Z" fill="#FEF3CD"/>
<path d="M31.3177 74.9717C31.4354 74.855 31.6262 74.855 31.7439 74.9717L34.1591 77.3682C34.2768 77.485 34.2768 77.6743 34.1591 77.7911L31.7439 80.1876C31.6262 80.3044 31.4354 80.3044 31.3177 80.1876L28.9026 77.7911C28.7849 77.6743 28.7849 77.485 28.9026 77.3682L31.3177 74.9717Z" fill="#FEF3CD"/>
</g>
<defs>
<clipPath id="clip0_1391_3027">
<rect width="96" height="130" fill="white"/>
</clipPath>
</defs>
</svg>
