<svg width="96" height="130" viewBox="0 0 96 130" fill="none" xmlns="http://www.w3.org/2000/svg">
<g clip-path="url(#clip0_1391_3027)">
    <path d="M47.3703 2.38531C47.741 2.38531 48.0443 2.08436 48.0443 1.71813V0.66878C48.0443 0.300951 47.741 0 47.3703 0C46.9996 0 46.6963 0.300951 46.6963 0.66878V1.71813C46.6963 2.08596 46.9996 2.38531 47.3703 2.38531Z" fill="#FEF3CD"/>
    <path d="M49.389 4.58042C49.389 4.94824 49.6923 5.24919 50.063 5.24919H51.1205C51.4912 5.24919 51.7945 4.94824 51.7945 4.58042C51.7945 4.21259 51.4912 3.91163 51.1205 3.91163H50.063C49.6923 3.91163 49.389 4.21259 49.389 4.58042Z" fill="#FEF3CD"/>
    <path d="M47.1777 8.97083C47.5484 8.97083 47.8501 8.66987 47.8501 8.30205V7.2527C47.8501 6.88487 47.5468 6.58392 47.1777 6.58392C46.8086 6.58392 46.5053 6.88487 46.5053 7.2527V8.30205C46.5037 8.66987 46.807 8.97083 47.1777 8.97083Z" fill="#FEF3CD"/>
    <path d="M43.4274 5.0587H44.4849C44.8556 5.0587 45.1589 4.75776 45.1589 4.38993C45.1589 4.0221 44.8556 3.72114 44.4849 3.72114H43.4274C43.0567 3.72114 42.7534 4.0221 42.7534 4.38993C42.7534 4.75776 43.0567 5.0587 43.4274 5.0587Z" fill="#FEF3CD"/>
    <path d="M94.904 41.2187L95.7722 40.3572C96.0759 40.0559 96.0759 39.5622 95.7722 39.2609C95.4686 38.9596 94.9711 38.9596 94.6674 39.2609L93.7992 40.1224C93.4955 40.4237 93.4955 40.9174 93.7992 41.2187C94.1029 41.52 94.6003 41.52 94.904 41.2187Z" fill="#FEF3CD"/>
    <path d="M94.509 46.6249C94.8127 46.9262 95.3102 46.9262 95.6138 46.6249C95.9175 46.3236 95.9175 45.8299 95.6138 45.5286L94.7456 44.6671C94.4419 44.3658 93.9445 44.3658 93.6408 44.6671C93.3371 44.9685 93.3371 45.4621 93.6408 45.7634L94.509 46.6249Z" fill="#FEF3CD"/>
    <path d="M89.2979 46.4678L90.1661 45.6063C90.4698 45.305 90.4698 44.8114 90.1661 44.51C89.8624 44.2087 89.365 44.2087 89.0594 44.51L88.1912 45.3715C87.8876 45.6729 87.8876 46.1665 88.1912 46.4678C88.4968 46.7692 88.9942 46.7692 89.2979 46.4678Z" fill="#FEF3CD"/>
    <path d="M89.2197 41.0617C89.5234 41.363 90.0208 41.363 90.3245 41.0617C90.6282 40.7603 90.6282 40.2667 90.3245 39.9654L89.4563 39.102C89.1526 38.8007 88.6551 38.8007 88.3515 39.102C88.0478 39.4034 88.0478 39.897 88.3515 40.1983L89.2197 41.0617Z" fill="#FEF3CD"/>
    <path d="M67.0457 119.38L67.6969 118.734C67.9246 118.508 67.9246 118.137 67.6969 117.911C67.4691 117.685 67.096 117.685 66.8682 117.911L66.2171 118.557C65.9893 118.783 65.9893 119.154 66.2171 119.38C66.4448 119.606 66.8179 119.606 67.0457 119.38Z" fill="#FEF3CD"/>
    <path d="M66.7495 123.435C66.9772 123.661 67.3503 123.661 67.5781 123.435C67.8059 123.209 67.8059 122.838 67.5781 122.612L66.9269 121.966C66.6991 121.74 66.326 121.74 66.0983 121.966C65.8705 122.192 65.8705 122.562 66.0983 122.788L66.7495 123.435Z" fill="#FEF3CD"/>
    <path d="M62.8411 123.317L63.4922 122.671C63.72 122.445 63.72 122.074 63.4922 121.848C63.2645 121.622 62.8913 121.622 62.6622 121.848L62.011 122.494C61.7832 122.72 61.7832 123.091 62.011 123.317C62.2402 123.543 62.6133 123.543 62.8411 123.317Z" fill="#FEF3CD"/>
    <path d="M62.7824 119.262C63.0101 119.488 63.3832 119.488 63.611 119.262C63.8388 119.036 63.8388 118.666 63.611 118.44L62.9598 117.792C62.7321 117.566 62.3589 117.566 62.1312 117.792C61.9034 118.018 61.9034 118.389 62.1312 118.615L62.7824 119.262Z" fill="#FEF3CD"/>

</g>
<defs>
<clipPath id="clip0_1391_3027">
<rect width="96" height="130" fill="white"/>
</clipPath>
</defs>
</svg>
