<svg width="170" height="66" viewBox="0 0 170 66" fill="none" xmlns="http://www.w3.org/2000/svg">
<g opacity="0.8" clip-path="url(#clip0_1422_10366)">
<path d="M42.9935 40.8302L29.8772 43.8487C29.3988 43.9678 29.04 44.4444 29.04 44.921V53.897C29.04 54.6516 29.638 55.1283 30.3955 54.9695L48.6944 50.7593C49.4519 50.6005 49.7709 49.8855 49.4519 49.2103L46.143 42.4188C45.6247 41.3465 46.143 40.2344 47.2991 39.9961L59.2592 37.1365C60.0964 36.9379 60.814 36.0641 60.814 35.1904V26.8895C60.814 26.1349 60.216 25.6186 59.4585 25.8172L42.1961 29.908C41.1197 30.1463 40.6413 31.1789 41.1197 32.1719L44.1496 38.4075C44.6679 39.4798 44.1496 40.5521 42.9935 40.8302Z" fill="#EFEFE5"/>
<path d="M34.3434 18.3904L37.772 25.3806C38.2105 26.2941 37.772 27.2473 36.7753 27.4459L30.4364 28.9154C29.6391 29.114 29.0012 29.9083 29.0012 30.7026V38.2092C29.0012 39.4801 30.0378 40.2744 31.2736 39.9964L37.1739 38.646C37.9713 38.4872 38.6092 37.6531 38.6092 36.8588L38.649 29.1537C38.649 28.0813 39.5261 27.009 40.5626 26.7707L59.8981 22.1635C60.3765 22.0443 60.7353 21.5677 60.7353 21.0911V12.1151C60.7353 11.3605 60.1373 10.8442 59.3798 11.0427L35.1009 16.8414C34.3434 17.0003 34.0245 17.7152 34.3434 18.3904Z" fill="#EFEFE5"/>
<path d="M93.5527 39.2857H82.5094V22H77.4124V44H93.5527V39.2857Z" fill="#EFEFE5"/>
<path d="M96.876 44H101.973V22H96.876V44Z" fill="#EFEFE5"/>
<path d="M105.78 44.0002H110.625V39.1602H105.78V44.0002Z" fill="#EFEFE5"/>
<path d="M119.516 35.42H130.182V31.0829H119.516V26.4629H131.094V22H114.419V44H119.516V35.42Z" fill="#EFEFE5"/>
<path d="M134.559 44H139.655V22H134.559V44Z" fill="#EFEFE5"/>
</g>
<defs>
<clipPath id="clip0_1422_10366">
<rect width="111" height="44" fill="white" transform="translate(29 11)"/>
</clipPath>
</defs>
</svg>
