<svg width="123" height="132" viewBox="0 0 123 132" fill="none" xmlns="http://www.w3.org/2000/svg">
<path d="M96.0297 44.7995C96.0297 44.7915 96.0341 44.7843 96.0341 44.7762V0.000207764H95.1432V44.7762C95.1432 44.7843 95.1476 44.7915 95.1476 44.7995C87.7197 45.0361 81.7458 51.1715 81.7458 58.6985C81.7458 66.3741 87.9558 72.6189 95.5887 72.6189C103.222 72.6189 109.432 66.3741 109.432 58.6985C109.432 51.1715 103.459 45.0369 96.0297 44.7995ZM82.9041 60.1167C83.2168 61.1946 83.6052 62.5376 85.0967 63.0214C86.5855 63.5026 87.6832 62.646 88.5679 61.9552C89.3617 61.3352 89.9952 60.8443 90.8042 61.1104C91.6212 61.3747 91.844 62.1416 92.1255 63.1128C92.44 64.1915 92.8303 65.5346 94.3191 66.0184C95.8078 66.5013 96.9055 65.643 97.7884 64.9531C98.5814 64.3322 99.2077 63.8377 100.024 64.1064C100.839 64.3707 101.062 65.1359 101.343 66.1044L101.344 66.1089C101.653 67.176 102.039 68.4984 103.492 68.9939C101.302 70.698 98.5654 71.7238 95.5887 71.7238C88.6748 71.7238 83.0252 66.2433 82.6706 59.3776C82.7535 59.607 82.8274 59.8542 82.9041 60.1167ZM103.948 67.7342C103.132 67.4672 102.91 66.7011 102.629 65.7308C102.315 64.6521 101.926 63.3099 100.437 62.827C100.133 62.7293 99.8466 62.6863 99.5739 62.6863C98.5092 62.6863 97.67 63.3431 96.9679 63.8932C96.174 64.5141 95.5495 65.0042 94.7316 64.739C93.9154 64.4747 93.6927 63.7095 93.4103 62.7365C93.0966 61.6587 92.7073 60.3166 91.2176 59.8309C89.727 59.3498 88.6294 60.2063 87.7455 60.898C86.9517 61.5189 86.32 62.0063 85.5101 61.7438C84.6976 61.4777 84.473 60.7152 84.1879 59.7404C83.9402 58.883 83.6311 57.8455 82.7285 57.2156C82.978 55.0125 83.7772 52.9778 84.9836 51.2468C85.0228 51.2558 85.0655 51.2558 85.1038 51.2683C85.9182 51.5326 86.1409 52.2951 86.426 53.2726C86.7387 54.3504 87.1263 55.6925 88.6187 56.1772C90.1119 56.6593 91.2051 55.8009 92.089 55.1119C92.8837 54.4911 93.5145 54.0001 94.3262 54.2662C95.145 54.5314 95.3668 55.2974 95.6484 56.2722C95.9638 57.35 96.354 58.6913 97.8419 59.1742C99.3352 59.6562 100.429 58.7988 101.31 58.108C102.106 57.4871 102.737 56.9961 103.547 57.2622C104.363 57.5265 104.586 58.2935 104.866 59.2647C105.18 60.3425 105.568 61.6847 107.058 62.1685C107.388 62.2742 107.708 62.3038 108.03 62.2903C107.444 64.3403 106.371 66.1824 104.944 67.6849C104.593 67.8193 104.277 67.8399 103.948 67.7342ZM108.344 60.8882C108.043 60.9831 107.761 60.9849 107.468 60.8891C106.653 60.6221 106.431 59.856 106.149 58.8857C105.837 57.8079 105.448 56.4657 103.957 55.981C103.654 55.8834 103.368 55.8404 103.095 55.8404C102.029 55.8404 101.19 56.4971 100.489 57.0481C99.6933 57.6699 99.0688 58.1591 98.2517 57.8939C97.4356 57.6296 97.2129 56.8644 96.9305 55.8905C96.6177 54.8127 96.2293 53.4715 94.7378 52.9859C93.2472 52.502 92.1504 53.3595 91.2675 54.0511C90.4728 54.6729 89.8429 55.1612 89.0294 54.8987C88.2169 54.6326 87.9923 53.8702 87.7099 52.9025L87.7072 52.8936C87.4212 51.9053 87.0604 50.7048 85.854 50.1358C88.2302 47.4076 91.7085 45.6731 95.5896 45.6731C102.732 45.6731 108.541 51.5156 108.541 58.6985C108.541 59.4457 108.464 60.1741 108.344 60.8882Z" fill="#FEF3CD"/>
<path d="M57.4703 38.4826V0.000207764H56.5816V38.4826C52.4276 38.7218 49.1162 42.2588 49.1162 46.5863C49.1162 51.0673 52.6649 54.7129 57.026 54.7129C61.3879 54.7129 64.9366 51.0673 64.9366 46.5863C64.9366 42.2588 61.6252 38.7209 57.4703 38.4826ZM64.0479 46.5854C64.0479 47.6509 63.8159 48.6598 63.4098 49.5709C61.3115 51.6206 58.599 52.7536 55.6938 52.7536C54.733 52.7536 53.7785 52.6194 52.8453 52.3674C51.4767 51.3211 50.4875 49.7809 50.1409 48.0006C51.8509 48.9547 53.751 49.4696 55.6938 49.4696C58.8301 49.4696 61.818 48.1604 64.0123 45.8669C64.0354 46.1043 64.0479 46.3435 64.0479 46.5854ZM55.5169 43.2612C54.1065 43.2612 52.7583 42.8321 51.5798 42.0406C52.8685 40.4136 54.8299 39.3719 57.026 39.3719C58.503 39.3719 59.8735 39.8457 61.0066 40.6492C59.6246 42.3108 57.6516 43.2612 55.5169 43.2612Z" fill="#FEF3CD"/>
<path d="M25.7865 64.8211C24.8167 64.553 23.8347 64.4164 22.8553 64.3809V0H21.9832V64.3684C19.9128 64.4377 17.8772 65.0181 16.0301 66.0946C13.0509 67.8315 10.9151 70.6449 10.0159 74.0165C8.15826 80.9762 12.2128 88.1765 19.052 90.066C20.1744 90.3767 21.3047 90.5249 22.4158 90.5249C28.0733 90.5249 33.2703 86.6891 34.8226 80.8715C36.6803 73.9109 32.6258 66.7114 25.7865 64.8211ZM10.4589 76.7952L11.8744 76.7251L10.8453 80.229L14.4367 80.0541L13.4085 83.5589L17.0007 83.3831L15.9743 86.8897L19.5639 86.7148L18.8723 89.0738C13.5689 87.4009 10.172 82.2667 10.4589 76.7952ZM20.1308 88.9513L21.159 85.4466L17.5659 85.6214L18.5941 82.1149L15.0036 82.2897L16.0318 78.785L12.4404 78.9598L13.4695 75.456L10.5828 75.5971C10.6508 75.148 10.738 74.6981 10.8584 74.249C11.6686 71.2146 13.5602 68.6746 16.1888 67.0452L17.3548 66.9875L16.3257 70.4904L19.9163 70.3147L18.888 73.8194L22.4786 73.6437L21.4503 77.1493L25.0426 76.9727L24.0161 80.4801L27.6058 80.3053L26.5776 83.81L30.1698 83.6343L29.1434 87.1417L29.6945 87.1151C29.2742 87.4408 28.8399 87.7505 28.3733 88.0221C26.8479 88.9114 25.1848 89.4261 23.485 89.5797L23.7205 88.7765L20.1308 88.9513ZM30.735 85.8726L31.7615 82.3661L28.1718 82.54L29.2 79.0362L25.6078 79.211L26.6351 75.7045L23.0446 75.8793L24.0728 72.3746L20.4814 72.5494L21.5105 69.0456L17.92 69.2213L18.9299 65.7822C19.6093 65.5701 20.3026 65.4192 21.0038 65.334L20.4561 67.1987L24.0467 67.0229L23.0184 70.5277L26.609 70.352L25.5816 73.8567L29.173 73.681L28.1465 77.1875L31.7362 77.0135L30.7079 80.5183L34.0421 80.355C34.0194 80.4491 34.0063 80.544 33.981 80.6381C33.4499 82.627 32.4548 84.4055 31.0943 85.8548L30.735 85.8726ZM34.2715 79.1524L32.3005 79.2492L33.3296 75.7444L29.7364 75.9193L30.7629 72.4128L27.1741 72.5885L28.2015 69.0828L24.6109 69.2586L25.6392 65.7538L22.0495 65.9304L22.2483 65.2515C22.2998 65.2506 22.3504 65.2462 22.401 65.2462C23.4545 65.2462 24.5159 65.3891 25.5598 65.6775C31.4466 67.3052 35.1096 73.1556 34.2715 79.1524Z" fill="#FEF3CD"/>

</svg>
