<svg width="123" height="132" viewBox="0 0 123 132" fill="none" xmlns="http://www.w3.org/2000/svg">
<path d="M15.5906 121.88H14.2206V117.975H11.3641V121.88H10V113.12H11.3641V116.784H14.2206V113.12H15.5906V121.88Z" fill="#FEF3CD"/>
<path d="M21.3969 119.864H18.7327L18.1556 121.88H16.6982L19.4614 113.12H20.7031L23.4197 121.88H21.9682L21.3969 119.864ZM19.0883 118.625H21.0529L20.0794 115.16L19.0883 118.625Z" fill="#FEF3CD"/>
<path d="M25.9498 118.541V121.88H24.5507V113.12H27.3897C27.8172 113.124 28.2097 113.191 28.5673 113.319C28.9287 113.447 29.2396 113.63 29.5 113.866C29.7604 114.103 29.9625 114.39 30.1063 114.727C30.2501 115.064 30.322 115.443 30.322 115.864C30.322 116.269 30.2501 116.636 30.1063 116.965C29.9625 117.289 29.7604 117.568 29.5 117.801C29.2396 118.037 28.9287 118.22 28.5673 118.348C28.2097 118.477 27.8172 118.541 27.3897 118.541H25.9498ZM25.9498 117.362H27.3897C27.6268 117.358 27.8386 117.32 28.0251 117.247C28.2155 117.171 28.3768 117.067 28.509 116.934C28.6411 116.802 28.7402 116.646 28.8063 116.465C28.8762 116.285 28.9112 116.088 28.9112 115.876C28.9112 115.643 28.8762 115.432 28.8063 115.244C28.7402 115.051 28.6411 114.885 28.509 114.745C28.3768 114.604 28.2155 114.496 28.0251 114.42C27.8386 114.344 27.6268 114.303 27.3897 114.299H25.9498V117.362Z" fill="#FEF3CD"/>
<path d="M33.1202 118.541V121.88H31.7211V113.12H34.5601C34.9876 113.124 35.3801 113.191 35.7377 113.319C36.0991 113.447 36.41 113.63 36.6704 113.866C36.9308 114.103 37.1329 114.39 37.2767 114.727C37.4205 115.064 37.4924 115.443 37.4924 115.864C37.4924 116.269 37.4205 116.636 37.2767 116.965C37.1329 117.289 36.9308 117.568 36.6704 117.801C36.41 118.037 36.0991 118.22 35.7377 118.348C35.3801 118.477 34.9876 118.541 34.5601 118.541H33.1202ZM33.1202 117.362H34.5601C34.7972 117.358 35.009 117.32 35.1955 117.247C35.386 117.171 35.5472 117.067 35.6794 116.934C35.8115 116.802 35.9106 116.646 35.9767 116.465C36.0466 116.285 36.0816 116.088 36.0816 115.876C36.0816 115.643 36.0466 115.432 35.9767 115.244C35.9106 115.051 35.8115 114.885 35.6794 114.745C35.5472 114.604 35.386 114.496 35.1955 114.42C35.009 114.344 34.7972 114.303 34.5601 114.299H33.1202V117.362Z" fill="#FEF3CD"/>
<path d="M41.5206 117.307L43.2987 113.12H44.861L42.2027 118.751L42.191 121.88H40.8211L40.8152 118.709L38.1803 113.12H39.7368L41.5206 117.307Z" fill="#FEF3CD"/>
<path d="M58.613 121.88H57.243V117.975H54.3865V121.88H53.0224V113.12H54.3865V116.784H57.243V113.12H58.613V121.88Z" fill="#FEF3CD"/>
<path d="M66.0516 118.084C66.0516 118.436 66.0205 118.777 65.9583 119.106C65.9 119.435 65.8145 119.746 65.7018 120.039C65.5813 120.332 65.4317 120.602 65.2529 120.851C65.0741 121.096 64.8682 121.306 64.635 121.483C64.4096 121.643 64.1589 121.769 63.883 121.862C63.6109 121.954 63.3117 122 62.9852 122C62.6471 122 62.3362 121.952 62.0525 121.856C61.7726 121.755 61.522 121.619 61.3004 121.447C61.075 121.27 60.8768 121.057 60.7058 120.809C60.5387 120.56 60.3988 120.287 60.2861 119.991C60.1773 119.706 60.0957 119.403 60.0413 119.082C59.9868 118.757 59.9596 118.424 59.9596 118.084V116.928C59.9596 116.572 59.9888 116.227 60.0471 115.894C60.1054 115.561 60.1928 115.246 60.3094 114.949C60.4221 114.664 60.5601 114.404 60.7233 114.167C60.8904 113.926 61.0867 113.718 61.3121 113.541C61.5297 113.369 61.7765 113.237 62.0525 113.144C62.3323 113.048 62.6393 113 62.9735 113C63.3117 113 63.6226 113.048 63.9063 113.144C64.19 113.241 64.4445 113.375 64.67 113.547C64.8954 113.72 65.0916 113.922 65.2587 114.155C65.4259 114.388 65.5658 114.642 65.6785 114.919C65.8028 115.216 65.8961 115.535 65.9583 115.876C66.0205 116.213 66.0516 116.564 66.0516 116.928V118.084ZM64.6408 116.916C64.6369 116.696 64.6233 116.479 64.6 116.267C64.5806 116.054 64.5456 115.852 64.4951 115.659C64.4368 115.439 64.359 115.238 64.2619 115.057C64.1686 114.873 64.054 114.717 63.9179 114.588C63.7975 114.476 63.6595 114.388 63.504 114.324C63.3486 114.259 63.1717 114.227 62.9735 114.227C62.7831 114.227 62.6121 114.259 62.4605 114.324C62.309 114.384 62.1768 114.468 62.0641 114.576C61.9281 114.709 61.8135 114.867 61.7202 115.051C61.6269 115.232 61.555 115.434 61.5045 115.659C61.4578 115.852 61.4229 116.056 61.3996 116.273C61.3801 116.485 61.3704 116.7 61.3704 116.916V118.084C61.3704 118.296 61.3801 118.507 61.3996 118.715C61.419 118.924 61.452 119.124 61.4987 119.317C61.5492 119.533 61.6172 119.736 61.7027 119.924C61.7921 120.109 61.899 120.265 62.0233 120.394C62.1438 120.514 62.2818 120.61 62.4372 120.682C62.5966 120.751 62.7792 120.785 62.9852 120.785C63.1834 120.785 63.3622 120.751 63.5215 120.682C63.6848 120.614 63.8247 120.522 63.9413 120.406C64.0773 120.273 64.19 120.117 64.2794 119.936C64.3726 119.752 64.4465 119.549 64.5009 119.329C64.5475 119.136 64.5806 118.936 64.6 118.727C64.6233 118.515 64.6369 118.3 64.6408 118.084V116.916Z" fill="#FEF3CD"/>
<path d="M68.9955 120.689H73.0471V121.88H67.5906V113.12H68.9955V120.689Z" fill="#FEF3CD"/>
<path d="M74.8484 113.12H79.8502V114.318H78.0372V120.689H79.8502V121.88H74.8484V120.689H76.6206V114.318H74.8484V113.12Z" fill="#FEF3CD"/>
<path d="M81.7448 121.88V113.12H83.8435C84.2088 113.12 84.5528 113.164 84.8753 113.253C85.1979 113.337 85.4913 113.455 85.7556 113.608C86.0432 113.764 86.2978 113.961 86.5193 114.197C86.7447 114.434 86.9332 114.699 87.0848 114.991C87.2402 115.296 87.3607 115.631 87.4462 115.996C87.5317 116.361 87.5744 116.75 87.5744 117.163V117.849C87.5744 118.246 87.5336 118.623 87.452 118.98C87.3743 119.333 87.2616 119.656 87.1139 119.949C86.9701 120.233 86.7952 120.492 86.5892 120.725C86.3871 120.957 86.1617 121.156 85.913 121.32C85.6332 121.501 85.3223 121.639 84.9803 121.735C84.6422 121.832 84.2788 121.88 83.8901 121.88H81.7448ZM83.1614 114.299V120.707H83.8901C84.1389 120.707 84.3662 120.676 84.5722 120.616C84.7821 120.552 84.9706 120.462 85.1377 120.346C85.3087 120.225 85.4602 120.075 85.5924 119.894C85.7284 119.71 85.8392 119.499 85.9247 119.263C85.9985 119.062 86.0549 118.844 86.0937 118.607C86.1326 118.37 86.152 118.118 86.152 117.849V117.151C86.152 116.886 86.1326 116.636 86.0937 116.399C86.0549 116.162 85.9985 115.944 85.9247 115.743C85.8314 115.499 85.707 115.278 85.5516 115.082C85.3961 114.881 85.2115 114.719 84.9978 114.594C84.8423 114.502 84.6674 114.432 84.4731 114.384C84.2788 114.332 84.0689 114.303 83.8435 114.299H83.1614Z" fill="#FEF3CD"/>
<path d="M93.1009 119.864H90.4368L89.8596 121.88H88.4022L91.1655 113.12H92.4072L95.1238 121.88H93.6722L93.1009 119.864ZM90.7924 118.625H92.757L91.7834 115.16L90.7924 118.625Z" fill="#FEF3CD"/>
<path d="M98.8839 117.307L100.662 113.12H102.224L99.5659 118.751L99.5543 121.88H98.1843L98.1785 118.709L95.5435 113.12H97.1L98.8839 117.307Z" fill="#FEF3CD"/>
<path d="M107.745 119.624C107.745 119.419 107.704 119.239 107.622 119.082C107.541 118.926 107.426 118.785 107.278 118.661C107.123 118.545 106.938 118.441 106.725 118.348C106.515 118.252 106.28 118.166 106.019 118.09C105.619 117.973 105.25 117.831 104.912 117.662C104.577 117.49 104.292 117.297 104.055 117.085C103.818 116.868 103.631 116.624 103.495 116.351C103.363 116.074 103.297 115.763 103.297 115.418C103.297 115.045 103.375 114.711 103.53 114.414C103.686 114.113 103.895 113.856 104.16 113.644C104.424 113.435 104.731 113.277 105.081 113.168C105.434 113.056 105.806 113 106.194 113C106.606 113 106.989 113.066 107.343 113.199C107.7 113.327 108.011 113.507 108.275 113.74C108.54 113.977 108.748 114.259 108.899 114.588C109.055 114.913 109.132 115.274 109.132 115.671H107.745C107.725 115.451 107.679 115.25 107.605 115.07C107.535 114.885 107.436 114.727 107.308 114.594C107.175 114.466 107.014 114.366 106.824 114.293C106.637 114.217 106.422 114.179 106.177 114.179C105.963 114.179 105.765 114.209 105.582 114.269C105.403 114.326 105.248 114.406 105.116 114.51C104.984 114.618 104.881 114.749 104.807 114.901C104.733 115.053 104.696 115.224 104.696 115.412C104.7 115.613 104.75 115.789 104.848 115.942C104.945 116.09 105.075 116.221 105.238 116.333C105.405 116.445 105.596 116.543 105.809 116.628C106.027 116.712 106.254 116.79 106.491 116.862C106.791 116.951 107.082 117.061 107.366 117.193C107.654 117.322 107.918 117.478 108.159 117.662C108.458 117.895 108.697 118.174 108.876 118.499C109.058 118.82 109.15 119.191 109.15 119.612C109.15 120.001 109.07 120.344 108.911 120.64C108.755 120.937 108.545 121.184 108.281 121.38C108.013 121.585 107.702 121.739 107.348 121.844C106.995 121.944 106.622 121.994 106.229 121.994C105.813 121.994 105.403 121.928 104.999 121.795C104.595 121.659 104.243 121.463 103.944 121.206C103.668 120.965 103.448 120.682 103.285 120.358C103.126 120.033 103.044 119.66 103.04 119.239H104.439C104.459 119.507 104.513 119.742 104.603 119.943C104.696 120.139 104.822 120.301 104.982 120.43C105.137 120.562 105.32 120.66 105.53 120.725C105.743 120.789 105.977 120.821 106.229 120.821C106.443 120.821 106.641 120.795 106.824 120.743C107.01 120.691 107.172 120.612 107.308 120.508C107.44 120.408 107.545 120.283 107.622 120.135C107.704 119.987 107.745 119.816 107.745 119.624Z" fill="#FEF3CD"/>
<path d="M113.819 118.914H112.508L112.449 113.12H113.872L113.819 118.914ZM112.339 121.158C112.339 120.925 112.41 120.731 112.554 120.574C112.698 120.418 112.902 120.34 113.166 120.34C113.427 120.34 113.631 120.418 113.778 120.574C113.926 120.731 114 120.925 114 121.158C114 121.386 113.926 121.577 113.778 121.729C113.631 121.882 113.427 121.958 113.166 121.958C112.902 121.958 112.698 121.882 112.554 121.729C112.41 121.577 112.339 121.386 112.339 121.158Z" fill="#FEF3CD"/>
<path opacity="0.6" d="M8 104L3.82843 104C3.29799 104 2.78929 104.211 2.41421 104.586L1.58579 105.414C1.21071 105.789 1 106.298 1 106.828L1 111" stroke="#FEF3CD"/>
<path opacity="0.6" d="M115 131H119.172C119.702 131 120.211 130.789 120.586 130.414L121.414 129.586C121.789 129.211 122 128.702 122 128.172V124" stroke="#FEF3CD"/>
</svg>
