<svg width="123" height="132" viewBox="0 0 123 132" fill="none" xmlns="http://www.w3.org/2000/svg">
<path d="M75.5937 37.5204C75.8221 37.5204 76.009 37.3324 76.009 37.1036V36.4481C76.009 36.2183 75.8221 36.0303 75.5937 36.0303C75.3653 36.0303 75.1784 36.2183 75.1784 36.4481V37.1036C75.1784 37.3334 75.3653 37.5204 75.5937 37.5204Z" fill="#FEF3CD"/>
<path d="M76.8375 38.8918C76.8375 39.1216 77.0244 39.3096 77.2528 39.3096H77.9044C78.1328 39.3096 78.3197 39.1216 78.3197 38.8918C78.3197 38.662 78.1328 38.474 77.9044 38.474H77.2528C77.0244 38.474 76.8375 38.662 76.8375 38.8918Z" fill="#FEF3CD"/>
<path d="M75.475 41.6346C75.7034 41.6346 75.8893 41.4466 75.8893 41.2168V40.5612C75.8893 40.3314 75.7024 40.1434 75.475 40.1434C75.2476 40.1434 75.0607 40.3314 75.0607 40.5612V41.2168C75.0597 41.4466 75.2466 41.6346 75.475 41.6346Z" fill="#FEF3CD"/>
<path d="M73.1642 39.1906H73.8158C74.0442 39.1906 74.2311 39.0026 74.2311 38.7728C74.2311 38.543 74.0442 38.355 73.8158 38.355H73.1642C72.9358 38.355 72.7489 38.543 72.7489 38.7728C72.7489 39.0026 72.9358 39.1906 73.1642 39.1906Z" fill="#FEF3CD"/>
<path d="M69.7065 26.0831L70.1673 25.6195C70.3284 25.4574 70.3284 25.1918 70.1673 25.0296C70.0061 24.8675 69.7421 24.8675 69.5809 25.0296L69.1201 25.4932C68.959 25.6553 68.959 25.9209 69.1201 26.0831C69.2813 26.2452 69.5453 26.2452 69.7065 26.0831Z" fill="#FEF3CD"/>
<path d="M69.4968 28.9921C69.658 29.1543 69.922 29.1543 70.0832 28.9921C70.2444 28.83 70.2444 28.5644 70.0832 28.4022L69.6224 27.9386C69.4613 27.7765 69.1973 27.7765 69.0361 27.9386C68.8749 28.1008 68.8749 28.3664 69.0361 28.5285L69.4968 28.9921Z" fill="#FEF3CD"/>
<path d="M66.7313 28.9076L67.192 28.444C67.3532 28.2819 67.3532 28.0163 67.192 27.8541C67.0308 27.692 66.7668 27.692 66.6047 27.8541L66.1439 28.3177C65.9827 28.4798 65.9827 28.7454 66.1439 28.9076C66.3061 29.0697 66.5701 29.0697 66.7313 28.9076Z" fill="#FEF3CD"/>
<path d="M66.6897 25.9986C66.8509 26.1607 67.1149 26.1607 67.2761 25.9986C67.4372 25.8364 67.4372 25.5708 67.2761 25.4087L66.8153 24.9441C66.6541 24.782 66.3901 24.782 66.229 24.9441C66.0678 25.1063 66.0678 25.3719 66.229 25.534L66.6897 25.9986Z" fill="#FEF3CD"/>
<path d="M68.249 71.5752L67.7882 72.0388C67.627 72.2009 67.627 72.4666 67.7882 72.6287C67.9494 72.7908 68.2134 72.7908 68.3746 72.6287L68.8353 72.1651C68.9965 72.003 68.9965 71.7374 68.8353 71.5752C68.6742 71.4131 68.4102 71.4131 68.249 71.5752Z" fill="#FEF3CD"/>
<path d="M68.2906 74.4852C68.1294 74.3231 67.8654 74.3231 67.7042 74.4852C67.543 74.6474 67.543 74.913 67.7042 75.0751L68.165 75.5387C68.3261 75.7009 68.5902 75.7009 68.7513 75.5387C68.9125 75.3766 68.9125 75.111 68.7513 74.9488L68.2906 74.4852Z" fill="#FEF3CD"/>
<path d="M65.2738 74.4007L64.813 74.8643C64.6518 75.0264 64.6518 75.292 64.813 75.4542C64.9742 75.6163 65.2382 75.6163 65.3994 75.4542L65.8601 74.9906C66.0213 74.8285 66.0213 74.5629 65.8601 74.4007C65.699 74.2386 65.435 74.2386 65.2738 74.4007Z" fill="#FEF3CD"/>
<path d="M65.4824 71.4917C65.3212 71.3295 65.0572 71.3295 64.8961 71.4917C64.7349 71.6538 64.7349 71.9194 64.8961 72.0816L65.3568 72.5452C65.518 72.7073 65.782 72.7073 65.9432 72.5452C66.1043 72.383 66.1043 72.1174 65.9432 71.9553L65.4824 71.4917Z" fill="#FEF3CD"/>
<path d="M38.2061 29.0455L38.6668 28.582C38.828 28.4198 38.828 28.1542 38.6668 27.9921C38.5057 27.8299 38.2417 27.8299 38.0795 27.9921L37.6187 28.4556C37.4576 28.6178 37.4576 28.8834 37.6187 29.0455C37.7809 29.2077 38.0449 29.2077 38.2061 29.0455Z" fill="#FEF3CD"/>
<path d="M37.9964 31.9546C38.1576 32.1167 38.4216 32.1167 38.5838 31.9546C38.7449 31.7924 38.7449 31.5268 38.5838 31.3647L38.123 30.9011C37.9618 30.739 37.6978 30.739 37.5367 30.9011C37.3755 31.0633 37.3755 31.3289 37.5367 31.491L37.9964 31.9546Z" fill="#FEF3CD"/>
<path d="M35.2308 31.871L35.6916 31.4075C35.8528 31.2453 35.8528 30.9797 35.6916 30.8176C35.5304 30.6554 35.2664 30.6554 35.1053 30.8176L34.6445 31.2811C34.4833 31.4433 34.4833 31.7089 34.6445 31.871C34.8057 32.0332 35.0697 32.0332 35.2308 31.871Z" fill="#FEF3CD"/>
<path d="M35.1893 28.961C35.3505 29.1232 35.6145 29.1232 35.7756 28.961C35.9368 28.7989 35.9368 28.5333 35.7756 28.3711L35.3149 27.9076C35.1537 27.7454 34.8897 27.7454 34.7275 27.9076C34.5664 28.0697 34.5664 28.3353 34.7275 28.4975L35.1893 28.961Z" fill="#FEF3CD"/>
<path d="M110.274 23.3279C110.502 23.3279 110.689 23.1399 110.689 22.9101V22.2545C110.689 22.0247 110.502 21.8367 110.274 21.8367C110.046 21.8367 109.859 22.0247 109.859 22.2545V22.9101C109.859 23.1399 110.046 23.3279 110.274 23.3279Z" fill="#FEF3CD"/>
<path d="M112.585 24.2819H111.933C111.705 24.2819 111.518 24.4699 111.518 24.6997C111.518 24.9295 111.705 25.1175 111.933 25.1175H112.585C112.813 25.1175 113 24.9295 113 24.6997C113 24.4699 112.813 24.2819 112.585 24.2819Z" fill="#FEF3CD"/>
<path d="M110.155 27.442C110.384 27.442 110.57 27.254 110.57 27.0242V26.3687C110.57 26.1389 110.383 25.9509 110.155 25.9509C109.928 25.9509 109.741 26.1389 109.741 26.3687V27.0242C109.741 27.254 109.927 27.442 110.155 27.442Z" fill="#FEF3CD"/>
<path d="M107.845 24.997H108.496C108.725 24.997 108.911 24.809 108.911 24.5792C108.911 24.3494 108.725 24.1614 108.496 24.1614H107.845C107.616 24.1614 107.43 24.3494 107.43 24.5792C107.43 24.809 107.616 24.997 107.845 24.997Z" fill="#FEF3CD"/>
<path d="M55.4256 82.8542C55.1972 82.8542 55.0113 83.0422 55.0113 83.272V83.9276C55.0113 84.1574 55.1981 84.3454 55.4256 84.3454C55.653 84.3454 55.8408 84.1574 55.8408 83.9276V83.272C55.8408 83.0422 55.654 82.8542 55.4256 82.8542Z" fill="#FEF3CD"/>
<path d="M57.7363 85.2994H57.0847C56.8563 85.2994 56.6694 85.4874 56.6694 85.7172C56.6694 85.947 56.8563 86.135 57.0847 86.135H57.7363C57.9637 86.135 58.1506 85.947 58.1506 85.7172C58.1506 85.4874 57.9647 85.2994 57.7363 85.2994Z" fill="#FEF3CD"/>
<path d="M55.3069 86.9683C55.0785 86.9683 54.8926 87.1564 54.8926 87.3861V88.0417C54.8926 88.2715 55.0795 88.4595 55.3069 88.4595C55.5343 88.4595 55.7212 88.2715 55.7212 88.0417V87.3861C55.7212 87.1564 55.5353 86.9683 55.3069 86.9683Z" fill="#FEF3CD"/>
<path d="M53.6478 85.1799H52.9962C52.7678 85.1799 52.5819 85.3679 52.5819 85.5977C52.5819 85.8275 52.7687 86.0155 52.9962 86.0155H53.6478C53.8762 86.0155 54.0631 85.8275 54.0631 85.5977C54.0631 85.3679 53.8762 85.1799 53.6478 85.1799Z" fill="#FEF3CD"/>
<path d="M95.7251 90.3947C95.4967 90.3947 95.3098 90.5827 95.3098 90.8125V91.468C95.3098 91.6978 95.4967 91.8849 95.7251 91.8849C95.9535 91.8849 96.1394 91.6968 96.1394 91.468V90.8125C96.1394 90.5827 95.9535 90.3947 95.7251 90.3947Z" fill="#FEF3CD"/>
<path d="M98.0359 92.8399H97.3843C97.1559 92.8399 96.969 93.0279 96.969 93.2577C96.969 93.4875 97.1559 93.6755 97.3843 93.6755H98.0359C98.2643 93.6755 98.4502 93.4875 98.4502 93.2577C98.4512 93.0269 98.2643 92.8399 98.0359 92.8399Z" fill="#FEF3CD"/>
<path d="M95.6065 94.5088C95.379 94.5088 95.1922 94.6968 95.1922 94.9266V95.5822C95.1922 95.812 95.379 96 95.6065 96C95.8349 96 96.0218 95.812 96.0218 95.5822V94.9266C96.0208 94.6968 95.8349 94.5088 95.6065 94.5088Z" fill="#FEF3CD"/>
<path d="M93.9473 92.7204H93.2947C93.0663 92.7204 92.8804 92.9084 92.8804 93.1382C92.8804 93.368 93.0673 93.556 93.2947 93.556H93.9463C94.1747 93.556 94.3606 93.368 94.3606 93.1382C94.3616 92.9084 94.1757 92.7204 93.9473 92.7204Z" fill="#FEF3CD"/>
<path d="M37.6533 61.4753C37.6533 61.2455 37.4664 61.0585 37.239 61.0585C37.0116 61.0585 36.8237 61.2465 36.8237 61.4753V62.1309C36.8237 62.3607 37.0106 62.5487 37.239 62.5487C37.4674 62.5487 37.6533 62.3607 37.6533 62.1309V61.4753Z" fill="#FEF3CD"/>
<path d="M39.5498 63.5027H38.8982C38.6698 63.5027 38.4839 63.6907 38.4839 63.9195C38.4839 64.1493 38.6708 64.3373 38.8982 64.3373H39.5498C39.7782 64.3373 39.9641 64.1493 39.9641 63.9195C39.9641 63.6907 39.7772 63.5027 39.5498 63.5027Z" fill="#FEF3CD"/>
<path d="M37.1194 65.1721C36.891 65.1721 36.7041 65.3602 36.7041 65.59V66.2455C36.7041 66.4753 36.891 66.6633 37.1194 66.6633C37.3478 66.6633 37.5337 66.4753 37.5337 66.2455V65.59C37.5347 65.3602 37.3478 65.1721 37.1194 65.1721Z" fill="#FEF3CD"/>
<path d="M34.3933 63.801C34.3933 64.0308 34.5802 64.2188 34.8086 64.2188H35.4602C35.6886 64.2188 35.8745 64.0308 35.8745 63.801C35.8745 63.5712 35.6876 63.3842 35.4602 63.3842H34.8086C34.5802 63.3832 34.3933 63.5712 34.3933 63.801Z" fill="#FEF3CD"/>
<path d="M7.84375 48.4878C8.07216 48.4878 8.25904 48.2998 8.25904 48.07V47.4144C8.25904 47.1846 8.07216 46.9966 7.84375 46.9966C7.61534 46.9966 7.42945 47.1846 7.42945 47.4144V48.07C7.42945 48.2998 7.61633 48.4878 7.84375 48.4878Z" fill="#FEF3CD"/>
<path d="M9.50292 50.2764H10.1545C10.3819 50.2764 10.5688 50.0884 10.5688 49.8586C10.5688 49.6288 10.3819 49.4408 10.1545 49.4408H9.50292C9.27451 49.4408 9.08763 49.6288 9.08763 49.8586C9.08763 50.0884 9.2755 50.2764 9.50292 50.2764Z" fill="#FEF3CD"/>
<path d="M7.72504 52.6019C7.95345 52.6019 8.14033 52.4139 8.14033 52.1841V51.5285C8.14033 51.2987 7.95345 51.1117 7.72504 51.1117C7.49663 51.1117 7.31074 51.2997 7.31074 51.5285V52.1841C7.31074 52.4139 7.49762 52.6019 7.72504 52.6019Z" fill="#FEF3CD"/>
<path d="M5.4143 50.1569H6.0659C6.29431 50.1569 6.48119 49.9689 6.48119 49.7391C6.48119 49.5093 6.29431 49.3213 6.0659 49.3213H5.4143C5.18589 49.3213 5 49.5093 5 49.7391C5 49.9689 5.18589 50.1569 5.4143 50.1569Z" fill="#FEF3CD"/>

</svg>
