<svg width="170" height="66" viewBox="0 0 170 66" fill="none" xmlns="http://www.w3.org/2000/svg">
<g opacity="0.8" clip-path="url(#clip0_2426_10823)">
<path d="M36.8882 46.721C36.8107 45.2702 37.5857 44.0167 38.1852 42.717C41.3485 35.8757 44.5208 29.0392 47.7021 22.2074C48.5942 20.2874 49.4831 18.3674 50.391 16.4553C51.9315 13.2149 55.5077 12.1698 58.2519 14.1391C59.0887 14.7555 59.7475 15.5845 60.161 16.5412C62.4523 21.5563 64.7457 26.5704 67.0413 31.5834C68.9519 35.7564 70.8658 39.9279 72.7827 44.0978C74.0623 46.8641 73.349 49.7689 70.9543 51.3085C70.3596 51.6962 69.6906 51.9538 68.9907 52.0645C68.2907 52.1756 67.5754 52.1377 66.891 51.9528C63.6359 51.1578 60.3713 50.386 57.1384 49.5048C55.6832 49.1071 54.3214 49.2646 52.9106 49.6177C49.589 50.4497 46.2802 51.2927 42.946 52.0244C39.9314 52.6846 36.7965 50.13 36.8882 46.721ZM55.166 30.6766C55.166 29.3913 55.166 28.106 55.166 26.8206C55.166 23.4153 55.166 20.0101 55.166 16.6048C55.166 15.6583 54.7279 15.4022 53.8786 15.8253C53.151 16.188 52.7555 16.8386 52.4298 17.5418C48.3954 26.2591 44.3643 34.978 40.3362 43.6985C40.0073 44.4096 39.7036 45.1381 39.4474 45.8763C38.7087 47.9442 40.5545 50.0599 42.8749 49.4587C46.3878 48.5471 49.9165 47.7088 53.4341 46.8148C54.7343 46.4871 55.1645 45.9033 55.1645 44.5464C55.1666 39.9226 55.1671 35.2993 55.166 30.6766Z" fill="#EFEFE5"/>
<path d="M101.786 32.7669C103.574 29.6059 105.21 26.7084 106.851 23.8179C107.201 23.1448 107.59 22.4927 108.017 21.8651C108.832 20.7587 109.861 20.0563 111.325 20.5199C112.79 20.9835 113.222 22.0969 113.222 23.5088C113.222 26.9578 113.222 30.4067 113.222 33.8592C113.222 36.6057 113.25 39.3558 113.222 42.1023C113.19 44.1745 112.094 45.3195 110.303 45.2633C108.6 45.2247 107.606 44.1078 107.578 42.1023C107.543 39.5033 107.578 36.9078 107.578 33.8873C106.64 35.6434 105.899 37.0483 105.119 38.4743C104.385 39.8264 103.627 41.2278 101.832 41.284C99.9246 41.3367 99.1517 39.858 98.3863 38.4743C97.5749 36.9991 96.8095 35.4959 95.819 33.6098C95.819 34.4774 95.819 34.9269 95.819 35.366C95.868 37.7612 96.005 40.1566 95.9418 42.5484C95.8959 44.2729 94.7301 45.2809 93.1322 45.2844C91.5338 45.2879 90.5191 44.3326 90.3221 42.5519C90.291 42.2016 90.2784 41.8499 90.2836 41.4983C90.2836 35.6504 90.2836 29.8026 90.2836 23.9583C90.2836 22.4024 90.4733 20.98 92.2645 20.5023C94.0557 20.0247 95.1236 21.1205 95.9207 22.5113C97.5223 25.2965 99.0817 28.1062 100.658 30.9019C100.978 31.4534 101.319 31.9907 101.786 32.7669Z" fill="#EFEFE5"/>
<path d="M122.648 37.9124C123.277 40.0971 124.703 40.81 126.642 40.1392C127.124 39.9344 127.594 39.6998 128.047 39.4367C129.346 38.794 130.607 38.7835 131.467 40.0724C132.328 41.3614 131.942 42.7417 130.765 43.6584C128.142 45.7025 125.146 45.9027 122.122 44.8034C117.981 43.3002 115.849 38.074 117.205 33.1253C118.378 28.8088 121.651 26.5435 126.122 26.9649C129.768 27.3162 132.771 30.5684 133.146 34.6004C133.35 36.8166 132.413 37.8878 130.158 37.916C127.71 37.9405 125.265 37.9124 122.648 37.9124ZM122.778 33.8699H127.313C126.919 32.4475 126.231 31.5554 124.854 31.6678C123.579 31.7731 122.958 32.6301 122.778 33.8699Z" fill="#EFEFE5"/>
<path d="M85.8266 36.2654C85.8266 38.2497 85.8656 40.2342 85.8266 42.2186C85.7881 44.2029 84.8154 45.232 83.1927 45.2742C81.5701 45.3163 80.4216 44.3118 80.3829 42.3906C80.308 38.1947 80.3139 33.9895 80.4005 29.7748C80.4391 27.9836 81.5806 26.9475 83.1119 26.9651C84.7205 26.9651 85.7739 28.0714 85.8266 29.9645C85.8793 32.0613 85.8266 34.1651 85.8266 36.2654Z" fill="#EFEFE5"/>
<path d="M86.1782 22.1789C86.1755 22.5865 86.0923 22.9896 85.9337 23.365C85.7751 23.7404 85.5439 24.0809 85.2536 24.367C84.9634 24.653 84.6195 24.8791 84.2418 25.0322C83.8641 25.1853 83.4599 25.2624 83.0523 25.2591C82.2557 25.2322 81.5007 24.8968 80.9467 24.3238C80.3927 23.7507 80.083 22.9848 80.083 22.1877C80.083 21.3907 80.3927 20.6248 80.9467 20.0517C81.5007 19.4787 82.2557 19.1432 83.0523 19.1163C83.4604 19.1055 83.8665 19.1768 84.2465 19.3261C84.6265 19.4753 84.9726 19.6995 85.2641 19.9853C85.556 20.271 85.7873 20.6124 85.9442 20.9892C86.1012 21.3661 86.1808 21.7707 86.1782 22.1789Z" fill="#EFEFE5"/>
</g>
<defs>
<clipPath id="clip0_2426_10823">
<rect width="97.561" height="40" fill="white" transform="translate(36.2195 12.5)"/>
</clipPath>
</defs>
</svg>
