<svg width="170" height="66" viewBox="0 0 170 66" fill="none" xmlns="http://www.w3.org/2000/svg">
<g opacity="0.8" clip-path="url(#clip0_2709_11754)">
<path d="M18 16V50.1026H49.5733V46.2801H21.7811V19.8224H49.5733V16H18Z" fill="#EFEFE5"/>
<path d="M72.3301 31.2193L77.6445 22.8874H82.0356L75.7279 32.7871V33.3155L82.384 43.1975H77.8188L72.3301 34.8832V31.2193Z" fill="#EFEFE5"/>
<path d="M94.982 34.8832H100.035L97.7699 24.8075H97.2471L94.982 34.8832ZM100.889 38.7056H94.1281L93.1175 43.1975H89.1621L93.9539 22.8874H101.063L105.855 43.1975H101.899L100.889 38.7056Z" fill="#EFEFE5"/>
<path d="M115.892 22.8874H119.673V39.5511H128.803V43.1975H115.892V22.8874Z" fill="#EFEFE5"/>
<path d="M52.7099 29.1055C52.7099 28.2952 52.3963 27.5906 51.7689 26.9918C51.1417 26.3928 50.2705 26.0933 49.1378 26.0933C48.1795 26.0933 47.4302 26.2871 46.8727 26.6923C46.3151 27.0974 46.0363 27.6259 46.0363 28.2952C46.0363 28.6475 46.106 28.9646 46.2453 29.2464C46.3847 29.5283 46.6113 29.7749 46.9423 30.0039C47.2734 30.2329 47.709 30.4267 48.2666 30.6028C48.8068 30.7789 49.5038 30.9375 50.3401 31.096C52.4485 31.4836 54.0516 32.1353 55.1668 33.0336C56.2819 33.9496 56.8395 35.2884 56.8395 37.0674V37.4198C56.8395 38.371 56.6653 39.2165 56.3342 39.9916C56.0031 40.749 55.5153 41.4008 54.888 41.9468C54.2606 42.4929 53.494 42.898 52.5879 43.1975C51.6818 43.4793 50.6712 43.6378 49.5386 43.6378C48.2143 43.6378 47.0643 43.4441 46.0537 43.0742C45.0431 42.7043 44.2067 42.1758 43.5445 41.5064C42.8824 40.8371 42.3597 40.062 42.0286 39.1636C41.6801 38.2653 41.5059 37.2789 41.5059 36.222V36.0458H45.287C45.287 37.2612 45.6355 38.2301 46.3325 38.9699C47.0295 39.6921 48.1098 40.062 49.5909 40.062C50.7409 40.062 51.5947 39.8154 52.1523 39.3046C52.7099 38.7937 52.9887 38.1949 52.9887 37.5079C52.9887 37.1732 52.9364 36.8737 52.8144 36.5567C52.6924 36.2572 52.5008 35.993 52.2046 35.7464C51.9258 35.4998 51.525 35.2884 51.0197 35.0946C50.5144 34.9008 49.8871 34.7423 49.1205 34.6014C48.1098 34.4253 47.1863 34.1963 46.3325 33.9144C45.4961 33.6325 44.7643 33.2626 44.137 32.8046C43.5097 32.3466 43.0392 31.7653 42.6908 31.0608C42.3422 30.3561 42.168 29.5107 42.168 28.5066V28.3305C42.168 27.5025 42.3422 26.7275 42.6733 26.0229C43.0044 25.3183 43.4749 24.7018 44.0847 24.1733C44.6945 23.6449 45.409 23.2397 46.2627 22.9579C47.1166 22.6761 48.0575 22.5175 49.1205 22.5175C50.3053 22.5175 51.3508 22.6937 52.2743 23.0284C53.1978 23.363 53.9645 23.821 54.5917 24.4023C55.219 24.9836 55.6372 25.6706 56.0031 26.4104C56.4562 27.3088 56.4736 29.1407 56.4736 29.1407L52.7099 29.1055Z" fill="#EFEFE5"/>
<path d="M137.62 22.8874V43.1975H150.654V39.5511H141.418V26.5513H150.654V22.8874H137.62Z" fill="#EFEFE5"/>
<path d="M69.6293 22.8874H65.8481V43.1975H69.6293V22.8874Z" fill="#EFEFE5"/>
<path d="M147.761 31.2194H144.137V34.8833H147.761V31.2194Z" fill="#EFEFE5"/>
</g>
<defs>
<clipPath id="clip0_2709_11754">
<rect width="133" height="35" fill="white" transform="translate(18 16)"/>
</clipPath>
</defs>
</svg>
