<svg width="170" height="66" viewBox="0 0 170 66" fill="none" xmlns="http://www.w3.org/2000/svg">
<g opacity="0.8" clip-path="url(#clip0_2709_32368)">
<path fill-rule="evenodd" clip-rule="evenodd" d="M35.2645 16.7742C32.9414 18.4288 31.003 20.5655 29.5818 23.0383C28.1607 25.5111 27.2903 28.2616 27.0303 31.1018C27.238 30.4475 27.4881 29.8074 27.7788 29.1855C28.2118 28.1965 28.7677 27.2659 29.4332 26.4158C30.4605 25.0587 31.7139 23.8888 33.1386 22.9574C33.6714 22.6094 34.2266 22.2969 34.8004 22.0217C37.5617 20.7209 40.5813 20.0607 43.6335 20.0904C44.9655 20.055 46.2983 20.1075 47.6234 20.2476C48.2883 20.3345 48.9593 20.3671 49.6295 20.3449C51.5758 20.0605 53.1852 18.7579 53.1852 16.7967C53.1852 14.8355 51.4486 13.4506 49.8691 13.1886C48.9769 13.0571 48.076 12.9945 47.1742 13.0015C42.9026 12.9501 38.7257 14.2611 35.2495 16.7443L35.2645 16.7742ZM27.5689 30.4057C28.6479 27.4389 30.6565 24.8999 33.2955 23.1671L33.303 23.1746C36.8662 20.8316 41.3426 20.345 44.4866 20.345H45.1753C41.857 20.6436 38.7881 22.2316 36.6279 24.7681C34.4676 27.3045 33.3881 30.5869 33.6214 33.9104C33.8546 37.2339 35.382 40.3334 37.8754 42.5432C40.3688 44.753 43.6294 45.8968 46.9568 45.7289C47.5304 45.7274 48.1031 45.689 48.6715 45.6141C47.6077 44.1928 47.0833 42.439 47.1931 40.666C47.3039 38.8762 48.0534 37.1857 49.3054 35.902C50.5574 34.6182 52.2287 33.8266 54.0151 33.671C55.8015 33.5155 57.5844 34.0064 59.0394 35.0544V35.2191H59.0244C58.5163 39.8663 54.3924 43.8541 48.9697 45.5714L49.0154 45.5642C47.0934 46.1734 45.088 46.479 43.0718 46.47C35.5038 46.4476 31.6337 44.7109 30.2638 43.9099C28.1284 40.6626 26.9935 36.8598 27 32.9734V32.5616C27.133 31.8292 27.3232 31.1084 27.5689 30.4057ZM40.6767 36.4466C40.6775 38.0264 40.9907 39.5903 41.5984 41.0485C42.206 42.5066 43.0962 43.8302 44.2175 44.9429C44.9968 45.1177 45.7919 45.213 46.5904 45.2273C45.2884 43.5088 44.6587 41.3739 44.8196 39.2238C44.9805 37.0737 45.9209 35.0564 47.4642 33.5507C49.0076 32.0451 51.0476 31.1548 53.201 31.0471C55.3544 30.9394 57.473 31.6217 59.1589 32.9658C59.1769 30.6289 58.6434 28.3207 57.6019 26.2287C57.4356 25.9053 57.2533 25.5905 57.0554 25.2855C55.2373 24.5671 53.2709 24.3046 51.328 24.521C49.3851 24.7374 47.5247 25.4261 45.9092 26.527C44.2937 27.6278 42.9723 29.1074 42.0602 30.8365C41.1481 32.5656 40.6731 34.4917 40.6767 36.4466ZM54.5409 43.9399C57.7148 41.6568 59.6611 38.5951 60.0279 35.3239L59.998 35.3463C60.4323 32.182 59.9463 28.9596 58.5981 26.0641C60.2707 27.0631 61.696 28.427 62.7677 30.0539C66.6303 35.8853 65.0209 49.1125 51.075 52.511C43.5819 54.345 35.4899 50.7968 31.4551 45.6092C33.596 46.4775 37.2714 47.4656 43.0279 47.4656H43.1252C47.204 47.5023 51.1932 46.2702 54.5409 43.9399ZM89.5803 39.8827C89.6849 40.0942 89.7352 40.3285 89.7267 40.5644C89.7182 40.8002 89.6512 41.0302 89.5316 41.2337C89.4121 41.4372 89.2437 41.6077 89.0418 41.7299C88.8399 41.8522 88.6108 41.9222 88.3751 41.9338H86.5261C85.8099 41.994 85.0934 41.821 84.4835 41.4406C83.8737 41.0601 83.4033 40.4926 83.1426 39.8228L81.2038 35.8255H79.8564V39.5683C79.8713 39.8809 79.8208 40.1932 79.708 40.4852C79.5951 40.7771 79.4225 41.0423 79.2012 41.2636C78.9798 41.4849 78.7147 41.6575 78.4228 41.7704C78.1308 41.8832 77.8185 41.9337 77.5059 41.9188H76.3306C76.018 41.9337 75.7057 41.8832 75.4137 41.7704C75.1218 41.6575 74.8566 41.4849 74.6353 41.2636C74.414 41.0423 74.2414 40.7771 74.1285 40.4852C74.0157 40.1932 73.9651 39.8809 73.9801 39.5683V25.1284C73.9662 24.8164 74.0176 24.5049 74.1309 24.2138C74.2442 23.9228 74.417 23.6586 74.6382 23.4381C74.8594 23.2176 75.1241 23.0456 75.4156 22.9332C75.707 22.8209 76.0186 22.7705 76.3306 22.7854H81.5706C85.7176 22.7854 89.4754 24.1927 89.4754 29.1857C89.5394 30.2503 89.3135 31.3123 88.8219 32.2587C88.3302 33.2052 87.5911 34.0006 86.6833 34.5604L89.5803 39.8827ZM79.8489 31.6484H81.2038C82.8806 31.6484 83.7639 30.8999 83.7639 29.4027C83.7639 27.9056 82.8806 27.4639 81.2038 27.4639H79.8564L79.8489 31.6484ZM91.3395 39.5384C91.2625 39.7805 91.2221 40.0328 91.2197 40.2869C91.2186 40.542 91.2709 40.7945 91.3733 41.0281C91.4756 41.2617 91.6258 41.4713 91.8141 41.6434C92.0023 41.8154 92.2246 41.9462 92.4665 42.0271C92.7083 42.1081 92.9645 42.1375 93.2184 42.1134H94.6033C95.1919 42.1606 95.7762 41.9792 96.2347 41.6071C96.6933 41.2349 96.991 40.7005 97.0661 40.1148L97.4478 38.2957H102.089L102.471 40.1148C102.548 40.7012 102.847 41.2356 103.307 41.6076C103.766 41.9796 104.352 42.1607 104.941 42.1134H106.528C106.78 42.1378 107.035 42.1084 107.276 42.0272C107.516 41.946 107.737 41.8148 107.922 41.6422C108.108 41.4697 108.256 41.2597 108.355 41.0261C108.454 40.7925 108.502 40.5406 108.497 40.2869C108.494 40.0328 108.454 39.7805 108.377 39.5384L104.147 25.0311C104.008 24.3444 103.618 23.7342 103.054 23.3191C102.489 22.904 101.79 22.7138 101.093 22.7854H98.6231C97.9332 22.7156 97.2423 22.9078 96.6876 23.3238C96.1329 23.7399 95.7549 24.3493 95.6288 25.0311L91.3395 39.5384ZM101.213 33.8867H98.3311L98.5033 33.0633C98.8626 31.3341 99.3267 28.9312 99.6786 27.0747H99.7983C100.038 28.3555 100.361 29.8797 100.654 31.2609C100.791 31.9059 100.922 32.52 101.034 33.0633L101.213 33.8867ZM109.814 32.3595C109.814 26.0117 114.456 22.426 119.246 22.426C122.563 22.426 124.973 23.7809 124.973 25.6598C125.005 25.9874 124.969 26.3182 124.865 26.6307C124.762 26.9433 124.594 27.2306 124.372 27.474C124.151 27.7175 123.88 27.9117 123.579 28.0441C123.278 28.1764 122.952 28.244 122.622 28.2424C122 28.2424 121.569 28.0677 121.123 27.8871C120.645 27.6939 120.151 27.4938 119.389 27.4938C117.6 27.4938 115.811 29.2604 115.811 32.1349C115.811 35.4885 117.248 37.1354 119.336 37.1354C120.394 37.1354 120.909 36.8273 121.369 36.5526C121.738 36.3316 122.072 36.1323 122.622 36.1323C122.958 36.1197 123.293 36.1765 123.605 36.2992C123.918 36.4219 124.202 36.6078 124.44 36.8453C124.677 37.0828 124.863 37.3668 124.986 37.6795C125.108 37.9922 125.165 38.3268 125.153 38.6624C125.153 40.6012 122.742 42.1882 119.127 42.1882C114.224 42.1732 109.814 39.0891 109.814 32.3595ZM126.177 39.5383C126.1 39.7805 126.06 40.0328 126.058 40.2869C126.058 40.5442 126.113 40.7985 126.218 41.0332C126.324 41.2678 126.478 41.4776 126.67 41.6486C126.862 41.8196 127.089 41.9481 127.334 42.0256C127.579 42.1032 127.838 42.128 128.094 42.0984H129.471C130.061 42.1457 130.646 41.9646 131.106 41.5926C131.565 41.2206 131.865 40.6862 131.941 40.0998L132.323 38.2807H136.964L137.346 40.0998C137.419 40.682 137.712 41.2144 138.164 41.5885C138.616 41.9627 139.193 42.1504 139.779 42.1134H141.366C141.618 42.1378 141.873 42.1084 142.114 42.0272C142.354 41.946 142.574 41.8147 142.76 41.6422C142.946 41.4696 143.094 41.2597 143.193 41.0261C143.292 40.7925 143.34 40.5405 143.335 40.2869C143.332 40.0328 143.292 39.7805 143.215 39.5383L138.985 25.0311C138.846 24.3444 138.456 23.7342 137.892 23.3191C137.327 22.904 136.628 22.7138 135.931 22.7854H133.461C132.771 22.7156 132.08 22.9078 131.526 23.3238C130.971 23.7398 130.593 24.3493 130.467 25.0311L126.177 39.5383ZM136.044 33.8867H133.169L133.341 33.0632C133.693 31.334 134.165 28.9311 134.516 27.0747H134.636C134.876 28.3554 135.199 29.8797 135.492 31.2609C135.629 31.906 135.759 32.5199 135.871 33.0632L136.044 33.8867Z" fill="#EFEFE5"/>
</g>
<defs>
<clipPath id="clip0_2709_32368">
<rect width="116" height="40" fill="white" transform="translate(27 13)"/>
</clipPath>
</defs>
</svg>
