<svg width="170" height="66" viewBox="0 0 170 66" fill="none" xmlns="http://www.w3.org/2000/svg">
<g opacity="0.8" clip-path="url(#clip0_2709_32388)">
<path d="M86.156 39.305C85.285 38.963 84.529 38.45 83.832 37.765C83.192 37.08 82.669 36.338 82.262 35.482C81.914 34.626 81.682 33.656 81.682 32.686C81.682 31.716 81.856 30.803 82.262 29.89C82.612 29.034 83.134 28.292 83.832 27.608C84.471 26.98 85.285 26.467 86.156 26.068C87.028 25.725 88.016 25.496 89.004 25.496C89.992 25.496 90.922 25.668 91.852 26.067C92.724 26.409 93.479 26.923 94.118 27.607C94.758 28.236 95.281 29.034 95.63 29.89C96.036 30.803 96.21 31.716 96.21 32.686C96.21 33.656 96.036 34.569 95.63 35.482C95.28 36.338 94.758 37.08 94.06 37.765C93.363 38.392 92.607 38.906 91.736 39.305C90.864 39.648 89.876 39.876 88.888 39.876C87.958 39.876 87.028 39.704 86.156 39.305ZM85.11 23.785C83.948 24.298 82.844 24.983 81.972 25.896C81.042 26.809 80.345 27.836 79.822 28.977C79.299 30.176 79.066 31.431 79.066 32.743C79.066 34.056 79.299 35.311 79.821 36.509C80.345 37.651 81.042 38.735 81.971 39.591C82.901 40.504 83.948 41.188 85.111 41.702C86.331 42.215 87.609 42.444 88.946 42.444C90.283 42.444 91.561 42.215 92.782 41.702C93.944 41.188 95.048 40.504 95.92 39.591C96.85 38.678 97.547 37.651 98.07 36.509C98.594 35.311 98.826 34.056 98.826 32.743C98.826 31.431 98.594 30.176 98.071 28.977C97.547 27.837 96.85 26.752 95.921 25.896C94.991 24.983 93.944 24.298 92.781 23.785C91.561 23.271 90.283 23.043 88.946 23.043C87.609 23.043 86.331 23.271 85.11 23.785ZM64.014 23.785C62.851 24.298 61.747 24.983 60.875 25.896C59.887 26.752 59.19 27.836 58.725 28.977C58.202 30.176 57.969 31.488 57.969 32.743C57.969 34.056 58.259 35.311 58.725 36.566C59.19 37.708 59.945 38.735 60.875 39.648C61.805 40.561 62.851 41.246 64.014 41.759C65.234 42.273 66.571 42.501 67.849 42.501C69.186 42.501 70.465 42.215 71.685 41.759C72.905 41.245 73.952 40.561 74.823 39.705C75.753 38.792 76.451 37.765 76.973 36.566C77.09 36.338 77.206 36.053 77.264 35.768H74.358C74.01 36.509 73.545 37.194 72.905 37.822C72.266 38.45 71.453 38.963 70.581 39.362C69.709 39.705 68.721 39.933 67.733 39.933C66.745 39.933 65.815 39.762 64.943 39.363C64.072 39.02 63.316 38.506 62.619 37.822C61.979 37.137 61.456 36.395 61.049 35.539C60.701 34.683 60.469 33.713 60.469 32.743C60.469 31.773 60.643 30.86 61.049 29.947C61.399 29.091 61.921 28.35 62.619 27.665C63.258 27.037 64.072 26.524 64.943 26.125C65.815 25.782 66.803 25.554 67.791 25.554C68.779 25.554 69.709 25.724 70.639 26.124C71.511 26.467 72.266 26.98 72.964 27.664C73.544 28.236 74.01 28.92 74.417 29.719H77.323C77.264 29.434 77.148 29.205 77.032 28.92C76.509 27.779 75.812 26.695 74.882 25.839C74.01 24.983 72.905 24.241 71.743 23.728C70.523 23.214 69.244 22.986 67.907 22.986C66.513 23.043 65.176 23.271 64.014 23.785ZM101.906 42.5H104.58V23.043H101.906V42.5ZM134.975 29.89C134.975 27.322 137.126 25.21 139.741 25.21C142.356 25.21 144.448 27.321 144.448 29.89C144.448 32.4 142.356 34.511 139.741 34.511C137.068 34.511 134.975 32.458 134.975 29.89ZM132.592 29.946C132.592 33.769 135.789 36.736 139.857 36.736H141.484L138.346 42.614H141.02L145.96 33.37C146.657 32.115 146.948 30.973 146.948 29.89C146.948 26.066 143.809 23.042 139.799 23.042C135.731 22.985 132.592 26.066 132.592 29.946ZM151.539 36.736C151.539 34.511 153.399 32.742 155.665 32.742C157.99 32.742 159.85 34.512 159.85 36.737C159.85 38.962 157.99 40.788 155.665 40.788C153.34 40.788 151.539 38.961 151.539 36.736ZM152.876 27.836C152.876 26.351 154.096 25.096 155.607 25.096C157.118 25.096 158.397 26.351 158.397 27.836C158.397 29.319 157.118 30.574 155.607 30.574C154.154 30.574 152.876 29.319 152.876 27.835V27.836ZM150.667 27.836C150.667 28.919 151.016 29.946 151.655 30.802L152.178 31.544L151.481 32.114C150.086 33.256 149.272 34.968 149.272 36.737C149.272 40.16 152.12 42.957 155.607 42.957C159.152 42.957 162 40.16 162 36.737C162 34.911 161.186 33.256 159.792 32.057L159.094 31.487L159.675 30.745C160.315 29.946 160.663 28.919 160.663 27.835C160.663 25.153 158.455 23.042 155.665 23.042C152.817 22.985 150.667 25.096 150.667 27.835V27.836ZM126.141 23.042V38.163C126.141 39.019 125.676 39.533 124.863 39.59C124.049 39.59 123.584 38.962 123.41 38.62L117.307 25.667C116.959 24.867 116.436 24.24 115.68 23.727C114.983 23.27 114.169 23.042 113.297 23.042C112.251 23.042 111.321 23.384 110.566 23.955C110.508 23.955 110.508 24.012 110.45 24.012C109.578 24.754 109.171 25.667 109.171 26.751V42.5H112.019V27.15C112.019 26.351 112.6 25.78 113.355 25.78C113.937 25.78 114.46 26.123 114.808 26.808L114.867 26.922C116.319 30.06 119.516 36.908 121.434 40.56C122.073 41.758 123.177 42.329 124.921 42.329C125.967 42.329 126.955 42.043 127.711 41.416C128.582 40.731 129.047 40.16 129.047 38.791V23.041L126.141 23.042ZM40.301 13H14.44C10.313 13 7 16.252 7 20.304V45.696C7 49.748 10.313 53 14.44 53H40.3C44.369 53 47.74 49.748 47.74 45.696V20.304C47.74 16.252 44.428 13 40.301 13ZM34.025 22.986C37.047 22.986 39.488 25.382 39.488 28.35C39.488 29.262 39.255 30.118 38.848 30.917C38.151 30.404 37.396 29.947 36.582 29.662C36.814 29.262 36.931 28.806 36.931 28.35C36.931 26.809 35.652 25.554 34.083 25.554C32.513 25.554 31.235 26.809 31.235 28.35C31.235 28.806 31.351 29.262 31.584 29.662C30.77 29.947 29.956 30.347 29.317 30.917C28.852 30.118 28.677 29.262 28.677 28.349C28.562 25.382 31.003 22.986 34.025 22.986ZM20.715 43.014C17.694 43.014 15.253 40.618 15.253 37.651H17.868C17.868 39.191 19.147 40.447 20.716 40.447C22.285 40.447 23.564 39.191 23.564 37.651H26.179C26.179 40.618 23.737 43.014 20.715 43.014ZM20.715 35.482C17.229 35.482 14.381 32.686 14.381 29.262C14.381 25.839 17.229 22.986 20.716 22.986C24.203 22.986 27.109 25.782 27.109 29.262C27.051 32.686 24.202 35.482 20.715 35.482ZM34.025 43.014C30.538 43.014 27.632 40.218 27.632 36.794C27.632 33.314 30.48 30.518 34.025 30.518C37.512 30.518 40.36 33.314 40.36 36.795C40.36 40.218 37.512 43.014 34.025 43.014ZM37.802 36.738C37.802 38.792 36.117 40.389 34.025 40.389C31.933 40.389 30.247 38.735 30.247 36.738C30.247 34.683 31.933 33.028 34.025 33.028C36.117 33.086 37.802 34.74 37.802 36.738ZM24.435 29.262C24.435 31.317 22.75 32.972 20.658 32.972C18.565 32.972 16.88 31.317 16.88 29.262C16.88 27.208 18.565 25.553 20.658 25.553C22.808 25.553 24.435 27.208 24.435 29.263V29.262Z" fill="#EFEFE5"/>
</g>
<defs>
<clipPath id="clip0_2709_32388">
<rect width="155" height="40" fill="white" transform="translate(7 13)"/>
</clipPath>
</defs>
</svg>
