<svg width="170" height="66" viewBox="0 0 170 66" fill="none" xmlns="http://www.w3.org/2000/svg">
<g opacity="0.8" clip-path="url(#clip0_2709_32333)">
<path d="M45.2098 21.9985C46.2747 36.4247 37.0026 43.2433 28.6905 43.9705C20.9625 44.6465 13.6883 39.8974 13.0502 32.6008C12.5237 26.5726 16.249 24.0062 19.1759 23.7503C22.1863 23.4864 24.7161 25.5627 24.9355 28.0766C25.1469 30.4935 23.639 31.5936 22.5902 31.6852C21.7609 31.7579 20.7175 31.2543 20.6232 30.1731C20.5424 29.244 20.8952 29.1174 20.809 28.1304C20.6555 26.3733 19.1234 26.1686 18.2847 26.2413C17.2695 26.3302 15.4278 27.5151 15.6863 30.4666C15.9461 33.4437 18.8003 35.796 22.5417 35.4688C26.5793 35.116 29.3905 31.972 29.6019 27.5622C29.5999 27.3287 29.6492 27.0975 29.7459 26.8849L29.7472 26.8795C29.7908 26.7872 29.8417 26.6985 29.8994 26.6143C29.9855 26.485 30.096 26.3423 30.2387 26.1861C30.24 26.1821 30.24 26.1821 30.2428 26.1821C30.3463 26.0649 30.4716 25.9384 30.6129 25.8024C32.3766 24.1381 38.7286 20.2131 44.7359 21.4559C44.8629 21.4831 44.9777 21.5507 45.063 21.6485C45.1485 21.7463 45.1999 21.8691 45.2098 21.9985Z" fill="#EFEFE5"/>
<path d="M60.0354 28.3147V42.5618C60.0354 42.5813 60.0275 42.6002 60.0136 42.6141C59.9999 42.628 59.981 42.6358 59.9613 42.6358H56.9266C56.907 42.6358 56.888 42.628 56.8743 42.6141C56.8604 42.6002 56.8525 42.5813 56.8525 42.5618V28.3147C56.8525 28.297 56.8596 28.2801 56.872 28.2676C56.8846 28.2551 56.9016 28.248 56.9192 28.248H59.9687C59.9865 28.248 60.0033 28.2551 60.0158 28.2676C60.0283 28.2801 60.0354 28.297 60.0354 28.3147Z" fill="#EFEFE5"/>
<path d="M83.8431 23.1855C83.8275 23.1855 83.8125 23.1918 83.8014 23.2029C83.7903 23.214 83.784 23.2291 83.784 23.2448V25.7995C83.784 25.8171 83.7909 25.8341 83.8036 25.8466C83.8159 25.8591 83.8329 25.8661 83.8505 25.8661H89.9347V42.5789C89.9347 42.5986 89.9426 42.6174 89.9565 42.6313C89.9702 42.6451 89.989 42.6531 90.0088 42.6531H93.1692C93.189 42.6531 93.2077 42.6451 93.2216 42.6313C93.2353 42.6174 93.2433 42.5986 93.2433 42.5789V25.8661H98.8391C98.8605 25.8661 98.8812 25.8576 98.8965 25.8423C98.9118 25.827 98.9206 25.8063 98.9206 25.7847V23.2448C98.9206 23.2291 98.9141 23.214 98.903 23.2029C98.8919 23.1918 98.8768 23.1855 98.8613 23.1855H83.8431Z" fill="#EFEFE5"/>
<path d="M84.9413 42.5579C84.9413 42.5795 84.933 42.6002 84.9176 42.6155C84.9023 42.6307 84.8816 42.6393 84.8601 42.6393H81.8995C81.8778 42.6393 81.8571 42.6307 81.8417 42.6155C81.8267 42.6002 81.8179 42.5795 81.8179 42.5579V34.2571C81.815 33.8529 81.7829 33.4495 81.7216 33.05C81.5144 31.6209 80.9814 30.6583 79.072 30.6583H78.9905C78.4111 30.6795 77.845 30.8395 77.3399 31.1248C76.6816 31.4712 76.1235 31.9812 75.7189 32.6057C75.7784 33.0674 75.8081 33.5324 75.8079 33.9978V42.743C75.8079 42.7627 75.7999 42.7815 75.7861 42.7953C75.7723 42.8092 75.7536 42.8171 75.7337 42.8171H72.8175C72.7959 42.8171 72.7751 42.8084 72.7601 42.7932C72.7448 42.7779 72.736 42.7573 72.736 42.7356V35.1086C72.736 33.7535 72.8175 32.3021 72.144 31.495C71.8648 31.1928 71.518 30.9608 71.1322 30.8179C70.7462 30.6751 70.3322 30.6255 69.9234 30.6731C69.3556 30.6982 68.7989 30.8393 68.2876 31.0877C67.9411 31.2326 67.625 31.4411 67.3551 31.7023C67.0361 32.0048 66.8015 32.385 66.674 32.8057V42.5579C66.674 42.5795 66.6654 42.6002 66.6504 42.6155C66.635 42.6307 66.6143 42.6393 66.5925 42.6393H63.6319C63.6105 42.6393 63.5898 42.6307 63.5745 42.6155C63.5591 42.6002 63.5507 42.5795 63.5507 42.5579V28.4146C63.5507 28.3949 63.5583 28.3761 63.5722 28.3622C63.5861 28.3483 63.6051 28.3405 63.6245 28.3405H64.8904C65.1371 28.3397 65.3776 28.4175 65.5772 28.5626C65.7767 28.7077 65.9252 28.9126 66.0005 29.1477C66.0598 29.355 66.1337 29.5327 66.1633 29.6216C67.4158 28.5328 69.0269 27.9471 70.6858 27.9777C71.3255 27.9331 71.9674 28.0257 72.5686 28.2492C73.1697 28.4726 73.7166 28.8218 74.1721 29.2735C74.3852 29.528 74.5759 29.8006 74.7419 30.0881C75.3744 29.416 76.142 28.8858 76.9943 28.5322C77.8465 28.1787 78.764 28.0099 79.6862 28.0369C81.2553 28.0369 84.9046 28.5701 84.9046 33.5239L84.9413 42.5579Z" fill="#EFEFE5"/>
<path d="M128.36 42.7346H125.111C125.095 42.7355 125.079 42.7326 125.065 42.7261C125.051 42.7196 125.039 42.7099 125.029 42.6976C124.348 41.7497 122.898 39.4839 122.742 39.3136L122.676 39.2025C122.165 38.5286 120.958 36.981 119.345 36.6329L118.123 37.8992V42.6383C118.123 42.646 118.122 42.6538 118.119 42.661C118.116 42.6682 118.112 42.6747 118.106 42.6803C118.101 42.6857 118.094 42.69 118.087 42.6931C118.08 42.696 118.072 42.6976 118.064 42.6976H115.044C115.024 42.6957 115.005 42.6863 114.992 42.6713C114.978 42.6561 114.97 42.6365 114.97 42.6161V22.9783C114.97 22.9587 114.978 22.9399 114.992 22.926C115.006 22.9121 115.025 22.9043 115.044 22.9043H118.123C118.139 22.9043 118.154 22.9105 118.165 22.9216C118.177 22.9328 118.183 22.9478 118.183 22.9635V34.0709L124.104 27.9989H127.538C127.635 27.9989 127.679 27.9989 127.716 28.0655C127.753 28.1321 127.716 28.1914 127.716 28.258L121.484 34.5892C122.868 35.3268 124.058 36.3824 124.955 37.6696L125.022 37.7585C125.229 38.0251 127.553 41.3425 128.434 42.5791C128.455 42.5888 128.471 42.6065 128.478 42.6281C128.486 42.6496 128.484 42.6733 128.475 42.6939C128.465 42.7145 128.447 42.7303 128.426 42.738C128.404 42.7457 128.381 42.7445 128.36 42.7346Z" fill="#EFEFE5"/>
<path d="M60.3548 24.4966C60.3622 24.8756 60.2568 25.2483 60.0518 25.5671C59.8467 25.886 59.5516 26.1366 59.2039 26.2871C58.8559 26.4376 58.4713 26.4812 58.0986 26.4123C57.7262 26.3434 57.3823 26.1652 57.1111 25.9003C56.8403 25.6353 56.654 25.2958 56.5765 24.9247C56.4989 24.5536 56.5335 24.1679 56.6757 23.8165C56.818 23.4651 57.0616 23.164 57.3752 22.9515C57.6891 22.739 58.0589 22.6247 58.438 22.6232C58.6867 22.6202 58.9337 22.6664 59.1649 22.7589C59.3958 22.8515 59.6063 22.9887 59.7842 23.1627C59.9623 23.3366 60.1043 23.544 60.2022 23.7728C60.3003 24.0017 60.3522 24.2477 60.3548 24.4966Z" fill="#EFEFE5"/>
<path d="M105.208 27.6855C100.848 27.6855 98.1469 30.5808 98.1469 35.2459C98.1469 39.911 100.848 42.8063 105.208 42.8063C109.567 42.8063 112.314 39.9036 112.314 35.2385C112.314 30.5735 109.567 27.6855 105.208 27.6855ZM108.028 39.1557C107.649 39.5045 107.205 39.774 106.72 39.9482C106.236 40.1225 105.722 40.1979 105.208 40.1702C101.87 40.1702 101.182 37.4008 101.182 35.0904C101.182 31.8693 102.492 30.2995 105.208 30.2995C107.924 30.2995 109.22 31.9508 109.22 35.2237C109.234 37.0083 108.827 38.3337 108.028 39.1483V39.1557Z" fill="#EFEFE5"/>
<path d="M142.012 38.281C141.945 38.1996 141.804 38.281 141.738 38.281L139.125 38.6735C139.081 38.6744 139.037 38.6882 139.001 38.7131C138.964 38.7381 138.935 38.7732 138.918 38.8142C138.633 39.284 138.239 39.6771 137.768 39.9597C137.297 40.2423 136.764 40.4059 136.216 40.4359C135.504 40.5365 134.778 40.4382 134.119 40.1521C133.459 39.8659 132.891 39.4029 132.479 38.8142C132.018 38.2201 131.731 37.5103 131.649 36.7631V36.7113L139.192 35.6746C139.657 35.6204 140.104 35.4583 140.496 35.2013C140.887 34.9442 141.214 34.5991 141.449 34.1936C141.668 33.7752 141.785 33.3112 141.791 32.8392C141.798 32.3672 141.693 31.9002 141.486 31.476C140.784 29.9531 139.522 28.7595 137.963 28.1438C136.864 27.725 135.678 27.5902 134.514 27.752C133.349 27.9138 132.244 28.3669 131.302 29.0694C130.439 29.7582 129.743 30.6339 129.267 31.6305C128.792 32.6271 128.549 33.7186 128.555 34.823C128.519 35.5409 128.559 36.2608 128.674 36.9705C129.2 40.0064 131.413 43.072 135.284 43.072C139.902 43.072 141.671 40.2286 141.997 38.5254C142.041 38.4736 142.093 38.3403 142.012 38.281ZM132.39 31.8166C132.74 31.3812 133.175 31.0221 133.669 30.761C134.163 30.5 134.705 30.3426 135.262 30.2986C135.774 30.1981 136.303 30.2223 136.804 30.3692C137.305 30.5161 137.764 30.7814 138.141 31.1428C138.437 31.4219 138.687 31.747 138.881 32.1054C138.937 32.2209 138.966 32.3474 138.966 32.4756C138.966 32.6039 138.937 32.7304 138.881 32.8459C138.83 32.9644 138.75 33.0678 138.647 33.1457C138.545 33.2236 138.424 33.2734 138.296 33.2902L131.405 34.2528C131.511 33.3625 131.862 32.5191 132.419 31.8166H132.39Z" fill="#EFEFE5"/>
<path d="M156.938 33.7363V42.5556C156.938 42.5771 156.93 42.5978 156.914 42.6132C156.899 42.6284 156.878 42.6369 156.857 42.6369H153.895C153.877 42.6369 153.857 42.6292 153.844 42.6153C153.829 42.6014 153.822 42.5825 153.822 42.563V35.2246C153.822 35.2246 153.822 34.0103 153.763 32.907C153.751 32.5373 153.668 32.1735 153.516 31.8367C153.363 31.4998 153.145 31.1966 152.874 30.9447C152.595 30.7233 152.271 30.5634 151.925 30.4754C151.58 30.3874 151.22 30.3732 150.868 30.4337C149.469 30.6142 148.191 31.3212 147.294 32.4108V42.5556C147.294 42.5771 147.284 42.5978 147.27 42.6132C147.254 42.6284 147.234 42.6369 147.212 42.6369H144.251C144.23 42.6369 144.209 42.6284 144.194 42.6132C144.178 42.5978 144.17 42.5771 144.17 42.5556V28.1456C144.17 28.124 144.178 28.1033 144.194 28.088C144.209 28.0727 144.23 28.0642 144.251 28.0642H146.731C146.753 28.0642 146.773 28.0727 146.789 28.088C146.803 28.1033 146.813 28.124 146.813 28.1456V29.5526C148.064 28.418 149.677 27.7623 151.364 27.7013C152.785 27.6125 156.938 27.6939 156.938 33.7363Z" fill="#EFEFE5"/>
</g>
<defs>
<clipPath id="clip0_2709_32333">
<rect width="144" height="23.7798" fill="white" transform="translate(13 21)"/>
</clipPath>
</defs>
</svg>
