<svg width="170" height="66" viewBox="0 0 170 66" fill="none" xmlns="http://www.w3.org/2000/svg">
<g opacity="0.8">
<path fill-rule="evenodd" clip-rule="evenodd" d="M57.9213 49.0007C62.6526 49.0007 66.9204 46.9441 69.8492 43.6685C68.4929 42.484 66.4363 42.4085 64.9805 43.5896L64.7093 43.8231C62.0517 45.9758 58.1754 45.6462 55.9058 43.1055C54.6629 41.708 52.5513 41.5741 51.1333 42.7964L47.9333 45.5295C50.6663 47.7201 54.141 49.0213 57.9213 49.0213V49.0007ZM63.1024 41.2617C65.6226 39.2256 69.1934 39.3046 71.6174 41.2617C73.0732 38.8582 73.9075 36.0256 73.9075 33.0007C73.9075 29.6462 72.8809 26.5218 71.1161 23.9638C69.9728 23.7132 68.7505 24.0016 67.7994 24.8359L67.5281 25.0694C64.9668 27.3389 61.0904 27.2016 58.7041 24.7604C57.4063 23.4213 55.2706 23.3836 53.9144 24.6643L50.1857 28.1527L48.1496 25.9793L51.8749 22.4874C54.4157 20.1012 58.3917 20.1801 60.8363 22.6625C62.117 23.9604 64.1908 24.0394 65.5505 22.8376L65.8217 22.6042C66.656 21.866 67.6071 21.3819 68.6131 21.1106C65.7771 18.5527 62.014 17.0007 57.9041 17.0007C49.7771 17.0007 43.0681 23.0505 42.038 30.8857C44.4998 29.7012 47.5453 30.1475 49.5642 32.2248C50.8243 33.5226 52.8809 33.66 54.3161 32.5338L56.3899 30.9063C59.0097 28.8703 62.6938 28.9664 65.1934 31.1398L69.2483 34.6694L67.2912 36.9183L63.2363 33.3887C61.8217 32.1458 59.7067 32.0909 58.2337 33.2514L56.1599 34.8788C53.523 36.9355 49.7805 36.6814 47.432 34.2986C46.0723 32.9046 43.8612 32.8634 42.4466 34.1853L42.0002 34.611C42.3299 37.9449 43.7067 40.9904 45.7805 43.3973L49.1934 40.4685C51.8509 38.199 55.8269 38.4703 58.1341 41.0694C59.3565 42.4256 61.4131 42.6007 62.8277 41.4574L63.099 41.2239V41.2617H63.1024Z" fill="#EFEFE5"/>
<path d="M85.444 38.1196C85.444 41.4741 88.0638 43.6647 92.2114 43.6647C96.3797 43.6647 99.2707 41.5497 99.2707 38.1952C99.2707 35.5754 97.7977 34.1986 94.8106 33.481L91.7067 32.7256C89.9797 32.2999 89.1076 31.5033 89.1076 30.3222C89.1076 28.6947 90.2921 27.7608 92.4243 27.7608C94.481 27.7608 95.6621 28.887 95.741 30.6312H98.9788C98.8998 27.2767 96.3797 25.1239 92.541 25.1239C88.6612 25.1239 85.9282 27.1806 85.9282 30.4183C85.9282 33.0175 87.4011 34.5488 90.5428 35.3042L93.6466 36.0218C95.4904 36.4887 96.0501 37.2063 96.0501 38.3874C96.0501 40.0149 94.6732 40.9866 92.3076 40.9866C90.0758 40.9866 88.699 39.9016 88.699 38.1162H85.444V38.1196Z" fill="#EFEFE5"/>
<path d="M111.332 43.6682C115.696 43.6682 118.642 41.5532 119.497 37.7729H116.335C115.755 39.7884 114.028 40.8768 111.408 40.8768C108.053 40.8768 106.114 38.8201 105.863 35.1154L119.477 35.0776V33.8175C119.477 28.6021 116.198 25.148 111.195 25.148C106.076 25.148 102.584 28.9695 102.584 34.4768C102.584 39.9463 106.151 43.6888 111.329 43.6888V43.6682H111.332ZM111.199 27.9772C114.186 27.9772 116.084 29.9171 116.084 32.8459H105.942C106.368 29.742 108.249 27.9772 111.199 27.9772Z" fill="#EFEFE5"/>
<path d="M125.605 21.4606C126.828 21.4606 127.837 20.4511 127.837 19.2288C127.837 17.9687 126.828 16.9971 125.605 16.9971C124.383 16.9971 123.374 17.9653 123.374 19.2288C123.377 20.4511 124.387 21.4606 125.605 21.4606ZM123.957 43.2391H127.332V25.6323H123.957V43.2391Z" fill="#EFEFE5"/>
</g>
</svg>
