<svg width="170" height="66" viewBox="0 0 170 66" fill="none" xmlns="http://www.w3.org/2000/svg">
<g clip-path="url(#clip0_2765_11856)">
<path d="M64.9681 32.7475C64.9359 31.7917 65.097 30.8467 65.4406 29.9555C65.7842 29.0642 66.3104 28.248 66.9761 27.5715C67.6419 26.8843 68.4472 26.3366 69.3277 25.9715C70.2082 25.6064 71.1639 25.4131 72.1196 25.4131C75.7383 25.4131 77.8751 27.5178 78.5194 29.9984L76.2537 30.7608C76.0497 29.8373 75.5235 29.0212 74.7719 28.4521C74.0095 27.8829 73.0753 27.6037 72.1303 27.6682C69.7895 27.6682 67.4486 29.3648 67.4486 32.8012C67.4486 36.2375 69.7358 37.8697 72.1626 37.8697C73.1182 37.9019 74.0524 37.6012 74.8148 37.0428C75.5772 36.4737 76.1356 35.6791 76.3825 34.7663L78.5838 35.4858C78.208 36.8818 77.3597 38.106 76.1893 38.9543C75.0188 39.8026 73.58 40.2322 72.1303 40.157C71.1639 40.1785 70.1975 39.9959 69.3063 39.6201C68.415 39.255 67.5989 38.7073 66.9332 38.0093C66.2567 37.3113 65.7413 36.4952 65.4084 35.5824C65.0755 34.6804 64.9252 33.7139 64.9896 32.7582L64.9681 32.7475Z" fill="#C1C1BA"/>
<path d="M82.9561 39.8046H80.626V25.3721H82.9561V31.0312C83.2997 30.6339 83.7185 30.3118 84.2017 30.1077C84.6849 29.893 85.2003 29.7963 85.7265 29.8178C88.1318 29.8178 89.2915 31.5359 89.2915 33.6729V39.8153H87.0365V34.0702C87.0795 33.791 87.058 33.5011 86.9721 33.2326C86.8862 32.9642 86.7466 32.7172 86.5533 32.5024C86.36 32.2984 86.1238 32.1373 85.8553 32.0299C85.5869 31.9225 85.3077 31.8796 85.0178 31.9011C84.7386 31.9011 84.4594 31.9548 84.2017 32.0729C83.944 32.1803 83.7185 32.3521 83.5252 32.5561C83.3319 32.7601 83.1923 33.0071 83.0957 33.2648C83.0098 33.5333 82.9668 33.8125 82.9991 34.0917L82.9561 39.7938V39.8046Z" fill="#C1C1BA"/>
<path d="M94.4888 34.2416L96.9907 33.855C97.5491 33.7799 97.7102 33.5007 97.7102 33.157C97.7102 32.3409 97.1518 31.6751 95.8633 31.6751C95.6163 31.6536 95.3586 31.6751 95.1223 31.761C94.8861 31.8362 94.6606 31.9651 94.4781 32.1261C94.2955 32.2872 94.1345 32.4913 94.0271 32.7168C93.9197 32.9423 93.8553 33.1893 93.8553 33.4362L91.7292 32.9637C91.901 31.2885 93.4365 29.7852 95.8311 29.7852C98.8377 29.7852 99.9866 31.4818 99.9866 33.4577V38.2793C99.9866 38.8055 100.019 39.3209 100.105 39.8364H97.9357C97.8605 39.4283 97.8283 39.0095 97.839 38.6014C97.5169 39.0954 97.0659 39.4927 96.5398 39.7612C96.0136 40.0297 95.423 40.1585 94.8324 40.1263C94.4244 40.1585 94.0056 40.1156 93.6083 39.976C93.211 39.8471 92.8566 39.6323 92.5452 39.3639C92.2338 39.0954 91.9869 38.7518 91.8043 38.3867C91.6325 38.0108 91.5251 37.6135 91.5144 37.1947C91.5144 35.4229 92.7922 34.4671 94.4673 34.2309L94.4888 34.2416ZM97.7102 35.7987V35.3584L95.1653 35.7343C94.8217 35.745 94.4888 35.8846 94.2526 36.1316C94.0056 36.3786 93.8767 36.7115 93.866 37.0551C93.866 37.2377 93.909 37.4095 93.9841 37.5705C94.0593 37.7316 94.1667 37.8712 94.2955 37.9893C94.4244 38.1075 94.5855 38.1934 94.7573 38.2471C94.9291 38.3008 95.1116 38.3222 95.2834 38.3008C95.6163 38.333 95.9599 38.3008 96.2713 38.1719C96.5934 38.0538 96.8726 37.8712 97.1089 37.6242C97.3451 37.3773 97.5169 37.0873 97.6243 36.7652C97.7317 36.443 97.7531 36.1101 97.7102 35.7772V35.7987Z" fill="#C1C1BA"/>
<path d="M103.935 25.1777C104.139 25.1777 104.333 25.2099 104.526 25.2851C104.709 25.3603 104.88 25.4677 105.031 25.6073C105.17 25.7469 105.288 25.9187 105.364 26.1012C105.439 26.2838 105.482 26.4878 105.482 26.6811C105.482 27.0784 105.321 27.465 105.041 27.7442C104.762 28.0234 104.376 28.1845 103.968 28.1845C103.56 28.1845 103.184 28.0234 102.894 27.7442C102.615 27.465 102.454 27.0784 102.454 26.6811C102.454 26.2838 102.604 25.908 102.883 25.6288C103.162 25.3495 103.538 25.1777 103.935 25.1777ZM102.797 39.8572V30.1067H105.095V39.8143L102.797 39.8572Z" fill="#C1C1BA"/>
<path d="M110.433 39.8034H108.103V30.0958H110.369V31.3844C110.659 30.8905 111.088 30.4824 111.593 30.2032C112.098 29.924 112.677 29.7844 113.257 29.8059C115.641 29.8059 116.779 31.524 116.779 33.661V39.8034H114.449V34.0583C114.449 32.8663 113.901 31.8999 112.452 31.8999C112.162 31.8999 111.872 31.9643 111.614 32.0824C111.346 32.2005 111.11 32.3724 110.927 32.5871C110.734 32.8019 110.594 33.0596 110.508 33.3388C110.422 33.618 110.401 33.908 110.433 34.1872V39.7926V39.8034Z" fill="#C1C1BA"/>
<path d="M119.625 39.8046V25.3721H121.956V39.8046H119.625Z" fill="#C1C1BA"/>
<path d="M126.099 25.1777C126.507 25.1777 126.894 25.3388 127.173 25.618C127.463 25.8972 127.624 26.2838 127.624 26.6919C127.624 26.9925 127.527 27.2825 127.366 27.5295C127.195 27.7764 126.958 27.9697 126.69 28.0771C126.411 28.1845 126.11 28.2167 125.82 28.163C125.53 28.1093 125.262 27.959 125.047 27.755C124.832 27.5402 124.693 27.2825 124.628 26.9818C124.575 26.6919 124.596 26.3912 124.714 26.112C124.832 25.8328 125.015 25.6073 125.272 25.4355C125.53 25.2636 125.809 25.1777 126.11 25.1777H126.099ZM124.95 39.8572V30.1067H127.259V39.8143L124.95 39.8572Z" fill="#C1C1BA"/>
<path d="M132.597 39.8034H130.267V30.0958H132.532V31.3844C132.822 30.8905 133.252 30.4824 133.756 30.2032C134.261 29.924 134.841 29.7844 135.421 29.8059C137.805 29.8059 138.954 31.524 138.954 33.661V39.8034H136.623V34.0583C136.666 33.7791 136.645 33.4892 136.559 33.2207C136.473 32.9522 136.334 32.7053 136.14 32.4905C135.947 32.2865 135.711 32.1254 135.442 32.018C135.174 31.9106 134.895 31.8677 134.605 31.8891C134.315 31.8891 134.025 31.9536 133.767 32.0717C133.499 32.1898 133.273 32.3616 133.08 32.5871C132.887 32.8019 132.747 33.0596 132.661 33.3388C132.575 33.618 132.554 33.908 132.586 34.1872V39.7926L132.597 39.8034Z" fill="#C1C1BA"/>
<path d="M146.898 34.1991L151 39.8046H148.155L145.288 35.8099L144.085 37.0663V39.8153H141.776V25.3721H144.085V34.0273L147.833 30.097H150.925L146.909 34.1991H146.898Z" fill="#C1C1BA"/>
<path d="M37.4276 21.4727L47.4783 27.2177V38.7508L37.4491 44.5281L27.3984 38.7938V27.2607L37.4276 21.4727ZM37.4276 13L33.7338 15.1262L23.6938 20.9143L20 23.0405V43.0355L23.6938 45.1402L33.7445 50.8853L37.4384 52.9901L41.1322 50.8638L51.1614 45.0758L54.8553 42.9603V22.9653L51.1614 20.8606L41.1 15.1047L37.4062 13H37.4276Z" fill="#C1C1BA"/>
</g>
<defs>
<clipPath id="clip0_2765_11856">
<rect width="131" height="40" fill="white" transform="translate(20 13)"/>
</clipPath>
</defs>
</svg>
