<svg width="170" height="66" viewBox="0 0 170 66" fill="none" xmlns="http://www.w3.org/2000/svg">
<g opacity="0.8">
<path d="M53.7196 23.1538C52.9711 22.8414 52.124 23.0127 51.5528 23.5971L44.1168 31.2043V35.3353L52.0846 27.1941V40.7662H38.8476L37.321 38.2372L31.9927 43.6881H52.9612C54.0544 43.6881 54.9408 42.7813 54.9408 41.663V25.0379C54.9408 24.2117 54.4582 23.4762 53.7196 23.1538Z" fill="#EFEFE5"/>
<path d="M31.9041 40.7662L40.6796 31.7887V40.1718H43.5357V29.6224C43.5357 28.7962 43.0532 28.0606 42.3144 27.7483C41.5659 27.4359 40.7189 27.6072 40.1477 28.1916L25 43.6881H31.1556L34.0118 40.7662H31.9041Z" fill="#EFEFE5"/>
<path d="M123.953 43.6478H133.152V41.542H126.257V37.4512H133.152V35.3858H126.257V31.1841H133.152V29.1891H123.953V43.6478Z" fill="#EFEFE5"/>
<path d="M140.558 36.0407L144.695 29.1891H142.34L140.184 32.7459C140.026 33.0179 139.878 33.2799 139.75 33.5016C139.622 33.7333 139.514 33.9449 139.406 34.1565L139.258 33.8744C138.962 33.29 138.756 32.9172 138.647 32.7257L136.609 29.1891H134.196L138.253 36.0809L133.664 43.6478H136.096L138.568 39.5167C138.716 39.2649 138.854 39.0231 138.982 38.7813C139.11 38.5395 139.228 38.3077 139.337 38.086C139.553 38.5193 139.79 38.9828 140.056 39.4765L140.095 39.547L142.459 43.6478H145L140.558 36.0407Z" fill="#EFEFE5"/>
<path d="M65.5088 29.4209H63.4306L57.994 43.6478H60.3281L61.8646 39.5672H67.0157L68.5226 43.6478H70.9355L65.5383 29.4914L65.5088 29.4209ZM62.6624 37.3706L64.4647 32.494L66.2277 37.3706H62.6624Z" fill="#EFEFE5"/>
<path d="M88.0431 39.5974C87.7576 40.212 87.3538 40.6956 86.8515 41.0382C86.3492 41.3707 85.7681 41.542 85.1476 41.542C84.212 41.542 83.424 41.1994 82.7937 40.5244C82.1633 39.8493 81.8482 38.9828 81.8482 37.955C81.8482 36.9475 82.1633 36.0809 82.7839 35.3958C83.4044 34.7106 84.1628 34.3681 85.0491 34.3681C85.7385 34.3681 86.3393 34.5192 86.8317 34.8315C87.3243 35.144 87.7379 35.6174 88.053 36.2422L88.0826 36.3027H90.3479L90.2987 36.1515C89.8948 34.9222 89.2448 33.955 88.3583 33.2698C87.472 32.5847 86.4083 32.2421 85.2067 32.2421C84.4385 32.2421 83.6998 32.3932 83.0301 32.7056C82.3504 33.0078 81.7399 33.4713 81.1981 34.0557C80.7057 34.5998 80.3315 35.2043 80.0852 35.8593C79.8292 36.5142 79.711 37.2296 79.711 37.9752C79.711 38.7006 79.8489 39.4261 80.1247 40.1314C80.4004 40.8266 80.7943 41.4513 81.277 41.9753C81.7892 42.5294 82.3801 42.9527 83.0202 43.2247C83.6604 43.5068 84.3794 43.6378 85.1575 43.6378C86.3984 43.6378 87.472 43.2952 88.3387 42.6302C89.2053 41.9651 89.8652 40.9677 90.3084 39.678L90.3577 39.5269H88.0924L88.0431 39.5974Z" fill="#EFEFE5"/>
<path d="M100.689 34.761C100.177 33.9751 99.5074 33.3504 98.7194 32.9071C97.9217 32.4638 97.0551 32.2421 96.1292 32.2421C95.3511 32.2421 94.6223 32.3932 93.9723 32.6854C93.3124 32.9776 92.7215 33.431 92.1995 34.0154C91.707 34.5595 91.3327 35.164 91.0865 35.8189C90.8305 36.4739 90.7122 37.1893 90.7122 37.945C90.7122 38.6704 90.8502 39.3959 91.1259 40.1012C91.4017 40.7964 91.7957 41.421 92.2782 41.9451C92.8002 42.5092 93.3912 42.9325 94.0314 43.2146C94.6716 43.4968 95.3906 43.6378 96.1686 43.6378C97.3209 43.6378 98.3452 43.3153 99.2217 42.6806C100.088 42.0458 100.778 41.1289 101.261 39.94L101.329 39.7787H98.9952L98.9657 39.8392C98.68 40.3733 98.2861 40.7864 97.8036 41.0785C97.3209 41.3707 96.7694 41.5118 96.1785 41.5118C95.3511 41.5118 94.6322 41.2397 94.0314 40.7158C93.4601 40.212 93.0957 39.5571 92.9282 38.7711H101.605V38.358C101.605 37.6124 101.526 36.9475 101.388 36.363C101.221 35.7888 100.995 35.2447 100.689 34.761ZM92.9775 36.8467C93.2041 36.091 93.5881 35.4865 94.1299 35.0432C94.7011 34.5696 95.3906 34.3378 96.1785 34.3378C96.9467 34.3378 97.6066 34.5696 98.1581 35.033C98.6702 35.4663 99.0544 36.0809 99.2808 36.8568H92.9775V36.8467Z" fill="#EFEFE5"/>
<path d="M120.643 33.9449C120.18 33.5116 119.688 33.1791 119.146 32.9474C118.536 32.6854 117.866 32.5544 117.157 32.5544C116.359 32.5544 115.63 32.6955 115 32.9675C114.369 33.2396 113.788 33.6628 113.257 34.227C112.774 34.7409 112.39 35.3454 112.134 36.0205C111.878 36.6955 111.74 37.4211 111.74 38.1767C111.74 39.7989 112.272 41.1692 113.316 42.2473C114.36 43.3254 115.689 43.8696 117.265 43.8696C117.945 43.8696 118.585 43.7386 119.186 43.4665C119.708 43.2348 120.19 42.9123 120.624 42.4891V43.6478H122.731V29.1891H120.643V33.9449ZM119.708 40.7662C119.038 41.4715 118.25 41.8241 117.364 41.8241C116.398 41.8241 115.571 41.4715 114.901 40.7762C114.232 40.081 113.897 39.1944 113.897 38.1667C113.897 37.1791 114.232 36.3429 114.901 35.6578C115.571 34.9726 116.389 34.63 117.324 34.63C118.24 34.63 119.048 34.9928 119.708 35.7081C120.377 36.4235 120.712 37.2901 120.712 38.2976C120.722 39.2347 120.377 40.0608 119.708 40.7662Z" fill="#EFEFE5"/>
<path d="M75.082 34.3278C75.151 34.3177 75.2101 34.3177 75.2888 34.3177C75.5154 34.3177 75.7221 34.358 75.9192 34.4185C76.3624 34.5797 76.717 34.9222 76.8942 35.3656H79.1595C79.0511 34.6603 78.6769 34.0255 78.1254 33.5318C77.9185 33.3101 77.6723 33.1288 77.3866 32.9776C77.0419 32.7963 76.648 32.6653 76.2048 32.5947C75.9192 32.5343 75.6237 32.5041 75.3183 32.5041C74.6683 32.5041 74.0479 32.625 73.5061 32.8567C73.4569 32.8769 73.4076 32.897 73.3584 32.9172C73.3289 32.9272 73.3092 32.9373 73.2797 32.9575C73.0236 33.0784 72.7872 33.2194 72.5804 33.3907C71.8713 33.965 71.5266 34.7106 71.5266 35.6276C71.5266 36.3027 71.7432 36.877 72.1667 37.3505C72.6 37.824 73.3487 38.2875 74.4221 38.7409C74.6093 38.8316 74.885 38.9324 75.2396 39.0634C76.2934 39.4664 76.8155 39.94 76.8155 40.5042C76.8155 40.9274 76.6677 41.2599 76.3723 41.5017C76.0767 41.7435 75.6729 41.8644 75.151 41.8644C74.5502 41.8644 74.0578 41.7335 73.6736 41.4615C73.6637 41.4513 73.6539 41.4513 73.6342 41.4412C73.2698 41.1692 72.9941 40.7762 72.8857 40.2926H70.6992C70.719 40.7561 70.8667 41.1894 71.103 41.6025C71.4576 42.2574 71.9304 42.7511 72.5114 43.0836C73.1319 43.4363 73.9002 43.6276 74.816 43.6478C74.8358 43.6478 74.8555 43.6478 74.8653 43.6478C74.8949 43.6478 74.9244 43.6478 74.9638 43.6478C76.2442 43.6478 77.2586 43.3556 77.9874 42.7712C78.7163 42.1869 79.0807 41.3808 79.0807 40.3531C79.0807 39.6377 78.8838 39.0533 78.4799 38.5696C78.0761 38.0962 77.4162 37.6729 76.4904 37.2901C76.2836 37.1993 75.998 37.0885 75.6139 36.9575C74.4221 36.5142 73.8312 36.0306 73.8312 35.4865C73.8312 35.4058 73.8411 35.3353 73.8509 35.2548C74.0873 34.7711 74.5403 34.4185 75.082 34.3278Z" fill="#EFEFE5"/>
<path d="M106.727 32.5242C104.215 32.5242 102.176 34.6099 102.176 37.1791V43.6478H104.274V37.3706C104.274 35.9902 105.377 34.8618 106.727 34.8618C108.076 34.8618 109.179 35.9902 109.179 37.3706V43.6478H111.277V37.1791C111.277 34.6099 109.238 32.5242 106.727 32.5242Z" fill="#EFEFE5"/>
</g>
</svg>
