<svg width="170" height="66" viewBox="0 0 170 66" fill="none" xmlns="http://www.w3.org/2000/svg">
<g opacity="0.8">
<path d="M55.8424 38.4493L55.8566 27.5957L60.9229 27.6024C63.3452 27.6024 64.6886 29.1702 64.6886 31.0072C64.6886 32.8442 63.3167 34.4053 60.9157 34.4053L57.8718 34.3985L57.8646 38.4493H55.8424ZM60.6442 29.2779H57.8789L57.8718 32.7298H60.6371C61.7804 32.7298 62.6093 32.0502 62.6093 31.0072C62.6093 29.9642 61.7804 29.2779 60.6442 29.2779Z" fill="#EFEFE5"/>
<path d="M71.7413 27.4353C75.1997 27.442 77.6292 29.8173 77.6292 33.0538C77.6221 36.2904 75.1855 38.6656 71.727 38.6589C68.2685 38.6522 65.839 36.2769 65.839 33.0404C65.8462 29.8038 68.2828 27.4286 71.7413 27.4353ZM71.7341 29.1242C69.4047 29.1242 67.9112 30.793 67.9112 33.0404C67.9112 35.2676 69.3903 36.9632 71.727 36.9632C74.0421 36.9632 75.5499 35.2743 75.5499 33.0471C75.5571 30.8064 74.0493 29.1309 71.7341 29.1242Z" fill="#EFEFE5"/>
<path d="M79.5729 38.4773L79.5872 27.6237H81.6094L81.5952 36.8018L86.6756 36.8085V38.484L79.5729 38.4773Z" fill="#EFEFE5"/>
<path d="M93.3711 27.4622C96.8295 27.4689 99.259 29.8442 99.259 33.0808C99.2519 36.3172 96.8153 38.6926 93.3568 38.6859C89.8984 38.6791 87.4688 36.3038 87.4688 33.0672C87.476 29.8307 89.9198 27.4555 93.3711 27.4622ZM93.3711 29.1511C91.0417 29.1511 89.5482 30.8199 89.5482 33.0672C89.5482 35.2945 91.0274 36.9902 93.364 36.9902C95.6791 36.9902 97.1869 35.3013 97.1869 33.0741C97.1869 30.8333 95.6863 29.1579 93.3711 29.1511Z" fill="#EFEFE5"/>
<path d="M109.242 38.5109L103.239 30.5978L103.232 38.5041H101.21L101.224 27.6506H103.296L109.177 35.355L109.184 27.6573H111.207L111.192 38.5109H109.242Z" fill="#EFEFE5"/>
<path d="M113.643 38.5176L113.658 27.6641H115.68L115.665 38.5176H113.643Z" fill="#EFEFE5"/>
<path d="M118.123 38.5243L118.138 27.6708L126.034 27.6775V29.353L120.16 29.3463L120.153 32.1589L125.905 32.1657V33.8411L120.153 33.8343L120.146 36.8421L126.019 36.8488V38.5243H118.123Z" fill="#EFEFE5"/>
<path d="M135.801 38.5445L132.579 34.2918L129.342 38.5378H126.92L131.25 32.9797L127.198 27.6842H129.621L132.586 31.6744L135.545 27.6909H137.981L133.93 32.9596L138.224 38.5445H135.801Z" fill="#EFEFE5"/>
<path d="M43.9091 33.0134L37.9354 29.7634L31.9687 26.5067L37.9497 23.2701L43.9233 20.0268L43.9091 33.0134Z" fill="#EFEFE5"/>
<path d="M31.9545 39.4933L20.0213 32.9865L31.9687 26.5067L31.9545 39.4933Z" fill="#C7C7BF"/>
<path d="M20.0347 20L31.9687 26.5067L20.0213 32.9865L20.0347 20Z" fill="#989891"/>
<path d="M20.0071 39.4798L20.0213 32.9865L31.9545 39.4933L25.9809 42.7366L20 45.9731L20.0071 39.4798Z" fill="#EFEFE5"/>
<path d="M37.9354 29.7634L31.9687 26.5067L31.9545 39.4933L43.8877 46L43.8948 39.5067L43.9091 33.0134L37.9354 29.7634Z" fill="#989891"/>
<path d="M144.675 22.6096H143.245V26.3262H142.451V22.6096H141.038V22.0091H144.675V22.6096ZM146.312 21.9929L147.639 25.3037L148.966 21.9929H150V26.31H149.207V24.8818L149.294 22.9829L147.933 26.31H147.363L146.019 22.9829L146.087 24.8818V26.31H145.295V21.9929H146.312Z" fill="#EFEFE5"/>
</g>
</svg>
