<svg width="170" height="66" viewBox="0 0 170 66" fill="none" xmlns="http://www.w3.org/2000/svg">
<g clip-path="url(#clip0_2879_11859)">
<path fill-rule="evenodd" clip-rule="evenodd" d="M132.233 31.1907L134.559 29.1266H130.495V26.5669H138.298V28.8336L136.033 30.8515C137.516 31.4013 138.687 32.6816 138.687 34.6299C138.687 37.1963 136.635 38.7426 134.243 38.7426C133.049 38.7426 131.979 38.3869 131.206 37.6791C130.43 36.9691 129.969 35.9191 129.969 34.5647V34.4024H132.771V34.5647C132.771 35.1054 132.932 35.5004 133.191 35.7603C133.452 36.0207 133.83 36.164 134.302 36.164C134.769 36.164 135.136 36.0074 135.387 35.7444C135.638 35.4807 135.786 35.0951 135.786 34.611C135.786 34.179 135.655 33.7948 135.386 33.5191C135.117 33.2442 134.692 33.0581 134.067 33.0581H132.23L132.233 31.1907Z" fill="#C1C1BA"/>
<path d="M66.5391 47.8031C70.5238 47.8031 74.5375 45.6639 74.5375 40.9167V40.0961H70.2928V40.477C70.2928 42.9386 68.3004 43.935 66.5679 43.935C64.3156 43.935 62.4676 42.5869 62.4676 40.2719V33.7664C62.4676 31.0998 64.5755 30.0742 66.4524 30.0742C68.1849 30.0742 70.2928 31.0705 70.2928 33.5028V33.913H74.5375V33.0925C74.5375 28.3452 70.3795 26.2061 66.4235 26.2061C61.8901 26.2061 57.9919 28.8727 57.9919 33.913V40.4185C57.9919 45.3708 62.0345 47.8031 66.5391 47.8031Z" fill="#C1C1BA"/>
<path d="M84.7308 47.8035C89.553 47.8035 93.0758 44.9903 93.0758 39.8914V26.5581H88.629V39.7449C88.629 42.4701 87.3007 43.8767 84.8175 43.8767C82.1609 43.8767 80.9482 42.2064 80.9482 39.7449V26.5581H76.4436V40.1551C76.4436 45.2833 79.7354 47.8035 84.7308 47.8035Z" fill="#C1C1BA"/>
<path d="M95.6514 47.4518H105.7C109.28 47.4518 112.111 45.1368 112.111 41.4738C112.111 39.1881 110.897 37.1368 108.558 36.5215V36.4628C110.695 35.5544 111.562 33.8255 111.562 31.8914C111.562 28.5215 109.338 26.5581 105.325 26.5581H95.6514V47.4518ZM100.156 43.7302V38.602H104.603C106.508 38.602 107.577 39.4518 107.577 41.0929C107.577 42.7339 106.451 43.7302 104.603 43.7302H100.156ZM100.156 34.9976V30.2211H104.256C106.018 30.2211 107.144 30.983 107.144 32.5361C107.144 34.0306 106.162 34.9976 104.372 34.9976H100.156Z" fill="#C1C1BA"/>
<path d="M114.01 47.4518H128.823V43.613H118.485V38.7779H127.351V34.9391H118.485V30.3969H128.736V26.5581H114.01V47.4518Z" fill="#C1C1BA"/>
<mask id="mask0_2879_11859" style="mask-type:luminance" maskUnits="userSpaceOnUse" x="32" y="24" width="20" height="26">
<path d="M51.5915 24H32V50H51.5915V24Z" fill="white"/>
</mask>
<g mask="url(#mask0_2879_11859)">
<path d="M42.5522 49.9999L46.7698 49.2476L51.428 43.8071L47.2406 44.186L42.5522 49.9999Z" fill="#C1C1BA"/>
<path d="M36.1888 31.3486L32 37L36.1888 42.6527L40.8967 37L36.1888 31.3486Z" fill="#C1C1BA"/>
<path d="M51.428 30.1927L46.7698 24.7523L42.5522 24L47.2406 29.8139L51.428 30.1927Z" fill="#C1C1BA"/>
<path d="M46.5358 30.2021L41.5859 24.0645L36.6753 30.6911L41.412 36.3787L46.5358 30.2021Z" fill="#C1C1BA"/>
<path d="M41.412 37.6201L36.6753 43.3091L41.5859 49.9357L46.5358 43.7967L41.412 37.6201Z" fill="#C1C1BA"/>
<path d="M42.2634 37.4028L47.2198 43.3739L51.5916 42.979L47.0028 37.4028H42.2634Z" fill="#C1C1BA"/>
<path d="M42.2634 36.5967H47.0028L51.5916 31.0219L47.2198 30.627L42.2634 36.5967Z" fill="#C1C1BA"/>
</g>
</g>
<defs>
<clipPath id="clip0_2879_11859">
<rect width="107" height="26" fill="white" transform="translate(32 24)"/>
</clipPath>
</defs>
</svg>
