<svg width="170" height="66" viewBox="0 0 170 66" fill="none" xmlns="http://www.w3.org/2000/svg">
<path d="M27.5279 33.4561L20.9988 23.9121H24.0164L29.6128 32.0926H37.5135L43.11 23.9121H46.1277L39.5986 33.4561L46.1277 43H43.11L37.5135 34.8194H29.6128L24.0164 43H20.9988L27.5279 33.4561ZM55.8275 34.8194C55.096 34.8194 54.346 34.7286 53.5779 34.5468C52.8281 34.3468 52.1422 34.0378 51.5205 33.6197C50.9169 33.1834 50.4139 32.6289 50.0115 31.9563C49.6276 31.2837 49.4354 30.4565 49.4354 29.4749C49.4354 28.4932 49.6276 27.657 50.0115 26.9662C50.4139 26.2572 50.9169 25.6846 51.5205 25.2483C52.1422 24.7938 52.8281 24.4575 53.5779 24.2393C54.346 24.0212 55.096 23.9121 55.8275 23.9121H72.1502V26.639H55.8275C55.4068 26.639 54.9861 26.7026 54.5655 26.8298C54.1448 26.9389 53.7699 27.1116 53.4408 27.3479C53.1115 27.5843 52.8372 27.8842 52.6177 28.2478C52.4165 28.5932 52.3161 29.0022 52.3161 29.4749C52.3161 29.9475 52.4165 30.3565 52.6177 30.702C52.8372 31.0292 53.1115 31.3019 53.4408 31.52C53.7882 31.72 54.1723 31.8654 54.593 31.9563C55.0136 32.0472 55.4251 32.0926 55.8275 32.0926H65.7583C66.4898 32.0926 67.2306 32.1926 67.9804 32.3926C68.7486 32.5744 69.4343 32.8834 70.0379 33.3197C70.6596 33.7378 71.1626 34.2832 71.5468 34.9558C71.949 35.6284 72.1502 36.4555 72.1502 37.4373C72.1502 38.4189 71.949 39.2642 71.5468 39.9732C71.1626 40.664 70.6596 41.2366 70.0379 41.6911C69.4343 42.1274 68.7486 42.4547 67.9804 42.6729C67.2306 42.891 66.4898 43 65.7583 43H49.4354V40.2732H65.7583C66.179 40.2732 66.5996 40.2187 67.0201 40.1095C67.4408 39.9823 67.8157 39.8005 68.145 39.5642C68.4741 39.3279 68.7394 39.0371 68.9406 38.6916C69.16 38.3281 69.2697 37.91 69.2697 37.4373C69.2697 36.9647 69.16 36.5647 68.9406 36.2374C68.7394 35.8921 68.4651 35.6194 68.1175 35.4194C67.7884 35.2194 67.4135 35.0739 66.9928 34.9831C66.5721 34.8923 66.1607 34.8468 65.7583 34.8468L55.8275 34.8194ZM75.4361 23.9121H82.4316V26.639H75.4361V23.9121ZM85.1749 27.3207C85.1749 26.2845 85.4857 25.4573 86.1076 24.8392C86.7293 24.2212 87.5614 23.9121 88.604 23.9121H97.6569V26.639H89.4271C88.9698 26.639 88.604 26.7753 88.3297 27.048C88.0554 27.3207 87.9181 27.6842 87.9181 28.1387V43H85.1749V27.3207ZM123.487 43H120.634L115.558 28.575C115.357 27.9933 115.001 27.5297 114.489 27.1843C113.995 26.8208 113.437 26.639 112.815 26.639H108.344C107.722 26.639 107.155 26.8208 106.643 27.1843C106.149 27.5297 105.801 27.9933 105.6 28.575L100.525 43H97.672L103.268 27.1298C103.598 26.1481 104.174 25.3664 104.997 24.7847C105.838 24.203 106.78 23.9121 107.822 23.9121H113.336C114.379 23.9121 115.311 24.203 116.135 24.7847C116.976 25.3664 117.561 26.1481 117.89 27.1298L123.487 43ZM126.779 23.9121H142.416C143.824 23.9121 144.958 24.0848 145.818 24.4302C146.696 24.7574 147.363 25.1846 147.82 25.7118C148.296 26.2208 148.607 26.7844 148.753 27.4025C148.918 28.0024 149 28.5659 149 29.0931V29.5294C149 30.0202 148.927 30.5474 148.781 31.111C148.653 31.6563 148.397 32.1744 148.012 32.6653C147.647 33.1379 147.125 33.5561 146.449 33.9196C145.79 34.265 144.931 34.5013 143.87 34.6286L149 43H145.928L140.962 34.7105V32.1744H141.84C142.699 32.1744 143.413 32.129 143.98 32.0381C144.565 31.929 145.022 31.7654 145.351 31.5473C145.699 31.3291 145.946 31.0564 146.092 30.7292C146.238 30.3838 146.311 29.9748 146.311 29.5021V29.1204C146.311 28.6477 146.238 28.2478 146.092 27.9206C145.946 27.5752 145.699 27.2934 145.351 27.0753C145.022 26.8571 144.565 26.7026 143.98 26.6117C143.413 26.5026 142.699 26.4481 141.84 26.4481H129.522V43H126.779V23.9121Z" fill="#C1C1BA"/>
</svg>
