<svg width="170" height="66" viewBox="0 0 170 66" fill="none" xmlns="http://www.w3.org/2000/svg">
<g opacity="0.8">
<path d="M57.4536 27.8822C57.8555 27.8822 58.1757 27.9638 58.4143 28.1208C58.6529 28.2778 58.8916 28.5981 59.1365 29L64.0156 37.7974C64.0972 37.8791 64.0972 37.9544 64.0156 38.0361C64.0156 38.1177 63.9339 38.1177 63.777 38.1177H61.9371C61.7801 38.1177 61.6985 38.0361 61.6168 37.9607L60.5682 36.0392H53.6922L52.6498 37.9607C52.5682 38.1177 52.4928 38.1177 52.3295 38.1177H50.408C50.2511 38.1177 50.1694 38.1177 50.1694 38.0361C50.1694 37.9544 50.1694 37.8791 50.1694 37.7974L54.9669 29C55.2055 28.5227 55.4441 28.2778 55.689 28.1208C55.9339 27.9638 56.1663 27.8822 56.4865 27.8822H57.4536ZM54.5713 34.3626H59.6074L57.2903 30.0423C57.2087 29.9607 57.2087 29.9607 57.1333 29.9607H57.0517C56.9701 29.9607 56.8947 29.9607 56.8947 30.0423L54.5713 34.3626Z" fill="#EFEFE5"/>
<path d="M74.6467 27.8822C75.7644 27.8822 76.5682 28.1208 77.0454 28.6797C77.5226 29.1569 77.7675 29.9607 77.7675 30.9215V31.7189C77.7675 32.5981 77.6106 33.2386 77.2903 33.7158C76.9701 34.193 76.4112 34.5133 75.6137 34.6766L78.0941 37.7974C78.1757 37.8791 78.1757 37.9544 78.1757 38.0361C78.1757 38.1177 78.0941 38.193 77.9371 38.193H76.0156C75.8586 38.193 75.777 38.193 75.777 38.1114C75.6953 38.1114 75.6953 38.0298 75.62 37.9544L73.3029 34.9152H68.587V37.8728C68.587 38.1114 68.5054 38.193 68.2668 38.193H66.6655C66.4269 38.193 66.3452 38.1114 66.3452 37.8728V28.3594C66.3452 28.0392 66.5022 27.8822 66.8225 27.8822H74.7409H74.6467ZM68.5682 33.1569H74.1631C74.6404 33.1569 75.0423 33.0753 75.2055 32.8367C75.4441 32.5981 75.5258 32.2778 75.5258 31.8759V31.2354C75.5258 30.7582 75.4441 30.4379 75.2055 30.2747C74.9669 30.0361 74.6467 29.9544 74.1631 29.9544H68.7252C68.5682 29.9544 68.5682 30.0361 68.5682 30.1114V33.1569Z" fill="#EFEFE5"/>
<path d="M90.0815 27.8822C91.1239 27.8822 91.8398 28.1208 92.2416 28.5227C92.6435 28.9246 92.8821 29.5651 92.8821 30.3626V31.0847C92.8821 31.8822 92.5619 32.5227 91.9214 32.9246C92.5619 33.3265 92.9638 33.967 92.9638 34.8461V35.7252C92.9638 36.1271 92.8821 36.4474 92.8068 36.7676C92.7314 37.0879 92.5682 37.3265 92.4049 37.5651C92.1663 37.8037 91.9277 37.967 91.6074 38.0423C91.2872 38.124 90.8853 38.1993 90.408 38.1993H81.6922C81.3719 38.1993 81.215 38.0423 81.215 37.7221V28.3657C81.215 28.0455 81.3719 27.8885 81.6922 27.8885H90.1694H90.0815V27.8822ZM83.4442 32.1208H89.441C89.9183 32.1208 90.2385 32.0392 90.4018 31.8822C90.565 31.7252 90.6404 31.562 90.6404 31.2417V30.7645C90.6404 30.4442 90.5587 30.2056 90.4018 30.124C90.2448 29.967 89.9245 29.8854 89.6043 29.8854H83.6074C83.4504 29.8854 83.4504 29.967 83.4504 30.0423V32.1208H83.4442ZM83.4442 33.7221V35.8822C83.4442 36.0392 83.5258 36.0392 83.6011 36.0392H89.598C89.9999 36.0392 90.2385 35.9576 90.3955 35.8006C90.5525 35.6436 90.6341 35.3987 90.6341 35.1601V34.6012C90.6341 34.281 90.5525 34.0423 90.3955 33.8791C90.2385 33.7158 89.9183 33.6405 89.3531 33.6405H83.3625L83.4442 33.7221Z" fill="#EFEFE5"/>
<path d="M98.3955 27.8822C98.6341 27.8822 98.7157 27.9638 98.7157 28.2025V37.7974C98.7157 38.0361 98.6341 38.1177 98.3955 38.1177H96.7942C96.5556 38.1177 96.474 38.0361 96.474 37.7974V28.2025C96.474 27.9638 96.5556 27.8822 96.7942 27.8822H98.3955Z" fill="#EFEFE5"/>
<path d="M113.83 27.8822C114.069 27.8822 114.151 27.9638 114.151 28.2025V29.6405C114.151 29.8791 114.069 29.9607 113.83 29.9607H109.19V37.7974C109.19 38.0361 109.108 38.1177 108.87 38.1177H107.268C107.03 38.1177 106.948 38.0361 106.948 37.7974V29.9607H102.308C102.069 29.9607 101.987 29.8791 101.987 29.6405V28.2025C101.987 27.9638 102.069 27.8822 102.308 27.8822H113.83Z" fill="#EFEFE5"/>
<path d="M125.428 27.8822C126.546 27.8822 127.35 28.1208 127.827 28.6797C128.304 29.1569 128.549 29.9607 128.549 30.9215V31.7189C128.549 32.5981 128.392 33.2386 128.072 33.7158C127.752 34.193 127.193 34.5133 126.395 34.6766L128.876 37.7974C128.957 37.8791 128.957 37.9544 128.957 38.0361C128.957 38.1177 128.876 38.193 128.719 38.193H126.797C126.64 38.193 126.559 38.193 126.559 38.1114C126.477 38.1114 126.477 38.0298 126.402 37.9544L124.085 34.9152H119.369V37.8728C119.369 38.1114 119.287 38.193 119.049 38.193H117.447C117.209 38.193 117.127 38.1114 117.127 37.8728V28.3594C117.127 28.0392 117.284 27.8822 117.604 27.8822H125.523H125.428ZM119.35 33.1569H124.945C125.422 33.1569 125.824 33.0753 125.987 32.8367C126.226 32.5981 126.308 32.2778 126.308 31.8759V31.2354C126.308 30.7582 126.226 30.4379 125.987 30.2747C125.749 30.0361 125.428 29.9544 124.945 29.9544H119.507C119.35 29.9544 119.35 30.0361 119.35 30.1114V33.1569Z" fill="#EFEFE5"/>
<path d="M133.667 27.8822C133.906 27.8822 133.987 27.9638 133.987 28.2025V34.0423C133.987 34.4442 133.987 34.7645 134.069 35.0031C134.151 35.2417 134.226 35.4803 134.389 35.6436C134.552 35.8069 134.709 35.8822 134.948 35.9638C135.187 36.0455 135.507 36.0455 135.909 36.0455H139.99C140.392 36.0455 140.713 36.0455 140.951 35.9638C141.19 35.8822 141.428 35.8069 141.51 35.6436C141.667 35.4866 141.749 35.2417 141.83 35.0031C141.912 34.7645 141.912 34.4442 141.912 34.0423V28.2025C141.912 27.9638 141.994 27.8822 142.232 27.8822H143.833C144.072 27.8822 144.154 27.9638 144.154 28.2025V34.281C144.154 35.0031 144.072 35.562 143.915 36.0392C143.758 36.5164 143.513 36.9183 143.193 37.2386C142.873 37.5588 142.471 37.7974 141.912 37.8791C141.353 38.0361 140.794 38.1177 139.99 38.1177H135.752C135.03 38.1177 134.389 38.0361 133.83 37.8791C133.353 37.7221 132.87 37.4772 132.549 37.2386C132.229 36.9183 131.99 36.5164 131.827 36.0392C131.67 35.562 131.589 34.9215 131.589 34.281V28.2025C131.589 27.9638 131.67 27.8822 131.909 27.8822H133.667Z" fill="#EFEFE5"/>
<path d="M150.458 27.8822C150.697 27.8822 150.86 27.8822 151.017 27.9638C151.174 27.9638 151.337 28.0455 151.419 28.1208C151.501 28.2025 151.658 28.2778 151.739 28.4411C151.821 28.5981 151.896 28.7613 152.06 29L155.099 36.0392C155.18 36.1208 155.18 36.1962 155.337 36.1962H155.494C155.576 36.1962 155.651 36.1145 155.733 36.0392L158.772 29C158.854 28.7613 158.929 28.5981 159.092 28.4411C159.174 28.2841 159.249 28.2025 159.413 28.1208C159.494 28.0392 159.651 27.9638 159.815 27.9638C159.978 27.9638 160.135 27.8822 160.374 27.8822H161.975C162.452 27.8822 162.854 27.9638 163.017 28.2025C163.174 28.4411 163.256 28.843 163.256 29.4018V37.7974C163.256 38.0361 163.174 38.1177 162.936 38.1177H161.416C161.177 38.1177 161.096 38.0361 161.096 37.7974V30.124C161.096 30.0423 161.014 29.967 161.014 29.967H160.857C160.775 29.967 160.7 30.0486 160.7 30.0486L157.742 36.6043C157.661 36.843 157.504 37.0816 157.341 37.2448C157.177 37.4081 157.102 37.5651 156.939 37.7221C156.782 37.8037 156.618 37.9607 156.461 37.9607C156.304 38.0423 156.06 38.0423 155.821 38.0423H155.099C154.86 38.0423 154.622 38.0423 154.458 37.9607C154.295 37.8791 154.138 37.8037 153.981 37.7221C153.824 37.6405 153.742 37.4835 153.579 37.2448C153.422 37.0879 153.341 36.843 153.177 36.6043L150.22 30.0486C150.22 29.967 150.138 29.967 150.063 29.967H149.906C149.824 29.967 149.824 30.0486 149.824 30.124V37.8037C149.824 38.0423 149.742 38.124 149.504 38.124H147.978C147.739 38.124 147.658 38.0423 147.658 37.8037V29.4018C147.658 28.843 147.739 28.4411 147.896 28.2025C148.053 27.9638 148.455 27.8822 148.939 27.8822H150.54H150.458Z" fill="#EFEFE5"/>
<path fill-rule="evenodd" clip-rule="evenodd" d="M24.1249 13C23.5894 13 23.0538 13.1391 22.5768 13.4091L7.54795 21.8934C6.594 22.4334 5.99988 23.4316 5.99988 24.5116V41.4803C5.99988 42.5603 6.594 43.5666 7.54795 44.1066L22.5768 52.5909C23.0538 52.8609 23.5894 53 24.1249 53C24.6604 53 25.196 52.8609 25.673 52.5909L40.7018 44.1066C41.6641 43.5666 42.2499 42.5684 42.2499 41.4803V24.5116C42.2499 23.4316 41.6558 22.4252 40.7018 21.8853L25.6814 13.4091C25.196 13.1391 24.6604 13 24.1249 13ZM24.1249 15.479C24.2253 15.479 24.3174 15.5036 24.4094 15.5527L39.4383 24.037C39.614 24.1352 39.7228 24.3152 39.7228 24.5116V41.4803C39.7228 41.6766 39.614 41.8566 39.4383 41.9548L37.1504 43.2476L31.1288 27.1051C31.02 26.8106 30.6016 26.8106 30.4929 27.1051L28.5096 32.415C28.451 32.5624 28.451 32.726 28.5096 32.8732L33.2096 45.4745L31.6457 46.3582L27.7988 36.0395C27.6899 35.745 27.2715 35.745 27.1628 36.0395L25.1795 41.3494C25.121 41.4966 25.121 41.6603 25.1795 41.8075L27.7052 48.585L24.4094 50.4474C24.3258 50.4964 24.2253 50.521 24.1249 50.521C24.0245 50.521 23.9324 50.4964 23.8404 50.4474L20.5768 48.6039L29.8474 23.7503C29.931 23.5294 29.7638 23.3003 29.5294 23.3003H25.722C25.4375 23.3003 25.178 23.4721 25.086 23.7339L17.0251 45.3353L15.5739 44.1558L23.1873 23.7421C23.2625 23.5294 23.1035 23.3003 22.8609 23.3003H19.0535C18.769 23.3003 18.5095 23.4721 18.4175 23.7339L11.1306 43.2682L8.81988 41.963C8.64415 41.8647 8.53537 41.6848 8.53537 41.4885V24.5116C8.53537 24.3152 8.64415 24.1352 8.81988 24.037L23.8488 15.5527C23.9324 15.5036 24.0329 15.479 24.1249 15.479Z" fill="#EFEFE5"/>
</g>
</svg>
