<svg width="170" height="66" viewBox="0 0 170 66" fill="none" xmlns="http://www.w3.org/2000/svg">
<g opacity="0.8">
<path fill-rule="evenodd" clip-rule="evenodd" d="M84.3554 18.1993L86.6965 11.19C86.9939 10.2813 87.9602 9.74358 88.852 10.0217C89.7812 10.2628 90.3572 11.19 90.1342 12.1171L88.499 19.349C94.0921 21.2219 97.9571 23.9293 97.4739 25.8021C96.8979 27.9345 90.896 28.1756 84.0581 26.3398C77.22 24.5227 72.1472 21.2961 72.7233 19.1636C72.779 18.9782 72.8905 18.7742 73.0205 18.6258C73.7082 17.6987 76.4582 15.6589 82.7201 16.0298C81.4381 16.0483 79.9701 16.6602 78.9666 17.4391C80.5648 17.5132 82.4229 17.7914 84.3554 18.1993ZM84.4669 21.1477L87.6814 11.5237C87.7929 11.1714 88.146 10.9489 88.499 11.0045L85.656 21.6299C85.1172 21.5001 84.7084 21.3146 84.4669 21.1477Z" fill="#EFEFE5"/>
<path d="M71.4046 25.9121C84.3001 31.4195 94.4457 29.7876 97.4373 27.2286C97.0471 27.989 96.5453 28.916 96.1366 29.6764C95.5977 30.6591 94.743 31.4009 93.7024 31.8275C93.368 31.9572 92.9592 32.1613 92.5504 32.3095C89.6887 33.3665 86.3627 33.8115 82.5906 33.348C82.5906 33.348 84.3559 34.201 87.5334 34.4976C85.4894 35.4063 83.3896 36.3519 81.7545 37.1123C81.5315 37.2235 81.29 37.2235 81.067 37.1679C80.844 37.1123 80.6396 36.9825 80.5281 36.7785C78.9487 34.5161 76.6074 31.4009 74.7492 28.9902C73.0397 27.9518 71.3488 26.6539 70.2524 25.3928C70.6241 25.5598 70.9772 25.7267 71.4046 25.9121Z" fill="#EFEFE5"/>
<path d="M54.265 56.0525C53.3265 56.0525 52.4468 55.9106 51.6256 55.6123C50.7752 55.314 50.086 54.9163 49.5288 54.3906L51.2444 52.4304C52.0362 53.155 53.1213 53.4958 54.4703 53.4958C55.0568 53.4958 55.5407 53.3963 55.9072 53.2117C56.2738 53.0129 56.4644 52.7572 56.4644 52.4447C56.4644 51.9475 55.9072 51.6493 54.7635 51.5498C53.4439 51.422 52.4761 51.1095 51.8456 50.6266C51.2297 50.1436 50.9365 49.4476 50.9365 48.5386C50.9365 47.4874 51.4057 46.6209 52.3588 45.9392C53.3119 45.2432 54.5143 44.9022 55.9659 44.9022C57.5788 44.9022 58.8838 45.3142 59.8809 46.138L58.2826 47.9988C57.6228 47.5158 56.7577 47.2885 55.658 47.2885C55.1008 47.2885 54.6755 47.3738 54.353 47.5584C54.0304 47.7289 53.8544 47.9561 53.8544 48.226C53.8544 48.7516 54.4263 49.0641 55.57 49.1635C56.8017 49.2771 57.7548 49.5896 58.4 50.1011C59.0598 50.6123 59.397 51.2799 59.397 52.118C59.397 53.2828 58.9278 54.2203 57.9894 54.9447C57.0656 55.7117 55.8193 56.0525 54.265 56.0525Z" fill="#EFEFE5"/>
<path d="M66.9924 45.2009C68.1215 45.2009 69.0453 45.4992 69.7051 46.0958C70.365 46.6924 70.7023 47.4878 70.7023 48.5105C70.7023 49.8314 70.233 50.8826 69.28 51.7065C68.3415 52.5161 67.1098 52.928 65.5848 52.928H63.3414L62.8282 55.8114H59.8076L61.7284 45.2151H66.9924V45.2009ZM66.0541 50.428C66.5086 50.428 66.9045 50.2861 67.2271 49.9735C67.5496 49.6752 67.7256 49.2775 67.7256 48.8088C67.7256 48.4678 67.623 48.1981 67.403 47.9992C67.183 47.8003 66.8898 47.7009 66.5232 47.7009H64.2505L63.752 50.428H66.0541Z" fill="#EFEFE5"/>
<path d="M70.3509 55.7973L72.2717 45.2009H75.2776L73.3568 55.7973H70.3509Z" fill="#EFEFE5"/>
<path d="M83.9722 45.2009H86.9489L85.0279 55.7973H82.418L79.0455 49.8741L78.6349 52.4025L78.0191 55.7973H75.0424L76.9632 45.2009H79.544L82.9312 51.2234L83.3564 48.5958L83.9722 45.2009Z" fill="#EFEFE5"/>
<path d="M97.2719 45.2009L96.8173 47.7009H93.5767L92.1251 55.7973H89.1045L90.5562 47.7009H87.3303L87.7849 45.2009H97.2719Z" fill="#EFEFE5"/>
<path d="M101.539 56.0517C99.735 56.0517 98.3714 55.5262 97.4036 54.4751C96.4506 53.424 96.1133 52.0745 96.4212 50.4269C96.7438 48.6797 97.5063 47.3161 98.7086 46.3645C99.911 45.3986 101.451 44.9157 103.298 44.9157C105.116 44.9157 106.495 45.4412 107.448 46.4923C108.401 47.5292 108.738 48.8786 108.43 50.5405C108.108 52.2877 107.345 53.6513 106.128 54.6029C104.926 55.5831 103.401 56.0517 101.539 56.0517ZM101.832 53.5376C102.77 53.5376 103.562 53.2536 104.207 52.6995C104.867 52.1456 105.278 51.3785 105.468 50.4269C105.644 49.5178 105.498 48.7934 105.043 48.2536C104.603 47.7138 103.914 47.4298 102.99 47.4298C102.052 47.4298 101.275 47.7139 100.615 48.282C99.955 48.8361 99.5444 49.5746 99.3831 50.5405C99.2071 51.4496 99.3537 52.174 99.7937 52.7138C100.248 53.2819 100.923 53.5376 101.832 53.5376Z" fill="#EFEFE5"/>
<path d="M115.762 45.2009C116.891 45.2009 117.815 45.4992 118.474 46.0958C119.134 46.6924 119.471 47.4878 119.471 48.5105C119.471 49.8314 119.002 50.8826 118.049 51.7065C117.111 52.5161 115.879 52.928 114.354 52.928H112.111L111.597 55.8114H108.577L110.498 45.2151H115.762V45.2009ZM114.838 50.428C115.293 50.428 115.689 50.2861 116.011 49.9735C116.334 49.6752 116.51 49.2775 116.51 48.8088C116.51 48.4678 116.407 48.1981 116.187 47.9992C115.967 47.8003 115.674 47.7009 115.307 47.7009H113.049L112.551 50.428H114.838Z" fill="#EFEFE5"/>
</g>
</svg>
