<svg width="170" height="66" viewBox="0 0 170 66" fill="none" xmlns="http://www.w3.org/2000/svg">
<path opacity="0.8" fill-rule="evenodd" clip-rule="evenodd" d="M26.2202 19.1372C24.1641 19.4522 22.0781 20.2751 20.2311 21.4995C19.1415 22.2219 17.6637 23.624 16.8193 24.7365C15.9877 25.8322 14.8724 28.054 14.5 29.3566C14.1502 30.58 13.9974 33.2095 14.2155 34.2525C14.4646 35.4444 14.9823 36.4004 15.8464 37.2642C16.8706 38.2879 17.8957 39.0416 19.2126 39.7393C21.1707 40.7766 23.7465 41.5938 23.7465 41.178C23.7465 41.1184 23.5448 40.9516 23.2983 40.807C22.3601 40.2572 21.1167 39.147 20.5765 38.3767C19.8789 37.3822 19.2718 36.0934 18.9939 35.0166C18.752 34.0799 18.7159 32.1623 18.9194 31.0648C19.2319 29.3791 20.828 26.95 22.3987 25.7692C23.399 25.0173 24.7576 24.3133 25.7463 24.0345C26.1955 23.9078 27.1329 23.8401 28.4356 23.8401C29.98 23.8401 30.6206 23.8973 31.2486 24.0912C32.2948 24.4142 33.8142 25.1316 33.8142 25.3026C33.8142 25.3755 33.7045 25.4795 33.5704 25.5339C33.4362 25.5884 32.7544 25.9743 32.0551 26.3915C30.8652 27.1015 30.5323 27.4665 31.1398 27.3952C32.2128 27.2692 35.9287 26.5821 37.0552 26.3014C37.8137 26.1125 38.7961 25.8688 39.2381 25.76C40.2929 25.5004 40.572 25.3392 40.572 24.9897C40.572 24.3444 37.4141 21.7885 35.2957 20.7191C34.1287 20.1299 32.4821 19.5452 31.3103 19.3034C29.8298 18.9981 27.6026 18.9254 26.2202 19.1372ZM55.8408 19.0852C53.8985 19.3921 51.8008 20.2658 49.8823 21.5673C47.3807 23.2643 45.7722 25.0082 42.5075 29.5635C41.5017 30.9668 40.4502 32.4252 40.1707 32.8045C37.3481 36.6346 36.2114 38.0701 35.2565 39.0106C34.1216 40.1281 32.8761 40.9596 31.4798 41.5318C31.0575 41.7048 30.0911 41.975 29.3325 42.1322C28.1875 42.3695 27.6765 42.4031 26.3273 42.3306C24.4084 42.2274 22.6323 41.8837 20.9193 41.2838C19.0327 40.6233 17.4643 39.6847 15.7499 38.1903C15.2581 37.7615 14.8337 37.4768 14.8069 37.5575C14.7317 37.7829 15.5364 39.4147 16.2629 40.5101C16.6215 41.0507 17.4079 42.0076 18.0106 42.6365C19.6709 44.3691 21.4737 45.4913 23.8845 46.2928C26.4763 47.1546 28.9271 47.2268 31.6076 46.5201C36.1053 45.3342 39.4192 42.4762 44.0728 35.7696C48.5175 29.3642 49.5904 28.0095 51.4749 26.4243C52.7088 25.3861 54.5191 24.4199 55.9805 24.0192C56.8601 23.7782 57.4366 23.7253 59.1903 23.7252C60.8512 23.7251 61.6204 23.7895 62.6389 24.0138C64.5008 24.424 66.4291 25.146 67.7476 25.9263C68.3721 26.2959 69.3992 27.0482 70.0302 27.5982C70.661 28.1482 71.2109 28.5981 71.252 28.5981C71.6414 28.5981 70.4547 26.1868 69.3537 24.7408C67.9629 22.9143 65.7015 21.0997 63.6702 20.1805C63.1405 19.9408 62.1175 19.5907 61.3969 19.4024C60.4372 19.1516 59.6256 19.0465 58.3629 19.0097C57.4147 18.9819 56.2798 19.016 55.8408 19.0852ZM62.5003 24.8713C62.5003 24.9453 62.671 25.1161 62.8795 25.2505C64.325 26.1825 65.9913 28.1244 66.636 29.6284C66.9972 30.4714 67.3272 32.1386 67.3272 33.1214C67.3272 35.0305 66.2697 37.5575 64.7979 39.1654C63.7626 40.2965 62.176 41.3351 60.7763 41.7984C59.8188 42.1151 59.4362 42.1644 57.8802 42.1713C56.5123 42.1773 55.8748 42.1175 55.1908 41.9188C53.9036 41.5447 52.288 40.8567 52.3733 40.7189C52.4133 40.6542 53.0944 40.2223 53.8869 39.759C54.6795 39.2958 55.3627 38.8604 55.4054 38.7913C55.5376 38.5774 54.2755 38.6525 52.8038 38.9463C50.8417 39.338 47.2713 40.1648 46.3644 40.4374C45.2495 40.7727 45.2784 41.0098 46.598 42.3529C49.373 45.177 52.5178 46.6621 56.2667 46.9189C59.7705 47.1588 63.1003 46.3603 65.6978 44.6573C66.9398 43.8429 68.9972 41.799 69.7853 40.5966C70.1085 40.1035 70.5859 39.2555 70.846 38.7121C71.5817 37.1758 71.8807 35.9194 71.9731 33.9752C72.0388 32.5911 72.0095 32.0934 71.8254 31.4599C71.5337 30.4566 70.8224 29.2529 70.0596 28.4718C69.2371 27.6295 67.9885 26.7273 66.8523 26.1544C65.8158 25.6317 63.2482 24.7365 62.7856 24.7365C62.6287 24.7365 62.5003 24.7972 62.5003 24.8713ZM95.3386 27.2303C94.2988 27.4344 93.0189 28.1267 92.239 28.9065C91.8015 29.3439 91.3163 30.0281 91.0366 30.6017C90.5943 31.509 90.5679 31.6453 90.5668 33.0185C90.5657 34.4243 90.5833 34.5095 91.085 35.5245C92.0198 37.4159 93.6846 38.5538 95.8836 38.8047C96.5166 38.8768 97.2858 38.9007 97.5928 38.8576C99.1327 38.6415 100.62 37.9132 101.524 36.9321C101.844 36.5854 102.299 35.8883 102.535 35.383C102.886 34.6336 102.976 34.2433 103.022 33.2662C103.093 31.7911 102.834 30.8655 102.027 29.708C101.373 28.7709 100.688 28.1886 99.6867 27.72C98.4049 27.1201 96.8129 26.9406 95.3386 27.2303ZM109.322 27.222C108.415 27.404 107.277 27.8798 106.655 28.338C106.042 28.7883 105.203 29.9331 104.795 30.8737C104.161 32.3351 104.264 34.1235 105.068 35.6547C105.97 37.3705 107.609 38.4985 109.657 38.8132C110.221 38.8997 110.996 38.9295 111.381 38.8793C112.254 38.7655 113.326 38.4511 113.891 38.1427C114.481 37.8212 115.366 36.9984 115.87 36.3025C116.482 35.4581 116.995 33.7203 117.011 32.4353C117.022 31.507 116.969 31.2658 116.581 30.4759C115.856 29.0045 114.226 27.7667 112.356 27.2682C111.605 27.0681 110.196 27.0466 109.322 27.222ZM132.974 27.219L132.491 27.2879L132.406 31.4943C132.324 35.5085 132.367 38.464 132.51 38.696C132.547 38.7553 134.578 38.8037 137.024 38.8037C140.541 38.8037 141.525 38.7647 141.727 38.6175C141.904 38.4876 142.001 38.1977 142.045 37.6585C142.081 37.2334 142.07 36.7277 142.021 36.5345L141.933 36.1833L139.212 36.1814C137.715 36.1804 136.351 36.1421 136.181 36.0965C135.909 36.0235 135.87 35.9235 135.87 35.2877C135.87 34.854 135.944 34.5012 136.053 34.4106C136.166 34.3164 137.17 34.2448 138.708 34.2214L141.18 34.1836L141.257 33.2182C141.3 32.6872 141.287 32.1145 141.228 31.9455C141.122 31.6445 141.069 31.6376 138.53 31.6007L135.939 31.5632L135.899 30.7137L135.858 29.864L138.67 29.8172C140.878 29.7804 141.535 29.7272 141.725 29.5696C141.922 29.405 141.957 29.1991 141.914 28.4343C141.885 27.9204 141.782 27.4211 141.685 27.3249C141.551 27.1917 140.551 27.15 137.483 27.15C135.269 27.15 133.24 27.181 132.974 27.219ZM145.8 27.219L144.49 27.2879V33.0113V38.7347L147.455 38.7244C150.718 38.7129 151.757 38.5546 152.996 37.8806C153.878 37.4006 154.836 36.3608 155.27 35.4128C155.695 34.4849 155.839 32.8871 155.6 31.7399C155.351 30.5392 154.713 29.3947 153.86 28.6152C152.779 27.627 151.95 27.3525 149.662 27.2248C148.638 27.1677 147.645 27.1274 147.455 27.1354C147.265 27.1434 146.521 27.181 145.8 27.219ZM77.4818 27.5293C77.4362 27.7 77.3978 30.2423 77.3969 33.1789C77.3951 38.3176 77.405 38.5236 77.6616 38.661C77.8084 38.7394 78.5444 38.8037 79.2974 38.8037H80.6664L80.7664 36.7027C80.8212 35.5473 80.8957 34.5543 80.9316 34.4961C81.0161 34.3594 84.5837 34.3618 84.7991 34.4987C84.9101 34.5693 84.9766 35.2673 85.006 36.6688L85.0491 38.7347L85.8766 38.779C86.3317 38.8033 87.0264 38.7837 87.4204 38.7356C88.0733 38.6556 88.1493 38.609 88.2795 38.2086C88.3702 37.9296 88.4108 35.8566 88.3908 32.5286L88.359 27.2879L86.7386 27.249L85.1181 27.2103L85.096 28.1455C85.0298 30.9498 85.0025 31.4843 84.9184 31.6206C84.8589 31.7169 84.1159 31.7701 82.8344 31.7701H80.8428L80.8222 31.184C80.8109 30.8615 80.7906 29.9152 80.7773 29.0808C80.7637 28.2464 80.7419 27.4862 80.7288 27.3913C80.7112 27.2649 80.2861 27.219 79.135 27.219C77.6234 27.219 77.5619 27.2305 77.4818 27.5293ZM119.108 27.3915C119.071 27.4865 119.058 30.0775 119.078 33.1494L119.114 38.7347L120.629 38.7742C121.934 38.8083 122.168 38.7807 122.318 38.5755C122.421 38.4348 122.493 37.9227 122.493 37.3249C122.493 36.768 122.578 36.1127 122.683 35.8686C122.787 35.6245 123.058 35.2504 123.285 35.0371C123.66 34.6845 123.717 34.6692 123.915 34.8667C124.034 34.9861 124.659 35.8812 125.303 36.8558C126.312 38.3818 126.536 38.6401 126.915 38.7158C127.156 38.7641 128.029 38.8037 128.854 38.8037C130.119 38.8037 130.354 38.7702 130.354 38.589C130.354 38.3786 129.454 36.9274 127.287 33.6456C126.692 32.7428 126.222 31.9262 126.245 31.8308C126.267 31.7355 126.854 31.0436 127.549 30.2932C128.854 28.8837 130.078 27.4342 130.078 27.2972C130.078 27.2541 129.275 27.219 128.293 27.219H126.507L125.791 27.943C125.397 28.3412 124.549 29.2721 123.907 30.0117C123.265 30.7513 122.684 31.3564 122.616 31.3564C122.548 31.3564 122.493 30.6194 122.493 29.7186C122.493 28.8179 122.454 27.887 122.406 27.6499L122.32 27.219H120.747C119.615 27.219 119.156 27.2674 119.108 27.3915ZM98.0802 30.1844C98.4671 30.3857 98.8661 30.8058 99.2586 31.4253C99.4589 31.7413 99.5216 32.0997 99.5244 32.9424C99.527 33.7385 99.4608 34.1694 99.2862 34.4899C99.0061 35.0046 98.5979 35.42 98.013 35.7857C97.4598 36.1315 96.3056 36.1302 95.6285 35.783C94.5886 35.2498 93.9445 34.1556 93.9445 32.9225C93.9445 31.5467 94.6737 30.51 95.9785 30.0307C96.5511 29.8203 97.5165 29.8909 98.0802 30.1844ZM150.079 29.991C150.892 30.1652 151.674 30.774 151.958 31.4532C152.062 31.7028 152.144 32.3893 152.144 33.0124C152.144 34.2127 151.913 34.8754 151.295 35.4501C150.797 35.9141 150.297 36.0454 149.029 36.0454H147.863L147.9 33.0519L147.938 30.0585L148.282 29.9626C148.808 29.8166 149.302 29.8244 150.079 29.991ZM112.075 30.2914C113.674 31.1968 113.99 33.8523 112.663 35.2159C112.108 35.7859 111.502 36.0463 110.74 36.0424C109.061 36.0338 107.751 34.4888 107.9 32.6922C107.985 31.6737 108.386 30.9603 109.175 30.4254C109.744 30.0392 109.953 29.9775 110.682 29.9794C111.302 29.9811 111.675 30.0647 112.075 30.2914Z" fill="#EFEFE5"/>
</svg>
