<svg width="170" height="66" viewBox="0 0 170 66" fill="none" xmlns="http://www.w3.org/2000/svg">
<g opacity="0.8">
<path d="M37.0665 19.024C36.8275 19.0563 36.4269 19.1339 35.5805 19.3148C34.2173 19.599 32.9833 20.1417 32.3695 20.7168L32.0594 21.0075V26.4087C32.0594 30.5307 32.0788 31.8357 32.1369 31.8939C32.2532 32.0102 45.9048 32.0037 45.9953 31.8874C46.2343 31.5967 46.5251 30.0138 46.5315 29.0318C46.5315 28.3469 46.4282 27.0806 46.3377 26.6865C46.1568 25.9241 46.118 25.7691 45.9694 25.3491C45.7562 24.7289 45.1489 23.4949 44.8323 23.0233C43.5208 21.0786 41.6472 19.7218 39.5216 19.1791C39.0177 19.0499 37.5446 18.953 37.0665 19.024Z" fill="#EFEFE5"/>
<path d="M22.2067 20.5295C22.1034 20.5618 21.8514 20.6199 21.6576 20.6587C20.4171 20.9365 18.9699 21.8346 17.878 23.004C17.0252 23.9279 16.4566 25.0262 16.1142 26.4476C15.9721 27.029 15.9592 29.2515 16.0948 29.9364C16.2564 30.7763 16.5213 31.7325 16.6375 31.8875C16.6892 31.9521 17.9749 31.9715 22.6977 31.9715H28.6998L28.7644 31.8035C28.8032 31.7066 28.829 30.0527 28.829 27.5588C28.829 23.7146 28.8226 23.4627 28.7127 23.2818C28.5706 23.0556 27.7307 22.332 26.9877 21.7958C26.4644 21.4146 25.211 20.775 24.8556 20.7039C23.6862 20.4713 22.7042 20.4067 22.2067 20.5295Z" fill="#EFEFE5"/>
<path d="M32.1628 34.3362C32.1434 34.3943 32.124 37.2435 32.124 40.6677C32.124 46.631 32.1305 46.8959 32.2403 46.8959C32.3695 46.8959 34.5403 45.4551 34.7729 45.2161C34.7923 45.1967 34.9797 45.0546 35.1929 44.8931C38.6365 42.341 42.3062 38.4129 43.65 35.848C43.9278 35.3311 44.2767 34.362 44.2315 34.2845C44.2121 34.2522 41.4986 34.2328 38.1971 34.2328C32.7895 34.2328 32.2015 34.2457 32.1628 34.3362Z" fill="#EFEFE5"/>
<path d="M16.0755 34.349C16.0044 34.4718 17.3547 36.6232 18.1623 37.6569C19.8679 39.8536 22.4135 42.4314 24.791 44.3826C25.8635 45.2613 28.1119 46.8635 28.4672 46.9992C28.5318 47.0251 28.5577 46.4242 28.5964 43.9756C28.661 39.6662 28.6417 34.5622 28.5641 34.4136C28.506 34.3038 28.2476 34.2973 22.3036 34.2973C18.8988 34.2973 16.0948 34.3232 16.0755 34.349Z" fill="#EFEFE5"/>
<path d="M55.1459 39.3356V26.8056H58.1744V36.8761H63.3871V39.3356H55.1459Z" fill="#EFEFE5"/>
<path d="M76.2933 33.0706C76.2933 34.4492 76.0282 35.6178 75.498 36.5763C74.9677 37.5348 74.2499 38.2629 73.3444 38.7605C72.443 39.2581 71.4314 39.5069 70.3098 39.5069C69.184 39.5069 68.1704 39.2561 67.269 38.7544C66.3676 38.2527 65.6518 37.5246 65.1216 36.5702C64.5954 35.6117 64.3323 34.4452 64.3323 33.0706C64.3323 31.692 64.5954 30.5234 65.1216 29.5649C65.6518 28.6064 66.3676 27.8783 67.269 27.3807C68.1704 26.8831 69.184 26.6343 70.3098 26.6343C71.4314 26.6343 72.443 26.8831 73.3444 27.3807C74.2499 27.8783 74.9677 28.6064 75.498 29.5649C76.0282 30.5234 76.2933 31.692 76.2933 33.0706ZM73.1975 33.0706C73.1975 32.2549 73.0813 31.5655 72.8488 31.0027C72.6204 30.4398 72.29 30.0136 71.8577 29.724C71.4294 29.4344 70.9134 29.2896 70.3098 29.2896C69.7102 29.2896 69.1942 29.4344 68.7619 29.724C68.3295 30.0136 67.9971 30.4398 67.7646 31.0027C67.5362 31.5655 67.422 32.2549 67.422 33.0706C67.422 33.8864 67.5362 34.5757 67.7646 35.1385C67.9971 35.7014 68.3295 36.1276 68.7619 36.4172C69.1942 36.7068 69.7102 36.8516 70.3098 36.8516C70.9134 36.8516 71.4294 36.7068 71.8577 36.4172C72.29 36.1276 72.6204 35.7014 72.8488 35.1385C73.0813 34.5757 73.1975 33.8864 73.1975 33.0706Z" fill="#EFEFE5"/>
<path d="M80.1661 26.8056L82.9682 35.9828H83.0722L85.8744 26.8056H89.2638L85.0362 39.3356H81.0043L76.7767 26.8056H80.1661Z" fill="#EFEFE5"/>
<path d="M90.6129 39.3356V26.8056H99.3496V29.2651H93.6413V31.8347H98.903V34.3004H93.6413V36.8761H99.3496V39.3356H90.6129Z" fill="#EFEFE5"/>
<path d="M101.246 39.3356V26.8056H104.275V36.8761H109.487V39.3356H101.246Z" fill="#EFEFE5"/>
<path d="M108.496 26.8056H111.88L114.529 32.0489H114.639L117.288 26.8056H120.671L116.089 35.1508V39.3356H113.079V35.1508L108.496 26.8056Z" fill="#EFEFE5"/>
<path d="M128.671 26.8056V39.3356H125.642V26.8056H128.671Z" fill="#EFEFE5"/>
<path d="M141.236 26.8056V39.3356H138.666L133.68 32.1039H133.601V39.3356H130.572V26.8056H133.178L138.11 34.025H138.214V26.8056H141.236Z" fill="#EFEFE5"/>
<path d="M150.721 26.8056H153.743V34.8877C153.743 35.8217 153.521 36.6355 153.076 37.3288C152.632 38.0182 152.012 38.5525 151.216 38.9318C150.421 39.307 149.497 39.4947 148.445 39.4947C147.38 39.4947 146.45 39.307 145.655 38.9318C144.859 38.5525 144.242 38.0182 143.801 37.3288C143.361 36.6355 143.14 35.8217 143.14 34.8877V26.8056H146.169V34.6246C146.169 35.057 146.263 35.4424 146.45 35.781C146.642 36.1195 146.909 36.3846 147.252 36.5763C147.594 36.768 147.992 36.8639 148.445 36.8639C148.897 36.8639 149.293 36.768 149.632 36.5763C149.974 36.3846 150.241 36.1195 150.433 35.781C150.625 35.4424 150.721 35.057 150.721 34.6246V26.8056Z" fill="#EFEFE5"/>
</g>
</svg>
