<svg width="170" height="66" viewBox="0 0 170 66" fill="none" xmlns="http://www.w3.org/2000/svg">
<g opacity="0.8">
<path d="M69.2407 24.9382C66.7932 24.9382 64.9071 26.3395 64.9071 28.4198C64.9071 30.4423 66.5053 31.1357 68.492 31.5113L70.9971 31.9159C74.3228 32.4648 76.6119 33.9961 76.6119 37.6365C76.6119 41.436 73.5022 43.6606 69.543 43.6606C65.9726 43.6606 62.6037 41.5515 62.1141 37.4199C62.071 37.0732 62.3444 36.7697 62.69 36.7697H64.1873C64.4753 36.7697 64.72 36.9866 64.7632 37.2755C65.0799 40.1937 67.3402 41.3492 69.5574 41.3492C71.9762 41.3492 73.891 40.1503 73.891 37.7233C73.891 35.5563 72.3504 34.8051 70.306 34.4151L67.8298 33.9816C64.3601 33.4037 62.1862 31.7281 62.1862 28.5498C62.1862 24.866 65.3823 22.6124 69.2262 22.6124C72.2928 22.6124 75.6761 24.3459 76.3385 28.4631C76.3961 28.8098 76.1225 29.1421 75.7626 29.1421H74.2077C73.9341 29.1421 73.6893 28.9399 73.6461 28.6654C73.1999 25.935 71.2131 24.9382 69.2407 24.9382Z" fill="#EFEFE5"/>
<path d="M86.5741 27.1928C90.2743 27.1928 92.9089 29.172 93.8447 32.408C93.9455 32.7691 93.6719 33.1448 93.2831 33.1448H91.5411C91.2963 33.1448 91.0805 32.9859 90.994 32.7547C90.3462 30.9055 88.8489 29.851 86.5741 29.851C83.4788 29.851 81.7511 32.379 81.7511 35.4272C81.7511 38.461 83.4931 41.0035 86.5741 41.0035C88.8489 41.0035 90.3462 39.9489 90.994 38.0998C91.0805 37.8687 91.2963 37.7097 91.5411 37.7097H93.2831C93.6719 37.7097 93.9455 38.0853 93.8303 38.4465C92.8369 41.827 90.2886 43.6618 86.5741 43.6618C81.8087 43.6618 78.7854 39.9634 78.7854 35.4272C78.7709 30.9055 81.8087 27.1928 86.5741 27.1928Z" fill="#EFEFE5"/>
<path d="M96.638 41.032H100.367V30.6306H97.0412C96.7245 30.6306 96.4653 30.3706 96.4653 30.0527V28.5792C96.4653 28.2614 96.7245 28.0014 97.0412 28.0014H101.576C102.526 28.0014 103.304 28.7815 103.304 29.7349V30.1539C104.125 28.1747 105.895 27.6835 108.645 27.6835C109.696 27.6835 110.402 27.8569 110.805 28.0014C111.035 28.088 111.179 28.3047 111.179 28.5359V30.0672C111.179 30.4572 110.805 30.7462 110.43 30.6162C109.941 30.4572 109.25 30.3128 108.343 30.3128C105.406 30.3128 103.318 32.3208 103.318 35.8024V41.032H108.112C108.429 41.032 108.688 41.2921 108.688 41.6099V43.0834C108.688 43.4012 108.429 43.6613 108.112 43.6613H96.6526C96.3357 43.6613 96.0767 43.4012 96.0767 43.0834V41.6099C96.0621 41.2921 96.3214 41.032 96.638 41.032Z" fill="#EFEFE5"/>
<path d="M113.368 35.4272C113.368 30.9055 116.362 27.1928 121.228 27.1928C126.094 27.1928 129.089 30.8911 129.089 35.4272C129.089 39.9634 126.094 43.6618 121.228 43.6618C116.362 43.6618 113.368 39.9634 113.368 35.4272ZM121.228 41.0035C124.352 41.0035 126.152 38.4754 126.152 35.4272C126.152 32.3935 124.352 29.851 121.228 29.851C118.104 29.851 116.304 32.379 116.304 35.4272C116.304 38.4754 118.104 41.0035 121.228 41.0035Z" fill="#EFEFE5"/>
<path d="M140.102 41.1621C140.419 41.1621 140.678 41.422 140.678 41.7399V43.0978C140.678 43.4156 140.419 43.6756 140.102 43.6756H133.35C133.033 43.6756 132.774 43.4156 132.774 43.0978V25.271H130.528C130.212 25.271 129.952 25.011 129.952 24.6931V23.3352C129.952 23.0174 130.212 22.7573 130.528 22.7573H133.854C134.804 22.7573 135.582 23.5374 135.582 24.4909V41.1621H140.102Z" fill="#EFEFE5"/>
<path d="M150.065 41.1621C150.382 41.1621 150.641 41.422 150.641 41.7399V43.0978C150.641 43.4156 150.382 43.6756 150.065 43.6756H143.313C142.996 43.6756 142.737 43.4156 142.737 43.0978V25.271H140.491C140.174 25.271 139.915 25.011 139.915 24.6931V23.3352C139.915 23.0174 140.174 22.7573 140.491 22.7573H143.817C144.767 22.7573 145.544 23.5374 145.544 24.4909V41.1621H150.065Z" fill="#EFEFE5"/>
<path d="M23.8463 28.8685C22.4498 27.5394 21.4708 25.8203 21.4708 23.7834V23.5667C21.586 20.0851 24.4366 17.2825 27.9063 17.1814H49.9914C50.5673 17.2103 51.028 17.6148 51.028 18.2071V36.9585C51.5318 37.0451 51.7765 37.1174 52.2661 37.2908C52.6549 37.4352 53.1876 37.7386 53.1876 37.7386V18.2071C53.1587 16.4302 51.7478 15 49.977 15H27.8919C23.1265 15.0722 19.2969 18.9872 19.2969 23.7834C19.2969 26.5715 20.5638 28.9552 22.637 30.631C22.781 30.7465 22.9105 30.891 23.2849 30.891C23.9327 30.891 24.3934 30.3709 24.3646 29.8075C24.3502 29.3308 24.1487 29.1574 23.8463 28.8685Z" fill="#EFEFE5"/>
<path d="M49.4155 38.1861H32.0959C30.9297 38.2007 29.9939 39.1395 29.9939 40.3098V42.809C30.0227 43.9647 31.0017 44.947 32.1679 44.947H33.4492V42.809H32.1679V40.3675C32.1679 40.3675 32.4846 40.3675 32.8733 40.3675C35.0617 40.3675 36.6742 42.4044 36.6742 44.5858C36.6742 46.5217 34.9177 48.992 31.9807 48.7897C29.3749 48.6165 27.964 46.2905 27.964 44.5858V23.4075C27.964 22.4541 27.1865 21.674 26.2363 21.674H24.5087V23.8409H25.79V44.6003C25.718 48.8186 28.7846 50.9422 31.9807 50.9422L49.43 51C52.9428 51 55.7935 48.1397 55.7935 44.6003C55.7935 41.0609 52.9285 38.1861 49.4155 38.1861ZM53.6194 44.7304C53.5475 46.9984 51.6902 48.8186 49.4155 48.8186L37.2788 48.7754C38.2435 47.6485 38.8338 46.1894 38.8338 44.6003C38.8338 42.1011 37.3508 40.3821 37.3508 40.3821H49.43C51.7478 40.3821 53.6339 42.2745 53.6339 44.6003L53.6194 44.7304Z" fill="#EFEFE5"/>
<path d="M44.7505 24.2312H31.6924V22.0643H44.7505C45.3408 22.0643 45.8304 22.541 45.8304 23.1478C45.8304 23.7401 45.3553 24.2312 44.7505 24.2312Z" fill="#EFEFE5"/>
<path d="M44.7505 34.4295H31.6924V32.2624H44.7505C45.3408 32.2624 45.8304 32.7391 45.8304 33.346C45.8304 33.9382 45.3553 34.4295 44.7505 34.4295Z" fill="#EFEFE5"/>
<path d="M47.0541 29.3311H31.6924V27.1641H47.0396C47.63 27.1641 48.1195 27.6409 48.1195 28.2476C48.1338 28.8399 47.6444 29.3311 47.0541 29.3311Z" fill="#EFEFE5"/>
</g>
</svg>
