<svg width="170" height="66" viewBox="0 0 170 66" fill="none" xmlns="http://www.w3.org/2000/svg">
<g opacity="0.8">
<path d="M11.2289 27.0256L5.16355 23.9375C4.68912 24.8696 4.28506 25.8469 3.96354 26.8423L10.44 28.9365C10.6517 28.2818 10.9165 27.6388 11.2289 27.0256Z" fill="#EFEFE5"/>
<path d="M16.3812 21.5836L19.7407 27.372C20.2313 27.0874 20.7563 26.8687 21.3027 26.7218L19.564 20.2585C20.0065 20.1395 20.4562 20.0413 20.9083 19.9699L19.84 13.2474C18.8065 13.4114 17.7797 13.659 16.7873 13.9826L18.8648 20.3497C18.204 20.5654 17.5605 20.8332 16.9407 21.1502L13.887 15.1897C12.9584 15.6656 12.0602 16.2185 11.2162 16.8347L15.2288 22.3325C15.5984 22.0631 15.9853 21.814 16.3812 21.5836Z" fill="#EFEFE5"/>
<path d="M34.4113 26.3772L28.625 29.7398C28.91 30.2298 29.1288 30.7555 29.2762 31.3008L35.739 29.559C35.8578 30.0015 35.9562 30.4507 36.028 30.9023L42.7495 29.832C42.585 28.799 42.3368 27.7717 42.0123 26.7787L35.6463 28.8603C35.43 28.1995 35.1622 27.5565 34.8448 26.9367L40.8032 23.879C40.3273 22.9514 39.7733 22.0532 39.1572 21.2096L33.661 25.2248C33.9308 25.5944 34.181 25.9808 34.4113 26.3772Z" fill="#EFEFE5"/>
<path d="M32.058 15.162C31.1248 14.6881 30.1475 14.2846 29.1532 13.9635L27.0625 20.441C27.7167 20.6521 28.3597 20.9175 28.9738 21.2294L32.058 15.162Z" fill="#EFEFE5"/>
<path d="M29.6402 21.4647L26.2422 27.3619C26.7343 27.6454 27.188 27.9928 27.5915 28.3948L37.1217 18.8323C36.3825 18.0955 35.5793 17.4115 34.7348 16.7988L30.8042 22.2196C30.4295 21.9482 30.0412 21.696 29.6402 21.4647Z" fill="#EFEFE5"/>
<path d="M11.4649 26.3577L17.3606 29.7592C17.6441 29.2675 17.9925 28.8134 18.395 28.4093L8.83652 18.8756C8.0993 19.6149 7.41475 20.4174 6.80208 21.2615L12.2208 25.1946C11.9494 25.5688 11.6963 25.9567 11.4649 26.3577Z" fill="#EFEFE5"/>
<path d="M25.066 19.8552L26.0943 13.238C25.0782 13.08 24.0382 13 23.0027 13H22.987V26.5008H23.0027C23.5718 26.5008 24.1348 26.5737 24.6767 26.7175L26.4225 20.1387C25.9758 20.0202 25.5232 19.9266 25.066 19.8552Z" fill="#EFEFE5"/>
<path d="M16.718 31.3227L10.1403 29.5723C10.0213 30.0188 9.9271 30.4715 9.8557 30.9287L3.23949 29.8973C3.08051 30.917 3 31.9612 3 32.9997H16.5008C16.5008 32.4295 16.5737 31.865 16.718 31.3227Z" fill="#EFEFE5"/>
<path d="M34.7713 38.9733L40.8367 42.0615C41.3112 41.1293 41.7152 40.1522 42.0367 39.1567L35.5602 37.0625C35.3485 37.7172 35.0837 38.3602 34.7713 38.9733Z" fill="#EFEFE5"/>
<path d="M29.6142 44.4167L26.2547 38.6283C25.7642 38.9128 25.239 39.1315 24.6927 39.2783L26.4315 45.7417C25.9883 45.8607 25.5393 45.9588 25.0872 46.0303L26.155 52.7523C27.1883 52.5883 28.2152 52.3407 29.2077 52.0172L27.1302 45.65C27.7915 45.4343 28.4345 45.1665 29.0542 44.8495L32.1078 50.81C33.0365 50.334 33.9347 49.7812 34.7788 49.165L30.7662 43.6672C30.3965 43.9367 30.0102 44.1862 29.6142 44.4167Z" fill="#EFEFE5"/>
<path d="M11.5856 39.6228L17.3725 36.2602C17.0874 35.7702 16.8687 35.2445 16.7213 34.6992L10.2585 36.441C10.1396 35.9985 10.0413 35.5493 9.96942 35.0977L3.2474 36.168C3.41195 37.201 3.66006 38.2283 3.98461 39.2212L10.3507 37.1397C10.5669 37.8005 10.8348 38.4435 11.1522 39.0633L5.19373 42.121C5.66968 43.0487 6.2236 43.9468 6.8398 44.7903L12.336 40.7752C12.0661 40.4055 11.816 40.0192 11.5856 39.6228Z" fill="#EFEFE5"/>
<path d="M13.9505 50.8382C14.8837 51.3122 15.8609 51.7157 16.8553 52.0367L18.946 45.5592C18.2918 45.348 17.6488 45.0827 17.0346 44.7708L13.9505 50.8382Z" fill="#EFEFE5"/>
<path d="M16.3669 44.5362L19.765 38.639C19.2728 38.3555 18.8191 38.0082 18.4156 37.6062L8.88542 47.1687C9.62465 47.9053 10.4277 48.5893 11.2723 49.202L15.2029 43.7813C15.5776 44.0527 15.9659 44.3047 16.3669 44.5362Z" fill="#EFEFE5"/>
<path d="M34.5265 39.6437L28.6308 36.2422C28.3472 36.7338 27.9988 37.188 27.5963 37.592L37.1543 47.1262C37.8915 46.387 38.5762 45.5845 39.1888 44.7405L33.77 40.8073C34.0415 40.433 34.2952 40.0447 34.5265 39.6437Z" fill="#EFEFE5"/>
<path d="M21.3213 39.2825L19.5755 45.8613C20.0222 45.9798 20.4748 46.0735 20.932 46.1448L19.9042 52.762C20.9203 52.92 21.9603 53 22.9958 53H23.0115V39.4993H22.9958C22.4267 39.4993 21.8632 39.4263 21.3213 39.2825Z" fill="#EFEFE5"/>
<path d="M29.4938 33C29.4938 33.5702 29.4203 34.1342 29.276 34.677L35.8538 36.4273C35.9728 35.9808 36.067 35.5282 36.1383 35.0708L42.755 36.1028C42.914 35.083 42.9945 34.039 42.9945 33.0005L29.4938 33Z" fill="#EFEFE5"/>
<path fill-rule="evenodd" clip-rule="evenodd" d="M59.6667 39.6667V26.3333H65.2687L71.1595 39.6667H68.001L63.3868 29.2226H62.5558V39.6667H59.6667ZM115.7 26.3333H118.589V39.6667H115.7V26.3333ZM77.0505 26.3333L71.1595 39.6667H74.3187L78.9328 29.2226H79.7633V39.6667H82.6525V26.3333H77.0505ZM84.3888 39.6667L90.2797 26.3333H95.5655L101.456 39.6667H98.2973L96.3782 35.3222H89.467L87.5478 39.6667H84.3888ZM92.162 29.2226L90.7437 32.4328H95.1015L93.6832 29.2226H92.162ZM103.13 26.3333V39.6667H106.02V29.2226H107.921L112.535 39.6667H115.693L109.802 26.3333H103.13ZM126.929 29.2226H120.188V26.3333H136.56V29.2226H129.818V39.6667H126.929V29.2226ZM141.063 26.3333H138.174V39.6667H150.747V36.7775H141.063V26.3333ZM165.993 26.3333V29.2226H155.238V31.3628H164.561V34.252H155.238V36.7775H165.993V39.6667H152.349V26.3333H165.993Z" fill="#EFEFE5"/>
</g>
</svg>
