<svg width="170" height="66" viewBox="0 0 170 66" fill="none" xmlns="http://www.w3.org/2000/svg">
<g opacity="0.8" clip-path="url(#clip0_3242_34198)">
<path d="M62.8181 38.2852H67.3059V42.9994H62.8181V38.2852Z" fill="#EFEFE5"/>
<path d="M89.7029 23C92.9401 23 95.5773 25.7721 95.5773 29.1708V42.9982H91.0895V29.1708C91.0895 28.3719 90.4634 27.7142 89.7029 27.7142H75.9674C75.207 27.7142 74.5808 28.3719 74.5808 29.1708V42.9982H70.093V29.1708C70.093 25.7702 72.7302 23 75.9674 23H89.7029Z" fill="#EFEFE5"/>
<path d="M123.851 23V27.7142H104.241C103.48 27.7142 102.854 28.3719 102.854 29.1708V30.6567H98.3662V29.1708C98.3662 25.7702 101.004 23 104.241 23H123.851ZM104.241 30.6567H123.851V35.3415H104.241C103.48 35.3415 102.854 36.0267 102.854 36.8274C102.854 37.6281 103.48 38.284 104.241 38.284H123.851V42.9982H104.241C101.004 42.9982 98.3662 40.2261 98.3662 36.8274C98.3662 33.4012 101.004 30.6567 104.241 30.6567Z" fill="#EFEFE5"/>
<path d="M141.502 43H137.014V29.1708C137.014 28.3719 136.388 27.7142 135.627 27.7142H126.516V23H135.627C138.727 23 141.284 25.5431 141.476 28.7713H141.502V43ZM141.502 27.7142V23H152V27.7142H141.502Z" fill="#EFEFE5"/>
<path d="M47.6262 23H21.4878L28.0163 27.7142H47.6262C48.3884 27.7142 49.0128 28.3701 49.0128 29.1708V32.6885L53.5006 35.9296V29.1708C53.5006 25.7776 50.8581 23 47.6262 23Z" fill="#EFEFE5"/>
<path d="M33.8925 43H60.0309L53.5024 38.2858H33.8925C33.1321 38.2858 32.5059 37.628 32.5059 36.8292V33.3114L28.0181 30.0703V36.8274C28.0164 40.2279 30.6553 43 33.8925 43Z" fill="#EFEFE5"/>
<path d="M21.4878 30.0703H17V42.9981H21.4878V30.0703Z" fill="#EFEFE5"/>
<path d="M17 23V27.0399L21.3291 30.1656L21.4878 30.0703V23H17Z" fill="#EFEFE5"/>
</g>
<defs>
<clipPath id="clip0_3242_34198">
<rect width="135" height="20" fill="white" transform="translate(17 23)"/>
</clipPath>
</defs>
</svg>
