<svg width="170" height="66" viewBox="0 0 170 66" fill="none" xmlns="http://www.w3.org/2000/svg">
<g opacity="0.8" clip-path="url(#clip0_3597_33852)">
<path d="M40.6172 20.1694L27.3096 28.1887V14L40.6172 20.1694Z" fill="#6A6A60"/>
<path d="M27.3096 14V28.1907L14 20.1694L27.3096 14Z" fill="#B6B6AC"/>
<path d="M40.6248 22.7409L27.3077 30.7584L27.145 30.9628V37.4081L27.3077 37.8961H27.3096V52L40.6135 39.615L40.6248 39.6131V22.7409Z" fill="#212117"/>
<path d="M27.3096 30.7584L14 22.7409V39.6131L27.3096 52V30.7584Z" fill="#838379"/>
<path d="M27.3077 37.8961V30.7584L14 22.7409L27.3077 37.8961Z" fill="#D7D7CD"/>
<path d="M27.3077 30.7584V37.8961L40.6248 22.7409L27.3077 30.7584Z" fill="#626258"/>
<path d="M55.1429 29.2312C55.1429 33.199 64.5463 30.6277 64.5463 36.4797C64.5463 39.7825 62.8445 41.2012 58.8301 41.2012C54.8156 41.2012 53.092 39.7382 53.092 36.3245H54.8593C54.8593 38.7407 55.9938 39.716 58.8301 39.716C61.6227 39.716 62.7136 38.8515 62.7136 36.7679C62.7136 32.401 53.3102 35.061 53.3102 29.5194C53.3102 26.2165 54.9684 24.7979 58.8301 24.7979C62.6918 24.7979 64.3281 26.2609 64.3281 29.6745H62.5827C62.5827 27.2805 61.4918 26.283 58.8301 26.283C56.1901 26.283 55.1429 27.1254 55.1429 29.2312Z" fill="#EFEFE5"/>
<path d="M67.5905 40.7579V25.2412H69.3359V30.8715C70.034 29.8962 71.1686 29.4529 72.7831 29.4529C75.6412 29.4529 76.8629 31.0489 76.8629 34.7729V40.7579H75.1175V34.7729C75.1175 32.0464 74.3321 30.938 72.3685 30.938C70.2086 30.938 69.3359 32.0464 69.3359 34.7729V40.7579H67.5905Z" fill="#EFEFE5"/>
<path d="M82.038 40.7579H80.2707V29.6745H82.038V40.7579ZM81.1434 25.086C82.0161 25.086 82.387 25.4629 82.387 26.3274C82.387 27.1697 82.0161 27.5465 81.1434 27.5465C80.2926 27.5465 79.9217 27.1697 79.9217 26.3274C79.9217 25.4629 80.2926 25.086 81.1434 25.086Z" fill="#EFEFE5"/>
<path d="M86.7708 36.1915C86.9672 38.5855 87.9272 39.6717 90.0871 39.6717C91.7671 39.6717 92.5961 39.0732 93.0543 37.455H94.7124C94.1888 39.9155 92.7925 40.9795 90.0871 40.9795C86.5308 40.9795 85.0036 39.2505 85.0036 35.2162C85.0036 31.1819 86.509 29.4529 90.0871 29.4529C93.6215 29.4529 95.1488 31.2484 95.1488 35.46V36.1915H86.7708ZM93.4034 34.9945C93.4034 31.9577 92.3998 30.7607 90.0653 30.7607C87.7526 30.7607 86.7272 32.002 86.7272 34.9945H93.4034Z" fill="#EFEFE5"/>
<path d="M97.9944 40.7579V25.2412H99.7398V40.7579H97.9944Z" fill="#EFEFE5"/>
<path d="M107.228 40.9795C103.956 40.9795 102.581 39.2284 102.581 35.194C102.581 31.1597 103.978 29.4307 107.25 29.4307C109.017 29.4307 110.239 29.9405 110.981 31.0489V25.219H112.726V40.7357H111.308L111.046 39.2284C110.305 40.4254 109.061 40.9795 107.228 40.9795ZM107.665 39.4722C109.977 39.4722 110.981 38.1865 110.981 35.194C110.981 32.2015 109.977 30.9159 107.665 30.9159C105.33 30.9159 104.327 32.2015 104.327 35.194C104.327 38.1865 105.33 39.4722 107.665 39.4722Z" fill="#EFEFE5"/>
<path d="M117.324 36.1915C117.52 38.5855 118.48 39.6717 120.64 39.6717C122.32 39.6717 123.149 39.0732 123.607 37.455H125.266C124.742 39.9155 123.346 40.9795 120.64 40.9795C117.084 40.9795 115.557 39.2505 115.557 35.2162C115.557 31.1819 117.062 29.4529 120.64 29.4529C124.175 29.4529 125.702 31.2484 125.702 35.46V36.1915H117.324ZM123.956 34.9945C123.956 31.9577 122.953 30.7607 120.618 30.7607C118.306 30.7607 117.28 32.002 117.28 34.9945H123.956Z" fill="#EFEFE5"/>
<path d="M135.725 39.45C135.027 40.4919 133.871 40.9795 132.191 40.9795C129.333 40.9795 128.111 39.3835 128.111 35.6595V29.6745H129.857V35.6595C129.857 38.386 130.664 39.4944 132.606 39.4944C134.722 39.4944 135.638 38.3417 135.638 35.6595V29.6745H137.384V40.7579H135.965L135.725 39.45Z" fill="#EFEFE5"/>
<path d="M145.548 30.938C143.65 30.938 142.842 32.0685 142.842 34.7729V40.7579H141.097V29.6745H142.515L142.777 31.2705C143.366 30.0292 144.413 29.4529 146.006 29.4529C147.642 29.4529 148.689 30.1179 149.235 31.5809C149.824 30.1179 150.958 29.4529 152.769 29.4529C155.387 29.4529 156.5 31.0489 156.5 34.7729V40.7579H154.755V34.7729C154.755 32.0907 154.035 30.938 152.355 30.938C150.478 30.938 149.693 32.0685 149.693 34.7729V40.7579H147.926V34.7729C147.926 32.0464 147.249 30.938 145.548 30.938Z" fill="#EFEFE5"/>
</g>
<defs>
<clipPath id="clip0_3597_33852">
<rect width="142.5" height="38" fill="white" transform="translate(14 14)"/>
</clipPath>
</defs>
</svg>
