<svg width="170" height="66" viewBox="0 0 170 66" fill="none" xmlns="http://www.w3.org/2000/svg">
<g clip-path="url(#clip0_3191_33495)">
<path d="M125.275 38.9497C125.275 40.7366 123.346 41.6967 121.502 41.6967C119.659 41.6967 117.685 40.7366 117.685 38.9497C117.685 37.1627 119.573 36.2449 121.502 36.2449C123.432 36.2449 125.275 37.2051 125.275 38.9497ZM125.188 46.0159H131.662V32.1015C131.662 26.3437 127.976 23.0303 121.672 23.0303C118.757 23.0303 115.842 23.7724 114.082 24.7326V30.6206C115.839 29.618 117.941 28.8336 120.171 28.8336C123.474 28.8336 125.188 30.3601 125.188 32.3652V33.3253C124.331 32.5409 122.274 31.7109 120.043 31.7109C115.368 31.7109 111.509 34.5882 111.509 38.9497C111.509 43.6594 115.368 46.5399 119.829 46.5399C122.402 46.5399 124.417 45.4919 125.188 44.6196V46.0159ZM95.6986 32.8436C95.6986 30.8386 96.8569 29.1786 99.0008 29.1786C101.145 29.1786 102.217 30.881 102.217 32.8436V46.0159H108.949V31.4472C108.949 26.3437 105.989 23.0303 101.273 23.0303C98.0153 23.0303 95.8714 24.4689 94.4539 26.0833C93.1675 24.3387 91.1964 23.0303 88.3645 23.0303C85.7918 23.0303 83.6063 24.1207 82.4895 25.7774V23.5543H75.8018V46.0159H82.4895V32.8436C82.4895 30.8386 83.6479 29.1786 85.747 29.1786C87.8461 29.1786 89.0045 30.881 89.0045 32.8436V46.0159H95.6922V32.8436H95.6986Z" fill="#C1C1BA"/>
<path d="M67.9236 13H67.8308C65.5493 13 63.7317 14.7999 63.7317 17.1662C63.7317 19.5324 65.5461 21.2868 67.8276 21.2868H67.9204C70.1539 21.2868 72.0162 19.4869 72.0162 17.1662C72.0162 14.8455 70.1571 13 67.9236 13Z" fill="#C1C1BA"/>
<path d="M60.1543 26.9627C60.2887 25.7715 59.9175 24.6323 59.2007 23.7762C58.4551 22.9495 57.3864 22.4353 56.2088 22.4255H56.116C53.9369 22.4059 52.1706 24.0333 52.001 26.2467C52.001 26.2467 51.985 26.5656 51.985 26.5722C51.8282 28.7333 50.0651 30.3575 47.9787 30.338L47.3068 30.3021C46.3373 30.2924 45.4477 30.6147 44.7437 31.1647C44.7373 31.168 44.7341 31.1745 44.7277 31.1777C44.6989 31.2005 44.6669 31.2266 44.6381 31.2493C44.4525 31.3958 44.2765 31.552 44.1197 31.7278C44.0109 31.858 43.9117 31.9979 43.8189 32.1412V14.1777H37V46.0165H43.8189V36.8444C44.5773 38.0324 45.902 38.7647 47.4092 38.6996C47.4092 38.6996 47.7228 38.6769 47.7292 38.6769C49.8571 38.5727 51.6554 40.1545 51.8922 42.2604L51.8986 42.3711C51.8986 42.3873 51.8986 42.4036 51.8986 42.4199C51.8986 42.8756 51.969 43.3085 52.1002 43.7121C52.6634 45.5966 54.4297 46.8464 56.4745 46.6089C57.4248 46.4982 58.2472 46.0719 58.8648 45.4501C59.6711 44.7048 60.1863 43.634 60.1863 42.4199C60.1863 40.0536 58.324 38.2538 56.0904 38.2538H55.9976C55.8409 38.2538 55.6873 38.2635 55.5337 38.2798L55.3481 38.2895C53.3961 38.3058 51.3899 36.5156 51.4059 34.2373C51.425 31.9589 53.473 30.6179 55.5977 30.722C55.6041 30.722 55.9177 30.7449 55.9177 30.7449C58.0968 30.8425 59.9015 29.2607 60.1479 27.0571L60.1575 26.9627H60.1543Z" fill="#C1C1BA"/>
<path d="M71.2554 23.5547H64.5676V46.0163H71.2554V23.5547Z" fill="#C1C1BA"/>
</g>
<defs>
<clipPath id="clip0_3191_33495">
<rect width="95" height="34" fill="white" transform="translate(37 13)"/>
</clipPath>
</defs>
</svg>
