<svg width="170" height="66" viewBox="0 0 170 66" fill="none" xmlns="http://www.w3.org/2000/svg">
<g opacity="0.8" clip-path="url(#clip0_3597_33806)">
<path fill-rule="evenodd" clip-rule="evenodd" d="M41.6135 17.3894L28.2058 25.1385V40.6366L41.6135 48.3857L55.0213 40.6366V25.1385L41.6135 17.3894ZM42.1766 13.484C41.8281 13.2827 41.3989 13.2827 41.0504 13.484L25.1088 22.6976C24.7603 22.899 24.5457 23.2712 24.5457 23.674V42.1011C24.5457 42.5039 24.7603 42.876 25.1088 43.0775L41.0504 52.291C41.3989 52.4924 41.8281 52.4924 42.1766 52.291L58.1183 43.0775C58.4666 42.876 58.6813 42.5039 58.6813 42.1011V23.674C58.6813 23.2712 58.4666 22.899 58.1183 22.6976L42.1766 13.484Z" fill="#EFEFE5"/>
<path d="M41.6135 23.0028L33.062 27.9452V37.8299L41.5571 42.7397C41.592 42.7599 41.6135 42.797 41.6135 42.8374V44.5297C41.6135 44.6165 41.5196 44.6707 41.4445 44.6274L31.7951 39.0502C31.5338 38.8992 31.3728 38.6201 31.3728 38.318V27.457C31.3728 27.155 31.5338 26.8759 31.7951 26.7247L41.1911 21.2943C41.4525 21.1432 41.7745 21.1432 42.0358 21.2943L51.7238 26.8732C51.7983 26.9161 51.799 27.0235 51.725 27.0674C51.1533 27.4069 50.8605 27.5579 50.2209 27.914C50.1863 27.9332 50.1439 27.933 50.1095 27.9132L41.6135 23.0028Z" fill="#EFEFE5"/>
<path d="M43.0213 33.0961C43.0213 33.0545 43.0441 33.0162 43.0809 32.9966L51.5836 28.4662C51.6586 28.4262 51.7491 28.4807 51.7491 28.5657V39.5869C51.7491 39.627 51.7278 39.6641 51.693 39.6844L43.1904 44.6266C43.1153 44.6702 43.0213 44.616 43.0213 44.5291V33.0961Z" fill="#EFEFE5"/>
<path d="M75.4663 42.7401C73.5201 42.7401 71.8611 42.4017 70.4895 41.725C69.1365 41.03 68.0985 39.96 67.3756 38.5151C66.6528 37.0701 66.2913 35.232 66.2913 33.0006C66.2913 29.7084 67.0975 27.2666 68.7101 25.6754C70.3413 24.0658 72.6026 23.261 75.4941 23.261C77.0881 23.261 78.5154 23.5262 79.7758 24.0566C81.0548 24.587 82.0556 25.3826 82.7785 26.4435C83.5199 27.486 83.8906 28.8212 83.8906 30.4491H80.7211C80.7211 29.4431 80.5079 28.6017 80.0816 27.925C79.6553 27.2482 79.0436 26.7361 78.2466 26.3886C77.4681 26.0411 76.5599 25.8674 75.5219 25.8674C74.2244 25.8674 73.1215 26.1234 72.2134 26.6355C71.3236 27.1294 70.6471 27.8792 70.1838 28.8852C69.7389 29.8912 69.5164 31.1715 69.5164 32.7262V33.3297C69.5164 34.8845 69.7389 36.1647 70.1838 37.1707C70.6471 38.1767 71.3236 38.9266 72.2134 39.4205C73.103 39.896 74.2059 40.1337 75.5219 40.1337C76.597 40.1337 77.533 39.9691 78.33 39.64C79.127 39.2925 79.7388 38.7802 80.165 38.1036C80.6099 37.4269 80.8323 36.5855 80.8323 35.5795H83.8906C83.8906 37.2074 83.5199 38.5516 82.7785 39.6125C82.0556 40.6734 81.0548 41.4599 79.7758 41.972C78.5154 42.4841 77.0789 42.7401 75.4663 42.7401Z" fill="#EFEFE5"/>
<path d="M96.0019 42.7401C94.0371 42.7401 92.3319 42.3835 90.8861 41.6701C89.4589 40.9569 88.356 39.8777 87.5776 38.4327C86.8176 36.9879 86.4376 35.1771 86.4376 33.0006C86.4376 30.8057 86.8176 28.995 87.5776 27.5684C88.356 26.1234 89.4589 25.0442 90.8861 24.331C92.3319 23.6176 94.0371 23.261 96.0019 23.261C98.0038 23.261 99.7183 23.6176 101.146 24.331C102.573 25.0442 103.666 26.1234 104.426 27.5684C105.205 28.995 105.594 30.8057 105.594 33.0006C105.594 35.1771 105.205 36.9879 104.426 38.4327C103.666 39.8777 102.573 40.9569 101.146 41.6701C99.7183 42.3835 98.0038 42.7401 96.0019 42.7401ZM96.0019 40.1337C97.0214 40.1337 97.9204 39.9966 98.6989 39.7222C99.4959 39.4479 100.163 39.0272 100.701 38.4602C101.257 37.8932 101.674 37.1799 101.952 36.3202C102.248 35.4606 102.397 34.4637 102.397 33.3297V32.7262C102.397 31.5556 102.248 30.5405 101.952 29.6809C101.674 28.8212 101.257 28.1079 100.701 27.5409C100.163 26.9739 99.4959 26.5532 98.6989 26.2789C97.9204 26.0045 97.0214 25.8674 96.0019 25.8674C95.001 25.8674 94.102 26.0045 93.305 26.2789C92.5265 26.5532 91.8593 26.9739 91.3033 27.5409C90.7656 28.1079 90.3579 28.8212 90.0799 29.6809C89.8019 30.5405 89.6628 31.5556 89.6628 32.7262V33.3297C89.6628 34.4637 89.8019 35.4606 90.0799 36.3202C90.3579 37.1799 90.7656 37.8932 91.3033 38.4602C91.8593 39.0272 92.5265 39.4479 93.305 39.7222C94.102 39.9966 95.001 40.1337 96.0019 40.1337Z" fill="#EFEFE5"/>
<path d="M109.185 42.4109V23.5902H119.222C120.575 23.5902 121.696 23.828 122.586 24.3035C123.476 24.7791 124.143 25.4466 124.588 26.3064C125.033 27.1476 125.255 28.1354 125.255 29.2694C125.255 30.5314 124.968 31.6287 124.393 32.5616C123.819 33.4944 123.003 34.1802 121.947 34.6192L125.922 42.4109H122.53L118.916 35.1405H112.299V42.4109H109.185ZM112.299 32.5616H118.972C119.973 32.5616 120.742 32.269 121.279 31.6836C121.835 31.0984 122.113 30.2845 122.113 29.2419C122.113 28.6017 121.993 28.0622 121.752 27.6232C121.511 27.166 121.159 26.8185 120.695 26.5806C120.232 26.3429 119.657 26.224 118.972 26.224H112.299V32.5616Z" fill="#EFEFE5"/>
<path d="M129.25 42.4109V23.5902H144.041V26.224H132.364V31.4642H142.818V34.098H132.364V39.7771H144.208V42.4109H129.25Z" fill="#EFEFE5"/>
</g>
<defs>
<clipPath id="clip0_3597_33806">
<rect width="121" height="40" fill="white" transform="translate(24 13)"/>
</clipPath>
</defs>
</svg>
