<svg width="170" height="66" viewBox="0 0 170 66" fill="none" xmlns="http://www.w3.org/2000/svg">
<g opacity="0.8" clip-path="url(#clip0_3597_33777)">
<g clip-path="url(#clip1_3597_33777)">
<path d="M54.937 13.6375C50.5967 14.226 46.6059 16.2122 43.4887 19.3386C40.3439 22.4742 38.3668 26.4834 37.7875 30.8605C37.6128 32.1938 37.6128 34.8053 37.7875 36.1386C38.7806 43.7248 44.068 50.0972 51.3507 52.4972C53.714 53.2697 55.645 53.5455 58.2381 53.4719C61.3829 53.3892 63.8289 52.7731 66.6427 51.3754C68.6565 50.3731 70.3209 49.1501 71.9944 47.4214C73.5852 45.7938 74.5507 44.4237 75.5622 42.4099C76.8864 39.7708 77.5209 37.2145 77.622 34.18C77.7048 31.5777 77.4197 29.5731 76.6381 27.1823C74.2473 19.9271 67.8381 14.6214 60.2887 13.6467C58.9186 13.4719 56.1967 13.4627 54.937 13.6375ZM57.8611 19.6421C57.9255 19.688 58.7163 21.003 59.6174 22.5662L61.2542 25.4076L60.7117 25.711C60.4174 25.8857 60.1324 26.0053 60.0864 25.9869C60.0312 25.9685 59.4795 25.0673 58.8542 23.9823C58.2289 22.8972 57.6864 22.0053 57.6496 22.0053C57.576 22.0053 56.3163 24.1202 56.3163 24.2398C56.3163 24.2765 56.5094 24.4053 56.7484 24.534C57.4565 24.911 58.2105 25.6742 58.5416 26.3547C58.8266 26.9248 58.845 27.026 58.845 27.9363C58.845 28.8007 58.8174 28.957 58.5967 29.4352C57.9255 30.8696 57.668 31.026 52.9324 32.7731C50.7898 33.5639 49.0243 34.1892 49.0059 34.1708C48.9783 34.1432 49.4565 33.2972 52.5461 27.9639L53.6128 26.1064L54.1829 26.4467C54.4956 26.6306 54.753 26.8053 54.753 26.8421C54.753 26.8696 54.1461 27.9455 53.4105 29.2145C52.6749 30.4926 52.0864 31.5501 52.1048 31.5685C52.1232 31.5869 53.0887 31.2559 54.2381 30.8237C55.5714 30.3363 56.4726 29.9409 56.6933 29.7662C57.4013 29.2053 57.6864 28.1386 57.4013 27.1639C57.2358 26.603 56.5186 25.9593 55.3783 25.3156L54.3944 24.7639L55.8197 22.2811C56.6105 20.911 57.3186 19.7432 57.4013 19.6788C57.5668 19.5501 57.6956 19.5409 57.8611 19.6421ZM63.7645 29.7386L66.0358 33.6834L65.4749 34.0145C65.1622 34.1984 64.8864 34.3271 64.8496 34.3087C64.822 34.2995 64.2059 33.2605 63.4887 32.0007C62.7622 30.7501 62.1645 29.711 62.1461 29.6926C62.0542 29.5915 61.9898 29.9041 61.6312 31.9915C61.2542 34.2352 61.2542 34.2352 61.4105 34.7685C61.668 35.6513 62.4036 36.3133 63.2956 36.4513C63.9668 36.5616 64.4266 36.4145 65.5944 35.7524C66.2013 35.3938 66.7347 35.1087 66.7806 35.1087C66.9094 35.1087 69.6956 40.0191 69.6956 40.249C69.6956 40.6903 69.5025 40.7179 66.045 40.7179H62.845V39.9823V39.2467H65.2358C66.5507 39.2467 67.6266 39.2283 67.6266 39.2099C67.6266 39.1455 66.4312 37.1041 66.3484 37.0122C66.3025 36.9662 66.0542 37.0674 65.7967 37.2237C65.1163 37.6191 64.3163 37.8673 63.691 37.8673C61.8795 37.8673 60.3255 36.5524 59.9852 34.7225C59.8841 34.1524 59.9025 33.9593 60.6013 29.8857C61.0151 27.449 61.3553 25.6742 61.4013 25.7202C61.4473 25.7662 62.5048 27.5777 63.7645 29.7386ZM49.7691 34.9432C49.8795 34.9984 49.9714 35.0719 49.9714 35.1087C49.9714 35.1455 49.4565 36.0651 48.822 37.1593C48.1875 38.2536 47.6726 39.1731 47.6726 39.2007C47.6726 39.2283 48.2703 39.2467 48.9967 39.2467H50.3117L50.3576 38.3455C50.422 37.0122 50.937 36.0283 51.9301 35.3478C53.1071 34.5386 54.5599 34.4467 55.8105 35.0903C56.0864 35.2283 62.0818 40.1202 62.6151 40.6352C62.6611 40.6811 60.868 40.7179 57.9898 40.7179H53.2818V39.9823V39.2467H56.0496H58.8174L57.0335 37.7754C55.5622 36.5524 55.176 36.2765 54.7622 36.1478C53.5944 35.8076 52.4634 36.3317 51.9393 37.4536C51.737 37.8673 51.7186 38.0421 51.7186 39.2651V40.626H48.7484C45.6588 40.626 45.5576 40.6168 45.5576 40.2306C45.5576 40.1386 46.2933 38.7869 47.1944 37.2329L48.822 34.3915L49.1898 34.6214C49.3921 34.7409 49.6496 34.888 49.7691 34.9432Z" fill="#EFEFE5"/>
<path d="M100.73 24.8555V26.5566H102.799H104.868V24.8555V23.1543H102.799H100.73V24.8555Z" fill="#EFEFE5"/>
<path d="M87.2587 23.6333C87.2403 23.6977 86.7989 26.1069 86.2932 28.9942C85.7783 31.8724 85.3461 34.3092 85.3185 34.3919C85.2725 34.5483 85.4012 34.5575 87.13 34.5575H88.9783L89.3553 34.1345C90.0909 33.2977 91.0472 32.9299 92.2426 33.0218C93.8886 33.1414 95.0012 34.208 95.3139 35.9368C95.6173 37.6563 94.753 39.4678 93.3001 40.1483C92.6012 40.4793 91.3599 40.4977 90.6886 40.1942C89.8058 39.7988 89.1162 38.9345 88.8587 37.923L88.7576 37.5H86.7438H84.73V37.9414C84.73 38.5115 85.0242 39.6517 85.3093 40.231C86.3024 42.1896 88.2702 43.4218 90.9277 43.7529C92.6012 43.9643 94.0541 43.7437 95.4426 43.0632C96.9231 42.3368 98.0173 41.2609 98.7162 39.8448C99.2403 38.7781 99.4426 37.8678 99.4426 36.6172C99.4426 33.7575 98.2196 31.5322 96.0863 30.5115C95.084 30.0333 94.5231 29.9138 93.2817 29.9138C91.8012 29.923 90.7622 30.2724 89.7323 31.1092L89.4472 31.3391L89.7047 29.8494C89.8518 29.0218 90.0265 28.0379 90.0909 27.6609L90.2104 26.9712L94.3208 26.9437L98.4311 26.9253V25.2241V23.523H92.8679C88.4909 23.523 87.2863 23.5506 87.2587 23.6333Z" fill="#EFEFE5"/>
<path d="M114.707 28.4421C113.337 28.7455 111.994 29.7202 111.323 30.8789L111.029 31.3846V30.0697V28.7639H109.098H107.167V36.1202V43.4766H109.19H111.213V40.2766C111.213 35.6697 111.341 34.6674 112.095 33.5731C112.445 33.0674 112.84 32.7547 113.558 32.4237C113.971 32.2306 114.155 32.2122 115.332 32.2122H116.638V30.3547C116.638 29.2697 116.601 28.4789 116.546 28.4421C116.344 28.3133 115.268 28.3133 114.707 28.4421Z" fill="#EFEFE5"/>
<path d="M123.029 28.3962C119.875 28.8836 117.539 31.0905 116.859 34.2353C116.675 35.1089 116.647 37.0031 116.813 37.8215C117.548 41.4445 119.967 43.5686 123.617 43.8077C125.181 43.9089 126.643 43.633 127.884 42.9985C129.273 42.2813 130.496 40.7181 131.02 38.9893L131.084 38.787H129.291H127.489L127.314 39.1365C127.066 39.6146 126.569 40.0376 125.834 40.387C125.282 40.6537 125.162 40.6721 124.27 40.6721C123.103 40.6721 122.542 40.5066 121.926 39.964C121.696 39.7618 121.401 39.3939 121.273 39.1457C121.052 38.6951 120.776 37.7204 120.776 37.3342V37.1319H126.073H131.378L131.323 35.9089C131.158 32.0928 129.227 29.3618 126.119 28.5709C125.3 28.3595 123.811 28.2767 123.029 28.3962ZM125.447 31.7066C126.192 32.0284 126.781 32.7824 127.029 33.7296C127.084 33.9595 127.148 34.2169 127.176 34.2997C127.222 34.456 127.029 34.4652 124.004 34.4652C121.3 34.4652 120.776 34.4468 120.776 34.3365C120.776 33.987 121.181 32.9847 121.484 32.5893C121.87 32.0928 122.56 31.6514 123.176 31.5227C123.829 31.3847 124.905 31.4767 125.447 31.7066Z" fill="#EFEFE5"/>
<path d="M100.748 36.0927L100.776 43.4306L102.827 43.4582L104.868 43.4766V36.1202V28.7639H102.799H100.73L100.748 36.0927Z" fill="#EFEFE5"/>
</g>
</g>
<defs>
<clipPath id="clip0_3597_33777">
<rect width="93.7011" height="40" fill="white" transform="translate(37.6494 13.5)"/>
</clipPath>
<clipPath id="clip1_3597_33777">
<rect width="93.7011" height="40" fill="white" transform="translate(37.6494 13.5)"/>
</clipPath>
</defs>
</svg>
