<svg width="170" height="66" viewBox="0 0 170 66" fill="none" xmlns="http://www.w3.org/2000/svg">
<g opacity="0.8">
<path d="M37.6895 32.984C37.6895 27.5513 40.668 24.6431 44.2486 24.6431C47.8291 24.6431 50.8076 27.5513 50.8076 32.984C50.8076 38.4487 47.8291 41.3569 44.2486 41.3569C40.668 41.3569 37.6895 38.4487 37.6895 32.984ZM55.4971 32.984C55.4971 25.7936 51.0927 21 44.2486 21C37.4044 21 33 25.7936 33 32.984C33 40.1744 37.4044 45 44.2486 45C51.0927 45 55.4971 40.1744 55.4971 32.984Z" fill="#EFEFE5"/>
<path d="M72.4563 44.5846L78.0964 27.1678V44.5846H82.3107V21.4154H75.6566L70.2383 39.4714L64.6616 21.4154H58.0709V44.5846H62.2851V27.1678L67.9569 44.5846H72.4563Z" fill="#EFEFE5"/>
<path d="M105.141 44.5846V21.4154H100.864V39.0879L91.6749 21.4154H85.7813V44.5846H90.0589V26.9121L99.2479 44.5846H105.141Z" fill="#EFEFE5"/>
<path d="M113.165 21.4154H108.634V44.5846H113.165V21.4154Z" fill="#EFEFE5"/>
<path d="M114.295 44.5846H118.921L120.537 39.8868H129.473L131.089 44.5846H136L127.413 21.4154H122.85L114.295 44.5846ZM125.005 27.008L128.174 36.1478H121.836L125.005 27.008Z" fill="#EFEFE5"/>
</g>
</svg>
