<svg width="170" height="66" viewBox="0 0 170 66" fill="none" xmlns="http://www.w3.org/2000/svg">
<g opacity="0.8">
<path d="M50.5767 33.057C50.5767 31.6362 51.4106 30.4627 52.9544 30.4627C54.2345 30.5056 55.2706 31.6714 55.2706 33.057V41.9812C55.2706 42.0343 55.2811 42.0868 55.3014 42.1358C55.3218 42.1848 55.3516 42.2293 55.3891 42.2668C55.4267 42.3042 55.4713 42.3339 55.5203 42.3541C55.5694 42.3743 55.6219 42.3846 55.675 42.3845H59.7174C59.8243 42.3845 59.9269 42.342 60.0025 42.2664C60.0781 42.1907 60.1206 42.0882 60.1206 41.9812V32.0692C60.1206 28.4553 57.989 26.1072 54.5916 26.1072C52.2435 26.1072 50.6997 27.1269 49.7119 28.2344C49.7086 28.2392 49.7041 28.2431 49.699 28.2458C49.6938 28.2484 49.6881 28.2498 49.6823 28.2498C49.6764 28.2498 49.6707 28.2484 49.6655 28.2458C49.6604 28.2431 49.6559 28.2392 49.6526 28.2344C48.7549 27.0379 47.3342 26.1105 45.2948 26.1105C43.4412 26.1105 41.8666 26.8796 41.0909 28.0169L41.0634 28.0092V26.8818C41.0636 26.8288 41.0533 26.7762 41.0331 26.7272C41.0129 26.6781 40.9832 26.6335 40.9457 26.596C40.9083 26.5584 40.8638 26.5286 40.8148 26.5083C40.7658 26.4879 40.7132 26.4775 40.6602 26.4775H36.6486C36.5424 26.4792 36.4411 26.5225 36.3665 26.5981C36.2919 26.6738 36.25 26.7756 36.2497 26.8818V41.9812C36.2497 42.0882 36.2922 42.1907 36.3678 42.2664C36.4434 42.342 36.546 42.3845 36.6529 42.3845H40.6646C40.7715 42.3845 40.8741 42.342 40.9497 42.2664C41.0253 42.1907 41.0678 42.0882 41.0678 41.9812V33.057C41.0678 31.6362 41.9018 30.4627 43.4159 30.4627C44.7114 30.5056 45.7629 31.6714 45.7629 33.057V41.9812C45.7629 42.0882 45.8054 42.1907 45.881 42.2664C45.9566 42.342 46.0592 42.3845 46.1662 42.3845H50.1778C50.2847 42.3845 50.3873 42.342 50.4629 42.2664C50.5386 42.1907 50.581 42.0882 50.581 41.9812L50.5767 33.057ZM71.8204 41.9812C71.8204 42.0882 71.8629 42.1907 71.9385 42.2664C72.0141 42.342 72.1167 42.3845 72.2237 42.3845H76.0804C76.1873 42.3845 76.2899 42.342 76.3655 42.2664C76.4411 42.1907 76.4836 42.0882 76.4836 41.9812V32.5317C76.4836 28.4553 73.8279 26.1072 69.2877 26.1072C67.6319 26.094 65.3563 26.5742 64.0422 27.2005C63.9753 27.2338 63.9192 27.2853 63.8804 27.349C63.8415 27.4128 63.8214 27.4862 63.8224 27.5609V30.8155C63.8224 30.8842 63.8399 30.9518 63.8734 31.0118C63.9069 31.0718 63.9552 31.1222 64.0137 31.1582C64.0722 31.1942 64.139 31.2147 64.2076 31.2176C64.2763 31.2205 64.3445 31.2057 64.4059 31.1748C65.5431 30.6177 66.843 30.2155 68.2087 30.2155C70.2052 30.176 71.8226 31.2967 71.8226 32.7174V32.8273C71.8235 32.8791 71.8106 32.9302 71.7851 32.9753C71.7596 33.0204 71.7225 33.0578 71.6776 33.0837C71.6328 33.1096 71.5818 33.1231 71.53 33.1226C71.4782 33.1221 71.4275 33.1078 71.3831 33.0811C70.6392 32.6416 69.4152 32.2505 68.1109 32.2505C64.7443 32.2505 61.9644 34.2887 61.9644 37.3774C61.9644 40.7132 64.7443 42.7526 67.956 42.7526C69.8097 42.7526 71.2611 42.0109 71.8171 41.3934L71.8204 41.9812ZM71.8819 37.3806C71.8819 38.6475 70.492 39.3266 69.1647 39.3266C67.7747 39.3266 66.4177 38.6475 66.4177 37.3806C66.4177 36.1456 67.7769 35.4666 69.1647 35.4666C70.492 35.4666 71.8819 36.1456 71.8819 37.3806Z" fill="#EFEFE5"/>
<path d="M28.5583 42.3845H32.5699C32.6768 42.3845 32.7794 42.342 32.855 42.2664C32.9307 42.1907 32.9731 42.0882 32.9731 41.9812V26.8818C32.9731 26.7749 32.9307 26.6723 32.855 26.5967C32.7794 26.5211 32.6768 26.4786 32.5699 26.4786H28.5583C28.4513 26.4786 28.3487 26.5211 28.2731 26.5967C28.1975 26.6723 28.155 26.7749 28.155 26.8818V41.9812C28.155 42.0882 28.1975 42.1907 28.2731 42.2664C28.3487 42.342 28.4513 42.3845 28.5583 42.3845Z" fill="#EFEFE5"/>
<path d="M30.5954 19.0003H30.5284C30.1387 18.9946 29.7518 19.067 29.3905 19.2133C29.0293 19.3596 28.701 19.5769 28.4252 19.8522C28.1493 20.1275 27.9315 20.4554 27.7845 20.8164C27.6375 21.1773 27.5644 21.5641 27.5694 21.9538C27.5679 22.3407 27.6435 22.7239 27.7919 23.0812C27.9403 23.4384 28.1584 23.7625 28.4335 24.0344C28.7086 24.3064 29.0352 24.5207 29.3942 24.665C29.7531 24.8092 30.1372 24.8804 30.524 24.8744H30.591C30.9767 24.8744 31.3586 24.7984 31.715 24.6508C32.0713 24.5032 32.3951 24.2869 32.6678 24.0141C32.9406 23.7414 33.1569 23.4176 33.3045 23.0613C33.4521 22.705 33.5281 22.323 33.5281 21.9374C33.5281 21.5517 33.4521 21.1697 33.3045 20.8134C33.1569 20.4571 32.9406 20.1333 32.6678 19.8606C32.3951 19.5878 32.0713 19.3715 31.715 19.2239C31.3586 19.0763 30.9767 19.0003 30.591 19.0003" fill="#EFEFE5"/>
<path d="M24.1159 37.8718C23.6078 37.3766 22.9377 37.0819 22.2293 37.0422C19.6087 36.9587 19.2307 34.782 19.2307 34.2327C19.2307 33.6338 19.6472 31.5341 22.2249 31.4517C22.9873 31.4053 23.7019 31.0645 24.2178 30.5012C24.7336 29.9379 25.0105 29.1962 24.9898 28.4327C24.9691 27.6691 24.6526 26.9435 24.1069 26.4089C23.5613 25.8744 22.8294 25.5727 22.0656 25.5677H22.0458C21.2815 25.5693 20.5479 25.8689 20.001 26.4028C19.3769 27.0115 19.1142 27.8312 19.1142 28.6366C19.1142 29.3453 18.6451 31.2879 16.4673 31.2879C15.6476 31.2879 14.7873 31.5264 14.1599 32.167C14.1324 32.1944 14.1115 32.2263 14.0862 32.256V32.2439C13.9346 32.401 13.9049 32.2768 13.9071 32.1922V20.343C13.9071 20.2363 13.8648 20.1339 13.7894 20.0583C13.714 19.9827 13.6117 19.9401 13.505 19.9398H9.40325C9.2963 19.9398 9.19373 19.9822 9.11811 20.0579C9.04249 20.1335 9 20.2361 9 20.343V42.0834C9 42.1904 9.04249 42.2929 9.11811 42.3686C9.19373 42.4442 9.2963 42.4867 9.40325 42.4867H13.505C13.6118 42.4864 13.7142 42.4438 13.7898 42.3682C13.8654 42.2927 13.9079 42.1903 13.9082 42.0834V36.3006C13.9082 36.216 13.9357 36.0918 14.0873 36.2489V36.239C14.1115 36.2676 14.1324 36.2973 14.1588 36.3247C14.7862 36.9686 15.6344 37.2038 16.4662 37.2038C18.6451 37.2038 19.1142 39.4013 19.1142 39.8551C19.1142 40.4825 19.3769 41.4802 20.001 42.0889C20.5501 42.6249 21.2872 42.9246 22.0546 42.924C22.8353 42.9254 23.5846 42.6169 24.138 42.0662C24.6914 41.5155 25.0036 40.7677 25.0059 39.987V39.9683C25.0049 39.5765 24.9256 39.1888 24.7728 38.8281C24.62 38.4673 24.3966 38.1407 24.1159 37.8674" fill="#EFEFE5"/>
<path fill-rule="evenodd" clip-rule="evenodd" d="M154.444 23.8891H97.5334C96.1098 23.8891 94.7478 24.4704 93.7628 25.4983L89.2913 30.165C87.3558 32.1849 87.3558 35.3711 89.2913 37.391L93.7628 42.0577C94.7478 43.0856 96.1098 43.6669 97.5334 43.6669H154.444C157.328 43.6669 159.667 41.3288 159.667 38.4447V29.1113C159.667 26.2272 157.329 23.8891 154.444 23.8891ZM97.5334 22.8891C95.8371 22.8891 94.2143 23.5817 93.0407 24.8065L88.5692 29.4731C86.2632 31.8798 86.2632 35.6762 88.5692 38.0828L93.0408 42.7495C94.2144 43.9743 95.8371 44.6669 97.5334 44.6669H154.444C157.881 44.6669 160.667 41.8811 160.667 38.4447V29.1113C160.667 25.6749 157.881 22.8891 154.444 22.8891H97.5334Z" fill="#EFEFE5"/>
<path d="M101.491 38.6115V34.7597C101.491 34.5078 101.474 34.2288 101.441 33.9227C101.407 33.6165 101.328 33.3227 101.204 33.0412C101.084 32.7548 100.902 32.5202 100.658 32.3375C100.418 32.1548 100.093 32.0634 99.6809 32.0634C99.4606 32.0634 99.2427 32.1004 99.0273 32.1745C98.8118 32.2486 98.6155 32.377 98.4383 32.5597C98.2659 32.7375 98.1271 32.9844 98.0217 33.3004C97.9164 33.6115 97.8637 34.0115 97.8637 34.5004L96.8366 34.0486C96.8366 33.3671 96.9635 32.7498 97.2173 32.1967C97.4759 31.6436 97.8541 31.2041 98.3521 30.8782C98.8501 30.5473 99.463 30.3819 100.191 30.3819C100.765 30.3819 101.239 30.4807 101.613 30.6782C101.986 30.8757 102.283 31.1276 102.504 31.4338C102.724 31.7399 102.887 32.0659 102.992 32.4115C103.097 32.7572 103.164 33.0856 103.193 33.3967C103.227 33.7029 103.243 33.9523 103.243 34.1449V38.6115H101.491ZM96.1112 38.6115V30.6115H97.6554V33.093H97.8637V38.6115H96.1112Z" fill="#EFEFE5"/>
<path d="M108.804 38.8338C108.019 38.8338 107.33 38.6585 106.736 38.3078C106.142 37.9572 105.678 37.4708 105.343 36.8486C105.012 36.2264 104.847 35.5103 104.847 34.7004C104.847 33.8264 105.01 33.0683 105.335 32.4264C105.661 31.7794 106.113 31.2782 106.693 30.9227C107.272 30.5671 107.943 30.3893 108.704 30.3893C109.508 30.3893 110.191 30.5844 110.751 30.9745C111.316 31.3597 111.735 31.9054 112.008 32.6115C112.281 33.3177 112.384 34.1498 112.317 35.1078H110.6V34.456C110.595 33.5869 110.447 32.9523 110.155 32.5523C109.863 32.1523 109.403 31.9523 108.776 31.9523C108.067 31.9523 107.54 32.1794 107.196 32.6338C106.851 33.0831 106.678 33.7424 106.678 34.6115C106.678 35.4214 106.851 36.0486 107.196 36.493C107.54 36.9375 108.043 37.1597 108.704 37.1597C109.13 37.1597 109.496 37.0634 109.803 36.8708C110.114 36.6733 110.354 36.3893 110.521 36.019L112.231 36.5523C111.934 37.2733 111.474 37.8338 110.851 38.2338C110.234 38.6338 109.551 38.8338 108.804 38.8338ZM106.133 35.1078V33.7597H111.469V35.1078H106.133Z" fill="#EFEFE5"/>
<path d="M118.752 38.6115C118.24 38.7103 117.737 38.7523 117.244 38.7375C116.756 38.7276 116.317 38.6362 115.93 38.4634C115.542 38.2856 115.247 38.0066 115.046 37.6264C114.869 37.2807 114.776 36.9276 114.766 36.5671C114.756 36.2066 114.752 35.7992 114.752 35.3449V28.3893H116.475V35.2412C116.475 35.5622 116.478 35.8436 116.483 36.0856C116.492 36.3276 116.543 36.5251 116.633 36.6782C116.806 36.9745 117.081 37.1399 117.459 37.1745C117.838 37.2091 118.269 37.1893 118.752 37.1152V38.6115ZM113.344 32.0115V30.6115H118.752V32.0115H113.344Z" fill="#EFEFE5"/>
<path d="M122.359 38.6115L119.989 30.5967L121.684 30.6115L123.199 35.7449L124.736 30.6115H126.194L127.724 35.7449L129.247 30.6115H130.942L128.572 38.6115H127.221L125.462 33.1078L123.709 38.6115H122.359Z" fill="#EFEFE5"/>
<path d="M135.67 38.8338C134.894 38.8338 134.217 38.6535 133.637 38.293C133.058 37.9325 132.608 37.4362 132.287 36.8041C131.971 36.1671 131.813 35.4362 131.813 34.6115C131.813 33.772 131.976 33.0362 132.301 32.4041C132.627 31.772 133.08 31.2782 133.659 30.9227C134.238 30.5671 134.909 30.3893 135.67 30.3893C136.451 30.3893 137.13 30.5696 137.71 30.9301C138.289 31.2906 138.739 31.7893 139.06 32.4264C139.381 33.0585 139.541 33.7869 139.541 34.6115C139.541 35.4412 139.379 36.1745 139.053 36.8115C138.732 37.4436 138.282 37.9399 137.703 38.3004C137.123 38.656 136.446 38.8338 135.67 38.8338ZM135.67 37.1597C136.36 37.1597 136.872 36.9227 137.207 36.4486C137.542 35.9745 137.71 35.3622 137.71 34.6115C137.71 33.8362 137.54 33.219 137.2 32.7597C136.86 32.2955 136.35 32.0634 135.67 32.0634C135.206 32.0634 134.823 32.172 134.521 32.3893C134.224 32.6017 134.004 32.9004 133.86 33.2856C133.716 33.6659 133.645 34.1078 133.645 34.6115C133.645 35.3869 133.815 36.0066 134.155 36.4708C134.499 36.9301 135.004 37.1597 135.67 37.1597Z" fill="#EFEFE5"/>
<path d="M141.41 38.6115V30.6115H142.94V32.5597L142.754 32.3078C142.849 32.0412 142.976 31.7992 143.134 31.5819C143.297 31.3597 143.491 31.177 143.716 31.0338C143.907 30.9004 144.118 30.7967 144.348 30.7227C144.583 30.6436 144.822 30.5967 145.066 30.5819C145.31 30.5622 145.547 30.572 145.777 30.6115V32.2782C145.547 32.2091 145.282 32.1869 144.98 32.2115C144.683 32.2362 144.415 32.3227 144.176 32.4708C143.936 32.6041 143.74 32.7745 143.587 32.9819C143.438 33.1893 143.328 33.4264 143.256 33.693C143.184 33.9548 143.149 34.2387 143.149 34.5449V38.6115H141.41Z" fill="#EFEFE5"/>
<path d="M147.42 38.6115L147.434 27.9449H149.187V34.4634L152.024 30.6115H154.186L151.177 34.6115L154.445 38.6115H152.153L149.187 34.7597V38.6115H147.42Z" fill="#EFEFE5"/>
</g>
</svg>
