<svg width="170" height="66" viewBox="0 0 170 66" fill="none" xmlns="http://www.w3.org/2000/svg">
<g opacity="0.8" clip-path="url(#clip0_3597_33793)">
<path d="M36.7468 28.7514C35.1142 27.7804 33.8315 28.559 33.8315 30.4173V45.7718C33.8315 46.0465 34.0984 46.2421 34.3603 46.1594L38.0385 44.9981C38.2925 44.9179 38.465 44.6899 38.4646 44.4236C38.4616 42.0756 38.4473 31.0941 38.4473 30.3614C38.4473 30.3614 37.8406 29.6328 37.7156 29.5079C37.2685 29.0201 36.7468 28.7514 36.7468 28.7514Z" fill="#EFEFE5"/>
<path d="M36.7468 28.7514C35.1142 27.7804 33.8315 28.559 33.8315 30.4173V45.7718C33.8315 46.0465 34.0984 46.2421 34.3603 46.1594L38.0385 44.9981C38.2925 44.9179 38.465 44.6899 38.4646 44.4236C38.4616 42.0756 38.4473 31.0941 38.4473 30.3614C38.4473 30.3614 37.8406 29.6328 37.7156 29.5079C37.2685 29.0201 36.7468 28.7514 36.7468 28.7514Z" fill="#EFEFE5"/>
<path d="M42.696 13.2688C42.3444 13.0693 41.9316 13.0245 41.543 13.1357C39.9347 13.5959 37.4867 14.3186 37.4867 14.3186L32.6557 15.6693C31.6701 15.9461 29.9528 16.4299 28.9022 16.7346C28.5585 16.8343 28.5033 17.2971 28.8133 17.4761L39.6416 23.7305C41.997 25.2447 45.2439 28.8542 45.4542 33.3873C45.4542 39.7968 45.4698 50.0337 45.4739 52.5151C45.4743 52.7902 45.7422 52.9843 46.0043 52.9004L49.6811 51.7232C49.9339 51.6422 50.1054 51.4145 50.1048 51.149C50.1005 48.8685 50.0806 38.2192 50.0806 31.8311C50.0806 27.6504 46.0346 23.209 44.2681 22.351C43.0396 21.6479 40.6869 20.2858 38.4161 18.9727C38.3538 18.9367 38.2873 18.9056 38.2331 18.8668C37.4444 18.3037 37.5106 17.4716 38.4267 16.9427C39.3842 16.3899 40.945 16.3604 41.9196 16.8826C41.9416 16.8943 41.9633 16.9064 41.9846 16.9187C42.0054 16.9307 42.0258 16.9429 42.0457 16.9553C44.5578 18.4044 47.4873 20.0955 49.118 21.0419C51.4733 22.556 54.731 26.1632 54.9412 30.6964C54.9412 37.118 54.9697 47.3359 54.9768 49.781C54.9776 50.0511 55.2366 50.2448 55.496 50.1699L59.1516 49.1142C59.4129 49.0386 59.5926 48.8068 59.5921 48.5347C59.5876 46.2162 59.5677 35.5185 59.5677 29.1401C59.5677 25.0001 55.5116 20.5856 53.7552 19.6601C51.3617 18.2902 44.7043 14.4081 42.696 13.2688Z" fill="#EFEFE5"/>
<path d="M71.3954 44.5204H67.1279V28.5969H71.3635V29.4886C72.8073 28.6393 74.1342 28.2147 75.3444 28.2147C77.4675 28.2147 78.9325 28.841 79.7393 30.0937C80.5461 31.3463 80.9495 33.2784 80.9495 35.8899V44.5204H76.682V36.0172C76.682 34.6584 76.5228 33.6606 76.2042 33.0236C75.8858 32.3654 75.2489 32.0364 74.2935 32.0364C73.4229 32.0364 72.5844 32.185 71.7776 32.4822L71.3954 32.6096V44.5204ZM92.5334 28.5969H96.8008V44.5204H92.5652V43.6286C91.0365 44.478 89.7096 44.9026 88.5843 44.9026C86.3762 44.9026 84.89 44.2975 84.1257 43.0873C83.3614 41.8558 82.9793 39.8071 82.9793 36.9408V28.5969H87.2467V37.0045C87.2467 38.5756 87.3741 39.6478 87.6289 40.221C87.8837 40.7942 88.4994 41.0809 89.4761 41.0809C90.4102 41.0809 91.2913 40.9323 92.1193 40.6351L92.5334 40.5077V28.5969ZM103.417 44.5204H99.1491V22.2275H103.417V34.9026L105.041 34.616L108.194 28.5969H112.971L108.831 36.1446L113.194 44.5204H108.385L105.168 38.3102L103.417 38.5968V44.5204ZM114.138 44.5204V22.2275H118.405V44.5204H114.138ZM133.136 33.5651V40.1892C133.178 40.6987 133.263 41.0597 133.39 41.272C133.518 41.4631 133.783 41.6011 134.187 41.686L134.059 44.9026C132.976 44.9026 132.106 44.8283 131.448 44.6797C130.81 44.531 130.163 44.2337 129.505 43.7879C127.977 44.531 126.416 44.9026 124.824 44.9026C121.533 44.9026 119.887 43.1616 119.887 39.6797C119.887 37.9812 120.344 36.7815 121.257 36.0809C122.17 35.3591 123.571 34.9344 125.46 34.807L128.868 34.5522V33.5651C128.868 32.9069 128.72 32.461 128.422 32.2274C128.125 31.9727 127.647 31.8453 126.989 31.8453L121.002 32.1L120.874 29.1383C123.146 28.5226 125.301 28.2147 127.339 28.2147C129.399 28.2147 130.875 28.6393 131.766 29.4886C132.679 30.3378 133.136 31.6966 133.136 33.5651ZM125.97 37.7688C124.781 37.875 124.186 38.5119 124.186 39.6797C124.186 40.8473 124.707 41.4312 125.747 41.4312C126.554 41.4312 127.435 41.3038 128.39 41.049L128.868 40.9216V37.514L125.97 37.7688ZM135.611 44.5204V28.5969H139.879V44.5204H135.611ZM135.611 26.5587V22.2275H139.879V26.5587H135.611Z" fill="#EFEFE5"/>
</g>
<defs>
<clipPath id="clip0_3597_33793">
<rect width="112" height="40" fill="white" transform="translate(28 13)"/>
</clipPath>
</defs>
</svg>
