<svg width="170" height="66" viewBox="0 0 170 66" fill="none" xmlns="http://www.w3.org/2000/svg">
<g opacity="0.8" clip-path="url(#clip0_3597_13199)">
<path d="M52.0378 27.7623C49.1678 30.0583 48.7373 34.2914 51.0333 37.1614C53.3292 40.0314 57.5624 40.4618 60.4324 38.1659C63.3023 35.8699 63.7328 31.6367 61.4369 28.7668C59.1409 25.8968 54.9077 25.4663 52.0378 27.7623Z" fill="#EFEFE5"/>
<path d="M46.011 43.1882C44.576 44.3362 44.4325 46.4169 45.5805 47.7801C46.7285 49.2151 48.8092 49.3586 50.1724 48.2106C51.6074 47.0626 51.7509 44.9819 50.6029 43.6187C49.5267 42.1837 47.446 42.0402 46.011 43.1882Z" fill="#EFEFE5"/>
<path d="M50.1724 22.8117C51.6074 21.6637 51.7509 19.583 50.6029 18.2197C49.4549 16.7848 47.3742 16.6413 46.011 17.7892C44.576 18.9372 44.4325 21.018 45.5805 22.3812C46.7285 23.7444 48.8092 23.9597 50.1724 22.8117Z" fill="#EFEFE5"/>
<path d="M34.2443 30.1299C35.8945 30.7757 37.76 30.4169 39.0515 29.3407C40.1994 28.4797 41.7779 28.1927 43.2129 28.7667C44.1456 29.1255 44.9349 29.7712 45.4371 30.4887L45.5089 30.6322C45.7241 30.9909 46.0828 31.2779 46.5133 31.4214C47.5178 31.7802 48.6658 31.2779 49.0963 30.2734C49.455 29.269 48.9528 28.121 47.9483 27.6905C47.5178 27.547 47.0156 27.547 46.5851 27.6905C45.6524 27.9775 44.6479 27.9775 43.7151 27.6187C42.3519 27.1165 41.3474 25.9685 40.9169 24.677L40.8452 24.5335C40.8452 24.4618 40.8452 24.4618 40.7734 24.39V24.3183C40.4147 22.7398 39.2667 21.3766 37.6882 20.8026C35.1053 19.8699 32.3071 21.1613 31.3026 23.7443C30.3698 26.3272 31.6613 29.1972 34.2443 30.1299Z" fill="#EFEFE5"/>
<path d="M46.5851 38.3096C46.5851 38.2379 46.5851 38.2379 46.5851 38.3096C47.0156 38.4531 47.5178 38.4531 47.9483 38.3096C48.9528 37.9509 49.5268 36.8029 49.0963 35.7267C48.7376 34.7222 47.5896 34.1482 46.5133 34.5787C46.0828 34.7222 45.7241 35.0092 45.5089 35.3679L45.4371 35.5114C44.9349 36.3007 44.1456 36.9464 43.2129 37.2334C41.7779 37.7356 40.1994 37.5204 39.0515 36.6594C37.76 35.5832 35.9663 35.2962 34.2443 35.8702C31.6613 36.8029 30.3698 39.6729 31.3026 42.2558C32.2353 44.8388 35.1053 46.1303 37.6882 45.1975C39.3385 44.6235 40.4147 43.2603 40.7734 41.6818V41.6101C40.7734 41.5383 40.7734 41.5383 40.8452 41.4666L40.9169 41.3231C41.3474 40.0316 42.2802 38.8836 43.7151 38.3814C44.6479 37.9509 45.6524 37.9509 46.5851 38.3096Z" fill="#EFEFE5"/>
<path d="M118.549 17H113.168V48.9282H118.549V17Z" fill="#EFEFE5"/>
<path d="M134.693 34.0045V28.6233H128.451V25.4664C128.451 23.7444 129.814 22.3812 131.536 22.3094H134.621V17H131.464C126.8 17 122.998 20.8027 122.998 25.4664V28.6233H119.913V34.0045H122.998V49H128.379V34.0045H134.693Z" fill="#EFEFE5"/>
<path d="M137.634 43.6187H132.253V48.9998H137.634V43.6187Z" fill="#EFEFE5"/>
<path d="M100.11 25.7534C97.2397 25.7534 94.585 26.8297 92.576 28.5516V25.7534H88.5581V28.6234C86.5491 26.9014 83.8944 25.8252 81.0245 25.8252C74.6388 25.8252 69.4729 30.9911 69.4729 37.3767C69.4729 43.7624 74.6388 48.9283 81.0245 48.9283C83.8944 48.9283 86.5491 47.8521 88.5581 46.1301V48.9283H92.576V46.1301C94.585 47.8521 97.2397 48.9283 100.11 48.9283C103.338 48.9283 106.208 47.6368 108.289 45.5561L105.276 42.5427C104.056 43.5471 102.549 44.1929 100.827 44.1929C97.7419 44.1929 95.159 42.1839 94.298 39.4575H111.59C111.733 38.8117 111.733 38.166 111.733 37.4485C111.733 30.9911 106.567 25.7534 100.11 25.7534ZM81.6702 44.2646C77.8675 44.2646 74.7823 41.1794 74.7823 37.3767C74.7823 33.574 77.8675 30.4888 81.6702 30.4888C85.4729 30.4888 88.5581 33.574 88.5581 37.3767C88.5581 41.1794 85.4729 44.2646 81.6702 44.2646ZM94.2263 35.3678C95.0155 32.4978 97.6702 30.3453 100.827 30.3453C103.984 30.3453 106.639 32.4978 107.428 35.3678H94.2263Z" fill="#EFEFE5"/>
</g>
<defs>
<clipPath id="clip0_3597_13199">
<rect width="107" height="32" fill="white" transform="translate(31 17)"/>
</clipPath>
</defs>
</svg>
