<svg width="170" height="66" viewBox="0 0 170 66" fill="none" xmlns="http://www.w3.org/2000/svg">
<g opacity="0.8" clip-path="url(#clip0_3597_33854)">
<path fill-rule="evenodd" clip-rule="evenodd" d="M36.8189 11.7461H53.1251C60.5219 11.7461 66.5182 17.7424 66.5182 25.1392V41.3744C66.5182 48.7712 60.5219 54.7675 53.1251 54.7675H36.8189C29.4221 54.7675 23.4258 48.7712 23.4258 41.3744V25.1392C23.4258 17.7424 29.4221 11.7461 36.8189 11.7461ZM44.8502 22.0937C44.6293 22.1094 44.1267 22.2514 43.5072 22.7374C42.4388 23.6554 39.6126 26.8197 36.8554 32.1327C34.8679 35.3284 32.9987 42.2532 41.422 44.3867V40.3253C41.491 39.1865 42.294 36.9123 44.9548 36.9262V36.9154C47.5605 36.9601 48.352 39.1881 48.4208 40.3112V44.3695C56.9344 42.2376 55.0452 35.3181 53.0364 32.125C50.2496 26.8161 47.3931 23.6542 46.3132 22.7369C45.686 22.2505 45.1774 22.1089 44.9548 22.0936V22.0924H44.9292L44.8502 22.0937ZM44.8502 22.0937V22.0924H44.8765C44.8859 22.0921 44.8947 22.0922 44.9027 22.0924L44.8502 22.0937ZM48.4733 31.7589C48.4733 33.6924 46.9059 35.2599 44.9724 35.2599C43.0389 35.2599 41.4714 33.6924 41.4714 31.7589C41.4714 29.8254 43.0389 28.258 44.9724 28.258C46.9059 28.258 48.4733 29.8254 48.4733 31.7589Z" fill="#EFEFE5"/>
<path d="M74.845 41.7277L80.9554 26.2861H84.1319L90.1983 41.7277H86.4041L83.4922 33.8966C83.3746 33.5877 83.2569 33.2569 83.1393 32.9039C83.0216 32.551 82.904 32.1906 82.7863 31.8231C82.6686 31.4406 82.551 31.073 82.4333 30.7201C82.3304 30.3524 82.2422 30.0142 82.1687 29.7053L82.8304 29.6833C82.7422 30.0509 82.6393 30.4112 82.5216 30.7642C82.4187 31.1171 82.3083 31.4701 82.1907 31.8231C82.0878 32.1613 81.9701 32.5069 81.8378 32.8598C81.7054 33.1981 81.5804 33.551 81.4628 33.9187L78.5509 41.7277H74.845ZM77.7568 38.7717L78.926 35.9482H86.0291L87.1762 38.7717H77.7568ZM92.3455 41.7277V26.2861H96.0955V38.4188H102.978V41.7277H92.3455ZM104.045 41.7277L110.156 26.2861H113.332L119.399 41.7277H115.604L112.693 33.8966C112.575 33.5877 112.457 33.2569 112.34 32.9039C112.222 32.551 112.104 32.1906 111.987 31.8231C111.869 31.4406 111.751 31.073 111.634 30.7201C111.531 30.3524 111.442 30.0142 111.369 29.7053L112.031 29.6833C111.943 30.0509 111.84 30.4112 111.722 30.7642C111.619 31.1171 111.509 31.4701 111.391 31.8231C111.288 32.1613 111.17 32.5069 111.038 32.8598C110.906 33.1981 110.781 33.551 110.663 33.9187L107.751 41.7277H104.045ZM106.957 38.7717L108.126 35.9482H115.229L116.376 38.7717H106.957ZM123.772 41.7277V34.029L123.926 35.1099L117.684 26.2861H121.941L126.706 33.1245L124.765 33.0584L129.067 26.2861H133.191L127.214 35.3525L127.544 33.8525V41.7277H123.772ZM131.479 41.7277L137.589 26.2861H140.766L146.832 41.7277H143.038L140.126 33.8966C140.008 33.5877 139.892 33.2569 139.774 32.9039C139.656 32.551 139.539 32.1906 139.421 31.8231C139.303 31.4406 139.186 31.073 139.068 30.7201C138.965 30.3524 138.877 30.0142 138.803 29.7053L139.465 29.6833C139.376 30.0509 139.274 30.4112 139.156 30.7642C139.053 31.1171 138.943 31.4701 138.825 31.8231C138.722 32.1613 138.604 32.5069 138.472 32.8598C138.339 33.1981 138.215 33.551 138.097 33.9187L135.185 41.7277H131.479ZM134.391 38.7717L135.56 35.9482H142.664L143.81 38.7717H134.391Z" fill="#EFEFE5"/>
</g>
<defs>
<clipPath id="clip0_3597_33854">
<rect width="124" height="44" fill="white" transform="translate(23 11)"/>
</clipPath>
</defs>
</svg>
