<svg width="170" height="66" viewBox="0 0 170 66" fill="none" xmlns="http://www.w3.org/2000/svg">
<g opacity="0.8" clip-path="url(#clip0_3597_33821)">
<path fill-rule="evenodd" clip-rule="evenodd" d="M31.3744 14.4953C31.7834 14.4953 32.1151 14.1606 32.1151 13.7477C32.1151 13.3347 31.7834 13 31.3744 13C30.9653 13 30.6336 13.3347 30.6336 13.7477C30.6336 14.1606 30.9653 14.4953 31.3744 14.4953ZM31.3757 20.1028C32.194 20.1028 32.8572 19.2659 32.8572 18.2336C32.8572 17.2013 32.194 16.3645 31.3757 16.3645C30.5575 16.3645 29.8943 17.2013 29.8943 18.2336C29.8943 19.2659 30.5575 20.1028 31.3757 20.1028ZM23.9254 20.3016C24.667 20.6506 25.6185 20.1751 26.0508 19.2395C26.483 18.3039 26.2322 17.2625 25.4907 16.9135C24.7491 16.5645 23.7977 17.04 23.3654 17.9756C22.9332 18.9112 23.1839 19.9525 23.9254 20.3016ZM19.1773 20.6902C18.5199 21.481 17.4789 21.6917 16.8522 21.1609C16.2254 20.63 16.2502 19.5586 16.9076 18.7678C17.565 17.977 18.606 17.7663 19.2328 18.2971C19.8596 18.828 19.8347 19.8994 19.1773 20.6902ZM15.7398 27.8898C16.3666 28.4207 17.4076 28.21 18.065 27.4192C18.7224 26.6284 18.7472 25.557 18.1204 25.0261C17.4937 24.4953 16.4526 24.706 15.7952 25.4967C15.1378 26.2876 15.113 27.359 15.7398 27.8898ZM18.0659 38.9547C18.7233 39.7455 18.7481 40.8169 18.1213 41.3477C17.4946 41.8786 16.4536 41.6679 15.7962 40.877C15.1388 40.0863 15.1139 39.0148 15.7407 38.484C16.3675 37.9532 17.4085 38.1639 18.0659 38.9547ZM38.8232 20.3015C39.5647 19.9525 39.8155 18.9111 39.3833 17.9755C38.9511 17.0399 37.9995 16.5644 37.258 16.9134C36.5164 17.2624 36.2656 18.3038 36.698 19.2394C37.1302 20.175 38.0816 20.6505 38.8232 20.3015ZM45.8419 18.7678C46.4994 19.5586 46.5242 20.63 45.8974 21.1608C45.2706 21.6917 44.2296 21.481 43.5722 20.6902C42.9148 19.8993 42.8899 18.8279 43.5167 18.2971C44.1435 17.7662 45.1845 17.977 45.8419 18.7678ZM47.0085 27.8898C47.6353 27.359 47.6105 26.2875 46.953 25.4967C46.2956 24.706 45.2546 24.4952 44.6278 25.0261C44.001 25.557 44.0259 26.6283 44.6833 27.4192C45.3407 28.21 46.3817 28.4206 47.0085 27.8898ZM46.9541 40.8771C46.2968 41.6679 45.2558 41.8786 44.629 41.3478C44.0023 40.8169 44.027 39.7455 44.6845 38.9547C45.3418 38.1639 46.3829 37.9532 47.0097 38.484C47.6365 39.0149 47.6116 40.0863 46.9541 40.8771ZM26.7142 14.6502C26.2803 15.0882 25.694 15.2065 25.4048 14.9146C25.1154 14.6226 25.2328 14.0308 25.6666 13.5928C26.1005 13.1549 26.6868 13.0365 26.9761 13.3285C27.2653 13.6205 27.1481 14.2122 26.7142 14.6502ZM20.2525 16.0841C20.4059 16.3523 20.9611 16.3187 21.4925 16.009C22.0239 15.6993 22.3304 15.2308 22.177 14.9626C22.0236 14.6944 21.4684 14.7281 20.937 15.0377C20.4055 15.3474 20.0991 15.8159 20.2525 16.0841ZM37.0833 13.5928C37.5173 14.0308 37.6345 14.6225 37.3452 14.9145C37.056 15.2065 36.4697 15.0881 36.0357 14.6502C35.6018 14.2122 35.4846 13.6204 35.7738 13.3284C36.0632 13.0365 36.6494 13.1548 37.0833 13.5928ZM42.5467 16.2711C42.7002 16.0029 42.3937 15.5344 41.8623 15.2247C41.3308 14.915 40.7756 14.8814 40.6223 15.1495C40.4688 15.4178 40.7753 15.8862 41.3067 16.1959C41.8382 16.5056 42.3933 16.5393 42.5467 16.2711ZM29.8921 47.6219C29.8921 46.5896 30.5553 45.7527 31.3735 45.7527C32.1917 45.7527 32.8551 46.5896 32.8551 47.6219C32.8551 48.6542 32.1917 49.491 31.3735 49.491C30.5553 49.491 29.8921 48.6542 29.8921 47.6219ZM38.8234 45.554C38.0819 45.205 37.1304 45.6805 36.6982 46.6161C36.266 47.5517 36.5167 48.593 37.2582 48.9421C37.9997 49.2911 38.9513 48.8156 39.3835 47.88C39.8157 46.9445 39.5649 45.903 38.8234 45.554ZM43.5719 45.1654C44.2294 44.3746 45.2704 44.1638 45.8971 44.6947C46.5239 45.2256 46.499 46.2969 45.8417 47.0878C45.1843 47.8786 44.1433 48.0892 43.5165 47.5585C42.8897 47.0276 42.9146 45.9561 43.5719 45.1654ZM23.9253 45.554C23.1838 45.9031 22.933 46.9445 23.3652 47.8801C23.7974 48.8157 24.749 49.2912 25.4905 48.9421C26.232 48.5931 26.4828 47.5517 26.0505 46.6161C25.6183 45.6806 24.6669 45.205 23.9253 45.554ZM16.9074 47.0878C16.25 46.297 16.2251 45.2256 16.8519 44.6947C17.4787 44.1639 18.5197 44.3746 19.1771 45.1655C19.8345 45.9562 19.8593 47.0277 19.2326 47.5585C18.6058 48.0893 17.5648 47.8786 16.9074 47.0878ZM31.375 51.5047C30.9659 51.5047 30.6342 51.8394 30.6342 52.2523C30.6342 52.6652 30.9659 53 31.375 53C31.7841 53 32.1156 52.6652 32.1156 52.2523C32.1156 51.8394 31.7841 51.5047 31.375 51.5047ZM36.0351 51.2053C36.4691 50.7673 37.0553 50.649 37.3445 50.941C37.6338 51.233 37.5166 51.8248 37.0826 52.2627C36.6487 52.7007 36.0625 52.819 35.7732 52.5271C35.484 52.2351 35.6012 51.6433 36.0351 51.2053ZM42.4968 49.5237C42.3434 49.2555 41.7882 49.2891 41.2568 49.5989C40.7254 49.9086 40.4189 50.377 40.5723 50.6452C40.7257 50.9135 41.2809 50.8798 41.8123 50.5701C42.3437 50.2604 42.6502 49.7919 42.4968 49.5237ZM25.666 52.2627C25.2321 51.8248 25.1148 51.233 25.4041 50.941C25.6933 50.649 26.2796 50.7673 26.7135 51.2053C27.1474 51.6433 27.2646 52.2351 26.9754 52.5271C26.6861 52.819 26.0999 52.7007 25.666 52.2627ZM20.2018 49.4481C20.0483 49.7163 20.3548 50.1849 20.8862 50.4946C21.4177 50.8042 21.9728 50.8379 22.1262 50.5697C22.2796 50.3014 21.9732 49.833 21.4418 49.5233C20.9103 49.2136 20.3552 49.18 20.2018 49.4481ZM26.1893 32.8131C26.1893 34.0518 25.1944 35.056 23.9672 35.056C22.74 35.056 21.745 34.0518 21.745 32.8131C21.745 31.5743 22.74 30.5701 23.9672 30.5701C25.1944 30.5701 26.1893 31.5743 26.1893 32.8131ZM16.9305 34.6823C17.9532 34.6823 18.7823 33.9291 18.7823 32.9999C18.7823 32.0709 17.9532 31.3177 16.9305 31.3177C15.9078 31.3177 15.0787 32.0709 15.0787 32.9999C15.0787 33.9291 15.9078 34.6823 16.9305 34.6823ZM12.8567 32.9999C12.8567 33.5162 12.5251 33.9346 12.116 33.9346C11.7069 33.9346 11.3752 33.5162 11.3752 32.9999C11.3752 32.4838 11.7069 32.0654 12.116 32.0654C12.5251 32.0654 12.8567 32.4838 12.8567 32.9999ZM11.7706 38.2403C11.9295 38.8385 12.3786 39.2369 12.7737 39.13C13.1689 39.0231 13.3605 38.4515 13.2016 37.8532C13.0428 37.2549 12.5937 36.8566 12.1986 36.9635C11.8034 37.0703 11.6118 37.6419 11.7706 38.2403ZM15.1229 43.6997C14.8336 43.9916 14.2474 43.8732 13.8135 43.4352C13.3795 42.9974 13.2623 42.4056 13.5516 42.1136C13.8408 41.8216 14.4271 41.9399 14.861 42.3779C15.2949 42.8159 15.4122 43.4077 15.1229 43.6997ZM13.2028 28.1468C13.3616 27.5485 13.17 26.9768 12.7749 26.87C12.3797 26.7632 11.9306 27.1615 11.7718 27.7597C11.613 28.3581 11.8046 28.9297 12.1997 29.0366C12.5949 29.1434 13.044 28.7451 13.2028 28.1468ZM15.1231 22.3004C15.4124 22.5924 15.2952 23.1841 14.8613 23.6221C14.4273 24.0601 13.8411 24.1784 13.5518 23.8865C13.2626 23.5945 13.3798 23.0027 13.8137 22.5648C14.2476 22.1268 14.8339 22.0084 15.1231 22.3004ZM38.7815 35.056C40.0087 35.056 41.0036 34.0518 41.0036 32.8131C41.0036 31.5743 40.0087 30.5701 38.7815 30.5701C37.5543 30.5701 36.5593 31.5743 36.5593 32.8131C36.5593 34.0518 37.5543 35.056 38.7815 35.056ZM47.6695 32.9999C47.6695 33.9291 46.8404 34.6823 45.8177 34.6823C44.7949 34.6823 43.9658 33.9291 43.9658 32.9999C43.9658 32.0709 44.7949 31.3177 45.8177 31.3177C46.8404 31.3177 47.6695 32.0709 47.6695 32.9999ZM50.6344 33.9346C51.0435 33.9346 51.3751 33.5162 51.3751 32.9999C51.3751 32.4838 51.0435 32.0654 50.6344 32.0654C50.2253 32.0654 49.8937 32.4838 49.8937 32.9999C49.8937 33.5162 50.2253 33.9346 50.6344 33.9346ZM50.5515 36.9634C50.9466 37.0703 51.1381 37.6419 50.9794 38.2403C50.8206 38.8385 50.3715 39.2369 49.9762 39.13C49.5811 39.0231 49.3896 38.4515 49.5484 37.8532C49.7071 37.2549 50.1562 36.8566 50.5515 36.9634ZM48.9344 43.4352C49.3683 42.9972 49.4855 42.4055 49.1963 42.1136C48.9069 41.8216 48.3207 41.9399 47.8868 42.3779C47.4529 42.8158 47.3356 43.4076 47.6249 43.6996C47.9141 43.9916 48.5005 43.8732 48.9344 43.4352ZM50.5502 29.0366C50.1551 29.1435 49.706 28.7451 49.5473 28.1468C49.3884 27.5485 49.5799 26.9768 49.9751 26.87C50.3702 26.7632 50.8194 27.1615 50.9782 27.7597C51.137 28.3581 50.9455 28.9297 50.5502 29.0366ZM47.8886 23.6222C48.3225 24.0602 48.9088 24.1785 49.198 23.8865C49.4874 23.5945 49.37 23.0028 48.9361 22.5648C48.5023 22.1268 47.916 22.0085 47.6267 22.3005C47.3375 22.5925 47.4547 23.1842 47.8886 23.6222ZM26.1202 39.7576C26.4379 40.9541 25.8144 42.1624 24.7278 42.4562C23.6411 42.7502 22.5027 42.0185 22.1851 40.8219C21.8674 39.6254 22.4909 38.417 23.5775 38.1232C24.6642 37.8293 25.8025 38.561 26.1202 39.7576ZM38.0203 42.4562C39.1069 42.7501 40.2453 42.0185 40.5629 40.8219C40.8806 39.6253 40.2572 38.417 39.1705 38.1232C38.0838 37.8293 36.9455 38.561 36.6278 39.7576C36.3102 40.9541 36.9336 42.1624 38.0203 42.4562Z" fill="url(#paint0_radial_3597_33821)"/>
<path fill-rule="evenodd" clip-rule="evenodd" d="M24.4584 28.0918C24.8554 28.0918 25.2289 27.9907 25.555 27.8125C26.2483 27.434 26.9425 26.9299 27.7323 26.9299H28.0544C28.6449 26.9299 29.2095 27.2557 29.632 27.6682C29.9849 28.0127 30.2678 28.4348 30.3466 28.9215L30.3564 28.9825C30.4203 29.3778 30.4223 29.7804 30.3621 30.1762L30.3571 30.2095C30.2718 30.7714 29.8985 31.2379 29.5519 31.6883C29.2495 32.0814 29.0695 32.575 29.0695 33.111C29.0695 33.3756 29.1134 33.63 29.1943 33.867C29.5258 34.839 30.2223 35.7554 30.2223 36.7824C30.2223 37.8095 29.5258 38.726 29.1943 39.698C29.1134 39.935 29.0695 40.1893 29.0695 40.454C29.0695 41.7373 30.1017 42.7776 31.375 42.7776C32.6484 42.7776 33.6806 41.7373 33.6806 40.454C33.6806 40.1893 33.6367 39.935 33.5558 39.698C33.2242 38.726 32.5278 37.8095 32.5278 36.7824C32.5278 35.7554 33.2242 34.839 33.5558 33.867C33.6367 33.63 33.6806 33.3756 33.6806 33.111C33.6806 32.575 33.5006 32.0814 33.1981 31.6883C32.8516 31.2379 32.4782 30.7714 32.3929 30.2095L32.3879 30.1762C32.3278 29.7804 32.3298 29.3778 32.3937 28.9825L32.4035 28.9215C32.4822 28.4348 32.7651 28.0127 33.118 27.6682C33.5406 27.2557 34.1051 26.9299 34.6957 26.9299H35.0178C35.8076 26.9299 36.5018 27.434 37.195 27.8125C37.5211 27.9907 37.8947 28.0918 38.2917 28.0918C39.565 28.0918 40.5972 27.0514 40.5972 25.768C40.5972 24.4847 39.565 23.4443 38.2917 23.4443C37.8947 23.4443 37.5211 23.5455 37.195 23.7236C36.5018 24.1021 35.8076 24.6062 35.0178 24.6062C34.228 24.6062 33.4912 24.138 32.7821 23.7905C32.3342 23.571 31.8194 23.4443 31.375 23.4443C30.9307 23.4443 30.4158 23.571 29.9679 23.7905C29.2588 24.138 28.522 24.6062 27.7323 24.6062C26.9425 24.6062 26.2483 24.1021 25.555 23.7236C25.2289 23.5455 24.8554 23.4443 24.4584 23.4443C23.1851 23.4443 22.1528 24.4847 22.1528 25.768C22.1528 27.0514 23.1851 28.0918 24.4584 28.0918Z" fill="#EFEFE5"/>
<path d="M69.5045 46.1003H65.1714C65.0588 46.1003 65.0025 46.0378 65.0025 45.9127V24.0028H60.0128C59.8877 24.0028 59.8252 23.9403 59.8252 23.8153L59.8627 19.5196C59.8627 19.4195 59.9127 19.3695 60.0128 19.3695H74.6068C74.7444 19.3695 74.8132 19.4195 74.8132 19.5196V23.8153C74.8132 23.9403 74.7632 24.0028 74.6631 24.0028H69.6171L69.6546 45.9127C69.6546 46.0378 69.6046 46.1003 69.5045 46.1003ZM73.0686 45.9127L77.8333 19.5196C77.8583 19.4195 77.9208 19.3695 78.0209 19.3695H83.5922C83.6922 19.3695 83.7547 19.4195 83.7797 19.5196L88.3568 45.9127C88.3693 46.0378 88.3193 46.1003 88.2067 46.1003H83.9486C83.8235 46.1003 83.7547 46.0378 83.7422 45.9127L83.3296 43.0989H78.0959L77.6833 45.9127C77.6707 46.0378 77.6082 46.1003 77.4957 46.1003H73.2187C73.1187 46.1003 73.0686 46.0378 73.0686 45.9127ZM80.5908 28.2047L78.865 38.9909H82.5604L80.9848 28.2047L80.7596 26.7791L80.5908 28.2047ZM95.2599 46.1003H90.9079C90.8079 46.1003 90.7579 46.0378 90.7579 45.9127L90.833 19.5196C90.833 19.4195 90.8829 19.3695 90.9829 19.3695H98.749C100.137 19.3695 101.413 19.7072 102.576 20.3825C103.739 21.0578 104.664 21.9644 105.352 23.1024C106.052 24.2405 106.402 25.5285 106.402 26.9667C106.402 27.9046 106.259 28.755 105.971 29.5178C105.683 30.2807 105.346 30.9247 104.958 31.4499C104.583 31.9752 104.239 32.3628 103.926 32.6129C105.314 34.1512 106.009 35.9582 106.009 38.0342L106.046 45.9127C106.046 46.0378 105.983 46.1003 105.858 46.1003H101.506C101.406 46.1003 101.356 46.0628 101.356 45.9878V38.0342C101.356 37.1087 101.031 36.3084 100.381 35.6331C99.7306 34.9578 98.9303 34.6201 97.9799 34.6201H95.4475L95.41 45.9127C95.41 46.0378 95.36 46.1003 95.2599 46.1003ZM98.749 23.9653H95.4475V30.0055H98.749C99.5369 30.0055 100.237 29.7116 100.85 29.1239C101.475 28.5362 101.788 27.817 101.788 26.9667C101.788 26.1538 101.488 25.4535 100.887 24.8657C100.287 24.2655 99.5743 23.9653 98.749 23.9653ZM115.819 46.4755C114.456 46.4755 113.199 46.1253 112.049 45.425C110.911 44.7246 109.998 43.793 109.31 42.63C108.635 41.4545 108.297 40.1663 108.297 38.7657V37.0024C108.297 36.8649 108.36 36.7961 108.485 36.7961H112.799C112.899 36.7961 112.949 36.8649 112.949 37.0024V38.7657C112.949 39.6036 113.23 40.329 113.793 40.9417C114.356 41.542 115.031 41.8421 115.819 41.8421C116.62 41.8421 117.301 41.5358 117.864 40.9229C118.427 40.2977 118.708 39.5786 118.708 38.7657C118.708 37.8279 118.095 37.0087 116.87 36.3084C116.67 36.1834 116.407 36.0333 116.082 35.8582C115.769 35.6706 115.394 35.458 114.956 35.2204C114.519 34.9828 114.093 34.7514 113.681 34.5264C113.268 34.2887 112.868 34.0636 112.48 33.851C111.08 33.0257 110.035 31.9939 109.348 30.7559C108.672 29.5053 108.335 28.1047 108.335 26.554C108.335 25.1284 108.685 23.8403 109.385 22.6898C110.085 21.5517 110.998 20.6513 112.124 19.9885C113.262 19.3132 114.494 18.9756 115.819 18.9756C117.182 18.9756 118.433 19.3132 119.571 19.9885C120.709 20.6764 121.616 21.5893 122.291 22.7273C122.979 23.8653 123.323 25.1409 123.323 26.554V29.7054C123.323 29.8054 123.273 29.8555 123.172 29.8555H118.858C118.758 29.8555 118.708 29.8054 118.708 29.7054L118.67 26.554C118.67 25.6536 118.389 24.922 117.826 24.3593C117.264 23.7965 116.594 23.5151 115.819 23.5151C115.031 23.5151 114.356 23.8153 113.793 24.4155C113.23 25.0158 112.949 25.7286 112.949 26.554C112.949 27.3919 113.124 28.0922 113.474 28.6549C113.837 29.2177 114.494 29.7554 115.444 30.2682C115.544 30.3182 115.775 30.4433 116.138 30.6433C116.501 30.8434 116.901 31.0686 117.339 31.3186C117.789 31.5562 118.195 31.7751 118.558 31.9752C118.921 32.1627 119.139 32.2754 119.214 32.3128C120.49 33.0257 121.497 33.901 122.235 34.939C122.985 35.977 123.36 37.2526 123.36 38.7657C123.36 40.2289 123.022 41.542 122.347 42.705C121.659 43.868 120.746 44.7872 119.608 45.4625C118.47 46.1378 117.207 46.4755 115.819 46.4755ZM134.709 45.9127L139.474 19.5196C139.499 19.4195 139.561 19.3695 139.661 19.3695H145.232C145.333 19.3695 145.395 19.4195 145.42 19.5196L149.997 45.9127C150.009 46.0378 149.96 46.1003 149.847 46.1003H145.589C145.464 46.1003 145.395 46.0378 145.382 45.9127L144.97 43.0989H139.736L139.324 45.9127C139.311 46.0378 139.248 46.1003 139.136 46.1003H134.859C134.759 46.1003 134.709 46.0378 134.709 45.9127ZM142.231 28.2047L140.505 38.9909H144.2L142.625 28.2047L142.4 26.7791L142.231 28.2047ZM156.938 46.1003H152.586C152.461 46.1003 152.398 46.0378 152.398 45.9127L152.435 19.5196C152.435 19.4195 152.486 19.3695 152.586 19.3695H156.9C157.001 19.3695 157.05 19.4195 157.05 19.5196L157.088 45.9127C157.088 46.0378 157.037 46.1003 156.938 46.1003Z" fill="#EFEFE5"/>
</g>
<defs>
<radialGradient id="paint0_radial_3597_33821" cx="0" cy="0" r="1" gradientUnits="userSpaceOnUse" gradientTransform="translate(31.3752 33.0001) rotate(90) scale(20.0001 19.9999)">
<stop stop-color="#EFEFE5"/>
<stop offset="1" stop-color="#EFEFE5" stop-opacity="0"/>
</radialGradient>
<clipPath id="clip0_3597_33821">
<rect width="147" height="40" fill="white" transform="translate(11 13)"/>
</clipPath>
</defs>
</svg>
