<svg width="156" height="78" viewBox="0 0 156 78" fill="none" xmlns="http://www.w3.org/2000/svg">
<path opacity="0.8" fill-rule="evenodd" clip-rule="evenodd" d="M4.56768 30.1638L11.8685 26L19.1693 30.1638L16.4299 31.6276L11.8685 29.0383L7.18848 31.6276L4.56768 30.1638ZM19.057 35.3362L16.4299 33.8724L11.8685 36.4617L7.18848 33.8724L4.56144 35.3362V38.3745L9.12912 40.9638V46.2531L11.7562 47.8276L14.3832 46.2531V41.0806L18.9509 38.4913V35.3424H19.057V35.3362ZM19.057 43.6638V40.6255L16.4299 42.2V45.1214L19.057 43.6638ZM20.9976 44.6724L16.4362 47.2617V50.3L23.7432 46.1362V37.8148L21.0038 39.5L20.9976 44.6724ZM18.3706 32.7531L20.9976 34.3276V37.3658L23.6246 35.7913V32.7531L20.9976 31.1786L18.3706 32.7531ZM9.12912 48.3872V51.4255L11.7562 53L14.3832 51.4255V48.3872L11.7562 49.9617L9.12912 48.3872ZM4.56144 43.6638L7.18848 45.1276V42.0893L4.56144 40.5148V43.6638ZM9.12912 32.7531L11.7562 34.3276L14.4955 32.7531L11.8685 31.1786L9.12912 32.7531ZM2.62704 34.3276L5.3664 32.7531L2.62704 31.1786L0 32.7531V35.7913L2.62704 37.3658V34.3276ZM2.62704 39.5L0 37.9255V46.2469L7.30704 50.4107V47.3724L2.73936 44.7831V39.4938L2.62704 39.5ZM44.7345 42.9878C44.7345 40.9644 43.5926 39.9495 41.8828 39.273C43.0247 38.7133 43.9358 37.6985 43.9358 36.0133C43.9358 33.6516 41.9951 32.0771 38.9126 32.0771H31.8364V47.1516H39.1372C42.4506 47.0347 44.7345 45.6878 44.7345 42.9878ZM40.51 36.573C40.51 37.6985 39.599 38.1475 38.1138 38.1475H35.0313V34.8878H38.3385C39.8298 34.8878 40.51 35.4536 40.51 36.573ZM41.4273 42.5388C41.4273 43.6644 40.5162 44.224 39.0311 44.224H35.0375V40.9644H38.9188C40.6286 40.8475 41.4273 41.524 41.4273 42.5388ZM61.283 32.0771V47.0347V47.1516H58.4313L51.012 37.5878V47.1516H47.7048V32.0771H50.7811L57.9696 41.3026V32.0771H61.283ZM78.0563 42.9878C78.0563 40.9644 76.9143 39.9495 75.2046 39.273C76.3465 38.7133 77.2575 37.6985 77.2575 36.0133C77.2575 33.6516 75.3169 32.0771 72.2343 32.0771H65.1582V47.1516H72.459C75.7724 47.0347 78.0563 45.6878 78.0563 42.9878ZM73.9503 36.573C73.9503 37.6985 73.0393 38.1475 71.5542 38.1475H68.4716V34.8878H71.7788C73.1516 34.8878 73.9503 35.4536 73.9503 36.573ZM74.7491 42.5388C74.7491 43.6644 73.838 44.224 72.3529 44.224H68.3593V40.9644H72.2406C73.9503 40.8475 74.7491 41.524 74.7491 42.5388ZM96.5453 42.7652L98.2551 44.4504C96.6577 46.0248 94.9479 47.0335 92.0962 47.0458C87.6409 47.0458 84.3336 43.6693 84.3336 39.2841C84.3336 35.0096 87.6408 31.5223 92.2085 31.5223C94.9479 31.5223 96.6576 32.5371 98.1428 33.8841L96.433 35.9075C95.2911 34.782 93.9183 33.9948 92.2085 33.9948C89.3568 33.9948 87.1853 36.3504 87.1853 39.2779C87.1853 42.3162 89.2383 44.6779 92.2085 44.6779C94.0368 44.6779 95.2911 44.0014 96.5453 42.7652ZM111.266 40.514V46.812H113.893V31.7375H111.266V38.0354H103.965V31.7375H101.338V46.812H103.965V40.514H111.266ZM123.477 31.7375H125.986L132.719 46.9227H129.867L128.27 43.3247H121.081L119.484 46.9227H116.744L123.477 31.7375ZM122.111 40.8462H127.358L124.738 34.8865L122.111 40.8462ZM135.689 31.7375V46.812H138.31V31.7375H135.689ZM145.043 31.8482L153.261 42.1992H153.373V31.7375H156V46.812H153.716L145.273 36.1227V46.9227H142.646V31.8482H145.043Z" fill="#EFEFE5"/>
</svg>
