<svg width="170" height="66" viewBox="0 0 170 66" fill="none" xmlns="http://www.w3.org/2000/svg">
<g opacity="0.8">
<path d="M66.5497 20.0602C65.0034 18.4751 63.1748 17.1736 61.1503 16.2263C61.0679 16.1842 60.9842 16.1449 60.8978 16.1082C60.4993 15.9291 60.0969 15.7594 59.685 15.6088C58.5316 15.1881 57.3256 14.88 56.0791 14.6968C55.2066 14.5692 54.3166 14.5 53.4104 14.5C43.2585 14.5 35 22.799 35 32.9993C35 40.9468 40.0132 47.738 47.0278 50.3518C47.853 50.6585 48.7065 50.9083 49.5816 51.0942C50.8174 51.3575 52.0977 51.5 53.4091 51.5C60.4021 51.5 66.4957 47.5615 69.6114 41.776C71.0187 39.1635 71.8195 36.1737 71.8195 32.9993C71.8195 27.9657 69.8059 23.3975 66.5497 20.0589V20.0602ZM40.4913 42.897C38.3156 40.0145 37.1662 36.574 37.1662 32.9491C37.1662 26.7605 40.5804 21.3577 45.6165 18.5443C45.7502 18.4697 45.8812 18.6475 45.7705 18.752C45.3099 19.1876 44.8683 19.6531 44.4469 20.1485C41.5285 23.578 39.847 28.2425 39.8322 32.9491C39.8322 39.0604 43.9 45.6548 50.4716 45.6548C56.3357 45.6548 61.1071 39.9548 61.1071 32.9491C61.1071 29.658 60.0091 26.4959 58.1332 24.1507C58.067 24.0679 58.1454 23.9512 58.2467 23.981C61.4164 24.9229 63.7879 28.5872 63.7879 32.9491C63.7879 36.8007 62.3969 40.636 59.9726 43.4711C57.4593 46.4093 54.0844 48.0284 50.4716 48.0298C46.6672 48.0298 43.0262 46.1556 40.4913 42.897ZM66.62 23.0107C68.793 25.8865 69.9409 29.3215 69.9369 32.945C69.9369 39.1336 66.5227 44.5364 61.4866 47.3498C61.3529 47.4245 61.2219 47.2467 61.3326 47.1422C61.7931 46.7065 62.2348 46.241 62.6562 45.7456C65.5746 42.3162 67.256 37.6516 67.2709 32.945C67.2709 26.8338 63.2031 20.2394 56.6314 20.2394C50.7674 20.2394 45.996 25.9394 45.996 32.945C45.996 36.2374 47.094 39.3983 48.9699 41.7448C49.036 41.8276 48.9578 41.9443 48.8564 41.9145C45.6868 40.9726 43.3152 37.3096 43.3152 32.9491C43.3152 29.0975 44.7063 25.2636 47.1318 22.4298C49.6465 19.4916 53.0215 17.8725 56.6354 17.8725C60.4373 17.8725 64.0769 19.7454 66.6213 23.0107H66.62ZM59.1826 32.9491C59.1826 37.3124 57.0731 41.0798 54.0493 42.7708C53.6751 42.9798 53.2132 42.954 52.8662 42.7002L52.2193 42.2266C49.5669 40.2818 47.9205 36.726 47.9205 32.9464C47.9205 28.5832 50.0301 24.817 53.0539 23.126C53.4293 22.917 53.8898 22.9428 54.2369 23.1966L54.8839 23.6703C57.5363 25.615 59.184 29.1708 59.184 32.9505L59.1826 32.9491Z" fill="#EFEFE5"/>
<path d="M87.0929 27.3972C86.2704 26.8693 85.3102 26.6047 84.2108 26.6047C83.1115 26.6047 82.1473 26.8693 81.3208 27.3972C80.4928 27.9252 79.8528 28.6811 79.4003 29.665C78.9479 30.6489 78.7209 31.8202 78.7209 33.18C78.7209 34.5399 78.9479 35.6935 79.4003 36.6761C79.8541 37.66 80.4942 38.4187 81.3208 38.952C82.1486 39.4868 83.1115 39.7528 84.2108 39.7528C85.3102 39.7528 86.2704 39.4854 87.0929 38.952C87.914 38.4173 88.5542 37.6587 89.0133 36.6761C89.4725 35.6921 89.7021 34.5277 89.7021 33.18C89.7021 31.8324 89.4725 30.6341 89.0133 29.6569C88.5542 28.6797 87.914 27.9265 87.0929 27.3986V27.3972ZM86.6135 35.5469C86.3785 36.2024 86.0517 36.7032 85.6343 37.0493C85.217 37.3953 84.743 37.5677 84.2123 37.5677C83.6814 37.5677 83.2034 37.3953 82.7807 37.0493C82.358 36.7032 82.0285 36.2024 81.7934 35.5469C81.557 34.8915 81.4396 34.1016 81.4396 33.18C81.4396 32.2585 81.557 31.4687 81.7934 30.8132C82.0285 30.1577 82.358 29.6569 82.7807 29.3108C83.2034 28.9648 83.6801 28.7924 84.2123 28.7924C84.7443 28.7924 85.2184 28.9661 85.6343 29.3108C86.0517 29.6569 86.3771 30.155 86.6135 30.8037C86.8498 31.4538 86.9673 32.245 86.9673 33.18C86.9673 34.1151 86.8498 34.8915 86.6135 35.5469Z" fill="#EFEFE5"/>
<path d="M94.4005 27.2601L91.2942 38.7891C91.1929 39.165 91.4752 39.5341 91.8615 39.5341H93.2484C93.5158 39.5341 93.7495 39.3537 93.817 39.0931L94.2924 37.2799C94.3599 37.0207 94.5935 36.8388 94.861 36.8388H98.0266C98.2953 36.8388 98.529 37.0207 98.5965 37.2827L99.0611 39.0917C99.1286 39.3523 99.3623 39.5356 99.631 39.5356H101.088C101.476 39.5356 101.758 39.165 101.656 38.7891L98.533 27.2601C98.4629 27.0023 98.2305 26.8245 97.9658 26.8245H94.969C94.7029 26.8245 94.4706 27.0036 94.4018 27.2615L94.4005 27.2601ZM95.7442 34.6539C95.358 34.6539 95.0771 34.2874 95.1757 33.9128L95.6969 31.9233L95.886 31.1307C96.0305 30.5267 96.8854 30.5267 97.0299 31.1307L97.219 31.9233L97.7309 33.9156C97.8267 34.2901 97.5458 34.6552 97.1609 34.6552H95.7442V34.6539Z" fill="#EFEFE5"/>
<path d="M115.85 27.4147V28.4176C115.85 28.7447 116.113 29.0093 116.439 29.0093H117.383C117.708 29.0093 117.971 29.274 117.971 29.601V36.76C117.971 37.087 117.708 37.3517 117.383 37.3517H116.439C116.113 37.3517 115.85 37.6163 115.85 37.9435V38.9464C115.85 39.2734 116.113 39.5381 116.439 39.5381H122.131C122.456 39.5381 122.72 39.2734 122.72 38.9464V37.9435C122.72 37.6163 122.456 37.3517 122.131 37.3517H121.187C120.861 37.3517 120.598 37.087 120.598 36.76V29.601C120.598 29.274 120.861 29.0093 121.187 29.0093H122.131C122.456 29.0093 122.72 28.7447 122.72 28.4176V27.4147C122.72 27.0876 122.456 26.8229 122.131 26.8229H116.439C116.113 26.8229 115.85 27.0876 115.85 27.4147Z" fill="#EFEFE5"/>
<path d="M134.631 34.1722C134.383 33.7053 134.056 33.328 133.651 33.043C133.246 32.758 132.806 32.5327 132.327 32.3698C131.85 32.2056 131.37 32.0659 130.887 31.9505C130.403 31.8351 129.96 31.713 129.555 31.5867C129.15 31.4592 128.827 31.2922 128.585 31.0859C128.344 30.8797 128.223 30.6069 128.223 30.2662C128.223 29.7926 128.402 29.4289 128.758 29.1737C129.115 28.9186 129.564 28.791 130.108 28.791C130.483 28.791 130.836 28.8535 131.15 29.019C131.566 29.2389 131.85 29.5754 132.007 29.8157C132.116 29.9799 132.299 30.0762 132.495 30.0762H134.082C134.493 30.0762 134.785 29.6596 134.634 29.2755C134.526 29.0027 134.39 28.7503 134.221 28.5169C133.774 27.898 133.191 27.4244 132.472 27.0959C131.754 26.7675 130.964 26.6047 130.107 26.6047C129.177 26.6047 128.368 26.7689 127.679 27.0959C126.99 27.423 126.455 27.8695 126.076 28.4341C125.695 28.9987 125.505 29.6338 125.505 30.3368C125.505 31.0399 125.625 31.5786 125.867 32.021C126.108 32.4648 126.431 32.819 126.836 33.0864C127.241 33.3538 127.684 33.5723 128.168 33.7419C128.651 33.9116 129.131 34.0581 129.609 34.1789C130.087 34.2997 130.527 34.4314 130.932 34.5698C131.337 34.7096 131.66 34.8887 131.902 35.1072C132.144 35.3257 132.264 35.6175 132.264 35.9812C132.264 36.4793 132.08 36.8675 131.712 37.147C131.343 37.4265 130.851 37.5664 130.234 37.5664C129.473 37.5664 128.893 37.3411 128.495 36.8932C128.329 36.7059 128.202 36.4793 128.107 36.2201C128.015 35.965 127.779 35.7925 127.509 35.7925H126.081C125.69 35.7925 125.41 36.1698 125.514 36.5485C125.608 36.8932 125.738 37.2149 125.903 37.5121C126.302 38.2286 126.87 38.781 127.606 39.1692C128.344 39.5573 129.22 39.7514 130.234 39.7514C131.153 39.7514 131.971 39.5899 132.689 39.2696C133.408 38.9479 133.973 38.5041 134.384 37.941C134.795 37.3764 135 36.7181 135 35.965C135 35.2117 134.876 34.639 134.629 34.1707L134.631 34.1722Z" fill="#EFEFE5"/>
<path d="M112.95 34.1722C112.703 33.7053 112.376 33.328 111.971 33.043C111.565 32.758 111.125 32.5327 110.647 32.3698C110.169 32.2056 109.69 32.0659 109.206 31.9505C108.723 31.8351 108.28 31.713 107.874 31.5867C107.469 31.4592 107.146 31.2922 106.905 31.0859C106.663 30.8797 106.543 30.6069 106.543 30.2662C106.543 29.7926 106.721 29.4289 107.078 29.1737C107.434 28.9186 107.884 28.791 108.428 28.791C108.802 28.791 109.156 28.8535 109.469 29.019C109.885 29.2389 110.169 29.5754 110.327 29.8157C110.435 29.9799 110.619 30.0762 110.815 30.0762H112.401C112.813 30.0762 113.105 29.6596 112.954 29.2755C112.846 29.0027 112.709 28.7503 112.541 28.5169C112.094 27.898 111.51 27.4244 110.792 27.0959C110.073 26.7675 109.284 26.6047 108.427 26.6047C107.496 26.6047 106.687 26.7689 105.999 27.0959C105.31 27.423 104.775 27.8695 104.395 28.4341C104.015 28.9987 103.824 29.6338 103.824 30.3368C103.824 31.0399 103.944 31.5786 104.186 32.021C104.428 32.4648 104.751 32.819 105.156 33.0864C105.561 33.3538 106.004 33.5723 106.487 33.7419C106.971 33.9116 107.45 34.0581 107.928 34.1789C108.407 34.2997 108.847 34.4314 109.252 34.5698C109.657 34.7096 109.98 34.8887 110.222 35.1072C110.463 35.3257 110.584 35.6175 110.584 35.9812C110.584 36.4793 110.4 36.8675 110.031 37.147C109.663 37.4265 109.171 37.5664 108.554 37.5664C107.792 37.5664 107.213 37.3411 106.814 36.8932C106.648 36.7059 106.521 36.4793 106.427 36.2201C106.332 35.9609 106.098 35.7925 105.828 35.7925H104.401C104.009 35.7925 103.73 36.1698 103.834 36.5485C103.928 36.8932 104.058 37.2149 104.223 37.5121C104.621 38.2286 105.19 38.781 105.926 39.1692C106.663 39.5573 107.54 39.7514 108.554 39.7514C109.472 39.7514 110.291 39.5899 111.009 39.2696C111.727 38.9479 112.292 38.5041 112.704 37.941C113.114 37.3764 113.32 36.7181 113.32 35.965C113.32 35.2117 113.195 34.639 112.948 34.1707L112.95 34.1722Z" fill="#EFEFE5"/>
</g>
</svg>
