<svg width="170" height="66" viewBox="0 0 170 66" fill="none" xmlns="http://www.w3.org/2000/svg">
<path opacity="0.8" d="M56.4999 33C56.4999 41.8365 49.3217 49 40.467 49C32.0662 49 25.1744 42.5521 24.49 34.3449H45.6818V31.6551H24.49C25.1744 23.4479 32.0662 17 40.467 17C49.3217 17 56.4999 24.1634 56.4999 33ZM115.94 46.1014C121.495 46.1014 125.139 43.108 125.139 38.6001C125.139 34.4167 122.397 32.4332 118.249 31.748L114.569 31.1349C111.755 30.6661 109.879 29.4399 109.879 26.7352C109.879 23.9943 111.972 21.9027 115.94 21.9027C119.8 21.9027 121.784 23.8501 122 26.627H124.778C124.562 22.9485 121.748 19.6667 115.976 19.6667C110.276 19.6667 107.138 22.8764 107.138 26.8433C107.138 31.0628 109.987 33.0102 113.883 33.6593L117.599 34.2364C120.701 34.7773 122.433 36.0395 122.433 38.7082C122.433 41.8458 119.872 43.8653 115.976 43.8653C111.936 43.8653 109.41 41.9179 109.194 38.6001H106.452C106.669 42.9277 109.987 46.1014 115.94 46.1014ZM74.9842 45.5964H64.8833V20.2077H74.6235C78.9165 20.2077 81.9105 22.7321 81.9105 26.7712C81.9105 29.6924 80.2512 31.6398 77.5818 32.2889V32.3971C80.7562 33.0102 82.7041 35.174 82.7041 38.564C82.7041 42.9277 79.4936 45.5964 74.9842 45.5964ZM74.2628 31.3513C77.3293 31.3513 79.205 29.6924 79.205 27.0958V26.7352C79.205 24.1386 77.3293 22.5157 74.2628 22.5157H67.589V31.3513H74.2628ZM74.5874 43.2883C77.9425 43.2883 79.9986 41.4491 79.9986 38.6361V38.2755C79.9986 35.3543 77.9064 33.5872 74.5514 33.5872H67.589V43.2883H74.5874ZM104.553 45.5964H101.667L99.5024 38.7082H89.4014L87.237 45.5964H84.4952L92.8286 20.2077H96.1112L104.553 45.5964ZM94.5962 22.9846H94.3797L90.1229 36.4362H98.817L94.5962 22.9846ZM129.202 45.5964V20.2077H145.508V22.5518H131.908V31.2792H144.426V33.5872H131.908V43.2522H145.508V45.5964H129.202Z" fill="#EFEFE5"/>
</svg>
