<svg width="22" height="22" viewBox="0 0 22 22" fill="none" xmlns="http://www.w3.org/2000/svg">
<path opacity="0.6" d="M2.99055 1.66796L10.3153 1.74149C12.3589 1.70971 13.6371 1.35938 14.9364 0.57573C15.6352 0.154199 16.5811 0.204723 17.2089 0.833532C17.9278 1.55365 18.0213 2.70912 17.2743 3.45736C16.5272 4.2056 0.0112293 20.7486 0.0112293 20.7486C-0.00374345 20.7636 -0.00374247 20.7879 0.0112285 20.8029L1.1951 21.9888C1.21007 22.0037 1.23435 22.0037 1.24932 21.9888L18.5124 4.69748C20.0317 3.17561 22.4703 5.25893 21.381 7.04455C20.5656 8.38116 20.1914 9.70595 20.1925 11.915L20.2949 19.0047C20.2952 19.0254 20.3119 19.0422 20.3326 19.0425L21.9235 19.0656C21.9452 19.0659 21.9628 19.0481 21.9624 19.0264L22 0.0376389C21.9996 0.0170006 21.983 0.00037901 21.9624 6.39284e-06L2.96865 6.39284e-06C2.94699 -0.000385151 2.92931 0.0172598 2.92962 0.0389562L2.9526 1.63011C2.95291 1.65095 2.96975 1.66775 2.99055 1.66796Z" fill="#EFEFE5"/>
</svg>
