<svg width="119" height="41" viewBox="0 0 119 41" fill="none" xmlns="http://www.w3.org/2000/svg">
<path opacity="0.6" fill-rule="evenodd" clip-rule="evenodd" d="M117.086 7.29877V33.5667C117.086 33.5886 117.077 33.6097 117.062 33.6256L111.168 39.8498C111.152 39.8669 111.129 39.8765 111.106 39.8765H106V40.8765H111.106C111.404 40.8765 111.689 40.7539 111.894 40.5374L117.788 34.3132C117.979 34.1116 118.086 33.8444 118.086 33.5667V7.29877V1.5071C118.086 0.907478 117.6 0.421387 117 0.421387L6.98015 0.421394C6.68196 0.421394 6.39688 0.544043 6.19184 0.760558L0.297401 6.98473C0.106431 7.18638 0 7.45355 0 7.73128V33.9992V39.7908C0 40.3905 0.48609 40.8765 1.08571 40.8765H90V39.8765H1.08571C1.03838 39.8765 1 39.8382 1 39.7908V33.9992V7.73128C1 7.70936 1.0084 7.68826 1.02348 7.67234L6.91792 1.44817C6.93411 1.43108 6.95661 1.42139 6.98015 1.42139L117 1.42139C117.047 1.42139 117.086 1.45976 117.086 1.5071V7.29877Z" fill="#EFEFE5"/>
</svg>
