<svg width="36" height="44" viewBox="0 0 36 44" fill="none" xmlns="http://www.w3.org/2000/svg">
<g opacity="0.8">
<path d="M35.5 0V15.2571C29.9069 16.6941 24.0428 17.4569 18 17.4569C11.9572 17.4569 6.0931 16.6924 0.5 15.2571V0C6.0931 1.43521 11.9572 2.19978 18 2.19978C24.0428 2.19978 29.9069 1.43697 35.5 0Z" fill="#EFEFE5"/>
<path d="M0.5 35.2632V20.0052C6.0931 18.5682 11.9572 17.8054 18 17.8054C24.0428 17.8054 29.9069 18.57 35.5 20.0052V35.2623C29.9069 33.8271 24.0428 33.0625 18 33.0625C11.9572 33.0634 6.0931 33.8262 0.5 35.2632Z" fill="#EFEFE5"/>
<path d="M0.5 37.0092H1.95723L3.16543 40.9681C3.30007 41.4175 3.46286 42.0583 3.46286 42.0583H3.48222C3.48222 42.0583 3.64502 41.4079 3.77965 40.9681L4.97818 37.0092H6.38701L4.0762 43.8464H2.81081L0.5 37.0092Z" fill="#EFEFE5"/>
<path d="M8.12143 37.0092H6.73107V43.8464H8.12143V37.0092Z" fill="#EFEFE5"/>
<path d="M8.67669 40.451C8.67669 38.4233 9.9421 36.8749 11.9652 36.8749C13.6521 36.8749 14.6491 37.8791 14.7934 39.18H13.4127C13.2877 38.4918 12.7703 38.0423 11.9652 38.0423C10.6998 38.0423 10.0961 39.0939 10.0961 40.4519C10.0961 41.8485 10.8247 42.8518 11.9748 42.8518C12.7897 42.8518 13.3652 42.3638 13.4514 41.6466H14.8127C14.774 42.2488 14.5153 42.8325 14.0551 43.2626C13.5852 43.7024 12.9234 43.9895 11.9748 43.9895C10.0477 43.9895 8.67669 42.5077 8.67669 40.451Z" fill="#EFEFE5"/>
<path d="M14.8699 37.0092H20.3821V38.1758H18.3212V43.8464H16.9308V38.1758H14.8699V37.0092Z" fill="#EFEFE5"/>
<path d="M22.2705 37.0092H20.8801V43.8464H22.2705V37.0092Z" fill="#EFEFE5"/>
<path d="M22.8266 40.4423C22.8266 38.3961 24.1114 36.8749 26.1344 36.8749C28.1575 36.8749 29.4326 38.3952 29.4326 40.4423C29.4326 42.4884 28.1575 44 26.1344 44C24.1114 43.9991 22.8266 42.4884 22.8266 40.4423ZM28.0123 40.4423C28.0123 39.0746 27.399 38.0134 26.1433 38.0134C24.8875 38.0134 24.2452 39.0746 24.2452 40.4423C24.2452 41.8002 24.8875 42.8615 26.1433 42.8615C27.399 42.8615 28.0123 41.8002 28.0123 40.4423Z" fill="#EFEFE5"/>
<path d="M29.9782 37.0092H31.387L33.6688 40.825C33.8897 41.1981 34.1484 41.7809 34.1484 41.7809H34.1677C34.1677 41.7809 34.129 41.0734 34.129 40.595V37.0092H35.5V43.8464H34.158L31.8191 40.0692C31.5982 39.7058 31.3298 39.1221 31.3298 39.1221H31.3105C31.3105 39.1221 31.3492 39.8392 31.3492 40.3176V43.8464H29.9782V37.0092Z" fill="#EFEFE5"/>
</g>
</svg>
