<svg width="170" height="66" viewBox="0 0 170 66" fill="none" xmlns="http://www.w3.org/2000/svg">
<g opacity="0.8" clip-path="url(#clip0_4245_30439)">
<path d="M18.1 28.6488H13.52C13.4516 28.6493 13.3838 28.636 13.3205 28.6097C13.2571 28.5835 13.1996 28.5447 13.1513 28.4958C13.1029 28.4468 13.0646 28.3886 13.0386 28.3246C13.0127 28.2605 12.9995 28.1919 13 28.1227V25.0467C12.9995 24.9774 13.0127 24.9088 13.0386 24.8448C13.0646 24.7807 13.1029 24.7225 13.1513 24.6735C13.1996 24.6246 13.2571 24.5859 13.3205 24.5596C13.3838 24.5333 13.4516 24.52 13.52 24.5205H26.58C26.9936 24.5211 27.3901 24.6875 27.6825 24.9834C27.9749 25.2793 28.1395 25.6805 28.14 26.099V28.1227C28.1405 28.1919 28.1273 28.2605 28.1014 28.3246C28.0755 28.3886 28.0371 28.4468 27.9888 28.4958C27.9404 28.5447 27.8829 28.5835 27.8195 28.6097C27.7563 28.636 27.6884 28.6493 27.62 28.6488H23.02V41.7015C23.0205 41.7707 23.0073 41.8393 22.9814 41.9034C22.9555 41.9675 22.9171 42.0257 22.8688 42.0746C22.8204 42.1235 22.7629 42.1623 22.6996 42.1885C22.6363 42.2148 22.5684 42.2281 22.5 42.2276H19.66C19.2464 42.2271 18.8499 42.0606 18.5575 41.7647C18.2651 41.4688 18.1005 41.0677 18.1 40.6491V28.6488Z" fill="#EFEFE5"/>
<path d="M31.6 30.9963L31.62 31.0975C32.26 29.944 33.42 29.4381 34.62 29.4381C35.6931 29.4207 36.7365 29.7942 37.56 30.4904C37.6474 30.5704 37.705 30.6784 37.7233 30.7963C37.7415 30.9141 37.7191 31.0348 37.66 31.138L36.3 33.6271C36.2664 33.6888 36.2206 33.7429 36.1654 33.7859C36.1102 33.8289 36.0468 33.86 35.9792 33.8771C35.9117 33.8941 35.8413 33.8969 35.7726 33.8853C35.7039 33.8736 35.6384 33.8477 35.58 33.8092C35.096 33.5023 34.5304 33.3539 33.96 33.3842C32.82 33.3842 31.84 34.0925 31.84 35.7317V41.7015C31.8405 41.7707 31.8274 41.8394 31.8014 41.9034C31.7755 41.9675 31.7372 42.0257 31.6888 42.0746C31.6404 42.1236 31.5828 42.1623 31.5196 42.1886C31.4562 42.2149 31.3884 42.2281 31.32 42.2277H28.78C28.3664 42.2271 27.9699 42.0607 27.6775 41.7647C27.385 41.4689 27.2205 41.0677 27.22 40.6492V30.2475C27.2195 30.1783 27.2326 30.1097 27.2586 30.0456C27.2846 29.9816 27.3228 29.9234 27.3712 29.8744C27.4196 29.8255 27.4771 29.7867 27.5404 29.7605C27.6038 29.7342 27.6716 29.7209 27.74 29.7214H30.08C30.4387 29.7281 30.7844 29.8579 31.0606 30.0896C31.3368 30.3212 31.527 30.6409 31.6 30.9963Z" fill="#EFEFE5"/>
<path d="M47.8401 29.7413H50.1801C50.5937 29.7419 50.9901 29.9083 51.2826 30.2042C51.5751 30.5001 51.7395 30.9013 51.7401 31.3198V41.7012C51.7406 41.7704 51.7275 41.8391 51.7015 41.9031C51.6755 41.9672 51.6373 42.0254 51.5889 42.0743C51.5405 42.1233 51.4829 42.162 51.4197 42.1883C51.3563 42.2145 51.2885 42.2279 51.2201 42.2273H48.8201C48.4485 42.2257 48.0897 42.0904 47.8076 41.8457C47.5255 41.6011 47.3386 41.263 47.2801 40.8917C46.2401 42.1059 44.5801 42.5309 43.2001 42.4499C39.5801 42.2273 37.5601 39.6168 37.5601 35.9742C37.5601 32.2911 39.9601 29.458 43.5601 29.458C45.3001 29.458 46.5401 30.0651 47.1801 31.0769L47.3401 30.1663C47.3618 30.0478 47.4235 29.9406 47.5147 29.8631C47.6059 29.7855 47.721 29.7425 47.8401 29.7413ZM42.1401 35.9742C42.1401 37.7146 43.2401 38.7061 44.6201 38.7061C46.1601 38.7061 47.1601 37.4515 47.1601 35.9742C47.1601 34.3148 46.2401 33.222 44.6201 33.222C43.2401 33.222 42.1401 34.2339 42.1401 35.9742Z" fill="#EFEFE5"/>
<path d="M58.7001 33.2218L60.0201 37.2692L61.2601 33.2218L62.4601 30.0649C62.4972 29.9674 62.5633 29.8839 62.6493 29.8259C62.7352 29.7679 62.8368 29.7383 62.9401 29.7411H65.1401C65.3948 29.7412 65.6456 29.8046 65.8705 29.9258C66.0953 30.047 66.2873 30.2222 66.4295 30.436C66.5717 30.6499 66.6599 30.8958 66.6861 31.1522C66.7123 31.4087 66.6759 31.6677 66.5801 31.9065L62.5001 41.9641C62.4629 42.0616 62.3968 42.1451 62.3109 42.2031C62.2249 42.2611 62.1233 42.2907 62.0201 42.2879H58.8201C58.5156 42.2838 58.2185 42.1922 57.9636 42.0238C57.7086 41.8554 57.5063 41.6171 57.3801 41.3367L52.7801 30.4494C52.7467 30.3695 52.7334 30.2824 52.7414 30.196C52.7495 30.1096 52.7786 30.0266 52.8262 29.9544C52.8737 29.8822 52.9383 29.823 53.014 29.7823C53.0897 29.7415 53.1743 29.7204 53.2601 29.7209H57.0001C57.1033 29.7181 57.2049 29.7477 57.2909 29.8057C57.3768 29.8637 57.4429 29.9471 57.4801 30.0447L58.7001 33.2218Z" fill="#EFEFE5"/>
<path d="M77.3401 29.7814H79.6801C80.0934 29.7819 80.4901 29.9484 80.7827 30.2443C81.0747 30.5402 81.2394 30.9414 81.2401 31.3598V41.7413C81.2407 41.8105 81.2274 41.8791 81.2014 41.9432C81.1754 42.0072 81.1374 42.0654 81.0887 42.1144C81.0407 42.1633 80.9827 42.2021 80.9194 42.2283C80.8561 42.2546 80.7887 42.2679 80.7201 42.2674H78.3201C77.9485 42.2657 77.5897 42.1305 77.3076 41.8858C77.0255 41.6411 76.8385 41.303 76.7801 40.9318C75.7401 42.146 74.0801 42.5709 72.7001 42.49C69.0801 42.2674 67.0601 39.6569 67.0601 36.0143C67.0601 32.3312 69.4601 29.498 73.0601 29.498C74.8001 29.498 76.0401 30.1051 76.6801 31.117L76.8401 30.2063C76.8617 30.0878 76.9235 29.9806 77.0147 29.9031C77.1059 29.8256 77.2209 29.7825 77.3401 29.7814ZM71.6401 36.0345C71.6401 37.7749 72.7401 38.7665 74.1201 38.7665C75.6601 38.7665 76.6601 37.5118 76.6601 36.0345C76.6601 34.3751 75.7401 33.2823 74.1201 33.2823C72.7401 33.2823 71.6401 34.2941 71.6401 36.0345Z" fill="#EFEFE5"/>
<path d="M88 26.0785V41.7012C88.0006 41.7704 87.9873 41.8391 87.9613 41.9031C87.9353 41.9672 87.8973 42.0253 87.8486 42.0743C87.8 42.1233 87.7426 42.162 87.6793 42.1883C87.616 42.2145 87.5486 42.2278 87.48 42.2273H85C84.5866 42.2268 84.19 42.0603 83.8973 41.7645C83.6046 41.4685 83.4406 41.0673 83.44 40.6489V25.0262C83.4393 24.9569 83.4526 24.8883 83.4786 24.8242C83.5046 24.7602 83.5426 24.702 83.5913 24.653C83.6393 24.6041 83.6973 24.5653 83.7606 24.5391C83.824 24.5128 83.8913 24.4995 83.96 24.5H86.44C86.8533 24.5005 87.25 24.667 87.5426 24.9629C87.8346 25.2588 87.9993 25.66 88 26.0785Z" fill="#EFEFE5"/>
<path d="M99.86 29.7618H102.2C102.613 29.7624 103.01 29.9288 103.303 30.2247C103.595 30.5206 103.759 30.9218 103.76 31.3403V41.7217C103.761 41.7909 103.747 41.8596 103.721 41.9236C103.695 41.9877 103.657 42.0459 103.609 42.0949C103.561 42.1438 103.503 42.1825 103.439 42.2088C103.376 42.2351 103.309 42.2483 103.24 42.2479H100.84C100.469 42.2461 100.109 42.1109 99.8273 41.8663C99.5453 41.6216 99.3586 41.2835 99.3 40.9123C98.26 42.1265 96.6 42.5514 95.22 42.4705C91.6 42.2479 89.58 39.6373 89.58 35.9947C89.58 32.3117 91.98 29.4785 95.58 29.4785C97.32 29.4785 98.56 30.0856 99.2 31.0975L99.36 30.1868C99.3786 30.0669 99.44 29.9579 99.5313 29.8798C99.6233 29.8017 99.74 29.7598 99.86 29.7618ZM94.16 35.9947C94.16 37.7351 95.26 38.7267 96.64 38.7267C98.18 38.7267 99.18 37.472 99.18 35.9947C99.18 34.3353 98.26 33.2425 96.64 33.2425C95.26 33.2425 94.16 34.2544 94.16 35.9947Z" fill="#EFEFE5"/>
<path d="M107.46 37.7148C110.8 37.7148 110.78 42.2883 107.46 42.2883C104.2 42.268 104.14 37.7148 107.46 37.7148Z" fill="#EFEFE5"/>
<path d="M121.86 39.6574C121.926 39.7285 121.977 39.8127 122.009 39.9046C122.04 39.9965 122.053 40.0942 122.045 40.1913C122.038 40.2885 122.01 40.383 121.965 40.4688C121.919 40.5545 121.856 40.6297 121.78 40.6895C120.496 41.7143 118.915 42.2831 117.28 42.3085C113.68 42.3085 110.3 40.5074 110.3 35.8529C110.3 31.3199 113.74 29.3165 117.2 29.3165C118.418 29.3108 119.617 29.6245 120.68 30.2271C120.861 30.3318 121.015 30.4766 121.133 30.6505C121.251 30.8244 121.327 31.023 121.358 31.2314C121.389 31.4397 121.373 31.6524 121.311 31.8535C121.249 32.0546 121.143 32.2389 121 32.3925L120.04 33.4447C119.923 33.5689 119.764 33.6456 119.595 33.6605C119.426 33.6754 119.257 33.6275 119.12 33.5257C118.633 33.184 118.052 33.0069 117.46 33.0198C115.72 33.0198 114.76 34.3149 114.76 35.8732C114.76 37.229 115.68 38.4432 117.42 38.4432C117.938 38.448 118.448 38.3154 118.9 38.0587C119.166 37.9094 119.474 37.8542 119.775 37.9019C120.075 37.9495 120.351 38.0973 120.56 38.3218L121.86 39.6574Z" fill="#EFEFE5"/>
<path d="M136.38 35.8529C136.38 40.3859 132.82 42.3691 129.34 42.3691C125.8 42.3691 122.3 40.4061 122.3 35.8529C122.3 31.2389 125.76 29.3164 129.34 29.3164C132.98 29.3164 136.38 31.3199 136.38 35.8529ZM131.88 35.8529C131.88 34.4161 130.96 33.1209 129.34 33.1209C127.72 33.1209 126.8 34.4161 126.8 35.8529C126.8 37.2897 127.72 38.5646 129.34 38.5646C130.88 38.5646 131.88 37.3706 131.88 35.8529Z" fill="#EFEFE5"/>
<path d="M146.76 42.0653C146.299 42.0649 145.856 41.8793 145.53 41.5493C145.204 41.2191 145.02 40.7715 145.02 40.3047V35.1645C145.02 33.7277 144.54 33.2421 143.72 33.2421C142.94 33.2421 142.12 33.8694 142.1 35.2455V41.4379C142.101 41.5233 142.085 41.608 142.053 41.6871C142.022 41.7661 141.975 41.8379 141.915 41.8983C141.855 41.9587 141.784 42.0063 141.706 42.0385C141.628 42.0706 141.544 42.0866 141.46 42.0855H139.28C138.819 42.0852 138.376 41.8996 138.05 41.5695C137.724 41.2393 137.54 40.7917 137.54 40.3249V30.247C137.539 30.1617 137.555 30.077 137.587 29.9979C137.618 29.9188 137.665 29.847 137.725 29.7866C137.785 29.7263 137.855 29.6786 137.934 29.6465C138.012 29.6143 138.095 29.5983 138.18 29.5994H140.04C140.428 29.5967 140.805 29.7274 141.111 29.97C141.416 30.2126 141.631 30.5529 141.72 30.9351C142.5 29.8423 143.84 29.3161 145.12 29.3364C146.36 29.3566 147.56 29.9435 148.18 31.097C149.2 29.8018 150.58 29.2959 152.28 29.2959C154.94 29.2959 157 30.9553 157 35.1039V41.3975C157.001 41.4828 156.985 41.5675 156.953 41.6466C156.922 41.7257 156.875 41.7975 156.815 41.8578C156.755 41.9182 156.684 41.9659 156.606 41.998C156.528 42.0301 156.444 42.0461 156.36 42.045H154.14C153.679 42.0447 153.236 41.8591 152.91 41.529C152.584 41.1989 152.4 40.7513 152.4 40.2844V35.1645C152.4 33.8491 151.8 33.323 151.12 33.323C150.34 33.323 149.52 33.8491 149.52 35.2253V41.4379C149.521 41.5233 149.505 41.608 149.473 41.6871C149.442 41.7661 149.395 41.8379 149.335 41.8983C149.275 41.9587 149.204 42.0063 149.126 42.0385C149.048 42.0706 148.964 42.0866 148.88 42.0855H146.76V42.0653Z" fill="#EFEFE5"/>
</g>
<defs>
<clipPath id="clip0_4245_30439">
<rect width="144" height="18" fill="white" transform="translate(13 24.5)"/>
</clipPath>
</defs>
</svg>
