<svg width="170" height="66" viewBox="0 0 170 66" fill="none" xmlns="http://www.w3.org/2000/svg">
<g opacity="0.8" clip-path="url(#clip0_4245_13691)">
<path d="M79.2593 24.4765H84.9673V27.599C86.8374 24.7927 88.9896 24.4765 92.1399 24.4765V29.9947H90.7052C86.9299 29.9947 85.123 31.7297 85.123 35.1665V41.0321H79.2593V24.4765Z" fill="#EFEFE5"/>
<path d="M111.184 41.0322H105.322V39.4539C104.042 40.9047 102.297 41.5353 100.146 41.5353C96.0614 41.5353 93.752 39.1698 93.752 34.8192V24.4766H99.6143V33.528C99.6143 35.5762 100.644 36.7741 102.389 36.7741C104.135 36.7741 105.321 35.6064 105.321 33.6214V24.4766H111.183L111.184 41.0322Z" fill="#EFEFE5"/>
<path d="M112.618 35.9221H118.108C118.359 37.1199 119.201 37.6239 121.226 37.6239C122.88 37.6239 123.846 37.2464 123.846 36.5526C123.846 36.0154 123.378 35.6681 122.039 35.3849L117.61 34.407C114.647 33.7463 113.15 32.0746 113.15 29.3928C113.15 25.8596 115.8 24.0312 120.946 24.0312C126.092 24.0312 128.618 25.8129 129.056 29.6302H123.599C123.507 28.6221 122.444 28.0052 120.699 28.0052C119.296 28.0052 118.393 28.446 118.393 29.1097C118.393 29.6769 118.984 30.1177 120.172 30.4038L124.818 31.5083C127.873 32.2322 129.341 33.7473 129.341 36.2062C129.341 39.6129 126.315 41.631 121.172 41.631C116.029 41.631 112.627 39.4552 112.627 35.9221H112.618Z" fill="#EFEFE5"/>
<path d="M144.95 29.626V24.4766H130.48V29.6289H134.798V41.0322H140.63V29.626H144.95Z" fill="#EFEFE5"/>
<path d="M77.6258 29.626V24.4766H63.1565V29.6289H67.4745V41.0322H73.3078V29.626H77.6258Z" fill="#EFEFE5"/>
<path d="M39.5916 16.998L25.2 21.5666V31.7574C25.2 36.325 29.3117 44.4072 39.5916 48.6245C49.8716 44.4072 53.9833 36.325 53.9833 31.7574V21.5666L39.5916 16.998Z" fill="#EFEFE5"/>
</g>
<defs>
<clipPath id="clip0_4245_13691">
<rect width="120" height="32" fill="white" transform="translate(25 17)"/>
</clipPath>
</defs>
</svg>
