<svg width="120" height="40" viewBox="0 0 120 40" fill="none" xmlns="http://www.w3.org/2000/svg">
<path d="M24.1826 1.19255V6.45367e-06L95.1826 0V1.19255L24.1826 1.19255Z" fill="#EFEFE5" fill-opacity="0.6"/>
<path d="M24.1826 39.9999V38.8074L95.1826 38.8074V39.9999L24.1826 39.9999Z" fill="#EFEFE5" fill-opacity="0.6"/>
<path d="M2.77439 40C1.34299 40 0.182617 38.8432 0.182617 37.4161V21H1.37882V37.4161C1.37882 38.1845 2.00364 38.8074 2.77439 38.8074H24.1826V40H2.77439Z" fill="#EFEFE5" fill-opacity="0.6"/>
<path d="M8.39276 1.19255C8.02293 1.19255 7.66823 1.33889 7.40656 1.59943L1.78819 7.19363C1.52609 7.4546 1.37882 7.80875 1.37882 8.17805V10.6335H0.182617V8.17805C0.182617 7.49221 0.456123 6.8345 0.942876 6.34985L6.56124 0.75565C7.0472 0.271783 7.70594 0 8.39276 0H24.1826V1.19255L8.39276 1.19255Z" fill="#EFEFE5" fill-opacity="0.6"/>
<path d="M116.591 0C118.022 0 119.183 1.15683 119.183 2.58385V31.822C119.183 32.5078 118.909 33.1655 118.422 33.6502L112.804 39.2444C112.318 39.7282 111.659 40 110.972 40H95.1826V38.8075H110.972C111.342 38.8075 111.697 38.6611 111.959 38.4006L117.577 32.8064C117.839 32.5454 117.986 32.1913 117.986 31.822V2.58385C117.986 1.81545 117.362 1.19255 116.591 1.19255L95.1826 1.19255V0H116.591Z" fill="#EFEFE5" fill-opacity="0.6"/>
</svg>
