<?xml version="1.0" encoding="UTF-8"?>
<svg id="katman_1" xmlns="http://www.w3.org/2000/svg" viewBox="0 6.51 167.24 37.49" width="170" height="46">
  <defs>
    <style>
      .cls-1 {
        fill: #efefe5;
      }

      .cls-2 {
        fill: #606060;
      }
    </style>
  </defs>
  <!-- Generator: Adobe Illustrator 28.7.4, SVG Export Plug-In . SVG Version: 1.2.0 Build 166)  -->
  <g>
    <g id="katman_1">
      <g>
        <rect class="cls-1" x="32.78" y="25.74" width="127.45" height="13.07"/>
        <g>
          <path class="cls-2" d="M36.74,35.75c-.07,0-.13-.02-.17-.07-.05-.05-.07-.1-.07-.17v-6.19c0-.07.02-.13.07-.17s.1-.07.17-.07h1.22c.07,0,.13.02.17.07s.07.1.07.17v2.11l1.79-2.17s.07-.08.13-.12.14-.06.25-.06h1.4c.06,0,.11.02.15.06.04.04.06.09.06.14,0,.04,0,.08-.03.11l-2.33,2.88,2.5,3.16s.04.06.04.11-.02.1-.06.14c-.04.04-.09.06-.15.06h-1.44c-.12,0-.21-.03-.27-.08-.06-.05-.1-.09-.12-.11l-1.92-2.35v2.3c0,.06-.02.12-.07.17-.05.05-.1.07-.17.07h-1.22Z"/>
          <path class="cls-2" d="M44.03,35.75c-.07,0-.13-.02-.17-.07-.05-.05-.07-.1-.07-.17v-4.48c0-.06.02-.12.07-.17.05-.05.1-.07.17-.07h1.11c.07,0,.13.02.18.07.05.05.07.1.07.17v.38c.17-.2.37-.35.62-.46.24-.11.52-.16.82-.16h.43c.07,0,.13.02.17.07.04.04.07.1.07.17v.98c0,.06-.02.12-.07.17-.05.05-.1.07-.17.07h-.94c-.27,0-.47.07-.62.21-.15.14-.22.34-.22.6v2.44c0,.06-.02.12-.07.17-.05.05-.11.07-.18.07h-1.2Z"/>
          <path class="cls-2" d="M49.4,30.09c-.07,0-.13-.02-.17-.07-.05-.04-.07-.1-.07-.17v-.86c0-.06.02-.12.07-.17.04-.05.1-.07.17-.07h1.16c.06,0,.12.02.17.07.05.05.07.1.07.17v.86c0,.07-.02.13-.07.17-.05.04-.11.07-.17.07h-1.16ZM49.41,35.75c-.07,0-.13-.02-.17-.07-.05-.05-.07-.1-.07-.17v-4.48c0-.07.02-.13.07-.17.05-.04.1-.07.17-.07h1.14c.07,0,.13.02.17.07.05.04.07.1.07.17v4.48c0,.06-.02.12-.07.17-.05.05-.1.07-.17.07h-1.14Z"/>
          <path class="cls-2" d="M53.15,37.56c-.07,0-.13-.02-.17-.07-.05-.05-.07-.1-.07-.17v-6.28c0-.07.02-.13.07-.17.05-.04.1-.07.17-.07h1.1c.06,0,.12.02.17.07.05.04.07.1.07.17v.34c.15-.19.36-.35.6-.48.25-.13.55-.2.9-.2.32,0,.61.05.85.15.25.1.46.24.64.43.18.19.31.42.41.69.1.27.15.59.16.94,0,.13,0,.24,0,.35s0,.22,0,.35c-.01.34-.07.65-.16.92-.1.27-.23.5-.41.69s-.39.34-.64.44-.53.16-.86.16-.59-.06-.83-.17c-.24-.11-.43-.27-.59-.47v2.11c0,.06-.02.12-.07.17-.05.05-.1.07-.17.07h-1.18ZM55.47,34.57c.22,0,.39-.04.51-.13.12-.09.21-.21.27-.36.06-.15.09-.32.1-.5.01-.2.01-.39,0-.59-.01-.18-.05-.35-.1-.5s-.14-.27-.27-.36c-.12-.09-.29-.13-.51-.13-.21,0-.38.05-.5.14s-.22.21-.28.36-.09.3-.11.48c0,.12,0,.24,0,.35s0,.23,0,.36c0,.16.04.31.11.44.06.14.16.25.29.33.13.09.29.13.49.13Z"/>
          <path class="cls-2" d="M62.54,35.75c-.41,0-.77-.07-1.07-.2s-.53-.33-.69-.61c-.16-.28-.24-.63-.24-1.07v-1.83h-.76c-.07,0-.13-.02-.18-.07-.05-.04-.07-.1-.07-.17v-.77c0-.07.02-.13.07-.17.05-.04.11-.07.18-.07h.76v-1.57c0-.07.02-.13.07-.17.05-.04.1-.07.17-.07h1.12c.07,0,.13.02.17.07.05.04.07.1.07.17v1.57h1.21c.07,0,.13.02.18.07.05.04.07.1.07.17v.77c0,.07-.02.13-.07.17-.05.04-.11.07-.18.07h-1.21v1.69c0,.22.04.39.13.51.08.13.23.19.43.19h.75c.07,0,.13.02.17.07.04.04.07.1.07.17v.83c0,.06-.02.12-.07.17-.05.05-.1.07-.17.07h-.9Z"/>
          <path class="cls-2" d="M67.85,35.85c-.54,0-1-.09-1.37-.26s-.66-.42-.85-.74-.31-.7-.33-1.15c0-.13,0-.27,0-.43s0-.3,0-.42c.03-.45.14-.83.35-1.15.21-.32.5-.56.87-.73.37-.17.82-.26,1.34-.26s.98.08,1.35.26c.37.17.66.42.87.73.21.32.32.7.35,1.15,0,.12,0,.26,0,.42s0,.31,0,.43c-.03.44-.14.83-.33,1.15s-.48.57-.85.74-.83.26-1.38.26ZM67.85,34.69c.29,0,.5-.09.64-.26.13-.17.21-.43.23-.77,0-.1,0-.22,0-.38s0-.29,0-.38c-.02-.34-.1-.59-.23-.77-.13-.17-.34-.26-.64-.26s-.49.09-.63.26c-.14.17-.22.43-.23.77,0,.1,0,.22,0,.38s0,.29,0,.38c.01.34.09.6.23.77.14.17.35.26.63.26Z"/>
          <path class="cls-2" d="M75.74,35.75c-.07,0-.13-.02-.17-.07-.05-.05-.07-.1-.07-.17v-6.19c0-.07.02-.13.07-.17s.1-.07.17-.07h2.71c.54,0,1,.08,1.4.24s.71.4.93.73c.22.32.33.73.33,1.23s-.11.89-.33,1.21c-.22.32-.53.55-.93.7-.4.15-.86.23-1.4.23h-1.15v2.08c0,.06-.02.12-.07.17-.05.05-.11.07-.18.07h-1.31ZM77.27,32.12h1.13c.28,0,.5-.07.66-.21s.25-.35.25-.64c0-.24-.07-.44-.21-.61s-.38-.25-.7-.25h-1.13v1.71Z"/>
          <path class="cls-2" d="M84.32,35.85c-.35,0-.66-.07-.94-.2-.27-.13-.49-.31-.65-.53-.16-.22-.24-.47-.24-.75,0-.45.19-.81.56-1.07.37-.26.87-.44,1.49-.54l1.21-.18v-.13c0-.23-.05-.4-.14-.52-.1-.12-.28-.18-.53-.18-.18,0-.33.03-.44.1s-.2.17-.27.29c-.06.08-.14.12-.24.12h-1.09c-.07,0-.13-.02-.17-.06-.04-.04-.05-.09-.05-.15,0-.11.04-.25.13-.39s.22-.3.4-.44c.18-.15.42-.27.7-.36.28-.1.63-.14,1.04-.14s.77.05,1.06.14c.3.1.54.23.73.4.19.17.33.37.41.6s.13.49.13.77v2.89c0,.06-.03.12-.07.17-.05.05-.11.07-.17.07h-1.12c-.07,0-.13-.02-.17-.07-.05-.05-.07-.1-.07-.17v-.33c-.08.12-.2.23-.34.33-.14.1-.31.18-.5.24-.19.06-.41.09-.66.09ZM84.78,34.76c.19,0,.36-.04.51-.12.15-.08.27-.2.36-.37.09-.17.13-.38.13-.63v-.13l-.82.14c-.3.05-.53.13-.66.23-.14.1-.21.23-.21.37,0,.11.03.2.1.28.06.08.15.13.26.18.11.04.22.06.34.06Z"/>
          <path class="cls-2" d="M89.74,35.75c-.07,0-.13-.02-.17-.07-.05-.05-.07-.1-.07-.17v-4.48c0-.06.02-.12.07-.17.04-.05.1-.07.17-.07h1.12c.07,0,.13.02.18.07.05.05.07.1.07.17v.38c.17-.2.37-.35.62-.46s.52-.16.82-.16h.43c.07,0,.13.02.17.07.04.04.07.1.07.17v.98c0,.06-.02.12-.07.17-.05.05-.1.07-.17.07h-.94c-.27,0-.47.07-.62.21-.14.14-.22.34-.22.6v2.44c0,.06-.02.12-.07.17-.05.05-.11.07-.18.07h-1.2Z"/>
          <path class="cls-2" d="M96.3,35.85c-.35,0-.66-.07-.94-.2-.27-.13-.49-.31-.65-.53-.16-.22-.24-.47-.24-.75,0-.45.19-.81.56-1.07.37-.26.87-.44,1.49-.54l1.21-.18v-.13c0-.23-.05-.4-.14-.52-.1-.12-.28-.18-.53-.18-.18,0-.33.03-.44.1-.11.07-.2.17-.27.29-.06.08-.14.12-.24.12h-1.09c-.07,0-.13-.02-.16-.06s-.06-.09-.05-.15c0-.11.04-.25.13-.39.09-.15.22-.3.4-.44.18-.15.41-.27.7-.36.28-.1.63-.14,1.04-.14s.77.05,1.07.14.54.23.73.4c.19.17.32.37.41.6s.13.49.13.77v2.89c0,.06-.02.12-.07.17-.05.05-.11.07-.17.07h-1.12c-.07,0-.13-.02-.17-.07-.05-.05-.07-.1-.07-.17v-.33c-.08.12-.2.23-.34.33-.14.1-.31.18-.5.24-.19.06-.41.09-.66.09ZM96.75,34.76c.19,0,.36-.04.51-.12.15-.08.27-.2.36-.37.09-.17.13-.38.13-.63v-.13l-.82.14c-.3.05-.53.13-.66.23-.14.1-.21.23-.21.37,0,.11.03.2.1.28.06.08.15.13.26.18s.22.06.34.06Z"/>
          <path class="cls-2" d="M104.86,35.75c-.07,0-.13-.02-.17-.07-.05-.04-.07-.1-.07-.17v-6.19c0-.07.02-.13.07-.17.04-.04.1-.07.17-.07h1.25c.07,0,.13.02.18.07s.07.1.07.17v2.29h2.38v-2.29c0-.07.02-.13.07-.17.05-.04.1-.07.18-.07h1.25c.07,0,.13.02.17.07.04.04.07.1.07.17v6.19c0,.06-.02.12-.07.17-.05.05-.1.07-.17.07h-1.25c-.07,0-.13-.02-.18-.07-.04-.05-.07-.1-.07-.17v-2.37h-2.38v2.37c0,.06-.03.12-.07.17-.05.05-.11.07-.18.07h-1.25Z"/>
          <path class="cls-2" d="M114.21,35.85c-.35,0-.66-.07-.94-.2-.27-.13-.49-.31-.65-.53-.16-.22-.24-.47-.24-.75,0-.45.19-.81.56-1.07.37-.26.87-.44,1.49-.54l1.21-.18v-.13c0-.23-.05-.4-.14-.52-.1-.12-.28-.18-.53-.18-.18,0-.33.03-.44.1-.11.07-.2.17-.27.29-.06.08-.14.12-.24.12h-1.09c-.07,0-.13-.02-.16-.06s-.06-.09-.05-.15c0-.11.04-.25.13-.39.09-.15.22-.3.4-.44.18-.15.41-.27.7-.36.28-.1.63-.14,1.04-.14s.77.05,1.07.14.54.23.73.4c.19.17.32.37.41.6s.13.49.13.77v2.89c0,.06-.02.12-.07.17-.05.05-.11.07-.17.07h-1.12c-.07,0-.13-.02-.17-.07-.05-.05-.07-.1-.07-.17v-.33c-.08.12-.2.23-.34.33-.14.1-.31.18-.5.24-.19.06-.41.09-.66.09ZM114.67,34.76c.19,0,.36-.04.51-.12.15-.08.27-.2.36-.37.09-.17.13-.38.13-.63v-.13l-.82.14c-.3.05-.53.13-.66.23-.14.1-.21.23-.21.37,0,.11.03.2.1.28.06.08.15.13.26.18s.22.06.34.06Z"/>
          <path class="cls-2" d="M122.47,35.85c-.36,0-.66-.06-.9-.18s-.45-.27-.6-.46v.31c0,.06-.02.12-.07.17-.05.05-.11.07-.17.07h-1.1c-.07,0-.13-.02-.17-.07-.05-.05-.07-.1-.07-.17v-6.28c0-.07.02-.13.07-.17.04-.04.1-.07.17-.07h1.18c.07,0,.13.02.17.07.04.04.07.1.07.17v2.04c.16-.17.36-.3.59-.41.23-.1.51-.16.83-.16s.61.05.86.16c.25.11.46.25.63.45.17.19.31.43.41.7.1.28.15.58.17.92,0,.13,0,.24,0,.34s0,.21,0,.34c-.01.36-.07.67-.17.95-.1.28-.23.51-.41.7-.18.19-.39.34-.64.44-.25.1-.53.15-.85.15ZM121.95,34.57c.22,0,.39-.04.51-.13.12-.09.21-.21.27-.36.05-.15.09-.32.1-.5.01-.2.01-.39,0-.59-.01-.18-.05-.35-.1-.5-.06-.15-.14-.27-.27-.36-.12-.09-.29-.13-.51-.13-.2,0-.36.04-.49.13-.13.09-.23.2-.29.33s-.1.28-.11.44c0,.12,0,.24,0,.35s0,.23,0,.36c.01.17.05.33.11.48s.15.27.28.36.3.14.5.14Z"/>
          <path class="cls-2" d="M128.81,35.85c-.76,0-1.37-.2-1.82-.61s-.69-1.01-.71-1.81v-.33c.02-.5.13-.93.34-1.29.21-.36.5-.63.87-.82.37-.19.81-.28,1.3-.28.57,0,1.04.11,1.41.33s.65.52.84.9c.19.38.28.82.28,1.3v.23c0,.07-.02.13-.07.17-.05.04-.1.07-.18.07h-3.1v.07c0,.18.04.35.1.5s.15.27.27.36c.12.09.27.13.44.13.13,0,.24-.02.32-.06s.16-.09.22-.14c.06-.05.1-.1.14-.14.06-.07.1-.11.14-.13s.09-.02.17-.02h1.2c.06,0,.12.02.16.06.04.04.06.09.05.15,0,.11-.06.24-.17.39s-.25.3-.45.45-.44.27-.74.37c-.3.09-.64.14-1.04.14ZM127.98,32.77h1.64v-.02c0-.21-.03-.39-.09-.54-.06-.15-.15-.27-.28-.35s-.28-.12-.45-.12-.31.04-.44.12-.22.2-.28.35c-.07.15-.1.33-.1.54v.02Z"/>
          <path class="cls-2" d="M133.45,35.75c-.07,0-.13-.02-.17-.07-.05-.05-.07-.1-.07-.17v-4.48c0-.06.02-.12.07-.17.04-.05.1-.07.17-.07h1.12c.07,0,.13.02.18.07.05.05.07.1.07.17v.38c.17-.2.37-.35.62-.46s.52-.16.82-.16h.43c.07,0,.13.02.17.07.04.04.07.1.07.17v.98c0,.06-.02.12-.07.17-.05.05-.1.07-.17.07h-.94c-.27,0-.47.07-.62.21-.14.14-.22.34-.22.6v2.44c0,.06-.02.12-.07.17-.05.05-.11.07-.18.07h-1.2Z"/>
          <path class="cls-2" d="M138.82,35.75c-.07,0-.13-.02-.17-.07-.05-.05-.07-.1-.07-.17v-6.28c0-.07.02-.13.07-.17.04-.04.1-.07.17-.07h1.14c.07,0,.13.02.17.07.04.04.07.1.07.17v6.28c0,.06-.02.12-.07.17-.04.05-.1.07-.17.07h-1.14Z"/>
          <path class="cls-2" d="M144.65,35.85c-.76,0-1.37-.2-1.82-.61s-.69-1.01-.71-1.81v-.33c.02-.5.13-.93.34-1.29.21-.36.5-.63.87-.82.37-.19.81-.28,1.3-.28.57,0,1.04.11,1.41.33s.65.52.84.9c.19.38.28.82.28,1.3v.23c0,.07-.02.13-.07.17-.05.04-.1.07-.18.07h-3.1v.07c0,.18.04.35.1.5s.15.27.27.36c.12.09.27.13.44.13.13,0,.24-.02.32-.06s.16-.09.22-.14c.06-.05.1-.1.14-.14.06-.07.1-.11.14-.13s.09-.02.17-.02h1.2c.06,0,.12.02.16.06.04.04.06.09.05.15,0,.11-.06.24-.17.39s-.25.3-.45.45-.44.27-.74.37c-.3.09-.64.14-1.04.14ZM143.82,32.77h1.64v-.02c0-.21-.03-.39-.09-.54-.06-.15-.15-.27-.28-.35s-.28-.12-.45-.12-.31.04-.44.12-.22.2-.28.35c-.07.15-.1.33-.1.54v.02Z"/>
          <path class="cls-2" d="M149.29,35.75c-.07,0-.13-.02-.17-.07-.05-.05-.07-.1-.07-.17v-4.48c0-.06.02-.12.07-.17.04-.05.1-.07.17-.07h1.12c.07,0,.13.02.18.07.05.05.07.1.07.17v.38c.17-.2.37-.35.62-.46s.52-.16.82-.16h.43c.07,0,.13.02.17.07.04.04.07.1.07.17v.98c0,.06-.02.12-.07.17-.05.05-.1.07-.17.07h-.94c-.27,0-.47.07-.62.21-.14.14-.22.34-.22.6v2.44c0,.06-.02.12-.07.17-.05.05-.11.07-.18.07h-1.2Z"/>
          <path class="cls-2" d="M154.66,30.09c-.07,0-.13-.02-.17-.07-.04-.04-.07-.1-.07-.17v-.86c0-.06.02-.12.07-.17.05-.05.1-.07.17-.07h1.16c.07,0,.12.02.17.07.05.05.07.1.07.17v.86c0,.07-.02.13-.07.17-.05.04-.1.07-.17.07h-1.16ZM154.67,35.75c-.07,0-.13-.02-.17-.07-.05-.05-.07-.1-.07-.17v-4.48c0-.07.02-.13.07-.17.04-.04.1-.07.17-.07h1.14c.07,0,.13.02.17.07.04.04.07.1.07.17v4.48c0,.06-.02.12-.07.17-.04.05-.1.07-.17.07h-1.14Z"/>
        </g>
        <g>
          <polygon class="cls-1" points="16.45 24.53 14.55 26.25 24.01 36.23 19.08 36.23 12.57 28.8 7.25 33.52 7.25 36.23 3.16 36.23 3.16 34.56 30.2 9.17 16.79 9.17 3.16 23.43 3.16 11.72 7.17 11.8 7.15 17.59 9.7 14.62 9.72 8.96 .6 9.03 .6 29.8 17.88 11.72 23.75 11.72 .6 33.46 .6 38.78 9.81 38.78 9.81 34.66 12.34 32.42 17.92 38.78 29.94 38.78 16.56 24.65 16.45 24.53"/>
          <path class="cls-1" d="M56.09,12.29c-.2-.05-.68-.15-1.13-.15-1.64,0-2.7.91-3.25,1.99v7.44h-3.3v-12.46h2.32l.83,2.12h.12c1.03-2.07,2.07-2.35,3.35-2.35.81,0,1.39.26,1.44.3l-.38,3.1v.02Z"/>
          <rect class="cls-1" x="58.48" y="9.1" width="3.3" height="12.46"/>
          <path class="cls-1" d="M84.92,11.88v5.22c0,1.46.53,1.97,1.57,1.97.68,0,1.33-.18,1.69-.3l.33,2.55s-1.11.5-2.83.5c-2.52,0-4.04-1.33-4.04-4.18v-5.75h-2.17v-2.77h1.99l1.77-3.1h1.69v3.1h3.78v2.77h-3.78,0Z"/>
          <path class="cls-1" d="M103.21,15.36c0,3.53-2.47,6.45-6.79,6.45-4.08,0-6.81-2.65-6.81-6.45s2.77-6.51,6.81-6.51,6.79,2.7,6.79,6.51ZM92.94,15.36c0,1.89,1.24,3.7,3.48,3.7,2.09,0,3.46-1.67,3.46-3.7s-1.21-3.73-3.46-3.73-3.48,1.69-3.48,3.73Z"/>
          <path class="cls-1" d="M105.15,20.81l.73-2.6c.6.26,2.32.98,4.36.98,1.77,0,2.47-.73,2.47-1.54,0-.38-.15-.76-.66-.96-.38-.15-1.16-.26-2.32-.4-1.64-.22-2.63-.53-3.33-1.01-.76-.5-1.24-1.41-1.24-2.52,0-2.17,1.79-3.91,5.4-3.91,2.17,0,3.94.58,4.72.96l-.81,2.52c-.86-.4-2.32-.83-3.86-.83s-2.22.56-2.22,1.26c0,.33.18.66.58.81.4.18,1.19.28,2.27.43,1.31.18,2.29.38,3.03.76,1.08.56,1.69,1.57,1.69,2.87,0,2.27-1.84,4.18-5.57,4.18-2.29,0-4.46-.63-5.25-1.01h0Z"/>
          <polygon class="cls-1" points="40.52 15.05 45.25 9.11 41.48 9.11 37.74 13.83 36.23 13.83 36.23 9.03 32.93 9.03 32.93 21.56 36.23 21.56 36.23 16.36 37.5 16.36 41.86 21.56 45.84 21.56 40.52 15.15 40.52 15.05"/>
          <polygon class="cls-1" points="126.23 15.05 130.97 9.11 127.19 9.11 123.46 13.83 121.95 13.83 121.95 9.03 118.65 9.03 118.65 21.56 121.95 21.56 121.95 16.36 123.21 16.36 127.57 21.56 131.56 21.56 126.23 15.15 126.23 15.05"/>
          <path class="cls-1" d="M145.88,15.36c0,3.53-2.47,6.45-6.79,6.45-4.08,0-6.81-2.65-6.81-6.45s2.77-6.51,6.81-6.51,6.79,2.7,6.79,6.51ZM135.62,15.36c0,1.89,1.24,3.7,3.48,3.7,2.09,0,3.46-1.67,3.46-3.7s-1.21-3.73-3.46-3.73-3.48,1.69-3.48,3.73Z"/>
          <path class="cls-1" d="M150.9,9.1l.76,1.84h.1c.88-1.59,2.22-2.09,4.14-2.09,3.35,0,5.65,2.49,5.65,6.33s-2.17,6.63-5.97,6.63c-1.61,0-2.8-.3-3.8-1.59l-.15.08s.28,1.64.28,2.35v2.47h-3.3V9.1h2.32,0ZM151.89,18.04c.46.38,1.31,1.03,3.1,1.03,2.35,0,3.28-1.57,3.28-3.86s-1.31-3.58-3.28-3.58c-1.21,0-2.29.46-3.1,1.21v5.2Z"/>
          <path class="cls-1" d="M67.47,9.1l.76,1.84h.1c.88-1.59,2.22-2.09,4.14-2.09,3.35,0,5.65,2.49,5.65,6.33s-2.17,6.63-5.97,6.63c-1.61,0-2.8-.3-3.8-1.59l-.15.08s.28,1.64.28,2.35v2.47h-3.3V9.1h2.32,0ZM68.46,18.04c.46.38,1.31,1.03,3.1,1.03,2.35,0,3.28-1.57,3.28-3.86s-1.31-3.58-3.28-3.58c-1.21,0-2.29.46-3.1,1.21v5.2Z"/>
          <circle class="cls-1" cx="60.13" cy="5.2" r="2.03"/>
        </g>
      </g>
    </g>
  </g>
</svg>