<svg width="20" height="20" viewBox="0 0 20 20" fill="none" xmlns="http://www.w3.org/2000/svg">
<g id="credits-logo">
<g id="Group 1171275000">
<g id="Subtract">
<mask id="path-1-inside-1_7273_10932" fill="white">
<path fill-rule="evenodd" clip-rule="evenodd" d="M7.97989 0.717936C7.97989 0.452748 7.73615 0.253944 7.47948 0.320592C4.07248 1.20524 1.37138 3.84111 0.394462 7.2099C0.319324 7.469 0.518977 7.7207 0.788753 7.7207H1.28111C1.4703 7.7207 1.635 7.59351 1.69119 7.41286C2.56398 4.60711 4.8188 2.41029 7.65937 1.61872C7.84627 1.56664 7.97989 1.39903 7.97989 1.20501V0.717936ZM7.97989 18.7955C7.97989 18.6015 7.84629 18.4339 7.65938 18.3818C4.67875 17.5512 2.34304 15.1733 1.57226 12.1683C1.52322 11.977 1.35366 11.8389 1.15626 11.8389H0.672557C0.410542 11.8389 0.212406 12.0772 0.273276 12.332C1.13 15.9189 3.91935 18.7555 7.47947 19.6799C7.73615 19.7466 7.97989 19.5478 7.97989 19.2826V18.7955ZM12.5205 19.6799C12.2638 19.7466 12.0201 19.5478 12.0201 19.2826V18.7955C12.0201 18.6015 12.1537 18.4339 12.3406 18.3818C15.3212 17.5512 17.6569 15.1733 18.4277 12.1683C18.4767 11.977 18.6463 11.8389 18.8437 11.8389H19.3274C19.5894 11.8389 19.7875 12.0772 19.7267 12.332C18.87 15.9189 16.0806 18.7555 12.5205 19.6799ZM12.3406 1.61872C12.1537 1.56664 12.0201 1.39904 12.0201 1.20501V0.717936C12.0201 0.452748 12.2638 0.253944 12.5205 0.320592C15.9275 1.20524 18.6286 3.84111 19.6055 7.2099C19.6806 7.469 19.481 7.7207 19.2112 7.7207H18.7188C18.5296 7.7207 18.3649 7.59351 18.3088 7.41286C17.436 4.60711 15.1811 2.41029 12.3406 1.61872Z"/>
</mask>
<path d="M18.3088 7.41286L19.4321 7.06342L18.3088 7.41286ZM19.6055 7.2099L18.4756 7.53757L19.6055 7.2099ZM12.3406 1.61872L12.0248 2.75201L12.3406 1.61872ZM12.5205 0.320592L12.2248 1.4593L12.5205 0.320592ZM18.4277 12.1683L17.2881 11.876L18.4277 12.1683ZM12.5205 19.6799L12.2248 18.5412L12.5205 19.6799ZM12.3406 18.3818L12.6564 19.5151L12.3406 18.3818ZM7.47947 19.6799L7.18379 20.8186L7.47947 19.6799ZM0.273276 12.332L-0.871008 12.6053L0.273276 12.332ZM7.65938 18.3818L7.97519 17.2485L7.65938 18.3818ZM1.57226 12.1683L0.432681 12.4605L1.57226 12.1683ZM7.1838 -0.818118C3.37412 0.171095 0.356747 3.1159 -0.735458 6.88224L1.52438 7.53757C2.38602 4.56631 4.77085 2.23939 7.77515 1.4593L7.1838 -0.818118ZM0.788753 8.89717H1.28111V6.54423H0.788753V8.89717ZM2.81457 7.76231C3.56901 5.33698 5.52044 3.43606 7.97518 2.75201L7.34355 0.485429C4.11716 1.38452 1.55894 3.87723 0.567819 7.06342L2.81457 7.76231ZM9.15636 1.20501V0.717936H6.80342V1.20501H9.15636ZM0.432681 12.4605C1.30816 15.8738 3.95852 18.5718 7.34358 19.5151L7.97519 17.2485C5.39898 16.5306 3.37792 14.4728 2.71185 11.876L0.432681 12.4605ZM0.672557 13.0153H1.15626V10.6624H0.672557V13.0153ZM7.77515 18.5412C4.63539 17.7259 2.17302 15.2216 1.41756 12.0587L-0.871008 12.6053C0.0869778 16.6162 3.20331 19.785 7.18379 20.8186L7.77515 18.5412ZM9.15636 19.2826V18.7955H6.80342V19.2826H9.15636ZM10.8436 18.7955V19.2826H13.1965V18.7955H10.8436ZM12.6564 19.5151C16.0414 18.5718 18.6918 15.8738 19.5673 12.4605L17.2881 11.876C16.622 14.4728 14.601 16.5306 12.0248 17.2485L12.6564 19.5151ZM18.8437 13.0153H19.3274V10.6624H18.8437V13.0153ZM18.5824 12.0587C17.8269 15.2216 15.3646 17.7259 12.2248 18.5412L12.8161 20.8186C16.7966 19.785 19.913 16.6162 20.871 12.6053L18.5824 12.0587ZM10.8436 0.717936V1.20501H13.1965V0.717936H10.8436ZM20.7354 6.88224C19.6432 3.11591 16.6258 0.171096 12.8161 -0.818117L12.2248 1.4593C15.2291 2.23939 17.6139 4.56631 18.4756 7.53757L20.7354 6.88224ZM18.7188 8.89717H19.2112V6.54423H18.7188V8.89717ZM12.0248 2.75201C14.4795 3.43606 16.4309 5.33698 17.1854 7.76231L19.4321 7.06342C18.441 3.87723 15.8828 1.38452 12.6564 0.485429L12.0248 2.75201ZM18.7188 6.54423C19.0704 6.54423 19.3431 6.77709 19.4321 7.06342L17.1854 7.76231C17.3868 8.40993 17.9889 8.89717 18.7188 8.89717V6.54423ZM18.4756 7.53757C18.3198 7.00053 18.7434 6.54423 19.2112 6.54423V8.89717C20.2185 8.89717 21.0414 7.93748 20.7354 6.88224L18.4756 7.53757ZM10.8436 1.20501C10.8436 1.95389 11.3554 2.56547 12.0248 2.75201L12.6564 0.485429C12.952 0.567806 13.1965 0.844182 13.1965 1.20501H10.8436ZM13.1965 0.717936C13.1965 1.17856 12.7552 1.59703 12.2248 1.4593L12.8161 -0.818117C11.7724 -1.08914 10.8436 -0.27306 10.8436 0.717936H13.1965ZM19.3274 13.0153C18.8718 13.0153 18.4569 12.5842 18.5824 12.0587L20.871 12.6053C21.1182 11.5701 20.307 10.6624 19.3274 10.6624V13.0153ZM19.5673 12.4605C19.4898 12.7626 19.2109 13.0153 18.8437 13.0153V10.6624C18.0817 10.6624 17.4637 11.1915 17.2881 11.876L19.5673 12.4605ZM10.8436 19.2826C10.8436 20.2736 11.7724 21.0896 12.8161 20.8186L12.2248 18.5412C12.7552 18.4035 13.1965 18.8219 13.1965 19.2826H10.8436ZM13.1965 18.7955C13.1965 19.1562 12.9521 19.4327 12.6564 19.5151L12.0248 17.2485C11.3553 17.4351 10.8436 18.0467 10.8436 18.7955H13.1965ZM7.18379 20.8186C8.22753 21.0896 9.15636 20.2736 9.15636 19.2826H6.80342C6.80342 18.8219 7.24476 18.4035 7.77515 18.5412L7.18379 20.8186ZM0.672557 10.6624C-0.307106 10.6624 -1.11827 11.5701 -0.871008 12.6053L1.41756 12.0587C1.54308 12.5842 1.12819 13.0153 0.672557 13.0153V10.6624ZM7.34358 19.5151C7.0479 19.4327 6.80342 19.1563 6.80342 18.7955H9.15636C9.15636 18.0467 8.64468 17.4351 7.97519 17.2485L7.34358 19.5151ZM2.71185 11.876C2.53629 11.1915 1.91829 10.6624 1.15626 10.6624V13.0153C0.789034 13.0153 0.510152 12.7626 0.432681 12.4605L2.71185 11.876ZM7.97518 2.75201C8.64459 2.56547 9.15636 1.95389 9.15636 1.20501H6.80342C6.80342 0.84418 7.04794 0.567806 7.34355 0.485429L7.97518 2.75201ZM1.28111 8.89717C2.01106 8.89717 2.61311 8.40993 2.81457 7.76231L0.567819 7.06342C0.656885 6.77709 0.929533 6.54423 1.28111 6.54423V8.89717ZM-0.735458 6.88224C-1.04147 7.93748 -0.218593 8.89717 0.788753 8.89717V6.54423C1.25655 6.54423 1.68012 7.00053 1.52438 7.53757L-0.735458 6.88224ZM7.77515 1.4593C7.24474 1.59703 6.80342 1.17856 6.80342 0.717936H9.15636C9.15636 -0.27306 8.22757 -1.08914 7.1838 -0.818118L7.77515 1.4593Z" fill="url(#paint0_radial_7273_10932)" mask="url(#path-1-inside-1_7273_10932)"/>
</g>
<path id="Vector" d="M10.713 13.1291L10.467 13.6951C10.4286 13.7872 10.3637 13.866 10.2806 13.9214C10.1975 13.9767 10.0999 14.0063 10 14.0063C9.90016 14.0063 9.80253 13.9767 9.71943 13.9214C9.63633 13.866 9.57147 13.7872 9.53302 13.6951L9.28702 13.1291C8.8545 12.1278 8.0624 11.325 7.06702 10.8791L6.30802 10.5401C6.21594 10.4977 6.13794 10.4299 6.08325 10.3445C6.02857 10.2592 5.99951 10.1599 5.99951 10.0586C5.99951 9.95722 6.02857 9.85799 6.08325 9.77265C6.13794 9.68731 6.21594 9.61944 6.30802 9.57708L7.02502 9.25808C8.04542 8.79946 8.85108 7.96696 9.27602 6.93208L9.52902 6.32108C9.56618 6.22643 9.63099 6.14518 9.71501 6.08791C9.79902 6.03063 9.89834 6 10 6C10.1017 6 10.201 6.03063 10.285 6.08791C10.3691 6.14518 10.4339 6.22643 10.471 6.32108L10.724 6.93108C11.1485 7.96616 11.9538 8.79901 12.974 9.25808L13.692 9.57808C13.7838 9.62056 13.8615 9.68842 13.916 9.77365C13.9705 9.85889 13.9994 9.95793 13.9994 10.0591C13.9994 10.1602 13.9705 10.2593 13.916 10.3445C13.8615 10.4297 13.7838 10.4976 13.692 10.5401L12.932 10.8781C11.9368 11.3244 11.1451 12.1276 10.713 13.1291Z" fill="#EFEFE5"/>
</g>
</g>
<defs>
<radialGradient id="paint0_radial_7273_10932" cx="0" cy="0" r="1" gradientUnits="userSpaceOnUse" gradientTransform="translate(3.67043 -4.5387) rotate(64.9934) scale(29.9466 34.6573)">
<stop offset="0.111366" stop-color="#FC6756"/>
<stop offset="0.376862" stop-color="#F8CF3E"/>
<stop offset="0.621031" stop-color="#26F4D0"/>
<stop offset="0.902039" stop-color="#724CE8"/>
</radialGradient>
</defs>
</svg>
