<svg width="16" height="16" viewBox="0 0 16 16" fill="none" xmlns="http://www.w3.org/2000/svg">
<path opacity="0.6" d="M7.35784 0.58762C7.35784 0.263086 7.63032 0 7.96645 0H8.02181C8.35794 0 8.63042 0.263087 8.63042 0.587621V6.18368C8.63042 6.33939 8.66111 6.49378 8.72097 6.63811C8.78083 6.78246 8.86882 6.91422 8.98035 7.02562C9.09191 7.13704 9.22487 7.22595 9.37192 7.28679C9.51898 7.34763 9.67697 7.37908 9.83676 7.37908H15.3914C15.7275 7.37908 16 7.64217 16 7.9667V8.05307C16 8.3776 15.7275 8.64069 15.3914 8.64069H9.83676C9.51363 8.64069 9.20578 8.76899 8.98035 8.99415C8.75525 9.21899 8.63042 9.52201 8.63042 9.83609V15.4124C8.63042 15.7369 8.35794 16 8.02181 16H7.96645C7.63032 16 7.35784 15.7369 7.35784 15.4124V9.83609C7.35784 9.52201 7.23302 9.21899 7.00791 8.99415C6.78248 8.76899 6.47463 8.64069 6.15151 8.64069H0.608607C0.272482 8.64069 0 8.3776 0 8.05307V7.96693C0 7.6424 0.272483 7.37931 0.608607 7.37931H6.15151C6.47463 7.37931 6.78248 7.25101 7.00791 7.02585C7.23302 6.80101 7.35784 6.49799 7.35784 6.18391V0.58762Z" fill="#EFEFE5"/>
</svg>
