<svg width="130" height="42" viewBox="0 0 130 42" fill="none" xmlns="http://www.w3.org/2000/svg">
<g opacity="0.7">
<path d="M27.3076 6.75781H42.6764C43.2484 6.75781 43.7862 6.98077 44.1901 7.38853L48.3313 11.5484C48.7332 11.9522 48.9592 12.4985 48.9592 13.071V18.0689C48.9592 18.2598 48.8052 18.4144 48.6152 18.4144H45.9978C45.8078 18.4144 45.6539 18.2598 45.6539 18.0689V14.5674C45.6539 12.0887 43.6543 10.0801 41.1867 10.0801L28.7993 10.0801C26.3318 10.0801 24.3322 12.0887 24.3322 14.5674V27.0245C24.3322 29.5032 26.3318 31.5118 28.7993 31.5118H38.0225C38.2014 31.5118 38.3464 31.6569 38.3464 31.8358V34.5101C38.3464 34.6891 38.2014 34.8341 38.0225 34.8341H27.3076C26.7437 34.8341 26.1918 34.6031 25.7939 34.2034L21.6527 30.0434C21.2508 29.6398 21.0249 29.0934 21.0249 28.523V13.0689C21.0249 12.4985 21.2508 11.9522 21.6527 11.5484L25.7939 7.38853C26.1918 6.98881 26.7437 6.75781 27.3076 6.75781Z" fill="#EFEFE5"/>
<path d="M32.9091 21.0501C32.9091 22.0702 32.1137 22.8973 31.1326 22.8973C30.1514 22.8973 29.3561 22.0702 29.3561 21.0501C29.3561 20.03 30.1514 19.2029 31.1326 19.2029C32.1137 19.2029 32.9091 20.03 32.9091 21.0501Z" fill="#EFEFE5"/>
<path d="M39.0962 22.8973C40.0773 22.8973 40.8727 22.0702 40.8727 21.0501C40.8727 20.03 40.0773 19.2029 39.0962 19.2029C38.1151 19.2029 37.3197 20.03 37.3197 21.0501C37.3197 22.0702 38.1151 22.8973 39.0962 22.8973Z" fill="#EFEFE5"/>
<path d="M44.259 31.4142H42.6305C42.9725 33.9221 45.0081 35.0946 47.6137 35.0946C51.0661 35.0946 52.3038 33.5801 52.3038 31.5933C52.3038 28.8574 50.0239 28.4503 47.3694 27.9943C45.8061 27.7338 44.601 27.4732 44.5847 26.2844C44.5847 25.1282 45.6758 24.4116 47.2717 24.4116C49.2422 24.4116 50.0239 25.3236 50.2519 26.5612H51.7175C51.4407 24.4116 50.0727 23.0111 47.2717 23.0111C44.6661 23.0111 43.119 24.2813 43.119 26.3333C43.1353 28.4992 45.0244 29.0203 47.174 29.4274C49.5353 29.8671 50.8381 30.1928 50.8381 31.6259C50.8381 32.8472 49.8284 33.6452 47.7603 33.6452C45.7898 33.6452 44.5684 32.8635 44.259 31.4142Z" fill="#EFEFE5"/>
<path fill-rule="evenodd" clip-rule="evenodd" d="M61.0161 30.3068C61.0161 27.8803 59.4202 26.7567 57.58 26.7567H56.6354C54.7952 26.7567 53.1993 27.8803 53.1993 30.3068V31.5445C53.1993 33.9709 54.7952 35.0946 56.6354 35.0946H57.58C59.4202 35.0946 61.0161 33.9709 61.0161 31.5445V30.3068ZM59.5505 30.5674V31.2839C59.5505 32.7495 58.9642 33.6941 57.1077 33.6941C55.2512 33.6941 54.665 32.7495 54.665 31.2839V30.5674C54.665 29.1017 55.2512 28.1572 57.1077 28.1572C58.9642 28.1572 59.5505 29.1017 59.5505 30.5674Z" fill="#EFEFE5"/>
<path d="M65.9923 24.6722C64.6895 24.6722 64.2824 25.4539 64.2824 26.7567V27.0172H66.6437V28.4177H64.2824V34.834H62.8167V28.4177H61.6605V27.0172H62.8167V26.4961C62.8167 24.0696 64.0707 23.2717 65.5201 23.2717H67.6208V24.6722H65.9923Z" fill="#EFEFE5"/>
<path d="M70.4134 28.4177H72.6119V27.0172H70.4134V23.0111H68.9478V27.0172H67.7915V28.4177H68.9478V31.6096C68.9478 34.0361 70.2017 34.834 71.6511 34.834H72.6119V33.4335H72.1234C70.8206 33.4335 70.4134 32.6518 70.4134 31.349V28.4177Z" fill="#EFEFE5"/>
<path d="M84.6969 27.0172H86.3254L83.8664 34.834H81.3585L80.0231 28.4177H79.7463L78.3946 34.834H75.8867L73.4277 27.0172H75.0562L76.8475 33.4335H77.3198L78.5737 27.0172H81.1793L82.4333 33.4335H82.9055L84.6969 27.0172Z" fill="#EFEFE5"/>
<path fill-rule="evenodd" clip-rule="evenodd" d="M94.8487 33.4335C94.5555 33.4335 94.2136 33.3358 94.2136 32.831V29.9811C94.2136 27.5546 92.9596 26.7567 91.5103 26.7567H89.9143C88.3184 26.7567 87.1947 27.9455 87.1947 29.1343H88.6604C88.6604 28.6132 89.2466 28.1572 90.0609 28.1572H91.038C92.4874 28.1572 92.7153 28.7923 92.7479 29.8834H90.0935C88.1881 29.8834 86.983 30.8931 86.983 32.3261V32.5053C86.983 34.492 88.5789 35.0783 90.0935 35.0783C91.1031 35.0783 92.3245 34.834 92.8782 33.9872C93.2039 34.8177 94.0996 34.834 94.8487 34.834V33.4335ZM92.7479 32.4076C92.7479 33.4498 91.2171 33.6778 90.5657 33.6778C89.0349 33.6778 88.4487 33.3521 88.4487 32.4401C88.4487 31.919 88.7418 31.121 90.5657 31.121H92.7479V32.4076Z" fill="#EFEFE5"/>
<path d="M100.283 27.0172H101.391V28.4177H99.8109C98.9966 28.4177 97.6287 29.1668 97.6287 31.1699V34.834H96.163V27.0172H97.6287V28.4666C98.1498 27.6523 99.2572 27.0172 100.283 27.0172Z" fill="#EFEFE5"/>
<path fill-rule="evenodd" clip-rule="evenodd" d="M109.778 30.3068C109.778 27.8803 108.019 26.7567 106.179 26.7567H105.56C103.72 26.7567 101.961 27.8803 101.961 30.3068V31.5445C101.961 33.9872 103.475 35.0946 105.397 35.0946H106.341C107.97 35.0946 109.419 34.2152 109.712 32.3098H108.182C107.921 33.173 107.237 33.6941 105.869 33.6941C104.013 33.6941 103.378 32.7495 103.378 31.2839V31.2025H109.778V30.3068ZM103.41 29.9974C103.54 28.8574 104.127 28.1572 105.869 28.1572C107.612 28.1572 108.198 28.8574 108.328 29.9974H103.41Z" fill="#EFEFE5"/>
</g>
</svg>
