<svg width="130" height="42" viewBox="0 0 130 42" fill="none" xmlns="http://www.w3.org/2000/svg">
<g id="logoTeam">
<g id="Vector" opacity="0.7">
<path d="M47.651 9.97903H51.1491C53.7375 9.97903 55.835 12.0753 55.835 14.6622V16.0625C55.835 16.2617 55.9965 16.4231 56.1958 16.4231H58.9414C59.1407 16.4231 59.3022 16.2617 59.3022 16.0625V13.1004C59.3022 12.503 59.0652 11.9328 58.6436 11.5114L54.2996 7.16997C53.8759 6.74441 53.3117 6.51172 52.7118 6.51172H47.651V9.97903Z" fill="#EFEFE5"/>
<path d="M45.651 32.3464H51.1491C53.7375 32.3464 55.835 30.2501 55.835 27.6632V22.4074C55.835 22.2082 55.9965 22.0468 56.1958 22.0468H58.9414C59.1407 22.0468 59.3022 22.2082 59.3022 22.4074V29.225C59.3022 29.8225 59.0652 30.3927 58.6436 30.814L54.2996 35.1555C53.8759 35.581 53.3117 35.8137 52.7118 35.8137H45.651V32.3464Z" fill="#EFEFE5"/>
<path d="M47.651 6.51172L36.5904 6.51183C35.9989 6.51183 35.42 6.75291 35.0026 7.17007L30.6586 11.5115C30.237 11.9329 30 12.5031 30 13.0984V21.163H33.4693V14.6623C33.4693 12.0755 35.5668 9.97914 38.1552 9.97914L47.651 9.97903V6.51172Z" fill="#EFEFE5"/>
<path d="M45.651 35.8137L36.5905 35.8138C35.999 35.8138 35.4201 35.5727 35.0027 35.1556L30.6587 30.8141C30.2371 30.3927 30.0001 29.8226 30.0001 29.2272L30 21.163H33.4693L33.4694 27.6633C33.4694 30.2502 35.5669 32.3465 38.1553 32.3465L45.651 32.3464V35.8137Z" fill="#EFEFE5"/>
<path d="M40.7157 23.2652C41.7564 23.2652 42.6 22.4102 42.6 21.3556C42.6 20.301 41.7564 19.4461 40.7157 19.4461C39.675 19.4461 38.8314 20.301 38.8314 21.3556C38.8314 22.4102 39.675 23.2652 40.7157 23.2652Z" fill="#EFEFE5"/>
<path d="M49.1482 23.2697C50.1889 23.2697 51.0325 22.4148 51.0325 21.3602C51.0325 20.3055 50.1889 19.4506 49.1482 19.4506C48.1075 19.4506 47.2639 20.3055 47.2639 21.3602C47.2639 22.4148 48.1075 23.2697 49.1482 23.2697Z" fill="#EFEFE5"/>
<path d="M70.1174 12.8901C70.0875 13.1228 70.0276 13.337 69.9377 13.5328C69.8479 13.7263 69.7316 13.8921 69.5888 14.0303C69.4437 14.1708 69.2721 14.2802 69.074 14.3585C68.8782 14.4345 68.6594 14.4725 68.4175 14.4725C68.2102 14.4725 68.0214 14.4437 67.8509 14.3862C67.6828 14.3263 67.533 14.2445 67.4017 14.1409C67.2682 14.0372 67.153 13.9151 67.0562 13.7746C66.9618 13.6341 66.8835 13.4809 66.8213 13.3151C66.7568 13.1493 66.7084 12.9754 66.6762 12.7934C66.6462 12.6114 66.6301 12.4272 66.6278 12.2406V11.5392C66.6301 11.3526 66.6462 11.1684 66.6762 10.9864C66.7084 10.8045 66.7568 10.6305 66.8213 10.4647C66.8835 10.2989 66.9618 10.1457 67.0562 10.0052C67.153 9.86238 67.2682 9.73915 67.4017 9.6355C67.533 9.53185 67.6828 9.45123 67.8509 9.39365C68.019 9.33376 68.2079 9.30382 68.4175 9.30382C68.6686 9.30382 68.8932 9.34298 69.0913 9.42129C69.2893 9.4973 69.4598 9.60556 69.6026 9.74606C69.7454 9.88887 69.8594 10.0593 69.9446 10.2574C70.0322 10.4555 70.0898 10.6743 70.1174 10.9139H69.4782C69.4575 10.7618 69.4218 10.6202 69.3711 10.4889C69.3204 10.3576 69.2525 10.2424 69.1673 10.1434C69.082 10.0443 68.9772 9.96718 68.8529 9.9119C68.7308 9.85432 68.5857 9.82553 68.4175 9.82553C68.2655 9.82553 68.1308 9.85087 68.0133 9.90154C67.8981 9.94991 67.7991 10.0167 67.7162 10.1019C67.6309 10.1872 67.5595 10.2862 67.5019 10.3991C67.4467 10.5119 67.4017 10.6317 67.3672 10.7584C67.3326 10.8851 67.3073 11.0152 67.2912 11.1488C67.2774 11.2801 67.2705 11.4079 67.2705 11.5323V12.2406C67.2705 12.365 67.2774 12.494 67.2912 12.6276C67.3073 12.7588 67.3326 12.8878 67.3672 13.0145C67.4017 13.1435 67.4467 13.2644 67.5019 13.3773C67.5572 13.4902 67.6275 13.5892 67.7127 13.6744C67.7979 13.762 67.8981 13.8311 68.0133 13.8817C68.1285 13.9301 68.2632 13.9543 68.4175 13.9543C68.5857 13.9543 68.7308 13.9278 68.8529 13.8748C68.9772 13.8218 69.082 13.747 69.1673 13.6502C69.2525 13.5558 69.3204 13.4441 69.3711 13.3151C69.4218 13.1838 69.4575 13.0422 69.4782 12.8901H70.1174Z" fill="#EFEFE5"/>
<path d="M74.2634 14.4034H73.6588V12.0782H71.5961V14.4034H70.995V9.37292H71.5961V11.5358H73.6588V9.37292H74.2634V14.4034Z" fill="#EFEFE5"/>
<path d="M77.7599 13.1009H76.0808L75.6765 14.4034H75.0374L76.6612 9.37292H77.1967L78.793 14.4034H78.1572L77.7599 13.1009ZM76.2535 12.5446H77.5906L76.9272 10.3611L76.2535 12.5446Z" fill="#EFEFE5"/>
<path d="M79.6083 9.37292H82.6488V9.92918H81.443V13.8506H82.6488V14.4034H79.6083V13.8506H80.7865V9.92918H79.6083V9.37292Z" fill="#EFEFE5"/>
<path d="M87.009 14.4034H86.3595L84.4074 10.6444L84.397 14.4034H83.7509V9.37292H84.4005L86.3526 13.1251L86.3629 9.37292H87.009V14.4034Z" fill="#EFEFE5"/>
<path d="M91.3623 13.7435C91.284 13.8357 91.2011 13.9197 91.1136 13.9957C91.0261 14.0694 90.9351 14.1339 90.8406 14.1892C90.6794 14.286 90.5055 14.3574 90.3189 14.4034C90.1324 14.4518 89.9366 14.4748 89.7316 14.4725C89.5243 14.4702 89.3331 14.4391 89.158 14.3793C88.9853 14.3171 88.8298 14.2318 88.6916 14.1236C88.5534 14.0176 88.4325 13.8921 88.3288 13.747C88.2252 13.6019 88.1388 13.4441 88.0697 13.2736C87.9983 13.1055 87.9442 12.9293 87.9073 12.745C87.8728 12.5585 87.8543 12.3707 87.852 12.1819V11.598C87.8543 11.4114 87.8705 11.226 87.9004 11.0417C87.9327 10.8551 87.981 10.6766 88.0455 10.5062C88.11 10.3357 88.1906 10.1779 88.2874 10.0328C88.3841 9.88542 88.5004 9.75758 88.6363 9.64932C88.7699 9.54337 88.9219 9.4593 89.0924 9.39711C89.2628 9.33491 89.454 9.30382 89.6659 9.30382C89.9009 9.30382 90.1174 9.34067 90.3155 9.41438C90.5136 9.48578 90.6863 9.58828 90.8337 9.72188C90.9811 9.85777 91.0998 10.0213 91.1896 10.2125C91.2794 10.4014 91.3347 10.6133 91.3554 10.8482H90.7232C90.6978 10.7031 90.6587 10.5695 90.6057 10.4474C90.5527 10.3231 90.4836 10.2171 90.3984 10.1296C90.3109 10.042 90.2072 9.97409 90.0874 9.92572C89.9677 9.87505 89.8283 9.84971 89.6694 9.84971C89.5174 9.84971 89.3826 9.8762 89.2651 9.92918C89.1477 9.97985 89.0452 10.049 88.9576 10.1365C88.8701 10.224 88.7976 10.3265 88.74 10.444C88.6824 10.5591 88.6352 10.6812 88.5983 10.8102C88.5615 10.9392 88.535 11.0705 88.5189 11.2041C88.5027 11.3377 88.4947 11.4667 88.4947 11.591V12.1819C88.497 12.3085 88.5073 12.4398 88.5258 12.5757C88.5465 12.7093 88.5776 12.8406 88.6191 12.9696C88.6605 13.0986 88.7135 13.2207 88.778 13.3358C88.8425 13.451 88.9208 13.5523 89.0129 13.6399C89.1028 13.7274 89.2076 13.7977 89.3273 13.8506C89.4471 13.9013 89.583 13.9278 89.735 13.9301C89.8226 13.9324 89.9135 13.9289 90.008 13.9197C90.1047 13.9105 90.198 13.8921 90.2878 13.8645C90.3777 13.8368 90.4617 13.8 90.54 13.7539C90.6184 13.7055 90.684 13.6433 90.737 13.5673L90.7439 12.4375H89.7212V11.8985H91.352L91.3623 13.7435Z" fill="#EFEFE5"/>
<path d="M93.0553 12.3857V14.4034H92.4161V9.37292H94.0469C94.2726 9.37753 94.4857 9.41323 94.6861 9.48003C94.8888 9.54682 95.0661 9.64356 95.2181 9.77025C95.3702 9.89693 95.49 10.0536 95.5775 10.2401C95.6673 10.4267 95.7122 10.6409 95.7122 10.8828C95.7122 11.1246 95.6673 11.3388 95.5775 11.5254C95.49 11.7097 95.3702 11.8651 95.2181 11.9918C95.0661 12.1185 94.8888 12.2153 94.6861 12.2821C94.4857 12.3488 94.2726 12.3834 94.0469 12.3857H93.0553ZM93.0553 11.8605H94.0469C94.1943 11.8582 94.3302 11.8352 94.4546 11.7914C94.579 11.7454 94.6872 11.6809 94.7794 11.598C94.8715 11.515 94.9429 11.4148 94.9936 11.2974C95.0466 11.1776 95.073 11.0417 95.073 10.8897C95.073 10.7377 95.0466 10.6006 94.9936 10.4785C94.9429 10.3565 94.8727 10.2528 94.7828 10.1676C94.6907 10.0824 94.5813 10.0167 94.4546 9.97064C94.3302 9.92457 94.1943 9.90039 94.0469 9.89808H93.0553V11.8605Z" fill="#EFEFE5"/>
<path d="M99.9999 9.91881H98.4451V14.4034H97.8232V9.91881H96.2685V9.37292H99.9999V9.91881Z" fill="#EFEFE5"/>
<path d="M73.3266 18.0567C74.628 18.0567 75.7239 18.4335 76.6143 19.1869C77.5184 19.9266 77.9705 21.091 77.9705 22.6801C77.9705 24.3377 77.5321 25.5226 76.6554 26.235C75.7787 26.9336 74.6691 27.2829 73.3266 27.2829H68.4772V32.6461H66.6278V18.0567H73.3266ZM72.9362 25.5158C74.0458 25.5158 74.8335 25.2692 75.2992 24.776C75.7787 24.2692 76.0184 23.5705 76.0184 22.6801C76.0184 21.7897 75.7787 21.0979 75.2992 20.6047C74.8335 20.0979 74.0458 19.8444 72.9362 19.8444H68.4772V25.5158H72.9362Z" fill="#EFEFE5"/>
<path d="M88.1132 30.1186C88.1132 30.6255 88.3803 30.8789 88.9146 30.8789V32.6461C88.2707 32.6461 87.7365 32.5844 87.3118 32.4611C86.9008 32.3378 86.6063 32.0433 86.4282 31.5775C86.1131 32.0707 85.6337 32.4269 84.9898 32.6461C84.346 32.8515 83.6542 32.9543 82.9145 32.9543C81.8048 32.9543 80.8733 32.7009 80.1199 32.194C79.3664 31.6871 78.9897 30.8584 78.9897 29.7076V29.4816C78.9897 28.5638 79.3459 27.824 80.0582 27.2624C80.7706 26.687 81.7227 26.3994 82.9145 26.3994H86.2638C86.2501 25.8925 86.1885 25.4884 86.0789 25.187C85.9693 24.8719 85.757 24.6322 85.4419 24.4678C85.1405 24.3034 84.6953 24.2212 84.1063 24.2212H82.8734C82.3665 24.2212 81.9418 24.3445 81.5994 24.5911C81.2706 24.824 81.1062 25.1117 81.1062 25.4541H79.2569C79.2569 24.9473 79.4007 24.4678 79.6884 24.0158C79.9897 23.55 80.4007 23.1733 80.9213 22.8856C81.4555 22.5979 82.0446 22.4541 82.6884 22.4541H84.7022C85.7159 22.4541 86.5378 22.776 87.168 23.4199C87.7981 24.0637 88.1132 25.098 88.1132 26.5227V30.1186ZM83.5104 31.1871C84.1268 31.1871 84.7364 31.0638 85.3392 30.8173C85.9556 30.5707 86.2638 30.1597 86.2638 29.5844V27.961H83.5104C82.4829 27.961 81.7774 28.1323 81.3939 28.4747C81.024 28.8035 80.8391 29.1871 80.8391 29.6255C80.8391 30.2008 81.0377 30.6049 81.435 30.8378C81.8459 31.0707 82.5377 31.1871 83.5104 31.1871Z" fill="#EFEFE5"/>
<path d="M99.9999 17.728V32.6461H98.1506V30.8789C97.8355 31.4816 97.356 31.9817 96.7122 32.3789C96.082 32.7762 95.445 32.9748 94.8012 32.9748C93.5409 32.9748 92.4998 32.5981 91.6778 31.8447C90.8696 31.0775 90.4655 29.9611 90.4655 28.4953V26.9336C90.4655 25.4678 90.8696 24.3582 91.6778 23.6048C92.4998 22.8377 93.5409 22.4541 94.8012 22.4541C95.445 22.4541 96.082 22.6527 96.7122 23.05C97.356 23.4473 97.8355 23.9473 98.1506 24.55V17.728H99.9999ZM95.1916 31.2077C95.6574 31.2077 96.1163 31.1049 96.5683 30.8994C97.0204 30.694 97.3971 30.3446 97.6985 29.8515C97.9999 29.3583 98.1506 28.7213 98.1506 27.9405V27.4884C98.1506 26.7076 97.9999 26.0706 97.6985 25.5774C97.3971 25.0843 97.0204 24.7349 96.5683 24.5295C96.1163 24.324 95.6574 24.2212 95.1916 24.2212C94.219 24.2212 93.4929 24.4884 93.0135 25.0226C92.5477 25.5569 92.3148 26.3035 92.3148 27.2624V28.1665C92.3148 29.1254 92.5477 29.872 93.0135 30.4063C93.4929 30.9405 94.219 31.2077 95.1916 31.2077Z" fill="#EFEFE5"/>
</g>
</g>
</svg>
