<svg width="130" height="42" viewBox="0 0 130 42" fill="none" xmlns="http://www.w3.org/2000/svg">
<g opacity="0.7">
<path d="M46.8367 9.09375H59.9382C60.4258 9.09375 60.8843 9.28382 61.2286 9.63142L64.7588 13.1776C65.1015 13.5218 65.2941 13.9875 65.2941 14.4755V18.7361C65.2941 18.8988 65.1628 19.0307 65.0009 19.0307H62.7696C62.6076 19.0307 62.4764 18.8988 62.4764 18.7361V15.7512C62.4764 13.6382 60.7718 11.9259 58.6683 11.9259L48.1084 11.9259C46.0049 11.9259 44.3003 13.6382 44.3003 15.7512V26.3704C44.3003 28.4835 46.0049 30.1958 48.1084 30.1958H59.2614C59.4139 30.1958 59.5376 30.3194 59.5376 30.4719V32.7518C59.5376 32.9043 59.4139 33.0279 59.2614 33.0279H46.8367C46.356 33.0279 45.8856 32.831 45.5464 32.4902L42.0162 28.944C41.6736 28.5999 41.481 28.1341 41.481 27.6479V14.4738C41.481 13.9875 41.6736 13.5218 42.0162 13.1776L45.5464 9.63142C45.8856 9.29067 46.356 9.09375 46.8367 9.09375Z" fill="#EFEFE5"/>
<path d="M51.6118 22.1001C51.6118 22.9697 50.9338 23.6748 50.0974 23.6748C49.2611 23.6748 48.583 22.9697 48.583 22.1001C48.583 21.2305 49.2611 20.5255 50.0974 20.5255C50.9338 20.5255 51.6118 21.2305 51.6118 22.1001Z" fill="#EFEFE5"/>
<path d="M56.8862 23.6748C57.7225 23.6748 58.4006 22.9697 58.4006 22.1001C58.4006 21.2305 57.7225 20.5255 56.8862 20.5255C56.0498 20.5255 55.3718 21.2305 55.3718 22.1001C55.3718 22.9697 56.0498 23.6748 56.8862 23.6748Z" fill="#EFEFE5"/>
<path fill-rule="evenodd" clip-rule="evenodd" d="M78.1645 26.5903C78.3341 26.5903 78.4853 26.6973 78.5417 26.8573L80.6689 32.8888C80.7253 33.0488 80.8765 33.1558 81.0462 33.1558H82.9834C83.259 33.1558 83.452 32.8835 83.3608 32.6234L76.3432 12.6133C76.287 12.453 76.1356 12.3457 75.9658 12.3457H71.6968C71.5269 12.3457 71.3756 12.453 71.3194 12.6134L64.3018 32.6234C64.2105 32.8835 64.4036 33.1558 64.6792 33.1558H66.6164C66.786 33.1558 66.9372 33.0488 66.9936 32.8888L69.1208 26.8573C69.1772 26.6973 69.3284 26.5903 69.4981 26.5903H78.1645ZM77.3818 23.5374C77.473 23.7975 77.2799 24.0697 77.0043 24.0697H70.6582C70.3827 24.0697 70.1896 23.7975 70.2807 23.5374L73.2246 15.1341C73.2807 14.9738 73.4321 14.8664 73.6021 14.8664H74.0605C74.2304 14.8664 74.3818 14.9738 74.438 15.1341L77.3818 23.5374Z" fill="#EFEFE5"/>
<path d="M88.519 12.7457C88.519 12.5248 88.3399 12.3457 88.119 12.3457H86.2811C86.0602 12.3457 85.8811 12.5248 85.8811 12.7457V32.7558C85.8811 32.9767 86.0602 33.1558 86.2811 33.1558H88.119C88.3399 33.1558 88.519 32.9767 88.519 32.7558V12.7457Z" fill="#EFEFE5"/>
</g>
</svg>
