<svg width="130" height="42" viewBox="0 0 130 42" fill="none" xmlns="http://www.w3.org/2000/svg">
<g id="logoTeam">
<g id="Union" opacity="0.7">
<path fill-rule="evenodd" clip-rule="evenodd" d="M63.2422 33H61.7119V31.5381C61.1849 32.5411 60.0114 33.2725 58.9404 33.2725C56.9686 33.2723 55.3536 32.0991 55.3535 29.5664V28.2744C55.3535 25.7416 56.9686 24.5685 58.9404 24.5684C60.0113 24.5684 61.1848 25.2989 61.7119 26.3018V20.6582H63.2422V33ZM59.2637 26.0303C57.6149 26.0303 56.8839 27.0161 56.8838 28.5459V29.2939C56.8838 30.8239 57.6148 31.8105 59.2637 31.8105C60.2836 31.8105 61.7118 31.1982 61.7119 29.1074V28.7334C61.7119 26.6424 60.2837 26.0303 59.2637 26.0303Z" fill="#EFEFE5"/>
<path d="M81.6045 24.5684C83.3045 24.5684 84.7666 25.3334 85.1406 26.9824H83.4404C83.2704 26.3874 82.7606 25.9795 81.4346 25.9795C80.3299 25.9795 79.5989 26.404 79.5986 26.9648C79.5986 27.6448 80.1936 27.8318 81.5703 27.9678C84.6473 28.2738 85.498 29.0392 85.498 30.5352C85.498 32.1672 84.3075 33.2725 81.6895 33.2725C79.2757 33.2724 78.1025 32.3032 77.7285 30.6543H79.4287C79.5647 31.2493 80.1091 31.8105 81.707 31.8105C83.6444 31.8105 83.9676 31.0965 83.9678 30.5186C83.9678 29.7876 83.4745 29.6171 81.0605 29.3281C78.7659 29.0561 78.0685 28.3423 78.0684 27.1016C78.0684 25.5546 79.3606 24.5684 81.6045 24.5684Z" fill="#EFEFE5"/>
<path fill-rule="evenodd" clip-rule="evenodd" d="M91.4346 24.5684C93.3556 24.5684 95.0215 25.7414 95.0215 28.2744V29.5664C95.0214 32.0993 93.3555 33.2725 91.4346 33.2725H90.4482C88.5274 33.2723 86.8614 32.0991 86.8613 29.5664V28.2744C86.8613 25.7416 88.5274 24.5685 90.4482 24.5684H91.4346ZM90.9414 26.0303C89.0037 26.0303 88.3917 27.0161 88.3916 28.5459V29.2939C88.3916 30.8239 89.0035 31.8105 90.9414 31.8105C92.8794 31.8105 93.4912 30.8239 93.4912 29.2939V28.5459C93.4911 27.0161 92.8793 26.0303 90.9414 26.0303Z" fill="#EFEFE5"/>
<path d="M44.9277 6C45.4804 6.00009 46.0003 6.2144 46.3906 6.60645L50.3936 10.6074C50.7818 10.9956 51 11.521 51 12.0713V16.8779C50.9998 17.0611 50.8512 17.2098 50.668 17.21H48.1377C47.9542 17.21 47.8059 17.0612 47.8057 16.8779V13.5098C47.8054 11.1263 45.8721 9.19531 43.4873 9.19531H31.5146C29.1298 9.19531 27.1965 11.1263 27.1963 13.5098V25.4893C27.1963 27.873 29.1297 29.8047 31.5146 29.8047H40.4287C40.6015 29.8047 40.742 29.9443 40.7422 30.1162V32.6885C40.7422 32.8605 40.6016 33 40.4287 33H30.0723C29.5273 32.9999 28.9939 32.7779 28.6094 32.3936L24.6064 28.3926C24.2182 28.0044 24 27.479 24 26.9307V12.0693C24 11.521 24.2182 10.9956 24.6064 10.6074L28.6094 6.60645C28.9939 6.22211 29.5273 6.00007 30.0723 6H44.9277Z" fill="#EFEFE5"/>
<path fill-rule="evenodd" clip-rule="evenodd" d="M54.5918 33H52.9766L51.6338 29.1924H46.2783L44.9355 33H43.3203L47.5537 20.9307H50.3584L54.5918 33ZM46.7881 27.7305H51.123L49.2529 22.3926H48.6582L46.7881 27.7305Z" fill="#EFEFE5"/>
<path d="M68.5117 31.4697H69.0898L71.2148 24.8398H72.9141L70.0244 33H67.5762L64.6865 24.8398H66.3867L68.5117 31.4697Z" fill="#EFEFE5"/>
<path d="M75.8711 33H74.3408V24.8398H75.8711V33Z" fill="#EFEFE5"/>
<path d="M98.584 26.3535C99.128 25.5035 100.284 24.8398 101.355 24.8398H102.512V26.3018H100.862C100.012 26.3018 98.5842 27.0841 98.584 29.1748V33H97.0547V24.8398H98.584V26.3535Z" fill="#EFEFE5"/>
<path d="M75.1055 20.6582C75.6665 20.6582 76.126 21.1343 76.126 21.6953C76.1259 22.2563 75.6664 22.6982 75.1055 22.6982C74.5447 22.698 74.086 22.2561 74.0859 21.6953C74.0859 21.1345 74.5447 20.6585 75.1055 20.6582Z" fill="#EFEFE5"/>
<path d="M33.7695 17.9678C34.7178 17.9678 35.4862 18.7632 35.4863 19.7441C35.4863 20.7252 34.7179 21.5205 33.7695 21.5205C32.8213 21.5205 32.0527 20.7251 32.0527 19.7441C32.0529 18.7633 32.8213 17.9678 33.7695 17.9678Z" fill="#EFEFE5"/>
<path d="M41.4668 17.9678C42.415 17.9678 43.1835 18.7632 43.1836 19.7441C43.1836 20.7252 42.4151 21.5205 41.4668 21.5205C40.5185 21.5205 39.75 20.7251 39.75 19.7441C39.7501 18.7633 40.5186 17.9678 41.4668 17.9678Z" fill="#EFEFE5"/>
</g>
</g>
</svg>
