<svg width="130" height="42" viewBox="0 0 130 42" fill="none" xmlns="http://www.w3.org/2000/svg">
<g id="logoTeam">
<g id="Union" opacity="0.7">
<path fill-rule="evenodd" clip-rule="evenodd" d="M55.1416 26.3018C55.6687 25.2991 56.8413 24.5685 57.9121 24.5684C59.8841 24.5684 61.499 25.7414 61.499 28.2744V29.5664C61.4989 32.0993 59.8841 33.2725 57.9121 33.2725C56.8412 33.2724 55.6686 32.541 55.1416 31.5381V33H53.6113V20.6582H55.1416V26.3018ZM57.5889 26.0303C56.5689 26.0305 55.1416 26.6427 55.1416 28.7334V29.1074C55.1417 31.1979 56.5689 31.8104 57.5889 31.8105C59.2379 31.8105 59.9697 30.8239 59.9697 29.2939V28.5459C59.9696 27.0161 59.2378 26.0303 57.5889 26.0303Z" fill="#EFEFE5"/>
<path d="M76.2295 24.5684C77.9295 24.5684 79.3916 25.3334 79.7656 26.9824H78.0654C77.8954 26.3874 77.3855 25.9795 76.0596 25.9795C74.9546 25.9795 74.2236 26.4048 74.2236 26.9658C74.2239 27.6454 74.8187 27.8328 76.1953 27.9688C79.2722 28.2747 80.122 29.0393 80.1221 30.5352C80.1221 32.1672 78.9325 33.2725 76.3145 33.2725C73.9005 33.2724 72.7275 32.3033 72.3535 30.6543H74.0537C74.1897 31.2492 74.7334 31.8104 76.3311 31.8105C78.2688 31.8105 78.5927 31.0965 78.5928 30.5186C78.5928 29.7876 78.0995 29.6171 75.6855 29.3281C73.3907 29.0561 72.6934 28.3424 72.6934 27.1016C72.6934 25.5546 73.9855 24.5684 76.2295 24.5684Z" fill="#EFEFE5"/>
<path d="M85.3604 24.5684C87.0603 24.5684 88.5225 25.3334 88.8965 26.9824H87.1963C87.0263 26.3874 86.5164 25.9795 85.1904 25.9795C84.0854 25.9795 83.3545 26.4048 83.3545 26.9658C83.3548 27.6454 83.9496 27.8328 85.3262 27.9688C88.403 28.2747 89.2529 29.0393 89.2529 30.5352C89.2529 32.1672 88.0633 33.2725 85.4453 33.2725C83.0314 33.2724 81.8584 32.3033 81.4844 30.6543H83.1846C83.3206 31.2492 83.8643 31.8104 85.4619 31.8105C87.3997 31.8105 87.7236 31.0965 87.7236 30.5186C87.7236 29.7876 87.2304 29.6171 84.8164 29.3281C82.5215 29.0561 81.8243 28.3424 81.8242 27.1016C81.8242 25.5546 83.1164 24.5684 85.3604 24.5684Z" fill="#EFEFE5"/>
<path fill-rule="evenodd" clip-rule="evenodd" d="M108.086 33H106.556V31.5381C106.029 32.541 104.856 33.2724 103.785 33.2725C101.813 33.2725 100.198 32.0993 100.198 29.5664V28.2744C100.198 25.7414 101.813 24.5684 103.785 24.5684C104.856 24.5684 106.029 25.2991 106.556 26.3018V20.6582H108.086V33ZM104.108 26.0303C102.46 26.0303 101.728 27.0161 101.728 28.5459V29.2939C101.728 30.8239 102.459 31.8105 104.108 31.8105C105.128 31.8104 106.556 31.198 106.556 29.1074V28.7334C106.556 26.6427 105.128 26.0304 104.108 26.0303Z" fill="#EFEFE5"/>
<path fill-rule="evenodd" clip-rule="evenodd" d="M114.614 24.5684C116.535 24.5686 118.201 25.7416 118.201 28.2744V29.5664C118.201 32.0992 116.535 33.2723 114.614 33.2725H113.628C111.707 33.2725 110.041 32.0994 110.041 29.5664V28.2744C110.041 25.7414 111.707 24.5684 113.628 24.5684H114.614ZM114.121 26.0303C112.183 26.0303 111.57 27.0162 111.57 28.5459V29.2939C111.57 30.8239 112.183 31.8105 114.121 31.8105C116.059 31.8104 116.671 30.8239 116.671 29.2939V28.5459C116.671 27.0162 116.059 26.0304 114.121 26.0303Z" fill="#EFEFE5"/>
<path fill-rule="evenodd" clip-rule="evenodd" d="M67.7549 24.5684C69.2679 24.5684 70.5771 25.4016 70.5771 27.9346V30.9092C70.5771 31.4361 70.9342 31.5381 71.2402 31.5381V33C70.4582 33 69.5236 32.9832 69.1836 32.1162C68.6056 33.0002 67.3304 33.2549 66.2764 33.2549C64.6954 33.2549 63.0293 32.6433 63.0293 30.5693V30.3828C63.0293 28.8868 64.2874 27.832 66.2764 27.832H69.0469C69.0128 26.6933 68.7752 26.0304 67.2627 26.0303H66.2422C65.3922 26.0303 64.7803 26.5068 64.7803 27.0508H63.25C63.25 25.8099 64.4231 24.5686 66.0889 24.5684H67.7549ZM66.7695 29.124C64.866 29.124 64.5597 29.957 64.5596 30.501C64.5596 31.453 65.1715 31.793 66.7695 31.793C67.4496 31.7929 69.0465 31.5553 69.0469 30.4678V29.124H66.7695Z" fill="#EFEFE5"/>
<path fill-rule="evenodd" clip-rule="evenodd" d="M95.4297 24.5684C96.9427 24.5684 98.252 25.4016 98.252 27.9346V30.9092C98.252 31.4361 98.6091 31.5381 98.915 31.5381V33C98.133 33 97.1984 32.9832 96.8584 32.1162C96.2804 33.0002 95.0052 33.2549 93.9512 33.2549C92.3702 33.2549 90.7041 32.6433 90.7041 30.5693V30.3828C90.7041 28.8868 91.9622 27.832 93.9512 27.832H96.7217C96.6876 26.6933 96.45 26.0304 94.9375 26.0303H93.917C93.0671 26.0303 92.4551 26.5068 92.4551 27.0508H90.9248C90.9248 25.8099 92.0979 24.5686 93.7637 24.5684H95.4297ZM94.4443 29.124C92.5408 29.124 92.2345 29.957 92.2344 30.501C92.2344 31.453 92.8463 31.793 94.4443 31.793C95.1244 31.7929 96.7213 31.5553 96.7217 30.4678V29.124H94.4443Z" fill="#EFEFE5"/>
<path d="M26.9277 6C27.4804 6.00009 28.0003 6.2144 28.3906 6.60645L32.3936 10.6074C32.7818 10.9956 33 11.521 33 12.0713V16.8779C32.9998 17.0611 32.8512 17.2098 32.668 17.21H30.1377C29.9542 17.21 29.8059 17.0612 29.8057 16.8779V13.5098C29.8054 11.1263 27.8721 9.19531 25.4873 9.19531H13.5146C11.1298 9.19531 9.19653 11.1263 9.19629 13.5098V25.4893C9.19629 27.873 11.1297 29.8047 13.5146 29.8047H22.4287C22.6015 29.8047 22.742 29.9443 22.7422 30.1162V32.6885C22.7422 32.8605 22.6016 33 22.4287 33H12.0723C11.5273 32.9999 10.9939 32.7779 10.6094 32.3936L6.60645 28.3926C6.21822 28.0044 6 27.479 6 26.9307V12.0693C6 11.521 6.21824 10.9956 6.60645 10.6074L10.6094 6.60645C10.9939 6.22211 11.5273 6.00007 12.0723 6H26.9277Z" fill="#EFEFE5"/>
<path fill-rule="evenodd" clip-rule="evenodd" d="M37.4121 33H35.7969L34.4541 29.1914H29.0986L27.7559 33H26.1406L30.374 20.9297H33.1787L37.4121 33ZM29.6094 27.7295H33.9443L32.0742 22.3916H31.4795L29.6094 27.7295Z" fill="#EFEFE5"/>
<path d="M48.1855 24.5684C49.2565 24.5684 51.0586 25.4016 51.0586 27.9346V33H49.5283V28.2061C49.5282 26.6763 48.7803 26.0303 47.6924 26.0303C46.8424 26.0303 45.7207 26.6425 45.7207 28.7334V33H44.1904V28.2061C44.1903 26.6763 43.4424 26.0303 42.3545 26.0303C41.5045 26.0303 40.3828 26.6424 40.3828 28.7334V33H38.8525V24.8408H40.3828V25.9961C40.9268 25.1463 41.8788 24.5684 42.8477 24.5684C43.6807 24.5684 44.9388 25.0617 45.4658 26.4727C45.9418 25.3677 47.0465 24.5684 48.1855 24.5684Z" fill="#EFEFE5"/>
<path d="M121.764 26.3525C122.308 25.5028 123.463 24.84 124.534 24.8398H125.69V26.3018H124.042C123.192 26.3018 121.764 27.0838 121.764 29.1748V33H120.233V24.8398H121.764V26.3525Z" fill="#EFEFE5"/>
<path d="M15.7695 17.9678C16.7178 17.9678 17.4862 18.7632 17.4863 19.7441C17.4863 20.7252 16.7179 21.5205 15.7695 21.5205C14.8213 21.5205 14.0527 20.7251 14.0527 19.7441C14.0529 18.7633 14.8213 17.9678 15.7695 17.9678Z" fill="#EFEFE5"/>
<path d="M23.4668 17.9678C24.415 17.9678 25.1835 18.7632 25.1836 19.7441C25.1836 20.7252 24.4151 21.5205 23.4668 21.5205C22.5185 21.5205 21.75 20.7251 21.75 19.7441C21.7501 18.7633 22.5186 17.9678 23.4668 17.9678Z" fill="#EFEFE5"/>
</g>
</g>
</svg>
