<svg width="28" height="28" viewBox="0 0 28 28" fill="none" xmlns="http://www.w3.org/2000/svg">
<path d="M12.0991 14.0823C12.0991 14.9549 11.411 15.6622 10.5617 15.6622C9.7125 15.6622 9.02536 14.9549 9.02536 14.0823C9.02536 13.2098 9.71352 12.5015 10.5617 12.5015C11.41 12.5015 12.0991 13.2098 12.0991 14.0823ZM17.4393 12.5045C16.5911 12.5045 15.9029 13.2129 15.9029 14.0854C15.9029 14.958 16.5911 15.6652 17.4393 15.6652C18.2875 15.6652 18.9767 14.958 18.9767 14.0854C18.9767 13.2129 18.2885 12.5045 17.4393 12.5045ZM4.72002 13.952C4.64866 19.1739 8.83064 23.43 14.0005 23.43C18.3466 23.43 21.9944 20.4222 23.0027 16.3612C23.1046 15.9527 23.4625 15.6622 23.8805 15.6622H25.2894C25.6809 15.6622 25.999 15.9824 25.999 16.3766V22.5974C25.999 22.9855 25.687 23.3006 25.3006 23.3006H24.3087C23.6704 23.3006 23.1525 23.8221 23.1525 24.4657V25.4646C23.1525 25.8526 22.8396 26.1677 22.4532 26.1677H5.54479C5.15942 26.1677 4.84644 25.8526 4.84644 25.4646V24.4657C4.84644 23.8221 4.32853 23.3006 3.69033 23.3006H2.69836C2.31197 23.3006 2 22.9855 2 22.5974V5.57029C2 5.18226 2.31197 4.86711 2.69836 4.86711H3.69033C4.32853 4.86711 4.84644 4.34563 4.84644 3.702V2.7042C4.84644 2.31515 5.15942 2 5.54581 2H22.4542C22.8406 2 23.1536 2.31515 23.1536 2.70318V3.702C23.1536 4.34563 23.6715 4.86711 24.3097 4.86711H25.3016C25.688 4.86711 26 5.18226 26 5.57029V11.7849C26 12.1802 25.6819 12.5015 25.2884 12.5015H23.8998C23.4696 12.5015 23.1016 12.2038 22.9966 11.7839C21.9842 7.75271 18.3691 4.76549 14.0576 4.7388C8.9856 4.708 4.79037 8.84494 4.72002 13.952Z" fill="#353539"/>
<path d="M12.1227 14.0827C12.1227 14.9538 11.4214 15.66 10.5562 15.66C9.69108 15.66 8.98975 14.9538 8.98975 14.0827C8.98975 13.2116 9.69108 12.5054 10.5562 12.5054C11.4214 12.5054 12.1227 13.2116 12.1227 14.0827Z" fill="#F6F6F0"/>
<path d="M19.0045 14.0827C19.0045 14.9538 18.3032 15.66 17.438 15.66C16.5729 15.66 15.8716 14.9538 15.8716 14.0827C15.8716 13.2116 16.5729 12.5054 17.438 12.5054C18.3032 12.5054 19.0045 13.2116 19.0045 14.0827Z" fill="#F6F6F0"/>
</svg>
