<svg width="28" height="28" viewBox="0 0 28 28" fill="none" xmlns="http://www.w3.org/2000/svg">
<path d="M23.453 10.115H25.6976C25.8703 10.115 25.9998 9.98553 25.9998 9.81287V7.39563C25.9998 6.89923 25.8055 6.446 25.4602 6.10068L21.8991 2.53956C21.5538 2.19424 21.1005 2 20.6041 2H7.39563C6.92081 2 6.446 2.19424 6.10068 2.53956L2.53956 6.10068C2.19424 6.446 2 6.89923 2 7.39563V20.6041C2 21.1005 2.19424 21.5538 2.53956 21.8991L6.10068 25.4602C6.446 25.8055 6.92081 25.9998 7.39563 25.9998H20.6041C21.1005 25.9998 21.5538 25.8055 21.8991 25.4602L25.4602 21.8991C25.8055 21.5538 25.9998 21.0789 25.9998 20.6041V15.0143C25.9998 14.8416 25.8703 14.7121 25.6976 14.7121H23.453C23.2804 14.7121 23.1509 14.8416 23.1509 15.0143V19.3092C23.1509 21.4243 21.4243 23.1509 19.3092 23.1509H8.69058C6.57549 23.1509 4.84889 21.4243 4.84889 19.3092V8.669C4.84889 6.55391 6.57549 4.82731 8.69058 4.82731H19.3523C21.4674 4.82731 23.194 6.55391 23.194 8.669V9.81287C23.1509 9.98553 23.3019 10.115 23.453 10.115Z" fill="#353539"/>
<path d="M11.9459 14.1077C11.9459 14.9436 11.2683 15.6212 10.4324 15.6212C9.59656 15.6212 8.91895 14.9436 8.91895 14.1077C8.91895 13.2719 9.59656 12.5942 10.4324 12.5942C11.2683 12.5942 11.9459 13.2719 11.9459 14.1077Z" fill="#EFEFE5"/>
<path d="M19.081 14.1077C19.081 14.9436 18.4034 15.6212 17.5675 15.6212C16.7316 15.6212 16.054 14.9436 16.054 14.1077C16.054 13.2719 16.7316 12.5942 17.5675 12.5942C18.4034 12.5942 19.081 13.2719 19.081 14.1077Z" fill="#EFEFE5"/>
</svg>
