<svg width="28" height="28" viewBox="0 0 28 28" fill="none" xmlns="http://www.w3.org/2000/svg">
<path d="M26 13.6863V15.1582C26 15.8357 25.9427 16.5003 25.8333 17.1467C24.8802 22.798 19.9375 27.1176 14 27.1176C7.38281 27.1176 2 21.7518 2 15.1582V10.958H2.0026V4.94061C2.0026 4.5071 2.35417 4.15405 2.79167 4.15405H4.05469C4.48958 4.15405 4.84375 3.801 4.84375 3.36748V1.78657C4.84375 1.35305 5.19531 1 5.63281 1H22.3646C22.7995 1 23.1536 1.35305 23.1536 1.78657V3.36748C23.1536 3.801 23.5052 4.15405 23.9427 4.15405H25.2057C25.6406 4.15405 25.9948 4.5071 25.9948 4.94061V8.80595C25.9948 9.024 25.8177 9.20053 25.599 9.20053H23.2318C23.013 9.20053 22.8359 9.024 22.8359 8.80595V5.72718C22.8359 4.85754 22.1302 4.15405 21.2578 4.15405H6.73698C5.86458 4.15405 5.15885 4.85754 5.15885 5.72718V10.958H5.16406V15.1582C5.16406 20.0126 9.1276 23.9636 14 23.9636C18.8724 23.9636 22.8359 20.0126 22.8359 15.1582V13.6863C22.8359 13.4656 23.013 13.2917 23.2318 13.2917H25.6042C25.8229 13.2917 26 13.4656 26 13.6863Z" fill="#353539"/>
<path d="M12.0601 15.0305H12.8595C12.8595 13.7377 11.8075 12.689 10.5106 12.689C9.2137 12.689 8.16162 13.7403 8.16162 15.0305H8.9611C8.9611 14.179 9.65641 13.4859 10.5106 13.4859C11.3647 13.4859 12.0601 14.179 12.0601 15.0305Z" fill="#EFEFE5"/>
<path d="M19.042 15.0305H19.8415C19.8415 13.7377 18.7894 12.689 17.4925 12.689C16.1956 12.689 15.1436 13.7403 15.1436 15.0305H15.943C15.943 14.179 16.6383 13.4859 17.4925 13.4859C18.3467 13.4859 19.042 14.179 19.042 15.0305Z" fill="#EFEFE5"/>
</svg>
