<svg width="130" height="42" viewBox="0 0 130 42" fill="none" xmlns="http://www.w3.org/2000/svg">
<g opacity="0.7">
<path d="M33.4043 21.0004C33.4043 20.3202 33.015 19.7315 32.4485 19.4479C32.2202 19.3296 31.9624 19.2629 31.6896 19.2629C31.5224 19.2629 31.3608 19.2879 31.2083 19.3346C30.489 19.5422 29.9626 20.2094 29.9626 21.0004C29.9626 21.8655 30.5922 22.5825 31.4151 22.7122C31.5044 22.7272 31.5961 22.735 31.6896 22.735C31.893 22.735 32.088 22.6981 32.2686 22.6304C32.9309 22.3893 33.4043 21.7505 33.4043 21.0004Z" fill="#EFEFE5"/>
<path d="M39.2449 19.2663C39.1408 19.2663 39.0389 19.276 38.94 19.2945C38.1343 19.4388 37.5225 20.1477 37.5225 21.0004C37.5225 21.7454 37.9894 22.3805 38.6446 22.6254C38.8311 22.6984 39.0335 22.7384 39.2449 22.7384C39.4838 22.7384 39.7112 22.6874 39.9173 22.5953C40.5328 22.3312 40.9642 21.7166 40.9642 21.0004C40.9642 20.1771 40.394 19.488 39.6295 19.3115C39.5059 19.2819 39.3772 19.2663 39.2449 19.2663Z" fill="#EFEFE5"/>
<path d="M25.2722 20.8563C25.1938 26.5929 29.7879 31.2683 35.4673 31.2683C40.2417 31.2683 44.2489 27.9642 45.3565 23.503C45.4685 23.0542 45.8616 22.735 46.3208 22.735H47.8686C48.2987 22.735 48.6481 23.0869 48.6481 23.5199V30.3537C48.6481 30.78 48.3054 31.1262 47.8809 31.1262H46.7912C46.0901 31.1262 45.5212 31.6991 45.5212 32.4062V33.5034C45.5212 33.9297 45.1773 34.2759 44.7529 34.2759H26.1783C25.7549 34.2759 25.4111 33.9297 25.4111 33.5034V32.4062C25.4111 31.6991 24.8422 31.1262 24.1411 31.1262H23.0514C22.6269 31.1262 22.2842 30.78 22.2842 30.3537V11.6487C22.2842 11.2224 22.6269 10.8762 23.0514 10.8762H24.1411C24.8422 10.8762 25.4111 10.3033 25.4111 9.59628V8.50016C25.4111 8.07276 25.7549 7.72656 26.1794 7.72656H44.754C45.1785 7.72656 45.5223 8.07276 45.5223 8.49903V9.59628C45.5223 10.3033 46.0912 10.8762 46.7923 10.8762H47.882C48.3065 10.8762 48.6492 11.2224 48.6492 11.6487V18.4757C48.6492 18.9099 48.2998 19.2629 47.8675 19.2629H46.3421C45.8695 19.2629 45.4652 18.9358 45.3498 18.4746C44.2377 14.0462 40.2663 10.7646 35.53 10.7353C29.9582 10.7014 25.3495 15.246 25.2722 20.8563Z" fill="#EFEFE5"/>
<path fill-rule="evenodd" clip-rule="evenodd" d="M66.0641 19.0343L67.7267 23.778H69.7261L64.4857 8.74213H61.0132L55.7729 23.778H57.7722L59.4348 19.0343H66.0641ZM60.4997 15.9677H59.407V17.215H60.7739V17.2131H64.6578V17.215H66.0247V15.9677H64.9992L63.1178 10.5634H62.3812L60.4997 15.9677Z" fill="#EFEFE5"/>
<path d="M73.7166 23.778V8.74213H71.8225V23.778H73.7166Z" fill="#EFEFE5"/>
<path d="M87.4705 8.74213H89.4698L84.44 23.778H80.8412L75.8113 8.74213H77.8106L82.138 21.9323V22.705H83.1349V21.9568L87.4705 8.74213Z" fill="#EFEFE5"/>
<path d="M107.715 23.778V8.74213H103.443L99.9073 21.9568H99.3811L95.8455 8.74213H91.5732V23.778H93.4673V11.8164H92.597V10.5655H93.4673V10.5634H94.4144L97.95 23.778H101.338L104.874 10.5634L106.697 10.5624V11.8133H105.821V23.778H107.715Z" fill="#EFEFE5"/>
<path d="M72.2547 31.4631C72.2192 31.7399 72.1481 31.9948 72.0415 32.2278C71.9349 32.4581 71.7969 32.6554 71.6274 32.8199C71.4552 32.9871 71.2516 33.1173 71.0165 33.2105C70.7842 33.3009 70.5245 33.3462 70.2375 33.3462C69.9915 33.3462 69.7674 33.3119 69.5651 33.2434C69.3656 33.1721 69.1879 33.0748 69.0321 32.9515C68.8736 32.8281 68.7369 32.6828 68.6221 32.5156C68.5101 32.3484 68.4171 32.1661 68.3433 31.9688C68.2668 31.7714 68.2094 31.5645 68.1711 31.3479C68.1356 31.1314 68.1165 30.9121 68.1137 30.6901V29.8555C68.1165 29.6334 68.1356 29.4142 68.1711 29.1976C68.2094 28.9811 68.2668 28.7741 68.3433 28.5768C68.4171 28.3794 68.5101 28.1971 68.6221 28.0299C68.7369 27.86 68.8736 27.7133 69.0321 27.59C69.1879 27.4667 69.3656 27.3707 69.5651 27.3022C69.7647 27.2309 69.9888 27.1953 70.2375 27.1953C70.5354 27.1953 70.8019 27.2419 71.037 27.3351C71.2721 27.4255 71.4743 27.5544 71.6438 27.7216C71.8133 27.8915 71.9486 28.0944 72.0497 28.3301C72.1536 28.5658 72.2219 28.8262 72.2547 29.1113H71.4962C71.4716 28.9304 71.4292 28.7618 71.3691 28.6056C71.309 28.4493 71.2283 28.3123 71.1272 28.1944C71.0261 28.0765 70.9017 27.9847 70.7541 27.9189C70.6092 27.8504 70.437 27.8161 70.2375 27.8161C70.0571 27.8161 69.8972 27.8463 69.7578 27.9066C69.6212 27.9641 69.5036 28.0436 69.4052 28.1451C69.3041 28.2465 69.2194 28.3643 69.151 28.4987C69.0854 28.633 69.0321 28.7755 68.9911 28.9263C68.9501 29.077 68.9201 29.2319 68.9009 29.3909C68.8845 29.5471 68.8763 29.6992 68.8763 29.8472V30.6901C68.8763 30.8381 68.8845 30.9916 68.9009 31.1506C68.9201 31.3068 68.9501 31.4603 68.9911 31.6111C69.0321 31.7646 69.0854 31.9085 69.151 32.0428C69.2166 32.1771 69.3 32.295 69.4011 32.3964C69.5023 32.5006 69.6212 32.5828 69.7578 32.6431C69.8945 32.7006 70.0544 32.7294 70.2375 32.7294C70.437 32.7294 70.6092 32.6979 70.7541 32.6349C70.9017 32.5718 71.0261 32.4827 71.1272 32.3676C71.2283 32.2552 71.309 32.1223 71.3691 31.9688C71.4292 31.8126 71.4716 31.644 71.4962 31.4631H72.2547Z" fill="#EFEFE5"/>
<path fill-rule="evenodd" clip-rule="evenodd" d="M55.7729 33.2639V27.2775H57.5482C57.7942 27.2803 58.0347 27.3132 58.2698 27.3762C58.5048 27.4365 58.7139 27.5311 58.8971 27.6599C59.0802 27.7887 59.2264 27.9532 59.3358 28.1533C59.4451 28.3534 59.4984 28.5932 59.4957 28.8728C59.4929 29.029 59.4669 29.1716 59.4178 29.3004C59.3713 29.4292 59.3071 29.5444 59.2251 29.6458C59.1403 29.7499 59.046 29.8376 58.9422 29.9089C58.841 29.9802 58.718 30.0473 58.5732 30.1104V30.1227C58.7235 30.1583 58.8684 30.2228 59.0078 30.316C59.1472 30.4091 59.262 30.5119 59.3522 30.6243C59.4478 30.7477 59.5216 30.8861 59.5736 31.0396C59.6282 31.1931 59.6556 31.3589 59.6556 31.5371C59.6583 31.8167 59.605 32.0634 59.4957 32.2772C59.3863 32.491 59.2401 32.6691 59.057 32.8117C58.8738 32.9569 58.662 33.0679 58.4215 33.1447C58.1837 33.2214 57.9377 33.2612 57.6835 33.2639H55.7729ZM56.5355 30.464V32.6184H57.704C57.8625 32.6157 58.0128 32.5896 58.155 32.5403C58.2971 32.4882 58.4228 32.417 58.5322 32.3265C58.6415 32.236 58.7276 32.125 58.7905 31.9935C58.8561 31.8619 58.8889 31.7125 58.8889 31.5453C58.8916 31.3754 58.8629 31.2246 58.8028 31.093C58.7454 30.9615 58.6647 30.8491 58.5609 30.7559C58.457 30.6654 58.3354 30.5955 58.196 30.5462C58.0566 30.4969 57.9062 30.4695 57.745 30.464H56.5355ZM56.5355 29.8308H57.5933C57.7354 29.8281 57.8748 29.8061 58.0115 29.765C58.1481 29.7212 58.2698 29.6581 58.3764 29.5759C58.483 29.4964 58.5691 29.3977 58.6347 29.2798C58.7003 29.162 58.7331 29.0249 58.7331 28.8687C58.7331 28.7015 58.7003 28.559 58.6347 28.4411C58.5718 28.3232 58.4871 28.2259 58.3805 28.1492C58.2711 28.0752 58.1454 28.0203 58.0033 27.9847C57.8639 27.9491 57.7204 27.9299 57.5728 27.9271H56.5355V29.8308Z" fill="#EFEFE5"/>
<path d="M63.9441 27.2775L62.5829 30.2831L61.2258 27.2775H60.3607L62.218 31.0314L62.2303 33.2639H62.9355L62.9478 31.0314L64.8051 27.2775H63.9441Z" fill="#EFEFE5"/>
<path d="M77.1746 33.2639H76.4571V30.4969H74.0095V33.2639H73.2961V27.2775H74.0095V29.8513H76.4571V27.2775H77.1746V33.2639Z" fill="#EFEFE5"/>
<path fill-rule="evenodd" clip-rule="evenodd" d="M81.3238 31.7139H79.3312L78.8515 33.2639H78.093L80.02 27.2775H80.6555L82.5497 33.2639H81.7953L81.3238 31.7139ZM79.5362 31.0519H81.1229L80.3357 28.4534L79.5362 31.0519Z" fill="#EFEFE5"/>
<path d="M83.5172 27.2775H87.1252V27.9395H85.6943V32.6061H87.1252V33.2639H83.5172V32.6061H84.9153V27.9395H83.5172V27.2775Z" fill="#EFEFE5"/>
<path d="M92.2993 33.2639H91.5285L89.2121 28.7906L89.1998 33.2639H88.4331V27.2775H89.2039L91.5203 31.7427L91.5326 27.2775H92.2993V33.2639Z" fill="#EFEFE5"/>
<path d="M97.4653 32.4786C97.3723 32.5883 97.2739 32.6883 97.1701 32.7788C97.0662 32.8665 96.9582 32.9432 96.8462 33.009C96.6548 33.1241 96.4485 33.2091 96.2271 33.2639C96.0057 33.3215 95.7734 33.3489 95.5301 33.3462C95.2841 33.3434 95.0572 33.3064 94.8495 33.2352C94.6445 33.1611 94.46 33.0597 94.296 32.9309C94.132 32.8048 93.9885 32.6554 93.8655 32.4827C93.7425 32.3101 93.64 32.1223 93.558 31.9195C93.4733 31.7194 93.409 31.5097 93.3653 31.2904C93.3243 31.0684 93.3025 30.845 93.2997 30.6202V29.9254C93.3025 29.7033 93.3216 29.4827 93.3571 29.2634C93.3954 29.0414 93.4528 28.8289 93.5293 28.6261C93.6059 28.4233 93.7015 28.2355 93.8163 28.0628C93.9311 27.8874 94.0691 27.7353 94.2304 27.6064C94.3889 27.4804 94.5693 27.3803 94.7716 27.3063C94.9739 27.2323 95.2007 27.1953 95.4522 27.1953C95.731 27.1953 95.9879 27.2391 96.223 27.3269C96.458 27.4118 96.663 27.5338 96.838 27.6928C97.0129 27.8545 97.1537 28.0491 97.2603 28.2766C97.3669 28.5014 97.4325 28.7536 97.4571 29.0332H96.7068C96.6767 28.8605 96.6302 28.7015 96.5674 28.5562C96.5045 28.4082 96.4225 28.2821 96.3214 28.178C96.2175 28.0738 96.0945 27.9929 95.9524 27.9354C95.8103 27.8751 95.6449 27.8449 95.4563 27.8449C95.2759 27.8449 95.116 27.8764 94.9766 27.9395C94.8372 27.9998 94.7156 28.082 94.6117 28.1862C94.5078 28.2903 94.4217 28.4123 94.3534 28.5521C94.2851 28.6892 94.229 28.8344 94.1853 28.9879C94.1416 29.1414 94.1101 29.2977 94.091 29.4566C94.0719 29.6156 94.0623 29.7691 94.0623 29.9171V30.6202C94.065 30.771 94.0773 30.9272 94.0992 31.0889C94.1238 31.2479 94.1607 31.4041 94.2099 31.5576C94.2591 31.7111 94.322 31.8564 94.3985 31.9935C94.475 32.1305 94.568 32.2511 94.6773 32.3553C94.7839 32.4594 94.9083 32.543 95.0504 32.6061C95.1925 32.6664 95.3538 32.6979 95.5342 32.7006C95.6381 32.7034 95.746 32.6993 95.8581 32.6883C95.9729 32.6774 96.0836 32.6554 96.1902 32.6225C96.2968 32.5896 96.3966 32.5458 96.4895 32.491C96.5824 32.4334 96.6603 32.3594 96.7232 32.2689L96.7314 30.9245H95.5178V30.2831H97.453L97.4653 32.4786Z" fill="#EFEFE5"/>
<path fill-rule="evenodd" clip-rule="evenodd" d="M99.4742 30.8628V33.2639H98.7158V27.2775H100.651C100.919 27.283 101.172 27.3255 101.409 27.405C101.65 27.4845 101.86 27.5996 102.041 27.7504C102.221 27.9011 102.363 28.0875 102.467 28.3095C102.574 28.5315 102.627 28.7865 102.627 29.0743C102.627 29.3621 102.574 29.617 102.467 29.839C102.363 30.0583 102.221 30.2433 102.041 30.3941C101.86 30.5448 101.65 30.66 101.409 30.7394C101.172 30.8189 100.919 30.86 100.651 30.8628H99.4742ZM99.4742 30.2378H100.651C100.826 30.2351 100.987 30.2077 101.135 30.1556C101.282 30.1008 101.411 30.024 101.52 29.9254C101.629 29.8267 101.714 29.7074 101.774 29.5677C101.837 29.4251 101.869 29.2634 101.869 29.0825C101.869 28.9016 101.837 28.7385 101.774 28.5932C101.714 28.4479 101.631 28.3246 101.524 28.2232C101.415 28.1218 101.285 28.0436 101.135 27.9888C100.987 27.934 100.826 27.9052 100.651 27.9025H99.4742V30.2378Z" fill="#EFEFE5"/>
<path d="M107.715 27.9271H105.87V33.2639H105.132V27.9271H103.287V27.2775H107.715V27.9271Z" fill="#EFEFE5"/>
</g>
</svg>
