<svg width="130" height="42" viewBox="0 0 130 42" fill="none" xmlns="http://www.w3.org/2000/svg">
<g opacity="0.7">
<path d="M51.7723 12.2169C52.6089 13.056 52.7093 13.291 52.7093 14.4993V18.1389C52.7093 19.3472 52.5755 19.4814 51.3707 19.4814H50.032C48.8272 19.4814 48.6934 19.3472 48.6934 18.1389L48.6934 11.7099C48.6934 11.3909 48.4353 11.1349 48.1163 11.1349L42.4593 11.1349C42.34 11.1409 42.2058 11.143 42.0548 11.143H29.9094C29.5904 11.143 29.3375 11.3995 29.3375 11.7185V30.2329C29.3375 30.5519 29.596 30.81 29.915 30.81H42.0548C42.1976 30.81 42.3254 30.8119 42.4397 30.8172H48.1163C48.4353 30.8172 48.6934 30.5603 48.6934 30.2413V25.4813C48.6934 24.273 48.8272 24.1388 50.032 24.1388H51.3707C52.5755 24.1388 52.7093 24.273 52.7093 25.4813V27.4528C52.7093 28.6611 52.6089 28.896 51.7723 29.7351L47.6224 33.897C46.7858 34.7361 46.5515 34.8368 45.3467 34.8368H42.2028C42.1553 34.8374 42.106 34.8376 42.0548 34.8376H32.3495C31.1447 34.8376 30.9104 34.7369 30.0737 33.8978L25.9239 29.7359C25.0872 28.8968 24.9868 28.6619 24.9868 27.4536V14.4994C24.9868 13.2911 25.0872 13.0562 25.9239 12.2171L30.0737 8.05518C30.9104 7.21608 31.1447 7.11539 32.3495 7.11539H33.8658L33.934 7.11523H45.3467C46.5515 7.11523 46.7858 7.21593 47.6224 8.05502L51.7723 12.2169Z" fill="#EFEFE5"/>
<path d="M63.3651 16.5031C61.7056 16.5031 60.4464 15.3901 60.4464 13.2696V12.6171C60.4464 10.4967 61.7056 9.38364 63.3651 9.38364H64.1656C65.3468 9.38364 66.4791 10.1608 66.7818 11.5905H65.8446C65.6103 10.7845 64.8977 10.2088 63.7654 10.2088C61.9106 10.2088 61.3249 11.3794 61.3249 12.6939V13.1928C61.3249 14.5073 61.9106 15.6491 63.7654 15.6491C64.9954 15.6491 65.708 14.9967 65.9032 14.1139H66.8111C66.5768 15.6875 65.4151 16.5031 64.1656 16.5031H63.3651Z" fill="#EFEFE5"/>
<path d="M68.7687 12.4156C69.1201 11.9263 69.7937 11.5905 70.3598 11.5905C71.1701 11.5905 72.1267 12.0606 72.1267 13.4903V16.3496H71.2482V13.6438C71.2482 12.7802 70.8967 12.4156 70.0768 12.4156C69.5887 12.4156 68.7687 12.7611 68.7687 13.9412V16.3496H67.8901V9.38364H68.7687V12.4156Z" fill="#EFEFE5"/>
<path fill-rule="evenodd" clip-rule="evenodd" d="M77.6322 15.1694V13.4903C77.6322 12.0606 76.8806 11.5905 76.0118 11.5905H75.0551C74.0985 11.5905 73.4249 12.2909 73.4249 12.9913H74.3035C74.3035 12.6843 74.6549 12.4156 75.143 12.4156H75.7287C76.5975 12.4156 76.7341 12.7898 76.7537 13.4327H75.1625C74.0204 13.4327 73.298 14.0276 73.298 14.8719V14.9775C73.298 16.1481 74.2546 16.4935 75.1625 16.4935C75.7677 16.4935 76.4999 16.3496 76.8318 15.8506C77.027 16.34 77.5639 16.3496 78.0129 16.3496V15.5244C77.8372 15.5244 77.6322 15.4668 77.6322 15.1694ZM75.4456 15.6683C74.528 15.6683 74.1766 15.4764 74.1766 14.9391C74.1766 14.6321 74.3523 14.1619 75.4456 14.1619H76.7537V14.9199C76.7537 15.534 75.8361 15.6683 75.4456 15.6683Z" fill="#EFEFE5"/>
<path d="M80.1531 9.96893C80.1531 10.2856 79.8896 10.535 79.5674 10.535C79.2453 10.535 78.9817 10.2856 78.9817 9.96893C78.9817 9.6523 79.2453 9.38364 79.5674 9.38364C79.8896 9.38364 80.1531 9.6523 80.1531 9.96893Z" fill="#EFEFE5"/>
<path d="M80.0067 11.744V16.3496H79.1281V11.744H80.0067Z" fill="#EFEFE5"/>
<path d="M83.9825 11.5905C83.387 11.5905 82.6647 11.9647 82.3328 12.502V11.744H81.5128V16.3496H82.3913V13.9412C82.3913 12.7611 83.2113 12.4156 83.6994 12.4156C84.5194 12.4156 84.8708 12.7802 84.8708 13.6438V16.3496H85.7494V13.4903C85.7494 12.0606 84.7927 11.5905 83.9825 11.5905Z" fill="#EFEFE5"/>
<path d="M90.2494 12.857H93.461C93.6437 13.9877 93.1975 15.0734 92.6899 15.6395C92.1823 16.2056 91.4404 16.5031 90.5911 16.5031H89.7906C88.1311 16.5031 86.8718 15.3901 86.8718 13.2696V12.6171C86.8718 10.4967 88.1311 9.38364 89.7906 9.38364H90.5911C91.9675 9.38364 93.012 10.18 93.3537 11.6289H92.4263C92.1432 10.8037 91.5185 10.2088 90.1908 10.2088C88.3361 10.2088 87.7504 11.3794 87.7504 12.6939V13.1928C87.7504 14.5073 88.3361 15.6491 90.1908 15.6491C91.8015 15.6491 92.4165 14.7856 92.5532 13.7014V13.6822H90.2494V12.857Z" fill="#EFEFE5"/>
<path fill-rule="evenodd" clip-rule="evenodd" d="M98.0463 9.53716H94.864V16.3496H95.7425V13.8453H98.0463C99.1494 13.8453 100.252 13.3751 100.252 11.696C100.252 10.1033 99.1494 9.53716 98.0463 9.53716ZM97.8609 13.0201H95.7425V10.3719H97.8609C98.9737 10.3719 99.3251 10.9284 99.3251 11.696C99.3251 12.4636 98.9737 13.0201 97.8609 13.0201Z" fill="#EFEFE5"/>
<path d="M100.642 9.53716H106.011V10.3623H103.766V16.3496H102.887V10.3623H100.642V9.53716Z" fill="#EFEFE5"/>
<path d="M64.6602 34.0194C64.0309 34.0194 63.9085 33.9669 63.4715 33.5299L61.3037 31.3622C60.8667 30.9251 60.8142 30.8027 60.8142 30.1734V22.4815C60.8142 21.8521 60.8842 21.7822 61.5135 21.7822H62.3876C63.0169 21.7822 63.0869 21.8521 63.0869 22.4815V31.2223C63.0869 31.8516 63.1568 31.9216 63.7861 31.9216H69.5551C70.1844 31.9216 70.2543 31.9915 70.2543 32.6208V33.3201C70.2543 33.9494 70.1844 34.0194 69.5551 34.0194H64.6602Z" fill="#EFEFE5"/>
<path d="M72.7045 34.0194C72.0752 34.0194 72.0052 33.9494 72.0052 33.3201V32.6208C72.0052 31.9915 72.0227 31.8516 72.215 31.2573L74.2429 24.5443C74.4352 23.9499 74.5226 23.88 75.1519 23.88H76.026C76.6554 23.88 76.7253 23.8101 76.7253 23.1807V22.4815C76.7253 21.8521 76.7952 21.7822 77.4246 21.7822H79.0329C79.9419 21.7822 80.5713 22.2542 80.8335 23.1108L83.3334 31.2573C83.5257 31.8516 83.5431 31.9915 83.5431 32.6208V33.3201C83.5431 33.9494 83.4732 34.0194 82.8439 34.0194H81.9698C81.3405 34.0194 81.2705 33.9494 81.2705 33.3201V32.6208C81.2705 31.9915 81.253 31.8516 81.0607 31.2573L79.0329 24.5443C78.8406 23.9499 78.7532 23.88 78.1238 23.88H77.4246C76.7952 23.88 76.7078 23.9499 76.5155 24.5443L74.4876 31.2573C74.2953 31.8516 74.2779 31.9915 74.2779 32.6208V33.3201C74.2779 33.9494 74.2079 34.0194 73.5786 34.0194H72.7045Z" fill="#EFEFE5"/>
<path d="M85.6368 33.3201C85.6368 33.9494 85.7068 34.0194 86.3361 34.0194H91.7554C92.3848 34.0194 92.5071 33.9669 92.9442 33.5299L95.1119 31.3622C95.549 30.9251 95.6014 30.8027 95.6014 30.1734V29.5616C95.6014 28.9322 95.5315 28.8623 94.9021 28.8623H94.028C93.3987 28.8623 93.3288 28.7924 93.3288 28.163V27.4637C93.3288 26.8344 93.3987 26.7645 94.028 26.7645H94.9021C95.5315 26.7645 95.6014 26.6946 95.6014 26.0652V24.0548C95.6014 22.499 94.8847 21.7822 93.3288 21.7822H86.3361C85.7068 21.7822 85.6368 21.8521 85.6368 22.4815V23.1807C85.6368 23.8101 85.7068 23.88 86.3361 23.88H92.6295C93.2589 23.88 93.3288 23.9499 93.3288 24.5793V26.0652C93.3288 26.6946 93.2589 26.7645 92.6295 26.7645H86.5109C85.8816 26.7645 85.8117 26.8344 85.8117 27.4637V28.163C85.8117 28.7924 85.8816 28.8623 86.5109 28.8623H92.6295C93.2589 28.8623 93.3288 28.9322 93.3288 29.5616V31.2223C93.3288 31.8516 93.2589 31.9216 92.6295 31.9216H86.3361C85.7068 31.9216 85.6368 31.9915 85.6368 32.6208V33.3201Z" fill="#EFEFE5"/>
<path d="M99.0971 28.6001C98.4677 28.6001 98.3978 28.5301 98.3978 27.9008V25.2785C98.3978 24.3695 98.8873 23.88 99.7963 23.88H99.9711C100.6 23.88 100.67 23.8101 100.67 23.1807C100.67 22.2717 101.16 21.7822 102.069 21.7822H108.188C108.817 21.7822 108.887 21.8521 108.887 22.4815V23.1807C108.887 23.8101 108.817 23.88 108.188 23.88H101.37C100.74 23.88 100.67 23.9499 100.67 24.5793V27.9008C100.67 28.5301 100.6 28.6001 99.9711 28.6001H99.0971Z" fill="#EFEFE5"/>
<path d="M97.8733 33.3201V32.6208C97.8733 31.9915 97.9433 31.9216 98.5726 31.9216H105.39C106.02 31.9216 106.09 31.8516 106.09 31.2223V27.9008C106.09 27.2715 106.16 27.2015 106.789 27.2015H107.663C108.292 27.2015 108.362 27.2715 108.362 27.9008V30.523C108.362 31.4321 107.873 31.9216 106.964 31.9216H106.789C106.16 31.9216 106.09 31.9915 106.09 32.6208C106.09 33.5299 105.6 34.0194 104.691 34.0194H98.5726C97.9433 34.0194 97.8733 33.9494 97.8733 33.3201Z" fill="#EFEFE5"/>
<path d="M35.17 19.0998C34.1041 19.0998 33.24 19.9639 33.24 21.0298C33.24 22.0957 34.1041 22.9598 35.17 22.9598C36.2359 22.9598 37.0999 22.0957 37.0999 21.0298C37.0999 19.9639 36.2359 19.0998 35.17 19.0998Z" fill="#EFEFE5"/>
<path d="M43.3064 19.0998C42.2405 19.0998 41.3765 19.9639 41.3765 21.0298C41.3765 22.0957 42.2405 22.9598 43.3064 22.9598C44.3723 22.9598 45.2364 22.0957 45.2364 21.0298C45.2364 19.9639 44.3723 19.0998 43.3064 19.0998Z" fill="#EFEFE5"/>
</g>
</svg>
