<svg width="252" height="252" viewBox="0 0 252 252" fill="none" xmlns="http://www.w3.org/2000/svg">
<path d="M1 46.3109C1 45.5341 1.31004 44.7886 1.86293 44.236L44.2394 1.87784C44.8014 1.31615 45.5677 1 46.3674 1H205.633C206.432 1 207.199 1.31615 207.761 1.87784L250.137 44.236C250.69 44.7886 251 45.5341 251 46.3109V73.1412C251 74.7276 249.697 76.0135 248.091 76.0135L200.906 76.0137C199.299 76.0137 197.997 77.2997 197.997 78.886V157.041C197.997 158.627 199.299 159.913 200.906 159.913H248.091C249.697 159.913 251 161.199 251 162.785V205.581C251 206.358 250.69 207.103 250.137 207.656L207.761 250.014C207.199 250.576 206.432 250.892 205.633 250.892H46.3674C45.5677 250.892 44.8014 250.576 44.2394 250.014L1.86293 207.656C1.31004 207.103 1 206.358 1 205.581V46.3109Z" fill="#09090E"/>
<path fill-rule="evenodd" clip-rule="evenodd" d="M43.8859 1.52421C44.5423 0.868113 45.4361 0.5 46.3674 0.5H205.633C206.564 0.5 207.458 0.868115 208.114 1.52421L250.491 43.8823C251.137 44.5281 251.5 45.4005 251.5 46.3109V73.1412C251.5 75.0098 249.967 76.5135 248.09 76.5135L200.906 76.5137C199.569 76.5137 198.497 77.5819 198.497 78.886L198.497 157.121C198.497 158.425 199.569 159.493 200.906 159.493L248.09 159.493C249.967 159.493 251.5 160.997 251.5 162.866V205.689C251.5 206.6 251.136 207.472 250.49 208.118L208.114 250.476C207.457 251.132 206.564 251.5 205.632 251.5H46.3674C45.4361 251.5 44.5423 251.132 43.8859 250.476L1.50945 208.118C0.86342 207.472 0.5 206.599 0.5 205.689V46.3109C0.5 45.4005 0.86342 44.5281 1.50945 43.8823L43.8859 1.52421ZM1.5 205.689C1.5 206.332 1.75665 206.951 2.2164 207.41L44.5929 249.769C45.0604 250.236 45.6993 250.5 46.3674 250.5H205.632C206.3 250.5 206.939 250.236 207.407 249.769L249.783 207.41C250.243 206.951 250.5 206.332 250.5 205.689V162.866C250.5 161.562 249.427 160.493 248.09 160.493L200.906 160.493C199.029 160.493 197.497 158.989 197.497 157.121L197.497 78.886C197.497 77.0175 199.029 75.5137 200.906 75.5137L248.09 75.5135C249.427 75.5135 250.5 74.4454 250.5 73.1412V46.3109C250.5 45.6677 250.243 45.0492 249.784 44.5896L207.407 2.23147C206.94 1.76418 206.301 1.5 205.633 1.5H46.3674C45.6993 1.5 45.0604 1.76418 44.5929 2.23147L2.2164 44.5896C1.75665 45.0492 1.5 45.6677 1.5 46.3109V205.689Z" fill="url(#paint0_linear_5737_43413)"/>
<defs>
<linearGradient id="paint0_linear_5737_43413" x1="-62.7078" y1="-87.5671" x2="74.7068" y2="134.155" gradientUnits="userSpaceOnUse">
<stop stop-color="#5A05B0"/>
<stop offset="0.964481" stop-color="#9E59E0"/>
</linearGradient>
</defs>
</svg>
