<svg width="945" height="584" viewBox="0 0 945 584" fill="none" xmlns="http://www.w3.org/2000/svg">
<path d="M543.146 138.646C542.951 138.842 542.951 139.158 543.146 139.354L546.328 142.536C546.524 142.731 546.84 142.731 547.036 142.536C547.231 142.34 547.231 142.024 547.036 141.828L544.207 139L547.036 136.172C547.231 135.976 547.231 135.66 547.036 135.464C546.84 135.269 546.524 135.269 546.328 135.464L543.146 138.646ZM568.712 127.634L569.104 127.944L568.712 127.634ZM570 123.919H570.5V82H570H569.5V123.919H570ZM576 76V76.5H599V76V75.5H576V76ZM543.5 139V139.5H556.84V139V138.5H543.5V139ZM561.552 136.715L561.944 137.025L569.104 127.944L568.712 127.634L568.319 127.324L561.159 136.405L561.552 136.715ZM556.84 139V139.5C558.831 139.5 560.712 138.588 561.944 137.025L561.552 136.715L561.159 136.405C560.116 137.728 558.525 138.5 556.84 138.5V139ZM570 82H570.5C570.5 78.9624 572.962 76.5 576 76.5V76V75.5C572.41 75.5 569.5 78.4101 569.5 82H570ZM570 123.919H569.5C569.5 125.155 569.084 126.354 568.319 127.324L568.712 127.634L569.104 127.944C570.008 126.797 570.5 125.379 570.5 123.919H570Z" fill="#353539"/>
<path d="M400.854 141.646C401.049 141.842 401.049 142.158 400.854 142.354L397.672 145.536C397.476 145.731 397.16 145.731 396.964 145.536C396.769 145.34 396.769 145.024 396.964 144.828L399.793 142L396.964 139.172C396.769 138.976 396.769 138.66 396.964 138.464C397.16 138.269 397.476 138.269 397.672 138.464L400.854 141.646ZM356.28 143.577L356.617 143.946L356.28 143.577ZM308 201V200.5H340V201V201.5H308V201ZM346 195H345.5V155.639H346H346.5V195H346ZM347.946 151.216L347.608 150.848L355.942 143.208L356.28 143.577L356.617 143.946L348.284 151.585L347.946 151.216ZM360.334 142V141.5H400.5V142V142.5H360.334V142ZM356.28 143.577L355.942 143.208C357.14 142.11 358.708 141.5 360.334 141.5V142V142.5C358.958 142.5 357.632 143.016 356.617 143.946L356.28 143.577ZM346 155.639H345.5C345.5 153.817 346.265 152.079 347.608 150.848L347.946 151.216L348.284 151.585C347.147 152.627 346.5 154.098 346.5 155.639H346ZM340 201V200.5C343.038 200.5 345.5 198.038 345.5 195H346H346.5C346.5 198.59 343.59 201.5 340 201.5V201Z" fill="#353539"/>
<path d="M451.646 225.146C451.842 224.951 452.158 224.951 452.354 225.146L455.536 228.328C455.731 228.524 455.731 228.84 455.536 229.036C455.34 229.231 455.024 229.231 454.828 229.036L452 226.207L449.172 229.036C448.976 229.231 448.66 229.231 448.464 229.036C448.269 228.84 448.269 228.524 448.464 228.328L451.646 225.146ZM435.235 303.359L434.891 302.996L435.235 303.359ZM450.123 289.275L450.467 289.639L450.123 289.275ZM452 225.5H452.5V284.917H452H451.5V225.5H452ZM450.123 289.275L450.467 289.639L435.579 303.722L435.235 303.359L434.891 302.996L449.78 288.912L450.123 289.275ZM431.112 305V305.5H372V305V304.5H431.112V305ZM366 311H366.5V335.515H366H365.5V311H366ZM364.243 339.757L364.596 340.111L353.111 351.596L352.757 351.243L352.404 350.889L363.889 339.404L364.243 339.757ZM348.515 353V353.5H317V353V352.5H348.515V353ZM311 359H311.5V379.5H311H310.5V359H311ZM317 353V353.5C313.962 353.5 311.5 355.962 311.5 359H311H310.5C310.5 355.41 313.41 352.5 317 352.5V353ZM352.757 351.243L353.111 351.596C351.892 352.815 350.239 353.5 348.515 353.5V353V352.5C349.973 352.5 351.372 351.921 352.404 350.889L352.757 351.243ZM366 335.515H366.5C366.5 337.239 365.815 338.892 364.596 340.111L364.243 339.757L363.889 339.404C364.921 338.372 365.5 336.973 365.5 335.515H366ZM372 305V305.5C368.962 305.5 366.5 307.962 366.5 311H366H365.5C365.5 307.41 368.41 304.5 372 304.5V305ZM435.235 303.359L435.579 303.722C434.372 304.864 432.773 305.5 431.112 305.5V305V304.5C432.518 304.5 433.87 303.962 434.891 302.996L435.235 303.359ZM452 284.917H452.5C452.5 286.703 451.765 288.411 450.467 289.639L450.123 289.275L449.78 288.912C450.878 287.873 451.5 286.428 451.5 284.917H452Z" fill="#353539"/>
<path d="M263.5 141.5L266.387 136.5H260.613L263.5 141.5ZM251.269 101.832L250.91 102.18L251.269 101.832ZM261.816 112.756L262.176 112.409L261.816 112.756ZM263.5 137H264V116.924H263.5H263V137H263.5ZM261.816 112.756L262.176 112.409L251.629 101.485L251.269 101.832L250.91 102.18L261.457 113.104L261.816 112.756ZM246.953 100V99.5H26V100V100.5H246.953V100ZM251.269 101.832L251.629 101.485C250.404 100.217 248.716 99.5 246.953 99.5V100V100.5C248.445 100.5 249.873 101.106 250.91 102.18L251.269 101.832ZM263.5 116.924H264C264 115.239 263.346 113.621 262.176 112.409L261.816 112.756L261.457 113.104C262.447 114.129 263 115.499 263 116.924H263.5Z" fill="url(#paint0_linear_456_4809)"/>
<path d="M307 355L302 352.113V357.887L307 355ZM279.199 357.331L278.803 357.026L279.199 357.331ZM265.801 374.669L266.197 374.974L265.801 374.669ZM192 377V377.5H261.054V377V376.5H192V377ZM265.801 374.669L266.197 374.974L279.594 357.637L279.199 357.331L278.803 357.026L265.406 374.363L265.801 374.669ZM283.946 355V355.5H302.5V355V354.5H283.946V355ZM279.199 357.331L279.594 357.637C280.636 356.289 282.243 355.5 283.946 355.5V355V354.5C281.933 354.5 280.034 355.433 278.803 357.026L279.199 357.331ZM261.054 377V377.5C263.067 377.5 264.966 376.567 266.197 374.974L265.801 374.669L265.406 374.363C264.364 375.711 262.757 376.5 261.054 376.5V377Z" fill="#353539"/>
<path d="M494.354 224.646C494.158 224.451 493.842 224.451 493.646 224.646L490.464 227.828C490.269 228.024 490.269 228.34 490.464 228.536C490.66 228.731 490.976 228.731 491.172 228.536L494 225.707L496.828 228.536C497.024 228.731 497.34 228.731 497.536 228.536C497.731 228.34 497.731 228.024 497.536 227.828L494.354 224.646ZM511.243 305.243L510.889 305.596L511.243 305.243ZM495.757 289.757L496.111 289.404L495.757 289.757ZM494 225H493.5V285.515H494H494.5V225H494ZM495.757 289.757L495.404 290.111L510.889 305.596L511.243 305.243L511.596 304.889L496.111 289.404L495.757 289.757ZM515.485 307V307.5H581.5V307V306.5H515.485V307ZM511.243 305.243L510.889 305.596C512.108 306.815 513.761 307.5 515.485 307.5V307V306.5C514.027 306.5 512.628 305.921 511.596 304.889L511.243 305.243ZM494 285.515H493.5C493.5 287.239 494.185 288.892 495.404 290.111L495.757 289.757L496.111 289.404C495.079 288.372 494.5 286.973 494.5 285.515H494Z" fill="#353539"/>
<path d="M634.646 489.354C634.842 489.549 635.158 489.549 635.354 489.354L638.536 486.172C638.731 485.976 638.731 485.66 638.536 485.464C638.34 485.269 638.024 485.269 637.828 485.464L635 488.293L632.172 485.464C631.976 485.269 631.66 485.269 631.464 485.464C631.269 485.66 631.269 485.976 631.464 486.172L634.646 489.354ZM635 443.5H634.5V489H635H635.5V443.5H635Z" fill="#353539"/>
<path d="M543.646 173.146C543.451 173.342 543.451 173.658 543.646 173.854L546.828 177.036C547.024 177.231 547.34 177.231 547.536 177.036C547.731 176.84 547.731 176.524 547.536 176.328L544.707 173.5L547.536 170.672C547.731 170.476 547.731 170.16 547.536 169.964C547.34 169.769 547.024 169.769 546.828 169.964L543.646 173.146ZM693.685 252.357L694.076 252.044L693.685 252.357ZM762 277.5V277H701V277.5V278H762V277.5ZM695 271.5H695.5V256.105H695H694.5V271.5H695ZM693.685 252.357L694.076 252.044L685.192 240.939L684.801 241.252L684.411 241.564L693.295 252.669L693.685 252.357ZM680.116 239V238.5H572.5V239V239.5H680.116V239ZM566.5 233H567V186.82H566.5H566V233H566.5ZM564.94 182.784L565.31 182.447L558.655 175.128L558.285 175.464L557.915 175.8L564.57 183.12L564.94 182.784ZM553.846 173.5V173H544V173.5V174H553.846V173.5ZM558.285 175.464L558.655 175.128C557.423 173.773 555.677 173 553.846 173V173.5V174C555.395 174 556.873 174.654 557.915 175.8L558.285 175.464ZM566.5 186.82H567C567 185.203 566.397 183.644 565.31 182.447L564.94 182.784L564.57 183.12C565.49 184.132 566 185.451 566 186.82H566.5ZM572.5 239V238.5C569.462 238.5 567 236.038 567 233H566.5H566C566 236.59 568.91 239.5 572.5 239.5V239ZM684.801 241.252L685.192 240.939C683.958 239.398 682.091 238.5 680.116 238.5V239V239.5C681.787 239.5 683.367 240.259 684.411 241.564L684.801 241.252ZM695 256.105H695.5C695.5 254.629 694.998 253.197 694.076 252.044L693.685 252.357L693.295 252.669C694.075 253.644 694.5 254.856 694.5 256.105H695ZM701 277.5V277C697.962 277 695.5 274.538 695.5 271.5H695H694.5C694.5 275.09 697.41 278 701 278V277.5Z" fill="#353539"/>
<path d="M810.354 413.146C810.158 412.951 809.842 412.951 809.646 413.146L806.464 416.328C806.269 416.524 806.269 416.84 806.464 417.036C806.66 417.231 806.976 417.231 807.172 417.036L810 414.207L812.828 417.036C813.024 417.231 813.34 417.231 813.536 417.036C813.731 416.84 813.731 416.524 813.536 416.328L810.354 413.146ZM810 413.5H809.5V459H810H810.5V413.5H810Z" fill="#353539"/>
<defs>
<linearGradient id="paint0_linear_456_4809" x1="26" y1="119.75" x2="99.084" y2="119.75" gradientUnits="userSpaceOnUse">
<stop stop-color="#09090E"/>
<stop offset="1" stop-color="#353539"/>
</linearGradient>
</defs>
</svg>
