<svg width="945" height="584" viewBox="0 0 945 584" fill="none" xmlns="http://www.w3.org/2000/svg">
<path d="M222.146 427.146C221.951 427.342 221.951 427.658 222.146 427.854L225.328 431.036C225.524 431.231 225.84 431.231 226.036 431.036C226.231 430.84 226.231 430.524 226.036 430.328L223.207 427.5L226.036 424.672C226.231 424.476 226.231 424.16 226.036 423.964C225.84 423.769 225.524 423.769 225.328 423.964L222.146 427.146ZM246.995 374.705L246.704 375.111L246.995 374.705ZM222.005 356.795L221.714 357.202L222.005 356.795ZM219.5 330H219V351.918H219.5H220V330H219.5ZM222.005 356.795L221.714 357.202L246.704 375.111L246.995 374.705L247.286 374.298L222.296 356.389L222.005 356.795ZM249.5 379.582H249V404H249.5H250V379.582H249.5ZM249.5 404H249V421.5H249.5H250V404H249.5ZM243.5 427.5V427H222.5V427.5V428H243.5V427.5ZM249.5 421.5H249C249 424.538 246.538 427 243.5 427V427.5V428C247.09 428 250 425.09 250 421.5H249.5ZM246.995 374.705L246.704 375.111C248.145 376.144 249 377.809 249 379.582H249.5H250C250 377.486 248.99 375.519 247.286 374.298L246.995 374.705ZM219.5 351.918H219C219 354.014 220.01 355.981 221.714 357.202L222.005 356.795L222.296 356.389C220.855 355.356 220 353.691 220 351.918H219.5Z" fill="#353539"/>
<path d="M222.646 461.646C222.451 461.842 222.451 462.158 222.646 462.354L225.828 465.536C226.024 465.731 226.34 465.731 226.536 465.536C226.731 465.34 226.731 465.024 226.536 464.828L223.707 462L226.536 459.172C226.731 458.976 226.731 458.66 226.536 458.464C226.34 458.269 226.024 458.269 225.828 458.464L222.646 461.646ZM223 462V462.5H242.5V462V461.5H223V462ZM248.5 456H249V434H248.5H248V456H248.5ZM242.5 462V462.5C246.09 462.5 249 459.59 249 456H248.5H248C248 459.038 245.538 461.5 242.5 461.5V462Z" fill="#353539"/>
<path d="M676.354 430.146C676.549 430.342 676.549 430.658 676.354 430.854L673.172 434.036C672.976 434.231 672.66 434.231 672.464 434.036C672.269 433.84 672.269 433.524 672.464 433.328L675.293 430.5L672.464 427.672C672.269 427.476 672.269 427.16 672.464 426.964C672.66 426.769 672.976 426.769 673.172 426.964L676.354 430.146ZM646.318 429.067L646.643 428.687L646.318 429.067ZM636.609 420.797L636.933 420.416L636.609 420.797ZM725 277H725.5V348.077H725H724.5V277H725ZM723.882 351.565L724.289 351.855L717.202 361.778L716.795 361.487L716.388 361.197L723.476 351.274L723.882 351.565ZM711.912 364V364.5H640.5V364V363.5H711.912V364ZM634.5 370H635V416.229H634.5H634V370H634.5ZM636.609 420.797L636.933 420.416L646.643 428.687L646.318 429.067L645.994 429.448L636.285 421.177L636.609 420.797ZM650.209 430.5V430H676V430.5V431H650.209V430.5ZM646.318 429.067L646.643 428.687C647.638 429.534 648.902 430 650.209 430V430.5V431C648.664 431 647.17 430.45 645.994 429.448L646.318 429.067ZM634.5 416.229H635C635 417.841 635.707 419.371 636.933 420.416L636.609 420.797L636.285 421.177C634.835 419.942 634 418.134 634 416.229H634.5ZM640.5 364V364.5C637.462 364.5 635 366.962 635 370H634.5H634C634 366.41 636.91 363.5 640.5 363.5V364ZM716.795 361.487L717.202 361.778C715.981 363.486 714.011 364.5 711.912 364.5V364V363.5C713.689 363.5 715.355 362.642 716.388 361.197L716.795 361.487ZM725 348.077H725.5C725.5 349.432 725.077 350.753 724.289 351.855L723.882 351.565L723.476 351.274C724.142 350.341 724.5 349.224 724.5 348.077H725Z" fill="#353539"/>
<path d="M675.854 479.646C676.049 479.842 676.049 480.158 675.854 480.354L672.672 483.536C672.476 483.731 672.16 483.731 671.964 483.536C671.769 483.34 671.769 483.024 671.964 482.828L674.793 480L671.964 477.172C671.769 476.976 671.769 476.66 671.964 476.464C672.16 476.269 672.476 476.269 672.672 476.464L675.854 479.646ZM675.5 480V480.5H641V480V479.5H675.5V480ZM635 474H634.5V434H635H635.5V474H635ZM641 480V480.5C637.41 480.5 634.5 477.59 634.5 474H635H635.5C635.5 477.038 637.962 479.5 641 479.5V480Z" fill="#353539"/>
<path d="M314.146 511.354C314.342 511.549 314.658 511.549 314.854 511.354L318.036 508.172C318.231 507.976 318.231 507.66 318.036 507.464C317.84 507.269 317.524 507.269 317.328 507.464L314.5 510.293L311.672 507.464C311.476 507.269 311.16 507.269 310.964 507.464C310.769 507.66 310.769 507.976 310.964 508.172L314.146 511.354ZM327.243 448.757L326.889 448.404L327.243 448.757ZM316.257 459.743L316.611 460.096L316.257 459.743ZM314.5 511H315V463.985H314.5H314V511H314.5ZM316.257 459.743L316.611 460.096L327.596 449.111L327.243 448.757L326.889 448.404L315.904 459.389L316.257 459.743ZM329 444.515H329.5V371H329H328.5V444.515H329ZM335 365V365.5H420.5V365V364.5H335V365ZM329 371H329.5C329.5 367.962 331.962 365.5 335 365.5V365V364.5C331.41 364.5 328.5 367.41 328.5 371H329ZM327.243 448.757L327.596 449.111C328.815 447.892 329.5 446.239 329.5 444.515H329H328.5C328.5 445.973 327.921 447.372 326.889 448.404L327.243 448.757ZM314.5 463.985H315C315 462.527 315.579 461.128 316.611 460.096L316.257 459.743L315.904 459.389C314.685 460.608 314 462.261 314 463.985H314.5Z" fill="#353539"/>
<path d="M473.854 262.646C473.658 262.451 473.342 262.451 473.146 262.646L469.964 265.828C469.769 266.024 469.769 266.34 469.964 266.536C470.16 266.731 470.476 266.731 470.672 266.536L473.5 263.707L476.328 266.536C476.524 266.731 476.84 266.731 477.036 266.536C477.231 266.34 477.231 266.024 477.036 265.828L473.854 262.646ZM473.5 315.5H474V263H473.5H473V315.5H473.5Z" fill="#353539"/>
<path d="M224.854 531.354C225.049 531.158 225.049 530.842 224.854 530.646L221.672 527.464C221.476 527.269 221.16 527.269 220.964 527.464C220.769 527.66 220.769 527.976 220.964 528.172L223.793 531L220.964 533.828C220.769 534.024 220.769 534.34 220.964 534.536C221.16 534.731 221.476 534.731 221.672 534.536L224.854 531.354ZM164.243 529.243L163.889 529.596L164.243 529.243ZM151.257 516.257L151.611 515.904L151.257 516.257ZM149.5 477.5H149V512.015H149.5H150V477.5H149.5ZM151.257 516.257L150.904 516.611L163.889 529.596L164.243 529.243L164.596 528.889L151.611 515.904L151.257 516.257ZM168.485 531V531.5H224.5V531V530.5H168.485V531ZM164.243 529.243L163.889 529.596C165.108 530.815 166.761 531.5 168.485 531.5V531V530.5C167.027 530.5 165.628 529.921 164.596 528.889L164.243 529.243ZM149.5 512.015H149C149 513.739 149.685 515.392 150.904 516.611L151.257 516.257L151.611 515.904C150.579 514.872 150 513.473 150 512.015H149.5Z" fill="#353539"/>
<path d="M221.5 161.5L224.387 156.5H218.613L221.5 161.5ZM209.269 101.832L208.91 102.18L209.269 101.832ZM219.816 112.756L220.176 112.409L219.816 112.756ZM221.5 157H222V116.924H221.5H221V157H221.5ZM219.816 112.756L220.176 112.409L209.629 101.485L209.269 101.832L208.91 102.18L219.457 113.104L219.816 112.756ZM204.953 100V99.5H26V100V100.5H204.953V100ZM209.269 101.832L209.629 101.485C208.404 100.217 206.716 99.5 204.953 99.5V100V100.5C206.445 100.5 207.873 101.106 208.91 102.18L209.269 101.832ZM221.5 116.924H222C222 115.239 221.346 113.621 220.176 112.409L219.816 112.756L219.457 113.104C220.447 114.129 221 115.499 221 116.924H221.5Z" fill="url(#paint0_linear_454_4506)"/>
<defs>
<linearGradient id="paint0_linear_454_4506" x1="26" y1="119.75" x2="99.084" y2="119.75" gradientUnits="userSpaceOnUse">
<stop stop-color="#09090E"/>
<stop offset="1" stop-color="#353539"/>
</linearGradient>
</defs>
</svg>
