<svg width="945" height="584" viewBox="0 0 945 584" fill="none" xmlns="http://www.w3.org/2000/svg">
<path d="M650.354 75.3536C650.549 75.1583 650.549 74.8417 650.354 74.6464L647.172 71.4645C646.976 71.2692 646.66 71.2692 646.464 71.4645C646.269 71.6597 646.269 71.9763 646.464 72.1716L649.293 75L646.464 77.8284C646.269 78.0237 646.269 78.3403 646.464 78.5355C646.66 78.7308 646.976 78.7308 647.172 78.5355L650.354 75.3536ZM551.552 118.715L551.944 119.025L551.552 118.715ZM558.712 109.634L558.319 109.324L558.712 109.634ZM560 105.919H560.5V81H560H559.5V105.919H560ZM566 75V75.5H650V75V74.5H566V75ZM492 121V121.5H546.84V121V120.5H492V121ZM551.552 118.715L551.944 119.025L559.104 109.944L558.712 109.634L558.319 109.324L551.159 118.405L551.552 118.715ZM486 127H485.5V142H486H486.5V127H486ZM546.84 121V121.5C548.831 121.5 550.712 120.588 551.944 119.025L551.552 118.715L551.159 118.405C550.116 119.728 548.525 120.5 546.84 120.5V121ZM560 81H560.5C560.5 77.9624 562.962 75.5 566 75.5V75V74.5C562.41 74.5 559.5 77.4101 559.5 81H560ZM560 105.919H559.5C559.5 107.155 559.084 108.354 558.319 109.324L558.712 109.634L559.104 109.944C560.008 108.797 560.5 107.379 560.5 105.919H560ZM492 121V120.5C488.41 120.5 485.5 123.41 485.5 127H486H486.5C486.5 123.962 488.962 121.5 492 121.5V121Z" fill="#353539"/>
<path d="M285.646 137.646C285.451 137.842 285.451 138.158 285.646 138.354L288.828 141.536C289.024 141.731 289.34 141.731 289.536 141.536C289.731 141.34 289.731 141.024 289.536 140.828L286.707 138L289.536 135.172C289.731 134.976 289.731 134.66 289.536 134.464C289.34 134.269 289.024 134.269 288.828 134.464L285.646 137.646ZM377.821 114.238L377.377 114.008L377.821 114.238ZM449.5 142H450V117H449.5H449V142H449.5ZM443.5 111V110.5H383.148V111V111.5H443.5V111ZM377.821 114.238L377.377 114.008L366.735 134.532L367.179 134.762L367.623 134.992L378.265 114.468L377.821 114.238ZM361.852 138V137.5H290.5V138V138.5H361.852V138ZM290.5 138V137.5H286V138V138.5H290.5V138ZM367.179 134.762L366.735 134.532C365.79 136.355 363.907 137.5 361.852 137.5V138V138.5C364.28 138.5 366.505 137.147 367.623 134.992L367.179 134.762ZM383.148 111V110.5C380.72 110.5 378.495 111.853 377.377 114.008L377.821 114.238L378.265 114.468C379.21 112.645 381.093 111.5 383.148 111.5V111ZM449.5 117H450C450 113.41 447.09 110.5 443.5 110.5V111V111.5C446.538 111.5 449 113.962 449 117H449.5Z" fill="#353539"/>
<path d="M352.646 362.354C352.842 362.549 353.158 362.549 353.354 362.354L356.536 359.172C356.731 358.976 356.731 358.66 356.536 358.464C356.34 358.269 356.024 358.269 355.828 358.464L353 361.293L350.172 358.464C349.976 358.269 349.66 358.269 349.464 358.464C349.269 358.66 349.269 358.976 349.464 359.172L352.646 362.354ZM354.757 257.243L354.404 256.889L354.757 257.243ZM369.243 242.757L368.889 242.404L369.243 242.757ZM407.5 241V240.5H373.485V241V241.5H407.5V241ZM369.243 242.757L368.889 242.404L354.404 256.889L354.757 257.243L355.111 257.596L369.596 243.111L369.243 242.757ZM353 261.485H352.5V278H353H353.5V261.485H353ZM353 278H352.5V362H353H353.5V278H353ZM354.757 257.243L354.404 256.889C353.185 258.108 352.5 259.761 352.5 261.485H353H353.5C353.5 260.027 354.079 258.628 355.111 257.596L354.757 257.243ZM373.485 241V240.5C371.761 240.5 370.108 241.185 368.889 242.404L369.243 242.757L369.596 243.111C370.628 242.079 372.027 241.5 373.485 241.5V241Z" fill="#353539"/>
<path d="M402 209L397 206.113V211.887L402 209ZM187.757 302.757L187.404 303.111L187.757 302.757ZM207.743 322.743L208.096 322.389L207.743 322.743ZM317.323 223.232L317.671 223.591L317.323 223.232ZM330.255 210.693L329.906 210.334L330.255 210.693ZM397.5 209V208.5H334.431V209V209.5H397.5V209ZM330.255 210.693L329.906 210.334L316.975 222.873L317.323 223.232L317.671 223.591L330.603 211.052L330.255 210.693ZM315.5 227.54H315V318.5H315.5H316V227.54H315.5ZM309.5 324.5V324H211.985V324.5V325H309.5V324.5ZM207.743 322.743L208.096 322.389L188.111 302.404L187.757 302.757L187.404 303.111L207.389 323.096L207.743 322.743ZM183.515 301V300.5H27V301V301.5H183.515V301ZM187.757 302.757L188.111 302.404C186.892 301.185 185.239 300.5 183.515 300.5V301V301.5C184.973 301.5 186.372 302.079 187.404 303.111L187.757 302.757ZM211.985 324.5V324C210.527 324 209.128 323.421 208.096 322.389L207.743 322.743L207.389 323.096C208.608 324.315 210.261 325 211.985 325V324.5ZM315.5 318.5H315C315 321.538 312.538 324 309.5 324V324.5V325C313.09 325 316 322.09 316 318.5H315.5ZM317.323 223.232L316.975 222.873C315.713 224.097 315 225.781 315 227.54H315.5H316C316 226.051 316.603 224.627 317.671 223.591L317.323 223.232ZM334.431 209V208.5C332.742 208.5 331.119 209.158 329.906 210.334L330.255 210.693L330.603 211.052C331.629 210.056 333.002 209.5 334.431 209.5V209Z" fill="url(#paint0_linear_457_5055)"/>
<path d="M624.146 318.354C624.342 318.549 624.658 318.549 624.854 318.354L628.036 315.172C628.231 314.976 628.231 314.66 628.036 314.464C627.84 314.269 627.524 314.269 627.328 314.464L624.5 317.293L621.672 314.464C621.476 314.269 621.16 314.269 620.964 314.464C620.769 314.66 620.769 314.976 620.964 315.172L624.146 318.354ZM581.257 265.757L580.904 266.111L581.257 265.757ZM536.5 241.5V242H573.5V241.5V241H536.5V241.5ZM579.5 247.5H579V261.515H579.5H580V247.5H579.5ZM581.257 265.757L580.904 266.111L587.889 273.096L588.243 272.743L588.596 272.389L581.611 265.404L581.257 265.757ZM592.485 274.5V275H618.5V274.5V274H592.485V274.5ZM624.5 280.5H624V318H624.5H625V280.5H624.5ZM618.5 274.5V275C621.538 275 624 277.462 624 280.5H624.5H625C625 276.91 622.09 274 618.5 274V274.5ZM588.243 272.743L587.889 273.096C589.108 274.315 590.761 275 592.485 275V274.5V274C591.027 274 589.628 273.421 588.596 272.389L588.243 272.743ZM579.5 261.515H579C579 263.239 579.685 264.892 580.904 266.111L581.257 265.757L581.611 265.404C580.579 264.372 580 262.973 580 261.515H579.5ZM573.5 241.5V242C576.538 242 579 244.462 579 247.5H579.5H580C580 243.91 577.09 241 573.5 241V241.5Z" fill="#353539"/>
<path d="M547 208L542 205.613V211.387L547 209V208ZM714.217 269.347L714.632 269.068L714.217 269.347ZM697.283 244.153L696.868 244.432L697.283 244.153ZM546.5 208.5V209H605V208.5V208H546.5V208.5ZM611 214.5H610.5V235.5H611H611.5V214.5H611ZM617 241.5V242H692.303V241.5V241H617V241.5ZM697.283 244.153L696.868 244.432L713.802 269.626L714.217 269.347L714.632 269.068L697.698 243.874L697.283 244.153ZM719.197 272V272.5H919V272V271.5H719.197V272ZM714.217 269.347L713.802 269.626C715.009 271.422 717.032 272.5 719.197 272.5V272V271.5C717.365 271.5 715.654 270.588 714.632 269.068L714.217 269.347ZM692.303 241.5V242C694.135 242 695.846 242.912 696.868 244.432L697.283 244.153L697.698 243.874C696.491 242.078 694.468 241 692.303 241V241.5ZM611 235.5H610.5C610.5 239.09 613.41 242 617 242V241.5V241C613.962 241 611.5 238.538 611.5 235.5H611ZM605 208.5V209C608.038 209 610.5 211.462 610.5 214.5H611H611.5C611.5 210.91 608.59 208 605 208V208.5Z" fill="url(#paint1_linear_457_5055)"/>
<path d="M721 281.5L756.242 338.649C757.335 340.421 759.268 341.5 761.349 341.5H917.5" stroke="url(#paint2_linear_457_5055)"/>
<defs>
<linearGradient id="paint0_linear_457_5055" x1="27" y1="266.75" x2="148" y2="266.75" gradientUnits="userSpaceOnUse">
<stop stop-color="#09090E"/>
<stop offset="1" stop-color="#353539"/>
</linearGradient>
<linearGradient id="paint1_linear_457_5055" x1="722" y1="232" x2="919" y2="240" gradientUnits="userSpaceOnUse">
<stop stop-color="#353539"/>
<stop offset="1" stop-color="#09090E"/>
</linearGradient>
<linearGradient id="paint2_linear_457_5055" x1="807" y1="297" x2="917.942" y2="305.479" gradientUnits="userSpaceOnUse">
<stop stop-color="#353539"/>
<stop offset="1" stop-color="#09090E"/>
</linearGradient>
</defs>
</svg>
