<svg width="96" height="46" viewBox="0 0 96 46" fill="none" xmlns="http://www.w3.org/2000/svg">
<mask id="path-1-inside-1_8846_38982" fill="white">
<path d="M94.001 0.0185547C95.1051 0.019021 96.0008 0.914444 96.001 2.01855V38.4404L95.9902 38.6396C95.944 39.1009 95.7389 39.5346 95.4062 39.8633L92.5967 42.6377L89.7764 45.4229L89.6299 45.5537C89.2754 45.8409 88.8312 45.9999 88.3711 46L2 45.9814C0.964645 45.9812 0.11316 45.1939 0.0107422 44.1855L0 43.9814V18.8125C0 18.5364 0.223858 18.3125 0.5 18.3125C0.776142 18.3125 1 18.5364 1 18.8125V43.9814C1.00018 44.5335 1.44791 44.9813 2 44.9814L88.3711 45C88.634 44.9999 88.8862 44.8956 89.0732 44.7109L91.8936 41.9268L94.7031 39.1514L94.7705 39.0781C94.8972 38.9252 94.9753 38.7376 94.9951 38.54L95.001 38.4404V2.01855C95.0008 1.5012 94.6073 1.07596 94.1035 1.02441L94.001 1.01855L7.62988 1C7.39965 1.00001 7.17732 1.07987 7 1.22363L6.92773 1.28906L2.85188 5.31322C2.53577 5.62533 2 5.4014 2 4.95717C2 4.82337 2.0536 4.69513 2.14882 4.60112L6.22461 0.577148C6.59902 0.2075 7.10471 -0.000113883 7.63086 4.68652e-08L94.001 0.0185547Z"/>
</mask>
<path d="M94.001 0.0185547L94.0014 -0.981445L94.0012 -0.981445L94.001 0.0185547ZM96.001 2.01855H97.001V2.0184L96.001 2.01855ZM96.001 38.4404L96.9995 38.4943L97.001 38.4674V38.4404H96.001ZM95.9902 38.6396L96.9853 38.7394L96.9875 38.7165L96.9888 38.6935L95.9902 38.6396ZM95.4062 39.8633L96.1089 40.5748L96.1091 40.5746L95.4062 39.8633ZM92.5967 42.6377L91.894 41.9262L91.894 41.9262L92.5967 42.6377ZM89.7764 45.4229L90.4426 46.1686L90.4612 46.152L90.479 46.1344L89.7764 45.4229ZM89.6299 45.5537L90.2594 46.3307L90.2781 46.3155L90.2961 46.2995L89.6299 45.5537ZM88.3711 46L88.3709 47H88.3713L88.3711 46ZM2 45.9814L1.99978 46.9814H1.99979L2 45.9814ZM0.0107422 44.1855L-0.987876 44.2381L-0.986597 44.2624L-0.984139 44.2866L0.0107422 44.1855ZM0 43.9814H-1V44.0077L-0.998618 44.034L0 43.9814ZM1 43.9814H-5.2632e-08L5.2632e-08 43.9818L1 43.9814ZM2 44.9814L1.99978 45.9814H1.99979L2 44.9814ZM88.3711 45L88.3709 46H88.3716L88.3711 45ZM89.0732 44.7109L88.3707 43.9993L88.3706 43.9994L89.0732 44.7109ZM91.8936 41.9268L92.5961 42.6384L92.5963 42.6382L91.8936 41.9268ZM94.7031 39.1514L95.4059 39.8628L95.4229 39.846L95.4391 39.8284L94.7031 39.1514ZM94.7705 39.0781L95.5064 39.7552L95.5241 39.736L95.5407 39.7159L94.7705 39.0781ZM94.9951 38.54L95.9901 38.6399L95.9922 38.6194L95.9934 38.5988L94.9951 38.54ZM95.001 38.4404L95.9993 38.4992L96.001 38.4698V38.4404H95.001ZM95.001 2.01855H96.001V2.01824L95.001 2.01855ZM94.1035 1.02441L94.2053 0.0296071L94.183 0.0273231L94.1606 0.0260428L94.1035 1.02441ZM94.001 1.01855L94.058 0.0201834L94.0296 0.0185609L94.0012 0.0185548L94.001 1.01855ZM7.62988 1L7.6301 3.21693e-08L7.62982 4.86665e-08L7.62988 1ZM7 1.22363L6.37023 0.446848L6.34905 0.464026L6.32882 0.482334L7 1.22363ZM6.92773 1.28906L6.25656 0.547764L6.24054 0.562271L6.22515 0.577457L6.92773 1.28906ZM6.22461 0.577148L5.52204 -0.134472L5.52204 -0.134468L6.22461 0.577148ZM7.63086 4.68652e-08L7.63064 1H7.63064L7.63086 4.68652e-08ZM2.14882 4.60112L2.85139 5.31274L2.14882 4.60112ZM94.001 0.0185547L94.0006 1.01855C94.5529 1.01879 95.0009 1.46701 95.001 2.01871L96.001 2.01855L97.001 2.0184C97.0007 0.361881 95.6572 -0.980746 94.0014 -0.981445L94.001 0.0185547ZM96.001 2.01855H95.001V38.4404H96.001H97.001V2.01855H96.001ZM96.001 38.4404L95.0024 38.3866L94.9917 38.5858L95.9902 38.6396L96.9888 38.6935L96.9995 38.4943L96.001 38.4404ZM95.9902 38.6396L94.9952 38.5399C94.972 38.7713 94.8692 38.9882 94.7034 39.152L95.4062 39.8633L96.1091 40.5746C96.6087 40.081 96.916 39.4305 96.9853 38.7394L95.9902 38.6396ZM95.4062 39.8633L94.7036 39.1517L91.894 41.9262L92.5967 42.6377L93.2993 43.3492L96.1089 40.5748L95.4062 39.8633ZM92.5967 42.6377L91.894 41.9262L89.0737 44.7113L89.7764 45.4229L90.479 46.1344L93.2993 43.3492L92.5967 42.6377ZM89.7764 45.4229L89.1102 44.6771L88.9637 44.8079L89.6299 45.5537L90.2961 46.2995L90.4426 46.1686L89.7764 45.4229ZM89.6299 45.5537L89.0004 44.7767C88.8229 44.9205 88.6006 44.9999 88.3709 45L88.3711 46L88.3713 47C89.0619 46.9998 89.7279 46.7613 90.2594 46.3307L89.6299 45.5537ZM88.3711 46L88.3713 45L2.00021 44.9814L2 45.9814L1.99979 46.9814L88.3709 47L88.3711 46ZM2 45.9814L2.00022 44.9814C1.48343 44.9813 1.05675 44.5879 1.00562 44.0845L0.0107422 44.1855L-0.984139 44.2866C-0.830432 45.7999 0.44586 46.9811 1.99978 46.9814L2 45.9814ZM0.0107422 44.1855L1.00936 44.133L0.998618 43.9289L0 43.9814L-0.998618 44.034L-0.987876 44.2381L0.0107422 44.1855ZM0 43.9814H1V18.8125H0H-1V43.9814H0ZM1 18.8125H0V43.9814H1H2V18.8125H1ZM1 43.9814L5.2632e-08 43.9818C0.000358224 45.0857 0.895453 45.9812 1.99978 45.9814L2 44.9814L2.00022 43.9814L2 43.9811L1 43.9814ZM2 44.9814L1.99979 45.9814L88.3709 46L88.3711 45L88.3713 44L2.00021 43.9814L2 44.9814ZM88.3711 45L88.3716 46C88.8989 45.9997 89.4029 45.7908 89.7759 45.4225L89.0732 44.7109L88.3706 43.9994L88.3706 44L88.3711 45ZM89.0732 44.7109L89.7758 45.4226L92.5961 42.6384L91.8936 41.9268L91.191 41.2151L88.3707 43.9993L89.0732 44.7109ZM91.8936 41.9268L92.5963 42.6382L95.4059 39.8628L94.7031 39.1514L94.0004 38.4399L91.1908 41.2153L91.8936 41.9268ZM94.7031 39.1514L95.4391 39.8284L95.5064 39.7552L94.7705 39.0781L94.0346 38.4011L93.9672 38.4743L94.7031 39.1514ZM94.7705 39.0781L95.5407 39.7159C95.7946 39.4093 95.9505 39.0344 95.9901 38.6399L94.9951 38.54L94.0001 38.4402L94.0003 38.4403L94.7705 39.0781ZM94.9951 38.54L95.9934 38.5988L95.9993 38.4992L95.001 38.4404L94.0027 38.3817L93.9968 38.4813L94.9951 38.54ZM95.001 38.4404H96.001V2.01855H95.001H94.001V38.4404H95.001ZM95.001 2.01855L96.001 2.01824C96.0006 0.981908 95.213 0.132704 94.2053 0.0296071L94.1035 1.02441L94.0017 2.01922L94.001 2.01887L95.001 2.01855ZM94.1035 1.02441L94.1606 0.0260428L94.058 0.0201834L94.001 1.01855L93.9439 2.01693L94.0465 2.02279L94.1035 1.02441ZM94.001 1.01855L94.0012 0.0185548L7.6301 6.99401e-08L7.62988 1L7.62967 2L94.0008 2.01855L94.001 1.01855ZM7.62988 1L7.62982 4.86665e-08C7.16824 2.77544e-05 6.72405 0.159995 6.37023 0.446848L7 1.22363L7.62977 2.00042L7.62994 2L7.62988 1ZM7 1.22363L6.32882 0.482334L6.25656 0.547764L6.92773 1.28906L7.59891 2.03036L7.67118 1.96493L7 1.22363ZM6.92773 1.28906L6.22515 0.577457L2.1493 4.60162L2.85188 5.31322L3.55446 6.02483L7.63031 2.00067L6.92773 1.28906ZM2.14882 4.60112L2.85139 5.31274L6.92718 1.28876L6.22461 0.577148L5.52204 -0.134468L1.44625 3.8895L2.14882 4.60112ZM6.22461 0.577148L6.92717 1.28877C7.11448 1.10385 7.3677 0.999943 7.63064 1L7.63086 4.68652e-08L7.63108 -1C6.84171 -1.00017 6.08357 -0.688848 5.52204 -0.134472L6.22461 0.577148ZM7.63086 4.68652e-08L7.63064 1L94.0008 1.01855L94.001 0.0185547L94.0012 -0.981445L7.63107 -1L7.63086 4.68652e-08ZM2 4.95717H3C3 5.0908 2.94648 5.21886 2.85139 5.31274L2.14882 4.60112L1.44625 3.8895C1.16072 4.17141 1 4.55593 1 4.95717H2ZM2.85188 5.31322L2.1493 4.60162C2.46497 4.28995 3 4.51357 3 4.95717H2H1C1 6.28922 2.60656 6.9607 3.55446 6.02483L2.85188 5.31322ZM0.5 18.3125V19.3125C0.223858 19.3125 0 19.0886 0 18.8125H1H2C2 17.9841 1.32843 17.3125 0.5 17.3125V18.3125ZM0 18.8125H1C1 19.0886 0.776143 19.3125 0.5 19.3125V18.3125V17.3125C-0.328428 17.3125 -1 17.9841 -1 18.8125H0Z" fill="white" mask="url(#path-1-inside-1_8846_38982)"/>
</svg>
