<svg width="160" height="41" viewBox="0 0 160 41" fill="none" xmlns="http://www.w3.org/2000/svg">
<g clip-path="url(#clip0_9083_36814)">
<g opacity="0.8">
<path d="M7.51749 13.4679C9.00189 11.0489 12.5269 11.0783 13.9708 13.5217L22.2795 27.5827C22.9719 28.7545 22.1273 30.2347 20.7662 30.2347H4.40815C1.26723 30.2347 -0.659054 26.7927 0.983696 24.1156L7.51749 13.4679Z" fill="#EFEFE5"/>
<path d="M19.2768 12.0443C21.0784 11.0042 23.382 11.6215 24.4222 13.423L30.8258 24.5144C31.8659 26.316 31.2487 28.6197 29.4471 29.6598C27.6455 30.7 25.3419 30.0827 24.3017 28.2811L17.8981 17.1897C16.8579 15.3881 17.4752 13.0845 19.2768 12.0443Z" fill="#EFEFE5"/>
<path d="M158.868 29.1585C157.894 29.1585 157.13 28.9478 156.551 28.5791C155.944 28.1842 155.629 27.6047 155.629 26.8147V15.3333H157.156C157.709 15.3333 158.183 15.781 158.183 16.3603V26.4724C158.183 26.4988 158.183 26.9728 158.578 27.3678C158.815 27.6047 159.105 27.7364 159.499 27.7364H159.789C159.895 27.7364 160 27.8418 160 27.9471V29.1848L158.868 29.1585Z" fill="#EFEFE5"/>
<path d="M125.951 29.1576C124.371 29.1576 123.08 28.7363 122.106 27.8936C121.606 27.4723 121.264 26.9982 121.053 26.4715C120.842 25.9449 120.736 25.1812 120.736 24.1542C120.736 23.1536 120.842 22.3635 121.053 21.8368C121.237 21.3365 121.579 20.8888 122.08 20.4675C123.054 19.6248 124.344 19.2035 125.924 19.2035C127.504 19.2035 128.795 19.6248 129.769 20.4675C130.27 20.8888 130.612 21.3628 130.796 21.8368C131.007 22.3898 131.112 23.1536 131.112 24.1542C131.112 25.1812 131.007 25.9449 130.796 26.4715C130.585 26.9982 130.243 27.4723 129.742 27.8936C128.821 28.7363 127.531 29.1576 125.951 29.1576ZM125.951 20.6518C124.212 20.6518 123.344 21.8368 123.344 24.1805C123.344 26.5506 124.212 27.7356 125.951 27.7356C127.688 27.7356 128.558 26.5506 128.558 24.2068C128.558 21.8368 127.663 20.6518 125.951 20.6518Z" fill="#EFEFE5"/>
<path d="M136.853 29.1585C135.483 29.1585 134.22 28.7898 133.14 28.0788C133.034 27.9734 132.824 27.8418 132.56 27.6838C132.508 27.6575 132.455 27.5784 132.455 27.4994V15.3333H134.009C134.562 15.3333 135.036 15.8073 135.036 16.3603V19.9154L135.51 19.652C136.063 19.3624 136.8 19.2307 137.748 19.2307C139.407 19.2307 140.671 19.731 141.514 20.7053C142.251 21.5744 142.62 22.733 142.62 24.1551C142.62 25.5771 142.199 26.7358 141.356 27.5784C140.381 28.6318 138.854 29.1585 136.853 29.1585ZM137.116 20.6527C136.537 20.6527 135.878 20.8633 135.141 21.3111L135.036 21.3637V27.0781L135.141 27.1571C135.721 27.5258 136.405 27.7101 137.116 27.7101C138.064 27.7101 138.802 27.3151 139.302 26.5251C139.723 25.8931 139.961 25.0768 139.961 24.1551C139.961 21.8377 138.986 20.6527 137.116 20.6527Z" fill="#EFEFE5"/>
<path d="M148.703 29.1313C145.806 29.1313 143.99 27.2353 143.99 24.1542C143.99 21.0995 145.78 19.2035 148.65 19.2035C149.756 19.2035 150.704 19.4931 151.468 20.0462L151.626 20.1515V19.3878H153.654C153.785 19.3878 153.864 19.4931 153.864 19.5985V28.9469H151.6V28.1042L151.441 28.2359C150.81 28.8152 149.809 29.1313 148.703 29.1313ZM149.23 20.8888C147.412 20.8888 146.333 22.2845 146.333 24.1542C146.333 26.0239 147.412 27.4723 149.23 27.4723C149.809 27.4723 150.81 27.4196 151.6 26.6295L151.626 26.6032V21.8105L151.6 21.7842C151.046 21.1522 150.23 20.8888 149.23 20.8888Z" fill="#EFEFE5"/>
<path d="M55.1395 29.0262V15.3063H66.5419V16.1753C66.5419 16.86 65.9889 17.413 65.3043 17.413H57.9835V21.0997H65.3043V23.2065H57.9835V26.8931H65.3043C65.9889 26.8931 66.5419 27.4461 66.5419 28.1308V28.9998L55.1395 29.0262Z" fill="#EFEFE5"/>
<path d="M82.9215 15.3063H80.2355C79.7351 15.3063 79.2875 15.517 78.9714 15.912L75.7324 19.9937L72.4933 15.9383C72.1774 15.5433 71.7297 15.3327 71.2294 15.3327H68.5433L73.9944 22.1794L68.5433 29.0262H71.2294C71.7297 29.0262 72.1774 28.8155 72.4933 28.4205L75.7324 24.3651L78.9978 28.4468C79.3138 28.8155 79.7615 29.0525 80.2618 29.0525H82.9479L77.4967 22.2057L82.9215 15.3063Z" fill="#EFEFE5"/>
<path d="M46.2125 27.5786L49.9519 21.0479V29.0007H52.796V15.2808H51.0316C50.4785 15.2808 49.9519 15.5705 49.6886 16.0708L45.2118 24.2342L40.7351 16.0708C40.4717 15.5705 39.9451 15.2808 39.392 15.2808H37.6277V29.0007H40.4717V21.0479L44.2111 27.5786H46.2125Z" fill="#EFEFE5"/>
<path d="M90.3476 29.1841C86.3976 29.2368 83.1849 26.1294 83.1586 22.1793C83.1586 20.02 83.8169 18.2293 85.0546 16.9916C86.2923 15.7803 88.0829 15.1219 90.216 15.1219C92.7177 15.1219 94.6927 15.9909 96.1147 17.6763L95.2194 18.44C94.6664 18.914 93.85 18.9403 93.2443 18.4926C92.4543 17.887 91.4536 17.5973 90.3213 17.5973C87.5299 17.5973 85.8709 19.2826 85.8709 22.1267C85.8709 24.997 87.5826 26.7614 90.3213 26.7614C91.4799 26.7614 92.4543 26.4454 93.2443 25.8661C93.8237 25.4183 94.64 25.4448 95.2194 25.9187L96.1147 26.6824C94.6927 28.3414 92.7967 29.1841 90.3476 29.1841Z" fill="#EFEFE5"/>
<path d="M107.86 29.1844C103.436 29.1844 100.697 26.4984 100.697 22.1796C100.697 17.8609 103.436 15.1749 107.807 15.1749C109.914 15.1749 111.678 15.7806 113.047 17.0182L112.389 17.7556C112.099 18.0716 111.678 18.2559 111.256 18.2559C111.02 18.2559 110.782 18.2033 110.572 18.0979C109.755 17.6766 108.808 17.4659 107.807 17.4659C104.963 17.4659 103.198 19.2829 103.198 22.206C103.198 25.1553 105.042 26.9723 107.991 26.9723C109.413 26.9723 110.519 26.709 111.336 26.1297L111.388 26.1034V23.2856H108.254V22.3639C108.254 21.6793 108.808 21.1263 109.492 21.1263H113.363C113.469 21.1263 113.574 21.2316 113.574 21.337V27.4201C112.231 28.5787 110.309 29.1844 107.86 29.1844Z" fill="#EFEFE5"/>
<path d="M118.657 29.1585C117.682 29.1585 116.918 28.9478 116.339 28.5791C115.734 28.1842 115.417 27.6047 115.417 26.8147V15.3333H116.945C117.498 15.3333 117.972 15.781 117.972 16.3603V26.4724C117.972 26.4988 117.972 26.9728 118.367 27.3678C118.604 27.6047 118.893 27.7364 119.288 27.7364H119.578C119.684 27.7364 119.789 27.8418 119.789 27.9471V29.1848L118.657 29.1585Z" fill="#EFEFE5"/>
</g>
</g>
<defs>
<clipPath id="clip0_9083_36814">
<rect width="160" height="40" fill="white" transform="translate(0 0.5)"/>
</clipPath>
</defs>
</svg>
