<svg width="152" height="41" viewBox="0 0 152 41" fill="none" xmlns="http://www.w3.org/2000/svg">
<g clip-path="url(#clip0_9083_38016)">
<g opacity="0.8">
<path d="M24.6514 26.3818L15.2666 35.7666L5.88184 26.3818L9.33691 22.9365L15.2666 28.8652L21.1992 22.9336L24.6514 26.3818Z" fill="#EFEFE5"/>
<path d="M129.662 12.3555C130.417 12.3555 131.107 12.4171 131.731 12.54C132.356 12.6637 132.922 12.8331 133.432 13.0488C133.941 13.2649 134.411 13.5277 134.844 13.8359C135.275 14.1445 135.676 14.4835 136.046 14.8535L133.779 17.4668C133.146 16.8966 132.503 16.4496 131.848 16.126C131.192 15.8024 130.456 15.6396 129.639 15.6396C128.96 15.6397 128.332 15.7711 127.754 16.0332C127.176 16.2953 126.678 16.6576 126.262 17.1201C125.846 17.5826 125.522 18.1187 125.29 18.7275C125.059 19.3369 124.943 19.9888 124.943 20.6826V20.7285C124.943 21.4222 125.059 22.078 125.29 22.6943C125.522 23.3114 125.841 23.851 126.25 24.3135C126.658 24.776 127.152 25.1423 127.73 25.4121C128.309 25.6821 128.945 25.8164 129.639 25.8164C130.564 25.8164 131.346 25.6469 131.986 25.3076C132.626 24.9688 133.263 24.5061 133.895 23.9199L136.161 26.21C135.745 26.6573 135.313 27.0589 134.866 27.4131C134.419 27.768 133.93 28.0725 133.397 28.3271C132.866 28.5813 132.283 28.7736 131.651 28.9043C131.019 29.0352 130.309 29.1016 129.523 29.1016C128.336 29.1015 127.234 28.8855 126.216 28.4541C125.198 28.0227 124.319 27.4325 123.579 26.6846C122.839 25.9368 122.26 25.0537 121.845 24.0361C121.428 23.0182 121.22 21.931 121.22 20.7744V20.7285C121.22 19.572 121.428 18.4887 121.845 17.4785C122.261 16.4687 122.839 15.5815 123.579 14.8184C124.319 14.0553 125.206 13.454 126.238 13.0146C127.271 12.5753 128.413 12.3555 129.662 12.3555Z" fill="#EFEFE5"/>
<path d="M57.6816 28.8242H54.1201V12.6328H57.6816V28.8242Z" fill="#EFEFE5"/>
<path d="M73.9482 22.6016V12.6328H77.4639V28.8242H74.4336L66.5928 18.5312V28.8242H63.0771V12.6328H66.3613L73.9482 22.6016Z" fill="#EFEFE5"/>
<path fill-rule="evenodd" clip-rule="evenodd" d="M98.4717 28.8242H94.748L93.2676 25.1934H86.4209L84.9404 28.8242H81.3086L88.248 12.5176H91.5322L98.4717 28.8242ZM87.6934 22.0469H91.9951L89.8438 16.7969L87.6934 22.0469Z" fill="#EFEFE5"/>
<path d="M113.188 22.6016V12.6328H116.704V28.8242H113.674L105.833 18.5312V28.8242H102.317V12.6328H105.602L113.188 22.6016Z" fill="#EFEFE5"/>
<path d="M152.543 15.8018H143.869V19.0859H151.502V22.2549H143.869V25.6553H152.659V28.8242H140.354V12.6328H152.543V15.8018Z" fill="#EFEFE5"/>
<path fill-rule="evenodd" clip-rule="evenodd" d="M43.416 12.6328C45.2781 12.6329 46.6862 13.1107 47.6406 14.0664C48.3793 14.8067 48.749 15.7247 48.749 16.8193V16.8652C48.749 17.3276 48.6911 17.7364 48.5762 18.0908C48.4614 18.4458 48.3079 18.7655 48.1162 19.0508C47.925 19.3363 47.7029 19.5871 47.4502 19.8027C47.1974 20.0187 46.9257 20.2036 46.6348 20.3574C47.5708 20.7124 48.3075 21.1946 48.8447 21.8037C49.3817 22.413 49.6503 23.257 49.6504 24.3359V24.3828C49.6503 25.1228 49.5083 25.77 49.2236 26.3252C48.9388 26.8801 48.5312 27.3437 48 27.7139C47.4688 28.084 46.8295 28.3607 46.083 28.5459C45.3364 28.7309 44.5085 28.8232 43.6006 28.8232H35.9121V12.6328H43.416ZM39.3809 25.7012H43.6133C44.3996 25.7012 45.0163 25.5589 45.4639 25.2734C45.9109 24.9882 46.1348 24.5448 46.1348 23.9434V23.8975C46.1348 23.3578 45.9269 22.9297 45.5107 22.6133C45.0943 22.2976 44.4233 22.1397 43.498 22.1396H39.3809V25.7012ZM39.3809 19.1787H42.665C43.4517 19.1787 44.0768 19.0435 44.5391 18.7734C45.0014 18.5036 45.2324 18.0679 45.2324 17.4668V17.4209C45.2324 16.8814 45.0317 16.4691 44.6309 16.1836C44.2298 15.8983 43.6517 15.7549 42.8965 15.7549H39.3809V19.1787Z" fill="#EFEFE5"/>
<path d="M18.7676 20.499H18.7656L18.7686 20.501L18.7676 20.5029L15.2666 24.0039L11.7637 20.501L12.3818 19.8828L12.6787 19.585L15.2666 16.998L18.7676 20.499Z" fill="#EFEFE5"/>
<path d="M30.5332 20.502L27.083 23.9521L23.6328 20.502L27.083 17.0518L30.5332 20.502Z" fill="#EFEFE5"/>
<path d="M6.90039 20.499L3.4502 23.9492L0 20.499L3.4502 17.0488L6.90039 20.499Z" fill="#EFEFE5"/>
<path d="M24.6494 14.6172L21.1992 18.0674L15.2666 12.1348L9.33691 18.0645L5.88672 14.6143L15.2666 5.23438L24.6494 14.6172Z" fill="#EFEFE5"/>
</g>
</g>
<defs>
<clipPath id="clip0_9083_38016">
<rect width="152" height="40" fill="white" transform="translate(0 0.5)"/>
</clipPath>
</defs>
</svg>
