<svg width="80" height="41" viewBox="0 0 80 41" fill="none" xmlns="http://www.w3.org/2000/svg">
<g opacity="0.8">
<mask id="mask0_9083_38024" style="mask-type:luminance" maskUnits="userSpaceOnUse" x="0" y="2" width="80" height="31">
<path d="M79.4454 2.57812H0.0791016V32.8814H79.4454V2.57812Z" fill="white"/>
</mask>
<g mask="url(#mask0_9083_38024)">
<path d="M13.2438 11.9298C13.3349 7.47984 10.783 3.60221 9.45391 2.67027C9.44787 2.66427 9.3295 2.60135 9.33857 2.77515C9.33857 2.77814 9.33555 2.77814 9.33555 2.78114C9.19904 11.1867 4.82346 13.4521 2.44761 16.5326C-2.83214 23.3828 1.57368 31.1981 7.28124 32.6783C7.37845 32.7023 7.6424 32.7803 8.14309 32.8821C8.40401 32.9361 8.4799 32.7173 8.28867 32.3906C7.60596 31.219 6.39219 29.2412 6.15258 26.7C5.60639 20.7997 13.1376 17.1079 13.2438 11.9298Z" fill="#EFEFE5"/>
<path d="M16.1206 14.779C16.0751 14.746 16.0115 14.749 16.0054 14.8059C15.884 15.8758 14.7643 18.0933 13.2896 20.1669C8.32533 27.158 10.8257 30.3283 12.7677 32.5279C13.1257 32.9355 13.3047 32.8456 13.4929 32.555C13.6689 32.2792 13.9358 31.9286 15.083 31.3922C15.2619 31.3083 19.595 29.0369 20.0653 23.8648C20.5175 18.8604 17.2676 15.6959 16.1206 14.779Z" fill="#EFEFE5"/>
<path d="M41.897 13.5059V31.9021H37.9007V24.4706H30.2207V31.9021H26.1244V13.5059H30.2207V20.9375H37.9007V13.5059H41.897Z" fill="#EFEFE5"/>
<path d="M60.3733 13.5059V17.1437H58.4708H54.6354V31.8991H50.5239V17.1437H46.7916H44.889V13.5059H60.3733Z" fill="#EFEFE5"/>
<path fill-rule="evenodd" clip-rule="evenodd" d="M74.9259 31.9201L70.2287 25.5193L65.568 31.8931L61.0104 31.8991L67.9196 22.5077L61.3987 13.5059H65.9533L79.4622 31.9201H74.9259Z" fill="#EFEFE5"/>
<path d="M71.5066 17.6223L73.7612 20.7149L79.1017 13.502H74.5713L71.5066 17.6223Z" fill="#EFEFE5"/>
</g>
</g>
</svg>
