<svg width="160" height="41" viewBox="0 0 160 41" fill="none" xmlns="http://www.w3.org/2000/svg">
<path opacity="0.8" fill-rule="evenodd" clip-rule="evenodd" d="M1.11318 1.77592C5.06597 6.6218 9.40603 12.7097 10.108 13.6944C10.1455 13.7469 10.1725 13.7849 10.1887 13.8074C10.5629 14.3298 10.8718 14.7182 11.1064 15.0131C11.6272 15.6678 11.7818 15.8621 11.471 16.0406C11.2203 16.1845 10.9617 16.232 10.7037 16.232C10.4119 16.232 10.0831 16.09 9.84366 15.8606C9.67444 15.6985 8.51652 13.9998 6.93977 11.5287C5.73335 9.6378 4.72371 8.06925 4.69617 8.04299C4.63249 7.98225 4.63358 7.98431 6.81677 11.9299C8.18761 14.4076 9.12533 16.2384 9.12533 16.3556C9.12533 16.5938 9.06096 16.7191 8.76997 17.0469C8.28489 17.5936 8.06802 18.2078 7.91149 19.4789C7.73601 20.9038 7.24255 21.9104 5.87501 23.633C5.07451 24.6415 4.94353 24.8263 4.74153 25.2327C4.48712 25.7446 4.41715 26.0312 4.38879 26.6776C4.35883 27.361 4.4172 27.8024 4.62389 28.4557C4.80485 29.0277 4.99372 29.4055 5.47658 30.1609C5.89329 30.8127 6.13323 31.2972 6.13323 31.4867C6.13323 31.6376 6.16173 31.6377 6.80745 31.4905C8.35275 31.1379 9.60752 30.5181 10.3132 29.7584C10.75 29.2881 10.8525 29.0285 10.8558 28.3841C10.858 27.9626 10.8433 27.8745 10.7306 27.632C10.5469 27.2372 10.2127 26.9092 9.47598 26.4005C8.51066 25.7339 8.09837 25.1973 7.98448 24.4593C7.89107 23.8539 7.99945 23.4266 8.53346 22.2962C9.08618 21.126 9.22316 20.6273 9.31582 19.4477C9.37566 18.6857 9.45854 18.3852 9.6753 18.144C9.90137 17.8925 10.1049 17.8073 10.6643 17.73C11.5765 17.6042 12.1573 17.3658 12.6347 16.9215C13.0488 16.536 13.2221 16.1645 13.2487 15.6054L13.2689 15.1816L13.0375 14.909C12.1993 13.922 0.551897 1 0.500319 1C0.489301 1 0.765098 1.34919 1.11318 1.77592ZM6.60371 27.4508C6.79321 27.1117 6.69253 26.6761 6.37554 26.4631C6.07605 26.262 5.61081 26.3568 5.61081 26.6189C5.61081 26.6988 5.65459 26.757 5.75329 26.8084C5.91947 26.8948 5.93153 26.9919 5.80078 27.1904C5.66837 27.3915 5.67905 27.5682 5.83093 27.6882C6.07572 27.8819 6.42223 27.7754 6.60371 27.4508ZM12.3074 8.96574C11.9335 8.90716 11.9177 8.90028 12.0937 8.87297C12.4309 8.82058 13.2271 8.89197 13.7758 9.02376C15.0567 9.3313 16.2223 10.1192 17.4665 11.5184L17.797 11.8901L18.2699 11.8134C20.262 11.49 22.2885 11.747 23.9835 12.5379C24.4499 12.7555 25.1851 13.1886 25.2769 13.2999C25.306 13.3354 25.3599 13.5637 25.3962 13.8074C25.5222 14.6504 25.4592 15.2965 25.2038 15.7791C25.0651 16.0417 25.0573 16.125 25.1506 16.3497C25.2251 16.5291 25.433 16.6618 25.6389 16.6615C26.06 16.6609 26.5133 15.9732 26.7235 15.0162L26.8069 14.636L26.9722 14.8252C27.8788 15.8628 28.5911 17.2779 28.7134 18.2851L28.7452 18.5477L28.5929 18.309C28.3305 17.8983 28.0671 17.6185 27.7295 17.393C27.1212 16.9864 26.4779 16.848 24.7744 16.7573C23.2358 16.6755 22.3652 16.5427 21.5017 16.2583C20.0325 15.7745 19.2921 15.1302 17.5469 12.8176C16.7719 11.7904 16.2928 11.2221 15.8163 10.7644C14.7334 9.72452 13.6694 9.17914 12.3074 8.96574ZM25.6239 11.2592C25.6626 10.5709 25.7551 10.1169 25.9408 9.70227C26.0144 9.53816 26.0833 9.40383 26.0938 9.40383C26.1045 9.40383 26.0725 9.52497 26.0228 9.673C25.8878 10.0754 25.8655 10.6257 25.9586 11.266C26.0767 12.0785 26.1439 12.1957 26.994 13.0734C27.3927 13.485 27.8566 14.0042 28.0247 14.2271L28.3305 14.6324L28.0247 14.3427C27.6509 13.9885 26.7911 13.2977 26.6012 13.199C26.4738 13.1328 26.4548 13.1339 26.3763 13.2129C26.304 13.2856 26.2886 13.395 26.2786 13.9119C26.2629 14.7176 26.1543 15.2347 25.8919 15.7518C25.75 16.0315 25.7275 15.9718 25.8559 15.6561C25.9519 15.4204 25.9616 15.3168 25.9609 14.5369C25.9595 12.9698 25.7752 12.593 24.695 11.9477C24.4215 11.7842 23.9705 11.5484 23.6931 11.4237C23.4158 11.2989 23.1955 11.1903 23.2034 11.1822C23.234 11.1515 24.2875 11.462 24.7115 11.6267C25.3421 11.8718 25.4462 11.9036 25.5228 11.874C25.5741 11.8542 25.599 11.7031 25.6239 11.2592ZM11.9066 10.0561C11.805 11.266 12.2746 12.8844 13.0337 13.94C13.6221 14.7583 14.5343 15.3941 15.2077 15.4556C15.6487 15.4958 15.7812 15.3563 15.5817 15.0621C15.3047 14.6536 14.9641 14.0245 14.874 13.7552C14.818 13.5879 14.6963 13.0937 14.6036 12.657C14.2869 11.166 13.9757 10.5854 13.2568 10.1444C12.9948 9.98365 12.4353 9.77332 12.1109 9.71355L11.9381 9.68168L11.9066 10.0561ZM24.7032 21.7962C21.1557 20.3535 19.9063 19.1012 19.9063 16.9883C19.9063 16.6774 19.917 16.423 19.9298 16.423C19.9429 16.423 20.08 16.5256 20.2348 16.651C20.9541 17.2338 21.7597 17.4827 23.9898 17.8112C25.3019 18.0047 26.0404 18.1608 26.7217 18.3891C28.8868 19.1144 30.2265 20.5863 30.5459 22.5912C30.6387 23.1737 30.5843 24.2661 30.4338 24.8419C30.315 25.2967 29.9524 26.1163 29.8563 26.1478C29.8295 26.1565 29.8033 26.0533 29.7966 25.9129C29.7601 25.1601 29.3835 24.4272 28.751 23.8781C28.0318 23.2539 27.0655 22.757 24.7032 21.7962ZM22.0414 21.6375C22.0912 21.7873 22.1683 22.1283 22.2127 22.3955C22.4969 24.1036 21.6092 25.4836 19.8825 26.0184C19.6997 26.0749 18.9797 26.2173 18.2824 26.3345C16.871 26.5719 16.241 26.74 15.6082 27.048C15.1594 27.2664 14.616 27.5934 14.6483 27.6259C14.6587 27.6364 14.7611 27.6117 14.8759 27.571C15.674 27.288 16.5621 27.1414 17.9116 27.0705C18.4471 27.0425 19.0562 26.9977 19.2652 26.9711C20.4674 26.8182 21.3006 26.4493 21.9486 25.7831C22.3091 25.4124 22.5241 25.0671 22.6973 24.5802C22.8071 24.2712 22.8219 24.1565 22.8228 23.6093C22.8237 23.0516 22.8104 22.9496 22.6914 22.6065C22.5356 22.1569 22.3518 21.8194 22.1191 21.5555L21.9509 21.365L22.0414 21.6375ZM23.839 25.3127C23.3675 24.2892 23.2594 23.3012 23.5175 22.3797C23.5452 22.2812 23.5896 22.2005 23.6165 22.2005C23.6432 22.2005 23.7543 22.2614 23.8635 22.3355C24.0806 22.4832 24.5163 22.732 25.6768 23.3711C27.125 24.1686 27.9507 24.786 28.5122 25.4917C29.0039 26.1095 29.3082 26.8132 29.4545 27.6714C29.5376 28.1575 29.489 29.3272 29.3655 29.8166C28.9762 31.36 28.0712 32.5722 26.7805 33.2797C26.5915 33.3832 26.4217 33.4682 26.4032 33.4687C26.3849 33.4691 26.4538 33.2922 26.5563 33.0754C26.9905 32.1586 27.04 31.2668 26.7118 30.2743C26.5107 29.6666 26.1009 28.925 25.2734 27.6715C24.3114 26.2144 24.0755 25.8265 23.839 25.3127ZM14.9608 28.6695C13.4688 28.9143 11.8309 29.7117 10.5145 30.8345L10.1225 31.1688L10.467 31.2231C12.2644 31.5065 12.7484 31.7579 13.9951 33.0552C14.7126 33.8016 14.9549 33.9677 15.55 34.1212C16.4241 34.3465 17.2857 33.9324 17.5812 33.1448C17.7133 32.7929 17.6956 32.2102 17.5441 31.9176C17.1838 31.2208 16.134 30.9957 15.6263 31.506C15.2035 31.9311 15.3267 32.5715 15.8526 32.6816C15.973 32.707 15.9696 32.7016 15.8219 32.6342C15.5917 32.529 15.4918 32.3833 15.4905 32.1514C15.4876 31.6075 16.1036 31.3023 16.6768 31.5634C17.0964 31.7548 17.2631 32.0046 17.2631 32.4428C17.2631 33.1175 16.6946 33.6258 16.033 33.5428C15.6794 33.4982 15.2469 33.2698 15.015 33.0051C14.4315 32.3386 14.6588 31.2869 15.4735 30.8834C16.0937 30.5763 16.9182 30.652 17.5575 31.0748C18.292 31.5607 18.6044 32.0048 19.237 33.4623C19.4431 33.9369 19.7081 34.4711 19.826 34.6495C20.4253 35.5556 21.1434 36 22.0083 36C22.4853 36 22.8442 35.912 23.2957 35.6843C23.6311 35.515 24.1067 35.1934 24.0724 35.159C24.0627 35.1493 23.9235 35.193 23.7632 35.2561C22.8188 35.6281 21.8588 35.6026 21.3013 35.1903C20.9502 34.9309 20.667 34.4139 20.5214 33.7674C20.4962 33.6555 20.4131 33.1613 20.3367 32.6691C20.1428 31.4216 19.9567 30.8608 19.5227 30.2173C19.0786 29.5589 18.2249 29.0064 17.2705 28.7596C16.675 28.6057 15.6039 28.5638 14.9608 28.6695ZM12.8712 19.0243C13.0001 18.5436 13.4163 18.0852 13.8445 17.9523C14.1168 17.8679 14.6796 17.9218 14.9442 18.0577C15.4571 18.3211 15.8294 18.9209 15.7486 19.3539C15.65 19.8819 14.8023 20.3044 13.8272 20.3113C13.3291 20.3148 13.1452 20.2472 12.955 19.9907C12.8372 19.8318 12.7926 19.3175 12.8712 19.0243ZM14.8133 18.2459C15.069 18.4037 15.1348 18.6369 14.9845 18.8527C14.8809 19.0014 14.5602 19.1426 14.3259 19.1426C13.9738 19.1426 13.5897 18.8901 13.5897 18.6588C13.5897 18.1941 14.3262 17.9454 14.8133 18.2459ZM91.2489 19.5765C90.4534 16.9304 91.7653 14.7356 94.5646 14.0303C95.3674 13.8279 99.0026 13.9192 99.6253 14.1575C99.8541 14.2448 99.9537 14.5799 99.9558 15.2686C99.9573 15.811 100.016 16.4698 100.087 16.7325C100.194 17.1307 100.132 17.209 99.7114 17.2027C99.3312 17.1967 99.1015 16.974 98.7805 16.3001C98.268 15.2238 97.6474 14.8815 96.2013 14.8774C94.3551 14.8721 93.0042 16.1151 93.2241 17.617C93.3674 18.5944 94.3439 19.556 96.5352 20.878C98.6203 22.1356 99.8373 23.1698 100.322 24.0964C101.619 26.5735 100.511 29.2245 97.6227 30.5602C96.1398 31.2457 93.6545 31.3166 91.9072 30.7232L90.7883 30.3431V28.5552C90.7883 26.936 90.8269 26.7671 91.196 26.7671C91.5047 26.7671 91.6381 26.9711 91.7464 27.6104C92.016 29.1999 93.224 30.1649 94.9444 30.1649C96.6297 30.1649 97.8078 29.2441 98.2591 27.5744C98.4513 26.8632 98.4182 26.6009 98.0369 25.8163C97.58 24.8755 96.7932 24.2513 94.121 22.7097C92.6383 21.8542 91.5898 20.7104 91.2489 19.5765ZM38.8665 15.0866C38.5019 15.0866 38.3596 14.9675 38.3596 14.6619C38.3596 14.2573 38.5019 14.2371 41.359 14.2371C44.0109 14.2371 44.3503 14.2771 44.2895 14.5814C44.2514 14.7708 43.885 15.0335 43.4747 15.1654L42.7287 15.4052L42.665 20.8207C42.6223 24.4343 42.6823 26.5188 42.845 27.0855C43.3288 28.771 44.8046 29.7403 46.8869 29.7403C48.3365 29.7403 49.1832 29.4014 50.2471 28.3948C51.3914 27.3128 51.5739 26.2847 51.5703 20.9413C51.5668 15.6707 51.475 15.2357 50.343 15.1263C49.8279 15.0764 49.6553 14.9564 49.6553 14.6485C49.6553 14.2645 49.8253 14.2371 52.2128 14.2371C54.6282 14.2371 54.7703 14.2607 54.7703 14.6619C54.7703 14.9235 54.627 15.0879 54.3972 15.0898C53.4102 15.0985 53.3921 15.1924 53.2592 20.9718C53.1214 26.9736 52.9927 27.6842 51.7763 29.1544C51.4255 29.5786 50.589 30.1944 49.9174 30.5231C48.8231 31.0586 48.4749 31.1201 46.5649 31.1167C44.8043 31.113 44.2485 31.028 43.3681 30.6273C42.083 30.0422 41.2473 29.2851 40.6311 28.1474C40.201 27.3532 40.1643 26.9235 40.0647 21.5427C39.9506 15.3835 39.8954 15.0866 38.8665 15.0866ZM58.8096 15.0866C58.3224 15.0866 58.1803 14.9906 58.1803 14.6619C58.1803 14.2637 58.3164 14.2382 60.3647 14.2546L62.5493 14.272L63.5946 15.4757C64.169 16.1376 66.0423 18.2085 67.7568 20.0773C69.4714 21.9462 71.4399 24.1203 72.1311 24.9087C72.8224 25.6973 73.473 26.3423 73.577 26.3423C73.6839 26.3423 73.7371 24.115 73.699 21.2267L73.6318 16.1111L73.0337 15.5989C72.7049 15.317 72.2016 15.0866 71.915 15.0866C71.5337 15.0866 71.3941 14.9711 71.3941 14.6559C71.3941 14.2411 71.5029 14.2274 74.3244 14.2843C76.7236 14.3327 77.2549 14.3996 77.2549 14.6532C77.2549 14.8339 76.9582 15.0236 76.5425 15.1083C76.1508 15.1881 75.7191 15.364 75.5835 15.499C75.4084 15.6734 75.3192 17.9278 75.2759 23.2733L75.2147 30.802H74.5971C74.0653 30.802 73.4323 30.2036 70.0482 26.5015C67.886 24.1361 65.3621 21.3249 64.4397 20.2545C63.5171 19.1838 62.6904 18.2998 62.6026 18.2901C62.3552 18.2624 62.415 27.8273 62.668 28.7352C62.8653 29.4427 63.001 29.5645 63.8392 29.7881C64.5142 29.9679 64.7872 30.1504 64.7872 30.4214C64.7872 30.7693 64.5299 30.802 61.8034 30.802C59.0281 30.802 58.8197 30.7743 58.8197 30.4039C58.8197 30.1327 59.0205 29.9658 59.4494 29.8802C60.7508 29.6209 60.8372 29.2093 60.9102 22.9174C60.9511 19.3935 60.8911 16.9279 60.7514 16.4116C60.5062 15.5037 59.8949 15.0866 58.8096 15.0866ZM81.1571 15.0866C80.7005 15.0866 80.5584 14.9857 80.5584 14.6619C80.5584 14.256 80.7005 14.2371 83.7553 14.2371C86.8099 14.2371 86.9522 14.256 86.9522 14.6619C86.9522 14.9734 86.8099 15.0866 86.4193 15.0866C86.1264 15.0866 85.6908 15.2816 85.4517 15.5199C85.0295 15.9406 85.0186 16.1498 85.0788 22.6517C85.1373 28.9988 85.1624 29.3661 85.5542 29.6514C85.7818 29.8171 86.1893 29.9526 86.46 29.9526C86.8099 29.9526 86.9522 30.075 86.9522 30.3774C86.9522 30.7832 86.8099 30.802 83.7553 30.802C80.7732 30.802 80.5584 30.7753 80.5584 30.4046C80.5584 30.1055 80.7676 29.9735 81.4027 29.8723C82.6639 29.6714 82.7284 29.2599 82.6497 21.9182C82.5869 16.0387 82.5599 15.6721 82.1694 15.3877C81.9418 15.2221 81.4863 15.0866 81.1571 15.0866ZM103.457 15.0866C103.165 15.0866 102.944 14.925 102.875 14.6619C102.767 14.2512 102.868 14.2371 105.94 14.2371C108.975 14.2371 109.117 14.256 109.117 14.6619C109.117 14.9883 108.975 15.0866 108.504 15.0866C107.162 15.0866 107.192 15.3295 109.223 20.8835C110.256 23.7106 111.26 26.3962 111.453 26.8513L111.803 27.679L113.431 23.3472C115.347 18.2482 115.596 17.3053 115.271 16.3753C115.044 15.7271 114.162 15.0866 113.497 15.0866C113.309 15.0866 113.166 14.904 113.166 14.6619C113.166 14.2554 113.309 14.2371 116.47 14.2371C119.631 14.2371 119.773 14.2554 119.773 14.6619C119.773 14.9641 119.631 15.0866 119.281 15.0866C118.385 15.0866 117.99 15.5628 118.119 16.4879C118.251 17.4401 121.917 27.6748 122.071 27.5217C122.321 27.2726 126.38 16.2549 126.38 15.8254C126.38 15.3109 126.019 15.0866 125.191 15.0866C124.817 15.0866 124.675 14.9696 124.675 14.6619C124.675 14.2607 124.817 14.2371 127.233 14.2371C129.402 14.2371 129.79 14.2873 129.79 14.5667C129.79 14.7481 129.525 14.9887 129.2 15.1015C128.469 15.3553 128.286 15.6449 127.369 17.9914C126.967 19.0218 125.707 22.2467 124.57 25.1574C123.433 28.0685 122.454 30.5771 122.394 30.7323C122.334 30.8875 121.982 31.0145 121.61 31.0145H120.936L119.405 27.0325C118.563 24.8426 117.568 22.248 117.195 21.2669C116.554 19.5857 116.5 19.5127 116.259 19.9925C116.119 20.2729 115.107 22.8721 114.011 25.7686L112.019 31.0352L111.275 30.9718L110.532 30.9083L107.696 23.4919C106.111 19.3483 104.654 15.8571 104.394 15.581C104.137 15.309 103.716 15.0866 103.457 15.0866ZM146.072 15.1767C146.036 15.096 146.036 14.8061 146.036 14.8061C146.036 14.8061 146.028 14.7015 146.072 14.6457C146.116 14.5901 146.131 14.5886 146.288 14.5737L146.289 14.5736C146.865 14.5189 148.019 14.4268 148.983 14.3847C149.071 14.3809 149.169 14.3764 149.276 14.3716L149.278 14.3715L149.279 14.3714L149.28 14.3714C150.341 14.3233 152.238 14.2589 153.542 14.3241C156.044 14.4491 157.824 15.6587 158.431 17.6574C159.037 19.6561 158.716 21.5323 157.89 22.7265C157.063 23.9208 155.673 24.9491 153.362 24.8821C151.455 24.8269 150.944 24.4697 150.536 24.1844C150.45 24.124 150.369 24.0668 150.279 24.0166V26.5655C150.299 28.3039 150.314 29.1388 150.449 29.4478C150.63 29.8639 151.04 30.1202 151.839 30.3167C151.839 30.3167 152.2 30.4014 152.293 30.4918C152.387 30.5821 152.387 30.7827 152.387 30.7827C152.387 30.7827 152.406 30.9703 152.331 31.0659C152.256 31.1615 152.111 31.1424 152.111 31.1424L148.574 31.1139L146.441 31.1083C146.441 31.1083 146.217 31.1511 146.133 31.0611C146.049 30.9709 146.057 30.7832 146.057 30.7832C146.057 30.7832 146.076 30.5809 146.173 30.4904C146.271 30.3998 146.635 30.2986 146.635 30.2986C147.458 30.0676 147.815 29.8233 148.001 29.3631C148.151 28.9921 148.152 28.304 148.151 22.6891C148.149 17.3643 148.142 16.3711 148.019 16.0854C147.839 15.6625 147.386 15.5505 146.742 15.391L146.742 15.3909C146.614 15.3593 146.479 15.3258 146.337 15.2876C146.337 15.2876 146.107 15.2573 146.072 15.1767ZM156.372 19.5216C156.372 20.3947 156.356 21.7617 155.427 22.6356C154.497 23.5094 152.667 23.7485 151.425 23.5052C151.033 23.4286 150.809 23.3104 150.637 23.2192L150.619 23.2102L150.301 23.0427L150.283 19.9749C150.271 18.0527 150.292 16.8004 150.337 16.6213C150.378 15.6078 151.873 15.4817 152.604 15.5192C155.729 15.5192 156.281 18.1524 156.372 19.5216ZM136.258 14.3561C136.258 14.3561 136.105 14.4147 135.874 14.5024L135.04 14.9334L134.439 16.4336C134.108 17.2586 133.504 18.7732 133.095 19.7993C132.352 21.6683 131.86 22.8962 131.343 24.1778C131.191 24.5548 130.732 25.7027 130.323 26.7288C129.914 27.7548 129.505 28.7313 129.415 28.8988C129.4 28.9266 129.384 28.9566 129.367 28.9883C129.138 29.4182 128.741 30.1649 128.039 30.2778C128.039 30.2778 127.653 30.3157 127.51 30.4568C127.367 30.5981 127.381 30.7135 127.381 30.7135V30.8913C127.381 30.8913 127.394 30.9775 127.475 31.0204C127.556 31.0634 127.666 31.0659 127.666 31.0659L130.233 31.0367H132.885C132.885 31.0367 133.073 31.0586 133.145 30.9986C133.218 30.9386 133.238 30.8496 133.238 30.8496V30.6624C133.238 30.6624 133.201 30.4593 133.096 30.38C132.991 30.3009 132.597 30.2466 132.597 30.2466C131.535 30.107 131.352 29.3038 131.483 28.5814C131.548 28.2265 131.974 26.9138 132.455 25.5921L132.621 25.1353L135.401 25.1141C136.93 25.1024 138.25 25.1103 138.334 25.1317C138.455 25.1622 138.624 25.5052 139.12 26.727C139.871 28.5781 139.931 28.8036 139.765 29.15C139.755 29.1711 139.744 29.1943 139.732 29.2194C139.576 29.5543 139.273 30.2051 138.509 30.2714C138.509 30.2714 138.104 30.2854 138.003 30.4065C137.903 30.5279 137.924 30.6673 137.924 30.6673V30.8526C137.924 30.8526 137.951 30.9612 138.003 31.0042C138.055 31.0473 138.143 31.0364 138.143 31.0364L140.667 31.0183L144.213 31.0181C144.213 31.0181 144.353 31.0329 144.391 30.9795C144.428 30.9259 144.436 30.863 144.436 30.863V30.6169C144.436 30.6169 144.421 30.486 144.352 30.4138C144.284 30.3418 143.824 30.2656 143.824 30.2656C143.237 30.1708 142.944 29.6859 142.726 29.3247C142.671 29.2326 142.62 29.1485 142.571 29.0811C142.469 28.9434 142.109 28.1891 141.826 27.4637C141.544 26.7382 140.907 25.0994 140.41 23.8221C139.914 22.5447 139.221 20.7628 138.871 19.8625C138.52 18.962 137.855 17.2486 137.391 16.055C137.315 15.8591 137.247 15.6831 137.186 15.5256L137.186 15.5249C136.875 14.7233 136.75 14.3999 136.716 14.3561C136.604 14.2139 136.258 14.3561 136.258 14.3561ZM136.093 19.2338C135.981 18.9616 135.784 18.4734 135.655 18.1488C135.421 17.5589 135.332 17.423 135.26 17.5448C135.239 17.5805 135.091 17.9836 134.932 18.4409C133.904 21.4014 133.438 22.7345 133.344 22.9857C133.286 23.1436 133.238 23.3063 133.238 23.3473C133.238 23.3945 134.074 23.422 135.508 23.422C136.756 23.422 137.778 23.4065 137.778 23.3875C137.778 23.3686 137.667 23.0861 137.53 22.7593C137.394 22.4326 137.061 21.6172 136.79 20.9471C136.519 20.277 136.205 19.5061 136.093 19.2338Z" fill="#EFEFE5"/>
</svg>
