<svg width="111" height="20" viewBox="0 0 111 20" fill="none" xmlns="http://www.w3.org/2000/svg">
<g clip-path="url(#clip0_1739_4)">
<path d="M18.459 2.59633C18.5398 2.61216 18.5398 2.61216 18.6223 2.62831C18.8626 2.73746 18.962 2.88131 19.1124 3.08861C19.3853 3.93009 19.3978 4.80791 19.3881 5.68031C19.3877 5.7407 19.3874 5.80108 19.387 5.86329C19.3589 9.98519 17.7872 13.6991 14.7835 16.6793C14.6946 16.7695 14.6946 16.7695 14.6039 16.8615C13.5444 17.9058 12.2299 18.7062 10.914 19.4303C10.8548 19.4642 10.7956 19.498 10.7346 19.5329C10.3145 19.7577 9.95565 19.8626 9.47444 19.7681C9.17877 19.6563 8.91354 19.5101 8.64235 19.3531C8.56728 19.3109 8.49221 19.2688 8.41486 19.2254C4.94143 17.2497 2.07783 14.1562 1.0322 10.3939C0.848963 9.68877 0.702663 8.97763 0.571571 8.26236C0.560608 8.20411 0.549645 8.14587 0.538349 8.08586C0.288059 6.70168 0.320231 5.21458 0.474579 3.8222C0.48029 3.76876 0.486002 3.71531 0.491887 3.66024C0.536471 3.32769 0.632644 3.06609 0.816604 2.77973C1.07397 2.61752 1.16148 2.59879 1.45982 2.59151C1.52867 2.58842 1.59753 2.58534 1.66848 2.58216C1.96013 2.64208 2.10632 2.79761 2.2868 3.01139C2.43148 3.23616 2.55227 3.47014 2.67318 3.70698C2.72651 3.80892 2.72651 3.80892 2.78092 3.91292C2.89436 4.13007 3.00667 4.34773 3.11889 4.56545C3.26608 4.84894 3.41371 5.13222 3.56142 5.41547C3.59784 5.48548 3.63427 5.55549 3.67179 5.62761C4.01337 6.28179 4.3726 6.92663 4.73444 7.57093C4.90628 7.87825 5.07286 8.188 5.23741 8.49884C5.26879 8.55722 5.30016 8.61561 5.33249 8.67576C5.55391 9.09331 5.55391 9.09331 5.55391 9.26622C8.43795 9.26622 11.322 9.26622 14.2934 9.26622C14.3473 9.11332 14.4012 8.96043 14.4568 8.8029C14.518 8.67348 14.5819 8.54521 14.6485 8.41819C14.6865 8.34536 14.7244 8.27253 14.7636 8.1975C14.8046 8.11956 14.8456 8.04162 14.8878 7.96132C14.9308 7.87896 14.9737 7.7966 15.018 7.71174C15.1556 7.4479 15.2937 7.18426 15.4318 6.92066C15.6116 6.57754 15.791 6.23429 15.9701 5.89086C16.0143 5.80619 16.0586 5.72153 16.1041 5.6343C16.3274 5.20463 16.5444 4.77329 16.7515 4.33643C16.8116 4.20962 16.8116 4.20962 16.873 4.08024C16.9483 3.92043 17.0227 3.76027 17.0961 3.5997C17.4973 2.74562 17.4973 2.74562 17.974 2.55953C18.1491 2.54685 18.2878 2.55904 18.459 2.59633ZM2.20512 6.64074C2.18667 7.19219 2.23482 7.71011 2.33785 8.2527C2.35247 8.32984 2.36708 8.40697 2.38214 8.48644C2.98632 11.5282 4.6736 14.5698 7.35082 16.4477C7.40473 16.4222 7.45863 16.3967 7.51418 16.3705C6.53791 14.5041 6.53791 14.5041 5.52348 12.6561C5.19738 12.0764 4.88987 11.488 4.58071 10.9002C4.25206 10.2756 3.91675 9.65505 3.56992 9.03929C3.12584 8.24771 2.70778 7.44345 2.2868 6.64074C2.25985 6.64074 2.2329 6.64074 2.20512 6.64074ZM17.3972 6.79518C17.1764 7.22197 16.9557 7.64882 16.7351 8.07574C16.6604 8.22034 16.5856 8.36493 16.5108 8.5095C16.1391 9.22807 15.769 9.94702 15.4117 10.6722C15.1774 11.1467 14.9276 11.609 14.6559 12.0654C14.2015 12.8407 13.7689 13.6255 13.341 14.4139C12.9311 15.1683 12.9311 15.1683 12.7411 15.4972C12.7012 15.5663 12.7012 15.5663 12.6605 15.6368C12.5866 15.7644 12.5121 15.8918 12.4376 16.0192C12.321 16.2023 12.321 16.2023 12.3332 16.3705C12.6661 16.2424 12.9069 16.0204 13.1653 15.7913C13.2361 15.7286 13.2361 15.7286 13.3083 15.6647C15.6878 13.537 17.3542 10.3494 17.4868 7.22501C17.4859 7.17395 17.4849 7.12288 17.484 7.07027C17.4823 6.97949 17.4806 6.88871 17.4789 6.79518C17.4519 6.79518 17.4249 6.79518 17.3972 6.79518ZM6.53404 10.9651C6.6381 11.2602 6.72431 11.4982 6.87025 11.7669C6.90419 11.8298 6.93814 11.8926 6.97311 11.9574C7.00973 12.0244 7.04636 12.0914 7.08409 12.1605C7.12251 12.2314 7.16093 12.3023 7.20051 12.3754C7.32513 12.6053 7.45026 12.8349 7.57543 13.0645C7.66098 13.2219 7.74651 13.3792 7.83201 13.5366C8.00141 13.8483 8.17102 14.1598 8.3408 14.4713C8.51582 14.7925 8.69013 15.114 8.86378 15.4359C8.9938 15.6768 9.12441 15.9174 9.25493 16.1581C9.30076 16.2433 9.34658 16.3286 9.3938 16.4164C9.43526 16.4924 9.47671 16.5684 9.51943 16.6468C9.55452 16.7116 9.58961 16.7764 9.62577 16.8432C9.70855 17.0001 9.70855 17.0001 9.88283 17.0654C9.90739 17.0205 9.93195 16.9756 9.95725 16.9294C10.4526 16.0247 10.9551 15.1246 11.474 14.2317C11.8213 13.6324 12.1568 13.0277 12.4887 12.4206C12.7036 12.0281 12.9242 11.6403 13.1583 11.2576C13.2438 11.1223 13.2438 11.1223 13.2316 10.9651C11.0214 10.9651 8.81122 10.9651 6.53404 10.9651Z" fill="white"/>
<path d="M59.2163 4.78843C60.7375 4.78206 62.2587 4.77569 63.826 4.76913C64.3054 4.76632 64.7848 4.7635 65.2788 4.76061C65.8665 4.75921 65.8665 4.75921 66.1421 4.75895C66.3336 4.75848 66.5251 4.7574 66.7166 4.75582C67.0075 4.75355 67.2984 4.75325 67.5894 4.75337C67.674 4.75226 67.7585 4.75115 67.8457 4.75C68.4645 4.75332 68.9502 4.87799 69.4509 5.22943C69.9043 5.68363 70.1683 6.12127 70.1743 6.7543C70.1751 6.82186 70.1759 6.88941 70.1767 6.95901C70.1772 7.06772 70.1772 7.06772 70.1777 7.17864C70.1782 7.25386 70.1786 7.32909 70.1791 7.4066C70.1799 7.56575 70.1804 7.72491 70.1807 7.88406C70.1815 8.12624 70.1841 8.36836 70.1866 8.61053C70.1872 8.76547 70.1876 8.92041 70.1879 9.07535C70.1889 9.14721 70.1899 9.21906 70.191 9.29309C70.1884 10.0059 69.9691 10.6092 69.426 11.1205C68.8181 11.5576 68.2044 11.5519 67.4658 11.5066C67.9076 12.0234 68.3582 12.5316 68.8171 13.0349C69.1341 13.3834 69.443 13.7377 69.7489 14.095C69.9549 14.331 70.1699 14.5584 70.3886 14.7839C70.4878 14.9043 70.4878 14.9043 70.4878 15.0587C70.1407 15.078 69.7939 15.0919 69.4464 15.1011C69.3286 15.105 69.2108 15.1102 69.0931 15.117C68.119 15.1712 68.119 15.1712 67.7222 14.8976C67.5355 14.7024 67.3763 14.5045 67.2207 14.2865C67.1226 14.176 67.1226 14.176 67.0226 14.0633C66.9463 13.9731 66.9463 13.9731 66.8685 13.8811C66.5446 13.5026 66.2118 13.1325 65.8741 12.7651C65.8357 12.7232 65.7974 12.6812 65.7579 12.638C65.7164 12.5948 65.6749 12.5516 65.6321 12.507C65.5055 12.356 65.5055 12.356 65.3958 12.1537C65.2368 11.8945 65.1157 11.754 64.8521 11.5838C64.2449 11.4424 63.5928 11.4869 62.9735 11.4969C62.3805 11.5001 61.7875 11.5033 61.1766 11.5066C61.1766 12.7043 61.1766 13.9019 61.1766 15.1359C60.5297 15.1359 59.8828 15.1359 59.2163 15.1359C59.2163 11.7213 59.2163 8.30658 59.2163 4.78843ZM61.2583 6.64172C61.1265 6.89083 61.1667 7.16273 61.1686 7.43624C61.1687 7.49944 61.1688 7.56264 61.1689 7.62775C61.1694 7.82996 61.1704 8.03217 61.1715 8.23438C61.1719 8.37132 61.1723 8.50827 61.1726 8.64521C61.1735 8.98125 61.1749 9.31727 61.1766 9.6533C61.4334 9.7747 61.7067 9.73662 61.9883 9.7322C62.0552 9.73145 62.1222 9.73071 62.1911 9.72995C62.413 9.7274 62.6349 9.72428 62.8567 9.72117C63.0103 9.71929 63.1639 9.71745 63.3175 9.71564C63.7222 9.71079 64.1269 9.70545 64.5316 9.70002C64.9444 9.69457 65.3572 9.68956 65.77 9.68452C66.5803 9.67455 67.3906 9.66408 68.2009 9.6533C68.2049 9.24923 68.2079 8.84517 68.2098 8.44108C68.2107 8.30355 68.2118 8.16603 68.2132 8.02851C68.2152 7.83108 68.2161 7.63367 68.2168 7.43624C68.2177 7.37454 68.2185 7.31284 68.2194 7.24927C68.2194 7.09812 68.2109 6.94701 68.2009 6.79616C67.9947 6.60127 67.8681 6.62354 67.587 6.6225C67.4928 6.62333 67.4928 6.62333 67.3966 6.62418C67.3305 6.62416 67.2644 6.62414 67.1962 6.62411C66.977 6.62422 66.7578 6.62542 66.5386 6.62663C66.3868 6.62692 66.2351 6.62714 66.0833 6.6273C65.6834 6.62789 65.2836 6.6294 64.8837 6.63111C64.4758 6.63269 64.068 6.6334 63.6601 6.63417C62.8595 6.63583 62.0589 6.63847 61.2583 6.64172Z" fill="white"/>
<path d="M43.4526 4.78711C46.7679 4.78711 50.0832 4.78711 53.499 4.78711C53.499 5.39869 53.499 6.01028 53.499 6.64039C50.8306 6.64039 48.1622 6.64039 45.4129 6.64039C45.4129 7.43035 45.4129 8.22031 45.4129 9.03421C47.5692 9.03421 49.7255 9.03421 51.9471 9.03421C51.9471 9.6458 51.9471 10.2574 51.9471 10.8875C49.7908 10.8875 47.6345 10.8875 45.4129 10.8875C45.4129 11.6775 45.4129 12.4674 45.4129 13.2813C48.0813 13.2813 50.7497 13.2813 53.499 13.2813C53.499 13.8929 53.499 14.5045 53.499 15.1346C50.1837 15.1346 46.8684 15.1346 43.4526 15.1346C43.4526 11.7199 43.4526 8.30526 43.4526 4.78711Z" fill="white"/>
<path d="M29.5492 4.77963C29.6807 4.77961 29.6807 4.77961 29.8149 4.77959C30.104 4.77965 30.393 4.78025 30.682 4.78085C30.8827 4.781 31.0835 4.78111 31.2842 4.78118C31.8119 4.78148 32.3396 4.78224 32.8673 4.78309C33.4061 4.78388 33.9448 4.78423 34.4835 4.78462C35.5401 4.78545 36.5967 4.78681 37.6533 4.78839C37.6533 5.39998 37.6533 6.01156 37.6533 6.64167C33.2868 6.6799 33.2868 6.6799 28.8321 6.71889C28.8052 8.88492 28.7782 11.0509 28.7505 13.2826C31.7154 13.2826 34.6803 13.2826 37.735 13.2826C37.735 13.8942 37.735 14.5058 37.735 15.1359C36.5216 15.1429 35.3082 15.1486 34.0948 15.1519C33.5313 15.1535 32.9679 15.1556 32.4045 15.1592C31.8606 15.1626 31.3167 15.1644 30.7728 15.1652C30.5654 15.1658 30.358 15.1669 30.1507 15.1685C29.8599 15.1708 29.5692 15.1711 29.2785 15.1709C29.193 15.1721 29.1075 15.1732 29.0195 15.1743C28.3131 15.1706 27.7982 14.9806 27.2803 14.5181C26.8428 13.9864 26.7657 13.4641 26.7665 12.813C26.7659 12.7449 26.7654 12.6767 26.7648 12.6065C26.7633 12.3825 26.7629 12.1586 26.7627 11.9346C26.7622 11.7779 26.7617 11.6213 26.7611 11.4646C26.7601 11.1366 26.7598 10.8086 26.7599 10.4806C26.7599 10.0618 26.7577 9.64306 26.7549 9.22427C26.7531 8.90077 26.7527 8.57729 26.7528 8.25379C26.7526 8.09947 26.7519 7.94514 26.7507 7.79081C26.7374 6.01284 26.7374 6.01284 27.3926 5.33376C28.0397 4.77934 28.7194 4.77683 29.5492 4.77963Z" fill="white"/>
<path d="M99.7285 4.78727C100.375 4.78727 101.022 4.78727 101.689 4.78727C101.689 6.18882 101.689 7.59036 101.689 9.03438C102.103 9.03916 102.518 9.04393 102.945 9.04886C103.138 9.05441 103.138 9.05441 103.336 9.06007C103.986 9.05577 103.986 9.05577 104.557 8.77648C104.764 8.56225 104.943 8.34471 105.119 8.10774C105.239 7.96869 105.36 7.83023 105.482 7.69268C105.572 7.58756 105.572 7.58756 105.663 7.48032C105.87 7.23976 106.081 7.00252 106.293 6.76604C106.331 6.72444 106.368 6.68283 106.406 6.63997C106.483 6.5549 106.559 6.46984 106.636 6.3848C106.835 6.163 107.034 5.94087 107.233 5.71874C107.269 5.67864 107.305 5.63854 107.342 5.59722C107.52 5.39845 107.669 5.22049 107.803 4.99148C107.968 4.80394 108.061 4.78715 108.321 4.75087C108.653 4.74155 108.98 4.74685 109.31 4.75832C109.427 4.76064 109.543 4.76276 109.659 4.76465C109.943 4.76974 110.226 4.77773 110.51 4.78727C110.387 5.09662 110.256 5.28976 110.015 5.53052C109.685 5.86688 109.376 6.21344 109.071 6.56967C108.859 6.81462 108.644 7.05603 108.427 7.29693C108.091 7.67071 107.761 8.04826 107.434 8.42929C107.292 8.59166 107.149 8.75172 107.003 8.91071C106.942 8.97767 106.942 8.97767 106.88 9.04599C106.801 9.13253 106.721 9.21873 106.641 9.3045C106.428 9.53723 106.281 9.74491 106.181 10.0382C106.276 10.1419 106.276 10.1419 106.372 10.2476C106.806 10.7234 107.235 11.2012 107.647 11.6942C107.884 11.9733 108.13 12.2454 108.375 12.518C108.674 12.8504 108.967 13.1871 109.257 13.5258C109.399 13.6882 109.542 13.8482 109.688 14.0072C109.729 14.0519 109.769 14.0965 109.811 14.1425C109.89 14.2291 109.97 14.3153 110.05 14.401C110.265 14.6363 110.396 14.8449 110.51 15.1348C110.175 15.154 109.839 15.1679 109.503 15.1772C109.39 15.181 109.276 15.1863 109.162 15.193C108.221 15.2473 108.221 15.2473 107.829 14.9737C107.642 14.7784 107.481 14.58 107.325 14.3626C107.226 14.2521 107.226 14.2521 107.126 14.1393C107.05 14.0492 107.05 14.0492 106.972 13.9572C106.687 13.624 106.395 13.2971 106.099 12.9726C105.745 12.5838 105.397 12.1906 105.056 11.7908C104.966 11.6877 104.966 11.6877 104.874 11.5826C104.841 11.5301 104.807 11.4775 104.773 11.4233C104.554 11.1189 104.401 10.984 104.012 10.9082C103.661 10.8798 103.312 10.8834 102.96 10.8877C102.54 10.8877 102.121 10.8877 101.689 10.8877C101.689 12.2892 101.689 13.6907 101.689 15.1348C101.042 15.1348 100.395 15.1348 99.7285 15.1348C99.7285 11.7201 99.7285 8.30542 99.7285 4.78727Z" fill="white"/>
<path d="M75.3883 4.78711C78.9732 4.78711 82.558 4.78711 86.2515 4.78711C86.2515 5.39869 86.2515 6.01028 86.2515 6.64039C84.769 6.64039 83.2866 6.64039 81.7592 6.64039C81.7592 9.44348 81.7592 12.2466 81.7592 15.1346C81.1123 15.1346 80.4654 15.1346 79.7989 15.1346C79.7989 12.3315 79.7989 9.52842 79.7989 6.64039C78.3165 6.64039 76.834 6.64039 75.3066 6.64039C75.3336 6.02881 75.3605 5.41723 75.3883 4.78711Z" fill="white"/>
<path d="M10.7223 0.304994C10.7787 0.321067 10.8351 0.337141 10.8932 0.353702C11.0782 0.406628 11.2627 0.460636 11.4473 0.51471C11.5767 0.552108 11.7062 0.589456 11.8357 0.626755C12.1065 0.70496 12.3772 0.783686 12.6478 0.862803C12.993 0.963737 13.3387 1.06351 13.6844 1.16292C13.9518 1.23988 14.2189 1.31739 14.486 1.39507C14.6133 1.43203 14.7407 1.46885 14.8681 1.50551C16.5515 1.99093 16.5515 1.99093 16.7578 2.30911C16.8616 2.55639 16.8544 2.74752 16.8255 3.01109C16.5742 3.43877 16.5742 3.43877 16.3355 3.55163C15.6641 3.64198 15.0576 3.44391 14.4287 3.24659C14.249 3.19032 14.0689 3.13562 13.8885 3.08129C13.3764 2.92674 12.8652 2.76949 12.3543 2.61119C12.0404 2.51402 11.7259 2.41865 11.4109 2.3243C11.2919 2.28823 11.1731 2.25148 11.0546 2.214C10.3725 1.99837 9.84515 1.86185 9.14784 2.08445C9.06076 2.10841 8.97368 2.13238 8.88396 2.15706C8.63043 2.22721 8.37807 2.30018 8.126 2.37485C7.95883 2.42429 7.79148 2.47311 7.62406 2.52177C7.1487 2.65996 6.67355 2.79877 6.19889 2.93909C5.90698 3.02534 5.61473 3.1105 5.32224 3.19497C5.21155 3.22717 5.101 3.25977 4.99059 3.2928C4.83621 3.33894 4.68134 3.38358 4.52645 3.42817C4.43877 3.45394 4.35109 3.47971 4.26075 3.50626C3.84727 3.5788 3.53885 3.54422 3.19047 3.31997C2.99434 3.05025 2.97381 2.89581 2.96777 2.57703C3.05227 2.29084 3.18691 2.11126 3.4304 1.93001C3.81025 1.77109 4.20488 1.66445 4.60292 1.55507C4.71946 1.5218 4.83595 1.48839 4.95239 1.45484C5.25847 1.36708 5.56511 1.28123 5.87191 1.19577C6.18177 1.1091 6.49106 1.02064 6.8004 0.932331C7.3549 0.774303 7.90976 0.617494 8.46539 0.463084C8.63649 0.414716 8.80713 0.364861 8.977 0.312787C9.04689 0.291495 9.11677 0.270203 9.18878 0.248266C9.27594 0.220673 9.27594 0.220673 9.36485 0.192523C9.84744 0.0952471 10.2573 0.170617 10.7223 0.304994Z" fill="white"/>
<path d="M91.5605 4.78711C92.2074 4.78711 92.8543 4.78711 93.5208 4.78711C93.5208 8.20178 93.5208 11.6165 93.5208 15.1346C92.8739 15.1346 92.227 15.1346 91.5605 15.1346C91.5605 11.7199 91.5605 8.30526 91.5605 4.78711Z" fill="white"/>
</g>
<defs>
<clipPath id="clip0_1739_4">
<rect width="111" height="20" fill="white"/>
</clipPath>
</defs>
</svg>
