<svg width="16" height="16" viewBox="0 0 16 16" fill="none" xmlns="http://www.w3.org/2000/svg">
<path fill-rule="evenodd" clip-rule="evenodd" d="M11.0239 3.07088L11.0556 3.10263C11.3982 3.44516 11.3982 4.00051 11.0556 4.34304L2.67196 12.7267C2.66469 12.734 2.66469 12.7458 2.67196 12.753L3.2469 13.328C3.25417 13.3352 3.26596 13.3352 3.27323 13.328L11.6569 4.94431C11.9994 4.60178 12.5548 4.60178 12.8973 4.94431L12.9279 4.97491C13.2337 5.28067 13.2578 5.74225 13.05 6.08229C12.654 6.73034 12.4723 7.37266 12.4728 8.44369L12.5225 11.8811C12.5227 11.8912 12.5308 11.8993 12.5409 11.8995L13.3135 11.9107C13.324 11.9108 13.3326 11.9022 13.3324 11.8917L13.153 2.84792C13.1528 2.83791 13.1447 2.82985 13.1347 2.82967L4.10821 2.66675C4.09769 2.66656 4.0891 2.67512 4.08925 2.68564L4.10041 3.4571C4.10056 3.46721 4.10874 3.47535 4.11884 3.47545L7.67606 3.51111C8.66853 3.4957 9.28927 3.32584 9.92024 2.94589C10.2596 2.74151 10.719 2.76601 11.0239 3.07088Z" fill="#EFEFE5"/>
</svg>
