<svg width="370" height="70" viewBox="0 0 370 70" fill="none" xmlns="http://www.w3.org/2000/svg">
<g opacity="0.6">
<mask id="path-1-inside-1_9258_61639" fill="white">
<path d="M368 0C369.105 1.55933e-06 370 0.895431 370 2V57.2666C370 57.7999 369.787 58.311 369.408 58.6865L358.587 69.4199C358.212 69.7914 357.706 70 357.179 70H2C0.895432 70 0 69.1046 0 68V12.7334C0 12.2001 0.213185 11.689 0.591797 11.3135L11.4131 0.580078C11.7877 0.208585 12.2937 1.3499e-05 12.8213 0H368Z"/>
</mask>
<path d="M368 0V-1V0ZM370 2H371H370ZM369.408 58.6865L368.704 57.9765L369.408 58.6865ZM358.587 69.4199L359.291 70.1299L359.291 70.1299L358.587 69.4199ZM357.179 70V71H357.179L357.179 70ZM2 70L2 71H2V70ZM0.591797 11.3135L1.29601 12.0235L1.29601 12.0235L0.591797 11.3135ZM11.4131 0.580078L10.7089 -0.129943L10.7089 -0.129906L11.4131 0.580078ZM12.8213 0V-1H12.8213L12.8213 0ZM368 0V1C368.552 1 369 1.44772 369 2H370H371C371 0.343145 369.657 -0.999998 368 -1V0ZM370 2H369V57.2666H370H371V2H370ZM370 57.2666H369C369 57.5329 368.894 57.7885 368.704 57.9765L369.408 58.6865L370.112 59.3965C370.68 58.8334 371 58.0668 371 57.2666H370ZM369.408 58.6865L368.704 57.9765L357.883 68.7099L358.587 69.4199L359.291 70.1299L370.112 59.3965L369.408 58.6865ZM358.587 69.4199L357.883 68.7099C357.695 68.8958 357.442 69 357.179 69L357.179 70L357.179 71C357.97 71 358.729 70.687 359.291 70.1299L358.587 69.4199ZM357.179 70V69H2V70V71H357.179V70ZM2 70L2 69C1.44772 69 1 68.5523 1 68H0H-1C-1 69.6569 0.343148 71 2 71L2 70ZM0 68H1V12.7334H0H-1V68H0ZM0 12.7334H1C1 12.4671 1.10648 12.2115 1.29601 12.0235L0.591797 11.3135L-0.112415 10.6035C-0.680112 11.1666 -1 11.9332 -1 12.7334H0ZM0.591797 11.3135L1.29601 12.0235L12.1173 1.29006L11.4131 0.580078L10.7089 -0.129906L-0.112421 10.6035L0.591797 11.3135ZM11.4131 0.580078L12.1173 1.2901C12.3047 1.1042 12.5577 1.00001 12.8213 1L12.8213 0L12.8213 -1C12.0297 -0.99998 11.2706 -0.687033 10.7089 -0.129943L11.4131 0.580078ZM12.8213 0V1H368V0V-1H12.8213V0Z" fill="#EFEFE5" mask="url(#path-1-inside-1_9258_61639)"/>
</g>
</svg>
