<svg width="8" height="42" viewBox="0 0 8 42" fill="none" xmlns="http://www.w3.org/2000/svg">
<mask id="path-1-inside-1_501_4258" fill="white">
<path d="M5 0.5C6.38047 0.500282 7.5 1.61946 7.5 3V33.3711C7.49988 34.0344 7.23591 34.6708 6.7666 35.1396L0.898437 41.0004C0.70316 41.1955 0.386783 41.1954 0.191628 41.0002V41.0002C-0.00369963 40.8049 -0.00360016 40.4882 0.19185 40.293L6.05957 34.4326C6.34111 34.1514 6.49988 33.769 6.5 33.3711V3C6.5 2.17175 5.82819 1.50028 5 1.5H0.691406C0.415264 1.5 0.191406 1.27614 0.191406 1V1C0.191406 0.723858 0.415264 0.5 0.691406 0.5H5Z"/>
</mask>
<path d="M5 0.5L5.0002 -0.5H5V0.5ZM7.5 3L8.5 3L8.5 3L7.5 3ZM7.5 33.3711L8.5 33.3713V33.3711H7.5ZM6.7666 35.1396L7.47326 35.8472L7.47333 35.8471L6.7666 35.1396ZM6.05957 34.4326L6.76623 35.1402L6.7663 35.1401L6.05957 34.4326ZM6.5 33.3711L7.5 33.3714V33.3711H6.5ZM6.5 3L7.5 3L7.5 3L6.5 3ZM5 1.5L5.00034 0.5H5V1.5ZM0.19185 40.293L0.898513 41.0005L0.19185 40.293ZM0.898437 41.0004L1.6051 41.708L0.898437 41.0004ZM5 0.5L4.9998 1.5C5.82835 1.50017 6.5 2.17195 6.5 3L7.5 3L8.5 3C8.5 1.06697 6.9326 -0.499605 5.0002 -0.5L5 0.5ZM7.5 3H6.5V33.3711H7.5H8.5V3H7.5ZM7.5 33.3711L6.5 33.3709C6.49993 33.7688 6.34152 34.1508 6.05988 34.4322L6.7666 35.1396L7.47333 35.8471C8.1303 35.1909 8.49983 34.3001 8.5 33.3713L7.5 33.3711ZM6.7666 35.1396L6.05994 34.4321L0.191775 40.2929L0.898437 41.0004L1.6051 41.708L7.47326 35.8472L6.7666 35.1396ZM0.19185 40.293L0.898513 41.0005L6.76623 35.1402L6.05957 34.4326L5.35291 33.7251L-0.514812 39.5854L0.19185 40.293ZM6.05957 34.4326L6.7663 35.1401C7.23528 34.6716 7.49979 34.035 7.5 33.3714L6.5 33.3711L5.5 33.3708C5.49996 33.5031 5.44694 33.6311 5.35284 33.7251L6.05957 34.4326ZM6.5 33.3711H7.5V3H6.5H5.5V33.3711H6.5ZM6.5 3L7.5 3C7.5 1.61912 6.38021 0.50047 5.00034 0.5L5 1.5L4.99966 2.5C5.27617 2.50009 5.5 2.72437 5.5 3L6.5 3ZM5 1.5V0.5H0.691406V1.5V2.5H5V1.5ZM0.691406 0.5V1.5H5V0.5V-0.5H0.691406V0.5ZM0.191406 1H1.19141C1.19141 1.27614 0.967549 1.5 0.691406 1.5V0.5V-0.5C-0.137021 -0.5 -0.808594 0.171573 -0.808594 1H0.191406ZM0.691406 1.5V0.5C0.967549 0.5 1.19141 0.723858 1.19141 1H0.191406H-0.808594C-0.808594 1.82843 -0.137021 2.5 0.691406 2.5V1.5ZM0.191628 41.0002L0.898735 40.2931C1.0941 40.4885 1.09401 40.8053 0.898513 41.0005L0.19185 40.293L-0.514812 39.5854C-1.10121 40.1711 -1.1015 41.1213 -0.515478 41.7073L0.191628 41.0002ZM0.898437 41.0004L0.191775 40.2929C0.387094 40.0978 0.703539 40.0979 0.898735 40.2931L0.191628 41.0002L-0.515478 41.7073C0.0700266 42.2928 1.01923 42.2931 1.6051 41.708L0.898437 41.0004Z" fill="#EFEFE5" mask="url(#path-1-inside-1_501_4258)"/>
</svg>
