<svg width="12" height="42" viewBox="0 0 12 42" fill="none" xmlns="http://www.w3.org/2000/svg">
<mask id="path-1-inside-1_501_4254" fill="white">
<path d="M1.5 39C1.5 39.8284 2.17157 40.5 3 40.5H11.5C11.7761 40.5 12 40.7239 12 41V41C12 41.2761 11.7761 41.5 11.5 41.5H3C1.61929 41.5 0.5 40.3807 0.5 39V19.5C0.5 19.2239 0.723858 19 1 19V19C1.27614 19 1.5 19.2239 1.5 19.5V39ZM12 1C12 1.27614 11.7761 1.5 11.5 1.5H7.90234C7.4721 1.50006 7.06204 1.68523 6.77734 2.00781L1.875 7.56348C1.84217 7.60068 1.81145 7.63941 1.78284 7.67947C1.65444 7.85922 1.46349 8 1.24259 8V8C0.895879 8 0.637987 7.67315 0.801828 7.36759C0.890741 7.20177 0.998732 7.0455 1.125 6.90234L6.02832 1.3457C6.50283 0.808184 7.18533 0.500055 7.90234 0.5H11.5C11.7761 0.5 12 0.723858 12 1V1Z"/>
</mask>
<path d="M7.90234 1.5L7.90234 0.5L7.90221 0.5L7.90234 1.5ZM6.77734 2.00781L6.02758 1.3461L6.02753 1.34617L6.77734 2.00781ZM1.875 7.56348L1.12518 6.90183L1.12516 6.90185L1.875 7.56348ZM1.125 6.90234L0.375189 6.24069L0.375054 6.24084L1.125 6.90234ZM6.02832 1.3457L5.27864 0.683899L5.27851 0.684051L6.02832 1.3457ZM7.90234 0.5L7.90234 -0.5L7.90227 -0.5L7.90234 0.5ZM1.5 39H0.5C0.5 40.3807 1.61929 41.5 3 41.5V40.5V39.5C2.72386 39.5 2.5 39.2761 2.5 39H1.5ZM3 40.5V41.5H11.5V40.5V39.5H3V40.5ZM11.5 41.5V40.5H3V41.5V42.5H11.5V41.5ZM3 41.5V40.5C2.17157 40.5 1.5 39.8284 1.5 39H0.5H-0.5C-0.5 40.933 1.067 42.5 3 42.5V41.5ZM0.5 39H1.5V19.5H0.5H-0.5V39H0.5ZM1.5 19.5H0.5V39H1.5H2.5V19.5H1.5ZM11.5 1.5V0.5H7.90234V1.5V2.5H11.5V1.5ZM7.90234 1.5L7.90221 0.5C7.18494 0.500092 6.50194 0.808624 6.02758 1.3461L6.77734 2.00781L7.5271 2.66952C7.62214 2.56185 7.75926 2.50002 7.90247 2.5L7.90234 1.5ZM6.77734 2.00781L6.02753 1.34617L1.12518 6.90183L1.875 7.56348L2.62482 8.22512L7.52716 2.66946L6.77734 2.00781ZM1.875 7.56348L1.12516 6.90185C1.06929 6.96517 1.01729 7.03077 0.969117 7.09822L1.78284 7.67947L2.59657 8.26071C2.60562 8.24805 2.61506 8.23619 2.62484 8.2251L1.875 7.56348ZM0.801828 7.36759L1.68313 7.84015C1.73631 7.74096 1.80048 7.64827 1.87495 7.56384L1.125 6.90234L0.375054 6.24084C0.196984 6.44272 0.0451673 6.66259 -0.0794709 6.89503L0.801828 7.36759ZM1.125 6.90234L1.87481 7.564L6.77813 2.00736L6.02832 1.3457L5.27851 0.684051L0.375189 6.24069L1.125 6.90234ZM6.02832 1.3457L6.778 2.00751C7.06283 1.68485 7.47241 1.50003 7.90242 1.5L7.90234 0.5L7.90227 -0.5C6.89826 -0.499922 5.94284 -0.0684836 5.27864 0.683899L6.02832 1.3457ZM7.90234 0.5V1.5H11.5V0.5V-0.5H7.90234V0.5ZM1.78284 7.67947L0.969117 7.09822C0.969155 7.09816 0.969633 7.09749 0.970712 7.09623C0.971787 7.09497 0.973732 7.09279 0.97674 7.08986C0.982418 7.08431 0.99427 7.07373 1.01383 7.06139C1.05426 7.03588 1.13371 7 1.24259 7V8V9C1.90641 9 2.36316 8.58747 2.59657 8.26071L1.78284 7.67947ZM11.5 0.5V1.5C11.2239 1.5 11 1.27614 11 1H12H13C13 0.171573 12.3284 -0.5 11.5 -0.5V0.5ZM0.5 19.5H1.5C1.5 19.7761 1.27614 20 1 20V19V18C0.171574 18 -0.5 18.6716 -0.5 19.5H0.5ZM11.5 1.5V2.5C12.3284 2.5 13 1.82843 13 1H12H11C11 0.723858 11.2239 0.5 11.5 0.5V1.5ZM12 41H11C11 40.7239 11.2239 40.5 11.5 40.5V41.5V42.5C12.3284 42.5 13 41.8284 13 41H12ZM1 19V20C0.723858 20 0.5 19.7761 0.5 19.5H1.5H2.5C2.5 18.6716 1.82843 18 1 18V19ZM1.24259 8V7C1.38232 7 1.53435 7.06585 1.63908 7.20965C1.75884 7.37408 1.79744 7.62697 1.68313 7.84015L0.801828 7.36759L-0.0794709 6.89503C-0.357622 7.41377 -0.271999 7.98287 0.0224208 8.38711C0.301821 8.77073 0.756146 9 1.24259 9V8ZM11.5 40.5V41.5C11.2239 41.5 11 41.2761 11 41H12H13C13 40.1716 12.3284 39.5 11.5 39.5V40.5Z" fill="#EFEFE5" mask="url(#path-1-inside-1_501_4254)"/>
</svg>
