<svg width="16" height="17" viewBox="0 0 16 17" fill="none" xmlns="http://www.w3.org/2000/svg">
<path d="M8.99234 8.02228L8.99234 7.74767C8.99234 7.6261 8.90467 7.52341 8.78649 7.49488C8.32212 7.38277 7.95849 7.17376 7.51002 6.7246L6.16951 5.34472C6.07511 5.24755 6.07511 5.09292 6.16951 4.99575L6.47053 4.68588C6.56925 4.58427 6.73252 4.58471 6.83069 4.68685L10.3353 8.3333C10.4286 8.43035 10.4284 8.58378 10.335 8.68066L6.8307 12.3138C6.73247 12.4156 6.56945 12.4159 6.47086 12.3145L6.17026 12.005C6.07556 11.9075 6.07591 11.7523 6.17104 11.6553L7.56544 10.2326C7.98838 9.82214 8.33753 9.61781 8.78759 9.50606C8.90519 9.47686 8.99234 9.37441 8.99234 9.25323L8.99234 8.97772L8.99234 8.02228Z" fill="white"/>
</svg>
