<svg width="119" height="40" viewBox="0 0 119 40" fill="none" xmlns="http://www.w3.org/2000/svg">
<path d="M24 1.19255V6.45367e-06L95 0V1.19255L24 1.19255Z" fill="#EFEFE5" fill-opacity="0.6"/>
<path d="M24 40.0011V38.8086L95 38.8086V40.0011L24 40.0011Z" fill="#EFEFE5" fill-opacity="0.6"/>
<path d="M2.59177 40C1.16037 40 0 38.8432 0 37.4161V21H1.1962V37.4161C1.1962 38.1845 1.82102 38.8074 2.59177 38.8074H24V40H2.59177Z" fill="#EFEFE5" fill-opacity="0.6"/>
<path d="M8.21014 1.19255C7.84031 1.19255 7.48561 1.33889 7.22394 1.59943L1.60557 7.19363C1.34347 7.4546 1.1962 7.80875 1.1962 8.17805V10.6335H0V8.17805C0 7.49221 0.273506 6.8345 0.760259 6.34985L6.37863 0.75565C6.86459 0.271783 7.52332 0 8.21014 0H24V1.19255L8.21014 1.19255Z" fill="#EFEFE5" fill-opacity="0.6"/>
<path d="M116.408 0C117.84 0 119 1.15683 119 2.58385V31.822C119 32.5078 118.726 33.1655 118.24 33.6502L112.621 39.2444C112.135 39.7282 111.477 40 110.79 40H95V38.8075H110.79C111.16 38.8075 111.514 38.6611 111.776 38.4006L117.394 32.8064C117.657 32.5454 117.804 32.1913 117.804 31.822V2.58385C117.804 1.81545 117.179 1.19255 116.408 1.19255L95 1.19255V0H116.408Z" fill="#EFEFE5" fill-opacity="0.6"/>
</svg>
