<svg width="156" height="40" viewBox="0 0 156 40" fill="none" xmlns="http://www.w3.org/2000/svg">
<mask id="path-1-inside-1_521_4797" fill="white">
<path d="M154.204 0.0107422C155.213 0.113007 156 0.964351 156 2V32.3711L155.99 32.5684C155.945 33.0267 155.742 33.4578 155.413 33.7861L149.777 39.415L149.631 39.5479C149.326 39.7975 148.954 39.9513 148.562 39.9902L148.364 40H2C0.895433 40 0 39.1046 0 38V18.5C0 18.2239 0.223858 18 0.5 18V18C0.776142 18 1 18.2239 1 18.5V38C1 38.5523 1.44771 39 2 39H148.364C148.629 38.9999 148.883 38.895 149.07 38.708L154.707 33.0781C154.895 32.8906 155 32.6363 155 32.3711V2C155 1.44772 154.552 1 154 1H7.63574C7.37105 1.00012 7.11705 1.10503 6.92969 1.29199L1.29297 6.92188C1.10542 7.10936 1.00007 7.36371 1 7.62891V7.37625C1 7.16845 0.831548 7 0.623752 7V7C0.367172 7 0.187752 6.74651 0.328235 6.5318C0.366953 6.47263 0.408933 6.41538 0.454102 6.36035L0.586914 6.21387L6.22266 0.584961C6.59755 0.210538 7.10591 0.000122278 7.63574 0H154L154.204 0.0107422Z"/>
</mask>
<path d="M154.204 0.0107422L154.305 -0.984158L154.281 -0.986602L154.257 -0.987876L154.204 0.0107422ZM156 2L157 2V2L156 2ZM156 32.3711L156.999 32.4205L157 32.3958V32.3711H156ZM155.99 32.5684L156.985 32.6671L156.988 32.6425L156.989 32.6178L155.99 32.5684ZM155.413 33.7861L154.706 33.0786L154.706 33.0786L155.413 33.7861ZM149.777 39.415L150.449 40.1559L150.467 40.1396L150.484 40.1226L149.777 39.415ZM149.631 39.5479L150.264 40.3216L150.284 40.3056L150.303 40.2887L149.631 39.5479ZM148.562 39.9902L148.611 40.989L148.636 40.9878L148.66 40.9853L148.562 39.9902ZM148.364 40V41H148.389L148.414 40.9988L148.364 40ZM2 40L2 41H2V40ZM2 39L2 40H2V39ZM148.364 39L148.364 40L148.365 40L148.364 39ZM149.07 38.708L149.777 39.4159L149.777 39.4155L149.07 38.708ZM154.707 33.0781L155.414 33.7857L155.414 33.7854L154.707 33.0781ZM155 32.3711L156 32.3713V32.3711H155ZM155 2L156 2L156 2L155 2ZM154 1L154 0H154V1ZM7.63574 1L7.63574 -1.06524e-07L7.63528 1.06524e-07L7.63574 1ZM6.92969 1.29199L6.22333 0.584138L6.22301 0.584457L6.92969 1.29199ZM1.29297 6.92188L0.586291 6.21434L0.585993 6.21464L1.29297 6.92188ZM1 7.62891H0L2 7.62917L1 7.62891ZM0.454102 6.36035L-0.286732 5.68866L-0.303252 5.70688L-0.318856 5.72589L0.454102 6.36035ZM0.586914 6.21387L-0.119763 5.50633L-0.137285 5.52383L-0.153919 5.54218L0.586914 6.21387ZM6.22266 0.584961L5.51599 -0.122588L5.51598 -0.122575L6.22266 0.584961ZM7.63574 0L7.63574 -1L7.63551 -1L7.63574 0ZM154 0L154.053 -0.998618L154.026 -1H154V0ZM0.328235 6.5318L-0.508558 5.98428L0.328235 6.5318ZM154.204 0.0107422L154.103 1.00564C154.607 1.0567 155 1.48311 155 2L156 2L157 2C157 0.445594 155.819 -0.830685 154.305 -0.984158L154.204 0.0107422ZM156 2H155V32.3711H156H157V2H156ZM156 32.3711L155.001 32.3216L154.991 32.5189L155.99 32.5684L156.989 32.6178L156.999 32.4205L156 32.3711ZM155.99 32.5684L154.995 32.4696C154.972 32.6986 154.871 32.9143 154.706 33.0786L155.413 33.7861L156.12 34.4937C156.613 34.0013 156.917 33.3548 156.985 32.6671L155.99 32.5684ZM155.413 33.7861L154.706 33.0786L149.071 38.7075L149.777 39.415L150.484 40.1226L156.12 34.4937L155.413 33.7861ZM149.777 39.415L149.106 38.6742L148.959 38.807L149.631 39.5479L150.303 40.2887L150.449 40.1559L149.777 39.415ZM149.631 39.5479L148.997 38.7741C148.845 38.8985 148.659 38.9756 148.463 38.9951L148.562 39.9902L148.66 40.9853C149.248 40.927 149.807 40.6964 150.264 40.3216L149.631 39.5479ZM148.562 39.9902L148.512 38.9915L148.315 39.0012L148.364 40L148.414 40.9988L148.611 40.989L148.562 39.9902ZM148.364 40V39H2V40V41H148.364V40ZM2 40L2 39C1.44772 39 1 38.5523 1 38H0H-1C-1 39.6569 0.34315 41 2 41L2 40ZM0 38H1V18.5H0H-1V38H0ZM1 18.5H0V38H1H2V18.5H1ZM1 38H0C0 39.1046 0.895429 40 2 40L2 39L2 38L2 38H1ZM2 39V40H148.364V39V38H2V39ZM148.364 39L148.365 40C148.894 39.9998 149.402 39.7902 149.777 39.4159L149.07 38.708L148.364 38.0002L148.364 38L148.364 39ZM149.07 38.708L149.777 39.4155L155.414 33.7857L154.707 33.0781L154 32.3706L148.364 38.0005L149.07 38.708ZM154.707 33.0781L155.414 33.7854C155.789 33.4103 156 32.9016 156 32.3713L155 32.3711L154 32.3709L154 32.3709L154.707 33.0781ZM155 32.3711H156V2H155H154V32.3711H155ZM155 2L156 2C156 0.895434 155.105 4.84018e-06 154 0L154 1L154 2L154 2L155 2ZM154 1V0H7.63574V1V2H154V1ZM7.63574 1L7.63528 1.06524e-07C7.10646 0.000244193 6.59845 0.20981 6.22333 0.584138L6.92969 1.29199L7.63605 1.99985L7.6362 2L7.63574 1ZM6.92969 1.29199L6.22301 0.584457L0.586291 6.21434L1.29297 6.92188L1.99965 7.62941L7.63637 1.99953L6.92969 1.29199ZM1.29297 6.92188L0.585993 6.21464C0.210751 6.58974 0.000138788 7.09846 3.42455e-08 7.62864L1 7.62891L2 7.62917L1.99994 7.62911L1.29297 6.92188ZM1 7.62891H2V7.37625H1H0V7.62891H1ZM0.328235 6.5318L1.16503 7.07932C1.18421 7.05001 1.2049 7.02181 1.22706 6.99481L0.454102 6.36035L-0.318856 5.72589C-0.387035 5.80896 -0.4503 5.89524 -0.508558 5.98428L0.328235 6.5318ZM0.454102 6.36035L1.19493 7.03204L1.32775 6.88556L0.586914 6.21387L-0.153919 5.54218L-0.286732 5.68866L0.454102 6.36035ZM0.586914 6.21387L1.29359 6.9214L6.92933 1.2925L6.22266 0.584961L5.51598 -0.122575L-0.119763 5.50633L0.586914 6.21387ZM6.22266 0.584961L6.92932 1.29251C7.11674 1.10533 7.37102 1.00006 7.63597 1L7.63574 0L7.63551 -1C6.8408 -0.999817 6.07836 -0.684252 5.51599 -0.122588L6.22266 0.584961ZM7.63574 0V1H154V0V-1H7.63574V0ZM154 0L153.947 0.998618L154.152 1.00936L154.204 0.0107422L154.257 -0.987876L154.053 -0.998618L154 0ZM1 7.37625H2C2 6.61617 1.38383 6 0.623752 6V7V8C0.279263 8 0 7.72074 0 7.37625H1ZM0.5 18V19C0.223858 19 0 18.7761 0 18.5H1H2C2 17.6716 1.32843 17 0.5 17V18ZM0.623752 7V6C0.826985 6 1.03414 6.10173 1.16244 6.29669C1.30556 6.51417 1.32892 6.82884 1.16503 7.07932L0.328235 6.5318L-0.508558 5.98428C-0.812933 6.44947 -0.770105 6.99824 -0.508248 7.39614C-0.261214 7.77153 0.163939 8 0.623752 8V7ZM0 18.5H1C1 18.7761 0.776141 19 0.5 19V18V17C-0.328426 17 -1 17.6716 -1 18.5H0Z" fill="#EFEFE5" mask="url(#path-1-inside-1_521_4797)"/>
</svg>
