<svg width="14" height="14" viewBox="0 0 14 14" fill="none" xmlns="http://www.w3.org/2000/svg">
<path d="M0.592549 1.61432C0.334384 1.35616 0.341858 0.930115 0.609244 0.662728L0.653286 0.618687C0.920671 0.351302 1.34671 0.343827 1.60488 0.601992L6.05652 5.05363C6.18038 5.17749 6.32761 5.27589 6.49005 5.3431C6.6525 5.41031 6.8273 5.44512 7.00464 5.44502C7.18203 5.44492 7.35852 5.40987 7.52389 5.34129C7.68928 5.2727 7.83998 5.17204 7.96709 5.04493L12.3858 0.626245C12.6532 0.358858 13.0792 0.351385 13.3374 0.60955L13.4061 0.678255C13.6642 0.93642 13.6568 1.36246 13.3894 1.62985L8.97069 6.04853C8.71364 6.30558 8.57081 6.65254 8.5706 7.01097C8.57039 7.36891 8.71214 7.70926 8.96199 7.95911L13.3979 12.395C13.6561 12.6532 13.6486 13.0792 13.3812 13.3466L13.3372 13.3907C13.0698 13.658 12.6437 13.6655 12.3856 13.4073L7.94966 8.97143C7.69982 8.72159 7.35947 8.57983 7.00153 8.58004C6.64309 8.58025 6.29614 8.72309 6.03909 8.98013L1.62974 13.3895C1.36236 13.6569 0.936314 13.6643 0.678149 13.4062L0.609628 13.3377C0.351463 13.0795 0.358937 12.6534 0.626322 12.3861L5.03567 7.97671C5.29272 7.71967 5.43555 7.37271 5.43576 7.01427C5.43597 6.65634 5.29422 6.31599 5.04437 6.06614L0.592549 1.61432Z" fill="#EFEFE5" fill-opacity="0.6"/>
</svg>
