<svg width="400" height="151" viewBox="0 0 400 151" fill="none" xmlns="http://www.w3.org/2000/svg">
<path d="M231.345 83.5071L212.254 50.4999H223.932L231.765 64.3461L236.38 73.1574L240.995 64.3461L248.758 50.4999H260.296L241.345 83.5771V100.5H231.345V83.5071Z" fill="white"/>
<path d="M190.118 50.4999H200.888L220.748 100.5H209.909L205.993 90.4303H184.874L180.957 100.5H170.118L190.118 50.4999ZM202.986 81.1994L195.503 61.6188L188.02 81.1994H202.986Z" fill="white"/>
<path d="M135.951 50.4999H145.951V90.71H170.217V100.5H135.951V50.4999Z" fill="white"/>
<path d="M117.812 50.4998C120.609 50.4998 123.15 51.1524 125.435 52.4578C127.766 53.7632 129.607 55.5581 130.959 57.8425C132.311 60.0802 132.987 62.5744 132.987 65.325V70.7796C132.987 73.5769 132.311 76.1643 130.959 78.5419C129.607 80.8729 127.766 82.7378 125.435 84.1364C123.15 85.4884 120.633 86.1644 117.882 86.1644L103.337 86.2343V100.5H93.3364V50.4998H117.812ZM103.337 76.6538L116.623 76.5839C120.819 76.5839 122.917 74.3927 122.917 70.0104V66.6537C122.917 62.2248 120.819 60.0103 116.623 60.0103H103.337V76.6538Z" fill="white"/>
<path d="M302.398 100.5V51.1992H306.664V100.5H302.398Z" fill="white"/>
<path d="M253.055 100.5L273.265 51.1992H277.95L298.09 100.5H293.405L287.811 86.654H263.335L257.741 100.5H253.055ZM264.943 82.4582H286.272L275.643 56.1643L264.943 82.4582Z" fill="white"/>
</svg>
