<svg width="79" height="26" viewBox="0 0 79 26" fill="none" xmlns="http://www.w3.org/2000/svg">
<mask id="mask0_886_3294" style="mask-type:luminance" maskUnits="userSpaceOnUse" x="0" y="0" width="79" height="26">
<path d="M78.25 0H0.25V26H78.25V0Z" fill="white"/>
</mask>
<g mask="url(#mask0_886_3294)">
<path d="M24.0663 12.6304V14.0957C24.0663 14.7702 24.0095 15.4317 23.9009 16.0752C22.9551 21.701 18.0502 26.0013 12.1581 26.0013C5.59162 26.0013 0.25 20.6596 0.25 14.0957V9.91434H0.252584V3.92409C0.252584 3.49252 0.601456 3.14107 1.03561 3.14107H2.28897C2.72053 3.14107 3.07199 2.78961 3.07199 2.35805V0.784241C3.07199 0.352677 3.42086 0.0012207 3.85501 0.0012207H20.4587C20.8903 0.0012207 21.2417 0.352677 21.2417 0.784241V2.35805C21.2417 2.78961 21.5906 3.14107 22.0248 3.14107H23.2781C23.7097 3.14107 24.0611 3.49252 24.0611 3.92409V7.772C24.0611 7.9891 23.8854 8.1648 23.6683 8.1648H21.3193C21.1022 8.1648 20.9265 7.9891 20.9265 7.772V4.70711C20.9265 3.84139 20.2261 3.14107 19.3605 3.14107H4.95073C4.08501 3.14107 3.38468 3.84139 3.38468 4.70711V9.91434H3.38984V14.0957C3.38984 18.9281 7.32304 22.8614 12.1581 22.8614C16.9933 22.8614 20.9265 18.9281 20.9265 14.0957V12.6304C20.9265 12.4107 21.1022 12.2376 21.3193 12.2376H23.6735C23.8906 12.2376 24.0663 12.4107 24.0663 12.6304Z" fill="#CBEA4B"/>
<path d="M11.026 13.9684H10.2326C10.2326 13.1208 9.54261 12.4308 8.69501 12.4308C7.84735 12.4308 7.15737 13.1208 7.15737 13.9684H6.36401C6.36401 12.6841 7.40808 11.6375 8.69501 11.6375C9.98195 11.6375 11.026 12.6815 11.026 13.9684Z" fill="white"/>
<path d="M17.9552 13.9684H17.1618C17.1618 13.1208 16.4718 12.4308 15.6242 12.4308C14.7766 12.4308 14.0866 13.1208 14.0866 13.9684H13.2932C13.2932 12.6841 14.3372 11.6375 15.6242 11.6375C16.9112 11.6375 17.9552 12.6815 17.9552 13.9684Z" fill="white"/>
<path fill-rule="evenodd" clip-rule="evenodd" d="M33.2002 8.20958C31.7515 8.20899 31.2944 7.29958 31.2944 6.25073V5.85276C31.2944 4.80356 31.7518 3.87065 33.2015 3.87065C34.0853 3.87065 34.6435 4.33064 34.827 4.97153H35.5584C35.3206 3.83189 34.4368 3.21167 33.5142 3.21167H32.8888C31.5916 3.21167 30.6069 4.10064 30.6069 5.79073V6.31017C30.6069 8.00028 31.5916 8.88922 32.8888 8.88922H33.5142C34.4911 8.88922 35.3981 8.23798 35.5816 6.98465H34.8709C34.7185 7.68724 34.1607 8.20912 33.2002 8.20958ZM30.7237 13.0759H34.6906C37.1895 13.0759 38.4842 14.3861 38.4842 17.0686V18.7354C38.4842 21.3532 37.1895 22.6608 34.6906 22.6608H30.7237V13.0759ZM34.675 21.4049C36.223 21.4049 37.1481 20.4668 37.1481 18.7354V17.0686C37.1481 15.2699 36.2876 14.3448 34.675 14.3319L32.0572 14.3189V21.4049H34.675ZM42.7939 15.9184H43.2177C45.4789 15.9184 46.5229 17.0426 46.5229 19.0376V19.725C46.5229 21.6683 45.4789 22.7925 43.2177 22.7925H42.7939C40.5326 22.7925 39.4886 21.6683 39.4886 19.725V19.0376C39.4886 17.0426 40.5326 15.9184 42.7939 15.9184ZM43.2202 21.5753C44.5537 21.5753 45.2152 20.9008 45.2152 19.712V19.0505C45.2152 17.8075 44.5563 17.133 43.2202 17.133H42.7964C41.463 17.133 40.8014 17.8075 40.8014 19.0505V19.712C40.8014 20.9008 41.4604 21.5753 42.7964 21.5753H43.2202ZM50.3652 13.5926H49.0576V16.0502H47.2074V17.2674H49.0706V20.2935C49.0706 21.9061 49.9027 22.7925 51.6755 22.7925H51.7556C53.5129 22.7925 54.3605 21.9061 54.3605 20.2935V19.2237H53.0529V20.2935C53.0529 21.1541 52.642 21.5753 51.7582 21.5753H51.678C50.7916 21.5753 50.3834 21.1515 50.3834 20.2935V17.2674H54.3631V16.0502H50.3834L50.3704 13.5926H50.3652ZM57.3793 22.6608H56.0433V13.0759H62.2429V14.3319H57.3793V17.1074H61.4495V18.3633H57.3793V22.6608ZM68.5363 19.5004L66.962 20.7563C66.3419 21.2577 65.9571 21.5368 65.417 21.5368C64.8225 21.5368 64.453 21.1672 64.453 20.5056V16.0505H63.1298V20.7563C63.1298 22.051 63.8715 22.7798 64.993 22.7798C65.7992 22.7798 66.4609 22.3973 67.3728 21.6815L68.5363 20.7511V22.6609H69.8435V16.0505H68.5363V19.5004ZM73.7682 17.0294C74.6808 16.3136 75.3425 15.9311 76.1485 15.9311C77.273 15.9311 78.012 16.6598 78.012 17.9546V22.6604H76.6886V18.2052C76.6886 17.5436 76.3194 17.1741 75.7247 17.1741C75.1845 17.1741 74.7997 17.4532 74.1796 17.9546L72.6053 19.2105V22.6604H71.2982V16.0499H72.6053V17.9597L73.7682 17.0294ZM39.0525 6.64093V5.98197L39.055 5.97938H41.5643C41.7064 6.8813 41.3601 7.74697 40.9621 8.19924C40.5642 8.65151 39.9853 8.88922 39.3212 8.88922H38.6958C37.3985 8.88922 36.4139 8.00028 36.4139 6.31017V5.79073C36.4139 4.10064 37.3985 3.21167 38.6958 3.21167H39.3212C40.3962 3.21167 41.2129 3.84739 41.479 5.00254H40.7554C40.5332 4.34615 40.0447 3.87065 39.0085 3.87065C37.5588 3.87065 37.1013 4.80356 37.1013 5.85276V6.25073C37.1013 7.2999 37.5588 8.20958 39.0085 8.20958C40.267 8.20958 40.7477 7.5222 40.8536 6.65647V6.64093H39.0525ZM45.1459 3.33354H42.6599V8.76819H43.3473V6.77061H45.1485C46.0116 6.77061 46.8722 6.39586 46.8722 5.05723C46.8722 3.78578 46.0091 3.33613 45.1485 3.33613L45.1459 3.33354ZM45.0012 6.11159H43.3447V4.00028H45.0012C45.8721 4.00028 46.146 4.44477 46.146 5.05723C46.146 5.66969 45.8721 6.11418 45.0012 6.11418V6.11159ZM47.1743 3.99252V3.33354H51.3685V3.99252H49.6138V8.76819H48.929V3.99252H47.1743Z" fill="white"/>
</g>
</svg>
