<svg width="176" height="33" viewBox="0 0 176 33" fill="none" xmlns="http://www.w3.org/2000/svg">
<g clip-path="url(#clip0_2848_105)">
<path d="M27.9873 2.36047H4.23822C2.74869 2.36047 1.54102 3.56814 1.54102 5.05768V18.4433C1.54102 19.9329 2.74869 21.1405 4.23822 21.1405H10.7325L13.4452 29.3284C14.2693 31.8149 17.7964 31.786 18.5795 29.2865L21.1312 21.1405H27.987C29.4768 21.1405 30.6842 19.9329 30.6842 18.4433V5.05768C30.6842 3.56814 29.4768 2.36047 27.9873 2.36047Z" stroke="#41B6A6" stroke-width="3.08252" stroke-linejoin="round"/>
<path d="M41.474 3.27428L43.8812 2.89795L46.2885 3.26135V7.34902H52.0642V11.2423H46.2817V17.0045C46.2788 17.4406 46.3239 17.8757 46.4162 18.302C46.4919 18.6597 46.6258 19.0034 46.813 19.3207C47.002 19.6183 47.2828 19.846 47.613 19.9695C48.043 20.1283 48.4996 20.2032 48.9578 20.1902C49.4942 20.1909 50.0296 20.1453 50.5581 20.0539C50.8224 20.0083 51.0849 19.952 51.3447 19.8851C51.5857 19.8234 51.8236 19.7498 52.0574 19.6646L54.189 20.9622L52.7367 23.2464C52.4452 23.3589 52.1381 23.4647 51.8155 23.5642C51.4803 23.6671 51.1416 23.7581 50.8 23.8369C50.4102 23.9258 50.0149 23.9886 49.6167 24.025C49.1429 24.0694 48.6672 24.091 48.1914 24.0898C47.5882 24.0936 46.9857 24.0502 46.3893 23.9601C45.8902 23.8869 45.4009 23.7585 44.9302 23.5772C44.5202 23.4167 44.1299 23.2099 43.7668 22.9609C43.432 22.729 43.1291 22.4541 42.866 22.1433C42.6 21.8333 42.3741 21.491 42.1936 21.1246C42.0076 20.7371 41.8655 20.3302 41.7699 19.9112C41.6651 19.4579 41.5888 18.9985 41.5413 18.5356C41.4929 18.0375 41.4704 17.5372 41.474 17.0367V3.27428Z" fill="white"/>
<path fill-rule="evenodd" clip-rule="evenodd" d="M67.1139 7.60361C66.0236 7.26832 64.8861 7.1125 63.7458 7.14224C63.2175 7.14202 62.6896 7.16763 62.1638 7.21896C61.6408 7.27024 61.1453 7.33227 60.6775 7.40482C60.2492 7.46887 59.8235 7.5501 59.4017 7.64833C59.0019 7.74257 58.6703 7.83002 58.4066 7.91112L58.987 11.6021C59.6219 11.3774 60.2781 11.2185 60.9454 11.1278C61.7057 11.0157 62.4733 10.96 63.2419 10.9612C64.4071 10.9612 65.2237 11.1962 65.6915 11.6661C65.9282 11.9161 66.1124 12.2111 66.2329 12.5336C66.3535 12.8561 66.408 13.1996 66.3933 13.5436V13.9666C66.027 13.8705 65.6537 13.804 65.2768 13.7678C64.7533 13.7136 64.2273 13.6879 63.7011 13.6908C62.8437 13.6883 61.9885 13.7764 61.1497 13.9536C60.3814 14.1087 59.6455 14.3948 58.9743 14.7994C58.3435 15.1857 57.8211 15.7259 57.4561 16.3692C57.0588 17.104 56.8629 17.9308 56.8884 18.7657C56.8622 19.623 57.0301 20.4751 57.3796 21.2584C57.6951 21.9226 58.1817 22.4909 58.7893 22.9051C59.4525 23.3479 60.1958 23.6569 60.9774 23.8149C61.9089 24.0076 62.8584 24.1 63.8096 24.0906C65.2229 24.1071 66.6352 24.0084 68.0325 23.7958C69.1935 23.6036 70.1015 23.4348 70.7564 23.2895V13.7487C70.766 12.8256 70.6523 11.9054 70.4183 11.0125C70.2143 10.232 69.8198 9.51426 69.2702 8.92372C68.6703 8.31388 67.9299 7.86059 67.1139 7.60361ZM65.3916 20.5279H64.1158C63.4322 20.5717 62.7488 20.4369 62.132 20.1371C61.8847 19.9801 61.6862 19.7571 61.5588 19.4933C61.4314 19.2295 61.3803 18.9354 61.4111 18.6441C61.3984 18.3192 61.4828 17.9979 61.6535 17.7213C61.8232 17.4704 62.0566 17.2692 62.3297 17.1383C62.643 16.9862 62.9792 16.8866 63.3248 16.8435C63.7266 16.7908 64.1315 16.7652 64.5368 16.7668C64.8737 16.7695 65.2103 16.7908 65.5448 16.8306C65.9148 16.8691 66.1912 16.9097 66.374 16.9524V20.4382C66.0485 20.4867 65.7205 20.5165 65.3916 20.5279ZM86.0963 28.6188C87.4295 27.2696 88.0961 25.2032 88.0961 22.4194L88.0897 8.11123C87.6864 7.9852 87.2235 7.86137 86.7012 7.74016C86.1599 7.61509 85.6139 7.51156 85.0644 7.42981C84.4912 7.34384 83.9157 7.27411 83.3386 7.22071C82.7755 7.16758 82.2102 7.14051 81.6446 7.13961C80.4664 7.1219 79.2954 7.32561 78.1925 7.74016C77.2371 8.1086 76.3665 8.68811 75.6386 9.44011C74.9289 10.1853 74.3812 11.0853 74.0338 12.0777C73.6561 13.1755 73.4708 14.3303 73.4861 15.4912C73.4903 17.9918 74.0805 19.939 75.2566 21.3331C76.4327 22.7273 78.1309 23.4245 80.3516 23.4245C80.9211 23.4296 81.4893 23.3707 82.0457 23.249C82.5697 23.13 83.0783 22.9513 83.5615 22.7162V23.3233C83.5944 24.184 83.3035 25.0235 82.7527 25.6573C82.2133 26.2601 81.2921 26.5612 79.9887 26.5612C79.0904 26.5722 78.1935 26.4863 77.3136 26.305C76.5374 26.1373 75.7784 25.8979 75.0464 25.5898L73.4543 27.1144L74.2504 29.6374C75.1357 29.953 76.0451 30.1967 76.9697 30.3659C77.9377 30.5488 78.9207 30.6414 79.9058 30.6425C82.6995 30.6425 84.763 29.9681 86.0963 28.6188ZM81.1858 19.5387C79.1266 19.5387 78.0969 18.1895 78.0969 15.4912C78.0535 14.3493 78.3646 13.2238 78.9822 12.2868C79.6248 11.4197 80.632 10.947 81.67 11.0254C82.1031 11.0254 82.4343 11.0388 82.7398 11.0725C83.0455 11.1063 83.3132 11.1468 83.5361 11.1872V18.8913C83.2089 19.082 82.8604 19.2336 82.4978 19.343C82.0732 19.4754 81.6306 19.5415 81.1858 19.5387Z" fill="white"/>
<path d="M98.4361 19.9808C99.0097 19.9942 99.5828 19.938 100.143 19.8136C100.529 19.7283 100.896 19.571 101.224 19.35C101.475 19.178 101.67 18.9362 101.785 18.6546C101.892 18.3681 101.945 18.0648 101.941 17.7594C101.935 17.4036 101.836 17.0555 101.656 16.7487C101.476 16.4419 101.219 16.1868 100.912 16.008C99.8354 15.3602 98.679 14.8557 97.472 14.5075C96.7525 14.2539 96.0439 13.9703 95.3481 13.6575C94.657 13.3504 94.0141 12.9448 93.4393 12.4534C92.8703 11.9606 92.4033 11.3612 92.0646 10.689C91.6991 9.90614 91.5249 9.0476 91.5566 8.18421C91.5416 7.26276 91.733 6.34963 92.1168 5.51177C92.4961 4.71734 93.0534 4.02103 93.7455 3.47692C94.4883 2.89 95.3379 2.45264 96.2472 2.18903C97.314 1.88127 98.4202 1.73159 99.5305 1.74476C101.757 1.69714 103.961 2.20627 105.941 3.22596L104.534 7.02498C103.884 6.69853 103.208 6.42513 102.514 6.20744C101.647 5.9536 100.747 5.83408 99.8433 5.85303C98.9778 5.7889 98.1106 5.95321 97.3286 6.32952C97.0795 6.48163 96.8763 6.69858 96.7409 6.9572C96.6055 7.21581 96.5428 7.50636 96.5598 7.7978C96.547 8.14949 96.645 8.49632 96.8399 8.78936C97.0595 9.08439 97.3365 9.33192 97.6543 9.51703C98.0255 9.75309 98.4181 9.95357 98.8269 10.1158C99.2613 10.2918 99.7565 10.4722 100.312 10.6568C101.437 11.0861 102.417 11.494 103.25 11.8804C104.014 12.234 104.715 12.708 105.329 13.284C105.877 13.8126 106.3 14.4572 106.567 15.1707C106.856 16.0155 106.993 16.9052 106.97 17.798C107.055 19.5981 106.254 21.3274 104.821 22.4409C103.418 23.5398 101.29 24.0893 98.4361 24.0893C97.5646 24.0966 96.6936 24.0406 95.8301 23.9219C95.1403 23.8243 94.4572 23.6845 93.7845 23.5032C93.2654 23.3684 92.7561 23.1985 92.2601 22.9945C91.8907 22.8374 91.5298 22.6612 91.1787 22.4665L92.5532 18.6031C93.3152 18.9989 94.1166 19.314 94.9442 19.5431C96.0818 19.8523 97.2574 19.9995 98.4361 19.9808Z" fill="white"/>
<path fill-rule="evenodd" clip-rule="evenodd" d="M124.587 17.9372C124.663 17.3097 124.701 16.6769 124.699 16.0439C124.709 15.3974 124.671 14.7511 124.587 14.1101C124.498 13.5153 124.359 12.9294 124.169 12.3589C123.992 11.8286 123.765 11.3168 123.489 10.8308C122.962 9.90277 122.247 9.1168 121.399 8.53182C120.958 8.22741 120.485 7.97125 119.989 7.76776C119.463 7.55221 118.915 7.3935 118.355 7.29434C117.737 7.1855 117.111 7.13348 116.484 7.13894H115.654L114.787 7.19987L113.914 7.29456L113.053 7.4094L112.217 7.55143L111.418 7.72042L110.682 7.90299L110.059 8.09236V30.5814L112.292 31.7984L114.525 30.5814V24.1579C114.774 24.2748 115.028 24.3809 115.286 24.4757C115.544 24.5704 115.808 24.6493 116.078 24.7124C116.354 24.7793 116.633 24.829 116.914 24.861C117.212 24.8937 117.512 24.9095 117.812 24.9084C118.343 24.9114 118.872 24.857 119.39 24.7462C120.326 24.5476 121.206 24.1145 121.96 23.4817C122.324 23.1734 122.65 22.824 122.934 22.4406C123.229 22.0385 123.484 21.6082 123.695 21.1558C123.922 20.6699 124.108 20.1654 124.25 19.6479C124.403 19.0866 124.516 18.5148 124.587 17.9372ZM119.216 12.589C119.877 13.6422 120.203 14.9003 120.145 16.1726H120.151C120.151 19.265 119.089 20.8132 116.964 20.8178C116.504 20.8169 116.046 20.7509 115.604 20.6219C115.216 20.5196 114.848 20.3551 114.512 20.1349V11.3989C114.745 11.354 115.024 11.3156 115.348 11.284C115.673 11.2525 116.043 11.2367 116.459 11.2367C117.528 11.1617 118.562 11.6689 119.216 12.589ZM137.626 7.6036C136.535 7.26832 135.398 7.1125 134.258 7.14223C133.729 7.14201 133.201 7.16761 132.676 7.21894C132.153 7.27023 131.657 7.33225 131.189 7.4048C130.761 7.46885 130.335 7.55009 129.913 7.64831C129.514 7.74256 129.182 7.83001 128.918 7.9111L129.499 11.6021C130.134 11.3774 130.79 11.2185 131.457 11.1278C132.218 11.0157 132.985 10.96 133.754 10.9612C134.919 10.9612 135.736 11.1961 136.203 11.6661C136.44 11.916 136.624 12.211 136.745 12.5336C136.865 12.8561 136.92 13.1995 136.905 13.5435V13.9666C136.539 13.8705 136.165 13.804 135.789 13.7678C135.265 13.7136 134.739 13.6879 134.213 13.6908C133.356 13.6883 132.5 13.7764 131.661 13.9536C130.893 14.1087 130.157 14.3948 129.486 14.7994C128.855 15.1857 128.333 15.7258 127.968 16.3692C127.571 17.104 127.375 17.9308 127.4 18.7657C127.374 19.623 127.542 20.4751 127.891 21.2584C128.207 21.9226 128.693 22.4909 129.301 22.9051C129.964 23.3478 130.708 23.6569 131.489 23.8149C132.421 24.0076 133.37 24.1 134.321 24.0906C135.735 24.107 137.147 24.0084 138.544 23.7958C139.705 23.6036 140.613 23.4348 141.268 23.2895V13.7487C141.278 12.8256 141.164 11.9054 140.93 11.0125C140.726 10.2319 140.332 9.51424 139.782 8.92371C139.182 8.31386 138.442 7.86057 137.626 7.6036ZM136.282 20.5279H135.007C134.323 20.5715 133.639 20.4369 133.023 20.1371C132.775 19.9801 132.577 19.7571 132.449 19.4933C132.322 19.2295 132.271 18.9354 132.302 18.644C132.289 18.3192 132.373 17.9979 132.544 17.7213C132.714 17.4704 132.947 17.2691 133.22 17.1383C133.534 16.9862 133.87 16.8866 134.216 16.8435C134.617 16.7908 135.022 16.7651 135.428 16.7668C135.764 16.7695 136.101 16.7908 136.435 16.8306C136.805 16.8691 137.082 16.9097 137.265 16.9524V20.4382C136.939 20.4864 136.611 20.5163 136.282 20.5279Z" fill="white"/>
<path d="M143.969 15.6201C143.962 14.4951 144.167 13.3789 144.574 12.33C145.342 10.2982 146.983 8.66097 149.1 7.81582C150.284 7.34853 151.549 7.11885 152.822 7.13987C154.441 7.12714 156.048 7.42135 157.558 8.00694L156.544 11.6477C156.052 11.475 155.55 11.3323 155.04 11.2205C154.439 11.0916 153.825 11.0295 153.21 11.0355C151.981 10.9549 150.785 11.4287 149.991 12.3109C149.244 13.2652 148.869 14.4313 148.929 15.6135C148.849 16.8083 149.199 17.9938 149.923 18.9801C150.585 19.7751 151.744 20.1724 153.4 20.1724C154.034 20.1688 154.666 20.1177 155.292 20.0194C155.93 19.9274 156.556 19.7627 157.157 19.5285L157.837 23.2648C157.149 23.5229 156.438 23.7172 155.714 23.845C154.787 24.0142 153.846 24.0954 152.903 24.0874C151.515 24.1295 150.13 23.9133 148.821 23.4498C147.759 23.0557 146.806 22.4433 146.03 21.658C145.292 20.8876 144.746 19.973 144.431 18.9801C144.099 17.8919 143.943 16.7576 143.969 15.6201Z" fill="white"/>
<path fill-rule="evenodd" clip-rule="evenodd" d="M160.433 11.9777C159.959 13.1683 159.733 14.4429 159.767 15.7239C159.765 16.8493 159.952 17.9671 160.32 19.0306C160.651 20.0169 161.209 20.9204 161.951 21.6748C162.716 22.4496 163.647 23.0562 164.681 23.4523C165.947 23.9037 167.286 24.1196 168.63 24.0895C169.228 24.0903 169.826 24.0605 170.421 24.0002C171.015 23.9408 171.575 23.8644 172.099 23.771C172.579 23.6898 173.055 23.5834 173.524 23.4523C173.876 23.3567 174.219 23.2331 174.549 23.0828L175.268 21.076L173.923 19.3811C173.257 19.6432 172.565 19.8333 171.859 19.9481C171.012 20.1015 170.151 20.1782 169.289 20.1776C168.137 20.2341 166.997 19.9446 166.026 19.3491C165.243 18.8399 164.74 18.0215 164.654 17.1192H175.495C175.539 16.8772 175.561 16.5968 175.561 16.2782V15.4054C175.561 12.6955 174.869 10.6418 173.484 9.2443C171.995 7.80584 169.936 7.04332 167.824 7.14808C166.802 7.14704 165.789 7.33274 164.834 7.69603C163.868 8.04889 162.985 8.5952 162.237 9.30151C161.46 10.0615 160.846 10.9722 160.433 11.9777ZM171.132 12.8441C171.249 13.2119 171.318 13.5929 171.339 13.9781H165.04C165.105 13.587 165.208 13.2029 165.346 12.8312C165.478 12.4651 165.679 12.1277 165.939 11.8374C166.207 11.5435 166.533 11.309 166.897 11.1492C167.331 10.9659 167.799 10.8768 168.269 10.8879C168.749 10.8721 169.226 10.9662 169.661 11.1619C170.014 11.3304 170.328 11.5689 170.586 11.8628C170.833 12.1497 171.018 12.4835 171.132 12.8441Z" fill="white"/>
</g>
<defs>
<clipPath id="clip0_2848_105">
<rect width="175.562" height="32" fill="white" transform="translate(0 0.766724)"/>
</clipPath>
</defs>
</svg>
