<svg width="205" height="47" viewBox="0 0 205 47" fill="none" xmlns="http://www.w3.org/2000/svg">
<g clip-path="url(#clip0_11501_333)">
<path d="M144.393 16.0546C144.009 15.9177 143.637 15.779 143.274 15.6438C142.202 15.2444 141.211 14.8749 140.217 14.6684C138.939 14.4028 137.955 14.4821 137.142 15.0186C136.255 15.6047 135.718 16.5438 135.397 17.8368C135.069 19.1564 135.007 20.6669 134.951 22.2407C134.895 23.8134 134.85 25.3244 135.083 26.665C135.312 27.9785 135.78 28.9562 136.626 29.6075C137.388 30.195 138.347 30.3336 139.642 30.1511C140.552 30.0229 141.431 29.7758 142.388 29.5067C142.881 29.3681 143.395 29.2237 143.944 29.0867C144.104 29.0468 144.262 29.0078 144.418 28.9694C145.578 28.6831 146.629 28.4235 147.567 28.0217C148.597 27.5801 149.341 27.024 149.805 26.2194C150.887 24.3429 150.74 21.8284 149.638 19.6448C148.744 17.8737 146.845 16.928 144.393 16.0546Z" stroke="white" stroke-width="5.77916"/>
<path d="M165.609 20.3552C164.572 18.8955 162.957 18.0197 161.053 18.0197C157.461 18.0197 154.906 20.8175 154.906 24.6857C154.906 28.5539 157.461 31.3517 161.053 31.3517C162.957 31.3517 164.572 30.4759 165.609 29.0161V29.5392C165.609 30.2715 166.197 30.8651 166.923 30.8651C167.648 30.8651 168.237 30.2715 168.237 29.5392V19.8322C168.237 19.0999 167.648 18.5062 166.923 18.5062C166.197 18.5062 165.609 19.0999 165.609 19.8322V20.3552ZM161.559 29.0161C159.221 29.0161 157.509 27.1672 157.509 24.6857C157.509 22.1798 159.221 20.3552 161.559 20.3552C163.897 20.3552 165.585 22.1798 165.585 24.6857C165.585 27.1915 163.897 29.0161 161.559 29.0161Z" fill="white"/>
<path d="M174.331 29.1865C175.367 30.5488 176.934 31.3517 178.766 31.3517C182.334 31.3517 184.913 28.5539 184.913 24.6857C184.913 20.8175 182.31 18.0197 178.766 18.0197C176.886 18.0197 175.295 18.8469 174.259 20.2335V19.7957C174.259 19.0835 173.686 18.5062 172.981 18.5062C172.275 18.5062 171.703 19.0835 171.703 19.7957V35.1348C171.703 35.8671 172.292 36.4607 173.017 36.4607C173.743 36.4607 174.331 35.8671 174.331 35.1348V29.1865ZM182.31 24.6857C182.31 27.1185 180.598 28.8702 178.26 28.8702C175.922 28.8702 174.234 27.1185 174.234 24.6857C174.234 22.2529 175.922 20.5012 178.26 20.5012C180.574 20.5012 182.31 22.2285 182.31 24.6857Z" fill="white"/>
<path d="M190.432 29.1865C191.469 30.5488 193.036 31.3517 194.868 31.3517C198.435 31.3517 201.014 28.5539 201.014 24.6857C201.014 20.8175 198.411 18.0197 194.868 18.0197C192.987 18.0197 191.396 18.8469 190.36 20.2335V19.7956C190.36 19.0835 189.788 18.5062 189.082 18.5062C188.376 18.5062 187.805 19.0835 187.805 19.7957V35.1348C187.805 35.8671 188.393 36.4607 189.119 36.4607C189.844 36.4607 190.432 35.8671 190.432 35.1348V29.1865ZM198.411 24.6857C198.411 27.1185 196.699 28.8702 194.361 28.8702C192.023 28.8702 190.336 27.1185 190.336 24.6857C190.336 22.2529 192.023 20.5012 194.361 20.5012C196.675 20.5012 198.411 22.2285 198.411 24.6857Z" fill="white"/>
<path d="M68.6425 31.8048C72.7161 31.8048 75.2827 29.4521 75.2827 26.2914C75.2827 19.7323 64.4748 22.7742 64.4748 18.758C64.4748 17.2608 65.9348 16.1439 68.195 16.1439C70.0684 16.1439 71.5322 17.0283 72.0699 18.3792C72.3176 19.0019 72.8313 19.5659 73.4962 19.5659C74.273 19.5659 74.9216 18.9164 74.721 18.1588C74.0325 15.5574 71.488 13.7911 68.1715 13.7911C64.2866 13.7911 61.6725 16.0013 61.6725 19.162C61.6725 25.6735 72.4808 22.5841 72.4808 26.7191C72.4808 28.2163 71.0914 29.4521 68.7131 29.4521C66.6146 29.4521 65.0053 28.4934 64.4028 27.0415C64.1166 26.3514 63.5444 25.721 62.8031 25.721C62.0618 25.721 61.443 26.3363 61.6149 27.0639C62.2788 29.8727 65.0264 31.8048 68.6425 31.8048Z" fill="white"/>
<path d="M83.054 31.686C84.5845 31.686 86.0915 30.9255 86.9154 29.666V29.9393C86.9154 30.6415 87.4795 31.2107 88.1752 31.2107C88.8708 31.2107 89.4349 30.6415 89.4349 29.9393V20.4215C89.4349 19.7127 88.8655 19.1382 88.1636 19.1382C87.4613 19.1382 86.8919 19.7127 86.8919 20.4215V26.0775C86.8919 28.0024 85.3848 29.4046 83.6191 29.4046C81.8058 29.4046 80.7697 28.0975 80.7697 26.3151V20.4333C80.7697 19.7181 80.195 19.1382 79.4864 19.1382C78.7778 19.1382 78.2031 19.7181 78.2031 20.4333V26.5053C78.2031 29.4996 80.1105 31.686 83.054 31.686Z" fill="white"/>
<path d="M95.3947 29.5709C96.4072 30.9017 97.9378 31.6859 99.7276 31.6859C103.212 31.6859 105.732 28.953 105.732 25.1744C105.732 21.3958 103.189 18.6628 99.7276 18.6628C97.8907 18.6628 96.3367 19.4709 95.3241 20.8254V20.3977C95.3241 19.702 94.7653 19.1381 94.0759 19.1381C93.387 19.1381 92.8281 19.702 92.8281 20.3977V35.3813C92.8281 36.0966 93.4028 36.6765 94.1114 36.6765C94.82 36.6765 95.3947 36.0966 95.3947 35.3813V29.5709ZM103.189 25.1744C103.189 27.5508 101.517 29.2619 99.2331 29.2619C96.9488 29.2619 95.3006 27.5508 95.3006 25.1744C95.3006 22.7979 96.9488 21.0868 99.2331 21.0868C101.493 21.0868 103.189 22.7741 103.189 25.1744Z" fill="white"/>
<path d="M114.421 29.5233C112.443 29.5233 110.936 28.0974 110.629 25.9586H119.811C120.319 25.9586 120.755 25.5679 120.755 25.0556C120.755 21.3245 118.117 18.6628 114.397 18.6628C110.677 18.6628 107.992 21.3245 107.992 25.0318C107.992 28.9055 110.7 31.6859 114.468 31.6859C116.541 31.6859 118.479 30.7721 119.532 29.3956C119.954 28.8437 119.6 28.1072 118.945 27.8888C118.363 27.6952 117.735 27.9842 117.289 28.4077C116.583 29.0767 115.526 29.5233 114.421 29.5233ZM110.629 24.0574C110.983 22.1325 112.396 20.8254 114.327 20.8254C116.305 20.8254 117.812 22.1563 118.094 24.0574H110.629Z" fill="white"/>
<path d="M129.3 18.7104C127.934 18.7104 126.78 19.4471 126.051 20.6829V20.3858C126.051 19.6968 125.497 19.1382 124.814 19.1382C124.132 19.1382 123.578 19.6968 123.578 20.3858V29.9155C123.578 30.6308 124.153 31.2107 124.861 31.2107C125.57 31.2107 126.145 30.6308 126.145 29.9155V24.6041C126.145 22.4653 127.251 20.9206 128.971 20.9206C129.066 20.9206 129.171 20.9254 129.284 20.9354C130.023 21.0011 130.807 20.4812 130.807 19.7324C130.807 19.3031 130.546 18.9076 130.131 18.8126C129.846 18.7472 129.562 18.7104 129.3 18.7104Z" fill="white"/>
<path d="M3.29004 4.10474C8.25021 -1.55185 16.862 0.0925973 24.3027 0.681885C30.736 1.19137 37.2635 2.2592 41.5674 7.13599C46.1725 12.3541 48.7538 19.5844 46.9512 26.345C45.2136 32.8615 38.795 36.0928 32.9746 39.3665C26.4609 43.0301 19.5379 48.5216 12.6553 45.634C5.55336 42.6544 3.54959 33.9024 1.83594 26.303C0.120912 18.6975 -1.82151 9.93446 3.29004 4.10474ZM10.5996 13.0667C10.5924 16.0828 10.5776 22.2249 10.5918 27.3577C10.5962 28.8926 11.8317 30.132 13.3525 30.1321H33.1416C34.6686 30.1319 35.906 28.8822 35.9062 27.3411V16.5559C35.906 15.0148 34.6686 13.7651 33.1416 13.7649H13.6074C12.6365 13.7649 11.7363 13.2514 11.2363 12.4114L10.6035 11.3469C10.6035 11.6042 10.6017 12.2092 10.5996 13.0667ZM26.3848 24.9485C24.7635 26.9734 21.7043 26.9734 20.083 24.9485L20.4844 24.6213C21.899 26.3879 24.5677 26.3877 25.9824 24.6213L26.3848 24.9485ZM17.0088 21.2922C18.1867 21.2922 19.1414 22.2558 19.1416 23.4446C19.1416 24.6335 18.1868 25.5979 17.0088 25.5979C15.8308 25.5979 14.876 24.6335 14.876 23.4446C14.8761 22.2558 15.8309 21.2923 17.0088 21.2922ZM29.6895 21.2922C30.8674 21.2923 31.8222 22.2558 31.8223 23.4446C31.8223 24.6335 30.8674 25.5979 29.6895 25.5979C28.5114 25.5979 27.5566 24.6335 27.5566 23.4446C27.5567 22.2557 28.5115 21.2922 29.6895 21.2922Z" fill="white"/>
</g>
<defs>
<clipPath id="clip0_11501_333">
<rect width="205" height="47" fill="white"/>
</clipPath>
</defs>
</svg>
